  0
SECTION
  2
HEADER
  9
$ACADVER
  1
AC1014
  9
$HANDSEED
  5
FFFF
  9
$MEASUREMENT
 70
     1
  0
ENDSEC
  0
SECTION
  2
TABLES
  0
TABLE
  2
VPORT
  5
8
330
0
100
AcDbSymbolTable
 70
     4
  0
VPORT
  5
2E
330
8
100
AcDbSymbolTableRecord
100
AcDbViewportTableRecord
  2
*ACTIVE
 70
     0
 10
0.0
 20
0.0
 11
1.0
 21
1.0
 12
210.0
 22
148.5
 13
0.0
 23
0.0
 14
10.0
 24
10.0
 15
10.0
 25
10.0
 16
0.0
 26
0.0
 36
1.0
 17
0.0
 27
0.0
 37
0.0
 40
341.0
 41
1.24
 42
50.0
 43
0.0
 44
0.0
 50
0.0
 51
0.0
 71
     0
 72
   100
 73
     1
 74
     3
 75
     0
 76
     0
 77
     0
 78
     0
  0
ENDTAB
  0
TABLE
  2
LTYPE
  5
5
330
0
100
AcDbSymbolTable
 70
     1
  0
LTYPE
  5
14
330
5
100
AcDbSymbolTableRecord
100
AcDbLinetypeTableRecord
  2
BYBLOCK
 70
     0
  3

 72
    65
 73
     0
 40
0.0
  0
LTYPE
  5
15
330
5
100
AcDbSymbolTableRecord
100
AcDbLinetypeTableRecord
  2
BYLAYER
 70
     0
  3

 72
    65
 73
     0
 40
0.0
  0
LTYPE
  5
16
330
5
100
AcDbSymbolTableRecord
100
AcDbLinetypeTableRecord
  2
CONTINUOUS
 70
     0
  3
Solid line
 72
    65
 73
     0
 40
0.0
  0
ENDTAB
  0
TABLE
  2
LAYER
  5
2
100
AcDbSymbolTable
 70
1
  0
LAYER
  5
50
100
AcDbSymbolTableRecord
100
AcDbLayerTableRecord
  2
0
 70
0
  6
CONTINUOUS
  0
ENDTAB
  0
TABLE
  2
STYLE
  5
3
330
0
100
AcDbSymbolTable
 70
     1
  0
STYLE
  5
11
330
3
100
AcDbSymbolTableRecord
100
AcDbTextStyleTableRecord
  2
STANDARD
 70
     0
 40
0.0
 41
1.0
 50
0.0
 71
     0
 42
2.5
  3
txt
  4

  0
ENDTAB
  0
TABLE
  2
VIEW
  5
6
330
0
100
AcDbSymbolTable
 70
     0
  0
ENDTAB
  0
TABLE
  2
UCS
  5
7
330
0
100
AcDbSymbolTable
 70
     0
  0
ENDTAB
  0
TABLE
  2
APPID
  5
9
330
0
100
AcDbSymbolTable
 70
     2
  0
APPID
  5
12
330
9
100
AcDbSymbolTableRecord
100
AcDbRegAppTableRecord
  2
ACAD
 70
     0
  0
ENDTAB
  0
TABLE
  2
DIMSTYLE
  5
A
330
0
100
AcDbSymbolTable
 70
     1
  0
DIMSTYLE
105
27
330
A
100
AcDbSymbolTableRecord
100
AcDbDimStyleTableRecord
  2
ISO-25
 70
     0
  3

  4

  5

  6

  7

 40
1.0
 41
2.5
 42
0.625
 43
3.75
 44
1.25
 45
0.0
 46
0.0
 47
0.0
 48
0.0
140
2.5
141
2.5
142
0.0
143
0.03937007874016
144
1.0
145
0.0
146
1.0
147
0.625
 71
     0
 72
     0
 73
     0
 74
     0
 75
     0
 76
     0
 77
     1
 78
     8
170
     0
171
     3
172
     1
173
     0
174
     0
175
     0
176
     0
177
     0
178
     0
270
     2
271
     2
272
     2
273
     2
274
     3
340
11
275
     0
280
     0
281
     0
282
     0
283
     0
284
     8
285
     0
286
     0
287
     3
288
     0
  0
ENDTAB
  0
TABLE
  2
BLOCK_RECORD
  5
1
330
0
100
AcDbSymbolTable
 70
     1
  0
BLOCK_RECORD
  5
1F
330
1
100
AcDbSymbolTableRecord
100
AcDbBlockTableRecord
  2
*MODEL_SPACE
  0
BLOCK_RECORD
  5
1B
330
1
100
AcDbSymbolTableRecord
100
AcDbBlockTableRecord
  2
*PAPER_SPACE
  0
ENDTAB
  0
ENDSEC
  0
SECTION
  2
BLOCKS
  0
BLOCK
  5
20
330
1F
100
AcDbEntity
  8
0
100
AcDbBlockBegin
  2
*MODEL_SPACE
 70
     0
 10
0.0
 20
0.0
 30
0.0
  3
*MODEL_SPACE
  1

  0
ENDBLK
  5
21
330
1F
100
AcDbEntity
  8
0
100
AcDbBlockEnd
  0
BLOCK
  5
1C
330
1B
100
AcDbEntity
 67
     1
  8
0
100
AcDbBlockBegin
  2
*PAPER_SPACE
  1

  0
ENDBLK
  5
1D
330
1B
100
AcDbEntity
 67
     1
  8
0
100
AcDbBlockEnd
  0
ENDSEC
  0
SECTION
  2
ENTITIES
  0
LINE
  5
100
100
AcDbEntity
  8
0
 62
7
100
AcDbLine
 10
268.847867
 20
108.508971
 30
0.0
 11
268.926025
 21
107.285392
 31
0.0
  0
LINE
  5
101
100
AcDbEntity
  8
0
 62
7
100
AcDbLine
 10
268.926025
 20
107.285392
 30
0.0
 11
270.982446
 21
107.114881
 31
0.0
  0
SPLINE
  5
102
100
AcDbEntity
  8
0
 62
7
100
AcDbSpline
 70
0
 71
3
 72
223
 73
219
 74
217
 40
0.000000
 40
0.000000
 40
0.000000
 40
0.000000
 40
0.552107
 40
1.874785
 40
3.683364
 40
5.800947
 40
7.657316
 40
9.075324
 40
13.449723
 40
16.832367
 40
19.093179
 40
22.001885
 40
26.286987
 40
31.197815
 40
34.476625
 40
37.481510
 40
39.500309
 40
40.183693
 40
41.196731
 40
42.325867
 40
43.979232
 40
46.365866
 40
48.970209
 40
52.167467
 40
54.224237
 40
56.300346
 40
57.946422
 40
59.182824
 40
60.058708
 40
60.820951
 40
61.570115
 40
62.633517
 40
63.627493
 40
64.699055
 40
65.627691
 40
66.671776
 40
67.431488
 40
68.631871
 40
69.627065
 40
70.634692
 40
71.437715
 40
73.584022
 40
76.542978
 40
78.554294
 40
79.594348
 40
81.363871
 40
83.547970
 40
84.722358
 40
85.720546
 40
87.359442
 40
88.712084
 40
90.053035
 40
91.094946
 40
92.132166
 40
93.457025
 40
94.806639
 40
96.391172
 40
97.516606
 40
98.774912
 40
99.905450
 40
100.727605
 40
101.497727
 40
102.195010
 40
102.878605
 40
103.595223
 40
105.142457
 40
106.862822
 40
108.330922
 40
108.976037
 40
109.809218
 40
111.334706
 40
112.749290
 40
114.137926
 40
115.348139
 40
116.591485
 40
117.623918
 40
118.903127
 40
120.091327
 40
121.012702
 40
121.867389
 40
123.720407
 40
125.848553
 40
127.580774
 40
128.604429
 40
130.615517
 40
134.714402
 40
137.964967
 40
140.552627
 40
141.917439
 40
142.692050
 40
143.733452
 40
144.817638
 40
148.011500
 40
150.747340
 40
153.875585
 40
155.792434
 40
157.656421
 40
159.066461
 40
160.587923
 40
162.635564
 40
165.145634
 40
169.131508
 40
172.728247
 40
177.320887
 40
181.390831
 40
185.588652
 40
188.860671
 40
192.132474
 40
195.879939
 40
199.087685
 40
202.526356
 40
205.728534
 40
209.672255
 40
214.107570
 40
217.350188
 40
221.247414
 40
225.447904
 40
228.482866
 40
231.023882
 40
232.959764
 40
235.239864
 40
239.761870
 40
245.028844
 40
249.938503
 40
255.177457
 40
260.122270
 40
266.076880
 40
270.450544
 40
276.238884
 40
285.013282
 40
290.912712
 40
292.819815
 40
296.057455
 40
302.302176
 40
306.422838
 40
311.225662
 40
317.766199
 40
321.441581
 40
324.510605
 40
326.710985
 40
328.545738
 40
330.756562
 40
332.864854
 40
335.018545
 40
337.350040
 40
339.356475
 40
341.258116
 40
343.313998
 40
345.080346
 40
347.532511
 40
350.943350
 40
357.035549
 40
359.222909
 40
361.051856
 40
362.673080
 40
367.744808
 40
373.272467
 40
379.979954
 40
383.594630
 40
387.552930
 40
395.908265
 40
398.318360
 40
400.441745
 40
402.509320
 40
404.950801
 40
406.306640
 40
407.684210
 40
410.126235
 40
413.077732
 40
416.556477
 40
420.330344
 40
423.938720
 40
426.189237
 40
429.065770
 40
432.094840
 40
435.901707
 40
437.876257
 40
439.795849
 40
441.103766
 40
442.122681
 40
443.430626
 40
444.261319
 40
445.167697
 40
446.372416
 40
447.648359
 40
448.979959
 40
450.390688
 40
452.258096
 40
454.794446
 40
456.403402
 40
457.796650
 40
459.574827
 40
461.624936
 40
464.368388
 40
468.301767
 40
472.069350
 40
475.491440
 40
477.478408
 40
479.262783
 40
480.930333
 40
482.135126
 40
482.869166
 40
483.761303
 40
484.449742
 40
485.296893
 40
486.724356
 40
488.198010
 40
489.298705
 40
490.493684
 40
492.878736
 40
495.562625
 40
497.946119
 40
500.854419
 40
503.746059
 40
506.380851
 40
507.224425
 40
508.131169
 40
508.925845
 40
508.925845
 40
508.925845
 40
508.925845
 10
212.112378
 20
55.979706
 30
0.0
 10
211.931248
 20
56.012655
 30
0.0
 10
211.316188
 20
56.124539
 30
0.0
 10
210.090209
 20
56.218925
 30
0.0
 10
208.346928
 20
56.358194
 30
0.0
 10
206.426901
 20
56.529698
 30
0.0
 10
204.644353
 20
56.776349
 30
0.0
 10
202.161324
 20
57.364870
 30
0.0
 10
199.250395
 20
58.307761
 30
0.0
 10
196.039105
 20
59.228524
 30
0.0
 10
193.245363
 20
59.811903
 30
0.0
 10
190.273475
 20
60.892551
 30
0.0
 10
186.654985
 20
62.689277
 30
0.0
 10
183.064709
 20
64.789727
 30
0.0
 10
179.830180
 20
66.646815
 30
0.0
 10
177.356306
 20
67.904518
 30
0.0
 10
175.557294
 20
68.528003
 30
0.0
 10
174.383275
 20
68.925539
 30
0.0
 10
173.540418
 20
69.352204
 30
0.0
 10
172.444066
 20
69.982246
 30
0.0
 10
170.940117
 20
70.824148
 30
0.0
 10
168.968565
 20
71.833612
 30
0.0
 10
166.523567
 20
73.047631
 30
0.0
 10
164.156904
 20
74.167371
 30
0.0
 10
162.055028
 20
75.438295
 30
0.0
 10
160.654414
 20
76.772536
 30
0.0
 10
159.439122
 20
77.887615
 30
0.0
 10
158.444774
 20
78.664136
 30
0.0
 10
157.575694
 20
79.072673
 30
0.0
 10
156.801911
 20
79.307145
 30
0.0
 10
156.172620
 20
79.927781
 30
0.0
 10
155.703793
 20
80.736324
 30
0.0
 10
155.104339
 20
81.591462
 30
0.0
 10
154.448143
 20
82.349334
 30
0.0
 10
153.690188
 20
83.018742
 30
0.0
 10
152.970832
 20
83.606330
 30
0.0
 10
151.966424
 20
83.836156
 30
0.0
 10
150.986016
 20
83.656765
 30
0.0
 10
149.923584
 20
83.567833
 30
0.0
 10
148.990559
 20
83.508756
 30
0.0
 10
147.668900
 20
83.447191
 30
0.0
 10
145.731713
 20
83.889968
 30
0.0
 10
143.388001
 20
84.269577
 30
0.0
 10
141.541624
 20
85.136453
 30
0.0
 10
139.906052
 20
85.181819
 30
0.0
 10
138.310619
 20
84.632112
 30
0.0
 10
136.739584
 20
83.986583
 30
0.0
 10
135.450978
 20
83.275565
 30
0.0
 10
134.164531
 20
83.146659
 30
0.0
 10
132.842908
 20
83.297559
 30
0.0
 10
131.407724
 20
83.456400
 30
0.0
 10
130.175724
 20
83.646690
 30
0.0
 10
129.067053
 20
83.913140
 30
0.0
 10
127.954672
 20
84.141625
 30
0.0
 10
126.720997
 20
84.261206
 30
0.0
 10
125.302421
 20
84.312632
 30
0.0
 10
123.947508
 20
84.307562
 30
0.0
 10
122.632060
 20
84.082181
 30
0.0
 10
121.565807
 20
83.579215
 30
0.0
 10
120.595403
 20
83.134320
 30
0.0
 10
119.705080
 20
82.896041
 30
0.0
 10
118.938219
 20
82.962702
 30
0.0
 10
118.223555
 20
83.020655
 30
0.0
 10
117.522371
 20
82.917657
 30
0.0
 10
116.616717
 20
82.529133
 30
0.0
 10
115.300346
 20
82.258245
 30
0.0
 10
113.698574
 20
82.378089
 30
0.0
 10
112.499396
 20
82.847632
 30
0.0
 10
111.667617
 20
83.410081
 30
0.0
 10
110.628668
 20
83.403572
 30
0.0
 10
109.390816
 20
83.313304
 30
0.0
 10
107.953849
 20
83.129198
 30
0.0
 10
106.643073
 20
82.855358
 30
0.0
 10
105.421482
 20
82.467600
 30
0.0
 10
104.338001
 20
82.036679
 30
0.0
 10
103.153224
 20
81.870616
 30
0.0
 10
101.986477
 20
81.955229
 30
0.0
 10
100.860102
 20
82.016338
 30
0.0
 10
99.865120
 20
81.940714
 30
0.0
 10
98.723764
 20
81.522609
 30
0.0
 10
97.154898
 20
81.146055
 30
0.0
 10
95.240148
 20
80.971001
 30
0.0
 10
93.626013
 20
81.187290
 30
0.0
 10
92.038952
 20
81.396215
 30
0.0
 10
89.699985
 20
80.771624
 30
0.0
 10
86.678974
 20
80.086319
 30
0.0
 10
83.459952
 20
79.281605
 30
0.0
 10
81.126903
 20
78.717741
 30
0.0
 10
79.587146
 20
78.382832
 30
0.0
 10
78.550633
 20
78.158713
 30
0.0
 10
77.619707
 20
77.895544
 30
0.0
 10
75.930173
 20
77.359344
 30
0.0
 10
73.698687
 20
76.644014
 30
0.0
 10
70.684972
 20
76.252850
 30
0.0
 10
68.089317
 20
76.403132
 30
0.0
 10
65.791230
 20
76.533532
 30
0.0
 10
64.060097
 20
76.578076
 30
0.0
 10
62.462738
 20
76.516563
 30
0.0
 10
60.802169
 20
76.484575
 30
0.0
 10
58.779550
 20
76.648524
 30
0.0
 10
55.952440
 20
76.970956
 30
0.0
 10
52.612267
 20
77.470651
 30
0.0
 10
48.771584
 20
78.839990
 30
0.0
 10
45.126669
 20
80.704054
 30
0.0
 10
41.513903
 20
83.029297
 30
0.0
 10
38.539216
 20
85.469890
 30
0.0
 10
36.013299
 20
88.052788
 30
0.0
 10
34.411236
 20
91.115274
 30
0.0
 10
32.964441
 20
94.197424
 30
0.0
 10
31.813368
 20
97.475088
 30
0.0
 10
31.156289
 20
100.704618
 30
0.0
 10
31.012682
 20
104.246468
 30
0.0
 10
31.485639
 20
108.082575
 30
0.0
 10
31.964784
 20
111.935054
 30
0.0
 10
33.247500
 20
115.615327
 30
0.0
 10
35.387166
 20
118.757411
 30
0.0
 10
37.494947
 20
121.802318
 30
0.0
 10
39.587770
 20
124.321301
 30
0.0
 10
41.537914
 20
125.906283
 30
0.0
 10
43.396954
 20
127.183582
 30
0.0
 10
46.000665
 20
128.500552
 30
0.0
 10
49.629091
 20
130.229756
 30
0.0
 10
54.119761
 20
132.212554
 30
0.0
 10
59.067665
 20
133.642168
 30
0.0
 10
64.031976
 20
134.538799
 30
0.0
 10
69.410114
 20
134.806075
 30
0.0
 10
74.505295
 20
134.915514
 30
0.0
 10
79.863745
 20
134.489995
 30
0.0
 10
86.173712
 20
134.236061
 30
0.0
 10
92.989139
 20
134.327315
 30
0.0
 10
98.530917
 20
134.365879
 30
0.0
 10
102.176646
 20
134.896847
 30
0.0
 10
105.964102
 20
135.180833
 30
0.0
 10
110.485755
 20
135.501568
 30
0.0
 10
115.519069
 20
136.020086
 30
0.0
 10
120.581287
 20
137.021470
 30
0.0
 10
125.442418
 20
138.215709
 30
0.0
 10
129.749926
 20
139.243944
 30
0.0
 10
132.670513
 20
139.848407
 30
0.0
 10
135.013949
 20
140.200725
 30
0.0
 10
137.088843
 20
140.377853
 30
0.0
 10
139.128883
 20
140.592058
 30
0.0
 10
141.273477
 20
140.829188
 30
0.0
 10
143.462888
 20
141.023515
 30
0.0
 10
145.623359
 20
141.153924
 30
0.0
 10
147.702855
 20
141.202174
 30
0.0
 10
149.690694
 20
141.229432
 30
0.0
 10
151.597075
 20
141.318317
 30
0.0
 10
153.682429
 20
141.478616
 30
0.0
 10
156.215535
 20
141.709403
 30
0.0
 10
160.199424
 20
141.851547
 30
0.0
 10
164.094832
 20
141.943839
 30
0.0
 10
167.461406
 20
142.084061
 30
0.0
 10
169.333689
 20
142.281951
 30
0.0
 10
172.108625
 20
142.898899
 30
0.0
 10
176.073926
 20
143.838481
 30
0.0
 10
181.806339
 20
144.574445
 30
0.0
 10
187.073105
 20
144.935292
 30
0.0
 10
191.829665
 20
145.277551
 30
0.0
 10
197.132866
 20
144.837616
 30
0.0
 10
202.007431
 20
144.318723
 30
0.0
 10
206.276772
 20
143.812941
 30
0.0
 10
208.436379
 20
143.391107
 30
0.0
 10
210.577332
 20
142.798318
 30
0.0
 10
212.387596
 20
142.145093
 30
0.0
 10
214.247193
 20
142.088176
 30
0.0
 10
215.457680
 20
143.453571
 30
0.0
 10
217.332060
 20
144.720572
 30
0.0
 10
220.270144
 20
145.418552
 30
0.0
 10
223.676697
 20
145.488410
 30
0.0
 10
227.286529
 20
145.026216
 30
0.0
 10
230.404111
 20
144.377580
 30
0.0
 10
233.292704
 20
143.627354
 30
0.0
 10
235.059514
 20
141.204923
 30
0.0
 10
234.967715
 20
137.829563
 30
0.0
 10
233.653271
 20
135.105733
 30
0.0
 10
231.947382
 20
133.193980
 30
0.0
 10
230.615913
 20
132.024868
 30
0.0
 10
229.272538
 20
131.560335
 30
0.0
 10
228.092853
 20
131.197202
 30
0.0
 10
227.292241
 20
130.592656
 30
0.0
 10
226.393675
 20
129.806590
 30
0.0
 10
227.069324
 20
128.816597
 30
0.0
 10
227.949402
 20
128.189385
 30
0.0
 10
229.180168
 20
127.738954
 30
0.0
 10
230.570417
 20
127.830961
 30
0.0
 10
231.886835
 20
128.727472
 30
0.0
 10
233.017560
 20
130.315981
 30
0.0
 10
234.089012
 20
132.003103
 30
0.0
 10
235.276914
 20
133.437466
 30
0.0
 10
236.593108
 20
134.356236
 30
0.0
 10
238.189795
 20
135.089722
 30
0.0
 10
240.372017
 20
135.428136
 30
0.0
 10
243.279998
 20
135.541762
 30
0.0
 10
246.769858
 20
135.026350
 30
0.0
 10
250.157871
 20
133.371929
 30
0.0
 10
252.356205
 20
131.128439
 30
0.0
 10
253.374760
 20
128.935738
 30
0.0
 10
253.777334
 20
127.145500
 30
0.0
 10
253.640815
 20
125.579204
 30
0.0
 10
253.263997
 20
124.421599
 30
0.0
 10
253.520786
 20
123.432682
 30
0.0
 10
254.248952
 20
123.050106
 30
0.0
 10
254.992343
 20
122.730935
 30
0.0
 10
256.002963
 20
122.752862
 30
0.0
 10
257.232799
 20
122.915332
 30
0.0
 10
258.559662
 20
123.092245
 30
0.0
 10
259.821766
 20
123.058334
 30
0.0
 10
261.353016
 20
122.724637
 30
0.0
 10
263.293657
 20
121.915689
 30
0.0
 10
265.408667
 20
120.607401
 30
0.0
 10
267.485304
 20
118.902934
 30
0.0
 10
268.890565
 20
116.504475
 30
0.0
 10
269.633355
 20
113.740506
 30
0.0
 10
269.375518
 20
111.588698
 30
0.0
 10
268.965986
 20
110.186259
 30
0.0
 10
268.849566
 20
109.341361
 30
0.0
 10
268.848408
 20
108.773977
 30
0.0
 10
268.847867
 20
108.508971
 30
0.0
 11
212.112378
 21
55.979706
 31
0.0
 11
211.568213
 21
56.073016
 31
0.0
 11
210.252337
 21
56.206981
 31
0.0
 11
208.449629
 21
56.352599
 31
0.0
 11
206.341799
 21
56.555596
 31
0.0
 11
204.505709
 21
56.829236
 31
0.0
 11
203.123617
 21
57.146360
 31
0.0
 11
198.927627
 21
58.382904
 31
0.0
 11
195.667097
 21
59.283586
 31
0.0
 11
193.469211
 21
59.813273
 31
0.0
 11
190.724229
 21
60.775377
 31
0.0
 11
186.864261
 21
62.636221
 31
0.0
 11
182.591666
 21
65.057206
 31
0.0
 11
179.735585
 21
66.667607
 31
0.0
 11
177.031466
 21
67.977980
 31
0.0
 11
175.135165
 21
68.670507
 31
0.0
 11
174.492321
 21
68.902378
 31
0.0
 11
173.579575
 21
69.341855
 31
0.0
 11
172.594530
 21
69.893795
 31
0.0
 11
171.149551
 21
70.697316
 31
0.0
 11
169.031028
 21
71.796354
 31
0.0
 11
166.697611
 21
72.952973
 31
0.0
 11
163.841486
 21
74.389987
 31
0.0
 11
162.105999
 21
75.493793
 31
0.0
 11
160.547035
 21
76.864872
 31
0.0
 11
159.320403
 21
77.962571
 31
0.0
 11
158.322058
 21
78.691952
 31
0.0
 11
157.531132
 21
79.068262
 31
0.0
 11
156.828319
 21
79.363334
 31
0.0
 11
156.273373
 21
79.866605
 31
0.0
 11
155.678709
 21
80.748194
 31
0.0
 11
155.106014
 21
81.560603
 31
0.0
 11
154.399701
 21
82.366437
 31
0.0
 11
153.712686
 21
82.991236
 31
0.0
 11
152.853015
 21
83.583756
 31
0.0
 11
152.114519
 21
83.762043
 31
0.0
 11
150.917990
 21
83.665926
 31
0.0
 11
149.927287
 21
83.571496
 31
0.0
 11
148.921692
 21
83.507530
 31
0.0
 11
148.118910
 21
83.487878
 31
0.0
 11
145.996848
 21
83.809576
 31
0.0
 11
143.114898
 21
84.480233
 31
0.0
 11
141.200738
 21
85.097798
 31
0.0
 11
140.161151
 21
85.128949
 31
0.0
 11
138.453469
 21
84.665234
 31
0.0
 11
136.445281
 21
83.806470
 31
0.0
 11
135.372363
 21
83.328942
 31
0.0
 11
134.383149
 21
83.195397
 31
0.0
 11
132.748081
 21
83.307344
 31
0.0
 11
131.404838
 21
83.466527
 31
0.0
 11
130.081356
 21
83.682273
 31
0.0
 11
129.064163
 21
83.907875
 31
0.0
 11
128.046124
 21
84.106420
 31
0.0
 11
126.728764
 21
84.247189
 31
0.0
 11
125.380245
 21
84.301524
 31
0.0
 11
123.796380
 21
84.255526
 31
0.0
 11
122.691029
 21
84.043859
 31
0.0
 11
121.527832
 21
83.563956
 31
0.0
 11
120.485991
 21
83.125001
 31
0.0
 11
119.684691
 21
82.940997
 31
0.0
 11
118.914910
 21
82.963944
 31
0.0
 11
118.218286
 21
82.994248
 31
0.0
 11
117.542431
 21
82.891675
 31
0.0
 11
116.866691
 21
82.653101
 31
0.0
 11
115.351806
 21
82.338368
 31
0.0
 11
113.636850
 21
82.474675
 31
0.0
 11
112.273072
 21
83.018208
 31
0.0
 11
111.702811
 21
83.319829
 31
0.0
 11
110.873368
 21
83.398669
 31
0.0
 11
109.351344
 21
83.295922
 31
0.0
 11
107.949065
 21
83.109750
 31
0.0
 11
106.591223
 21
82.818929
 31
0.0
 11
105.436273
 21
82.457397
 31
0.0
 11
104.257190
 21
82.062846
 31
0.0
 11
103.235421
 21
81.914831
 31
0.0
 11
101.956793
 21
81.953355
 31
0.0
 11
100.769222
 21
81.992008
 31
0.0
 11
99.852848
 21
81.896138
 31
0.0
 11
99.035065
 21
81.647701
 31
0.0
 11
97.234919
 21
81.208212
 31
0.0
 11
95.112905
 21
81.046772
 31
0.0
 11
93.389185
 21
81.218171
 31
0.0
 11
92.369441
 21
81.307572
 31
0.0
 11
90.387932
 21
80.963918
 31
0.0
 11
86.402444
 21
80.006453
 31
0.0
 11
83.245286
 21
79.232808
 31
0.0
 11
80.727720
 21
78.634606
 31
0.0
 11
79.394785
 21
78.341356
 31
0.0
 11
78.639181
 21
78.170810
 31
0.0
 11
77.635161
 21
77.894294
 31
0.0
 11
76.600089
 21
77.571672
 31
0.0
 11
73.527915
 21
76.698459
 31
0.0
 11
70.814412
 21
76.349568
 31
0.0
 11
67.687094
 21
76.425675
 31
0.0
 11
65.772795
 21
76.524527
 31
0.0
 11
63.909131
 21
76.559253
 31
0.0
 11
62.499575
 21
76.522335
 31
0.0
 11
60.978166
 21
76.509613
 31
0.0
 11
58.935070
 21
76.645961
 31
0.0
 11
56.440746
 21
76.926676
 31
0.0
 11
52.515959
 21
77.621828
 31
0.0
 11
49.114384
 21
78.790511
 31
0.0
 11
45.011185
 21
80.853543
 31
0.0
 11
41.596198
 21
83.067658
 31
0.0
 11
38.353939
 21
85.734016
 31
0.0
 11
36.143283
 21
88.146299
 31
0.0
 11
34.506945
 21
90.979511
 31
0.0
 11
32.950121
 21
94.388292
 31
0.0
 11
31.907102
 21
97.421731
 31
0.0
 11
31.235148
 21
100.794109
 31
0.0
 11
31.100812
 21
103.993468
 31
0.0
 11
31.466288
 21
107.920218
 31
0.0
 11
32.192251
 21
112.295717
 31
0.0
 11
33.289622
 21
115.347004
 31
0.0
 11
35.331176
 21
118.666706
 31
0.0
 11
37.775937
 21
122.082444
 31
0.0
 11
39.768738
 21
124.371491
 31
0.0
 11
41.717395
 21
126.002287
 31
0.0
 11
43.322560
 21
127.084454
 31
0.0
 11
45.334666
 21
128.156969
 31
0.0
 11
49.415315
 21
130.105517
 31
0.0
 11
54.271047
 21
132.145832
 31
0.0
 11
58.980826
 21
133.532458
 31
0.0
 11
64.140433
 21
134.440803
 31
0.0
 11
69.074391
 21
134.768273
 31
0.0
 11
75.028843
 21
134.811602
 31
0.0
 11
79.394785
 21
134.551803
 31
0.0
 11
85.178369
 21
134.317216
 31
0.0
 11
93.952759
 21
134.328941
 31
0.0
 11
99.846881
 21
134.579132
 31
0.0
 11
101.739153
 21
134.816518
 31
0.0
 11
104.963972
 21
135.104355
 31
0.0
 11
111.189659
 21
135.591552
 31
0.0
 11
115.284183
 21
136.054938
 31
0.0
 11
120.004948
 21
136.938960
 31
0.0
 11
126.372168
 21
138.434667
 31
0.0
 11
129.951084
 21
139.271204
 31
0.0
 11
132.960134
 21
139.874962
 31
0.0
 11
135.137353
 21
140.193379
 31
0.0
 11
136.963337
 21
140.372555
 31
0.0
 11
139.162667
 21
140.597694
 31
0.0
 11
141.259201
 21
140.820055
 31
0.0
 11
143.404624
 21
141.008570
 31
0.0
 11
145.732126
 21
141.144971
 31
0.0
 11
147.737815
 21
141.199727
 31
0.0
 11
149.639055
 21
141.238741
 31
0.0
 11
151.692734
 21
141.333893
 31
0.0
 11
153.454241
 21
141.464572
 31
0.0
 11
155.898480
 21
141.661573
 31
0.0
 11
159.305877
 21
141.814775
 31
0.0
 11
165.395215
 21
142.001459
 31
0.0
 11
167.579661
 21
142.114324
 31
0.0
 11
169.396387
 21
142.325400
 31
0.0
 11
170.984607
 21
142.650861
 31
0.0
 11
175.942356
 21
143.720041
 31
0.0
 11
181.418227
 21
144.474932
 31
0.0
 11
188.104263
 21
145.010936
 31
0.0
 11
191.714969
 21
145.180311
 31
0.0
 11
195.666525
 21
144.949362
 31
0.0
 11
203.976850
 21
144.083262
 31
0.0
 11
206.366512
 21
143.770092
 31
0.0
 11
208.449946
 21
143.360136
 31
0.0
 11
210.443230
 21
142.810878
 31
0.0
 11
212.802261
 21
142.181747
 31
0.0
 11
214.155009
 21
142.273240
 31
0.0
 11
215.230043
 21
143.134635
 31
0.0
 11
217.251102
 21
144.505330
 31
0.0
 11
220.099185
 21
145.279771
 31
0.0
 11
223.575713
 21
145.403959
 31
0.0
 11
227.324704
 21
144.971365
 31
0.0
 11
230.859201
 21
144.244930
 31
0.0
 11
232.973028
 21
143.472556
 31
0.0
 11
234.709712
 21
141.179442
 31
0.0
 11
234.787507
 21
138.151371
 31
0.0
 11
233.198612
 21
134.691942
 31
0.0
 11
231.900731
 21
133.203872
 31
0.0
 11
230.390391
 21
132.019090
 31
0.0
 11
229.175082
 21
131.535696
 31
0.0
 11
228.218338
 21
131.185228
 31
0.0
 11
227.138004
 21
130.447937
 31
0.0
 11
226.624472
 21
129.794992
 31
0.0
 11
227.012541
 21
128.975893
 31
0.0
 11
227.967759
 21
128.241789
 31
0.0
 11
229.176646
 21
127.833596
 31
0.0
 11
230.503980
 21
127.940094
 31
0.0
 11
231.701109
 21
128.686445
 31
0.0
 11
232.874590
 21
130.139082
 31
0.0
 11
234.310576
 21
132.229779
 31
0.0
 11
235.375652
 21
133.435745
 31
0.0
 11
236.505766
 21
134.250596
 31
0.0
 11
238.128341
 21
134.978033
 31
0.0
 11
240.142799
 21
135.358697
 31
0.0
 11
242.884526
 21
135.455964
 31
0.0
 11
246.765905
 21
134.818491
 31
0.0
 11
250.134704
 21
133.131519
 31
0.0
 11
252.487909
 21
130.646942
 31
0.0
 11
253.332703
 21
128.848508
 31
0.0
 11
253.690668
 21
127.100408
 31
0.0
 11
253.554476
 21
125.438429
 31
0.0
 11
253.360943
 21
124.249281
 31
0.0
 11
253.580628
 21
123.548886
 31
0.0
 11
254.308811
 21
123.033467
 31
0.0
 11
254.954506
 21
122.794662
 31
0.0
 11
255.800943
 21
122.759909
 31
0.0
 11
257.220072
 21
122.913936
 31
0.0
 11
258.686080
 21
123.063851
 31
0.0
 11
259.786135
 21
123.026307
 31
0.0
 11
260.956785
 21
122.786404
 31
0.0
 11
263.171883
 21
121.902202
 31
0.0
 11
265.460614
 21
120.500427
 31
0.0
 11
267.253488
 21
118.929872
 31
0.0
 11
268.771427
 21
116.449132
 31
0.0
 11
269.461491
 21
113.641037
 31
0.0
 11
269.197408
 21
111.019512
 31
0.0
 11
268.991257
 21
110.201516
 31
0.0
 11
268.866216
 21
109.303435
 31
0.0
 11
268.847867
 21
108.508971
 31
0.0
  0
LINE
  5
103
100
AcDbEntity
  8
0
 62
7
100
AcDbLine
 10
212.112378
 20
55.979706
 30
0.0
 11
212.112378
 21
55.979706
 31
0.0
  0
SPLINE
  5
104
100
AcDbEntity
  8
0
 62
7
100
AcDbSpline
 70
0
 71
3
 72
67
 73
63
 74
61
 40
0.000000
 40
0.000000
 40
0.000000
 40
0.000000
 40
1.162460
 40
2.229830
 40
2.977263
 40
5.697544
 40
8.712707
 40
12.092442
 40
13.591655
 40
14.596922
 40
15.712726
 40
17.702416
 40
19.658252
 40
21.856200
 40
22.939785
 40
23.766046
 40
24.208578
 40
24.949345
 40
26.543985
 40
29.263063
 40
31.740347
 40
33.721028
 40
35.688945
 40
40.024045
 40
44.054094
 40
48.803759
 40
51.513220
 40
54.167469
 40
58.380458
 40
64.538008
 40
69.155948
 40
73.527045
 40
75.435396
 40
76.948241
 40
79.180201
 40
82.200573
 40
84.328732
 40
86.327340
 40
88.732934
 40
90.550702
 40
92.043076
 40
93.061270
 40
94.471884
 40
95.972672
 40
97.338173
 40
98.392410
 40
98.907672
 40
99.331231
 40
100.177578
 40
101.269836
 40
102.744941
 40
103.911348
 40
105.351700
 40
106.826176
 40
108.730347
 40
110.652170
 40
114.489719
 40
117.747410
 40
121.022511
 40
123.350722
 40
124.469327
 40
124.871248
 40
124.871248
 40
124.871248
 40
124.871248
 10
270.982446
 20
107.114881
 30
0.0
 10
271.367893
 20
107.074082
 30
0.0
 10
272.107258
 20
106.995819
 30
0.0
 10
273.085080
 20
106.822698
 30
0.0
 10
274.548447
 20
106.420429
 30
0.0
 10
276.331774
 20
105.063621
 30
0.0
 10
278.156952
 20
102.602347
 30
0.0
 10
279.063713
 20
100.102175
 30
0.0
 10
279.571115
 20
98.207838
 30
0.0
 10
279.681590
 20
96.993951
 30
0.0
 10
279.415563
 20
95.640824
 30
0.0
 10
278.913185
 20
94.017683
 30
0.0
 10
277.715713
 20
92.308386
 30
0.0
 10
276.352378
 20
91.215986
 30
0.0
 10
275.244438
 20
90.384598
 30
0.0
 10
274.694674
 20
89.869111
 30
0.0
 10
274.237450
 20
89.270324
 30
0.0
 10
274.999726
 20
88.432708
 30
0.0
 10
276.222377
 20
87.475350
 30
0.0
 10
278.152708
 20
86.170963
 30
0.0
 10
280.110334
 20
84.823093
 30
0.0
 10
281.668170
 20
83.324529
 30
0.0
 10
283.219985
 20
81.036332
 30
0.0
 10
284.637000
 20
77.792876
 30
0.0
 10
284.312261
 20
73.261293
 30
0.0
 10
282.403577
 20
69.872728
 30
0.0
 10
280.472839
 20
67.097223
 30
0.0
 10
278.049541
 20
64.983146
 30
0.0
 10
274.452710
 20
62.555044
 30
0.0
 10
270.304680
 20
59.767979
 30
0.0
 10
265.715210
 20
57.566167
 30
0.0
 10
262.137902
 20
56.841372
 30
0.0
 10
259.566424
 20
56.437141
 30
0.0
 10
257.673200
 20
56.503827
 30
0.0
 10
255.456596
 20
56.936926
 30
0.0
 10
253.036859
 20
57.367635
 30
0.0
 10
250.742178
 20
58.068515
 30
0.0
 10
248.860166
 20
59.184037
 30
0.0
 10
247.099300
 20
60.268883
 30
0.0
 10
245.332108
 20
61.041600
 30
0.0
 10
243.886021
 20
61.195075
 30
0.0
 10
242.581744
 20
61.257865
 30
0.0
 10
241.283013
 20
61.448610
 30
0.0
 10
239.880235
 20
61.684915
 30
0.0
 10
238.593866
 20
61.964343
 30
0.0
 10
237.641160
 20
62.075503
 30
0.0
 10
236.965797
 20
62.284194
 30
0.0
 10
236.429369
 20
61.960076
 30
0.0
 10
235.778989
 20
61.543843
 30
0.0
 10
234.861964
 20
60.859099
 30
0.0
 10
233.877138
 20
60.095117
 30
0.0
 10
232.625431
 20
59.525663
 30
0.0
 10
231.283393
 20
59.273091
 30
0.0
 10
229.711246
 20
58.951109
 30
0.0
 10
227.984028
 20
58.576144
 30
0.0
 10
225.493979
 20
58.007641
 30
0.0
 10
222.562859
 20
57.335051
 30
0.0
 10
219.167040
 20
56.705005
 30
0.0
 10
216.236023
 20
56.248431
 30
0.0
 10
214.028904
 20
56.050867
 30
0.0
 10
212.729352
 20
55.788584
 30
0.0
 10
212.241367
 20
55.939749
 30
0.0
 10
212.112378
 20
55.979706
 30
0.0
 11
270.982446
 21
107.114881
 31
0.0
 11
272.136880
 21
106.978513
 31
0.0
 11
273.186545
 21
106.784914
 31
0.0
 11
273.904187
 21
106.575997
 31
0.0
 11
276.154088
 21
105.046985
 31
0.0
 11
277.962588
 21
102.634406
 31
0.0
 11
279.212681
 21
99.494363
 31
0.0
 11
279.563707
 21
98.036824
 31
0.0
 11
279.632845
 21
97.033937
 31
0.0
 11
279.458267
 21
95.931875
 31
0.0
 11
278.813841
 21
94.049435
 31
0.0
 11
277.702684
 21
92.439892
 31
0.0
 11
276.048450
 21
90.992660
 31
0.0
 11
275.197172
 21
90.322224
 31
0.0
 11
274.608321
 21
89.742604
 31
0.0
 11
274.388374
 21
89.358601
 31
0.0
 11
274.757782
 21
88.716515
 31
0.0
 11
275.975349
 21
87.686754
 31
0.0
 11
278.205095
 21
86.130600
 31
0.0
 11
280.204035
 21
84.667324
 31
0.0
 11
281.616523
 21
83.278809
 31
0.0
 11
282.745689
 21
81.667076
 31
0.0
 11
284.315120
 21
77.626040
 31
0.0
 11
284.068568
 21
73.603539
 31
0.0
 11
281.989695
 21
69.332989
 31
0.0
 11
280.377260
 21
67.155551
 31
0.0
 11
278.420256
 21
65.362461
 31
0.0
 11
274.988687
 21
62.918365
 31
0.0
 11
269.786211
 21
59.624481
 31
0.0
 11
265.580470
 21
57.717360
 31
0.0
 11
261.324186
 21
56.722103
 31
0.0
 11
259.430696
 21
56.484402
 31
0.0
 11
257.918459
 21
56.527261
 31
0.0
 11
255.714723
 21
56.881083
 31
0.0
 11
252.756378
 21
57.490058
 31
0.0
 11
250.736754
 21
58.161011
 31
0.0
 11
248.982045
 21
59.117792
 31
0.0
 11
246.897079
 21
60.317709
 31
0.0
 11
245.206629
 21
60.986034
 31
0.0
 11
243.728907
 21
61.194638
 31
0.0
 11
242.713178
 21
61.265465
 31
0.0
 11
241.314532
 21
61.448820
 31
0.0
 11
239.835767
 21
61.704980
 31
0.0
 11
238.494441
 21
61.960791
 31
0.0
 11
237.456113
 21
62.143244
 31
0.0
 11
236.945572
 21
62.212840
 31
0.0
 11
236.559968
 21
62.037594
 31
0.0
 11
235.849173
 21
61.578167
 31
0.0
 11
234.967071
 21
60.934021
 31
0.0
 11
233.760385
 21
60.085583
 31
0.0
 11
232.697860
 21
59.604392
 31
0.0
 11
231.296458
 21
59.271694
 31
0.0
 11
229.851673
 21
58.977293
 31
0.0
 11
227.990671
 21
58.574132
 31
0.0
 11
226.116348
 21
58.149493
 31
0.0
 11
222.369405
 21
57.320517
 31
0.0
 11
219.167344
 21
56.721054
 31
0.0
 11
215.927466
 21
56.242014
 31
0.0
 11
213.617093
 21
55.954365
 31
0.0
 11
212.501123
 21
55.877636
 31
0.0
 11
212.112378
 21
55.979706
 31
0.0
  0
LINE
  5
105
100
AcDbEntity
  8
0
 62
7
100
AcDbLine
 10
153.901704
 20
93.215197
 30
0.0
 11
156.748788
 21
92.139845
 31
0.0
  0
LINE
  5
106
100
AcDbEntity
  8
0
 62
7
100
AcDbLine
 10
156.748788
 20
92.139845
 30
0.0
 11
158.721915
 21
92.905692
 31
0.0
  0
SPLINE
  5
107
100
AcDbEntity
  8
0
 62
7
100
AcDbSpline
 70
0
 71
3
 72
187
 73
183
 74
181
 40
0.000000
 40
0.000000
 40
0.000000
 40
0.000000
 40
1.646216
 40
3.037592
 40
3.876639
 40
4.471506
 40
5.215802
 40
5.951542
 40
6.818192
 40
7.908086
 40
8.988791
 40
10.146401
 40
11.438046
 40
12.586885
 40
14.816233
 40
16.936363
 40
18.833140
 40
23.031636
 40
27.726406
 40
32.914674
 40
36.901082
 40
39.729050
 40
42.242413
 40
43.683435
 40
45.301200
 40
46.745473
 40
49.850668
 40
52.526722
 40
55.055194
 40
62.248282
 40
67.084198
 40
72.364707
 40
74.230730
 40
76.361200
 40
78.295096
 40
81.661705
 40
84.244248
 40
86.869405
 40
91.114201
 40
94.513630
 40
97.755174
 40
101.906037
 40
105.629818
 40
108.208703
 40
114.254523
 40
123.495158
 40
132.529438
 40
136.270783
 40
140.574676
 40
145.312613
 40
150.559664
 40
155.917580
 40
160.307911
 40
166.091008
 40
172.088898
 40
175.813592
 40
176.984999
 40
178.363218
 40
179.654707
 40
180.889090
 40
182.074903
 40
182.998791
 40
184.048931
 40
185.574197
 40
187.244522
 40
190.745759
 40
193.530258
 40
196.129929
 40
197.573452
 40
199.176052
 40
200.592673
 40
201.993705
 40
203.553763
 40
204.935342
 40
206.161610
 40
207.316524
 40
208.153848
 40
208.825083
 40
209.541166
 40
210.150750
 40
214.064313
 40
219.826883
 40
224.355253
 40
226.250536
 40
228.323178
 40
230.126315
 40
232.111922
 40
233.502354
 40
235.270012
 40
239.383272
 40
245.270593
 40
251.196286
 40
254.596416
 40
257.767726
 40
261.420714
 40
263.638092
 40
265.435860
 40
267.648171
 40
269.425930
 40
271.081442
 40
272.259623
 40
274.656359
 40
277.799370
 40
280.613174
 40
282.003828
 40
284.194462
 40
286.713417
 40
289.812040
 40
291.560874
 40
292.919931
 40
293.930950
 40
294.972954
 40
295.821640
 40
297.612832
 40
299.637759
 40
301.904728
 40
303.158272
 40
304.517089
 40
305.689239
 40
308.028471
 40
310.546871
 40
314.232007
 40
321.637659
 40
328.153103
 40
334.345981
 40
342.373823
 40
349.143243
 40
355.779507
 40
361.096921
 40
365.171173
 40
368.730398
 40
369.888705
 40
371.358431
 40
372.824772
 40
375.719642
 40
378.191386
 40
380.047956
 40
380.789532
 40
381.651227
 40
382.448887
 40
383.222977
 40
384.022078
 40
384.674882
 40
386.497717
 40
388.191499
 40
390.012229
 40
391.376528
 40
392.533102
 40
393.983921
 40
396.329544
 40
397.980867
 40
399.688680
 40
400.521599
 40
401.176792
 40
401.517322
 40
401.876910
 40
402.565440
 40
403.435337
 40
405.119804
 40
406.820521
 40
409.225938
 40
410.534981
 40
412.170737
 40
413.782460
 40
415.447706
 40
417.223967
 40
418.729849
 40
420.028524
 40
421.259846
 40
422.160253
 40
422.983131
 40
423.508395
 40
424.233346
 40
424.867122
 40
425.541922
 40
426.113041
 40
427.812620
 40
430.380276
 40
433.399816
 40
435.070409
 40
436.596566
 40
438.699807
 40
438.699807
 40
438.699807
 40
438.699807
 10
217.595619
 20
59.561273
 30
0.0
 10
218.138782
 20
59.639297
 30
0.0
 10
219.141026
 20
59.783267
 30
0.0
 10
220.413594
 20
60.011338
 30
0.0
 10
221.326550
 20
60.248662
 30
0.0
 10
222.007257
 20
60.503379
 30
0.0
 10
222.680829
 20
60.667290
 30
0.0
 10
223.451481
 20
60.800446
 30
0.0
 10
224.330556
 20
60.983611
 30
0.0
 10
225.304182
 20
61.265246
 30
0.0
 10
226.349131
 20
61.638213
 30
0.0
 10
227.459962
 20
62.026236
 30
0.0
 10
228.612849
 20
62.361866
 30
0.0
 10
230.134457
 20
62.688039
 30
0.0
 10
231.903515
 20
63.198502
 30
0.0
 10
233.736116
 20
64.245763
 30
0.0
 10
235.651953
 20
66.245889
 30
0.0
 10
237.179526
 20
69.567445
 30
0.0
 10
238.509171
 20
74.076593
 30
0.0
 10
238.959348
 20
78.700464
 30
0.0
 10
239.122925
 20
82.693908
 30
0.0
 10
239.546012
 20
85.785856
 30
0.0
 10
240.217608
 20
87.951260
 30
0.0
 10
240.857398
 20
89.694354
 30
0.0
 10
241.357191
 20
91.109935
 30
0.0
 10
242.063794
 20
93.040239
 30
0.0
 10
242.774431
 20
95.345535
 30
0.0
 10
243.134117
 20
98.120292
 30
0.0
 10
242.583819
 20
102.236761
 30
0.0
 10
241.505466
 20
106.965887
 30
0.0
 10
239.359022
 20
112.394374
 30
0.0
 10
236.724508
 20
115.453579
 30
0.0
 10
234.728452
 20
117.810097
 30
0.0
 10
233.468309
 20
119.334313
 30
0.0
 10
231.914347
 20
121.262718
 30
0.0
 10
230.264860
 20
123.309681
 30
0.0
 10
228.201047
 20
125.307350
 30
0.0
 10
225.561669
 20
127.043159
 30
0.0
 10
222.668932
 20
128.868092
 30
0.0
 10
219.779238
 20
131.080709
 30
0.0
 10
217.235130
 20
133.628058
 30
0.0
 10
214.646247
 20
136.286000
 30
0.0
 10
212.041014
 20
138.581732
 30
0.0
 10
208.810736
 20
141.220171
 30
0.0
 10
202.681826
 20
142.115511
 30
0.0
 10
194.739669
 20
143.040810
 30
0.0
 10
187.339173
 20
143.152953
 30
0.0
 10
181.686942
 20
142.460106
 30
0.0
 10
177.487650
 20
141.718967
 30
0.0
 10
172.857371
 20
140.598939
 30
0.0
 10
167.849825
 20
139.552221
 30
0.0
 10
162.893250
 20
138.857541
 30
0.0
 10
157.718414
 20
138.589872
 30
0.0
 10
152.326883
 20
138.661497
 30
0.0
 10
147.160568
 20
138.483129
 30
0.0
 10
143.533482
 20
138.278400
 30
0.0
 10
141.454821
 20
138.039981
 30
0.0
 10
140.172923
 20
138.007889
 30
0.0
 10
138.872507
 20
138.058185
 30
0.0
 10
137.636308
 20
138.114469
 30
0.0
 10
136.520330
 20
138.076885
 30
0.0
 10
135.474881
 20
137.936032
 30
0.0
 10
134.337633
 20
137.674023
 30
0.0
 10
132.945648
 20
137.417830
 30
0.0
 10
130.750590
 20
137.012112
 30
0.0
 10
128.142985
 20
136.529164
 30
0.0
 10
125.253882
 20
135.865671
 30
0.0
 10
123.081854
 20
135.182811
 30
0.0
 10
121.280805
 20
134.636838
 30
0.0
 10
119.839699
 20
134.265540
 30
0.0
 10
118.399662
 20
133.952740
 30
0.0
 10
116.966846
 20
133.676149
 30
0.0
 10
115.551188
 20
133.373297
 30
0.0
 10
114.198600
 20
133.055803
 30
0.0
 10
112.972034
 20
132.793518
 30
0.0
 10
111.912639
 20
132.617495
 30
0.0
 10
111.026912
 20
132.546358
 30
0.0
 10
110.285517
 20
132.525610
 30
0.0
 10
109.623153
 20
132.445229
 30
0.0
 10
107.918705
 20
132.061601
 30
0.0
 10
104.521236
 20
131.569709
 30
0.0
 10
99.814963
 20
131.061629
 30
0.0
 10
95.760064
 20
130.768827
 30
0.0
 10
92.927441
 20
130.746589
 30
0.0
 10
91.006258
 20
130.636014
 30
0.0
 10
89.058929
 20
130.479098
 30
0.0
 10
87.345259
 20
130.247971
 30
0.0
 10
85.620061
 20
130.326025
 30
0.0
 10
83.276917
 20
130.981652
 30
0.0
 10
79.373280
 20
131.455176
 30
0.0
 10
74.083894
 20
131.880586
 30
0.0
 10
69.013800
 20
132.080843
 30
0.0
 10
64.844770
 20
131.992111
 30
0.0
 10
61.457788
 20
131.550410
 30
0.0
 10
58.522467
 20
130.862173
 30
0.0
 10
56.042999
 20
130.228910
 30
0.0
 10
54.117587
 20
129.430057
 30
0.0
 10
52.471299
 20
128.417564
 30
0.0
 10
50.843539
 20
127.475436
 30
0.0
 10
49.493773
 20
126.735539
 30
0.0
 10
47.889254
 20
126.051618
 30
0.0
 10
45.920751
 20
124.966005
 30
0.0
 10
43.691387
 20
123.298946
 30
0.0
 10
41.779243
 20
121.741347
 30
0.0
 10
40.466508
 20
120.054693
 30
0.0
 10
39.267116
 20
118.414872
 30
0.0
 10
37.788375
 20
116.269462
 30
0.0
 10
36.431224
 20
114.233277
 30
0.0
 10
35.369221
 20
112.433257
 30
0.0
 10
35.072366
 20
111.080947
 30
0.0
 10
34.870441
 20
109.963749
 30
0.0
 10
34.659004
 20
109.018530
 30
0.0
 10
34.314126
 20
107.841202
 30
0.0
 10
34.010298
 20
106.306622
 30
0.0
 10
34.081585
 20
104.263429
 30
0.0
 10
34.453400
 20
102.450015
 30
0.0
 10
34.821114
 20
100.866201
 30
0.0
 10
35.043487
 20
99.622538
 30
0.0
 10
35.234564
 20
98.013895
 30
0.0
 10
35.539711
 20
95.998524
 30
0.0
 10
37.036769
 20
93.518818
 30
0.0
 10
39.973285
 20
90.071567
 30
0.0
 10
44.138307
 20
85.897935
 30
0.0
 10
49.868519
 20
82.249693
 30
0.0
 10
56.595198
 20
80.395214
 30
0.0
 10
63.567816
 20
79.678646
 30
0.0
 10
70.752113
 20
79.829324
 30
0.0
 10
76.843258
 20
81.346369
 30
0.0
 10
81.896323
 20
83.064490
 30
0.0
 10
85.930360
 20
84.634007
 30
0.0
 10
88.473319
 20
86.100441
 30
0.0
 10
90.282420
 20
87.091187
 30
0.0
 10
91.524278
 20
87.660432
 30
0.0
 10
93.327277
 20
88.386357
 30
0.0
 10
95.443902
 20
89.227366
 30
0.0
 10
97.617895
 20
90.273737
 30
0.0
 10
99.042515
 20
91.189071
 30
0.0
 10
99.970198
 20
91.874657
 30
0.0
 10
100.651336
 20
92.296722
 30
0.0
 10
101.363587
 20
92.684976
 30
0.0
 10
102.062061
 20
93.054657
 30
0.0
 10
102.699712
 20
93.435650
 30
0.0
 10
103.597029
 20
94.056509
 30
0.0
 10
104.746979
 20
94.848448
 30
0.0
 10
106.437437
 20
95.466247
 30
0.0
 10
108.056772
 20
95.669018
 30
0.0
 10
109.505706
 20
95.738687
 30
0.0
 10
110.825725
 20
95.556626
 30
0.0
 10
112.394067
 20
95.031329
 30
0.0
 10
114.119575
 20
94.457518
 30
0.0
 10
116.089965
 20
94.454963
 30
0.0
 10
117.323098
 20
95.184310
 30
0.0
 10
118.209506
 20
95.779774
 30
0.0
 10
118.735336
 20
96.063492
 30
0.0
 10
119.156063
 20
96.290552
 30
0.0
 10
119.616811
 20
96.121461
 30
0.0
 10
120.225713
 20
95.973168
 30
0.0
 10
121.250789
 20
95.614654
 30
0.0
 10
122.632538
 20
95.231779
 30
0.0
 10
124.588901
 20
95.425467
 30
0.0
 10
126.295590
 20
96.016948
 30
0.0
 10
128.014185
 20
96.495948
 30
0.0
 10
129.498965
 20
96.820472
 30
0.0
 10
131.114403
 20
97.089519
 30
0.0
 10
132.775183
 20
97.371610
 30
0.0
 10
134.386568
 20
97.726794
 30
0.0
 10
135.859042
 20
98.133098
 30
0.0
 10
137.147489
 20
98.517552
 30
0.0
 10
138.260537
 20
98.792728
 30
0.0
 10
139.227659
 20
98.952448
 30
0.0
 10
139.982822
 20
99.065642
 30
0.0
 10
140.663458
 20
98.812215
 30
0.0
 10
141.017855
 20
98.265186
 30
0.0
 10
141.402898
 20
97.714751
 30
0.0
 10
141.741811
 20
97.185844
 30
0.0
 10
142.160423
 20
96.288792
 30
0.0
 10
143.566964
 20
95.323809
 30
0.0
 10
145.894070
 20
94.634617
 30
0.0
 10
148.309799
 20
94.354310
 30
0.0
 10
150.386121
 20
94.306219
 30
0.0
 10
152.114284
 20
93.891529
 30
0.0
 10
153.245920
 20
93.463335
 30
0.0
 10
153.901704
 20
93.215197
 30
0.0
 11
217.595619
 21
59.561273
 31
0.0
 11
219.223610
 21
59.805548
 31
0.0
 11
220.590453
 21
60.065677
 31
0.0
 11
221.400235
 21
60.285345
 31
0.0
 11
221.963763
 21
60.475879
 31
0.0
 11
222.685018
 21
60.659636
 31
0.0
 11
223.407853
 21
60.796832
 31
0.0
 11
224.255377
 21
60.977902
 31
0.0
 11
225.303519
 21
61.276679
 31
0.0
 11
226.325361
 21
61.628478
 31
0.0
 11
227.420918
 21
62.002397
 31
0.0
 11
228.662312
 21
62.359168
 31
0.0
 11
229.780788
 21
62.621552
 31
0.0
 11
231.906256
 21
63.294138
 31
0.0
 11
233.734291
 21
64.368030
 31
0.0
 11
235.061106
 21
65.723509
 31
0.0
 11
237.015816
 21
69.439216
 31
0.0
 11
238.324377
 21
73.947934
 31
0.0
 11
238.943113
 21
79.099176
 31
0.0
 11
239.212708
 21
83.076457
 31
0.0
 11
239.640630
 21
85.871861
 31
0.0
 11
240.349029
 21
88.283326
 31
0.0
 11
240.834504
 21
89.640108
 31
0.0
 11
241.379510
 21
91.163307
 31
0.0
 11
241.866058
 21
92.523158
 31
0.0
 11
242.724796
 21
95.507250
 31
0.0
 11
243.019871
 21
98.166986
 31
0.0
 11
242.771345
 21
100.683215
 31
0.0
 11
241.116101
 21
107.683263
 31
0.0
 11
239.192553
 21
112.120159
 31
0.0
 11
235.992133
 21
116.320289
 31
0.0
 11
234.787679
 21
117.745538
 31
0.0
 11
233.430302
 21
119.387618
 31
0.0
 11
232.213867
 21
120.891027
 31
0.0
 11
230.040876
 21
123.462441
 31
0.0
 11
228.161961
 21
125.234222
 31
0.0
 11
226.011446
 21
126.739790
 31
0.0
 11
222.469059
 21
129.078547
 31
0.0
 11
219.789029
 21
131.169853
 31
0.0
 11
217.453548
 21
133.417770
 31
0.0
 11
214.511059
 21
136.345468
 31
0.0
 11
211.728461
 21
138.820079
 31
0.0
 11
209.654840
 21
140.353293
 31
0.0
 11
203.817303
 21
141.926538
 31
0.0
 11
194.627525
 21
142.894693
 31
0.0
 11
185.593248
 21
142.888213
 31
0.0
 11
181.877346
 21
142.452632
 31
0.0
 11
177.639358
 21
141.702326
 31
0.0
 11
173.017115
 21
140.661694
 31
0.0
 11
167.875192
 21
139.616626
 31
0.0
 11
162.565634
 21
138.898390
 31
0.0
 11
158.182059
 21
138.654919
 31
0.0
 11
152.399098
 21
138.615316
 31
0.0
 11
146.404071
 21
138.430008
 31
0.0
 11
142.688049
 21
138.175994
 31
0.0
 11
141.522028
 21
138.063794
 31
0.0
 11
140.144434
 21
138.022275
 31
0.0
 11
138.853508
 21
138.060427
 31
0.0
 11
137.619716
 21
138.098583
 31
0.0
 11
136.434829
 21
138.051721
 31
0.0
 11
135.519187
 21
137.928559
 31
0.0
 11
134.490821
 21
137.715821
 31
0.0
 11
132.993265
 21
137.426406
 31
0.0
 11
131.350732
 21
137.122971
 31
0.0
 11
127.913142
 21
136.458411
 31
0.0
 11
125.203910
 21
135.815377
 31
0.0
 11
122.712578
 21
135.072712
 31
0.0
 11
121.328875
 21
134.661460
 31
0.0
 11
119.777208
 21
134.260644
 31
0.0
 11
118.393504
 21
133.957038
 31
0.0
 11
117.019763
 21
133.681850
 31
0.0
 11
115.494216
 21
133.355524
 31
0.0
 11
114.147137
 21
133.048708
 31
0.0
 11
112.946765
 21
132.798026
 31
0.0
 11
111.805833
 21
132.618860
 31
0.0
 11
110.971346
 21
132.550000
 31
0.0
 11
110.300973
 21
132.515984
 31
0.0
 11
109.590292
 21
132.428189
 31
0.0
 11
108.993159
 21
132.305612
 31
0.0
 11
105.130377
 21
131.677213
 31
0.0
 11
99.401457
 21
131.055371
 31
0.0
 11
94.881842
 21
130.773908
 31
0.0
 11
92.987021
 21
130.732078
 31
0.0
 11
90.917282
 21
130.622415
 31
0.0
 11
89.120712
 21
130.468661
 31
0.0
 11
87.143047
 21
130.291247
 31
0.0
 11
85.754637
 21
130.366208
 31
0.0
 11
84.027742
 21
130.743631
 31
0.0
 11
79.961064
 21
131.360909
 31
0.0
 11
74.093253
 21
131.839811
 31
0.0
 11
68.170868
 21
132.037791
 31
0.0
 11
64.772544
 21
131.926976
 31
0.0
 11
61.627108
 21
131.522707
 31
0.0
 11
58.059353
 21
130.738200
 31
0.0
 11
55.924667
 21
130.138300
 31
0.0
 11
54.265697
 21
129.445632
 31
0.0
 11
52.342929
 21
128.351428
 31
0.0
 11
50.804266
 21
127.460956
 31
0.0
 11
49.340453
 21
126.687668
 31
0.0
 11
48.268402
 21
126.198979
 31
0.0
 11
46.166538
 21
125.047237
 31
0.0
 11
43.614526
 21
123.212638
 31
0.0
 11
41.512396
 21
121.342200
 31
0.0
 11
40.635397
 21
120.262943
 31
0.0
 11
39.339036
 21
118.497065
 31
0.0
 11
37.903968
 21
116.426868
 31
0.0
 11
36.208540
 21
113.833225
 31
0.0
 11
35.399989
 21
112.282527
 31
0.0
 11
35.057329
 21
110.967376
 31
0.0
 11
34.865460
 21
109.974731
 31
0.0
 11
34.632972
 21
108.958993
 31
0.0
 11
34.410196
 21
108.140068
 31
0.0
 11
34.090133
 21
106.377703
 31
0.0
 11
34.131609
 21
104.353201
 31
0.0
 11
34.533484
 21
102.122138
 31
0.0
 11
34.803194
 21
100.897953
 31
0.0
 11
35.040212
 21
99.559967
 31
0.0
 11
35.193225
 21
98.397847
 31
0.0
 11
35.671044
 21
96.107936
 31
0.0
 11
36.873745
 21
93.895279
 31
0.0
 11
39.195950
 21
91.033882
 31
0.0
 11
44.539269
 21
85.906248
 31
0.0
 11
50.092382
 21
82.498325
 31
0.0
 11
56.020961
 21
80.708440
 31
0.0
 11
63.998930
 21
79.814985
 31
0.0
 11
70.763035
 21
80.083201
 31
0.0
 11
77.235247
 21
81.549646
 31
0.0
 11
82.276873
 21
83.239883
 31
0.0
 11
86.042412
 21
84.795596
 31
0.0
 11
89.176222
 21
86.482995
 31
0.0
 11
90.196937
 21
87.030551
 31
0.0
 11
91.529648
 21
87.650208
 31
0.0
 11
92.885831
 21
88.207814
 31
0.0
 11
95.561242
 21
89.313458
 31
0.0
 11
97.774847
 21
90.413216
 31
0.0
 11
99.338754
 21
91.413741
 31
0.0
 11
99.943330
 21
91.843184
 31
0.0
 11
100.673528
 21
92.300710
 31
0.0
 11
101.371262
 21
92.687271
 31
0.0
 11
102.051587
 21
93.056557
 31
0.0
 11
102.736146
 21
93.468797
 31
0.0
 11
103.276736
 21
93.834742
 31
0.0
 11
104.821233
 21
94.802861
 31
0.0
 11
106.409629
 21
95.390992
 31
0.0
 11
108.210162
 21
95.661431
 31
0.0
 11
109.574015
 21
95.696325
 31
0.0
 11
110.719869
 21
95.539222
 31
0.0
 11
112.110784
 21
95.126631
 31
0.0
 11
114.378933
 21
94.528761
 31
0.0
 11
116.028863
 21
94.596587
 31
0.0
 11
117.561167
 21
95.350689
 31
0.0
 11
118.263553
 21
95.798357
 31
0.0
 11
118.835681
 21
96.117650
 31
0.0
 11
119.153686
 21
96.239443
 31
0.0
 11
119.505901
 21
96.166999
 31
0.0
 11
120.167720
 21
95.977080
 31
0.0
 11
120.995861
 21
95.710802
 31
0.0
 11
122.638260
 21
95.336698
 31
0.0
 11
124.334838
 21
95.455275
 31
0.0
 11
126.650560
 21
96.106018
 31
0.0
 11
127.911937
 21
96.456045
 31
0.0
 11
129.509243
 21
96.808625
 31
0.0
 11
131.096668
 21
97.087427
 31
0.0
 11
132.736318
 21
97.378279
 31
0.0
 11
134.470536
 21
97.762455
 31
0.0
 11
135.923872
 21
98.156783
 31
0.0
 11
137.172470
 21
98.513941
 31
0.0
 11
138.369942
 21
98.800668
 31
0.0
 11
139.257043
 21
98.954890
 31
0.0
 11
140.078994
 21
98.993939
 31
0.0
 11
140.566955
 21
98.799526
 31
0.0
 11
141.035485
 21
98.246323
 31
0.0
 11
141.392354
 21
97.722571
 31
0.0
 11
141.746550
 21
97.148202
 31
0.0
 11
142.021391
 21
96.647562
 31
0.0
 11
143.334004
 21
95.567926
 31
0.0
 11
145.765669
 21
94.743389
 31
0.0
 11
148.761059
 21
94.362253
 31
0.0
 11
150.427429
 21
94.243546
 31
0.0
 11
151.916956
 21
93.911182
 31
0.0
 11
153.901704
 21
93.215197
 31
0.0
  0
LINE
  5
108
100
AcDbEntity
  8
0
 62
7
100
AcDbLine
 10
217.595619
 20
59.561273
 30
0.0
 11
217.595619
 21
59.561273
 31
0.0
  0
SPLINE
  5
109
100
AcDbEntity
  8
0
 62
7
100
AcDbSpline
 70
0
 71
3
 72
52
 73
48
 74
46
 40
0.000000
 40
0.000000
 40
0.000000
 40
0.000000
 40
2.362528
 40
3.859554
 40
5.013877
 40
6.281500
 40
7.725760
 40
9.905446
 40
12.509394
 40
14.442313
 40
15.822512
 40
16.337050
 40
16.908559
 40
17.413310
 40
18.443030
 40
19.846302
 40
21.459765
 40
22.162376
 40
22.831748
 40
24.160602
 40
25.462150
 40
26.088575
 40
26.641598
 40
27.214113
 40
28.013261
 40
28.871070
 40
30.807032
 40
32.435791
 40
34.208137
 40
35.469569
 40
36.680689
 40
38.189380
 40
39.839560
 40
41.193328
 40
43.207729
 40
46.463003
 40
49.480093
 40
52.022848
 40
53.334818
 40
55.257633
 40
57.377700
 40
60.874780
 40
63.416747
 40
66.293142
 40
69.740217
 40
72.388860
 40
75.196341
 40
75.196341
 40
75.196341
 40
75.196341
 10
158.721915
 20
92.905692
 30
0.0
 10
159.455398
 20
93.182394
 30
0.0
 10
160.653656
 20
93.634429
 30
0.0
 10
162.342192
 20
93.962787
 30
0.0
 10
163.615234
 20
93.514299
 30
0.0
 10
164.607559
 20
92.620940
 30
0.0
 10
165.140440
 20
91.028793
 30
0.0
 10
165.269058
 20
88.959021
 30
0.0
 10
165.539099
 20
86.735840
 30
0.0
 10
166.167757
 20
84.825985
 30
0.0
 10
167.146431
 20
83.891830
 30
0.0
 10
167.935177
 20
83.646240
 30
0.0
 10
168.426797
 20
83.449055
 30
0.0
 10
169.094511
 20
83.227001
 30
0.0
 10
169.934476
 20
82.704023
 30
0.0
 10
170.942350
 20
81.794950
 30
0.0
 10
171.778976
 20
80.911026
 30
0.0
 10
172.403011
 20
80.071677
 30
0.0
 10
173.348960
 20
79.946627
 30
0.0
 10
174.432819
 20
80.081924
 30
0.0
 10
175.491736
 20
80.183799
 30
0.0
 10
176.375947
 20
80.121711
 30
0.0
 10
176.740385
 20
79.612325
 30
0.0
 10
177.012568
 20
79.041694
 30
0.0
 10
177.274211
 20
78.340829
 30
0.0
 10
177.605556
 20
77.192074
 30
0.0
 10
178.004643
 20
75.765064
 30
0.0
 10
178.921829
 20
74.213426
 30
0.0
 10
180.042162
 20
73.122924
 30
0.0
 10
181.146806
 20
72.232233
 30
0.0
 10
182.337004
 20
71.624374
 30
0.0
 10
183.722084
 20
71.174658
 30
0.0
 10
185.179567
 20
70.763914
 30
0.0
 10
186.601743
 20
69.845331
 30
0.0
 10
188.146376
 20
68.261005
 30
0.0
 10
190.257875
 20
66.476009
 30
0.0
 10
192.717327
 20
64.836315
 30
0.0
 10
194.856072
 20
63.989096
 30
0.0
 10
196.683584
 20
63.382840
 30
0.0
 10
198.328488
 20
62.684868
 30
0.0
 10
200.623713
 20
61.663197
 30
0.0
 10
203.080388
 20
60.488380
 30
0.0
 10
205.949117
 20
59.643977
 30
0.0
 10
208.904743
 20
59.409777
 30
0.0
 10
211.885825
 20
59.202904
 30
0.0
 10
214.859781
 20
59.224793
 30
0.0
 10
216.666144
 20
59.446957
 30
0.0
 10
217.595619
 20
59.561273
 30
0.0
 11
158.721915
 21
92.905692
 31
0.0
 11
160.960408
 21
93.661130
 31
0.0
 11
162.447520
 21
93.833142
 31
0.0
 11
163.540922
 21
93.463101
 31
0.0
 11
164.474689
 21
92.605810
 31
0.0
 11
165.009507
 21
91.264222
 31
0.0
 11
165.279717
 21
89.101349
 31
0.0
 11
165.664777
 21
86.526029
 31
0.0
 11
166.395003
 21
84.736351
 31
0.0
 11
167.432245
 21
83.825814
 31
0.0
 11
167.914330
 21
83.645972
 31
0.0
 11
168.449860
 21
83.446399
 31
0.0
 11
168.922897
 21
83.270303
 31
0.0
 11
169.811611
 21
82.750197
 31
0.0
 11
170.874241
 21
81.833688
 31
0.0
 11
171.965976
 21
80.645673
 31
0.0
 11
172.460771
 21
80.146834
 31
0.0
 11
173.113098
 21
79.996737
 31
0.0
 11
174.439555
 21
80.076517
 31
0.0
 11
175.738707
 21
80.155443
 31
0.0
 11
176.352741
 21
80.031466
 31
0.0
 11
176.718234
 21
79.616436
 31
0.0
 11
176.974769
 21
79.104613
 31
0.0
 11
177.257639
 21
78.357203
 31
0.0
 11
177.505605
 21
77.536015
 31
0.0
 11
178.118172
 21
75.699520
 31
0.0
 11
178.950530
 21
74.299508
 31
0.0
 11
180.185577
 21
73.028340
 31
0.0
 11
181.184818
 21
72.258452
 31
0.0
 11
182.257754
 21
71.696649
 31
0.0
 11
183.681580
 21
71.197786
 31
0.0
 11
185.239420
 21
70.653514
 31
0.0
 11
186.387215
 21
69.935701
 31
0.0
 11
187.873626
 21
68.576146
 31
0.0
 11
190.359450
 21
66.474363
 31
0.0
 11
192.902437
 21
64.850773
 31
0.0
 11
195.247653
 21
63.868142
 31
0.0
 11
196.485506
 21
63.433417
 31
0.0
 11
198.265361
 21
62.705863
 31
0.0
 11
200.201889
 21
61.842992
 31
0.0
 11
203.409837
 21
60.450643
 31
0.0
 11
205.855361
 21
59.757096
 31
0.0
 11
208.713011
 21
59.429248
 31
0.0
 11
212.154566
 21
59.234232
 31
0.0
 11
214.802916
 21
59.273596
 31
0.0
 11
217.595619
 21
59.561273
 31
0.0
  0
LINE
  5
10a
100
AcDbEntity
  8
0
 62
7
100
AcDbLine
 10
254.126879
 20
60.575347
 30
0.0
 11
256.948938
 21
59.165681
 31
0.0
  0
LINE
  5
10b
100
AcDbEntity
  8
0
 62
7
100
AcDbLine
 10
256.948938
 20
59.165681
 30
0.0
 11
260.479069
 21
59.165681
 31
0.0
  0
SPLINE
  5
10c
100
AcDbEntity
  8
0
 62
7
100
AcDbSpline
 70
0
 71
3
 72
37
 73
33
 74
31
 40
0.000000
 40
0.000000
 40
0.000000
 40
0.000000
 40
2.596005
 40
5.399570
 40
8.904978
 40
12.384313
 40
15.090782
 40
17.281629
 40
20.198805
 40
22.854494
 40
25.524091
 40
27.686724
 40
29.885446
 40
32.635908
 40
36.982998
 40
41.110697
 40
46.136262
 40
49.095125
 40
51.307302
 40
53.985776
 40
57.989307
 40
60.943458
 40
64.112748
 40
68.391692
 40
70.843356
 40
72.813343
 40
75.265048
 40
77.317363
 40
79.255268
 40
80.348899
 40
81.612519
 40
83.741787
 40
83.741787
 40
83.741787
 40
83.741787
 10
265.959490
 20
59.817329
 30
0.0
 10
266.772148
 20
60.118860
 30
0.0
 10
268.462441
 20
60.746030
 30
0.0
 10
271.033123
 20
62.254223
 30
0.0
 10
273.692890
 20
64.144226
 30
0.0
 10
276.238133
 20
66.135650
 30
0.0
 10
278.260866
 20
68.077835
 30
0.0
 10
279.763606
 20
70.224471
 30
0.0
 10
280.751967
 20
72.646788
 30
0.0
 10
281.102208
 20
75.414688
 30
0.0
 10
280.590720
 20
77.892423
 30
0.0
 10
279.681526
 20
80.065491
 30
0.0
 10
278.305694
 20
82.016763
 30
0.0
 10
276.149011
 20
84.240525
 30
0.0
 10
273.225922
 20
86.660137
 30
0.0
 10
268.846575
 20
88.078480
 30
0.0
 10
264.787965
 20
88.082145
 30
0.0
 10
261.382089
 20
87.959981
 30
0.0
 10
258.837564
 20
87.202796
 30
0.0
 10
256.372061
 20
85.521854
 30
0.0
 10
253.725859
 20
83.696136
 30
0.0
 10
251.557938
 20
80.998140
 30
0.0
 10
250.685814
 20
77.589068
 30
0.0
 10
250.028316
 20
74.372321
 30
0.0
 10
249.481182
 20
71.518539
 30
0.0
 10
249.280204
 20
69.235023
 30
0.0
 10
249.233356
 20
67.071436
 30
0.0
 10
249.626764
 20
64.936343
 30
0.0
 10
250.368244
 20
63.398671
 30
0.0
 10
251.211247
 20
62.220266
 30
0.0
 10
252.481349
 20
61.390678
 30
0.0
 10
253.492385
 20
60.889727
 30
0.0
 10
254.126879
 20
60.575347
 30
0.0
 11
265.959490
 21
59.817329
 31
0.0
 11
268.367058
 21
60.788337
 31
0.0
 11
270.809399
 21
62.164910
 31
0.0
 11
273.683974
 21
64.171074
 31
0.0
 11
276.399701
 21
66.346070
 31
0.0
 11
278.311829
 21
68.261466
 31
0.0
 11
279.562857
 21
70.060003
 31
0.0
 11
280.655744
 21
72.764724
 31
0.0
 11
280.954875
 21
75.403512
 31
0.0
 11
280.466118
 21
78.027986
 31
0.0
 11
279.617406
 21
80.017125
 31
0.0
 11
278.374789
 21
81.831037
 31
0.0
 11
276.489140
 21
83.833378
 31
0.0
 11
273.026118
 21
86.461052
 31
0.0
 11
269.117916
 21
87.789155
 31
0.0
 11
264.098813
 21
88.043915
 31
0.0
 11
261.149369
 21
87.808002
 31
0.0
 11
259.035709
 21
87.155187
 31
0.0
 11
256.742155
 21
85.771774
 31
0.0
 11
253.577147
 21
83.320044
 31
0.0
 11
251.789602
 21
80.968088
 31
0.0
 11
250.802344
 21
77.956490
 31
0.0
 11
249.916561
 21
73.770233
 31
0.0
 11
249.496628
 21
71.354801
 31
0.0
 11
249.313602
 21
69.393335
 31
0.0
 11
249.321625
 21
66.941643
 31
0.0
 11
249.723243
 21
64.929009
 31
0.0
 11
250.553839
 21
63.178127
 31
0.0
 11
251.221937
 21
62.312289
 31
0.0
 11
252.243300
 21
61.568277
 31
0.0
 11
254.126879
 21
60.575347
 31
0.0
  0
LINE
  5
10d
100
AcDbEntity
  8
0
 62
7
100
AcDbLine
 10
265.959490
 20
59.817329
 30
0.0
 11
265.959490
 21
59.817329
 31
0.0
  0
SPLINE
  5
10e
100
AcDbEntity
  8
0
 62
7
100
AcDbSpline
 70
0
 71
3
 72
10
 73
6
 74
4
 40
0.000000
 40
0.000000
 40
0.000000
 40
0.000000
 40
2.422827
 40
3.998345
 40
5.550925
 40
5.550925
 40
5.550925
 40
5.550925
 10
260.479069
 20
59.165681
 30
0.0
 10
261.286309
 20
59.163468
 30
0.0
 10
262.618482
 20
59.159816
 30
0.0
 10
264.470806
 20
59.335681
 30
0.0
 10
265.465694
 20
59.657566
 30
0.0
 10
265.959490
 20
59.817329
 30
0.0
 11
260.479069
 21
59.165681
 31
0.0
 11
262.901546
 21
59.206897
 31
0.0
 11
264.466043
 21
59.392923
 31
0.0
 11
265.959490
 21
59.817329
 31
0.0
  0
LINE
  5
10f
100
AcDbEntity
  8
0
 62
7
100
AcDbLine
 10
244.779401
 20
69.364252
 30
0.0
 11
244.779401
 21
69.364252
 31
0.0
  0
SPLINE
  5
110
100
AcDbEntity
  8
0
 62
7
100
AcDbSpline
 70
0
 71
3
 72
19
 73
15
 74
13
 40
0.000000
 40
0.000000
 40
0.000000
 40
0.000000
 40
1.532937
 40
3.279458
 40
4.526383
 40
5.359188
 40
6.490022
 40
7.478157
 40
8.394363
 40
9.325904
 40
9.834861
 40
10.037244
 40
10.365860
 40
10.752062
 40
10.752062
 40
10.752062
 40
10.752062
 10
244.779401
 20
69.364252
 30
0.0
 10
245.122829
 20
69.760855
 30
0.0
 10
245.857537
 20
70.609319
 30
0.0
 10
246.002630
 20
72.136419
 30
0.0
 10
245.186659
 20
73.612431
 30
0.0
 10
244.076487
 20
72.975686
 30
0.0
 10
243.469827
 20
72.255570
 30
0.0
 10
243.030077
 20
71.280482
 30
0.0
 10
243.277021
 20
70.305183
 30
0.0
 10
243.498498
 20
69.649748
 30
0.0
 10
243.797654
 20
69.003457
 30
0.0
 10
244.158941
 20
69.125792
 30
0.0
 10
244.440572
 20
69.215505
 30
0.0
 10
244.660550
 20
69.312077
 30
0.0
 10
244.779401
 20
69.364252
 30
0.0
 11
244.779401
 21
69.364252
 31
0.0
 11
245.672125
 21
70.610422
 31
0.0
 11
245.768671
 21
72.354272
 31
0.0
 11
244.999264
 21
73.335513
 31
0.0
 11
244.229083
 21
73.018676
 31
0.0
 11
243.477095
 21
72.174106
 31
0.0
 11
243.138590
 21
71.245760
 31
0.0
 11
243.278820
 21
70.340349
 31
0.0
 11
243.591293
 21
69.462779
 31
0.0
 11
243.913679
 21
69.068946
 31
0.0
 11
244.111974
 21
69.109414
 31
0.0
 11
244.422993
 21
69.215506
 31
0.0
 11
244.779401
 21
69.364252
 31
0.0
  0
LINE
  5
111
100
AcDbEntity
  8
0
 62
7
100
AcDbLine
 10
273.501861
 20
93.838484
 30
0.0
 11
273.501861
 21
93.838484
 31
0.0
  0
SPLINE
  5
112
100
AcDbEntity
  8
0
 62
7
100
AcDbSpline
 70
0
 71
3
 72
25
 73
21
 74
19
 40
0.000000
 40
0.000000
 40
0.000000
 40
0.000000
 40
1.488011
 40
2.562569
 40
3.845813
 40
6.516187
 40
9.430241
 40
11.998606
 40
14.605214
 40
17.133866
 40
19.712942
 40
21.390357
 40
23.381447
 40
24.837961
 40
26.593803
 40
28.392079
 40
30.843069
 40
32.501669
 40
33.548768
 40
34.940444
 40
34.940444
 40
34.940444
 40
34.940444
 10
273.501861
 20
93.838484
 30
0.0
 10
273.987445
 20
93.960571
 30
0.0
 10
274.823689
 20
94.170823
 30
0.0
 10
275.862065
 20
94.997649
 30
0.0
 10
276.559278
 20
96.566728
 30
0.0
 10
276.738362
 20
98.904871
 30
0.0
 10
276.001910
 20
101.560150
 30
0.0
 10
274.407700
 20
103.873926
 30
0.0
 10
271.838691
 20
104.781836
 30
0.0
 10
269.204084
 20
104.387027
 30
0.0
 10
267.331871
 20
102.897953
 30
0.0
 10
266.433029
 20
100.998325
 30
0.0
 10
265.829164
 20
99.407527
 30
0.0
 10
265.358715
 20
97.717354
 30
0.0
 10
265.753980
 20
95.977331
 30
0.0
 10
267.329510
 20
94.590605
 30
0.0
 10
269.235045
 20
94.027378
 30
0.0
 10
270.884370
 20
93.535544
 30
0.0
 10
272.268313
 20
93.475549
 30
0.0
 10
273.053690
 20
93.706623
 30
0.0
 10
273.501861
 20
93.838484
 30
0.0
 11
273.501861
 21
93.838484
 31
0.0
 11
274.909941
 21
94.319617
 31
0.0
 11
275.741399
 21
95.000317
 31
0.0
 11
276.320044
 21
96.145693
 31
0.0
 11
276.583364
 21
98.803052
 31
0.0
 11
275.805336
 21
101.611322
 31
0.0
 11
274.241372
 21
103.648604
 31
0.0
 11
271.802057
 21
104.567377
 31
0.0
 11
269.303416
 21
104.178944
 31
0.0
 11
267.289445
 21
102.567874
 31
0.0
 11
266.498133
 21
101.088837
 31
0.0
 11
265.797702
 21
99.225014
 31
0.0
 11
265.497580
 21
97.799757
 31
0.0
 11
265.909790
 21
96.092986
 31
0.0
 11
267.204057
 21
94.844519
 31
0.0
 11
269.486677
 21
93.951773
 31
0.0
 11
271.098175
 21
93.559306
 31
0.0
 11
272.144858
 21
93.529775
 31
0.0
 11
273.501861
 21
93.838484
 31
0.0
  0
LINE
  5
113
100
AcDbEntity
  8
0
 62
7
100
AcDbLine
 10
263.160328
 20
106.384211
 30
0.0
 11
263.160328
 21
106.384211
 31
0.0
  0
SPLINE
  5
114
100
AcDbEntity
  8
0
 62
7
100
AcDbSpline
 70
0
 71
3
 72
31
 73
27
 74
25
 40
0.000000
 40
0.000000
 40
0.000000
 40
0.000000
 40
2.325047
 40
4.264521
 40
6.658919
 40
8.484632
 40
10.483281
 40
12.346442
 40
16.029123
 40
19.472503
 40
22.941159
 40
24.300982
 40
25.380404
 40
26.672336
 40
28.829723
 40
30.751666
 40
32.568581
 40
36.784723
 40
41.144285
 40
45.218133
 40
46.173101
 40
47.277714
 40
49.178592
 40
51.215689
 40
52.620365
 40
54.542238
 40
54.542238
 40
54.542238
 40
54.542238
 10
263.160328
 20
106.384211
 30
0.0
 10
263.862759
 20
106.725523
 30
0.0
 10
265.151135
 20
107.351547
 30
0.0
 10
266.725009
 20
108.961569
 30
0.0
 10
267.796764
 20
110.739479
 30
0.0
 10
268.355584
 20
112.763582
 30
0.0
 10
268.253283
 20
114.692961
 30
0.0
 10
267.366739
 20
117.081540
 30
0.0
 10
265.302610
 20
119.363478
 30
0.0
 10
262.246624
 20
121.255730
 30
0.0
 10
259.456135
 20
121.669983
 30
0.0
 10
257.485002
 20
121.626423
 30
0.0
 10
256.258909
 20
121.365405
 30
0.0
 10
254.881839
 20
120.734208
 30
0.0
 10
253.309608
 20
119.864090
 30
0.0
 10
251.824838
 20
118.548626
 30
0.0
 10
250.304114
 20
116.337814
 30
0.0
 10
249.772420
 20
112.730428
 30
0.0
 10
250.956944
 20
108.579752
 30
0.0
 10
253.159226
 20
106.118163
 30
0.0
 10
255.037785
 20
105.253546
 30
0.0
 10
256.370148
 20
105.140582
 30
0.0
 10
258.043797
 20
105.205582
 30
0.0
 10
259.832792
 20
105.193796
 30
0.0
 10
261.591358
 20
105.596964
 30
0.0
 10
262.585801
 20
106.095936
 30
0.0
 10
263.160328
 20
106.384211
 30
0.0
 11
263.160328
 21
106.384211
 31
0.0
 11
265.184264
 21
107.528556
 31
0.0
 11
266.563362
 21
108.892245
 31
0.0
 11
267.781411
 21
110.953676
 31
0.0
 11
268.246047
 21
112.719275
 31
0.0
 11
268.147902
 21
114.715514
 31
0.0
 11
267.510372
 21
116.466206
 31
0.0
 11
265.135713
 21
119.281012
 31
0.0
 11
262.170027
 21
121.030747
 31
0.0
 11
258.753954
 21
121.632432
 31
0.0
 11
257.395265
 21
121.576913
 31
0.0
 11
256.340796
 21
121.346162
 31
0.0
 11
255.150499
 21
120.843886
 31
0.0
 11
253.287351
 21
119.756229
 31
0.0
 11
251.858310
 21
118.471041
 31
0.0
 11
250.839372
 21
116.966732
 31
0.0
 11
250.079906
 21
112.819557
 31
0.0
 11
251.301311
 21
108.634590
 31
0.0
 11
254.127487
 21
105.700485
 31
0.0
 11
255.005295
 21
105.324431
 31
0.0
 11
256.100439
 21
105.180107
 31
0.0
 11
258.001291
 21
105.189974
 31
0.0
 11
260.036139
 21
105.285689
 31
0.0
 11
261.404628
 21
105.602473
 31
0.0
 11
263.160328
 21
106.384211
 31
0.0
  0
LINE
  5
115
100
AcDbEntity
  8
0
 62
7
100
AcDbLine
 10
245.876442
 20
119.600728
 30
0.0
 11
245.876442
 21
119.600728
 31
0.0
  0
SPLINE
  5
116
100
AcDbEntity
  8
0
 62
7
100
AcDbSpline
 70
0
 71
3
 72
31
 73
27
 74
25
 40
0.000000
 40
0.000000
 40
0.000000
 40
0.000000
 40
4.290317
 40
7.935374
 40
10.824892
 40
12.628993
 40
14.395291
 40
16.262940
 40
18.263312
 40
19.730711
 40
21.263541
 40
23.048409
 40
24.964601
 40
27.467192
 40
28.832904
 40
29.747911
 40
30.611280
 40
32.376182
 40
34.199199
 40
36.083790
 40
39.259802
 40
42.044308
 40
45.112876
 40
46.801523
 40
48.752532
 40
50.470383
 40
50.470383
 40
50.470383
 40
50.470383
 10
245.876442
 20
119.600728
 30
0.0
 10
247.141927
 20
120.280965
 30
0.0
 10
249.482569
 20
121.539132
 30
0.0
 10
251.968150
 20
124.293324
 30
0.0
 10
252.690418
 20
127.160462
 30
0.0
 10
251.990257
 20
129.247268
 30
0.0
 10
251.019985
 20
130.802073
 30
0.0
 10
249.558244
 20
132.013805
 30
0.0
 10
248.075318
 20
132.993154
 30
0.0
 10
246.570094
 20
133.732359
 30
0.0
 10
245.016754
 20
134.119003
 30
0.0
 10
243.263287
 20
134.311156
 30
0.0
 10
241.218741
 20
133.838694
 30
0.0
 10
239.460500
 20
133.040179
 30
0.0
 10
238.031423
 20
132.337936
 30
0.0
 10
237.175304
 20
131.700988
 30
0.0
 10
236.565275
 20
130.670724
 30
0.0
 10
236.019067
 20
129.289358
 30
0.0
 10
235.611028
 20
127.501001
 30
0.0
 10
235.438600
 20
125.214689
 30
0.0
 10
235.787098
 20
122.534664
 30
0.0
 10
237.710167
 20
120.045659
 30
0.0
 10
240.129610
 20
119.021935
 30
0.0
 10
242.368609
 20
118.895977
 30
0.0
 10
244.161851
 20
119.053480
 30
0.0
 10
245.329650
 20
119.426208
 30
0.0
 10
245.876442
 20
119.600728
 30
0.0
 11
245.876442
 21
119.600728
 31
0.0
 11
249.521321
 21
121.863841
 31
0.0
 11
251.850879
 21
124.667339
 31
0.0
 11
252.437551
 21
127.496673
 31
0.0
 11
251.922314
 21
129.225635
 31
0.0
 11
250.968518
 21
130.712270
 31
0.0
 11
249.575990
 21
131.956849
 31
0.0
 11
247.900564
 21
133.049752
 31
0.0
 11
246.572843
 21
133.674585
 31
0.0
 11
245.091204
 21
134.067415
 31
0.0
 11
243.311975
 21
134.209178
 31
0.0
 11
241.433285
 21
133.831930
 31
0.0
 11
239.123347
 21
132.869045
 31
0.0
 11
237.918415
 21
132.226155
 31
0.0
 11
237.208383
 21
131.649013
 31
0.0
 11
236.734514
 21
130.927311
 31
0.0
 11
236.067997
 21
129.293103
 31
0.0
 11
235.660001
 21
127.516328
 31
0.0
 11
235.519706
 21
125.636967
 31
0.0
 11
236.089752
 21
122.512530
 31
0.0
 11
237.792495
 21
120.309320
 31
0.0
 11
240.597955
 21
119.066135
 31
0.0
 11
242.281782
 21
118.938647
 31
0.0
 11
244.222862
 21
119.135235
 31
0.0
 11
245.876442
 21
119.600728
 31
0.0
  0
LINE
  5
117
100
AcDbEntity
  8
0
 62
7
100
AcDbLine
 10
228.560516
 20
133.436569
 30
0.0
 11
228.560516
 21
133.436569
 31
0.0
  0
SPLINE
  5
118
100
AcDbEntity
  8
0
 62
7
100
AcDbSpline
 70
0
 71
3
 72
22
 73
18
 74
16
 40
0.000000
 40
0.000000
 40
0.000000
 40
0.000000
 40
2.501612
 40
4.943351
 40
7.081767
 40
8.335628
 40
9.648114
 40
10.962080
 40
12.658478
 40
15.028392
 40
17.478370
 40
21.377358
 40
24.652813
 40
28.961714
 40
31.394927
 40
33.649539
 40
35.628489
 40
35.628489
 40
35.628489
 40
35.628489
 10
228.560516
 20
133.436569
 30
0.0
 10
229.294579
 20
133.849572
 30
0.0
 10
230.745138
 20
134.665694
 30
0.0
 10
232.205808
 20
136.578682
 30
0.0
 10
232.876614
 20
138.498700
 30
0.0
 10
232.522951
 20
140.074824
 30
0.0
 10
231.808108
 20
141.177651
 30
0.0
 10
230.646345
 20
142.091441
 30
0.0
 10
228.873133
 20
142.512058
 30
0.0
 10
226.723576
 20
142.839810
 30
0.0
 10
223.884582
 20
143.125581
 30
0.0
 10
220.272232
 20
142.264733
 30
0.0
 10
219.337191
 20
137.869046
 30
0.0
 10
221.712917
 20
135.052339
 30
0.0
 10
224.294376
 20
133.568809
 30
0.0
 10
226.517937
 20
132.962475
 30
0.0
 10
227.909868
 20
133.285550
 30
0.0
 10
228.560516
 20
133.436569
 30
0.0
 11
228.560516
 21
133.436569
 31
0.0
 11
230.652343
 21
134.808547
 31
0.0
 11
232.149555
 21
136.737392
 31
0.0
 11
232.721994
 21
138.797765
 31
0.0
 11
232.460552
 21
140.024067
 31
0.0
 11
231.752942
 21
141.129466
 31
0.0
 11
230.714238
 21
141.934202
 31
0.0
 11
229.094897
 21
142.439673
 31
0.0
 11
226.754951
 21
142.815366
 31
0.0
 11
224.309397
 21
142.962540
 31
0.0
 11
220.660965
 21
141.587388
 31
0.0
 11
219.871996
 21
138.408373
 31
0.0
 11
222.294825
 21
134.845155
 31
0.0
 11
224.404471
 21
133.632752
 31
0.0
 11
226.604183
 21
133.138236
 31
0.0
 11
228.560516
 21
133.436569
 31
0.0
  0
ENDSEC
  0
SECTION
  2
OBJECTS
  0
DICTIONARY
  5
C
330
0
100
AcDbDictionary
  3
ACAD_GROUP
350
D
  3
ACAD_MLINESTYLE
350
17
  0
DICTIONARY
  5
D
330
C
100
AcDbDictionary
  0
DICTIONARY
  5
1A
330
C
100
AcDbDictionary
  0
DICTIONARY
  5
17
330
C
100
AcDbDictionary
  3
STANDARD
350
18
  0
DICTIONARY
  5
19
330
C
100
AcDbDictionary
  0
ENDSEC
  0
EOF
