<?xml version="1.0" encoding="UTF-8" standalone="no"?>
<!-- Created with Inkscape (http://www.inkscape.org/) -->

<svg
   xmlns:dc="http://purl.org/dc/elements/1.1/"
   xmlns:cc="http://creativecommons.org/ns#"
   xmlns:rdf="http://www.w3.org/1999/02/22-rdf-syntax-ns#"
   xmlns:svg="http://www.w3.org/2000/svg"
   xmlns="http://www.w3.org/2000/svg"
   xmlns:sodipodi="http://sodipodi.sourceforge.net/DTD/sodipodi-0.dtd"
   xmlns:inkscape="http://www.inkscape.org/namespaces/inkscape"
   version="1.1"
   id="svg3713"
   width="297mm"
   height="210mm"
   viewBox="0 0 1122.5197 793.70079"
   sodipodi:docname="foot01.svg"
   inkscape:version="0.92.3 (2405546, 2018-03-11)">
  <metadata
     id="metadata3719">
    <rdf:RDF>
      <cc:Work
         rdf:about="">
        <dc:format>image/svg+xml</dc:format>
        <dc:type
           rdf:resource="http://purl.org/dc/dcmitype/StillImage" />
        <dc:title />
      </cc:Work>
    </rdf:RDF>
  </metadata>
  <defs
     id="defs3717" />
  <sodipodi:namedview
     pagecolor="#ffffff"
     bordercolor="#666666"
     borderopacity="1"
     objecttolerance="10"
     gridtolerance="10"
     guidetolerance="10"
     inkscape:pageopacity="0"
     inkscape:pageshadow="2"
     inkscape:window-width="1094"
     inkscape:window-height="724"
     id="namedview3715"
     showgrid="false"
     units="mm"
     inkscape:zoom="0.5"
     inkscape:cx="208.19579"
     inkscape:cy="251.96999"
     inkscape:window-x="166"
     inkscape:window-y="196"
     inkscape:window-maximized="0"
     inkscape:current-layer="svg3713" />
  <g
     id="g56">
    <path
       style="fill:#d18285;stroke-width:0.96023923"
       d="m 783.55524,581.49879 c -9.71628,-1.25156 -16.32558,-2.68477 -21.87309,-4.74312 -4.37229,-1.6223 -8.8681,-2.94962 -9.99068,-2.94962 -1.12258,0 -5.7553,-1.06197 -10.29493,-2.35994 -4.53962,-1.29797 -9.81498,-2.60274 -11.72301,-2.89952 -2.88159,-0.44819 -16.6683,-6.72342 -21.97719,-10.00326 -0.7922,-0.48941 -5.32933,-2.68516 -10.08251,-4.87945 -4.75319,-2.19428 -9.72243,-5.00068 -11.04276,-6.23644 -3.26177,-3.05288 -12.3409,-7.82515 -17.43126,-9.1624 -4.24293,-1.11464 -31.58372,-14.90417 -32.54892,-16.41629 -0.29032,-0.45483 -2.89268,-1.64059 -5.78301,-2.635 -9.10907,-3.13399 -15.56758,-6.94265 -22.23495,-13.11224 -4.28779,-3.96767 -8.15761,-6.58814 -11.50742,-7.79231 -4.06172,-1.46009 -5.46017,-2.56303 -7.16285,-5.64932 -2.7719,-5.02435 -6.74202,-9.40633 -11.36402,-12.54291 -3.66644,-2.4881 -3.87277,-2.51487 -10.78858,-1.39922 -8.58272,1.38454 -21.48564,0.0297 -30.97631,-3.25255 -7.64844,-2.64514 -11.5448,-2.13726 -20.64258,2.69069 -5.19995,2.75948 -6.79937,3.20855 -8.76545,2.46105 -1.32269,-0.50289 -4.42927,-0.92174 -6.90352,-0.9308 -2.47423,-0.009 -7.73943,-0.86586 -11.70041,-1.90402 -9.94874,-2.60753 -18.30021,-2.45392 -28.55261,0.52517 -4.62913,1.34512 -10.36109,2.67576 -12.73768,2.95699 -2.3766,0.28123 -5.2708,0.97009 -6.43158,1.53079 -3.05704,1.47666 -14.51935,0.38316 -15.95066,-1.52168 -0.8272,-1.10088 -2.87057,-1.54121 -7.38518,-1.59143 -6.45465,-0.0718 -8.99396,0.44725 -18.65588,3.81344 -4.4972,1.5668 -7.15465,1.87819 -12.65451,1.48279 -5.55824,-0.3996 -7.95083,-0.11069 -11.86725,1.43302 -5.25164,2.07001 -20.85406,2.79046 -22.64676,1.04572 -1.00591,-0.97898 -4.29785,-0.43595 -16.75618,2.76406 -16.85822,4.33015 -29.56965,7.51084 -38.40957,9.61093 -5.01725,1.19195 -12.96702,3.25908 -17.66616,4.59363 -8.26602,2.34754 -8.99992,2.39578 -22.56563,1.48344 -7.71195,-0.51866 -17.70533,-0.75347 -22.20752,-0.52182 -11.05742,0.56896 -34.8256,-2.81397 -43.18076,-6.1459 -18.1403,-7.23412 -34.44445,-17.54727 -49.62215,-31.38836 -4.17929,-3.81125 -6.32399,-7.09536 -11.91457,-18.24455 -7.91683,-15.78835 -9.129,-18.88503 -10.95808,-27.99422 -2.69122,-13.40273 -2.72292,-20.98661 -0.16063,-38.42758 2.91577,-19.84715 5.13322,-26.01 13.54621,-37.64824 1.61093,-2.22853 4.21715,-6.1175 5.79157,-8.64216 3.80538,-6.10207 17.05482,-19.84005 21.99806,-22.80918 4.39509,-2.63989 17.98168,-9.35175 36.11454,-17.84081 14.2989,-6.69415 26.66989,-9.90265 46.07939,-11.95098 16.00752,-1.68932 45.78326,-1.87713 58.10657,-0.36651 10.68872,1.31026 62.8189,1.25914 75.8589,-0.0744 5.28132,-0.54009 18.02849,-1.64527 28.32706,-2.45595 25.03342,-1.97059 39.3251,-4.35875 66.33679,-11.08496 12.45524,-3.1015 27.79506,-6.28691 34.08849,-7.07869 21.96814,-2.7638 42.25974,-4.41504 54.17324,-4.4084 6.60165,0.004 15.67591,-0.4758 20.16503,-1.0655 4.48911,-0.58971 13.13127,-1.21488 19.20478,-1.38927 6.07352,-0.17439 16.87621,-0.49712 24.00598,-0.71718 7.12978,-0.22005 16.20404,-1.11861 20.16503,-1.99677 23.66574,-5.24678 42.14357,-7.8301 66.25651,-9.26311 15.84499,-0.94165 20.09887,-0.83875 39.36981,0.95235 30.36883,2.82257 42.26547,4.64776 50.9481,7.81653 5.98074,2.1827 7.79796,2.50905 8.78394,1.57747 2.54285,-2.40257 9.10023,-6.44294 14.6865,-9.04921 5.47742,-2.55547 6.42415,-2.68472 19.20479,-2.6218 20.4532,0.10071 36.34175,3.58496 42.60529,9.34306 2.96644,2.72705 5.8388,8.97841 5.8657,12.76599 0.0265,3.73303 -2.8586,12.17923 -5.85445,17.13903 -5.06325,8.38248 -16.39456,16.82243 -22.62299,16.85035 -2.12663,0.01 -5.10985,2.29747 -5.10985,3.91893 0,1.81505 3.85814,4.66321 7.7286,5.70541 6.20898,1.6719 11.82818,-1.54177 15.96271,-9.1292 4.45787,-8.18082 8.95364,-12.68288 15.9309,-15.95318 6.86311,-3.2168 7.11631,-3.25724 20.39275,-3.25724 12.54866,0 13.80588,0.16995 18.89064,2.55362 11.23431,5.26649 21.02442,14.84154 23.81246,23.28935 0.82729,2.50674 1.00056,5.6406 0.53011,9.58581 -0.38447,3.22383 -0.76285,7.37388 -0.84086,9.22234 l -0.14182,3.36084 4.32107,-0.21705 c 22.21447,-1.11585 22.89969,-1.04404 32.06748,3.36053 14.00884,6.73034 23.15274,17.86157 25.29504,30.79241 0.3398,2.05121 -0.4463,6.64742 -2.1797,12.74447 -1.8614,6.54737 -2.401,9.84645 -1.7214,10.52604 0.5445,0.54438 4.4022,1.3404 8.5729,1.76892 4.1706,0.42852 9.2249,1.47283 11.2317,2.32071 4.5909,1.93964 14.1846,11.45172 16.8812,16.73751 2.8376,5.56203 4.9165,14.07681 4.9165,20.13658 0,7.13963 -5.1238,17.2783 -10.6408,21.05559 -2.1888,1.49857 -5.313,3.85774 -6.9428,5.2426 -2.9132,2.47552 -2.9354,2.5603 -1.3147,5.03383 0.9067,1.38375 3.7576,3.58468 6.3355,4.89095 12.4791,6.32367 20.1124,13.84923 26.3067,25.93538 3.8408,7.49439 3.954,7.98604 3.9868,17.31579 0.031,8.85148 -0.2071,10.11072 -3.0454,16.10282 -5.396,11.39141 -14.7579,21.95486 -26.4483,29.84249 -2.7727,1.87075 -7.4178,5.14583 -10.3225,7.27793 -2.9048,2.1321 -6.3616,4.60166 -7.6819,5.48791 -6.9703,4.67868 -9.2923,6.105 -9.9385,6.105 -0.3922,0 -3.8984,1.49138 -7.7918,3.31419 -14.27884,6.6851 -31.52561,8.9098 -45.29467,5.84262 -14.75972,-3.28786 -21.80185,-6.06456 -28.25491,-11.14086 -1.87987,-1.47879 -4.68857,-2.99342 -6.24156,-3.36582 -1.55298,-0.3724 -3.25572,-0.93103 -3.78385,-1.2414 -0.52813,-0.31036 -3.98734,-0.64351 -7.68713,-0.74033 -6.72803,-0.17606 -18.24572,-2.61481 -20.27816,-4.29368 -1.49282,-1.23313 -3.94772,-0.16755 -9.00392,3.90825 -6.92792,5.58459 -8.74871,6.44114 -16.34032,7.6869 -3.95205,0.64852 -13.88321,2.80681 -22.06925,4.79621 -29.34089,7.13051 -46.53495,8.59512 -68.17699,5.80738 z"
       id="path68"
       inkscape:connector-curvature="0" />
    <path
       style="fill:#d37b88;stroke-width:0.96023923"
       d="m 783.55524,580.53855 c -9.71628,-1.25156 -16.32558,-2.68477 -21.87309,-4.74312 -4.37229,-1.62229 -8.8681,-2.94962 -9.99068,-2.94962 -1.12258,0 -5.7553,-1.06197 -10.29493,-2.35994 -4.53962,-1.29797 -9.81498,-2.60274 -11.72301,-2.89952 -2.90248,-0.45143 -16.92971,-6.84605 -21.97719,-10.01878 -0.7922,-0.49796 -5.54558,-2.81527 -10.56306,-5.14961 -5.01748,-2.33432 -9.72862,-4.97432 -10.4692,-5.86666 -1.97918,-2.38478 -12.40123,-7.94287 -17.33749,-9.24613 -4.97337,-1.31305 -28.29988,-13.05904 -31.92812,-16.07731 -0.79695,-0.66296 -3.78827,-2.01022 -6.64737,-2.99389 -8.92325,-3.07004 -14.92856,-6.62229 -22.07171,-13.05581 -4.5392,-4.08827 -8.49578,-6.74299 -11.57292,-7.76506 -3.49468,-1.16075 -5.06503,-2.32022 -6.21719,-4.59049 -2.42929,-4.78679 -7.91517,-11.10023 -11.98609,-13.79424 -3.65482,-2.41864 -3.87567,-2.44484 -10.96686,-1.30091 -8.77603,1.41572 -21.57949,0.0917 -31.16258,-3.2225 -7.48248,-2.58775 -11.45949,-2.13698 -19.89929,2.25547 -5.35294,2.78589 -6.08486,2.91602 -13.28792,2.36241 -4.19263,-0.32224 -10.93577,-1.40389 -14.98474,-2.40367 -10.1522,-2.50678 -18.21394,-2.32924 -28.39262,0.62528 -16.69491,4.84595 -31.1414,6.16755 -34.48396,3.1547 -1.98881,-1.79265 -10.24769,-2.49552 -15.70305,-1.33643 -1.84846,0.39275 -6.31947,1.76099 -9.93559,3.04053 -5.46962,1.9354 -7.75807,2.24138 -13.61473,1.82032 -5.64213,-0.40563 -8.01402,-0.12221 -11.94541,1.4274 -5.25636,2.07187 -18.83964,2.72816 -21.95514,1.0608 -1.78201,-0.95371 -5.0164,-0.44411 -17.4478,2.74898 -16.85822,4.33015 -29.56965,7.51084 -38.40957,9.61093 -5.01725,1.19195 -12.96702,3.25908 -17.66616,4.59363 -8.26602,2.34754 -8.99992,2.39578 -22.56563,1.48344 -7.71195,-0.51866 -17.70533,-0.75347 -22.20752,-0.52182 -11.05742,0.56896 -34.8256,-2.81397 -43.18076,-6.1459 -17.85568,-7.12063 -33.90402,-17.21383 -49.12375,-30.89518 -3.66097,-3.29092 -6.04071,-6.98425 -11.44623,-17.76443 -7.93138,-15.81747 -9.14093,-18.90957 -10.95572,-28.00728 -2.61586,-13.11354 -2.72075,-20.25423 -0.52907,-36.01499 1.13836,-8.18604 2.5167,-16.61214 3.06297,-18.72466 1.30575,-5.0496 6.75026,-15.86036 10.65803,-21.1629 1.71258,-2.32383 4.40393,-6.29077 5.9808,-8.81543 3.83697,-6.1432 16.10498,-18.88987 21.02293,-21.84318 4.4056,-2.64564 17.98537,-9.35436 36.12499,-17.84657 14.2989,-6.69415 26.66989,-9.90265 46.07939,-11.95098 16.00752,-1.68932 45.78326,-1.87713 58.10657,-0.36651 10.68872,1.31026 62.8189,1.25914 75.8589,-0.0744 5.28132,-0.54008 18.02849,-1.64526 28.32706,-2.45594 25.03342,-1.97059 39.3251,-4.35875 66.33679,-11.08496 12.45524,-3.1015 27.79506,-6.28691 34.08849,-7.07869 21.96814,-2.7638 42.25974,-4.41504 54.17324,-4.4084 6.60165,0.004 15.67591,-0.4758 20.16503,-1.0655 4.48911,-0.58971 13.13127,-1.21488 19.20478,-1.38927 6.07352,-0.17439 16.87621,-0.49712 24.00598,-0.71718 7.12978,-0.22005 16.20404,-1.11861 20.16503,-1.99677 23.66574,-5.24678 42.14357,-7.8301 66.25651,-9.26311 15.84499,-0.94165 20.09887,-0.83875 39.36981,0.95235 30.33754,2.81966 42.26466,4.64747 50.90648,7.80134 l 7.49914,2.73684 4.42743,-3.3806 c 2.43509,-1.85932 7.33432,-4.74408 10.88718,-6.41056 5.51003,-2.58451 7.80772,-3.08496 15.62842,-3.40406 15.41865,-0.62909 37.38388,3.21764 44.18494,7.73802 3.81942,2.53862 7.62158,9.40016 7.62158,13.75423 0,3.79193 -2.89072,12.2372 -5.87554,17.16543 -4.90461,8.09798 -15.53144,15.87338 -21.73134,15.9003 -2.22097,0.01 -6.0015,3.06747 -6.0015,4.85422 0,2.00697 4.6777,5.61052 8.68288,6.689 3.41818,0.92042 4.68562,0.84169 7.59895,-0.47204 3.45686,-1.55883 7.16749,-5.44349 9.64901,-10.10156 3.87784,-7.27911 8.09129,-11.43017 14.78997,-14.57096 6.69998,-3.14139 7.03025,-3.19347 20.25439,-3.19347 12.07628,0 13.95378,0.23078 18.46282,2.26941 10.36027,4.68412 20.47534,14.35085 23.14585,22.11992 1.42955,4.15888 1.42023,8.6197 -0.0327,15.65417 -1.0121,4.9001 -0.95999,5.78519 0.42194,7.16712 1.41911,1.41911 2.44381,1.45233 10.25602,0.33258 11.49676,-1.6479 17.06154,-0.8564 26.78636,3.80992 13.24383,6.35487 21.84023,16.99876 23.93353,29.6345 0.3399,2.05165 -0.447,6.64995 -2.1827,12.75515 -3.3428,11.75777 -3.1293,12.12013 7.7995,13.24298 9.9104,1.01821 13.7478,2.74436 19.9998,8.9963 5.8203,5.8203 8.5636,10.61813 10.6489,18.62391 2.3829,9.14868 1.9128,14.77213 -1.8615,22.26673 -2.8182,5.59631 -4.211,7.1619 -9.5892,10.77872 -3.4607,2.32729 -6.5338,4.8582 -6.8291,5.62425 -0.8507,2.20654 2.6059,6.04247 8.2629,9.1698 13.6593,7.55108 18.9568,12.79836 25.205,24.96622 3.8323,7.46307 3.9456,7.95548 3.9783,17.28431 0.031,8.85148 -0.2071,10.11072 -3.0454,16.10282 -5.3869,11.37235 -14.0285,21.14605 -25.6064,28.96082 -2.7076,1.82755 -7.2994,5.06726 -10.2042,7.19936 -2.9047,2.1321 -6.3615,4.60166 -7.6819,5.48791 -7.0585,4.7379 -9.2988,6.105 -10.0048,6.105 -0.4286,0 -4,1.50824 -7.9363,3.35164 -14.26832,6.68192 -31.30182,8.87522 -45.08375,5.80517 -14.64554,-3.26243 -21.71518,-6.03416 -28.19781,-11.05527 -4.73955,-3.67101 -9.02706,-5.00936 -17.05778,-5.32459 -7.64779,-0.3002 -15.57236,-1.8992 -19.65878,-3.9667 -3.31513,-1.67727 -7.51286,-0.11865 -11.71511,4.34981 -1.55117,1.64944 -3.33472,2.99898 -3.96345,2.99898 -0.62871,0 -1.63242,0.58957 -2.23045,1.31015 -0.59803,0.72059 -4.43188,1.83905 -8.51967,2.48549 -4.08779,0.64643 -14.13001,2.80728 -22.31605,4.8019 -29.28728,7.13617 -46.52035,8.6065 -68.17699,5.81688 z m 89.675,-50.88033 c 6.699,-1.09705 8.54332,-2.57022 12.14675,-9.70235 4.66962,-9.24238 5.72473,-15.35597 5.72811,-33.19008 0.004,-22.38089 2.70739,-36.82139 9.63302,-51.46089 2.53426,-5.35693 2.84485,-7.01269 2.83948,-15.13713 -0.0139,-21.11741 -4.09225,-33.8141 -15.22966,-47.41361 -2.97436,-3.63189 -7.56847,-9.35088 -10.20913,-12.70887 -2.64066,-3.35798 -7.47455,-9.50732 -10.74198,-13.66519 -6.73998,-8.57677 -10.57483,-12.0863 -15.41768,-14.10977 -5.73154,-2.3948 -6.93805,-1.9726 -6.27581,2.19608 0.31462,1.9805 1.10026,4.46511 1.74587,5.52138 3.25061,5.31826 1.87048,11.45241 -3.75878,16.70634 -1.35698,1.2665 -3.13314,4.59335 -3.94701,7.39297 -0.81388,2.79963 -1.91275,5.35783 -2.44195,5.68489 -1.61665,0.99915 -3.81379,7.22315 -3.81379,10.80359 0,3.45545 1.58512,5.66517 12.55827,17.50668 2.20231,2.37659 6.3662,7.56189 9.25311,11.52287 2.88689,3.96099 6.18187,7.93314 7.32217,8.827 1.69401,1.32791 2.10271,2.73318 2.23416,7.68192 0.30392,11.44133 -3.62342,22.08441 -10.03787,27.20262 -3.69785,2.95059 -5.00867,3.11574 -16.19278,2.04015 -4.64757,-0.44697 -6.16692,-0.25322 -7.13186,0.90947 -3.32127,4.00187 -11.09152,5.53539 -13.47791,2.65997 -0.71735,-0.86435 -3.10413,-2.34306 -5.30394,-3.28601 -2.19981,-0.94295 -6.04927,-3.67834 -8.55437,-6.07863 l -4.5547,-4.36418 0.74061,-10.83442 c 1.10259,-16.12961 1.11236,-43.62761 0.0169,-47.46639 -0.98507,-3.45186 -3.04203,-4.69647 -13.0314,-7.88491 -5.50173,-1.75606 -6.85127,-1.3437 -12.16337,3.71659 -4.44472,4.23402 -6.49479,5.33098 -9.15416,4.89824 -0.4073,-0.0663 -3.61026,-0.52691 -7.1177,-1.02362 -5.80201,-0.82166 -6.80423,-1.31902 -11.1123,-5.51458 -2.60434,-2.53631 -5.05857,-5.44948 -5.45385,-6.47371 -0.51022,-1.32199 -2.3645,-2.20947 -6.3917,-3.05913 -9.87054,-2.08248 -11.62714,-1.79687 -15.50315,2.52077 -1.89647,2.11253 -3.95841,3.84096 -4.58212,3.84096 -0.6237,0 -1.91611,0.86421 -2.87202,1.92048 -2.4139,2.66732 -4.66041,2.41334 -10.61683,-1.2003 -4.0391,-2.45045 -5.41077,-3.92994 -6.38587,-6.88784 -1.51829,-4.60561 -5.0064,-6.13492 -14.238,-6.2424 l -6.27449,-0.0731 -8.84928,-9.06358 c -5.76691,-5.90649 -8.84933,-9.80434 -8.84933,-11.19024 0,-2.74832 7.26301,-9.51358 10.21353,-9.51358 1.35274,0 3.05371,-1.13836 4.37854,-2.93029 1.641,-2.21958 2.6867,-2.79973 4.31141,-2.39195 3.20861,0.80531 4.35811,-2.17759 3.60038,-9.34284 -0.34782,-3.28904 -1.42133,-7.70849 -2.38558,-9.82102 -0.96426,-2.11253 -2.00124,-5.38293 -2.3044,-7.26757 -0.64764,-4.02608 -7.02458,-14.22504 -10.70379,-17.11911 -2.85106,-2.24265 -6.55928,-2.57145 -10.64848,-0.94421 -1.48675,0.59163 -8.32057,1.19583 -15.18628,1.34266 -7.89946,0.16894 -14.77494,0.87067 -18.72467,1.9111 -5.20296,1.37055 -11.99375,1.69836 -40.81016,1.97 -38.11912,0.35933 -49.6302,0.7856 -51.44134,1.90494 -0.66316,0.40986 -6.14054,0.66911 -12.17196,0.57613 -6.03141,-0.093 -12.5504,0.25675 -14.48662,0.77717 -1.93624,0.52043 -7.82987,1.42603 -13.09697,2.01244 -10.26255,1.1426 -13.33119,2.10701 -19.01098,5.97475 -1.99172,1.35629 -6.96096,3.23508 -11.04276,4.17509 -4.2114,0.96985 -12.3584,4.11822 -18.83546,7.27887 -6.27771,3.06338 -11.89511,5.57048 -12.48311,5.57136 -0.95814,9.6e-4 -4.20736,2.16335 -14.99616,9.97802 -3.74533,2.71286 -7.0304,3.10103 -13.43975,1.5881 -10.02071,-2.36541 -10.04154,-2.36416 -13.66785,0.81978 -1.87175,1.64341 -4.1632,4.6058 -5.09212,6.58309 -3.02608,6.44122 -4.41438,6.50082 -8.23577,0.35349 -2.73604,-4.40135 -3.34434,-4.81072 -10.15156,-6.83156 -8.26362,-2.4532 -16.41974,-2.32304 -19.32748,0.30843 -3.34965,3.03139 -7.81755,2.034 -13.78959,-3.07831 -5.06788,-4.33831 -6.00635,-4.74858 -13.44335,-5.87698 -4.39732,-0.66721 -10.46672,-2.23753 -13.48757,-3.48961 -3.02083,-1.25208 -7.05387,-2.27651 -8.96228,-2.27651 -1.90841,0 -6.78265,-0.83639 -10.83163,-1.85863 -6.16899,-1.55749 -10.6118,-1.84822 -27.42053,-1.79436 l -20.05875,0.0642 -12.51566,6.1732 c -10.88029,5.36658 -13.27813,6.99289 -18.35083,12.44622 -3.20933,3.45015 -7.13147,6.9452 -8.71587,7.76676 -3.23417,1.67704 -15.16421,11.2609 -18.50372,14.86475 -2.28947,2.47071 -8.02329,15.15188 -10.54102,23.31299 -0.81466,2.64066 -2.51947,6.16538 -3.78847,7.83271 -3.21977,4.2304 -3.75233,8.92786 -1.81282,15.98996 6.65861,24.24514 8.29294,27.1688 24.13704,43.17884 6.67741,6.74733 13.50202,12.98804 15.16582,13.86825 1.66379,0.88021 9.07459,3.68727 16.46843,6.23794 7.39385,2.55065 16.78932,5.79905 20.87883,7.21865 l 7.43548,2.58108 14.99176,-2.15452 c 8.47937,-1.21861 16.5118,-2.91404 18.49097,-3.90295 1.92458,-0.96164 6.41596,-2.67551 9.98085,-3.8086 3.56489,-1.13311 9.39834,-2.98908 12.96323,-4.1244 7.6289,-2.4296 22.72136,-9.98018 29.52736,-14.77221 7.03046,-4.95006 32.82831,-29.1024 35.8637,-33.57614 1.43333,-2.11252 3.40653,-5.95128 4.38487,-8.53058 2.7869,-7.34732 4.48595,-8.56028 10.96865,-7.83055 5.0985,0.57391 5.7656,0.3981 10.71821,-2.82454 2.90472,-1.89008 8.73818,-4.51971 12.96323,-5.8436 4.22505,-1.32389 9.92255,-3.32359 12.66111,-4.44376 4.57644,-1.87195 5.53825,-1.94436 11.89092,-0.89525 6.23865,1.03029 7.24995,0.96602 10.38464,-0.65998 9.46639,-4.91033 11.38251,-5.1166 42.52243,-4.57747 23.84379,0.41282 30.89044,0.22596 38.84632,-1.03007 l 9.71885,-1.53437 9.00581,2.92518 c 4.9532,1.60885 11.07786,3.20479 13.61038,3.54654 2.53251,0.34176 7.45405,2.13306 10.93675,3.98067 6.17734,3.27715 6.49413,3.33838 12.95561,2.50462 4.98937,-0.64382 7.14764,-0.54647 8.74817,0.39458 10.76649,6.33029 13.67455,6.30574 22.28973,-0.18817 6.68522,-5.03913 14.33938,-7.64731 19.85441,-6.76541 6.82287,1.09101 13.82727,5.87717 17.4548,11.92697 3.76724,6.28281 5.08106,10.0275 7.23997,20.6356 2.09024,10.27065 3.33122,10.97545 9.51589,5.40445 5.15627,-4.64464 11.98805,-9.10326 16.62603,-10.85065 2.62933,-0.99062 3.12572,-0.8698 4.7714,1.16127 3.15506,3.89394 2.06114,9.44028 -2.99848,15.20288 -1.56567,1.7832 -2.84667,3.82153 -2.84667,4.52964 0,0.7081 1.14815,3.82585 2.55143,6.92832 2.08497,4.60957 2.68308,7.74848 3.27155,17.16903 0.9199,14.72635 3.34544,22.4077 8.89169,28.15872 4.34162,4.5019 8.14957,6.88471 11.00239,6.88471 1.10968,0 2.99124,1.82845 4.87817,4.74049 4.58047,7.06888 8.09624,9.66312 13.09566,9.66312 5.10193,0 9.61482,3.3666 10.61457,7.91841 0.3703,1.68591 2.02246,4.6912 3.67149,6.67841 4.79391,5.77703 9.19097,4.71086 12.44002,-3.01633 1.03556,-2.46288 1.24839,-6.16293 0.88209,-15.33526 -0.43579,-10.91273 -0.30362,-12.30893 1.35823,-14.34732 2.39631,-2.9393 10.19298,-4.97952 14.49245,-3.79237 3.00492,0.82969 5.66675,0.35812 12.46199,-2.20777 1.22211,-0.46148 4.11843,-0.40226 6.72167,0.13743 14.21387,2.94677 16.71309,3.16746 21.71228,1.91729 2.92881,-0.73242 5.73104,-2.17386 6.86794,-3.53279 4.24812,-5.0778 12.77845,-4.44899 12.20785,0.8999 -0.21673,2.03164 0.39582,2.99273 2.88071,4.51984 1.73579,1.06675 4.79032,2.38676 6.78784,2.93336 3.12639,0.85552 3.97965,0.72024 6.13098,-0.972 1.37454,-1.0812 3.41312,-1.98114 4.53019,-1.99985 1.11708,-0.0187 3.11131,-0.65157 4.43164,-1.40633 4.17968,-2.38933 6.09518,-1.79092 8.45275,2.64066 3.59955,6.76614 4.16259,12.56101 1.93081,19.87197 -2.10355,6.89088 -5.12663,10.77638 -10.55847,13.57056 -4.31878,2.22162 -4.97709,3.19852 -4.21136,6.24946 0.5758,2.29415 2.711,3.60756 9.66758,5.94672 3.81324,1.28221 11.1642,1.37782 18.13718,0.23589 z m -172.7357,-85.07655 c -2.59526,-4.81699 -2.85332,-6.0751 -2.6042,-12.69672 0.30831,-8.19537 1.59384,-10.40078 7.9684,-13.67044 4.33852,-2.22532 14.64265,-14.81621 15.28095,-18.67218 0.38134,-2.30368 0.9623,-2.90043 2.82373,-2.90043 1.83298,0 2.86565,1.01444 4.73964,4.65597 4.86601,9.45558 10.23689,9.63361 19.53483,0.64754 5.74201,-5.54942 10.31705,-7.7041 16.35813,-7.7041 3.18042,0 7.28955,4.64913 8.93165,10.10543 1.31711,4.37643 1.27024,4.85725 -0.94545,9.69694 -1.2822,2.8007 -3.55086,6.62066 -5.04146,8.48882 -2.6408,3.30968 -2.88305,3.39664 -9.46197,3.39667 l -6.75178,3e-5 -5.03377,4.8012 c -5.63041,5.37028 -8.84489,6.096 -12.89392,2.91104 -1.32161,-1.03959 -4.44076,-2.4352 -6.93144,-3.10134 -4.12598,-1.10354 -4.84141,-1.03111 -8.04912,0.81499 -2.80953,1.61694 -4.05958,3.34947 -6.18899,8.57773 -4.75346,11.67098 -7.38931,12.71516 -11.73523,4.64885 z m 36.64361,-59.10907 c -0.97128,-0.56367 -2.914,-0.80541 -4.31715,-0.53717 l -2.55119,0.48768 2.35081,-1.90356 c 1.29294,-1.04696 2.44438,-2.54121 2.55876,-3.32055 0.11439,-0.77935 0.72808,-2.04367 1.36376,-2.80961 2.88852,-3.48047 6.33021,0.31235 4.98704,5.49582 -0.90239,3.48242 -1.8688,4.05175 -4.39203,2.58739 z m 296.53945,137.06793 c 4.3211,-4.32106 4.0982,-14.03075 -0.322,-14.03075 -2.6177,0 -3.8852,1.94959 -5.1319,7.8933 -1.731,8.25278 0.6542,10.93706 5.4539,6.13745 z M 721.61981,317.84815 c 7.76862,-0.21721 10.32434,-1.69737 13.25763,-7.67825 3.15374,-6.43034 3.21626,-7.86571 0.39856,-9.14954 -3.30535,-1.50602 -6.89415,0.33052 -9.41681,4.81901 l -2.19242,3.90088 h -7.33404 c -6.07855,0 -15.30696,1.88228 -17.20854,3.50995 -0.22556,0.19307 0.8547,1.68487 2.40059,3.3151 2.76915,2.92022 2.90303,2.95262 9.05228,2.19057 3.43285,-0.42541 8.40209,-0.83388 11.04275,-0.90772 z m 217.17552,-1.9408 c 0.6958,-1.81326 -1.93602,-4.74687 -3.43014,-3.82345 -0.57882,0.35773 -1.05239,1.70518 -1.05239,2.99434 0,1.71583 0.5227,2.34393 1.95062,2.34393 1.07284,0 2.21219,-0.68167 2.53191,-1.51482 z"
       id="path66"
       inkscape:connector-curvature="0" />
    <path
       style="fill:#c16871;stroke-width:0.96023923"
       d="m 783.55524,580.53855 c -9.71628,-1.25156 -16.32558,-2.68477 -21.87309,-4.74312 -4.37229,-1.62229 -8.8681,-2.94962 -9.99068,-2.94962 -1.12258,0 -5.7553,-1.06197 -10.29493,-2.35994 -4.53962,-1.29797 -9.81498,-2.60274 -11.72301,-2.89952 -2.90248,-0.45143 -16.92971,-6.84605 -21.97719,-10.01878 -0.7922,-0.49796 -5.54558,-2.81527 -10.56306,-5.14961 -5.01748,-2.33432 -9.72862,-4.97432 -10.4692,-5.86666 -1.97918,-2.38478 -12.40123,-7.94287 -17.33749,-9.24613 -4.97337,-1.31305 -28.29988,-13.05904 -31.92812,-16.07731 -0.79695,-0.66296 -3.78827,-2.01022 -6.64737,-2.99389 -8.92325,-3.07004 -14.92856,-6.62229 -22.07171,-13.05581 -4.5392,-4.08827 -8.49578,-6.74299 -11.57292,-7.76506 -3.49468,-1.16075 -5.06503,-2.32022 -6.21719,-4.59049 -2.42929,-4.78679 -7.91517,-11.10023 -11.98609,-13.79424 -3.65482,-2.41864 -3.87567,-2.44484 -10.96686,-1.30091 -8.77603,1.41572 -21.57949,0.0917 -31.16258,-3.2225 -7.48248,-2.58775 -11.45949,-2.13698 -19.89929,2.25547 -5.35294,2.78589 -6.08486,2.91602 -13.28792,2.36241 -4.19263,-0.32224 -10.93577,-1.40389 -14.98474,-2.40367 -10.1522,-2.50678 -18.21394,-2.32924 -28.39262,0.62528 -16.69491,4.84595 -31.1414,6.16755 -34.48396,3.1547 -1.98881,-1.79265 -10.24769,-2.49552 -15.70305,-1.33643 -1.84846,0.39275 -6.31947,1.76099 -9.93559,3.04053 -5.46962,1.9354 -7.75807,2.24138 -13.61473,1.82032 -5.64213,-0.40563 -8.01402,-0.12221 -11.94541,1.4274 -5.25636,2.07187 -18.83964,2.72816 -21.95514,1.0608 -1.78201,-0.95371 -5.0164,-0.44411 -17.4478,2.74898 -16.85822,4.33015 -29.56965,7.51084 -38.40957,9.61093 -5.01725,1.19195 -12.96702,3.25908 -17.66616,4.59363 -8.26602,2.34754 -8.99992,2.39578 -22.56563,1.48344 -7.71195,-0.51866 -17.70533,-0.75347 -22.20752,-0.52182 -11.05742,0.56896 -34.8256,-2.81397 -43.18076,-6.1459 -17.85568,-7.12063 -33.90402,-17.21383 -49.12375,-30.89518 -3.66097,-3.29092 -6.04071,-6.98425 -11.44623,-17.76443 -7.93138,-15.81747 -9.14093,-18.90957 -10.95572,-28.00728 -2.61586,-13.11354 -2.72075,-20.25423 -0.52907,-36.01499 1.13836,-8.18604 2.5167,-16.61214 3.06297,-18.72466 1.30575,-5.0496 6.75026,-15.86036 10.65803,-21.1629 1.71258,-2.32383 4.40393,-6.29077 5.9808,-8.81543 3.83697,-6.1432 16.10498,-18.88987 21.02293,-21.84318 4.4056,-2.64564 17.98537,-9.35436 36.12499,-17.84657 14.2989,-6.69415 26.66989,-9.90265 46.07939,-11.95098 16.00752,-1.68932 45.78326,-1.87713 58.10657,-0.36651 10.68872,1.31026 62.8189,1.25914 75.8589,-0.0744 5.28132,-0.54008 18.02849,-1.64526 28.32706,-2.45594 25.03342,-1.97059 39.3251,-4.35875 66.33679,-11.08496 12.45524,-3.1015 27.79506,-6.28691 34.08849,-7.07869 21.96814,-2.7638 42.25974,-4.41504 54.17324,-4.4084 6.60165,0.004 15.67591,-0.4758 20.16503,-1.0655 4.48911,-0.58971 13.13127,-1.21488 19.20478,-1.38927 6.07352,-0.17439 16.87621,-0.49712 24.00598,-0.71718 7.12978,-0.22005 16.20404,-1.11861 20.16503,-1.99677 23.66574,-5.24678 42.14357,-7.8301 66.25651,-9.26311 15.84499,-0.94165 20.09887,-0.83875 39.36981,0.95235 30.33754,2.81966 42.26466,4.64747 50.90648,7.80134 l 7.49914,2.73684 4.42743,-3.3806 c 2.43509,-1.85932 7.33432,-4.74408 10.88718,-6.41056 5.51003,-2.58451 7.80772,-3.08496 15.62842,-3.40406 15.41865,-0.62909 37.38388,3.21764 44.18494,7.73802 3.81942,2.53862 7.62158,9.40016 7.62158,13.75423 0,3.79193 -2.89072,12.2372 -5.87554,17.16543 -4.90461,8.09798 -15.53144,15.87338 -21.73134,15.9003 -2.22097,0.01 -6.0015,3.06747 -6.0015,4.85422 0,2.00697 4.6777,5.61052 8.68288,6.689 3.41818,0.92042 4.68562,0.84169 7.59895,-0.47204 3.45686,-1.55883 7.16749,-5.44349 9.64901,-10.10156 3.87784,-7.27911 8.09129,-11.43017 14.78997,-14.57096 6.69998,-3.14139 7.03025,-3.19347 20.25439,-3.19347 12.07628,0 13.95378,0.23078 18.46282,2.26941 10.36027,4.68412 20.47534,14.35085 23.14585,22.11992 1.42955,4.15888 1.42023,8.6197 -0.0327,15.65417 -1.0121,4.9001 -0.95999,5.78519 0.42194,7.16712 1.41911,1.41911 2.44381,1.45233 10.25602,0.33258 11.49676,-1.6479 17.06154,-0.8564 26.78636,3.80992 13.24383,6.35487 21.84023,16.99876 23.93353,29.6345 0.3399,2.05165 -0.447,6.64995 -2.1827,12.75515 -3.3428,11.75777 -3.1293,12.12013 7.7995,13.24298 9.9104,1.01821 13.7478,2.74436 19.9998,8.9963 5.8203,5.8203 8.5636,10.61813 10.6489,18.62391 2.3829,9.14868 1.9128,14.77213 -1.8615,22.26673 -2.8182,5.59631 -4.211,7.1619 -9.5892,10.77872 -3.4607,2.32729 -6.5338,4.8582 -6.8291,5.62425 -0.8507,2.20654 2.6059,6.04247 8.2629,9.1698 13.6593,7.55108 18.9568,12.79836 25.205,24.96622 3.8323,7.46307 3.9456,7.95548 3.9783,17.28431 0.031,8.85148 -0.2071,10.11072 -3.0454,16.10282 -5.3869,11.37235 -14.0285,21.14605 -25.6064,28.96082 -2.7076,1.82755 -7.2994,5.06726 -10.2042,7.19936 -2.9047,2.1321 -6.3615,4.60166 -7.6819,5.48791 -7.0585,4.7379 -9.2988,6.105 -10.0048,6.105 -0.4286,0 -4,1.50824 -7.9363,3.35164 -14.26832,6.68192 -31.30182,8.87522 -45.08375,5.80517 -14.64554,-3.26243 -21.71518,-6.03416 -28.19781,-11.05527 -4.73955,-3.67101 -9.02706,-5.00936 -17.05778,-5.32459 -7.64779,-0.3002 -15.57236,-1.8992 -19.65878,-3.9667 -3.31513,-1.67727 -7.51286,-0.11865 -11.71511,4.34981 -1.55117,1.64944 -3.33472,2.99898 -3.96345,2.99898 -0.62871,0 -1.63242,0.58957 -2.23045,1.31015 -0.59803,0.72059 -4.43188,1.83905 -8.51967,2.48549 -4.08779,0.64643 -14.13001,2.80728 -22.31605,4.8019 -29.28728,7.13617 -46.52035,8.6065 -68.17699,5.81688 z m 234.29836,-34.0889 c 8.0892,-4.07739 16.5043,-10.36224 20.297,-15.15866 4.2442,-5.36756 8.5114,-14.7457 8.4962,-18.67281 -0.021,-5.55451 -2.4766,-11.50513 -8.2914,-20.09551 -10.7066,-15.8171 -20.6918,-19.98582 -32.9953,-13.77506 -4.387,2.21456 -5.85348,3.49909 -6.30345,5.52138 -1.07691,4.84025 -1.39917,5.5006 -4.09821,8.39684 -3.61328,3.87732 -8.50013,6.54205 -10.86386,5.92392 -2.86919,-0.75032 -8.93435,3.91695 -11.77935,9.0646 -1.97089,3.56581 -2.56921,6.30233 -3.079,14.08203 -0.60582,9.24476 -0.52602,9.83845 1.87477,13.93508 2.05971,3.51459 3.91989,5.01363 10.41341,8.39197 15.31226,7.96629 24.11229,8.54431 36.32919,2.38622 z m -230.13947,-4.69886 c 1.88397,-2.87529 0.5353,-4.91219 -3.77605,-5.70297 -4.85458,-0.89042 -7.10452,0.14007 -7.10452,3.25389 0,4.95571 8.0508,6.76784 10.88057,2.44908 z m 90.9048,-12.8902 c 4.55023,-2.20164 8.86382,-9.70411 11.40509,-19.83641 1.67342,-6.67217 2.03849,-11.01198 2.03957,-24.24557 0.002,-22.24605 1.72845,-31.82133 8.44747,-46.84642 4.24657,-9.4962 4.97893,-18.85923 2.66636,-34.08849 -1.90244,-12.52829 -5.57711,-20.64234 -14.08057,-31.09134 -3.38627,-4.16101 -8.10133,-10.08198 -10.47792,-13.15772 -17.34715,-22.45032 -23.34801,-28.11979 -31.09386,-29.37677 l -3.39263,-0.55055 0.58688,3.71988 c 0.3228,2.04592 1.38458,5.22585 2.35954,7.06649 0.97496,1.84064 1.77265,4.47648 1.77265,5.85742 0,2.44589 -3.8881,8.72222 -6.97998,11.2674 -0.8463,0.69665 -1.83258,2.60452 -2.19172,4.23969 -0.35915,1.63518 -2.11324,5.81838 -3.89799,9.29599 -1.8004,3.5081 -3.24709,7.77476 -3.24969,9.58419 -0.005,3.32199 -0.10054,3.18905 12.52322,17.38388 2.11354,2.37659 5.97089,7.12978 8.57187,10.56263 2.60098,3.43286 6.09724,7.7078 7.76947,9.49987 3.01086,3.22665 3.03655,3.33881 2.64448,11.53949 -0.51584,10.78934 -4.23322,19.35218 -10.19268,23.47849 -3.9596,2.74161 -3.98587,2.74536 -12.3767,1.76733 l -8.40867,-0.98011 -3.18197,2.79381 c -3.92613,3.44719 -9.54519,3.8482 -12.23742,0.87333 -0.95591,-1.05627 -2.21791,-1.92048 -2.80446,-1.92048 -1.81675,0 -7.00236,-3.20659 -10.72321,-6.63082 l -3.55324,-3.26997 0.67298,-12.09386 c 1.0053,-18.06576 0.84163,-42.54544 -0.31314,-46.83392 -1.30073,-4.83051 -3.6283,-6.06991 -18.02239,-9.59662 -1.55421,-0.3808 -3.29007,0.59357 -6.72167,3.77303 -6.82885,6.32708 -8.05375,6.79048 -14.51502,5.49135 -3.01134,-0.60548 -6.36509,-1.26755 -7.45277,-1.47126 -2.2915,-0.42919 -9.55114,-7.50471 -11.28848,-11.00218 -0.70552,-1.42028 -2.14788,-2.48802 -3.56213,-2.63694 -1.30711,-0.13765 -4.79545,-0.72287 -7.75185,-1.3005 -4.46882,-0.87315 -5.86608,-0.79646 -8.28573,0.45479 -1.60074,0.82778 -3.14471,2.11554 -3.43103,2.86167 -0.73226,1.90824 -9.04139,7.35657 -11.21935,7.35657 -2.53813,0 -11.53853,-5.76677 -11.53853,-7.39302 0,-0.73948 -0.62009,-2.54363 -1.37798,-4.00921 -1.07889,-2.08635 -2.52214,-2.93919 -6.64966,-3.92937 -2.89945,-0.69556 -7.00044,-1.03278 -9.11331,-0.74939 -3.68063,0.49368 -4.08533,0.26803 -9.65829,-5.38528 -3.19918,-3.24531 -7.12026,-7.03908 -8.71351,-8.43062 -4.25721,-3.71821 -3.97589,-7.49666 0.84225,-11.31271 2.0565,-1.62878 4.47578,-2.96141 5.37618,-2.96141 0.90041,0 2.87879,-1.32923 4.39642,-2.95385 1.90949,-2.04413 3.31719,-2.77678 4.57075,-2.37892 1.96736,0.62442 3.44931,-0.73323 4.20929,-3.85624 0.69485,-2.8554 -0.96669,-13.87771 -2.44272,-16.20446 -0.68851,-1.08534 -1.77165,-4.34994 -2.40695,-7.25466 -1.29575,-5.92439 -8.76623,-16.87421 -13.09177,-19.18917 -2.16056,-1.15629 -3.16841,-1.15793 -7.0369,-0.0114 -2.52479,0.74825 -9.59469,1.42483 -16.03804,1.53481 -7.3675,0.12574 -13.77369,0.80208 -17.76443,1.8755 -5.28058,1.42035 -11.41599,1.71688 -39.84993,1.92591 -35.01802,0.25744 -46.40461,0.74051 -55.11519,2.33823 -2.8505,0.52285 -8.06669,0.6826 -11.5915,0.355 -4.12355,-0.38324 -9.4659,-0.0593 -14.98228,0.90823 -4.71544,0.82713 -11.99779,1.96826 -16.18302,2.53586 -7.63301,1.03519 -8.75128,1.44157 -17.0298,6.18872 -2.46085,1.41112 -7.46097,3.18843 -11.11137,3.94955 -4.05298,0.84507 -11.84444,3.91991 -20.01181,7.8975 -14.11426,6.87378 -16.7963,8.42514 -22.97714,13.29056 -5.36408,4.22248 -7.90152,4.58428 -16.32332,2.3274 -6.4255,-1.72191 -7.55178,-1.78846 -9.86858,-0.58309 -3.61786,1.88227 -6.57224,5.23833 -8.34376,9.47821 -0.82449,1.97328 -2.11202,3.58779 -2.86117,3.58779 -1.37127,0 -4.51576,-3.87774 -5.61156,-6.92009 -0.81814,-2.27147 -13.31409,-6.04235 -19.91423,-6.00949 -3.74963,0.0186 -6.30655,0.64338 -8.70807,2.1276 -2.84829,1.76034 -3.94746,1.94997 -6.77604,1.16896 -1.85694,-0.51273 -4.63599,-2.23981 -6.17564,-3.83794 -4.04322,-4.19677 -5.66751,-4.91735 -15.28251,-6.77969 -4.75318,-0.92066 -11.01875,-2.56024 -13.92347,-3.64352 -2.90472,-1.08328 -6.93775,-1.98371 -8.96229,-2.00094 -2.02453,-0.0173 -6.99377,-0.86651 -11.04275,-1.88727 -6.32637,-1.59489 -10.10678,-1.81415 -26.87887,-1.55895 l -19.5171,0.29697 -11.69068,5.74774 c -9.78153,4.8091 -12.8815,6.90622 -18.98271,12.84176 -4.01062,3.90171 -9.82079,8.82245 -12.91149,10.93497 -3.0907,2.11253 -8.25789,6.43361 -11.48262,9.6024 -5.99231,5.88834 -7.06136,7.90887 -12.53126,23.68445 -1.22053,3.52009 -3.42822,8.22721 -4.906,10.46028 -3.4279,5.17992 -3.43682,9.05841 -0.0496,21.54914 4.50692,16.61947 8.43903,23.20887 21.99663,36.86168 6.49687,6.5425 13.32487,12.89981 15.17333,14.12736 1.84846,1.22755 8.54613,3.94843 14.88371,6.04639 6.33758,2.09796 15.84394,5.39342 21.12526,7.32326 l 9.60239,3.50877 14.88371,-2.10511 c 10.57036,-1.49503 16.69253,-2.87903 21.12527,-4.77564 3.43285,-1.4688 7.75393,-3.12184 9.60239,-3.67342 28.52255,-8.51121 38.20574,-14.18869 61.39281,-35.99615 14.60899,-13.73976 17.2913,-17.05156 20.40908,-25.19883 1.12287,-2.93425 2.81711,-5.75003 3.76497,-6.25732 0.94787,-0.50728 4.22861,-0.83519 7.29053,-0.72868 4.87083,0.16943 6.21439,-0.21806 10.74206,-3.09805 5.36124,-3.41021 23.95979,-10.36106 29.90686,-11.17712 1.86664,-0.25615 5.62003,-0.0611 8.34087,0.43343 4.51176,0.82004 5.52258,0.6371 11.48982,-2.07942 l 6.54284,-2.97858 32.16801,-0.0668 c 22.02555,-0.0457 34.97818,-0.48345 41.08076,-1.38827 8.88539,-1.31744 8.93843,-1.31303 17.2843,1.43375 4.60437,1.51538 10.53211,3.06089 13.17277,3.43444 4.62929,0.65488 7.71448,1.84309 14.88371,5.73219 2.93202,1.59053 4.19003,1.70555 9.85961,0.90153 6.28791,-0.89172 6.66983,-0.82508 11.77066,2.05365 7.48513,4.22434 10.72349,3.97944 18.60707,-1.40717 12.03815,-8.2253 18.50859,-9.3203 27.72414,-4.69183 8.43402,4.23596 13.18749,12.31401 16.46782,27.98545 1.82423,8.71502 3.12426,11.62442 5.19423,11.62442 0.57551,0 2.79117,-1.67498 4.92369,-3.72217 4.34988,-4.17585 16.37324,-11.64166 18.74839,-11.64166 4.40807,0 5.28025,7.34577 1.49381,12.58117 -5.6851,7.86061 -5.67762,7.81402 -2.46485,15.36392 2.29712,5.39815 2.90414,8.21702 2.90414,13.48623 0,7.20836 2.13859,19.09062 4.49668,24.98406 1.87765,4.69273 10.91151,13.01874 14.98563,13.81143 2.3321,0.45375 3.98237,1.883 6.77354,5.86635 4.45073,6.35179 8.42923,8.96214 13.66676,8.96694 4.56567,0.004 7.63602,2.63692 9.08479,7.78991 1.21769,4.33106 7.11091,10.45823 10.05892,10.45823 2.28928,0 6.09745,-4.07706 7.62374,-8.16204 0.39465,-1.05626 0.65652,-7.77861 0.58191,-14.93855 -0.11924,-11.44362 0.0743,-13.2081 1.6005,-14.58926 2.61329,-2.365 10.34126,-3.82494 14.3653,-2.71384 1.90584,0.52622 4.06353,0.57672 4.95916,0.11605 5.3884,-2.77153 9.655,-3.20523 16.18744,-1.64545 3.58779,0.85667 8.26395,1.82379 10.39145,2.14913 4.81693,0.73661 14.49354,-1.91465 15.78319,-4.32441 1.48979,-2.78369 6.37454,-4.3853 9.30395,-3.05058 1.83503,0.8361 2.32905,1.63108 1.93942,3.121 -0.73782,2.82145 2.74113,5.965 8.84521,7.99245 4.97137,1.65122 5.08783,1.64568 7.20454,-0.34286 1.18332,-1.11167 2.98785,-2.0307 4.01007,-2.0423 1.02222,-0.0116 3.74224,-0.87582 6.04447,-1.92048 2.30224,-1.04466 4.31207,-1.89939 4.46629,-1.89939 1.14852,0 4.65492,8.129 5.44768,12.62953 1.77975,10.10385 -3.38707,20.66882 -12.30307,25.1569 -3.64123,1.83291 -4.4935,3.72382 -3.07831,6.8298 1.10765,2.43106 6.01873,5.30532 9.10857,5.33091 0.97644,0.008 2.42352,0.46287 3.21571,1.01061 2.08674,1.44283 17.06009,0.16718 21.12527,-1.79976 z M 701.65539,443.83775 c -2.03629,-4.02152 -2.60121,-6.49589 -2.60121,-11.39337 0,-7.23903 1.71356,-10.19202 7.68066,-13.23621 4.58332,-2.33824 15.10279,-15.11552 15.53171,-18.86531 0.46205,-4.03944 2.71264,-3.36738 5.29231,1.58036 2.91125,5.5837 5.50565,7.68191 9.49858,7.68191 3.90354,0 9.80157,-2.66197 10.48971,-4.73434 1.01123,-3.04543 7.70165,-7.49105 12.98838,-8.63047 l 5.25528,-1.13264 3.04791,3.31415 c 4.46366,4.85358 5.07852,10.3827 1.86074,16.7327 -3.597,7.09834 -6.71514,10.17174 -9.5882,9.45064 -5.3844,-1.35139 -10.6843,0.39741 -15.99171,5.27676 -5.63221,5.17796 -7.21263,5.58962 -10.75673,2.80182 -1.31983,-1.03818 -4.42886,-2.57651 -6.90894,-3.41852 -4.32467,-1.46827 -4.68667,-1.44505 -8.8433,0.56713 -4.32218,2.09234 -4.88838,2.90412 -9.33292,13.38115 -1.14677,2.70326 -3.48774,5.76143 -4.41026,5.76143 -0.33595,0 -1.78135,-2.31173 -3.21201,-5.13719 z m 36.96065,-63.23184 c -1.56827,-1.56827 -1.44822,-2.68867 0.28807,-2.68867 0.8002,0 1.44036,0.85355 1.44036,1.92048 0,2.23833 -0.1788,2.31781 -1.72843,0.76819 z m 258.23513,0.0725 c 4.84243,-2.66814 9.42103,-9.95084 9.45713,-15.0425 0.051,-7.09765 -7.44965,-16.30526 -15.44451,-18.96071 -4.32655,-1.43705 -5.0667,-1.43803 -9.35907,-0.0123 -6.06122,2.01322 -6.83354,3.84089 -7.5373,17.83752 -0.66429,13.21183 -0.18878,15.74571 3.32829,17.7376 3.91566,2.21761 14.18696,1.39845 19.55546,-1.5596 z M 712.6256,343.39044 c 0.3345,-0.023 0.83418,-0.90603 1.1104,-1.96229 0.34313,-1.31211 1.3672,-1.95662 3.23277,-2.03455 2.20043,-0.0919 1.87893,-0.32496 -1.65593,-1.2003 -2.75561,-0.68237 -5.79023,-2.42194 -8.16203,-4.6788 -3.79532,-3.61138 -7.85316,-4.64702 -10.82579,-2.76298 -1.07824,0.6834 -1.07824,1.19086 0,3.10608 0.70884,1.25908 1.80621,2.62206 2.4386,3.02886 0.63238,0.40679 2.07931,2.3935 3.2154,4.4149 2.02527,3.60348 2.14348,3.66018 6.05201,2.90309 2.19251,-0.42471 4.26007,-0.79101 4.59457,-0.81401 z m 18.35654,-1.94919 c 1.94493,-0.0152 2.1421,-1.79018 0.57976,-5.21913 -1.29349,-2.83891 -2.7403,-2.3705 -2.7403,0.88717 0,1.25922 -0.97224,3.01143 -2.16054,3.89381 l -2.16054,1.60434 2.4006,-0.57654 c 1.32033,-0.31709 3.15679,-0.58243 4.08102,-0.58965 z M 934.79292,328.1945 c 5.96385,-3.16798 7.04646,-4.19305 9.6024,-9.09206 l 2.88071,-5.52153 -2.40059,-4.56098 c -3.55161,-6.74784 -9.87532,-10.06919 -18.09856,-9.50577 -5.52187,0.37835 -6.45216,0.76585 -9.88439,4.11735 -6.43222,6.28088 -11.304,19.12552 -8.7315,23.02096 1.74805,2.64703 8.52125,5.08869 14.14882,5.10049 4.81714,0.0101 6.86311,-0.57313 12.48311,-3.55846 z M 721.61981,317.84815 c 7.76862,-0.21721 10.32434,-1.69737 13.25763,-7.67825 3.15374,-6.43034 3.21626,-7.86571 0.39856,-9.14954 -3.30535,-1.50602 -6.89415,0.33052 -9.41681,4.81901 l -2.19242,3.90088 h -7.33404 c -6.07855,0 -15.30696,1.88228 -17.20854,3.50995 -0.22556,0.19307 0.8547,1.68487 2.40059,3.3151 2.76915,2.92022 2.90303,2.95262 9.05228,2.19057 3.43285,-0.42541 8.40209,-0.83388 11.04275,-0.90772 z"
       id="path64"
       inkscape:connector-curvature="0" />
    <path
       style="fill:#ab5765;stroke-width:0.96023923"
       d="m 784.9956,580.54718 c -13.42257,-1.64816 -16.34508,-2.29094 -24.4861,-5.38552 -2.37659,-0.90339 -6.26556,-1.96843 -8.64216,-2.36675 -2.37659,-0.39831 -6.69766,-1.45568 -9.60239,-2.3497 -2.90472,-0.89402 -7.2258,-1.96845 -9.60239,-2.38763 -7.86212,-1.3867 -8.84506,-1.80584 -25.44634,-10.85088 -1.5844,-0.86325 -5.7722,-2.87041 -9.30624,-4.46037 -3.53403,-1.58996 -8.71933,-4.63083 -11.52287,-6.75748 -5.86526,-4.44917 -13.20777,-8.18187 -18.06058,-9.18144 -1.84846,-0.38073 -7.16352,-2.69042 -11.81124,-5.13261 -4.64773,-2.4422 -10.55483,-5.53057 -13.1269,-6.86304 -2.57205,-1.33249 -5.46704,-3.09216 -6.43329,-3.9104 -0.96625,-0.81824 -3.70131,-2.06228 -6.0779,-2.76452 -6.99487,-2.06688 -16.11179,-7.40285 -20.99964,-12.29071 -3.89185,-3.89184 -7.08101,-5.91608 -15.48946,-9.83152 -0.79219,-0.36888 -3.16878,-3.1804 -5.28131,-6.24781 -2.11253,-3.06741 -5.90552,-7.3158 -8.42889,-9.44088 l -4.58792,-3.86377 -8.37531,1.1278 c -9.75437,1.31351 -23.08552,-0.14676 -31.70358,-3.47276 -6.29507,-2.42948 -9.97488,-1.96747 -18.60144,2.33547 -5.88775,2.93681 -6.92695,3.15181 -12.96323,2.68201 -3.6093,-0.2809 -10.28301,-1.38176 -14.83046,-2.44635 -10.60163,-2.48191 -21.06895,-2.04268 -33.50231,1.40586 -5.01725,1.39159 -10.50112,2.53882 -12.18638,2.54941 -1.68526,0.0106 -3.36479,0.50577 -3.7323,1.10041 -1.00486,1.6259 -12.4309,0.47385 -14.3518,-1.44704 -1.36653,-1.36655 -7.55979,-2.21824 -12.94029,-1.77955 -2.58687,0.21092 -9.03205,1.95966 -13.44335,3.64753 -2.80961,1.07503 -7.51195,1.71555 -13.44335,1.83118 -5.83816,0.11381 -10.50505,0.74057 -12.96323,1.74097 -4.44037,1.80707 -19.19338,2.25932 -20.2069,0.61943 -0.72438,-1.17208 -6.25497,-0.48243 -12.92135,1.61126 -2.37659,0.74641 -7.99399,2.18325 -12.48311,3.19298 -4.48912,1.00973 -11.83495,2.761 -16.32407,3.89171 -11.86155,2.98766 -19.22692,4.83183 -23.04574,5.77027 -1.84846,0.45425 -6.8177,1.75991 -11.04275,2.90146 -7.13478,1.92774 -8.60521,2.00602 -20.64515,1.09906 -7.12977,-0.53707 -16.63614,-0.74426 -21.12526,-0.46041 -5.62326,0.35557 -12.79157,-0.12179 -23.04574,-1.53464 -14.85068,-2.04617 -17.75316,-2.90468 -31.6879,-9.37277 -18.8546,-8.75173 -43.43163,-28.5101 -46.96744,-37.75882 -1.8601,-4.8655 -4.10748,-9.4806 -7.01403,-14.40359 -4.39548,-7.44488 -7.62614,-19.81871 -8.90012,-34.08849 -0.58739,-6.57932 1.80961,-27.84791 4.43703,-39.36981 3.64556,-15.98667 26.34546,-45.71923 42.12049,-55.16985 3.43286,-2.05657 8.83421,-4.90126 12.003,-6.32152 3.16878,-1.42026 10.73067,-4.96651 16.80418,-7.88055 13.19425,-6.33054 15.16409,-6.98594 32.64814,-10.86248 15.40991,-3.41666 55.67403,-4.89896 73.4583,-2.70431 10.69316,1.31958 64.69545,1.26569 77.77938,-0.0776 5.28132,-0.54223 18.02849,-1.64914 28.32706,-2.45982 25.03342,-1.9706 39.3251,-4.35875 66.33678,-11.08497 12.45525,-3.10149 27.79507,-6.2869 34.0885,-7.07868 21.96814,-2.7638 42.25973,-4.41504 54.17324,-4.4084 6.60165,0.004 15.67591,-0.45968 20.16503,-1.02968 8.7214,-1.1074 28.22163,-1.99817 40.81016,-1.86419 8.10923,0.0863 17.56254,-1.22716 36.4891,-5.06987 15.81889,-3.21175 32.49524,-5.28965 51.98514,-6.47739 14.38147,-0.87644 19.16368,-0.75245 37.92945,0.98342 26.2112,2.42457 42.30129,4.60224 47.39962,6.41519 2.11253,0.75121 5.65929,2.01069 7.88169,2.79886 l 4.04075,1.43302 4.51712,-3.448 c 5.95719,-4.54722 12.14731,-7.58248 18.5334,-9.08762 8.42943,-1.98676 30.60681,-0.0868 45.36128,3.8862 5.94569,1.60101 12.82664,8.67949 13.73789,14.13226 1.30972,7.83724 -4.58937,20.90563 -12.77511,28.30095 -4.7564,4.29712 -8.17977,6.1234 -13.15322,7.01687 -4.36267,0.78376 -7.16861,2.86043 -7.16861,5.30548 0,2.62215 5.32999,6.47584 9.90569,7.16201 5.83086,0.87438 9.79062,-1.56597 14.78964,-9.11469 2.22761,-3.36376 5.38294,-7.77436 7.01185,-9.80132 5.48554,-6.82603 15.49201,-10.37217 29.26802,-10.37217 9.96456,0 16.8527,1.5814 23.29923,5.34911 6.52593,3.81412 15.25765,12.90364 17.59814,18.31929 2.02973,4.69659 2.06411,6.59733 0.33626,18.5971 -0.96508,6.70246 0.26577,7.28465 12.09172,5.71941 7.76517,-1.02775 10.59211,-1.03705 15.08459,-0.0496 14.78173,3.24913 29.04598,15.46333 33.00778,28.26399 2.2922,7.40673 2.5132,5.11632 -2.2605,23.43851 -1.482,5.68798 0.034,7.02122 9.0564,7.96279 3.8583,0.40266 8.2409,1.03981 9.7391,1.41588 2.8858,0.72434 12.7704,9.33482 16.1261,14.04743 3.2266,4.53143 5.6505,12.26698 6.2695,20.00816 0.5377,6.72524 0.3771,7.61529 -2.3379,12.96323 -3.1327,6.17041 -5.7735,8.98869 -12.9393,13.809 -2.557,1.72008 -4.5611,3.81223 -4.5611,4.7615 0,2.55468 3.1223,5.4027 9.8063,8.9449 9.1456,4.8467 19.0027,14.7254 23.6973,23.74912 11.7977,22.6766 2.1064,44.14672 -30.1998,66.90435 -16.1031,11.34354 -21.3751,14.80498 -22.5494,14.80498 -0.5358,0 -3.6625,1.36255 -6.9483,3.02788 -3.2857,1.66534 -8.9989,3.82099 -12.69578,4.79033 -8.62267,2.26088 -23.59011,3.20233 -29.52736,1.85725 -2.50863,-0.56832 -6.47518,-1.44667 -8.8145,-1.95189 -8.59921,-1.85715 -14.48973,-4.32327 -21.12244,-8.84308 -3.73571,-2.54568 -7.5229,-4.63153 -8.41596,-4.63522 -0.89306,-0.004 -1.86114,-0.3908 -2.15127,-0.86025 -0.29014,-0.46946 -3.66448,-0.85751 -7.49853,-0.86236 -6.92354,-0.009 -18.36689,-2.35852 -20.64194,-4.23861 -1.7834,-1.47379 -5.35664,-0.20429 -9.74526,3.4623 -6.7118,5.60754 -9.89165,7.02798 -19.31445,8.62781 -5.01725,0.85182 -11.49886,2.22179 -14.40359,3.04435 -12.0006,3.39832 -26.47905,6.09519 -43.69088,8.1382 -9.5157,1.12949 -11.18791,1.07096 -27.84694,-0.97462 z M 1003.45,558.36445 c 6.5429,-1.41628 10.7172,-3.45732 21.0971,-10.31566 10.3192,-6.81823 20.1058,-16.42456 23.6508,-23.21495 2.4047,-4.60641 2.7573,-6.32435 2.759,-13.44335 0,-6.70455 -0.3978,-8.91526 -2.2366,-12.38023 -5.9939,-11.29474 -15.3005,-21.97223 -22.2631,-25.54248 -11.0278,-5.65473 -30.24929,-5.64702 -41.21311,0.0165 -5.60146,2.89352 -13.59574,9.55027 -18.2869,15.22722 -5.31607,6.4331 -9.61876,21.46081 -11.04128,38.56275 -0.72749,8.74615 0.88601,16.93363 4.15646,21.09134 4.74887,6.03719 13.99501,9.7387 27.18294,10.88211 8.76324,0.7598 8.55026,0.77142 16.19469,-0.8833 z m -171.8828,-2.73111 c 7.12978,-1.53523 16.63615,-4.07317 21.12527,-5.63986 9.01432,-3.14598 15.67613,-5.24205 21.80178,-6.85968 5.86902,-1.54986 9.5217,-5.13099 13.65858,-13.39102 5.6132,-11.20778 7.81023,-22.29914 8.77095,-44.27875 0.85496,-19.56037 2.52586,-28.56635 7.66065,-41.29028 3.79001,-9.39159 5.86513,-20.80886 5.23578,-28.80718 -1.67773,-21.32228 -8.06337,-37.8561 -20.21189,-52.33304 -3.54552,-4.22505 -11.33162,-13.76839 -17.30245,-21.20742 -11.1956,-13.94855 -14.21444,-16.8382 -21.431,-20.51394 -10.14589,-5.16778 -23.67651,-16.21089 -38.62529,-31.52433 -14.9836,-15.34908 -23.00238,-20.71508 -32.63606,-21.83935 -2.8493,-0.33252 -9.50163,-1.43368 -14.78295,-2.44702 -18.02809,-3.45909 -69.53668,-4.10814 -80.66009,-1.0164 -12.60794,3.50437 -49.04785,11.16592 -64.33603,13.52676 -3.69693,0.57089 -20.76518,1.27096 -37.92946,1.55573 -68.37809,1.1344 -70.4352,1.20812 -77.29926,2.77031 -3.69692,0.84138 -11.47486,2.3917 -17.2843,3.44517 -5.80945,1.05347 -12.93923,2.97582 -15.84395,4.27189 -6.07085,2.70878 -10.86977,4.15448 -24.96622,7.52117 -12.33677,2.94643 -28.90922,7.04984 -34.0885,8.44047 -2.11252,0.56721 -7.72992,1.38418 -12.48311,1.8155 -4.75318,0.43132 -12.74717,1.48726 -17.76442,2.34653 -5.01725,0.85927 -18.62864,1.98249 -30.24754,2.49604 l -21.12526,0.93372 -13.92347,-3.33829 c -13.92525,-3.33871 -23.56569,-4.43594 -55.21376,-6.28413 -14.91739,-0.87115 -21.73157,-0.23647 -36.36791,3.38739 -12.34922,3.05757 -12.71224,3.21978 -23.72905,10.60245 -5.06235,3.39243 -9.72187,6.16806 -10.35449,6.16806 -8.42129,0 -37.82109,31.71571 -40.13788,43.29966 -0.35423,1.77115 -2.26335,6.4727 -4.24248,10.4479 -4.97742,9.99745 -6.24788,17.05607 -4.41183,24.51194 0.78034,3.16879 2.35472,8.13803 3.49864,11.04275 1.1439,2.90472 2.93267,7.87396 3.97503,11.04275 1.04237,3.16879 2.89357,7.27381 4.11377,9.12227 1.22022,1.84847 3.89082,5.95349 5.93469,9.12228 4.3811,6.79237 6.90723,9.40886 17.32887,17.94866 10.86015,8.89913 21.34398,13.98301 34.4602,16.71065 5.80945,1.20813 14.88371,3.1183 20.16502,4.24482 10.00741,2.13461 11.48823,2.12836 32.16802,-0.13578 9.9637,-1.09088 13.61247,-1.93751 20.16502,-4.67898 2.37659,-0.99431 7.56189,-2.7127 11.52287,-3.81863 7.36893,-2.05743 30.07229,-12.56933 36.96922,-17.11714 2.11252,-1.39298 7.94598,-6.01797 12.96323,-10.27773 5.01725,-4.25978 11.77358,-9.99832 15.01409,-12.75232 3.2405,-2.75399 6.44962,-5.00726 7.13138,-5.00726 0.68177,0 4.21579,-2.05251 7.8534,-4.56114 7.90887,-5.45424 8.02076,-5.51926 12.12441,-7.04566 1.77848,-0.66152 5.4514,-3.10989 8.16204,-5.44082 10.32776,-8.88102 17.87317,-10.54704 25.49314,-5.62884 7.16349,4.62357 8.69239,4.7055 16.59883,0.88954 3.85411,-1.86014 12.62487,-4.84136 19.49058,-6.62493 12.69106,-3.29686 19.55926,-3.85984 29.76742,-2.44001 2.68379,0.37328 7.55382,0.17855 11.04275,-0.44154 3.43285,-0.61014 12.56907,-1.40437 20.30271,-1.76497 15.17682,-0.70766 22.54848,0.38313 28.94444,4.28293 1.69724,1.03486 3.75812,1.88318 4.57975,1.88515 2.2121,0.006 7.54209,4.23194 10.11907,8.02432 1.46106,2.15014 3.82636,3.9222 6.70022,5.01974 4.42882,1.69138 4.46555,1.68838 12.42957,-1.01464 7.32143,-2.48491 8.71138,-2.65638 16.66544,-2.05592 6.37197,0.48102 10.36384,0.26407 15.02297,-0.81646 3.48983,-0.80935 9.23646,-1.47154 12.77029,-1.47154 5.88377,0 6.65251,0.24089 9.12345,2.85886 3.9151,4.14805 4.4529,7.23622 3.8234,21.95477 -0.79876,18.67656 0.46438,21.58797 10.27625,23.6855 1.84846,0.39515 4.14811,1.26584 5.11033,1.93486 1.4175,0.98556 2.82383,0.96576 7.41108,-0.10437 3.11387,-0.72642 6.33957,-1.06059 7.16823,-0.7426 2.73772,1.05056 6.66907,10.95986 9.08958,22.91105 2.25486,11.13332 3.82944,14.58398 8.75884,19.19485 4.43086,4.14455 11.79132,8.17197 14.935,8.17197 0.78163,0 6.5888,4.96923 12.90483,11.04275 6.31602,6.07351 11.89121,11.04275 12.3893,11.04275 0.49808,0 2.38366,1.29774 4.19017,2.88389 4.49143,3.94352 9.24366,5.75826 15.07908,5.75826 4.65884,0 5.22377,0.28828 10.83353,5.52811 6.20565,5.79643 10.38314,8.95239 13.6003,10.27457 4.9918,2.05153 15.85566,3.19532 31.20778,3.28567 15.15932,0.0892 18.07307,-0.17433 29.76741,-2.69244 z M 993.32364,384.73012 c 8.09466,-3.67215 9.67306,-5.02955 12.63076,-10.86198 2.95,-5.81719 2.9369,-11.07567 -0.042,-16.95446 -6.44582,-12.72025 -23.6487,-19.38428 -35.1104,-13.60108 -5.85698,2.95523 -7.49649,4.54238 -10.20062,9.87487 -6.15944,12.14616 -2.21614,29.44372 7.75239,34.00661 5.05816,2.31525 17.04166,1.13276 24.96997,-2.46396 z m -57.59972,-54.09946 c 16.74351,-10.17721 17.17438,-24.18898 0.98948,-32.17727 -6.85433,-3.38306 -13.56043,-4.50181 -18.10612,-3.02058 -5.10231,1.66262 -11.10697,5.6935 -13.67035,9.1768 -4.83764,6.57373 -5.57255,21.52907 -1.26761,25.79569 3.84415,3.80992 9.07578,5.21711 17.65101,4.74769 6.95878,-0.38093 8.26482,-0.79099 14.40359,-4.52233 z"
       id="path62"
       inkscape:connector-curvature="0" />
    <path
       style="fill:#873b4b;stroke-width:0.96023923"
       d="m 786.40026,580.55564 c -9.55203,-1.18528 -16.66493,-2.67577 -22.52935,-4.72098 -4.71358,-1.64388 -9.4507,-2.99443 -10.52692,-3.00124 -1.07623,-0.007 -4.76547,-0.90228 -8.19832,-1.98991 -3.43286,-1.08765 -8.40209,-2.34094 -11.04275,-2.78512 -6.54427,-1.10077 -14.35857,-4.14161 -21.14554,-8.2285 -3.1163,-1.87655 -9.13978,-4.93602 -13.3855,-6.79883 -4.24572,-1.86281 -9.88003,-5.03798 -12.52069,-7.05594 -6.53928,-4.99723 -12.54251,-8.15244 -18.10226,-9.51433 -4.18339,-1.02472 -8.29609,-2.98871 -24.83249,-11.85859 -2.69906,-1.44772 -5.59375,-3.22867 -6.43265,-3.95764 -0.8389,-0.72898 -3.90187,-2.07643 -6.80659,-2.99435 -7.79139,-2.46214 -15.08076,-6.80132 -21.87626,-13.02239 -3.35879,-3.07488 -8.25293,-6.4282 -11.04275,-7.56619 -4.14844,-1.69217 -5.58865,-2.96571 -8.37128,-7.4025 -2.88908,-4.60651 -5.30328,-7.16419 -11.24228,-11.91041 -1.40431,-1.12226 -7.8778,-1.13778 -13.59932,-0.0326 -5.45845,1.05437 -20.96582,-1.04705 -27.94463,-3.78679 -6.5919,-2.58785 -11.39989,-2.01517 -20.17275,2.40277 -6.17367,3.10901 -6.45678,3.15658 -13.96301,2.34616 -4.21387,-0.45496 -10.03817,-1.48573 -12.9429,-2.29063 -7.65979,-2.12249 -21.52512,-1.916 -30.01963,0.44707 -3.82227,1.06331 -9.74157,2.38252 -13.15401,2.93157 -3.41244,0.54905 -6.76414,1.46278 -7.44822,2.03053 -1.56811,1.30142 -10.73813,0.18666 -12.74938,-1.54989 -0.7947,-0.68615 -4.14869,-1.51512 -7.45331,-1.84216 -6.03087,-0.59684 -11.14971,0.31666 -20.27885,3.61892 -2.57147,0.93019 -7.41489,1.53206 -12.48311,1.55125 -5.65947,0.0214 -9.95343,0.61952 -13.56268,1.88913 -5.65845,1.99044 -17.70612,2.60827 -18.72466,0.96024 -0.32641,-0.52814 -1.73746,-0.96024 -3.13567,-0.96024 -2.50503,0 -20.22632,4.11241 -33.35342,7.74001 -3.69692,1.02163 -10.39459,2.66762 -14.88371,3.65776 -4.48912,0.99014 -14.04389,3.36847 -21.23282,5.28518 l -13.07079,3.48492 -11.89543,-0.99987 c -6.54249,-0.54989 -15.3523,-0.72691 -19.57735,-0.39333 -11.04225,0.87179 -35.94837,-2.70191 -45.61137,-6.54464 -15.21395,-6.05021 -29.54928,-14.69143 -43.04464,-25.94696 -8.56576,-7.14409 -12.86057,-12.31206 -14.59215,-17.55882 -1.11917,-3.39112 -4.54399,-10.17874 -7.11813,-14.10738 -3.23495,-4.93716 -7.07642,-19.90142 -8.63637,-33.64265 -0.56274,-4.95705 2.50315,-29.2164 4.87003,-38.53493 1.86746,-7.35227 4.63603,-12.72918 13.04461,-25.33429 11.58328,-17.36421 23.17562,-27.74352 39.15259,-35.05567 2.90472,-1.3294 11.33082,-5.23621 18.72466,-8.6818 7.39384,-3.44559 15.38784,-6.75435 17.76443,-7.3528 19.26332,-4.85074 17.50325,-4.52497 33.65957,-6.22999 16.06762,-1.69565 40.16133,-1.85299 52.28184,-0.34141 4.9279,0.61457 22.05475,1.04615 39.84993,1.00418 26.6125,-0.0628 35.94446,-0.50184 63.37579,-2.98185 37.27023,-3.36952 45.6842,-4.72081 74.4932,-11.96368 11.65995,-2.93143 26.35161,-5.97803 32.64813,-6.77024 21.96831,-2.76398 42.26324,-4.41585 54.17887,-4.40979 6.60164,0.003 15.89196,-0.44749 20.64514,-1.00189 8.53861,-0.99592 25.40528,-1.74859 40.33005,-1.79971 8.22084,-0.0281 18.06181,-1.42021 36.48909,-5.16155 20.96065,-4.2557 58.71092,-8.00269 69.13723,-6.86237 2.11253,0.23104 11.83495,1.09821 21.60539,1.92705 25.74436,2.18392 36.72687,3.89531 47.33059,7.37547 6.40433,2.1019 9.79407,2.78874 10.63373,2.15463 6.40987,-4.84074 14.42602,-9.44471 18.8099,-10.8032 9.67355,-2.99768 32.09804,-1.49963 47.92985,3.20191 6.4229,1.9074 11.90037,7.19509 13.34371,12.8814 0.86911,3.42403 0.73454,5.12 -0.79336,9.99899 -4.15522,13.26856 -13.43295,23.00972 -24.42631,25.64636 -6.04914,1.45083 -7.2018,2.36755 -7.2018,5.72773 0,5.37861 11.03144,9.63644 17.10194,6.60087 3.22439,-1.61236 4.66778,-3.28509 11.17233,-12.94745 3.99696,-5.9374 6.28156,-8.31738 9.83164,-10.2421 10.29664,-5.58244 24.30571,-7.02609 36.19324,-3.72979 12.331,3.41929 24.24923,13.72079 28.04945,24.24451 1.27755,3.53785 1.33562,5.14746 0.37609,10.42536 -0.6241,3.43285 -0.98273,7.53787 -0.79696,9.12227 0.33529,2.85967 0.37985,2.87979 6.09919,2.75499 3.16879,-0.0691 8.78619,-0.28453 12.48311,-0.47862 17.65823,-0.92709 36.55439,12.23723 41.58509,28.97098 l 2.0266,6.74079 -2.3611,8.1472 c -3.9819,13.74075 -3.1761,15.80009 6.1821,15.80009 16.7917,0 31.0015,15.17934 33.3098,35.58256 0.6082,5.37555 0.4069,6.28016 -2.8762,12.923 -3.1335,6.34016 -4.2804,7.65797 -10.2058,11.72671 -10.0868,6.92618 -9.3156,9.63268 5,17.54711 13.5702,7.50225 24.8634,23.30568 26.2093,36.67634 1.6246,16.13974 -9.1704,33.6479 -29.608,48.02076 -5.3498,3.76228 -12.2346,8.69929 -15.2996,10.97114 -7.5176,5.57237 -23.9716,13.32451 -33.60531,15.83288 -18.65418,4.85704 -42.8115,0.96087 -57.45468,-9.26647 -3.36213,-2.34825 -6.84365,-4.27419 -7.73671,-4.27989 -0.89306,-0.006 -1.89081,-0.44246 -2.21721,-0.9706 -0.32641,-0.52813 -3.61193,-0.96024 -7.30118,-0.96024 -6.59349,0 -18.70727,-2.34809 -20.49775,-3.97322 -2.33218,-2.11679 -7.52015,-0.53458 -11.99623,3.65857 -4.64138,4.34801 -10.0349,6.74092 -17.8192,7.90573 -4.22505,0.63221 -11.57088,2.1792 -16.32407,3.43774 -11.99668,3.17648 -20.41245,4.91144 -32.16801,6.63162 -16.10915,2.35723 -21.70486,2.451 -36.52479,0.61203 z M 1003.5883,560.8976 c 16.5645,-3.51094 40.5355,-21.65313 47.0754,-35.62841 3.9348,-8.40868 4.2939,-18.28492 0.9388,-25.81947 -5.5946,-12.56334 -16.3104,-24.80365 -25.3837,-28.99487 -5.7332,-2.64835 -6.5233,-2.75477 -20.3682,-2.74315 -13.19107,0.011 -14.84316,0.20944 -19.62534,2.35643 -6.45617,2.89855 -15.54464,10.048 -20.92592,16.46129 -6.35412,7.57281 -10.23551,21.53538 -11.42339,41.09357 -0.83797,13.79694 0.74759,19.4914 6.94637,24.94783 5.63814,4.96281 12.85472,7.64279 23.29819,8.652 12.03823,1.16333 12.47956,1.15596 19.46779,-0.32522 z m -177.02187,-2.08939 c 13.53744,-2.84323 17.89741,-3.9943 26.12604,-6.89749 4.48912,-1.58384 11.40284,-3.81908 15.36382,-4.96722 14.70015,-4.261 16.01177,-5.22898 21.31341,-15.72939 6.4122,-12.69999 8.3602,-21.96793 9.41425,-44.78984 0.94619,-20.48641 2.53628,-29.23896 7.67573,-42.25052 6.54159,-16.56134 7.09933,-28.97324 2.20061,-48.97221 -2.33293,-9.52416 -10.6874,-25.266 -18.09135,-34.08849 -3.54573,-4.22505 -11.30947,-13.73142 -17.25276,-21.12526 -11.11879,-13.83252 -13.36893,-15.9838 -20.55029,-19.64745 -10.13289,-5.16942 -23.69565,-16.23109 -38.73542,-31.59228 -15.16487,-15.48896 -24.77655,-21.82667 -34.6311,-22.83491 -2.73152,-0.27947 -9.07143,-1.32946 -14.08868,-2.33333 -17.37142,-3.4757 -71.84465,-4.16909 -81.73254,-1.04038 -9.06407,2.86804 -48.51699,11.16294 -64.22382,13.50291 -3.96099,0.59011 -21.89346,1.32414 -39.84993,1.63117 -17.95648,0.30704 -40.85818,0.6977 -50.89268,0.86815 -12.7326,0.21628 -20.27527,0.79271 -24.96623,1.908 -3.69692,0.87896 -11.41552,2.44495 -17.15245,3.48 -5.73692,1.03505 -12.43459,2.87296 -14.88371,4.08424 -4.8244,2.38605 -9.55209,3.818 -25.09807,7.60186 -5.54538,1.34972 -14.18754,3.55885 -19.20479,4.90918 -5.01725,1.35033 -10.33897,2.46379 -11.82605,2.47438 -1.48709,0.0106 -3.64763,0.52893 -4.8012,1.15188 -1.15357,0.62293 -6.41849,1.48106 -11.69981,1.90695 -5.28131,0.42587 -13.49136,1.45389 -18.24454,2.28448 -4.75319,0.8306 -18.10232,1.90692 -29.66474,2.39183 l -21.02259,0.88167 -13.0659,-3.2788 c -13.17634,-3.3065 -22.36866,-4.36543 -54.83632,-6.31698 -16.43069,-0.98761 -18.69456,-0.78691 -35.04873,3.10715 -14.05702,3.3471 -16.44689,4.3789 -27.37028,11.81689 -4.26396,2.90343 -8.18039,5.27896 -8.70318,5.27896 -0.52279,0 -3.42282,1.25638 -6.44452,2.79195 -11.75379,5.97308 -35.56529,34.9261 -35.70127,43.4101 -0.0222,1.38114 -0.88381,3.58357 -1.91482,4.89429 -2.19458,2.78996 -4.40011,8.45711 -6.55397,16.84059 -1.41112,5.49253 -1.4126,6.51046 -0.0174,12.00299 0.83847,3.30082 2.4541,8.37809 3.59029,11.28281 1.1362,2.90472 3.065,8.19534 4.28622,11.75693 1.22123,3.56159 3.29574,8.09872 4.61004,10.08251 1.31429,1.9838 4.04923,6.17974 6.07763,9.32431 9.46897,14.67949 34.12145,31.52269 50.02428,34.17784 3.62675,0.60553 10.91518,2.22488 16.1965,3.59856 11.04581,2.87301 22.26339,3.22646 38.88969,1.22532 9.97703,-1.20083 14.73254,-2.37341 21.16928,-5.21977 1.82425,-0.8067 6.55763,-2.36904 10.51861,-3.47185 7.31608,-2.03694 31.88645,-13.45532 38.88969,-18.07289 2.11253,-1.39288 7.94598,-6.02289 12.96323,-10.2889 17.12763,-14.5631 19.8924,-16.78799 20.86157,-16.78799 0.53328,0 3.94355,-2.01453 7.57838,-4.47671 3.63482,-2.46219 9.41747,-5.92067 12.85032,-7.68549 3.43286,-1.76482 8.50378,-5.1333 11.26873,-7.48548 5.16689,-4.39555 11.38952,-6.82524 15.09694,-5.89473 1.15598,0.29013 3.79863,1.68154 5.87254,3.09201 6.82744,4.64336 9.0118,4.73671 16.93165,0.72362 3.85228,-1.95199 8.51652,-3.88085 10.36498,-4.28636 1.84846,-0.40551 7.46586,-1.83956 12.48311,-3.18678 9.43739,-2.5341 16.5856,-2.96133 25.92646,-1.54956 3.54367,0.53559 7.49285,0.38156 12.00299,-0.46814 3.69692,-0.6965 12.98723,-1.52493 20.64514,-1.84095 14.91298,-0.61544 19.74242,0.10366 27.56862,4.10494 2.22353,1.13681 4.65604,2.06693 5.4056,2.06693 1.54961,0 9.27631,7.18412 9.27631,8.62491 0,0.51982 2.22469,2.07246 4.94375,3.45032 5.58705,2.83117 8.00265,2.75757 16.18151,-0.49302 4.67388,-1.85757 6.44097,-2.03435 15.36383,-1.53699 7.48304,0.41711 11.44414,0.18784 15.36383,-0.88925 2.90472,-0.79819 8.1172,-1.45639 11.58328,-1.46266 5.78756,-0.0105 6.53217,0.22911 9.12227,2.93514 l 2.82031,2.94653 -0.31398,15.93761 c -0.36327,18.43965 0.50539,21.89138 6.19162,24.60295 1.82038,0.86808 3.84166,1.57834 4.49174,1.57834 0.65006,0 2.81179,0.87354 4.80383,1.94121 3.40891,1.82707 3.93964,1.85826 9.0249,0.53032 7.78849,-2.03387 8.40564,-1.52349 12.16041,10.05652 0.77861,2.40132 1.88376,6.94744 2.45588,10.10249 1.97079,10.86828 4.36725,15.85284 10.21095,21.2385 3.85732,3.55497 6.95729,5.45541 10.83689,6.64356 4.66127,1.42754 6.87388,3.05694 15.55901,11.45793 5.56873,5.38655 11.43366,10.47048 13.03316,11.29761 1.59951,0.82714 3.49774,2.21425 4.2183,3.08247 2.63308,3.17266 10.28984,6.22996 15.60248,6.22996 4.80861,0 5.3684,0.26177 9.39425,4.39294 4.03129,4.13675 9.68171,8.43992 14.59424,11.11447 6.80336,3.70398 43.24851,5.06971 57.184,2.14289 z M 993.66875,387.51568 c 3.33452,-1.55822 7.30195,-3.71556 8.81665,-4.79409 3.5631,-2.53723 8.6465,-12.70063 8.6465,-17.28746 0,-5.62344 -5.1712,-14.85269 -10.8271,-19.32343 -7.26299,-5.74103 -9.91383,-6.79326 -18.39956,-7.30352 -7.36043,-0.44258 -8.04959,-0.30551 -13.96466,2.77751 -5.6319,2.93542 -6.52771,3.83332 -9.44286,9.46463 -3.12165,6.03022 -3.21084,6.51687 -2.90012,15.82455 0.36802,11.02391 2.67626,17.19502 7.7949,20.83983 6.34651,4.5191 20.37839,4.42734 30.27625,-0.19802 z m -62.57151,-50.82044 c 6.2159,-2.82241 13.62611,-8.77723 16.72012,-13.4362 2.24342,-3.37816 2.81951,-5.30086 2.81951,-9.41002 0,-8.69071 -4.51857,-14.33213 -15.63793,-19.52393 -5.73507,-2.6778 -7.29428,-2.99826 -13.01519,-2.675 -8.65612,0.48911 -16.55411,4.97347 -20.77035,11.79308 -2.65121,4.28823 -2.91684,5.51135 -3.22444,14.84747 -0.31013,9.41253 -0.16513,10.42458 1.9367,13.51752 3.16151,4.65233 8.79669,6.62695 19.02332,6.66595 5.99802,0.0229 9.21891,-0.44874 12.14826,-1.77887 z m -63.95049,-57.5074 c 4.68618,-4.68618 5.51165,-7.81683 3.13436,-11.8873 -2.32356,-3.97848 -8.15551,-5.87889 -16.05524,-5.23179 -8.06067,0.66029 -10.70538,2.86646 -10.49349,8.75348 0.26431,7.34364 5.94067,12.02171 14.59443,12.02773 4.69402,0.003 5.48153,-0.32371 8.81994,-3.66212 z"
       id="path60"
       inkscape:connector-curvature="0" />
    <path
       style="fill:#56212d;stroke-width:0.96023923"
       d="m 785.95584,579.58694 c -13.42257,-1.64816 -16.34508,-2.29094 -24.4861,-5.38552 -2.3766,-0.90339 -6.26556,-1.96843 -8.64216,-2.36675 -2.37659,-0.39831 -6.69767,-1.45568 -9.60239,-2.3497 -2.90472,-0.89402 -7.2258,-1.96845 -9.60239,-2.38763 -7.38034,-1.30172 -10.80353,-2.75583 -25.92646,-11.01307 -1.32033,-0.72091 -5.85746,-2.90243 -10.08251,-4.84781 -4.22506,-1.9454 -8.76219,-4.4981 -10.08252,-5.67267 -5.11086,-4.54668 -11.33588,-7.94006 -17.20574,-9.37919 -3.89863,-0.95584 -8.12382,-2.95497 -26.01949,-12.311 -2.52545,-1.32032 -5.3918,-3.08 -6.36965,-3.91039 -0.97786,-0.83039 -3.7224,-2.097 -6.09899,-2.81468 -7.41973,-2.2406 -15.47778,-6.721 -20.55972,-11.43151 -7.22558,-6.69749 -10.01091,-8.61381 -14.13352,-9.72391 -2.96672,-0.79886 -4.13013,-1.8143 -5.77684,-5.04212 -1.1341,-2.22301 -4.6023,-6.52752 -7.70713,-9.56559 -6.22212,-6.08835 -7.84539,-6.50435 -17.92313,-4.59313 -6.15743,1.16772 -21.3828,-0.78688 -28.96335,-3.71826 -6.65103,-2.57194 -11.55864,-2.00004 -20.16503,2.3499 -6.06659,3.06624 -6.45689,3.13361 -13.92347,2.4034 -4.22505,-0.41319 -10.44269,-1.48402 -13.81697,-2.37961 -8.60816,-2.28473 -21.84372,-1.62613 -33.71487,1.67765 -5.01725,1.39631 -10.50112,2.54741 -12.18638,2.55801 -1.68525,0.0106 -3.36475,0.5057 -3.73222,1.10027 -0.95401,1.54362 -10.86191,0.37324 -12.25868,-1.44808 -0.80217,-1.046 -3.24048,-1.49689 -8.79193,-1.62582 -8.27129,-0.1921 -11.55273,0.34369 -16.80419,2.74376 -2.06903,0.94559 -7.60536,1.78402 -14.40359,2.18128 -6.3588,0.37158 -12.67195,1.29424 -14.88371,2.17525 -4.47577,1.78282 -17.3101,2.16597 -18.31091,0.54663 -0.78819,-1.27531 -8.39379,-0.44389 -14.81734,1.61978 -2.37659,0.76352 -7.99399,2.21436 -12.48311,3.22409 -4.48912,1.00973 -11.83495,2.761 -16.32407,3.89172 -11.86155,2.98765 -19.22692,4.83182 -23.04574,5.77026 -1.84846,0.45426 -6.75463,1.74316 -10.9026,2.86424 -6.97749,1.88583 -8.47828,1.96324 -20.05864,1.03464 -6.88429,-0.55203 -16.02162,-0.74183 -20.30518,-0.42177 -9.76643,0.72971 -35.34775,-2.60385 -42.35691,-5.51965 -21.36869,-8.88931 -35.49016,-17.69309 -50.85868,-31.70695 -3.01329,-2.74768 -5.7779,-6.44398 -7.18202,-9.60239 -3.51495,-7.90647 -5.77624,-12.46274 -8.26741,-16.65795 -3.87368,-6.5234 -7.15936,-19.11062 -8.53432,-32.69437 -0.57278,-5.65869 1.91223,-27.40941 4.38298,-38.36333 1.29658,-5.74829 6.38801,-16.28356 10.69157,-22.12314 1.71257,-2.32383 4.40393,-6.29077 5.9808,-8.81543 3.84937,-6.16305 16.11927,-18.9023 21.02293,-21.8271 6.89647,-4.11342 42.5612,-21.36142 47.16774,-22.81105 3.01426,-0.94854 11.37045,-3.02712 18.72467,-4.65768 15.36555,-3.40682 54.07098,-4.86645 71.53782,-2.69777 10.7143,1.33028 66.55907,1.27399 79.69986,-0.0804 5.28132,-0.54432 18.02849,-1.65294 28.32706,-2.46362 25.03342,-1.9706 39.3251,-4.35875 66.33678,-11.08497 12.45525,-3.10149 27.79507,-6.2869 34.0885,-7.07868 21.96457,-2.76335 42.25902,-4.41505 54.17324,-4.40899 6.60165,0.003 15.89196,-0.46389 20.64514,-1.03831 8.83158,-1.06731 26.58636,-1.86012 40.33005,-1.80087 8.13497,0.0351 17.68288,-1.3057 36.4891,-5.12397 15.6038,-3.16809 32.39288,-5.27556 51.3413,-6.44469 13.62815,-0.84086 18.73502,-0.70584 36.96921,0.9774 34.04957,3.14319 42.61521,4.52095 53.31122,8.57499 6.85487,2.59814 7.14856,2.56721 11.85494,-1.24846 11.78439,-9.55411 23.44241,-11.85893 44.33261,-8.76466 22.80696,3.37818 28.659,6.38522 31.26568,16.06572 0.82048,3.047 0.69513,4.88765 -0.62903,9.23697 -4.17261,13.70522 -13.83608,23.64723 -24.91987,25.63817 -4.84127,0.86964 -7.15713,2.90818 -7.15713,6.30008 0,5.90306 11.71029,10.52001 18.45009,7.27422 3.14803,-1.51604 6.9879,-5.70884 9.39169,-10.2549 6.56963,-12.42454 17.41646,-18.22175 34.09365,-18.22175 8.15985,0 15.1497,1.45442 20.63951,4.29458 9.45756,4.89291 17.35328,13.38542 20.24803,21.7785 0.9842,2.85361 0.98272,4.78612 -0.008,10.08251 -0.6739,3.60374 -1.0733,7.84858 -0.88753,9.43298 0.42987,3.66638 2.27219,3.98415 13.95356,2.40668 7.04307,-0.95109 9.8413,-0.94824 13.92347,0.0142 5.45992,1.28733 14.74016,5.60032 19.29328,8.96652 5.5453,4.09989 11.0461,11.95745 13.166,18.80714 2.1769,7.03356 2.078,8.29275 -1.497,19.05123 -1.6165,4.86431 -1.7839,10.39827 -0.3419,11.28955 0.5641,0.34857 3.6969,0.83054 6.9618,1.07105 8.8981,0.65547 15.0285,2.80353 19.9064,6.97518 8.2762,7.07777 12.9172,16.34009 14.0057,27.95159 0.5484,5.85002 0.3591,6.72492 -2.8219,13.04141 -2.9926,5.94256 -4.2403,7.33309 -10.2008,11.36852 -5.5956,3.7884 -6.7911,5.05311 -6.7911,7.18402 0,3.04708 3.4977,6.64165 9.2836,9.54089 11.5175,5.77122 18.6296,12.84229 24.3628,24.22247 4.3789,8.69187 5.5927,16.40981 3.7864,24.07582 -3.1266,13.26965 -13.5582,26.86625 -28.1889,36.74158 -2.7075,1.82755 -7.2994,5.06726 -10.2041,7.19936 -9.5932,7.04153 -16.6434,11.59291 -17.9576,11.59291 -0.5775,0 -3.7951,1.36478 -7.1502,3.03284 -11.57147,5.75314 -30.54186,8.86792 -40.42858,6.63805 -2.50863,-0.56581 -6.53242,-1.45279 -8.94166,-1.97108 -9.82389,-2.11332 -16.58814,-5.07936 -23.36444,-10.24499 -2.32055,-1.76892 -4.99572,-3.21623 -5.94487,-3.21623 -0.94914,0 -1.99278,-0.4321 -2.31918,-0.96024 -0.32641,-0.52813 -3.85442,-0.96024 -7.84004,-0.96024 -7.11006,0 -18.1589,-2.16747 -19.95889,-3.91536 -2.36229,-2.29394 -8.7553,-0.17365 -12.92069,4.28523 -3.66533,3.92358 -8.56893,5.97073 -18.35128,7.6613 -5.00835,0.86553 -11.48268,2.2467 -14.38741,3.06926 -12.0006,3.39832 -26.47905,6.09519 -43.69088,8.1382 -9.21677,1.09401 -9.0193,1.10143 -25.92646,-0.97462 z m 215.09356,-10.61669 c 12.7246,-3.57 20.5849,-7.95001 38.0597,-21.20828 12.937,-9.81544 20.2349,-20.22467 22.9753,-32.77058 2.1762,-9.96307 -2.0619,-21.96917 -11.5834,-32.81425 -11.2429,-12.8057 -22.1518,-19.2984 -34.8848,-20.76262 -11.3606,-1.3064 -19.88236,-1.12469 -28.24288,0.60221 -9.81134,2.02659 -15.2436,4.85311 -25.53555,13.28662 -9.41862,7.71782 -11.2215,11.32893 -15.14035,30.32571 -1.03501,5.01725 -2.33284,10.80099 -2.88406,12.85275 -0.55121,2.05177 -1.0095,9.44179 -1.01839,16.42224 -0.015,11.75741 0.16627,13.05177 2.46192,17.58202 1.36295,2.68965 3.4551,5.57679 4.64921,6.41584 8.98532,6.31364 13.42062,8.37244 22.81627,10.5909 5.56008,1.31282 22.92716,0.99245 28.32703,-0.52256 z m -183.88579,-0.0299 c 11.12349,-1.0256 24.55737,-3.9518 36.96922,-8.0527 3.69692,-1.22148 10.39459,-2.94677 14.8837,-3.83401 5.07982,-1.00397 9.50855,-2.53694 11.72776,-4.05947 5.44427,-3.73513 13.01745,-14.38393 15.2068,-21.38257 0.42268,-1.35119 1.68902,-4.83329 2.8141,-7.73802 2.2873,-5.90538 4.7414,-23.59533 4.79566,-34.56861 0.0436,-8.8169 2.3295,-24.53483 4.20704,-28.92784 0.76166,-1.7821 2.12261,-5.18466 3.02432,-7.56125 0.90173,-2.37659 2.46843,-6.26556 3.48158,-8.64215 2.27113,-5.32755 4.63617,-16.39339 4.65852,-21.79689 0.0191,-4.62991 -5.11311,-31.30056 -7.2139,-37.48828 -3.46847,-10.21613 -9.24112,-19.21032 -20.56996,-32.0494 -4.01535,-4.55064 -9.86772,-11.46437 -13.00526,-15.36383 -11.81143,-14.67974 -15.15005,-17.7591 -26.42652,-24.37426 -9.76939,-5.73106 -18.0288,-12.54824 -33.1127,-27.33067 -24.14172,-23.65921 -26.0436,-24.87074 -43.80645,-27.90568 -43.90928,-7.50229 -77.97471,-6.79418 -115.11315,2.39283 -23.05909,5.70417 -41.51838,8.35177 -61.45531,8.81447 -73.26755,1.70038 -85.19958,2.4405 -104.66608,6.49222 -9.2423,1.92368 -19.72091,4.35073 -23.2858,5.39344 -13.84869,4.0507 -19.74216,5.58695 -27.60688,7.19635 -4.48912,0.91864 -10.601,2.26237 -13.58195,2.98607 -2.98096,0.7237 -7.08598,1.32379 -9.12227,1.3335 -2.03631,0.01 -12.56057,1.32286 -23.38726,2.91806 -17.89078,2.63604 -48.75369,4.98626 -67.69687,5.15514 -3.69692,0.0329 -9.96248,-0.69804 -13.92347,-1.62443 -17.57971,-4.11153 -69.76988,-5.59377 -83.30076,-2.36581 -3.82895,0.91344 -10.09451,2.34686 -13.92347,3.18537 -3.82895,0.83852 -9.98649,3.17985 -13.68341,5.20296 -3.69692,2.02311 -11.88645,6.35349 -18.19896,9.62307 -18.67552,9.67302 -33.90607,22.70971 -39.55503,33.8574 -1.36904,2.70167 -4.61023,7.71401 -7.20266,11.13852 -2.59242,3.42451 -4.89659,7.11848 -5.1204,8.20884 -0.22379,1.09035 -1.10656,5.63262 -1.96169,10.09391 -0.85514,4.4613 -1.95648,8.862 -2.44742,9.77933 -1.57424,2.9415 -0.95858,12.2265 1.44453,21.78514 1.28543,5.11296 2.63968,12.45029 3.00943,16.30519 0.79641,8.30276 1.8591,10.09786 14.47547,24.4517 8.99506,10.23382 19.32919,19.12815 28.15613,24.23327 2.73948,1.5844 6.78451,4.06115 8.98895,5.5039 2.20443,1.44275 4.56542,2.63105 5.24662,2.64066 0.6812,0.01 2.89956,0.86486 4.92969,1.90055 2.03011,1.03569 10.33097,3.05458 18.44635,4.48642 13.00117,2.29388 17.20943,2.60297 35.40036,2.60011 11.7027,-0.002 22.51681,-0.45953 24.96622,-1.05667 12.76271,-3.11139 30.5154,-8.85597 39.84993,-12.895 12.61313,-5.45768 23.04154,-10.53328 26.54487,-12.91962 1.92452,-1.31091 5.59744,-2.97656 8.16204,-3.70143 7.5059,-2.12152 12.39192,-4.09253 15.9754,-6.44443 1.8436,-1.21 4.58963,-2.95898 6.10226,-3.88663 1.51265,-0.92766 5.99107,-3.82642 9.95206,-6.4417 18.54434,-12.24406 29.35813,-15.2236 40.33005,-11.1122 2.37659,0.89056 6.80456,2.28805 9.83993,3.10555 6.5681,1.76895 9.67185,0.88027 14.78556,-4.23344 3.04027,-3.04026 3.35302,-3.14028 5.85726,-1.87309 7.43477,3.76212 14.86982,4.12107 24.82225,1.19835 11.28182,-3.31312 15.65845,-4.28727 21.69328,-4.82854 5.933,-0.53213 10.78161,-1.82581 21.83988,-5.82719 4.89974,-1.77295 10.64494,-1.20004 12.84857,1.28126 0.78664,0.88575 2.09202,3.21323 2.90086,5.17215 1.22974,2.97834 2.54291,4.06091 8.01759,6.60965 6.0166,2.80102 7.44385,3.06612 17.61743,3.27218 8.70212,0.17626 11.88621,0.62456 14.88371,2.09555 2.0973,1.02924 6.94013,2.8862 10.76185,4.12658 l 6.94856,2.25526 8.32762,-3.71065 c 10.71027,-4.77231 13.963,-4.82041 18.13482,-0.26816 2.72438,2.97281 3.23497,4.34187 3.74235,10.0345 1.127,12.64447 2.53412,20.05228 4.26174,22.43596 0.96637,1.33337 3.62285,2.96871 5.9754,3.67848 8.2524,2.48977 9.49815,3.29637 12.81969,8.3005 4.46634,6.72881 7.6361,8.05262 12.87805,5.37837 2.14919,-1.09643 4.5672,-1.99352 5.37335,-1.99352 2.17709,0 4.01885,5.09584 6.82755,18.89072 1.37786,6.76738 13.73678,15.00459 25.58694,17.05369 2.77964,0.48064 4.77157,1.95666 9.12227,6.75953 10.45386,11.54037 17.66749,15.83845 37.86696,22.56219 6.15492,2.04876 13.04797,5.36395 15.34865,7.38187 3.25382,2.85392 12.22393,5.29469 23.88832,6.50001 15.84876,1.63772 19.56933,1.69326 32.64813,0.48737 z m 109.60823,-38.03769 c 0.86973,-0.76225 2.05751,-3.27702 2.63951,-5.58837 1.75689,-6.97726 -1.22521,-11.54548 -5.55643,-8.51177 -4.26016,2.98394 -6.22463,10.49478 -3.88723,14.86225 1.11619,2.0856 3.9123,1.77241 6.80415,-0.76211 z M 1038.2239,438.3759 c 6.864,-3.16193 9.8191,-13.63643 6.6828,-23.6879 -3.655,-11.71419 -10.5377,-17.2381 -20.3678,-16.34674 -7.5657,0.68604 -11.4259,2.78595 -15.1369,8.23445 -8.1231,11.92629 -7.7492,25.03074 0.8411,29.47291 7.5765,3.91796 21.9353,5.11224 27.9808,2.32728 z m -52.5383,-43.52358 c 8.90017,-2.38517 18.358,-7.88548 22.441,-13.05092 4.6708,-5.90897 7.3375,-13.87023 6.4678,-19.30897 -1.4746,-9.22154 -10.3493,-20.14222 -20.74676,-25.5296 -4.82376,-2.49941 -6.15475,-2.73648 -15.36383,-2.73648 -9.21369,0 -10.53767,0.23612 -15.36383,2.74001 -17.6474,9.15565 -22.85722,26.93405 -13.40727,45.75207 4.94231,9.84182 10.9602,13.34369 23.00966,13.38952 4.48912,0.0171 10.32258,-0.54797 12.96323,-1.25563 z m -60.49507,-51.84563 c 15.56175,-4.14676 29.2873,-18.02519 29.2873,-29.61351 0,-6.27788 -4.18709,-13.63295 -10.53319,-18.50274 -7.0709,-5.42595 -10.03621,-6.85809 -16.78205,-8.10513 -11.36112,-2.10022 -27.71012,3.46034 -31.84448,10.83082 -4.85872,8.66185 -6.23842,27.57626 -2.5347,34.74871 4.80793,9.31085 19.40889,14.1055 32.40712,10.64185 z m -61.62741,-53.50072 c 7.08277,-1.96678 14.85047,-11.46587 16.48032,-20.15374 1.32562,-7.06617 -6.45275,-13.55447 -18.30281,-15.26724 -11.82573,-1.70925 -19.09588,-1.29213 -24.40944,1.40045 -5.42899,2.75107 -6.72423,4.63627 -6.72423,9.78696 0,7.89677 3.90352,14.70153 11.42252,19.9122 7.24215,5.01882 14.08019,6.39107 21.53364,4.32137 z"
       id="path58"
       inkscape:connector-curvature="0" />
  </g>
</svg>
