  0
SECTION
  2
HEADER
  9
$ACADVER
  1
AC1014
  9
$HANDSEED
  5
FFFF
  9
$MEASUREMENT
 70
     1
  0
ENDSEC
  0
SECTION
  2
TABLES
  0
TABLE
  2
VPORT
  5
8
330
0
100
AcDbSymbolTable
 70
     4
  0
VPORT
  5
2E
330
8
100
AcDbSymbolTableRecord
100
AcDbViewportTableRecord
  2
*ACTIVE
 70
     0
 10
0.0
 20
0.0
 11
1.0
 21
1.0
 12
210.0
 22
148.5
 13
0.0
 23
0.0
 14
10.0
 24
10.0
 15
10.0
 25
10.0
 16
0.0
 26
0.0
 36
1.0
 17
0.0
 27
0.0
 37
0.0
 40
341.0
 41
1.24
 42
50.0
 43
0.0
 44
0.0
 50
0.0
 51
0.0
 71
     0
 72
   100
 73
     1
 74
     3
 75
     0
 76
     0
 77
     0
 78
     0
  0
ENDTAB
  0
TABLE
  2
LTYPE
  5
5
330
0
100
AcDbSymbolTable
 70
     1
  0
LTYPE
  5
14
330
5
100
AcDbSymbolTableRecord
100
AcDbLinetypeTableRecord
  2
BYBLOCK
 70
     0
  3

 72
    65
 73
     0
 40
0.0
  0
LTYPE
  5
15
330
5
100
AcDbSymbolTableRecord
100
AcDbLinetypeTableRecord
  2
BYLAYER
 70
     0
  3

 72
    65
 73
     0
 40
0.0
  0
LTYPE
  5
16
330
5
100
AcDbSymbolTableRecord
100
AcDbLinetypeTableRecord
  2
CONTINUOUS
 70
     0
  3
Solid line
 72
    65
 73
     0
 40
0.0
  0
ENDTAB
  0
TABLE
  2
LAYER
  5
2
100
AcDbSymbolTable
 70
1
  0
LAYER
  5
50
100
AcDbSymbolTableRecord
100
AcDbLayerTableRecord
  2
0
 70
0
  6
CONTINUOUS
  0
ENDTAB
  0
TABLE
  2
STYLE
  5
3
330
0
100
AcDbSymbolTable
 70
     1
  0
STYLE
  5
11
330
3
100
AcDbSymbolTableRecord
100
AcDbTextStyleTableRecord
  2
STANDARD
 70
     0
 40
0.0
 41
1.0
 50
0.0
 71
     0
 42
2.5
  3
txt
  4

  0
ENDTAB
  0
TABLE
  2
VIEW
  5
6
330
0
100
AcDbSymbolTable
 70
     0
  0
ENDTAB
  0
TABLE
  2
UCS
  5
7
330
0
100
AcDbSymbolTable
 70
     0
  0
ENDTAB
  0
TABLE
  2
APPID
  5
9
330
0
100
AcDbSymbolTable
 70
     2
  0
APPID
  5
12
330
9
100
AcDbSymbolTableRecord
100
AcDbRegAppTableRecord
  2
ACAD
 70
     0
  0
ENDTAB
  0
TABLE
  2
DIMSTYLE
  5
A
330
0
100
AcDbSymbolTable
 70
     1
  0
DIMSTYLE
105
27
330
A
100
AcDbSymbolTableRecord
100
AcDbDimStyleTableRecord
  2
ISO-25
 70
     0
  3

  4

  5

  6

  7

 40
1.0
 41
2.5
 42
0.625
 43
3.75
 44
1.25
 45
0.0
 46
0.0
 47
0.0
 48
0.0
140
2.5
141
2.5
142
0.0
143
0.03937007874016
144
1.0
145
0.0
146
1.0
147
0.625
 71
     0
 72
     0
 73
     0
 74
     0
 75
     0
 76
     0
 77
     1
 78
     8
170
     0
171
     3
172
     1
173
     0
174
     0
175
     0
176
     0
177
     0
178
     0
270
     2
271
     2
272
     2
273
     2
274
     3
340
11
275
     0
280
     0
281
     0
282
     0
283
     0
284
     8
285
     0
286
     0
287
     3
288
     0
  0
ENDTAB
  0
TABLE
  2
BLOCK_RECORD
  5
1
330
0
100
AcDbSymbolTable
 70
     1
  0
BLOCK_RECORD
  5
1F
330
1
100
AcDbSymbolTableRecord
100
AcDbBlockTableRecord
  2
*MODEL_SPACE
  0
BLOCK_RECORD
  5
1B
330
1
100
AcDbSymbolTableRecord
100
AcDbBlockTableRecord
  2
*PAPER_SPACE
  0
ENDTAB
  0
ENDSEC
  0
SECTION
  2
BLOCKS
  0
BLOCK
  5
20
330
1F
100
AcDbEntity
  8
0
100
AcDbBlockBegin
  2
*MODEL_SPACE
 70
     0
 10
0.0
 20
0.0
 30
0.0
  3
*MODEL_SPACE
  1

  0
ENDBLK
  5
21
330
1F
100
AcDbEntity
  8
0
100
AcDbBlockEnd
  0
BLOCK
  5
1C
330
1B
100
AcDbEntity
 67
     1
  8
0
100
AcDbBlockBegin
  2
*PAPER_SPACE
  1

  0
ENDBLK
  5
1D
330
1B
100
AcDbEntity
 67
     1
  8
0
100
AcDbBlockEnd
  0
ENDSEC
  0
SECTION
  2
ENTITIES
  0
SPLINE
  5
100
100
AcDbEntity
  8
0
 62
7
100
AcDbSpline
 70
8
 71
3
 72
8
 73
4
 74
0
 40
0
 40
0
 40
0
 40
0
 40
1
 40
1
 40
1
 40
1
 10
207.315657
 20
56.145112
 30
0.0
 10
204.744891
 20
56.476254
 30
0.0
 10
202.996180
 20
56.855457
 30
0.0
 10
201.528402
 20
57.400062
 30
0.0
  0
SPLINE
  5
101
100
AcDbEntity
  8
0
 62
7
100
AcDbSpline
 70
8
 71
3
 72
8
 73
4
 74
0
 40
0
 40
0
 40
0
 40
0
 40
1
 40
1
 40
1
 40
1
 10
201.528402
 20
57.400062
 30
0.0
 10
200.371566
 20
57.829296
 30
0.0
 10
199.182050
 20
58.180482
 30
0.0
 10
198.885034
 20
58.180482
 30
0.0
  0
SPLINE
  5
102
100
AcDbEntity
  8
0
 62
7
100
AcDbSpline
 70
8
 71
3
 72
8
 73
4
 74
0
 40
0
 40
0
 40
0
 40
0
 40
1
 40
1
 40
1
 40
1
 10
198.885034
 20
58.180482
 30
0.0
 10
198.588018
 20
58.180482
 30
0.0
 10
197.362278
 20
58.461462
 30
0.0
 10
196.161167
 20
58.804883
 30
0.0
  0
SPLINE
  5
103
100
AcDbEntity
  8
0
 62
7
100
AcDbSpline
 70
8
 71
3
 72
8
 73
4
 74
0
 40
0
 40
0
 40
0
 40
0
 40
1
 40
1
 40
1
 40
1
 10
196.161167
 20
58.804883
 30
0.0
 10
194.960059
 20
59.148304
 30
0.0
 10
193.564287
 20
59.493525
 30
0.0
 10
193.059454
 20
59.572048
 30
0.0
  0
SPLINE
  5
104
100
AcDbEntity
  8
0
 62
7
100
AcDbSpline
 70
8
 71
3
 72
8
 73
4
 74
0
 40
0
 40
0
 40
0
 40
0
 40
1
 40
1
 40
1
 40
1
 10
193.059454
 20
59.572048
 30
0.0
 10
192.297033
 20
59.690631
 30
0.0
 10
188.649300
 20
61.350953
 30
0.0
 10
187.244656
 20
62.218744
 30
0.0
  0
SPLINE
  5
105
100
AcDbEntity
  8
0
 62
7
100
AcDbSpline
 70
8
 71
3
 72
8
 73
4
 74
0
 40
0
 40
0
 40
0
 40
0
 40
1
 40
1
 40
1
 40
1
 10
187.244656
 20
62.218744
 30
0.0
 10
187.035053
 20
62.348233
 30
0.0
 10
185.834604
 20
62.929192
 30
0.0
 10
184.576992
 20
63.509765
 30
0.0
  0
SPLINE
  5
106
100
AcDbEntity
  8
0
 62
7
100
AcDbSpline
 70
8
 71
3
 72
8
 73
4
 74
0
 40
0
 40
0
 40
0
 40
0
 40
1
 40
1
 40
1
 40
1
 10
184.576992
 20
63.509765
 30
0.0
 10
183.319377
 20
64.090335
 30
0.0
 10
182.004599
 20
64.832861
 30
0.0
 10
181.655262
 20
65.159823
 30
0.0
  0
SPLINE
  5
107
100
AcDbEntity
  8
0
 62
7
100
AcDbSpline
 70
8
 71
3
 72
8
 73
4
 74
0
 40
0
 40
0
 40
0
 40
0
 40
1
 40
1
 40
1
 40
1
 10
181.655262
 20
65.159823
 30
0.0
 10
180.792252
 20
65.967564
 30
0.0
 10
178.390065
 20
67.230227
 30
0.0
 10
177.043241
 20
67.584041
 30
0.0
  0
SPLINE
  5
108
100
AcDbEntity
  8
0
 62
7
100
AcDbSpline
 70
8
 71
3
 72
8
 73
4
 74
0
 40
0
 40
0
 40
0
 40
0
 40
1
 40
1
 40
1
 40
1
 10
177.043241
 20
67.584041
 30
0.0
 10
175.920632
 20
67.878956
 30
0.0
 10
168.686715
 20
71.527436
 30
0.0
 10
168.431339
 20
71.927518
 30
0.0
  0
SPLINE
  5
109
100
AcDbEntity
  8
0
 62
7
100
AcDbSpline
 70
8
 71
3
 72
8
 73
4
 74
0
 40
0
 40
0
 40
0
 40
0
 40
1
 40
1
 40
1
 40
1
 10
168.431339
 20
71.927518
 30
0.0
 10
168.354525
 20
72.047858
 30
0.0
 10
167.665984
 20
72.361591
 30
0.0
 10
166.901251
 20
72.624695
 30
0.0
  0
SPLINE
  5
10a
100
AcDbEntity
  8
0
 62
7
100
AcDbSpline
 70
8
 71
3
 72
8
 73
4
 74
0
 40
0
 40
0
 40
0
 40
0
 40
1
 40
1
 40
1
 40
1
 10
166.901251
 20
72.624695
 30
0.0
 10
164.491143
 20
73.453897
 30
0.0
 10
162.782329
 20
74.461605
 30
0.0
 10
161.018254
 20
76.093975
 30
0.0
  0
SPLINE
  5
10b
100
AcDbEntity
  8
0
 62
7
100
AcDbSpline
 70
8
 71
3
 72
8
 73
4
 74
0
 40
0
 40
0
 40
0
 40
0
 40
1
 40
1
 40
1
 40
1
 10
161.018254
 20
76.093975
 30
0.0
 10
159.883776
 20
77.143755
 30
0.0
 10
158.859886
 20
77.837087
 30
0.0
 10
157.973582
 20
78.155691
 30
0.0
  0
SPLINE
  5
10c
100
AcDbEntity
  8
0
 62
7
100
AcDbSpline
 70
8
 71
3
 72
8
 73
4
 74
0
 40
0
 40
0
 40
0
 40
0
 40
1
 40
1
 40
1
 40
1
 10
157.973582
 20
78.155691
 30
0.0
 10
156.898919
 20
78.542006
 30
0.0
 10
156.528912
 20
78.833826
 30
0.0
 10
156.078412
 20
79.650406
 30
0.0
  0
SPLINE
  5
10d
100
AcDbEntity
  8
0
 62
7
100
AcDbSpline
 70
8
 71
3
 72
8
 73
4
 74
0
 40
0
 40
0
 40
0
 40
0
 40
1
 40
1
 40
1
 40
1
 10
156.078412
 20
79.650406
 30
0.0
 10
155.345013
 20
80.979766
 30
0.0
 10
154.294585
 20
82.139165
 30
0.0
 10
153.071681
 20
82.969051
 30
0.0
  0
SPLINE
  5
10e
100
AcDbEntity
  8
0
 62
7
100
AcDbSpline
 70
8
 71
3
 72
8
 73
4
 74
0
 40
0
 40
0
 40
0
 40
0
 40
1
 40
1
 40
1
 40
1
 10
153.071681
 20
82.969051
 30
0.0
 10
152.101602
 20
83.627361
 30
0.0
 10
152.047011
 20
83.634444
 30
0.0
 10
150.217203
 20
83.339262
 30
0.0
  0
SPLINE
  5
10f
100
AcDbEntity
  8
0
 62
7
100
AcDbSpline
 70
8
 71
3
 72
8
 73
4
 74
0
 40
0
 40
0
 40
0
 40
0
 40
1
 40
1
 40
1
 40
1
 10
150.217203
 20
83.339262
 30
0.0
 10
147.946358
 20
82.972936
 30
0.0
 10
144.532461
 20
83.331404
 30
0.0
 10
142.021388
 20
84.199832
 30
0.0
  0
SPLINE
  5
110
100
AcDbEntity
  8
0
 62
7
100
AcDbSpline
 70
8
 71
3
 72
8
 73
4
 74
0
 40
0
 40
0
 40
0
 40
0
 40
1
 40
1
 40
1
 40
1
 10
142.021388
 20
84.199832
 30
0.0
 10
139.997738
 20
84.899692
 30
0.0
 10
138.966826
 20
84.765316
 30
0.0
 10
136.559705
 20
83.487921
 30
0.0
  0
SPLINE
  5
111
100
AcDbEntity
  8
0
 62
7
100
AcDbSpline
 70
8
 71
3
 72
8
 73
4
 74
0
 40
0
 40
0
 40
0
 40
0
 40
1
 40
1
 40
1
 40
1
 10
136.559705
 20
83.487921
 30
0.0
 10
135.183885
 20
82.757808
 30
0.0
 10
134.760705
 20
82.638992
 30
0.0
 10
134.240513
 20
82.836768
 30
0.0
  0
SPLINE
  5
112
100
AcDbEntity
  8
0
 62
7
100
AcDbSpline
 70
8
 71
3
 72
8
 73
4
 74
0
 40
0
 40
0
 40
0
 40
0
 40
1
 40
1
 40
1
 40
1
 10
134.240513
 20
82.836768
 30
0.0
 10
133.890551
 20
82.969824
 30
0.0
 10
133.068602
 20
83.080645
 30
0.0
 10
132.413957
 20
83.083042
 30
0.0
  0
SPLINE
  5
113
100
AcDbEntity
  8
0
 62
7
100
AcDbSpline
 70
8
 71
3
 72
8
 73
4
 74
0
 40
0
 40
0
 40
0
 40
0
 40
1
 40
1
 40
1
 40
1
 10
132.413957
 20
83.083042
 30
0.0
 10
131.759317
 20
83.085423
 30
0.0
 10
130.366232
 20
83.312134
 30
0.0
 10
129.318223
 20
83.586814
 30
0.0
  0
SPLINE
  5
114
100
AcDbEntity
  8
0
 62
7
100
AcDbSpline
 70
8
 71
3
 72
8
 73
4
 74
0
 40
0
 40
0
 40
0
 40
0
 40
1
 40
1
 40
1
 40
1
 10
129.318223
 20
83.586814
 30
0.0
 10
126.685952
 20
84.276723
 30
0.0
 10
124.476293
 20
84.236080
 30
0.0
 10
121.763678
 20
83.447863
 30
0.0
  0
SPLINE
  5
115
100
AcDbEntity
  8
0
 62
7
100
AcDbSpline
 70
8
 71
3
 72
8
 73
4
 74
0
 40
0
 40
0
 40
0
 40
0
 40
1
 40
1
 40
1
 40
1
 10
121.763678
 20
83.447863
 30
0.0
 10
120.538888
 20
83.091966
 30
0.0
 10
119.022307
 20
82.739901
 30
0.0
 10
118.393501
 20
82.665492
 30
0.0
  0
SPLINE
  5
116
100
AcDbEntity
  8
0
 62
7
100
AcDbSpline
 70
8
 71
3
 72
8
 73
4
 74
0
 40
0
 40
0
 40
0
 40
0
 40
1
 40
1
 40
1
 40
1
 10
118.393501
 20
82.665492
 30
0.0
 10
117.764692
 20
82.591084
 30
0.0
 10
116.998935
 20
82.408823
 30
0.0
 10
116.691812
 20
82.260471
 30
0.0
  0
SPLINE
  5
117
100
AcDbEntity
  8
0
 62
7
100
AcDbSpline
 70
8
 71
3
 72
8
 73
4
 74
0
 40
0
 40
0
 40
0
 40
0
 40
1
 40
1
 40
1
 40
1
 10
116.691812
 20
82.260471
 30
0.0
 10
115.882970
 20
81.869771
 30
0.0
 10
112.850234
 20
82.159093
 30
0.0
 10
112.471533
 20
82.663082
 30
0.0
  0
SPLINE
  5
118
100
AcDbEntity
  8
0
 62
7
100
AcDbSpline
 70
8
 71
3
 72
8
 73
4
 74
0
 40
0
 40
0
 40
0
 40
0
 40
1
 40
1
 40
1
 40
1
 10
112.471533
 20
82.663082
 30
0.0
 10
112.252670
 20
82.954356
 30
0.0
 10
111.712028
 20
83.070860
 30
0.0
 10
110.517537
 20
83.084148
 30
0.0
  0
SPLINE
  5
119
100
AcDbEntity
  8
0
 62
7
100
AcDbSpline
 70
8
 71
3
 72
8
 73
4
 74
0
 40
0
 40
0
 40
0
 40
0
 40
1
 40
1
 40
1
 40
1
 10
110.517537
 20
83.084148
 30
0.0
 10
108.809745
 20
83.103145
 30
0.0
 10
108.137886
 20
82.965813
 30
0.0
 10
105.581503
 20
82.075175
 30
0.0
  0
SPLINE
  5
11a
100
AcDbEntity
  8
0
 62
7
100
AcDbSpline
 70
8
 71
3
 72
8
 73
4
 74
0
 40
0
 40
0
 40
0
 40
0
 40
1
 40
1
 40
1
 40
1
 10
105.581503
 20
82.075175
 30
0.0
 10
104.391618
 20
81.660626
 30
0.0
 10
103.688501
 20
81.578237
 30
0.0
 10
102.233330
 20
81.682854
 30
0.0
  0
SPLINE
  5
11b
100
AcDbEntity
  8
0
 62
7
100
AcDbSpline
 70
8
 71
3
 72
8
 73
4
 74
0
 40
0
 40
0
 40
0
 40
0
 40
1
 40
1
 40
1
 40
1
 10
102.233330
 20
81.682854
 30
0.0
 10
100.762712
 20
81.788581
 30
0.0
 10
100.129673
 20
81.712140
 30
0.0
 10
99.093454
 20
81.303700
 30
0.0
  0
SPLINE
  5
11c
100
AcDbEntity
  8
0
 62
7
100
AcDbSpline
 70
8
 71
3
 72
8
 73
4
 74
0
 40
0
 40
0
 40
0
 40
0
 40
1
 40
1
 40
1
 40
1
 10
99.093454
 20
81.303700
 30
0.0
 10
97.703957
 20
80.756010
 30
0.0
 10
93.575817
 20
80.565391
 30
0.0
 10
93.101498
 20
81.027020
 30
0.0
  0
SPLINE
  5
11d
100
AcDbEntity
  8
0
 62
7
100
AcDbSpline
 70
8
 71
3
 72
8
 73
4
 74
0
 40
0
 40
0
 40
0
 40
0
 40
1
 40
1
 40
1
 40
1
 10
93.101498
 20
81.027020
 30
0.0
 10
92.835351
 20
81.286042
 30
0.0
 10
91.964359
 20
81.142365
 30
0.0
 10
88.668092
 20
80.295696
 30
0.0
  0
SPLINE
  5
11e
100
AcDbEntity
  8
0
 62
7
100
AcDbSpline
 70
8
 71
3
 72
8
 73
4
 74
0
 40
0
 40
0
 40
0
 40
0
 40
1
 40
1
 40
1
 40
1
 10
88.668092
 20
80.295696
 30
0.0
 10
84.207688
 20
79.150011
 30
0.0
 10
80.844456
 20
78.308453
 30
0.0
 10
78.505560
 20
77.752804
 30
0.0
  0
SPLINE
  5
11f
100
AcDbEntity
  8
0
 62
7
100
AcDbSpline
 70
8
 71
3
 72
8
 73
4
 74
0
 40
0
 40
0
 40
0
 40
0
 40
1
 40
1
 40
1
 40
1
 10
78.505560
 20
77.752804
 30
0.0
 10
77.178080
 20
77.437434
 30
0.0
 10
75.074703
 20
76.890506
 30
0.0
 10
73.831389
 20
76.537406
 30
0.0
  0
SPLINE
  5
120
100
AcDbEntity
  8
0
 62
7
100
AcDbSpline
 70
8
 71
3
 72
8
 73
4
 74
0
 40
0
 40
0
 40
0
 40
0
 40
1
 40
1
 40
1
 40
1
 10
73.831389
 20
76.537406
 30
0.0
 10
71.644338
 20
75.916286
 30
0.0
 10
71.450160
 20
75.903523
 30
0.0
 10
67.860899
 20
76.144913
 30
0.0
  0
SPLINE
  5
121
100
AcDbEntity
  8
0
 62
7
100
AcDbSpline
 70
8
 71
3
 72
8
 73
4
 74
0
 40
0
 40
0
 40
0
 40
0
 40
1
 40
1
 40
1
 40
1
 10
67.860899
 20
76.144913
 30
0.0
 10
65.820446
 20
76.282142
 30
0.0
 10
63.176364
 20
76.344268
 30
0.0
 10
61.985160
 20
76.282978
 30
0.0
  0
SPLINE
  5
122
100
AcDbEntity
  8
0
 62
7
100
AcDbSpline
 70
8
 71
3
 72
8
 73
4
 74
0
 40
0
 40
0
 40
0
 40
0
 40
1
 40
1
 40
1
 40
1
 10
61.985160
 20
76.282978
 30
0.0
 10
59.059551
 20
76.132440
 30
0.0
 10
52.770886
 20
77.027507
 30
0.0
 10
50.560250
 20
77.909080
 30
0.0
  0
SPLINE
  5
123
100
AcDbEntity
  8
0
 62
7
100
AcDbSpline
 70
8
 71
3
 72
8
 73
4
 74
0
 40
0
 40
0
 40
0
 40
0
 40
1
 40
1
 40
1
 40
1
 10
50.560250
 20
77.909080
 30
0.0
 10
45.760629
 20
79.823108
 30
0.0
 10
41.446823
 20
82.551796
 30
0.0
 10
37.431056
 20
86.213917
 30
0.0
  0
SPLINE
  5
124
100
AcDbEntity
  8
0
 62
7
100
AcDbSpline
 70
8
 71
3
 72
8
 73
4
 74
0
 40
0
 40
0
 40
0
 40
0
 40
1
 40
1
 40
1
 40
1
 10
37.431056
 20
86.213917
 30
0.0
 10
36.325286
 20
87.222311
 30
0.0
 10
35.757834
 20
88.091231
 30
0.0
 10
34.278660
 20
91.041121
 30
0.0
  0
SPLINE
  5
125
100
AcDbEntity
  8
0
 62
7
100
AcDbSpline
 70
8
 71
3
 72
8
 73
4
 74
0
 40
0
 40
0
 40
0
 40
0
 40
1
 40
1
 40
1
 40
1
 10
34.278660
 20
91.041121
 30
0.0
 10
32.183999
 20
95.218455
 30
0.0
 10
31.863279
 20
96.037785
 30
0.0
 10
31.379335
 20
98.447925
 30
0.0
  0
SPLINE
  5
126
100
AcDbEntity
  8
0
 62
7
100
AcDbSpline
 70
8
 71
3
 72
8
 73
4
 74
0
 40
0
 40
0
 40
0
 40
0
 40
1
 40
1
 40
1
 40
1
 10
31.379335
 20
98.447925
 30
0.0
 10
30.667283
 20
101.994064
 30
0.0
 10
30.658895
 20
104.000632
 30
0.0
 10
31.336835
 20
108.615222
 30
0.0
  0
SPLINE
  5
127
100
AcDbEntity
  8
0
 62
7
100
AcDbSpline
 70
8
 71
3
 72
8
 73
4
 74
0
 40
0
 40
0
 40
0
 40
0
 40
1
 40
1
 40
1
 40
1
 10
31.336835
 20
108.615222
 30
0.0
 10
32.108299
 20
113.866447
 30
0.0
 10
32.694999
 20
115.497035
 30
0.0
 10
34.920936
 20
118.576319
 30
0.0
  0
SPLINE
  5
128
100
AcDbEntity
  8
0
 62
7
100
AcDbSpline
 70
8
 71
3
 72
8
 73
4
 74
0
 40
0
 40
0
 40
0
 40
0
 40
1
 40
1
 40
1
 40
1
 10
34.920936
 20
118.576319
 30
0.0
 10
35.347161
 20
119.165951
 30
0.0
 10
36.036723
 20
120.194908
 30
0.0
 10
36.453289
 20
120.862891
 30
0.0
  0
SPLINE
  5
129
100
AcDbEntity
  8
0
 62
7
100
AcDbSpline
 70
8
 71
3
 72
8
 73
4
 74
0
 40
0
 40
0
 40
0
 40
0
 40
1
 40
1
 40
1
 40
1
 10
36.453289
 20
120.862891
 30
0.0
 10
37.460129
 20
122.477397
 30
0.0
 10
40.965710
 20
126.112237
 30
0.0
 10
42.273609
 20
126.897819
 30
0.0
  0
SPLINE
  5
12a
100
AcDbEntity
  8
0
 62
7
100
AcDbSpline
 70
8
 71
3
 72
8
 73
4
 74
0
 40
0
 40
0
 40
0
 40
0
 40
1
 40
1
 40
1
 40
1
 10
42.273609
 20
126.897819
 30
0.0
 10
43.436476
 20
127.596290
 30
0.0
 10
47.031262
 20
129.372137
 30
0.0
 10
51.828914
 20
131.618200
 30
0.0
  0
SPLINE
  5
12b
100
AcDbEntity
  8
0
 62
7
100
AcDbSpline
 70
8
 71
3
 72
8
 73
4
 74
0
 40
0
 40
0
 40
0
 40
0
 40
1
 40
1
 40
1
 40
1
 10
51.828914
 20
131.618200
 30
0.0
 10
55.612165
 20
133.389361
 30
0.0
 10
58.885323
 20
134.238277
 30
0.0
 10
64.020753
 20
134.780231
 30
0.0
  0
SPLINE
  5
12c
100
AcDbEntity
  8
0
 62
7
100
AcDbSpline
 70
8
 71
3
 72
8
 73
4
 74
0
 40
0
 40
0
 40
0
 40
0
 40
1
 40
1
 40
1
 40
1
 10
64.020753
 20
134.780231
 30
0.0
 10
68.256076
 20
135.227196
 30
0.0
 10
76.134240
 20
135.276888
 30
0.0
 10
79.394783
 20
134.877203
 30
0.0
  0
SPLINE
  5
12d
100
AcDbEntity
  8
0
 62
7
100
AcDbSpline
 70
8
 71
3
 72
8
 73
4
 74
0
 40
0
 40
0
 40
0
 40
0
 40
1
 40
1
 40
1
 40
1
 10
79.394783
 20
134.877203
 30
0.0
 10
82.222840
 20
134.530530
 30
0.0
 10
96.015617
 20
134.544056
 30
0.0
 10
99.465783
 20
134.896888
 30
0.0
  0
SPLINE
  5
12e
100
AcDbEntity
  8
0
 62
7
100
AcDbSpline
 70
8
 71
3
 72
8
 73
4
 74
0
 40
0
 40
0
 40
0
 40
0
 40
1
 40
1
 40
1
 40
1
 10
99.465783
 20
134.896888
 30
0.0
 10
100.863132
 20
135.039787
 30
0.0
 10
104.235821
 20
135.332199
 30
0.0
 10
106.960651
 20
135.546691
 30
0.0
  0
SPLINE
  5
12f
100
AcDbEntity
  8
0
 62
7
100
AcDbSpline
 70
8
 71
3
 72
8
 73
4
 74
0
 40
0
 40
0
 40
0
 40
0
 40
1
 40
1
 40
1
 40
1
 10
106.960651
 20
135.546691
 30
0.0
 10
113.584077
 20
136.068077
 30
0.0
 10
117.365417
 20
136.699944
 30
0.0
 10
124.512260
 20
138.479587
 30
0.0
  0
SPLINE
  5
130
100
AcDbEntity
  8
0
 62
7
100
AcDbSpline
 70
8
 71
3
 72
8
 73
4
 74
0
 40
0
 40
0
 40
0
 40
0
 40
1
 40
1
 40
1
 40
1
 10
124.512260
 20
138.479587
 30
0.0
 10
127.807709
 20
139.300192
 30
0.0
 10
131.866370
 20
140.142999
 30
0.0
 10
133.531506
 20
140.352490
 30
0.0
  0
SPLINE
  5
131
100
AcDbEntity
  8
0
 62
7
100
AcDbSpline
 70
8
 71
3
 72
8
 73
4
 74
0
 40
0
 40
0
 40
0
 40
0
 40
1
 40
1
 40
1
 40
1
 10
133.531506
 20
140.352490
 30
0.0
 10
139.343910
 20
141.083746
 30
0.0
 10
144.712729
 20
141.520636
 30
0.0
 10
147.864843
 20
141.518880
 30
0.0
  0
SPLINE
  5
132
100
AcDbEntity
  8
0
 62
7
100
AcDbSpline
 70
8
 71
3
 72
8
 73
4
 74
0
 40
0
 40
0
 40
0
 40
0
 40
1
 40
1
 40
1
 40
1
 10
147.864843
 20
141.518880
 30
0.0
 10
149.611529
 20
141.517821
 30
0.0
 10
152.012427
 20
141.644768
 30
0.0
 10
153.200174
 20
141.800793
 30
0.0
  0
SPLINE
  5
133
100
AcDbEntity
  8
0
 62
7
100
AcDbSpline
 70
8
 71
3
 72
8
 73
4
 74
0
 40
0
 40
0
 40
0
 40
0
 40
1
 40
1
 40
1
 40
1
 10
153.200174
 20
141.800793
 30
0.0
 10
154.387917
 20
141.956821
 30
0.0
 10
156.674489
 20
142.122230
 30
0.0
 10
158.281438
 20
142.168371
 30
0.0
  0
SPLINE
  5
134
100
AcDbEntity
  8
0
 62
7
100
AcDbSpline
 70
8
 71
3
 72
8
 73
4
 74
0
 40
0
 40
0
 40
0
 40
0
 40
1
 40
1
 40
1
 40
1
 10
158.281438
 20
142.168371
 30
0.0
 10
159.888390
 20
142.214512
 30
0.0
 10
162.746602
 20
142.299901
 30
0.0
 10
164.633020
 20
142.358125
 30
0.0
  0
SPLINE
  5
135
100
AcDbEntity
  8
0
 62
7
100
AcDbSpline
 70
8
 71
3
 72
8
 73
4
 74
0
 40
0
 40
0
 40
0
 40
0
 40
1
 40
1
 40
1
 40
1
 10
164.633020
 20
142.358125
 30
0.0
 10
166.519441
 20
142.416346
 30
0.0
 10
168.920339
 20
142.654090
 30
0.0
 10
169.968351
 20
142.886437
 30
0.0
  0
SPLINE
  5
136
100
AcDbEntity
  8
0
 62
7
100
AcDbSpline
 70
8
 71
3
 72
8
 73
4
 74
0
 40
0
 40
0
 40
0
 40
0
 40
1
 40
1
 40
1
 40
1
 10
169.968351
 20
142.886437
 30
0.0
 10
176.229912
 20
144.274647
 30
0.0
 10
181.118837
 20
144.958151
 30
0.0
 10
187.498720
 20
145.337301
 30
0.0
  0
SPLINE
  5
137
100
AcDbEntity
  8
0
 62
7
100
AcDbSpline
 70
8
 71
3
 72
8
 73
4
 74
0
 40
0
 40
0
 40
0
 40
0
 40
1
 40
1
 40
1
 40
1
 10
187.498720
 20
145.337301
 30
0.0
 10
191.691040
 20
145.586446
 30
0.0
 10
192.816546
 20
145.559221
 30
0.0
 10
197.915315
 20
145.085325
 30
0.0
  0
SPLINE
  5
138
100
AcDbEntity
  8
0
 62
7
100
AcDbSpline
 70
8
 71
3
 72
8
 73
4
 74
0
 40
0
 40
0
 40
0
 40
0
 40
1
 40
1
 40
1
 40
1
 10
197.915315
 20
145.085325
 30
0.0
 10
205.950401
 20
144.338520
 30
0.0
 10
209.098054
 20
143.855606
 30
0.0
 10
211.395333
 20
143.017202
 30
0.0
  0
SPLINE
  5
139
100
AcDbEntity
  8
0
 62
7
100
AcDbSpline
 70
8
 71
3
 72
8
 73
4
 74
0
 40
0
 40
0
 40
0
 40
0
 40
1
 40
1
 40
1
 40
1
 10
211.395333
 20
143.017202
 30
0.0
 10
212.977737
 20
142.439696
 30
0.0
 10
213.458543
 20
142.353349
 30
0.0
 10
213.719417
 20
142.599830
 30
0.0
  0
SPLINE
  5
13a
100
AcDbEntity
  8
0
 62
7
100
AcDbSpline
 70
8
 71
3
 72
8
 73
4
 74
0
 40
0
 40
0
 40
0
 40
0
 40
1
 40
1
 40
1
 40
1
 10
213.719417
 20
142.599830
 30
0.0
 10
214.392213
 20
143.235510
 30
0.0
 10
216.127186
 20
144.304524
 30
0.0
 10
217.605220
 20
144.994100
 30
0.0
  0
SPLINE
  5
13b
100
AcDbEntity
  8
0
 62
7
100
AcDbSpline
 70
8
 71
3
 72
8
 73
4
 74
0
 40
0
 40
0
 40
0
 40
0
 40
1
 40
1
 40
1
 40
1
 10
217.605220
 20
144.994100
 30
0.0
 10
219.054454
 20
145.670234
 30
0.0
 10
219.304943
 20
145.704432
 30
0.0
 10
222.686488
 20
145.687784
 30
0.0
  0
SPLINE
  5
13c
100
AcDbEntity
  8
0
 62
7
100
AcDbSpline
 70
8
 71
3
 72
8
 73
4
 74
0
 40
0
 40
0
 40
0
 40
0
 40
1
 40
1
 40
1
 40
1
 10
222.686488
 20
145.687784
 30
0.0
 10
228.098064
 20
145.661138
 30
0.0
 10
232.301909
 20
144.739264
 30
0.0
 10
233.959137
 20
143.215766
 30
0.0
  0
SPLINE
  5
13d
100
AcDbEntity
  8
0
 62
7
100
AcDbSpline
 70
8
 71
3
 72
8
 73
4
 74
0
 40
0
 40
0
 40
0
 40
0
 40
1
 40
1
 40
1
 40
1
 10
233.959137
 20
143.215766
 30
0.0
 10
234.744008
 20
142.494234
 30
0.0
 10
235.503986
 20
140.840229
 30
0.0
 10
235.511104
 20
139.838098
 30
0.0
  0
SPLINE
  5
13e
100
AcDbEntity
  8
0
 62
7
100
AcDbSpline
 70
8
 71
3
 72
8
 73
4
 74
0
 40
0
 40
0
 40
0
 40
0
 40
1
 40
1
 40
1
 40
1
 10
235.511104
 20
139.838098
 30
0.0
 10
235.518115
 20
138.850401
 30
0.0
 10
234.754766
 20
136.615677
 30
0.0
 10
233.962114
 20
135.303396
 30
0.0
  0
SPLINE
  5
13f
100
AcDbEntity
  8
0
 62
7
100
AcDbSpline
 70
8
 71
3
 72
8
 73
4
 74
0
 40
0
 40
0
 40
0
 40
0
 40
1
 40
1
 40
1
 40
1
 10
233.962114
 20
135.303396
 30
0.0
 10
232.622462
 20
133.085532
 30
0.0
 10
229.624387
 20
130.852462
 30
0.0
 10
227.976448
 20
130.845075
 30
0.0
  0
SPLINE
  5
140
100
AcDbEntity
  8
0
 62
7
100
AcDbSpline
 70
8
 71
3
 72
8
 73
4
 74
0
 40
0
 40
0
 40
0
 40
0
 40
1
 40
1
 40
1
 40
1
 10
227.976448
 20
130.845075
 30
0.0
 10
227.413777
 20
130.842429
 30
0.0
 10
226.624467
 20
130.237202
 30
0.0
 10
226.624467
 20
129.808191
 30
0.0
  0
SPLINE
  5
141
100
AcDbEntity
  8
0
 62
7
100
AcDbSpline
 70
8
 71
3
 72
8
 73
4
 74
0
 40
0
 40
0
 40
0
 40
0
 40
1
 40
1
 40
1
 40
1
 10
226.624467
 20
129.808191
 30
0.0
 10
226.624467
 20
129.327959
 30
0.0
 10
227.645266
 20
128.574384
 30
0.0
 10
228.669325
 20
128.298635
 30
0.0
  0
SPLINE
  5
142
100
AcDbEntity
  8
0
 62
7
100
AcDbSpline
 70
8
 71
3
 72
8
 73
4
 74
0
 40
0
 40
0
 40
0
 40
0
 40
1
 40
1
 40
1
 40
1
 10
228.669325
 20
128.298635
 30
0.0
 10
230.312118
 20
127.856278
 30
0.0
 10
231.798865
 20
128.706561
 30
0.0
 10
232.892792
 20
130.714069
 30
0.0
  0
SPLINE
  5
143
100
AcDbEntity
  8
0
 62
7
100
AcDbSpline
 70
8
 71
3
 72
8
 73
4
 74
0
 40
0
 40
0
 40
0
 40
0
 40
1
 40
1
 40
1
 40
1
 10
232.892792
 20
130.714069
 30
0.0
 10
234.072270
 20
132.878578
 30
0.0
 10
235.261776
 20
134.069748
 30
0.0
 10
237.107843
 20
134.935014
 30
0.0
  0
SPLINE
  5
144
100
AcDbEntity
  8
0
 62
7
100
AcDbSpline
 70
8
 71
3
 72
8
 73
4
 74
0
 40
0
 40
0
 40
0
 40
0
 40
1
 40
1
 40
1
 40
1
 10
237.107843
 20
134.935014
 30
0.0
 10
238.923708
 20
135.786126
 30
0.0
 10
238.990700
 20
135.796826
 30
0.0
 10
242.503425
 20
135.796826
 30
0.0
  0
SPLINE
  5
145
100
AcDbEntity
  8
0
 62
7
100
AcDbSpline
 70
8
 71
3
 72
8
 73
4
 74
0
 40
0
 40
0
 40
0
 40
0
 40
1
 40
1
 40
1
 40
1
 10
242.503425
 20
135.796826
 30
0.0
 10
245.823591
 20
135.796826
 30
0.0
 10
246.156230
 20
135.751860
 30
0.0
 10
247.501573
 20
135.121181
 30
0.0
  0
SPLINE
  5
146
100
AcDbEntity
  8
0
 62
7
100
AcDbSpline
 70
8
 71
3
 72
8
 73
4
 74
0
 40
0
 40
0
 40
0
 40
0
 40
1
 40
1
 40
1
 40
1
 10
247.501573
 20
135.121181
 30
0.0
 10
250.473984
 20
133.727755
 30
0.0
 10
253.064284
 20
131.194356
 30
0.0
 10
253.801953
 20
128.959207
 30
0.0
  0
SPLINE
  5
147
100
AcDbEntity
  8
0
 62
7
100
AcDbSpline
 70
8
 71
3
 72
8
 73
4
 74
0
 40
0
 40
0
 40
0
 40
0
 40
1
 40
1
 40
1
 40
1
 10
253.801953
 20
128.959207
 30
0.0
 10
254.020840
 20
128.295965
 30
0.0
 10
254.066685
 20
127.466798
 30
0.0
 10
253.942212
 20
126.422961
 30
0.0
  0
SPLINE
  5
148
100
AcDbEntity
  8
0
 62
7
100
AcDbSpline
 70
8
 71
3
 72
8
 73
4
 74
0
 40
0
 40
0
 40
0
 40
0
 40
1
 40
1
 40
1
 40
1
 10
253.942212
 20
126.422961
 30
0.0
 10
253.840487
 20
125.569989
 30
0.0
 10
253.740374
 20
124.471955
 30
0.0
 10
253.719734
 20
123.982884
 30
0.0
  0
LINE
  5
149
100
AcDbEntity
  8
0
 62
7
100
AcDbLine
 10
253.719734
 20
123.982884
 30
0.0
 11
253.682211
 21
123.093661
 31
0.0
  0
LINE
  5
14a
100
AcDbEntity
  8
0
 62
7
100
AcDbLine
 10
253.682211
 20
123.093661
 30
0.0
 11
254.825494
 21
123.151089
 31
0.0
  0
SPLINE
  5
14b
100
AcDbEntity
  8
0
 62
7
100
AcDbSpline
 70
8
 71
3
 72
8
 73
4
 74
0
 40
0
 40
0
 40
0
 40
0
 40
1
 40
1
 40
1
 40
1
 10
254.825494
 20
123.151089
 30
0.0
 10
260.703072
 20
123.446325
 30
0.0
 10
260.884370
 20
123.427325
 30
0.0
 10
263.310015
 20
122.261949
 30
0.0
  0
SPLINE
  5
14c
100
AcDbEntity
  8
0
 62
7
100
AcDbSpline
 70
8
 71
3
 72
8
 73
4
 74
0
 40
0
 40
0
 40
0
 40
0
 40
1
 40
1
 40
1
 40
1
 10
263.310015
 20
122.261949
 30
0.0
 10
267.016520
 20
120.481213
 30
0.0
 10
269.435844
 20
117.536075
 30
0.0
 10
270.002661
 20
114.114791
 30
0.0
  0
SPLINE
  5
14d
100
AcDbEntity
  8
0
 62
7
100
AcDbSpline
 70
8
 71
3
 72
8
 73
4
 74
0
 40
0
 40
0
 40
0
 40
0
 40
1
 40
1
 40
1
 40
1
 10
270.002661
 20
114.114791
 30
0.0
 10
270.092566
 20
113.572075
 30
0.0
 10
269.884577
 20
112.355994
 30
0.0
 10
269.425948
 20
110.742816
 30
0.0
  0
SPLINE
  5
14e
100
AcDbEntity
  8
0
 62
7
100
AcDbSpline
 70
8
 71
3
 72
8
 73
4
 74
0
 40
0
 40
0
 40
0
 40
0
 40
1
 40
1
 40
1
 40
1
 10
269.425948
 20
110.742816
 30
0.0
 10
268.933453
 20
109.010491
 30
0.0
 10
268.790684
 20
108.137610
 30
0.0
 10
268.970495
 20
107.957802
 30
0.0
  0
SPLINE
  5
14f
100
AcDbEntity
  8
0
 62
7
100
AcDbSpline
 70
8
 71
3
 72
8
 73
4
 74
0
 40
0
 40
0
 40
0
 40
0
 40
1
 40
1
 40
1
 40
1
 10
268.970495
 20
107.957802
 30
0.0
 10
269.114560
 20
107.813768
 30
0.0
 10
270.135243
 20
107.603154
 30
0.0
 10
271.238741
 20
107.489775
 30
0.0
  0
SPLINE
  5
150
100
AcDbEntity
  8
0
 62
7
100
AcDbSpline
 70
8
 71
3
 72
8
 73
4
 74
0
 40
0
 40
0
 40
0
 40
0
 40
1
 40
1
 40
1
 40
1
 10
271.238741
 20
107.489775
 30
0.0
 10
272.342212
 20
107.376396
 30
0.0
 10
273.679496
 20
107.100089
 30
0.0
 10
274.210462
 20
106.875754
 30
0.0
  0
SPLINE
  5
151
100
AcDbEntity
  8
0
 62
7
100
AcDbSpline
 70
8
 71
3
 72
8
 73
4
 74
0
 40
0
 40
0
 40
0
 40
0
 40
1
 40
1
 40
1
 40
1
 10
274.210462
 20
106.875754
 30
0.0
 10
275.425137
 20
106.362557
 30
0.0
 10
277.963470
 20
103.845819
 30
0.0
 10
278.676946
 20
102.447287
 30
0.0
  0
SPLINE
  5
152
100
AcDbEntity
  8
0
 62
7
100
AcDbSpline
 70
8
 71
3
 72
8
 73
4
 74
0
 40
0
 40
0
 40
0
 40
0
 40
1
 40
1
 40
1
 40
1
 10
278.676946
 20
102.447287
 30
0.0
 10
279.427727
 20
100.975667
 30
0.0
 10
279.977770
 20
98.722798
 30
0.0
 10
279.977770
 20
97.119484
 30
0.0
  0
SPLINE
  5
153
100
AcDbEntity
  8
0
 62
7
100
AcDbSpline
 70
8
 71
3
 72
8
 73
4
 74
0
 40
0
 40
0
 40
0
 40
0
 40
1
 40
1
 40
1
 40
1
 10
279.977770
 20
97.119484
 30
0.0
 10
279.977770
 20
95.230457
 30
0.0
 10
278.622098
 20
92.547934
 30
0.0
 10
277.162391
 20
91.548526
 30
0.0
  0
SPLINE
  5
154
100
AcDbEntity
  8
0
 62
7
100
AcDbSpline
 70
8
 71
3
 72
8
 73
4
 74
0
 40
0
 40
0
 40
0
 40
0
 40
1
 40
1
 40
1
 40
1
 10
277.162391
 20
91.548526
 30
0.0
 10
276.583271
 20
91.152029
 30
0.0
 10
275.756660
 20
90.527832
 30
0.0
 10
275.325442
 20
90.161421
 30
0.0
  0
SPLINE
  5
155
100
AcDbEntity
  8
0
 62
7
100
AcDbSpline
 70
8
 71
3
 72
8
 73
4
 74
0
 40
0
 40
0
 40
0
 40
0
 40
1
 40
1
 40
1
 40
1
 10
275.325442
 20
90.161421
 30
0.0
 10
274.554658
 20
89.506440
 30
0.0
 10
274.548784
 20
89.484009
 30
0.0
 10
274.977595
 20
88.829554
 30
0.0
  0
SPLINE
  5
156
100
AcDbEntity
  8
0
 62
7
100
AcDbSpline
 70
8
 71
3
 72
8
 73
4
 74
0
 40
0
 40
0
 40
0
 40
0
 40
1
 40
1
 40
1
 40
1
 10
274.977595
 20
88.829554
 30
0.0
 10
275.217492
 20
88.463437
 30
0.0
 10
275.971793
 20
87.881107
 30
0.0
 10
276.653862
 20
87.535490
 30
0.0
  0
SPLINE
  5
157
100
AcDbEntity
  8
0
 62
7
100
AcDbSpline
 70
8
 71
3
 72
8
 73
4
 74
0
 40
0
 40
0
 40
0
 40
0
 40
1
 40
1
 40
1
 40
1
 10
276.653862
 20
87.535490
 30
0.0
 10
279.955624
 20
85.862352
 30
0.0
 10
281.975268
 20
83.871214
 30
0.0
 10
283.614177
 20
80.673421
 30
0.0
  0
SPLINE
  5
158
100
AcDbEntity
  8
0
 62
7
100
AcDbSpline
 70
8
 71
3
 72
8
 73
4
 74
0
 40
0
 40
0
 40
0
 40
0
 40
1
 40
1
 40
1
 40
1
 10
283.614177
 20
80.673421
 30
0.0
 10
284.630388
 20
78.690530
 30
0.0
 10
284.660339
 20
78.560448
 30
0.0
 10
284.669017
 20
76.091951
 30
0.0
  0
SPLINE
  5
159
100
AcDbEntity
  8
0
 62
7
100
AcDbSpline
 70
8
 71
3
 72
8
 73
4
 74
0
 40
0
 40
0
 40
0
 40
0
 40
1
 40
1
 40
1
 40
1
 10
284.669017
 20
76.091951
 30
0.0
 10
284.677219
 20
73.749997
 30
0.0
 10
284.614222
 20
73.416823
 30
0.0
 10
283.863255
 20
71.831413
 30
0.0
  0
SPLINE
  5
15a
100
AcDbEntity
  8
0
 62
7
100
AcDbSpline
 70
8
 71
3
 72
8
 73
4
 74
0
 40
0
 40
0
 40
0
 40
0
 40
1
 40
1
 40
1
 40
1
 10
283.863255
 20
71.831413
 30
0.0
 10
282.435564
 20
68.817436
 30
0.0
 10
279.958561
 20
66.022523
 30
0.0
 10
276.865476
 20
63.935588
 30
0.0
  0
SPLINE
  5
15b
100
AcDbEntity
  8
0
 62
7
100
AcDbSpline
 70
8
 71
3
 72
8
 73
4
 74
0
 40
0
 40
0
 40
0
 40
0
 40
1
 40
1
 40
1
 40
1
 10
276.865476
 20
63.935588
 30
0.0
 10
276.131866
 20
63.440619
 30
0.0
 10
274.902850
 20
62.574087
 30
0.0
 10
274.134315
 20
62.009969
 30
0.0
  0
SPLINE
  5
15c
100
AcDbEntity
  8
0
 62
7
100
AcDbSpline
 70
8
 71
3
 72
8
 73
4
 74
0
 40
0
 40
0
 40
0
 40
0
 40
1
 40
1
 40
1
 40
1
 10
274.134315
 20
62.009969
 30
0.0
 10
273.365753
 20
61.445851
 30
0.0
 10
272.451141
 20
60.792446
 30
0.0
 10
272.101812
 20
60.557959
 30
0.0
  0
SPLINE
  5
15d
100
AcDbEntity
  8
0
 62
7
100
AcDbSpline
 70
8
 71
3
 72
8
 73
4
 74
0
 40
0
 40
0
 40
0
 40
0
 40
1
 40
1
 40
1
 40
1
 10
272.101812
 20
60.557959
 30
0.0
 10
270.257587
 20
59.320059
 30
0.0
 10
269.643224
 20
58.942678
 30
0.0
 10
269.472250
 20
58.942678
 30
0.0
  0
SPLINE
  5
15e
100
AcDbEntity
  8
0
 62
7
100
AcDbSpline
 70
8
 71
3
 72
8
 73
4
 74
0
 40
0
 40
0
 40
0
 40
0
 40
1
 40
1
 40
1
 40
1
 10
269.472250
 20
58.942678
 30
0.0
 10
269.368481
 20
58.942678
 30
0.0
 10
268.440799
 20
58.548084
 30
0.0
 10
267.410670
 20
58.065799
 30
0.0
  0
SPLINE
  5
15f
100
AcDbEntity
  8
0
 62
7
100
AcDbSpline
 70
8
 71
3
 72
8
 73
4
 74
0
 40
0
 40
0
 40
0
 40
0
 40
1
 40
1
 40
1
 40
1
 10
267.410670
 20
58.065799
 30
0.0
 10
263.632727
 20
56.297033
 30
0.0
 10
259.069519
 20
55.708414
 30
0.0
 10
255.426455
 20
56.519939
 30
0.0
  0
SPLINE
  5
160
100
AcDbEntity
  8
0
 62
7
100
AcDbSpline
 70
8
 71
3
 72
8
 73
4
 74
0
 40
0
 40
0
 40
0
 40
0
 40
1
 40
1
 40
1
 40
1
 10
255.426455
 20
56.519939
 30
0.0
 10
251.521279
 20
57.389852
 30
0.0
 10
249.658049
 20
58.124520
 30
0.0
 10
247.950677
 20
59.467625
 30
0.0
  0
SPLINE
  5
161
100
AcDbEntity
  8
0
 62
7
100
AcDbSpline
 70
8
 71
3
 72
8
 73
4
 74
0
 40
0
 40
0
 40
0
 40
0
 40
1
 40
1
 40
1
 40
1
 10
247.950677
 20
59.467625
 30
0.0
 10
247.453295
 20
59.858888
 30
0.0
 10
246.710160
 20
60.259634
 30
0.0
 10
246.299264
 20
60.358165
 30
0.0
  0
SPLINE
  5
162
100
AcDbEntity
  8
0
 62
7
100
AcDbSpline
 70
8
 71
3
 72
8
 73
4
 74
0
 40
0
 40
0
 40
0
 40
0
 40
1
 40
1
 40
1
 40
1
 10
246.299264
 20
60.358165
 30
0.0
 10
245.888372
 20
60.456695
 30
0.0
 10
245.437855
 20
60.604500
 30
0.0
 10
245.298121
 20
60.686618
 30
0.0
  0
SPLINE
  5
163
100
AcDbEntity
  8
0
 62
7
100
AcDbSpline
 70
8
 71
3
 72
8
 73
4
 74
0
 40
0
 40
0
 40
0
 40
0
 40
1
 40
1
 40
1
 40
1
 10
245.298121
 20
60.686618
 30
0.0
 10
245.158386
 20
60.768734
 30
0.0
 10
244.243137
 20
60.856880
 30
0.0
 10
243.264234
 20
60.882497
 30
0.0
  0
SPLINE
  5
164
100
AcDbEntity
  8
0
 62
7
100
AcDbSpline
 70
8
 71
3
 72
8
 73
4
 74
0
 40
0
 40
0
 40
0
 40
0
 40
1
 40
1
 40
1
 40
1
 10
243.264234
 20
60.882497
 30
0.0
 10
241.484110
 20
60.929080
 30
0.0
 10
238.436721
 20
61.574333
 30
0.0
 10
237.898971
 20
62.018534
 30
0.0
  0
SPLINE
  5
165
100
AcDbEntity
  8
0
 62
7
100
AcDbSpline
 70
8
 71
3
 72
8
 73
4
 74
0
 40
0
 40
0
 40
0
 40
0
 40
1
 40
1
 40
1
 40
1
 10
237.898971
 20
62.018534
 30
0.0
 10
237.503996
 20
62.344799
 30
0.0
 10
236.854470
 20
62.062864
 30
0.0
 10
235.516684
 20
60.984476
 30
0.0
  0
SPLINE
  5
166
100
AcDbEntity
  8
0
 62
7
100
AcDbSpline
 70
8
 71
3
 72
8
 73
4
 74
0
 40
0
 40
0
 40
0
 40
0
 40
1
 40
1
 40
1
 40
1
 10
235.516684
 20
60.984476
 30
0.0
 10
233.683672
 20
59.506886
 30
0.0
 10
233.201921
 20
59.280257
 30
0.0
 10
231.193307
 20
58.950650
 30
0.0
  0
SPLINE
  5
167
100
AcDbEntity
  8
0
 62
7
100
AcDbSpline
 70
8
 71
3
 72
8
 73
4
 74
0
 40
0
 40
0
 40
0
 40
0
 40
1
 40
1
 40
1
 40
1
 10
231.193307
 20
58.950650
 30
0.0
 10
230.147661
 20
58.779063
 30
0.0
 10
227.520042
 20
58.208015
 30
0.0
 10
225.354152
 20
57.681653
 30
0.0
  0
SPLINE
  5
168
100
AcDbEntity
  8
0
 62
7
100
AcDbSpline
 70
8
 71
3
 72
8
 73
4
 74
0
 40
0
 40
0
 40
0
 40
0
 40
1
 40
1
 40
1
 40
1
 10
225.354152
 20
57.681653
 30
0.0
 10
217.591041
 20
55.795039
 30
0.0
 10
213.041780
 20
55.407527
 30
0.0
 10
207.315657
 20
56.145117
 30
0.0
  0
LINE
  5
169
100
AcDbEntity
  8
0
 62
7
100
AcDbLine
 10
207.315657
 20
56.145117
 30
0.0
 11
207.315657
 21
56.145112
 31
0.0
  0
ENDSEC
  0
SECTION
  2
OBJECTS
  0
DICTIONARY
  5
C
330
0
100
AcDbDictionary
  3
ACAD_GROUP
350
D
  3
ACAD_MLINESTYLE
350
17
  0
DICTIONARY
  5
D
330
C
100
AcDbDictionary
  0
DICTIONARY
  5
1A
330
C
100
AcDbDictionary
  0
DICTIONARY
  5
17
330
C
100
AcDbDictionary
  3
STANDARD
350
18
  0
DICTIONARY
  5
19
330
C
100
AcDbDictionary
  0
ENDSEC
  0
EOF
