<?xml version="1.0" encoding="UTF-8" standalone="no"?>
<!-- Created with Inkscape (http://www.inkscape.org/) -->

<svg
   xmlns:dc="http://purl.org/dc/elements/1.1/"
   xmlns:cc="http://creativecommons.org/ns#"
   xmlns:rdf="http://www.w3.org/1999/02/22-rdf-syntax-ns#"
   xmlns:svg="http://www.w3.org/2000/svg"
   xmlns="http://www.w3.org/2000/svg"
   xmlns:sodipodi="http://sodipodi.sourceforge.net/DTD/sodipodi-0.dtd"
   xmlns:inkscape="http://www.inkscape.org/namespaces/inkscape"
   version="1.1"
   id="svg10"
   width="297mm"
   height="210mm"
   viewBox="0 0 1122.5197 793.70077"
   sodipodi:docname="Scan10001.svg"
   inkscape:version="0.92.3 (2405546, 2018-03-11)">
  <metadata
     id="metadata16">
    <rdf:RDF>
      <cc:Work
         rdf:about="">
        <dc:format>image/svg+xml</dc:format>
        <dc:type
           rdf:resource="http://purl.org/dc/dcmitype/StillImage" />
        <dc:title></dc:title>
      </cc:Work>
    </rdf:RDF>
  </metadata>
  <defs
     id="defs14" />
  <sodipodi:namedview
     pagecolor="#ffffff"
     bordercolor="#666666"
     borderopacity="1"
     objecttolerance="10"
     gridtolerance="10"
     guidetolerance="10"
     inkscape:pageopacity="0"
     inkscape:pageshadow="2"
     inkscape:window-width="1920"
     inkscape:window-height="1017"
     id="namedview12"
     showgrid="false"
     units="mm"
     inkscape:zoom="0.42133464"
     inkscape:cx="1424.1625"
     inkscape:cy="153.08497"
     inkscape:window-x="-8"
     inkscape:window-y="-8"
     inkscape:window-maximized="1"
     inkscape:current-layer="svg10" />
  <path
     inkscape:connector-curvature="0"
     id="path32"
     d="m 799.76408,584.0433 c -0.23943,-0.2393 -6.46898,-0.87994 -13.84345,-1.42365 -7.37448,-0.54371 -15.56868,-1.62822 -18.20934,-2.41002 -2.64066,-0.7818 -8.69016,-2.54189 -13.44335,-3.9113 -4.75318,-1.36941 -11.25347,-3.32424 -14.4451,-4.34406 -3.19161,-1.01984 -7.93782,-2.1467 -10.54711,-2.50415 -5.23709,-0.71745 -24.41573,-10.13814 -40.07553,-19.6854 -10.30606,-6.28325 -21.38024,-11.60042 -27.70644,-13.30299 -2.24895,-0.60527 -6.49283,-2.63762 -9.43081,-4.51635 -5.07244,-3.24362 -24.63314,-13.12114 -33.44676,-16.88952 -2.25443,-0.96392 -7.73396,-5.1916 -12.17674,-9.39485 -5.77884,-5.46728 -9.24506,-7.98005 -12.17926,-8.82913 -3.51173,-1.01621 -4.5666,-1.98243 -7.33611,-6.71962 -1.77904,-3.04302 -5.04047,-6.8499 -7.24763,-8.45973 -3.70593,-2.70297 -4.38041,-2.86823 -8.81421,-2.15951 -8.51064,1.36041 -16.8954,0.71403 -26.8867,-2.07269 -12.92577,-3.60518 -16.65653,-3.47988 -25.6901,0.86281 l -7.31494,3.51649 -9.90405,-0.9227 c -5.44724,-0.50748 -12.28066,-1.58496 -15.18538,-2.39439 -2.90473,-0.80943 -8.46034,-1.47682 -12.34583,-1.48309 -5.937,-0.01 -8.06272,0.46476 -13.31892,2.97199 -5.03838,2.40334 -6.98904,2.86598 -10.03286,2.37951 -2.5922,-0.41429 -4.82819,-0.10601 -7.12208,0.98195 -4.17215,1.97877 -15.44651,1.42488 -19.0515,-0.93598 -4.09441,-2.68134 -14.11703,-2.09135 -23.08142,1.35871 -6.95939,2.67842 -8.23563,2.87405 -14.9375,2.28975 -6.14418,-0.53569 -7.85866,-0.34988 -10.6131,1.15024 -2.74672,1.49589 -5.56716,1.80576 -17.20861,1.89058 -13.29206,0.0969 -14.72908,0.30725 -31.6879,4.63949 -9.77043,2.49593 -20.78918,5.12211 -24.4861,5.83596 -3.69692,0.71384 -9.09827,2.15342 -12.00299,3.19906 -10.108,3.63866 -19.97402,5.14733 -28.80718,4.40508 -4.48912,-0.37722 -14.21154,-0.6346 -21.60538,-0.57197 -8.42421,0.0713 -19.00026,-0.59632 -28.32706,-1.78832 -16.4916,-2.10769 -23.5652,-4.57274 -41.46646,-14.45046 -10.30956,-5.68871 -12.56546,-7.30679 -23.77134,-17.05036 -9.59664,-8.34433 -11.61234,-11.09351 -19.46519,-26.54827 -10.59754,-20.85648 -12.99266,-36.66288 -9.5441,-62.98583 1.08076,-8.24949 2.88437,-17.72673 4.00804,-21.06051 2.34584,-6.95989 17.28967,-29.37326 25.47803,-38.21302 4.8677,-5.25493 18.80593,-15.52728 23.02648,-16.97031 1.03653,-0.3544 9.44649,-4.21497 18.6888,-8.57904 18.59461,-8.78008 32.01239,-12.68888 52.7521,-15.3675 12.96856,-1.67495 50.93692,-1.89564 61.03625,-0.35479 8.75478,1.33572 64.12849,1.26182 73.4583,-0.098 6.7691,-0.98661 11.81469,-1.43652 42.63029,-3.80119 15.81444,-1.21354 29.05326,-3.68624 57.62276,-10.76262 14.27349,-3.53539 26.8014,-6.04908 33.12826,-6.64711 5.59596,-0.52892 16.00792,-1.59477 23.13769,-2.36853 7.12978,-0.77378 18.14852,-1.41952 24.4861,-1.43498 6.33758,-0.0154 16.06001,-0.49374 21.60539,-1.06281 9.89235,-1.01517 19.22462,-1.43641 45.13124,-2.03713 9.3436,-0.21665 15.24226,-0.88239 21.12527,-2.38422 19.00199,-4.85091 36.54957,-7.24525 65.59032,-8.9497 20.1477,-1.1825 17.50056,-1.33129 63.08174,3.54584 9.5311,1.01981 16.61414,2.37543 22.45272,4.2972 4.69109,1.54408 9.51701,2.80742 10.72428,2.80742 1.20727,0 4.41129,-1.89077 7.12004,-4.2017 7.35211,-6.27236 13.07466,-7.80754 28.84018,-7.73692 9.39731,0.0421 16.00087,0.6573 24.00599,2.2365 12.57951,2.48159 16.62392,4.60268 21.05777,11.04369 2.54618,3.69879 2.94246,5.1099 2.90606,10.34817 -0.0523,7.5303 -1.55356,11.83634 -6.85376,19.65888 -4.47296,6.60161 -11.01219,11.61828 -17.67393,13.55883 -2.15858,0.62879 -4.64254,1.93607 -5.51993,2.90506 -1.49662,1.65287 -1.45492,1.89358 0.67439,3.89291 2.8331,2.66018 8.96036,3.07924 12.37039,0.84609 1.33603,-0.87495 3.6652,-3.5845 5.17593,-6.02123 5.49623,-8.86514 8.66983,-12.52894 13.85573,-15.99597 4.46515,-2.98517 6.62166,-3.71346 13.83749,-4.67321 12.09007,-1.60804 20.55979,-0.81824 29.7872,2.77767 12.86236,5.01243 21.90006,14.23901 24.46119,24.97238 1.15473,4.83947 0.94108,12.03917 -0.46485,15.66483 -0.44759,1.15426 0.14901,2.00066 2.09231,2.96839 2.17744,1.08429 4.34316,1.1682 10.88056,0.42155 11.06945,-1.26424 16.87775,0.0463 26.51192,5.98158 9.66141,5.95218 14.10311,10.44101 17.84181,18.03141 3.8239,7.76319 4.783,18.14811 2.2809,24.69624 -0.8971,2.34782 -1.4944,5.69069 -1.3272,7.42858 l 0.3039,3.15983 7.8569,0.65121 c 8.5727,0.71055 10.077,1.27999 16.8593,6.38171 7.9259,5.96204 14.4123,18.26687 15.7993,29.97126 1.1734,9.9024 -4.012,21.14656 -12.3858,26.85783 -2.4952,1.70184 -5.2122,3.84018 -6.0376,4.75187 -1.3814,1.52555 -1.2269,1.86656 1.9395,4.28039 1.8922,1.44252 6.5935,4.73062 10.4474,7.30686 8.8867,5.94067 13.6513,10.64568 17.7199,17.4984 5.2587,8.85711 6.3243,12.6886 6.2499,22.47295 -0.082,10.90639 -1.5642,15.15101 -9.199,26.35772 -7.1081,10.43375 -10.3712,13.41546 -27.5649,25.18735 -23.6988,16.22573 -35.6723,21.51651 -53.53792,23.65691 -8.96892,1.07453 -10.73547,0.99481 -21.60538,-0.97494 -14.37854,-2.60555 -16.40906,-3.33319 -26.64967,-9.54978 -9.04773,-5.49246 -12.79685,-6.79147 -19.75677,-6.84542 -2.64066,-0.0204 -8.89146,-0.85452 -13.89068,-1.85344 -4.99922,-0.99891 -9.48723,-1.57052 -9.97337,-1.27022 -0.48615,0.30029 -3.59676,2.59827 -6.91248,5.10661 -5.16351,3.9062 -7.03931,4.7253 -13.07236,5.70837 -3.87408,0.63126 -12.01303,2.34883 -18.08655,3.81682 -23.64536,5.71516 -54.77385,10.23217 -56.76934,8.23773 z"
     style="fill:#d18285;stroke-width:0.9599871" />
  <path
     inkscape:connector-curvature="0"
     id="path30"
     d="m 799.76408,583.08356 c -0.23943,-0.2393 -6.46898,-0.86546 -13.84345,-1.39147 -10.80918,-0.77099 -15.64168,-1.63102 -24.93101,-4.43686 -20.38294,-6.15667 -26.77176,-7.94598 -32.43723,-9.08468 -5.98369,-1.20265 -24.09932,-10.09404 -39.1006,-19.1911 -11.94165,-7.24163 -16.21777,-9.36979 -25.3183,-12.60048 -4.15463,-1.47489 -10.42019,-4.40831 -13.92347,-6.51871 -3.50328,-2.11041 -12.83822,-6.95594 -20.74431,-10.76785 -12.73464,-6.14 -15.28359,-7.78642 -22.34075,-14.43035 -6.0229,-5.67022 -8.98434,-7.75585 -12.14059,-8.55019 -3.4104,-0.8583 -4.57914,-1.7701 -6.38484,-4.98122 -3.10064,-5.51396 -8.11244,-10.82245 -11.56835,-12.25318 -2.36764,-0.9802 -4.18606,-0.9777 -9.43919,0.013 -7.44546,1.40412 -13.61168,0.64133 -27.62443,-3.41728 -9.90545,-2.86898 -12.63458,-2.61754 -22.40988,2.06469 l -6.84678,3.27951 -9.77426,-0.91144 c -5.37584,-0.50127 -12.15085,-1.57367 -15.05557,-2.38311 -2.90473,-0.80943 -8.52213,-1.47648 -12.48311,-1.48233 -6.0672,-0.009 -8.18512,0.4553 -13.44335,2.94683 -4.85958,2.30264 -7.03129,2.83242 -9.80831,2.3927 -2.27596,-0.36038 -4.98962,0.004 -7.49848,1.00758 -5.04237,2.01649 -15.5037,1.37809 -18.25917,-1.11428 -3.05271,-2.76121 -14.63428,-2.00166 -23.80378,1.56112 -6.57234,2.55366 -8.09204,2.79703 -14.09031,2.25651 -5.51008,-0.49653 -7.84951,-0.22344 -12.96323,1.51325 -5.40989,1.83727 -7.58083,2.05033 -16.32232,1.60189 -9.73413,-0.49935 -10.7461,-0.35112 -29.2873,4.28988 -10.56263,2.6439 -22.22954,5.37399 -25.92646,6.06686 -3.69692,0.69287 -9.09827,2.13125 -12.00299,3.19641 -9.97047,3.65617 -19.92788,5.19302 -28.80718,4.44617 -4.48912,-0.37759 -14.27806,-0.63729 -21.75319,-0.5771 -8.45738,0.0681 -19.02956,-0.59035 -27.98874,-1.74314 -12.67845,-1.63136 -15.58454,-2.36233 -24.33829,-6.12186 -16.01409,-6.87768 -25.84927,-12.90058 -37.84328,-23.17457 -12.68849,-10.86887 -14.367,-13.02033 -21.93635,-28.11721 -9.98391,-19.91265 -12.66148,-36.26045 -9.77793,-59.69854 1.94547,-15.81323 3.07537,-21.09209 5.88584,-27.49823 3.25122,-7.41077 16.29561,-25.75661 24.20836,-34.04702 6.08533,-6.37575 18.79476,-16.19328 20.96326,-16.19328 0.40947,0 8.37133,-3.67345 17.69305,-8.16324 19.13539,-9.2165 33.86176,-13.63563 54.20224,-16.26514 13.46072,-1.74014 51.15741,-1.99815 61.4952,-0.42091 8.75478,1.33572 64.12849,1.26182 73.4583,-0.098 6.73602,-0.9818 11.59761,-1.41479 42.87035,-3.81819 15.57722,-1.19716 28.9209,-3.69593 57.3827,-10.74562 14.27349,-3.5354 26.8014,-6.04909 33.12826,-6.64711 5.59596,-0.52893 16.00792,-1.59477 23.13769,-2.36854 7.12978,-0.77378 18.14852,-1.41951 24.4861,-1.43498 6.33758,-0.0154 16.06001,-0.49373 21.60539,-1.06281 9.89235,-1.01517 19.22462,-1.4364 45.13124,-2.03712 9.3436,-0.21665 15.24226,-0.88239 21.12527,-2.38422 19.00199,-4.85092 36.54957,-7.24525 65.59032,-8.9497 20.14341,-1.18225 17.55773,-1.32753 63.03002,3.54132 9.54945,1.02249 16.51032,2.36146 22.33985,4.29722 11.82932,3.92804 13.07123,3.77005 20.16053,-2.56478 2.2715,-2.02976 6.0539,-3.93763 10.45567,-5.27393 6.03965,-1.83352 8.34191,-2.02653 18.52652,-1.55323 12.89115,0.59908 29.97778,3.6632 35.15571,6.30441 1.84846,0.94288 4.80604,3.84365 6.5724,6.44616 3.01188,4.4376 3.1905,5.14957 2.87267,11.44997 -0.67205,13.32212 -9.83659,25.74207 -22.57821,30.59841 -8.52029,3.24744 -9.75365,4.50631 -7.61345,7.77095 0.86136,1.3139 2.74893,2.64777 4.19461,2.96417 1.44567,0.3164 3.1724,0.74302 3.83714,0.94805 3.60931,1.11323 10.6901,-4.30648 13.86228,-10.61033 2.50117,-4.97039 9.8705,-12.60225 14.45919,-14.97432 4.62898,-2.39289 17.37773,-4.10421 26.08545,-3.50157 14.76692,1.02197 30.27698,10.40187 35.80534,21.65371 2.27298,4.6262 2.66239,6.55879 2.55049,12.65781 -0.0726,3.95891 -0.28868,8.02457 -0.48012,9.0348 -0.23502,1.24028 0.58747,2.37855 2.53266,3.50502 2.45332,1.42073 3.80678,1.53004 9.12228,0.73678 8.94722,-1.33525 16.49086,-0.35139 23.40304,3.05227 7.41196,3.64982 15.81356,10.27439 19.17046,15.11561 5.8913,8.49687 8.1089,21.81423 4.9075,29.47213 -0.8201,1.96181 -1.3602,5.36162 -1.2003,7.55515 l 0.2909,3.98823 7.6819,0.58795 c 9.3191,0.71326 12.8798,2.18341 19.4444,8.02832 3.5308,3.1437 6.0269,6.55038 8.3326,11.37225 8.9074,18.6275 6.2665,32.5361 -8.178,43.0696 -3.6497,2.66147 -6.6358,5.13706 -6.6358,5.5013 0,1.11802 5.0499,5.44694 9.6024,8.23147 8.6539,5.29311 17.495,13.2054 21.2583,19.02479 10.5209,16.26926 9.7107,32.9911 -2.4194,49.93993 -5.4498,7.6147 -13.66,15.3649 -22.6798,21.40914 -3.961,2.65428 -10.2266,6.89822 -13.9235,9.431 -13.7167,9.39735 -28.5557,15.11924 -43.70845,16.85386 -9.2109,1.05444 -11.00194,0.97515 -21.10769,-0.93442 -13.74009,-2.5963 -17.59728,-3.98937 -27.21984,-9.83078 -8.61579,-5.23024 -12.49336,-6.55994 -19.15219,-6.56769 -3.86784,-0.005 -11.64502,-1.23065 -21.50368,-3.39027 -1.47643,-0.32343 -3.90066,0.92004 -8.17031,4.19084 -6.27873,4.80985 -9.70747,6.28807 -17.09719,7.37105 -2.37659,0.34829 -9.29031,1.83487 -15.36383,3.30349 -23.63138,5.71427 -54.7733,10.23387 -56.76934,8.23889 z m 79.14666,-55.22955 c 2.46427,-1.68765 4.33404,-4.2549 6.30372,-8.6551 5.31928,-11.88319 5.88586,-15.18826 5.9086,-34.46723 0.0195,-16.53895 0.22068,-18.58023 2.7966,-28.37792 1.52657,-5.8064 4.38507,-15.08411 6.35225,-20.61714 3.51091,-9.87508 3.56701,-10.25449 3.05124,-20.63431 -0.78002,-15.69726 -3.48222,-25.20262 -9.82697,-34.56761 -2.86095,-4.22284 -7.70281,-10.77868 -10.75967,-14.56854 -3.05686,-3.78987 -9.54805,-11.82413 -14.42487,-17.85392 -4.8768,-6.02979 -10.49686,-12.09221 -12.48901,-13.47205 -4.15243,-2.87612 -9.65705,-5.00617 -10.57258,-4.09113 -0.34249,0.34231 -0.0713,3.0915 0.60257,6.10931 2.5893,11.59509 2.53248,13.01573 -0.66618,16.6569 -3.68795,4.19814 -10.73852,21.69899 -10.73852,26.65506 0,2.68242 0.8092,4.74568 2.90956,7.41866 8.22363,10.46562 11.52291,14.81795 15.64705,20.6412 2.48565,3.50973 5.13555,6.61766 5.88866,6.9065 4.90305,1.88049 6.74303,16.67995 3.35947,27.02104 -3.0181,9.22413 -4.94476,11.69245 -10.38756,13.30795 -3.79633,1.12679 -6.23009,1.21563 -12.04127,0.43952 -7.10294,-0.94864 -7.35656,-0.91107 -10.24422,1.51745 -3.70359,3.11474 -5.42497,3.11131 -13.30089,-0.0265 -7.60723,-3.03077 -10.80555,-5.19356 -13.72057,-9.27822 -2.19047,-3.0694 -2.19756,-3.18734 -1.88934,-31.39315 l 0.30938,-28.31219 -2.76955,-2.98086 c -3.19795,-3.44195 -14.37843,-7.61429 -17.98167,-6.71041 -1.25377,0.31451 -4.28913,2.58031 -6.74522,5.03512 l -4.46562,4.46328 -6.82092,-0.19907 c -3.75151,-0.10948 -7.70886,-0.67401 -8.7941,-1.25452 -1.08525,-0.5805 -5.30381,-4.22648 -9.37458,-8.10218 l -7.40141,-7.04675 h -7.67413 c -7.76344,0 -10.69202,1.16953 -10.69202,4.26985 0,1.99493 -2.26241,3.35055 -7.09894,4.25365 -6.59911,1.23219 -11.61875,-1.52797 -15.50085,-8.5235 l -2.92927,-5.27854 -7.16043,-0.15294 c -3.93824,-0.0841 -7.70603,-0.19209 -8.37287,-0.23994 -0.66683,-0.0478 -5.09593,-3.90977 -9.84245,-8.58208 -9.73796,-9.5857 -10.40346,-11.4845 -6.19481,-17.67483 1.99596,-2.93578 3.01398,-3.58186 5.64386,-3.58186 1.76475,0 3.76724,-0.67272 4.44996,-1.49492 0.68273,-0.82221 3.13091,-2.6017 5.4404,-3.95445 4.1973,-2.45849 4.19883,-2.4614 3.59765,-6.90275 -0.33078,-2.44379 -1.42972,-6.92827 -2.4421,-9.96554 -1.01238,-3.03726 -1.84068,-6.05661 -1.84068,-6.70964 0,-1.90192 -6.81817,-15.3851 -9.02687,-17.85096 -1.10873,-1.23783 -3.21122,-2.87212 -4.6722,-3.63176 -2.34207,-1.21776 -3.19407,-1.19333 -7.20179,0.20648 -2.94977,1.03029 -9.93902,1.86267 -19.90931,2.37111 -8.4501,0.43091 -17.04566,1.28005 -19.10123,1.88697 -3.22787,0.95304 -22.82901,1.41592 -75.21837,1.77629 -2.75955,0.019 -6.86457,0.54279 -9.12228,1.16403 -2.2577,0.62122 -9.93837,1.2195 -17.06814,1.3295 -18.99871,0.29311 -34.94007,3.18057 -44.15822,7.99839 -3.96803,2.07387 -9.59118,4.27334 -12.4959,4.8877 -9.37476,1.98282 -31.47304,12.30024 -39.36981,18.38129 -7.41124,5.70716 -9.67908,6.40404 -17.65157,5.42407 -11.08756,-1.36285 -15.05338,-0.45564 -18.43972,4.21818 -5.8894,8.12854 -5.90631,8.14379 -7.7795,7.01706 -0.95732,-0.57583 -2.44203,-2.5011 -3.29936,-4.27836 -1.35893,-2.8171 -2.46692,-3.51109 -8.64215,-5.41307 -8.86571,-2.73062 -14.72234,-2.82217 -18.86951,-0.29497 -1.72919,1.05373 -4.01212,1.91588 -5.07318,1.91588 -2.41386,0 -9.67503,-3.78476 -15.16291,-7.90341 -3.67225,-2.756 -4.94487,-3.14871 -10.56264,-3.25937 -4.32238,-0.0851 -8.51973,-0.9384 -12.98328,-2.63927 -3.62776,-1.3824 -8.0929,-2.51344 -9.92252,-2.51344 -1.82962,0 -6.63939,-0.83631 -10.68837,-1.85846 -6.27571,-1.58429 -10.27315,-1.82703 -27.09613,-1.6454 l -19.73435,0.21305 -12.09422,6.06256 c -11.19744,5.61303 -12.86698,6.82399 -22.51618,16.33156 -6.54491,6.44885 -12.63892,11.48449 -16.38141,13.53637 -5.39005,2.95519 -6.20318,3.82154 -8.51023,9.06729 -1.40292,3.18995 -4.01448,9.09337 -5.80347,13.11871 -1.78898,4.02534 -3.25271,7.93568 -3.25271,8.68965 0,0.75397 -1.3331,3.47183 -2.96245,6.0397 -3.31074,5.21775 -3.45266,9.55141 -0.5823,17.78085 0.82851,2.37534 1.96302,6.91009 2.52115,10.07721 1.27644,7.24316 8.96131,18.95604 18.87049,28.7614 3.75114,3.71184 7.55932,7.89667 8.4626,9.29962 1.98041,3.07587 12.37439,8.30157 23.62296,11.87674 4.48911,1.42679 10.55818,3.60747 13.48682,4.84596 2.92862,1.23848 8.36898,2.98202 12.08969,3.87452 10.33515,2.47914 22.29021,0.44477 48.23903,-8.20871 28.7696,-9.59417 37.3364,-14.14816 52.96901,-28.15757 19.48088,-17.45808 24.78215,-23.21431 28.40871,-30.84681 1.8776,-3.95162 4.00813,-7.67774 4.7345,-8.28027 0.72638,-0.60252 4.0375,-1.33629 7.35805,-1.63058 4.00784,-0.35522 7.65135,-1.4242 10.83857,-3.17995 2.64066,-1.45466 9.77043,-4.47867 15.84395,-6.72 10.00908,-3.69371 11.83416,-4.06863 19.49737,-4.00534 6.75735,0.0558 9.84163,-0.42374 15.36383,-2.38877 6.36621,-2.26537 8.64491,-2.50912 28.99471,-3.10162 12.56476,-0.36582 25.66786,-0.24619 30.39558,0.2775 6.85168,0.75898 9.95748,0.61059 17.69722,-0.84552 l 9.38716,-1.76603 7.74911,2.1351 c 4.26201,1.1743 10.77387,2.81904 14.47079,3.65497 3.69692,0.83593 9.22709,2.78151 12.28926,4.32352 4.95238,2.49386 6.45668,2.78616 13.61376,2.64523 6.7506,-0.13291 8.58788,0.17619 11.41045,1.91972 1.85037,1.14299 5.4466,2.30927 7.99163,2.59173 4.11844,0.45711 5.20816,0.13885 9.90866,-2.89388 12.22923,-7.89024 18.40589,-9.55032 25.48297,-6.84897 5.46934,2.08766 12.82324,9.19707 15.71992,15.19731 2.38356,4.93732 5.80537,17.03117 5.83237,20.6136 0.0112,1.49026 0.85456,2.50191 2.65712,3.1875 2.38693,0.90784 2.91744,0.68378 5.52137,-2.3319 1.5844,-1.83493 6.02796,-4.96239 9.87458,-6.94991 l 6.99387,-3.61369 2.60853,1.93829 c 3.87205,2.87717 3.96429,7.44948 0.25355,12.56931 -3.50248,4.8325 -3.72547,8.51639 -0.87209,14.40759 1.4428,2.97886 2.29426,7.28265 2.8606,14.45911 1.77488,22.4905 4.74,28.99079 15.73029,34.48473 2.11253,1.05603 6.49551,4.72529 9.73996,8.15391 4.55874,4.81754 7.17675,6.711 11.52287,8.33388 6.84928,2.55759 8.15182,3.68234 11.85098,10.23344 2.11111,3.73873 3.85012,5.52939 6.40678,6.59707 3.17642,1.3265 3.67062,1.31939 5.2121,-0.0749 3.81218,-3.44819 4.71964,-7.39233 4.71964,-20.51333 0,-12.78724 1.20977,-18.19235 4.10567,-18.34359 0.64661,-0.0338 5.06461,-0.0287 9.8178,0.0113 4.75318,0.04 11.01874,-0.47842 13.92346,-1.15211 4.13249,-0.95844 6.43015,-0.98105 10.56264,-0.10392 7.62922,1.61931 17.41244,1.5556 21.47233,-0.13984 7.44368,-3.10854 12.41568,-1.79324 21.35671,5.64968 l 3.32056,2.7642 5.01219,-1.9041 c 2.75672,-1.04725 7.31629,-2.83868 10.13238,-3.98095 l 5.12019,-2.07685 3.12913,3.13622 c 7.97968,7.99778 3.56472,29.28101 -7.23152,34.86102 -2.2247,1.14984 -2.77714,2.07527 -2.77714,4.65228 0,1.78355 0.68741,3.7871 1.54277,4.49662 3.9088,3.24231 5.81841,3.64804 16.29626,3.4625 9.60329,-0.17002 10.97777,-0.42155 14.14068,-2.58767 z M 701.46853,446.51647 c -4.31453,-6.32227 -4.86563,-10.63528 -2.76197,-21.61588 0.35099,-1.83211 1.60633,-3.22645 4.02961,-4.47586 3.98272,-2.05342 19.36376,-17.56368 19.36376,-19.52644 0,-0.70504 0.58911,-2.08713 1.30914,-3.07132 1.24374,-1.70002 1.3963,-1.64925 3.05366,1.01623 0.95948,1.54312 3.04777,4.20928 4.64065,5.9248 2.407,2.59233 3.5978,3.11914 7.05043,3.11914 3.71291,0 4.6366,-0.49832 8.69385,-4.69023 5.44624,-5.62701 9.43761,-7.79116 14.33433,-7.77218 5.29186,0.0205 8.16437,1.82647 10.61032,6.67069 2.82368,5.59232 2.72604,7.95286 -0.62146,15.02507 -3.60105,7.60788 -5.65921,9.00162 -13.29286,9.00162 h -6.04515 l -5.96138,5.75841 c -3.27877,3.16712 -6.34931,5.75841 -6.82341,5.75841 -0.4741,0 -3.45036,-1.72753 -6.61389,-3.83894 -7.6095,-5.07876 -11.25762,-5.16411 -15.78214,-0.36923 -1.80075,1.90833 -4.38565,5.68729 -5.74423,8.39768 -2.60934,5.20566 -4.91707,8.28704 -6.20638,8.28704 -0.42724,0 -1.88203,-1.61955 -3.23288,-3.59901 z m 29.27355,-60.59691 c 0,-2.12482 2.36242,-5.05043 5.8052,-7.18913 2.37047,-1.47256 2.49814,-1.42748 4.22327,1.49141 1.72659,2.92134 1.72696,3.04785 0.0128,4.30064 -0.97138,0.70992 -2.52227,1.29076 -3.44642,1.29076 -0.92416,0 -1.94734,0.43188 -2.27374,0.95973 -1.06868,1.72826 -4.32108,1.0859 -4.32108,-0.85341 z m 303.25332,135.10243 c 3.4326,-3.35423 3.9498,-6.83119 1.5299,-10.28427 -2.634,-3.75864 -5.2617,-2.3756 -6.7775,3.56722 -1.414,5.5442 -1.3758,7.85628 0.1486,8.97564 1.4855,1.09081 1.8255,0.94022 5.099,-2.25859 z M 729.27943,316.29625 c 2.38297,-1.39578 5.00856,-3.84413 5.83466,-5.44078 2.05277,-3.96752 1.48668,-8.60025 -1.16991,-9.5743 -1.6635,-0.60993 -3.2601,0.18488 -7.98557,3.97532 -4.72055,3.78651 -6.62974,4.73769 -9.50943,4.73769 -4.20059,0 -12.32414,2.24862 -14.88505,4.12022 -1.56276,1.1421 -1.61881,1.55385 -0.46344,3.40444 1.25656,2.01268 1.80947,2.08785 12.58019,1.7102 10.05117,-0.35242 11.73303,-0.66863 15.59855,-2.93279 z m 208.61484,-1.8016 c -0.64312,-1.92836 -2.62123,-1.78642 -2.62123,0.1881 0,1.3802 0.44303,1.79942 1.48094,1.40134 0.81453,-0.3124 1.32765,-1.02765 1.14029,-1.58944 z"
     style="fill:#d37b88;stroke-width:0.9599871" />
  <path
     inkscape:connector-curvature="0"
     id="path28"
     d="m 799.76408,583.08356 c -0.23943,-0.2393 -6.46898,-0.86546 -13.84345,-1.39147 -10.80918,-0.77099 -15.64168,-1.63102 -24.93101,-4.43686 -20.38294,-6.15667 -26.77176,-7.94598 -32.43723,-9.08468 -5.98369,-1.20265 -24.09932,-10.09404 -39.1006,-19.1911 -11.94165,-7.24163 -16.21777,-9.36979 -25.3183,-12.60048 -4.15463,-1.47489 -10.42019,-4.40831 -13.92347,-6.51871 -3.50328,-2.11041 -12.83822,-6.95594 -20.74431,-10.76785 -12.73464,-6.14 -15.28359,-7.78642 -22.34075,-14.43035 -6.0229,-5.67022 -8.98434,-7.75585 -12.14059,-8.55019 -3.4104,-0.8583 -4.57914,-1.7701 -6.38484,-4.98122 -3.10064,-5.51396 -8.11244,-10.82245 -11.56835,-12.25318 -2.36764,-0.9802 -4.18606,-0.9777 -9.43919,0.013 -7.44546,1.40412 -13.61168,0.64133 -27.62443,-3.41728 -9.90545,-2.86898 -12.63458,-2.61754 -22.40988,2.06469 l -6.84678,3.27951 -9.77426,-0.91144 c -5.37584,-0.50127 -12.15085,-1.57367 -15.05557,-2.38311 -2.90473,-0.80943 -8.52213,-1.47648 -12.48311,-1.48233 -6.0672,-0.009 -8.18512,0.4553 -13.44335,2.94683 -4.85958,2.30264 -7.03129,2.83242 -9.80831,2.3927 -2.27596,-0.36038 -4.98962,0.004 -7.49848,1.00758 -5.04237,2.01649 -15.5037,1.37809 -18.25917,-1.11428 -3.05271,-2.76121 -14.63428,-2.00166 -23.80378,1.56112 -6.57234,2.55366 -8.09204,2.79703 -14.09031,2.25651 -5.51008,-0.49653 -7.84951,-0.22344 -12.96323,1.51325 -5.40989,1.83727 -7.58083,2.05033 -16.32232,1.60189 -9.73413,-0.49935 -10.7461,-0.35112 -29.2873,4.28988 -10.56263,2.6439 -22.22954,5.37399 -25.92646,6.06686 -3.69692,0.69287 -9.09827,2.13125 -12.00299,3.19641 -9.97047,3.65617 -19.92788,5.19302 -28.80718,4.44617 -4.48912,-0.37759 -14.27806,-0.63729 -21.75319,-0.5771 -8.45738,0.0681 -19.02956,-0.59035 -27.98874,-1.74314 -12.67845,-1.63136 -15.58454,-2.36233 -24.33829,-6.12186 -16.01409,-6.87768 -25.84927,-12.90058 -37.84328,-23.17457 -12.68849,-10.86887 -14.367,-13.02033 -21.93635,-28.11721 -9.98391,-19.91265 -12.66148,-36.26045 -9.77793,-59.69854 1.94547,-15.81323 3.07537,-21.09209 5.88584,-27.49823 3.25122,-7.41077 16.29561,-25.75661 24.20836,-34.04702 6.08533,-6.37575 18.79476,-16.19328 20.96326,-16.19328 0.40947,0 8.37133,-3.67345 17.69305,-8.16324 19.13539,-9.2165 33.86176,-13.63563 54.20224,-16.26514 13.46072,-1.74014 51.15741,-1.99815 61.4952,-0.42091 8.75478,1.33572 64.12849,1.26182 73.4583,-0.098 6.73602,-0.9818 11.59761,-1.41479 42.87035,-3.81819 15.57722,-1.19716 28.9209,-3.69593 57.3827,-10.74562 14.27349,-3.5354 26.8014,-6.04909 33.12826,-6.64711 5.59596,-0.52893 16.00792,-1.59477 23.13769,-2.36854 7.12978,-0.77378 18.14852,-1.41951 24.4861,-1.43498 6.33758,-0.0154 16.06001,-0.49373 21.60539,-1.06281 9.89235,-1.01517 19.22462,-1.4364 45.13124,-2.03712 9.3436,-0.21665 15.24226,-0.88239 21.12527,-2.38422 19.00199,-4.85092 36.54957,-7.24525 65.59032,-8.9497 20.14341,-1.18225 17.55773,-1.32753 63.03002,3.54132 9.54945,1.02249 16.51032,2.36146 22.33985,4.29722 11.82932,3.92804 13.07123,3.77005 20.16053,-2.56478 2.2715,-2.02976 6.0539,-3.93763 10.45567,-5.27393 6.03965,-1.83352 8.34191,-2.02653 18.52652,-1.55323 12.89115,0.59908 29.97778,3.6632 35.15571,6.30441 1.84846,0.94288 4.80604,3.84365 6.5724,6.44616 3.01188,4.4376 3.1905,5.14957 2.87267,11.44997 -0.67205,13.32212 -9.83659,25.74207 -22.57821,30.59841 -8.52029,3.24744 -9.75365,4.50631 -7.61345,7.77095 0.86136,1.3139 2.74893,2.64777 4.19461,2.96417 1.44567,0.3164 3.1724,0.74302 3.83714,0.94805 3.60931,1.11323 10.6901,-4.30648 13.86228,-10.61033 2.50117,-4.97039 9.8705,-12.60225 14.45919,-14.97432 4.62898,-2.39289 17.37773,-4.10421 26.08545,-3.50157 14.76692,1.02197 30.27698,10.40187 35.80534,21.65371 2.27298,4.6262 2.66239,6.55879 2.55049,12.65781 -0.0726,3.95891 -0.28868,8.02457 -0.48012,9.0348 -0.23502,1.24028 0.58747,2.37855 2.53266,3.50502 2.45332,1.42073 3.80678,1.53004 9.12228,0.73678 8.94722,-1.33525 16.49086,-0.35139 23.40304,3.05227 7.41196,3.64982 15.81356,10.27439 19.17046,15.11561 5.8913,8.49687 8.1089,21.81423 4.9075,29.47213 -0.8201,1.96181 -1.3602,5.36162 -1.2003,7.55515 l 0.2909,3.98823 7.6819,0.58795 c 9.3191,0.71326 12.8798,2.18341 19.4444,8.02832 3.5308,3.1437 6.0269,6.55038 8.3326,11.37225 8.9074,18.6275 6.2665,32.5361 -8.178,43.0696 -3.6497,2.66147 -6.6358,5.13706 -6.6358,5.5013 0,1.11802 5.0499,5.44694 9.6024,8.23147 8.6539,5.29311 17.495,13.2054 21.2583,19.02479 10.5209,16.26926 9.7107,32.9911 -2.4194,49.93993 -5.4498,7.6147 -13.66,15.3649 -22.6798,21.40914 -3.961,2.65428 -10.2266,6.89822 -13.9235,9.431 -13.7167,9.39735 -28.5557,15.11924 -43.70845,16.85386 -9.2109,1.05444 -11.00194,0.97515 -21.10769,-0.93442 -13.74009,-2.5963 -17.59728,-3.98937 -27.21984,-9.83078 -8.61579,-5.23024 -12.49336,-6.55994 -19.15219,-6.56769 -3.86784,-0.005 -11.64502,-1.23065 -21.50368,-3.39027 -1.47643,-0.32343 -3.90066,0.92004 -8.17031,4.19084 -6.27873,4.80985 -9.70747,6.28807 -17.09719,7.37105 -2.37659,0.34829 -9.29031,1.83487 -15.36383,3.30349 -23.63138,5.71427 -54.7733,10.23387 -56.76934,8.23889 z M 1018.1256,546.2994 c 14.9638,-8.05159 25.1364,-19.43731 27.5586,-30.84484 1.147,-5.40226 1.0819,-6.25655 -0.8642,-11.33942 -3.5065,-9.15815 -13.841,-21.8816 -20.6073,-25.37092 -2.0479,-1.05607 -6.0168,-2.1567 -8.8197,-2.44583 -4.3736,-0.45116 -5.731,-0.15394 -9.5724,2.09614 -3.5195,2.06145 -4.9029,3.64793 -6.47233,7.42246 -1.70048,4.08977 -3.04952,5.49785 -9.11036,9.50944 -3.91288,2.58985 -7.50927,4.46489 -7.99188,4.16675 -1.97934,-1.22265 -6.92573,3.11171 -9.62688,8.43578 -2.34942,4.63067 -2.88658,7.07641 -3.37246,15.35576 -0.57211,9.74647 -0.54973,9.88523 2.16899,13.48047 3.33299,4.40743 15.32696,10.83467 23.79819,12.75281 8.53033,1.93149 15.03973,1.01704 22.91173,-3.2186 z m -231.55596,-3.99117 c 2.15355,-1.76819 2.1921,-1.99618 0.77088,-4.55875 -1.2641,-2.27928 -2.00842,-2.64716 -4.80119,-2.37302 -5.92304,0.58142 -7.9097,4.40276 -3.94769,7.59338 2.16038,1.73977 5.37829,1.47291 7.978,-0.66161 z m 87.45833,-11.61725 c 7.64533,-2.1222 12.00844,-8.41719 16.12513,-23.26495 1.58424,-5.71392 1.91245,-9.91105 1.92842,-24.66027 0.0215,-19.83763 0.99896,-25.15194 8.30028,-45.12683 3.482,-9.52605 3.67773,-10.65463 3.57866,-20.63431 -0.0793,-7.98436 -0.70817,-12.87803 -2.58066,-20.08101 -2.65963,-10.23089 -6.63658,-17.03817 -18.64329,-31.91138 -3.05686,-3.78667 -9.38808,-11.63059 -14.06936,-17.43094 -9.4487,-11.70742 -15.16052,-16.41772 -20.83017,-17.17778 -4.38421,-0.58775 -4.44553,-0.39379 -2.34631,7.42298 2.22139,8.2717 1.89226,12.18861 -1.33264,15.85963 -3.16255,3.60006 -10.67749,21.97555 -10.65619,26.05645 0.0176,3.37318 0.94838,4.99828 8.14788,14.22604 3.16878,4.06152 7.71021,10.04239 10.09205,13.29083 2.38185,3.24843 5.90437,7.44027 7.82783,9.31518 l 3.49721,3.40894 0.0355,9.06762 c 0.0297,7.59112 -0.38495,10.16154 -2.54651,15.78576 -2.3744,6.17798 -2.95215,6.90161 -7.18589,8.99996 -4.39065,2.17614 -4.98566,2.23256 -12.8468,1.21834 -8.10318,-1.04547 -8.29088,-1.02315 -11.07366,1.31717 -3.6406,3.06175 -5.76961,2.99731 -14.19515,-0.42969 -7.46591,-3.03668 -9.92389,-4.80763 -12.52419,-9.02354 -1.52153,-2.46688 -1.62833,-5.12071 -1.16266,-28.88821 0.28202,-14.39447 0.25024,-27.2172 -0.0706,-28.49493 -1.08406,-4.31696 -5.91006,-8.07131 -13.1852,-10.25732 -7.99027,-2.40088 -9.75859,-1.90157 -16.01542,4.52221 l -3.62466,3.72138 -7.60695,-0.51148 -7.60696,-0.51146 -7.94944,-7.62778 c -7.78811,-7.47297 -8.06543,-7.6383 -13.66315,-8.14562 -8.72699,-0.79091 -12.56354,0.22625 -13.75674,3.64726 -1.14841,3.2926 -2.67896,4.26916 -7.99136,5.09882 -2.99303,0.46745 -4.66856,0.12128 -7.58984,-1.56808 -2.06189,-1.19237 -4.20954,-3.03171 -4.77257,-4.08742 -0.56301,-1.05571 -2.05496,-3.59948 -3.31541,-5.65282 l -2.29176,-3.73335 -7.63934,0.5888 -7.63934,0.58879 -8.58215,-8.43994 c -7.39927,-7.2766 -8.58223,-8.88115 -8.58223,-11.64075 0,-4.47056 4.1509,-9.81996 7.05463,-9.09155 1.46838,0.36835 3.24553,-0.31326 5.61697,-2.15435 1.90794,-1.48124 4.77092,-3.40841 6.36217,-4.28259 2.67788,-1.47114 2.85739,-1.89966 2.41233,-5.75841 -0.26447,-2.29294 -1.52512,-7.30394 -2.80144,-11.13556 -1.27632,-3.83162 -2.32059,-7.47453 -2.32059,-8.09537 0,-1.72597 -6.69847,-14.41711 -8.85553,-16.77796 -1.04932,-1.14846 -3.2478,-2.73674 -4.88552,-3.52949 -2.65637,-1.28584 -3.34489,-1.28191 -6.38123,0.0365 -2.2489,0.97647 -8.61581,1.74618 -18.76741,2.26885 -8.4501,0.43506 -17.09226,1.31108 -19.20478,1.94669 -2.587,0.77839 -14.65638,1.24487 -36.96922,1.42888 -37.02527,0.30533 -44.22646,0.61619 -51.85292,2.23843 -3.20208,0.68112 -8.16179,0.87699 -12.59781,0.49752 -5.07649,-0.43426 -10.07424,-0.13779 -16.32406,0.96836 -4.95417,0.87685 -12.36742,2.19023 -16.47391,2.91866 -4.80271,0.85192 -10.11248,2.68032 -14.88371,5.12516 -4.07955,2.09042 -9.36186,4.1177 -11.73845,4.50508 -8.57676,1.398 -27.94822,10.71442 -41.60493,20.0093 -6.4654,4.40039 -6.63164,4.45223 -12.00299,3.74278 -6.62911,-0.87559 -13.2649,-0.87066 -16.48955,0.0123 -1.37419,0.37626 -4.03851,2.93616 -6.23145,5.98726 -2.20916,3.07367 -4.44487,5.21735 -5.28132,5.06394 -0.79774,-0.14633 -2.21987,-1.83882 -3.16027,-3.76111 -1.55593,-3.18049 -2.43278,-3.72034 -9.74295,-5.99834 -9.64409,-3.00529 -13.34217,-3.12467 -18.08533,-0.58382 -1.97077,1.05571 -4.4662,1.91947 -5.54541,1.91947 -2.34744,0 -8.84273,-3.1552 -13.16889,-6.39702 -4.90262,-3.67379 -9.41343,-5.20988 -13.44032,-4.57687 -2.67992,0.42126 -5.65083,-0.1907 -11.59104,-2.38757 -4.39311,-1.62477 -9.72246,-2.95408 -11.843,-2.95408 -2.12054,0 -7.16832,-0.82681 -11.21731,-1.83735 -6.26119,-1.56266 -10.16209,-1.79265 -26.09293,-1.5384 l -18.73116,0.29895 -11.43812,5.61728 c -9.07902,4.45871 -13.06207,7.10185 -19.31177,12.81528 -4.33049,3.95891 -9.02431,8.57197 -10.4307,10.25126 -1.40639,1.67927 -5.25548,4.56147 -8.55353,6.40488 -3.29806,1.84341 -6.70294,4.14043 -7.56642,5.10451 -1.89474,2.11547 -8.92089,17.89524 -11.29393,25.3646 -0.93953,2.95723 -2.84743,7.05238 -4.23978,9.10033 -3.05181,4.48879 -3.22735,8.8505 -0.58999,14.65968 1.04467,2.30103 1.90452,5.10825 1.91079,6.23827 0.0493,8.87759 8.28114,23.00489 20.97955,36.00439 4.03486,4.13054 8.2665,8.56415 9.40364,9.85247 2.63648,2.98697 10.12118,6.62 20.4981,9.94965 4.48912,1.44042 10.53862,3.61685 13.44335,4.8365 2.90472,1.21965 8.81185,3.11261 13.12695,4.20657 12.13962,3.07765 20.99144,1.54756 53.02504,-9.16574 26.08561,-8.72406 34.00906,-13.06988 50.03696,-27.44403 18.81074,-16.86986 24.61617,-23.20843 28.33604,-30.93832 1.9187,-3.98704 4.2936,-7.67978 5.27755,-8.2061 0.98395,-0.52632 3.77422,-0.95694 6.2006,-0.95694 3.0389,0 6.27046,-0.93853 10.3857,-3.01628 3.28575,-1.65895 10.51124,-4.74781 16.05662,-6.86416 8.99635,-3.43336 11.11694,-3.87411 19.6849,-4.09136 7.11927,-0.1805 11.09226,-0.79801 15.36383,-2.38796 5.1265,-1.90815 8.35409,-2.22262 29.2873,-2.85342 13.7451,-0.4142 26.52123,-0.33236 30.73068,0.19685 5.61777,0.70625 8.79053,0.57513 14.40359,-0.59525 9.95084,-2.07485 15.3433,-1.88564 23.36154,0.81974 3.78563,1.27728 8.77396,2.62009 11.08516,2.98402 2.3112,0.36394 7.40693,2.18283 11.32383,4.04198 6.63214,3.14793 7.59733,3.34608 14.04236,2.88289 6.05512,-0.43518 7.51214,-0.19824 11.64939,1.89446 7.53506,3.81137 12.35374,3.48005 19.7995,-1.36139 8.11417,-5.27605 12.43363,-7.00787 17.45145,-6.99688 4.92716,0.0108 12.62119,4.09134 16.61558,8.81211 4.89624,5.78663 10.02462,19.30623 10.0505,26.49547 0.01,2.64744 0.52212,3.38824 3.13218,4.52673 3.03633,1.32441 3.19873,1.2744 6.00149,-1.84843 2.8689,-3.19651 14.39895,-10.16257 16.82086,-10.16257 0.69986,0 2.06268,0.71476 3.0285,1.58835 2.72721,2.4668 2.2266,7.79669 -1.15141,12.25884 -3.47831,4.59466 -3.57198,7.45437 -0.46278,14.12976 1.76322,3.7856 2.39368,6.75709 2.4006,11.31441 0.005,3.39928 0.47547,8.79779 1.04514,11.99669 2.72151,15.28222 5.70273,20.43805 14.77752,25.55686 2.68668,1.51547 7.59804,5.54852 10.91413,8.96233 4.94128,5.08687 7.11133,6.56683 12.02567,8.20135 5.73417,1.90721 6.15875,2.27179 9.70836,8.33657 2.8908,4.93915 4.57928,6.73938 7.63273,8.13786 l 3.92078,1.79571 2.65729,-3.09767 c 3.74527,-4.36594 4.53304,-8.1618 4.53915,-21.87156 0.007,-15.946 0.2364,-16.28912 10.41899,-15.59156 5.18742,0.35536 9.773,0.0249 14.65237,-1.05595 6.40657,-1.41915 7.76021,-1.43326 13.82369,-0.1442 8.3916,1.78403 14.99015,1.84423 18.99556,0.17333 7.34484,-3.06397 9.89441,-2.90876 16.31227,0.99298 3.29035,2.00038 6.32801,4.18096 6.75035,4.84574 1.27958,2.01411 5.25955,1.38151 14.28441,-2.27046 l 8.59778,-3.47916 2.74709,2.6305 c 2.34387,2.24439 2.84175,3.6401 3.39197,9.5087 1.06664,11.37654 -2.2298,19.12272 -10.30632,24.21853 -3.02417,1.90807 -3.63888,2.8362 -3.63888,5.4942 0,3.37796 1.40572,5.10225 6.24156,7.65604 3.37483,1.78224 16.27296,2.13472 21.81562,0.59618 z M 702.15033,445.12156 c -2.94988,-4.86866 -3.35377,-7.14145 -2.63375,-14.821 0.65345,-6.96974 0.73277,-7.13862 4.18286,-8.90786 4.07481,-2.08961 20.32097,-18.67626 20.32097,-20.74688 0,-2.0301 1.69112,-1.71099 2.37689,0.44852 0.96245,3.03084 7.92972,8.71227 10.68404,8.71227 3.90523,0 9.0107,-2.88243 11.2764,-6.36639 2.92452,-4.49704 10.21549,-7.54962 15.40649,-6.45037 7.61968,1.61355 10.61033,11.1158 6.23578,19.81308 -3.42075,6.80098 -4.30559,7.39971 -10.93562,7.39971 -6.58412,0 -10.33985,2.03688 -16.60729,9.00679 -3.31618,3.68788 -3.44368,3.6874 -8.40587,-0.0316 -10.81245,-8.10348 -16.77757,-5.92451 -24.91453,9.10088 -1.5844,2.92568 -3.37318,5.47404 -3.97508,5.66301 -0.60188,0.18898 -1.95697,-1.08013 -3.01129,-2.82022 z m 29.97527,-59.40024 c -0.31321,-0.50651 0.81393,-2.21257 2.50477,-3.79121 2.40254,-2.24313 3.36263,-2.63103 4.39417,-1.77539 1.64874,1.36761 1.72442,3.73705 0.11963,3.74496 -0.66016,0.003 -2.38127,0.62167 -3.82469,1.37425 -1.58609,0.82699 -2.8497,1.00398 -3.19388,0.44739 z M 995.4859,380.9 c 5.1765,-2.48044 9.6137,-7.54339 10.432,-11.90301 1.3333,-7.10377 -4.992,-16.94809 -13.5425,-21.07668 -5.45531,-2.63408 -10.04967,-2.41678 -14.0943,0.66661 -3.89156,2.96663 -4.57602,6.27089 -4.59013,22.15741 l -0.01,9.40434 4.08101,1.90097 c 4.88224,2.2742 11.46862,1.84694 17.72227,-1.14964 z m -61.06089,-51.89919 c 3.99123,-1.82629 6.03936,-3.55289 8.34958,-7.03885 3.86602,-5.83356 3.99922,-10.03172 0.4794,-15.10817 -3.53557,-5.09914 -8.42463,-7.4167 -15.64607,-7.4167 -5.4823,0 -6.07026,0.22952 -10.10111,3.94306 -6.01308,5.53978 -9.31144,12.61988 -8.93473,19.17891 0.26657,4.64113 0.61198,5.34135 3.65522,7.40978 2.9513,2.00594 4.18633,2.23357 10.13504,1.86807 4.4815,-0.27536 8.56405,-1.23522 12.06267,-2.8361 z M 729.27943,316.29625 c 2.38297,-1.39578 5.00856,-3.84413 5.83466,-5.44078 2.05277,-3.96752 1.48668,-8.60025 -1.16991,-9.5743 -1.6635,-0.60993 -3.2601,0.18488 -7.98557,3.97532 -4.72055,3.78651 -6.62974,4.73769 -9.50943,4.73769 -4.20059,0 -12.32414,2.24862 -14.88505,4.12022 -1.56276,1.1421 -1.61881,1.55385 -0.46344,3.40444 1.25656,2.01268 1.80947,2.08785 12.58019,1.7102 10.05117,-0.35242 11.73303,-0.66863 15.59855,-2.93279 z"
     style="fill:#c16872;stroke-width:0.9599871" />
  <path
     inkscape:connector-curvature="0"
     id="path26"
     d="m 800.72432,583.08356 c -0.23943,-0.2393 -6.46898,-0.87994 -13.84345,-1.42365 -7.37448,-0.54371 -15.56868,-1.62822 -18.20934,-2.41002 -2.64066,-0.7818 -8.69016,-2.54188 -13.44335,-3.91129 -4.75318,-1.36942 -11.25347,-3.32425 -14.4451,-4.34407 -3.19161,-1.01983 -7.9448,-2.1467 -10.56263,-2.50416 -5.25315,-0.71731 -26.18535,-11.00385 -41.89085,-20.58607 -10.1567,-6.19681 -19.70593,-10.75428 -26.02212,-12.41934 -2.23491,-0.58916 -7.08822,-2.93111 -10.78514,-5.20432 -7.77707,-4.78206 -23.83044,-12.87093 -30.56039,-15.39858 -3.10603,-1.16657 -7.43266,-4.35733 -13.12207,-9.67715 -5.89749,-5.51435 -9.71578,-8.30435 -12.51039,-9.14119 -3.37916,-1.01188 -4.62134,-2.15258 -7.76952,-7.13476 -2.06102,-3.26167 -5.47497,-7.12696 -7.58656,-8.58953 -3.55844,-2.4647 -4.24278,-2.60186 -9.35593,-1.87518 -9.10997,1.2947 -15.57452,0.78279 -25.6817,-2.03369 -13.374,-3.72682 -18.42078,-3.57761 -27.39542,0.8099 l -7.17319,3.50682 -9.12227,-0.87474 c -5.01725,-0.48111 -11.49887,-1.53775 -14.40359,-2.34809 -2.90473,-0.81034 -8.95423,-1.473 -13.44335,-1.47257 -7.17646,6.7e-4 -8.85221,0.35055 -13.87763,2.8975 -4.69466,2.37932 -6.43017,2.78965 -9.71598,2.29717 -2.85751,-0.42828 -4.914,-0.12738 -7.19829,1.05325 -4.13152,2.13538 -15.50388,1.42792 -18.34418,-1.14116 -2.98901,-2.7036 -15.12384,-1.89187 -24.25533,1.6225 -6.5232,2.51055 -7.98337,2.72937 -14.73852,2.20872 -6.26008,-0.48249 -8.0459,-0.27965 -10.81677,1.22862 -2.79445,1.52112 -5.51856,1.81835 -17.24225,1.88132 -13.36363,0.0718 -14.63775,0.25834 -31.6879,4.63951 -9.77043,2.51058 -20.78918,5.14875 -24.4861,5.8626 -3.69692,0.71385 -9.09827,2.15343 -12.00299,3.19907 -11.23238,4.0434 -19.32046,5.05256 -32.95857,4.11229 -6.95904,-0.47979 -15.8936,-0.6569 -19.85459,-0.39358 -4.48465,0.29815 -13.17951,-0.28364 -23.04574,-1.542 -14.27554,-1.82074 -16.7945,-2.43469 -25.44634,-6.20204 -14.87709,-6.47805 -27.08868,-13.66393 -35.91733,-21.13546 -14.37511,-12.16539 -15.61339,-13.69047 -23.12871,-28.48578 -11.82774,-23.2851 -14.15423,-37.10258 -10.69752,-63.53465 1.11366,-8.51574 2.97462,-17.97967 4.26429,-21.68617 2.73866,-7.8709 16.4113,-28.18464 25.33145,-37.63551 5.90354,-6.25478 16.31647,-14.00793 21.95603,-16.34779 1.55537,-0.64532 10.38984,-4.72926 19.63215,-9.07542 18.59102,-8.74236 32.08913,-12.66623 52.7521,-15.33494 12.96215,-1.67411 49.09771,-1.88668 59.11577,-0.34776 8.78024,1.34879 65.99577,1.27224 75.37878,-0.10085 6.73576,-0.98569 11.58218,-1.4178 42.87034,-3.82239 15.57723,-1.19716 28.92091,-3.69593 57.38271,-10.74562 14.27349,-3.5354 26.8014,-6.04909 33.12826,-6.64711 5.59595,-0.52893 16.00792,-1.59477 23.13769,-2.36854 7.12978,-0.77378 18.14852,-1.41951 24.4861,-1.43498 6.33758,-0.0154 16.06,-0.48126 21.60539,-1.03508 9.71761,-0.97051 17.23868,-1.3082 45.13124,-2.02636 9.2542,-0.23827 15.29854,-0.93069 21.12527,-2.42005 18.72865,-4.78724 36.29723,-7.20566 64.81615,-8.92233 19.26674,-1.15975 17.07583,-1.28412 61.93543,3.5158 9.5311,1.01982 16.61414,2.37543 22.45272,4.29721 11.70297,3.85205 14.04755,3.7213 19.25213,-1.0736 6.85363,-6.31414 13.12393,-8.1254 27.9125,-8.06296 14.21212,0.06 32.12117,3.09313 38.19041,6.46801 1.99199,1.10768 4.96547,4.1068 6.60773,6.6647 2.76399,4.30504 2.95158,5.12927 2.52358,11.08841 -0.9568,13.32191 -12.36163,28.06887 -23.51071,30.40043 -3.53593,0.73946 -7.96707,3.91523 -7.96707,5.70995 0,1.89754 3.25933,4.39211 7.13662,5.46212 6.72834,1.85681 12.42572,-2.06318 17.61613,-12.12053 2.20604,-4.27459 7.62556,-9.70245 12.70141,-12.72097 4.1107,-2.44456 18.19583,-4.48022 26.3553,-3.80899 7.84894,0.64568 20.37872,5.64721 26.38891,10.53371 9.47844,7.70631 14.01246,18.87969 11.70134,28.83595 -1.13005,4.8682 -1.0917,5.07397 1.33725,7.17321 2.229,1.92642 3.09456,2.08284 7.96643,1.43961 11.09989,-1.46554 17.88081,-0.77495 24.53383,2.49857 8.31882,4.0932 16.13502,10.02756 19.64932,14.9185 6.1271,8.52747 8.5108,21.45133 5.3929,29.23955 -0.8254,2.06205 -1.3655,5.6338 -1.2003,7.93724 l 0.3007,4.18806 7.8199,0.64826 c 9.2763,0.76899 13.6429,2.74628 20.2319,9.16145 5.3251,5.18464 8.9995,12.21449 11.4214,21.85109 3.1394,12.49165 -1.1717,23.29499 -12.5648,31.48672 -3.4448,2.47683 -6.2633,5.08548 -6.2633,5.79698 0,0.71151 2.3967,2.98123 5.3258,5.04384 20.6991,14.57531 23.1069,16.91994 28.4907,27.74357 3.6011,7.23953 4.8042,13.35469 4.0466,20.56871 -1.6349,15.57048 -12.7151,31.32078 -30.5814,43.47094 -4.7971,3.26233 -11.5291,7.83579 -14.96,10.16324 -14.1305,9.58598 -29.2721,15.58634 -44.07241,17.46518 -8.16635,1.03669 -10.12053,0.94582 -20.64514,-0.96 -14.06101,-2.54619 -17.24435,-3.67475 -26.42947,-9.36986 -8.83384,-5.47731 -12.63477,-6.86291 -18.97342,-6.91663 -2.73387,-0.0231 -9.35282,-0.90541 -14.70878,-1.96052 -10.75982,-2.11967 -10.96673,-2.08031 -17.76988,3.38033 -5.31964,4.26988 -6.84508,4.94275 -13.94864,6.15265 -3.41902,0.58234 -11.61773,2.32716 -18.21938,3.87736 -24.54024,5.76258 -53.03803,10.03729 -54.84886,8.22741 z m 209.28938,-26.74441 c 14.062,-5.78905 32.3566,-20.85591 38.0834,-31.36434 2.5141,-4.61306 2.8773,-6.24653 2.8807,-12.95642 0,-6.91186 -0.351,-8.4038 -3.555,-14.95375 -4.0395,-8.2583 -13.8243,-19.50587 -20.2366,-23.26172 -5.1583,-3.0214 -13.0452,-4.49274 -24.0824,-4.49274 -8.12039,0 -9.11203,0.23039 -16.61592,3.86056 -20.43091,9.88398 -29.0317,25.23738 -30.64753,54.70979 -0.60247,10.98888 -0.48991,12.35117 1.30838,15.83563 2.36733,4.58702 8.25259,10.28999 12.21281,11.83447 11.91791,4.648 30.40626,5.00661 40.65216,0.78852 z m -176.3129,-0.57999 c 5.13446,-1.1114 12.9124,-3.35354 17.2843,-4.98255 4.37191,-1.629 10.9706,-3.81259 14.66376,-4.85242 17.78819,-5.00839 22.60599,-10.51577 27.98131,-31.98633 1.92877,-7.70401 2.55776,-13.38405 3.18836,-28.79205 0.83911,-20.50225 1.61576,-24.48969 8.50541,-43.66794 4.22762,-11.76814 5.10157,-19.79073 3.49106,-32.0467 -1.63613,-12.451 -1.88792,-13.4823 -5.82858,-23.87246 -3.79175,-9.99753 -7.985,-16.38698 -19.84819,-30.24361 -4.86221,-5.67922 -11.07732,-13.34109 -13.81136,-17.02637 -5.61411,-7.56741 -10.27216,-11.70677 -19.99524,-17.76874 -12.6831,-7.90741 -22.10424,-15.66432 -35.52885,-29.25277 -14.93578,-15.11803 -23.20609,-20.8953 -32.21158,-22.50155 -2.88077,-0.51381 -10.42305,-1.8809 -16.76063,-3.03795 -13.50524,-2.46566 -40.27433,-3.5824 -62.41555,-2.60383 -12.25238,0.54151 -16.6982,1.20856 -29.76742,4.46634 -14.76389,3.6802 -46.6527,9.95933 -56.65411,11.1556 -4.54424,0.54353 -38.85649,1.37582 -83.55552,2.02676 -17.29216,0.25181 -21.68906,0.63389 -30.72766,2.67019 -5.80136,1.30699 -13.14057,2.67374 -16.30936,3.03722 -3.16879,0.36348 -10.93253,2.56745 -17.25275,4.89771 -6.3202,2.33025 -14.3142,4.72397 -17.76442,5.31936 -3.45022,0.59538 -9.94604,2.28116 -14.43515,3.74617 -8.50046,2.77409 -15.66617,4.32386 -35.04874,7.58018 -20.63048,3.46598 -25.61656,3.96521 -48.49208,4.85536 l -22.56562,0.87808 -14.39573,-3.413 c -20.96133,-4.96962 -60.14806,-7.82608 -75.98071,-5.53851 -18.15685,2.62337 -26.59068,5.50531 -37.29407,12.74379 -3.71964,2.51553 -10.07944,6.19902 -14.13289,8.18553 -6.03692,2.95858 -9.09139,5.3803 -16.88772,13.38939 -11.50654,11.82052 -15.03629,16.98364 -21.4292,31.34543 -11.16302,25.07791 -11.17726,25.88964 -0.90335,51.49588 1.94188,4.83983 5.00902,11.24848 6.81588,14.24144 12.80807,21.2159 33.55585,36.73243 54.52895,40.78031 5.08823,0.98204 13.78845,2.91011 19.33383,4.28459 8.98913,2.22806 11.22798,2.43207 20.64515,1.88122 12.31077,-0.72011 26.20545,-3.32627 35.04873,-6.57394 3.43286,-1.26071 9.28611,-3.18164 13.00724,-4.26874 7.55223,-2.20633 26.9056,-11.44086 35.00472,-16.70264 2.90473,-1.88712 10.25056,-7.80193 16.32407,-13.14403 6.07352,-5.3421 13.6354,-11.25648 16.80419,-13.14307 3.16879,-1.88659 8.57013,-5.25344 12.00299,-7.48188 3.43286,-2.22844 9.05026,-5.70927 12.48311,-7.73518 3.43286,-2.02589 7.97535,-5.08505 10.09443,-6.79812 2.11908,-1.71306 5.91935,-3.63473 8.44503,-4.27037 4.42267,-1.11305 4.85247,-1.02713 11.64488,2.32811 3.879,1.91609 8.23171,3.48381 9.67269,3.48381 1.44098,0 6.34995,-1.67087 10.90882,-3.71304 4.55888,-2.04217 13.22517,-4.8859 19.25843,-6.3194 9.64698,-2.29212 12.59923,-2.57752 24.4861,-2.36706 7.43409,0.13162 20.97291,-0.2726 30.08626,-0.89827 14.19,-0.97421 17.46368,-0.93037 22.79423,0.30521 8.94356,2.07307 21.0517,8.38202 23.22344,12.10059 1.93356,3.31075 7.57644,6.65038 11.23696,6.65038 1.29967,0 6.0057,-0.86468 10.45784,-1.92151 5.95308,-1.4131 10.73677,-1.85748 18.0803,-1.67953 5.51498,0.13364 13.20975,-0.35095 17.1873,-1.08239 9.72523,-1.78841 14.13828,-0.62102 17.63896,4.66607 2.46151,3.71766 2.52606,4.20439 2.52606,19.04955 0,19.0733 0.5621,20.26399 11.4163,24.18341 5.96855,2.15523 7.74864,2.42278 11.21011,1.68492 5.00887,-1.06774 9.26104,0.75159 11.3946,4.87527 0.77296,1.49395 2.74781,8.03086 4.38856,14.52645 1.64075,6.49559 3.66979,13.13724 4.50899,14.75921 2.42951,4.69568 11.33213,12.81623 14.89043,13.58233 5.48932,1.18185 8.54903,3.31397 18.47234,12.87226 11.6157,11.18842 20.10402,16.70415 28.8132,18.72289 7.89895,1.83092 10.66365,3.25471 14.92664,7.68704 4.78403,4.97406 10.3202,7.93326 18.91938,10.11281 10.49263,2.65947 42.12795,2.16137 56.20114,-0.88491 z m 157.67797,-169.9793 c 13.67803,-5.69119 19.67453,-16.05633 15.32053,-26.48206 -3.8378,-9.1896 -12.39027,-15.65739 -23.29887,-17.61973 -6.8589,-1.23384 -8.96115,-0.7295 -16.51189,3.96122 -6.52656,4.05442 -9.04987,10.01825 -9.04987,21.389 0,7.93131 0.24521,9.09703 2.74062,13.02804 4.80186,7.56459 9.55639,9.85924 18.74579,9.04712 2.83933,-0.25092 8.26343,-1.74655 12.05369,-3.32359 z m -60.29764,-51.92397 c 10.03218,-4.73749 17.63526,-13.77605 17.63526,-20.96485 0,-6.43602 -8.09363,-14.11588 -18.65234,-17.69877 -6.66441,-2.26144 -9.93299,-1.86091 -17.35663,2.12692 -6.1435,3.30015 -6.99011,4.1372 -9.84245,9.73137 -2.52613,4.95439 -3.12078,7.25365 -3.12078,12.0668 0,8.28338 1.26602,11.2699 5.87494,13.8589 8.78086,4.93253 16.32744,5.19324 25.462,0.87963 z"
     style="fill:#aa5765;stroke-width:0.9599871" />
  <path
     inkscape:connector-curvature="0"
     id="path24"
     d="m 798.80384,582.12383 c -0.23943,-0.2393 -6.50524,-0.8658 -13.92405,-1.39223 -10.29114,-0.73025 -15.63211,-1.6281 -22.53041,-3.78751 -13.47776,-4.21901 -26.5153,-7.87921 -33.4849,-9.40064 -6.57507,-1.43531 -24.81025,-10.51297 -41.70773,-20.76252 -9.19586,-5.57797 -23.52344,-12.15534 -26.55629,-12.19121 -0.81649,-0.01 -4.70546,-2.00704 -8.64215,-4.43861 -8.14988,-5.03392 -22.74956,-12.4362 -30.96392,-15.69922 -4.02849,-1.60025 -7.91228,-4.40717 -14.08831,-10.18198 -5.76876,-5.39401 -9.71559,-8.30117 -12.2027,-8.98829 -2.96066,-0.81795 -4.23677,-1.97177 -6.55683,-5.92848 -1.5844,-2.70207 -4.76169,-6.46214 -7.06065,-8.35573 -4.51458,-3.7185 -6.29234,-3.99664 -16.55038,-2.58946 -5.8722,0.80553 -16.99783,-1.00861 -27.18995,-4.4336 -6.68842,-2.24759 -10.95435,-1.59583 -20.25947,3.09531 -5.37514,2.70985 -6.12673,2.83421 -13.88278,2.29712 -4.50999,-0.31232 -11.98226,-1.45583 -16.60504,-2.54115 -11.1726,-2.62307 -19.45779,-2.16243 -26.63868,1.48104 -3.9448,2.00153 -6.24689,2.57429 -9.12227,2.26966 -2.11527,-0.22412 -5.48769,0.22791 -7.49427,1.0045 -4.81547,1.86369 -17.21061,1.17858 -19.71858,-1.08991 -3.03353,-2.74386 -13.01791,-2.1103 -22.24573,1.41162 -7.08508,2.70412 -8.49202,2.93151 -14.48581,2.3412 -5.47111,-0.53882 -7.72781,-0.28606 -12.83255,1.43733 -5.28187,1.78319 -7.65036,2.02231 -16.08383,1.62378 -9.41192,-0.44477 -10.81788,-0.23778 -29.09461,4.28344 -10.56263,2.61292 -22.52698,5.33857 -26.58741,6.05697 -4.06045,0.71841 -8.59758,1.91876 -10.08252,2.66745 -5.07912,2.56085 -17.03706,4.92212 -24.78538,4.89423 -48.72419,-0.17538 -65.75078,-1.85063 -79.69986,-7.84171 -19.13727,-8.21938 -33.97892,-17.95624 -47.69463,-31.29006 -4.95509,-4.81713 -17.35589,-29.59379 -20.00808,-39.97593 -3.09826,-12.12831 -3.43601,-25.44259 -1.09808,-43.28809 1.08074,-8.24933 2.85219,-17.53476 3.93657,-20.6343 2.31795,-6.6255 16.43458,-27.77626 24.21103,-36.27506 6.54928,-7.15763 16.6625,-14.11938 26.60218,-18.31241 4.03113,-1.70054 12.26354,-5.56631 18.29424,-8.59062 12.73176,-6.38479 29.35056,-11.07768 47.5698,-13.43297 13.46065,-1.74012 52.99092,-2.00723 63.41568,-0.42851 8.75797,1.32631 62.23567,1.25548 71.53782,-0.0947 6.7363,-0.97779 11.61376,-1.41171 42.87035,-3.81387 15.57722,-1.19716 28.9209,-3.69593 57.3827,-10.74562 14.27349,-3.5354 26.80141,-6.04909 33.12826,-6.64711 5.59596,-0.52893 16.00792,-1.59477 23.13769,-2.36854 7.12978,-0.77377 18.14853,-1.41951 24.4861,-1.43497 6.33758,-0.0154 16.06001,-0.51234 21.60539,-1.10415 5.54538,-0.59181 14.61964,-1.20094 20.16502,-1.35365 5.54538,-0.15269 16.34808,-0.43895 24.00598,-0.63613 10.07891,-0.25951 16.17718,-0.92667 22.08551,-2.41619 19.45896,-4.90568 36.77078,-7.24694 66.18134,-8.95039 17.04983,-0.98753 21.62519,-0.92641 35.04873,0.46817 40.57956,4.21582 43.20098,4.59123 51.6506,7.39702 4.65746,1.54656 9.31146,2.81192 10.34224,2.81192 1.03078,0 4.04974,-1.93123 6.70881,-4.29161 7.52799,-6.68242 15.03957,-8.59377 31.12308,-7.91938 13.1863,0.55291 30.32843,3.47342 35.21657,5.99985 1.57634,0.81473 4.15387,3.25815 5.72786,5.42983 2.53615,3.49923 2.86169,4.72384 2.86102,10.76259 -0.002,13.95742 -9.94576,27.75604 -22.5434,31.28131 -2.23765,0.62618 -5.27261,2.25448 -6.74437,3.61844 l -2.67591,2.47994 3.60701,3.30384 c 3.34751,3.06615 3.96015,3.26992 8.51574,2.83242 4.33771,-0.41659 5.33727,-0.95989 8.59253,-4.6705 2.0261,-2.30947 4.69755,-6.14252 5.93659,-8.51786 4.44379,-8.51922 11.44278,-13.01032 22.61789,-14.51347 12.5048,-1.682 22.15741,-0.76551 30.97939,2.94142 16.79983,7.05917 23.86383,17.81762 22.38794,34.09653 -0.87064,9.6028 -0.83068,9.62664 16.13912,9.62664 h 13.53323 l 7.10894,3.83894 c 9.59414,5.18102 16.67134,11.77157 19.90054,18.53233 3.3732,7.06183 4.297,19.17238 1.9163,25.11936 -1.7381,4.34166 -1.9843,8.41496 -0.6374,10.54368 0.6082,0.96107 3.4402,1.60796 8.8959,2.03196 5.1196,0.39788 9.3914,1.32957 11.8547,2.58558 14.0068,7.14201 22.8817,28.41662 18.2587,43.76947 -1.7783,5.90599 -5.1955,10.26148 -11.9029,15.17129 -3.0043,2.19916 -5.7892,4.46055 -6.1887,5.02531 -0.9189,1.2993 3.3044,4.99275 13.2837,11.61687 11.1034,7.37036 14.9884,11.53313 19.7601,21.17326 l 4.1717,8.42771 -0.1344,10.13614 c -0.1525,11.49766 -1.3459,15.17784 -8.1877,25.24745 -6.127,9.01765 -10.7098,13.54338 -20.3589,20.10507 -4.8227,3.27951 -11.5771,7.88309 -15.0099,10.23019 -9.0582,6.19318 -26.553,14.36513 -34.19876,15.97439 -13.13185,2.764 -21.78485,2.78076 -35.40796,0.0685 -10.44803,-2.08006 -13.5653,-3.13226 -19.20482,-6.48234 -13.36716,-7.94058 -15.04042,-8.56046 -25.60768,-9.48674 -5.46249,-0.47882 -11.44132,-1.30745 -13.28629,-1.8414 -6.28643,-1.81936 -8.94117,-1.22841 -14.75636,3.2848 -5.73052,4.44752 -8.78091,5.74585 -15.97764,6.80054 -2.37659,0.3483 -9.29031,1.83487 -15.36383,3.3035 -24.44347,5.91064 -56.51475,10.41281 -58.68982,8.23889 z M 1001.7224,561.3285 c 11.1985,-2.36793 28.5123,-12.4987 39.0013,-22.82077 8.1022,-7.9732 13.1406,-18.29979 13.1342,-26.91944 0,-5.53375 -0.5412,-7.38176 -4.4765,-15.40553 -10.3968,-21.19875 -25.2993,-30.48858 -47.4639,-29.58784 -7.02915,0.28565 -8.6557,0.75344 -16.97493,4.88205 -12.71433,6.30973 -19.21083,12.40229 -23.78551,22.30645 -4.56565,9.8845 -7.30743,21.39412 -8.14533,34.19286 -0.64041,9.78202 -0.55954,10.44047 1.97576,16.08689 4.42654,9.85847 9.89376,13.46941 25.52531,16.85886 7.66587,1.66221 14.63884,1.79585 21.2096,0.40647 z m -169.19496,-3.21656 c 3.96099,-0.87249 11.52287,-3.09992 16.80419,-4.94983 5.28132,-1.84991 12.55309,-4.20907 16.15951,-5.24258 7.89887,-2.26362 17.08658,-6.76802 19.86449,-9.73882 3.31873,-3.54919 7.35327,-13.02652 10.116,-23.76299 2.18364,-8.486 2.70756,-13.10809 3.31806,-29.27191 0.77709,-20.57433 1.53477,-24.47332 8.5012,-43.74658 1.6374,-4.53002 3.41169,-11.29904 3.94285,-15.04228 1.71288,-12.07103 -1.75406,-30.77634 -8.7165,-47.02853 -2.57848,-6.01883 -8.46353,-14.30472 -18.41877,-25.93279 -4.86221,-5.67922 -11.09546,-13.34109 -13.85168,-17.02637 -5.63341,-7.53235 -9.27447,-10.75492 -18.99468,-16.81149 -12.68574,-7.90436 -22.10608,-15.66065 -36.00897,-29.64818 -16.01198,-16.10946 -25.55279,-22.47207 -35.44023,-23.63454 -2.95347,-0.34723 -9.69102,-1.49052 -14.97234,-2.54064 -11.5432,-2.2952 -41.13417,-3.53122 -62.41555,-2.60709 -12.33139,0.53549 -16.61393,1.18014 -29.76742,4.48093 -8.4501,2.12049 -20.76517,4.83009 -27.36681,6.0213 -6.60165,1.19121 -14.8117,2.76908 -18.24455,3.50636 -6.26837,1.34627 -46.87762,3.33452 -64.81615,3.17343 -28.58401,-0.25669 -50.94019,0.78649 -58.5746,2.73317 -4.22505,1.07735 -11.35483,2.44097 -15.84394,3.03028 -5.01601,0.65848 -12.6035,2.70537 -19.68491,5.31043 -6.33758,2.33142 -14.2246,4.70274 -17.52673,5.2696 -3.30212,0.56686 -9.81584,2.28622 -14.47496,3.82079 -8.27852,2.72672 -12.62927,3.64743 -36.1753,7.65549 -20.55083,3.49821 -34.19334,4.74679 -54.25351,4.96532 -19.48141,0.21222 -19.80899,0.18194 -31.6879,-2.92888 -12.47317,-3.26645 -20.76759,-4.21411 -50.38232,-5.75631 -17.41826,-0.90707 -23.47656,-0.43476 -37.47957,2.92192 -10.7569,2.57854 -17.07376,5.31102 -25.8182,11.16817 -3.75646,2.51613 -10.19726,6.25322 -14.31286,8.30464 -6.25691,3.11875 -9.08879,5.41191 -17.28431,13.99625 -11.0197,11.54252 -13.94605,15.97957 -20.90856,31.70234 -10.78398,24.35249 -10.87286,25.35527 -3.88384,43.81924 6.92581,18.29694 11.58188,26.73835 20.87237,37.84134 9.80306,11.71558 31.26792,24.54518 44.73695,26.73937 3.84783,0.62684 12.18135,2.43298 18.51893,4.01363 10.59995,2.64374 12.36887,2.82323 22.0855,2.24097 13.37092,-0.80124 23.84165,-2.73565 33.60837,-6.20896 4.22506,-1.50255 10.73755,-3.62695 14.47221,-4.7209 7.53627,-2.20752 28.71452,-12.34341 36.90059,-17.66059 2.90473,-1.88674 10.25056,-7.80124 16.32407,-13.14333 6.07351,-5.34211 13.6354,-11.25649 16.80419,-13.14308 3.16879,-1.88658 8.57013,-5.25343 12.00299,-7.48188 3.43285,-2.22844 9.05025,-5.7208 12.48311,-7.76078 3.43285,-2.03999 8.03836,-5.0757 10.23447,-6.74602 6.37155,-4.84613 9.96724,-5.03678 18.02447,-0.95571 3.73439,1.8915 8.02905,3.43717 9.54368,3.4348 1.51464,-0.002 6.48388,-1.66636 11.04275,-3.69778 14.59782,-6.5047 23.20801,-8.23589 41.89724,-8.42397 8.97824,-0.0904 23.44968,-0.62412 32.15875,-1.18614 12.81723,-0.82713 17.04602,-0.76941 22.19141,0.30286 8.82478,1.83906 19.50975,7.37723 22.2273,11.52071 1.25818,1.91836 4.04196,4.17612 6.66046,5.40192 4.86328,2.27664 6.11747,2.2408 18.91622,-0.54074 5.08356,-1.1048 9.29626,-1.36541 14.88371,-0.92079 5.64049,0.44885 9.91526,0.17659 15.47517,-0.98563 10.65102,-2.22645 15.13319,-1.45859 18.25052,3.12655 2.30661,3.39271 2.39462,4.0878 2.39462,18.91221 0,14.71149 0.10277,15.5412 2.33066,18.81812 1.88057,2.76606 3.87614,4.01107 10.33348,6.44695 7.07347,2.66831 8.437,2.89905 11.74176,1.98704 4.36673,-1.20508 7.37582,-0.20649 9.56967,3.17577 0.78596,1.21172 2.92295,8.14877 4.74887,15.41568 2.81874,11.21823 3.89379,13.97236 7.12236,18.24632 4.47712,5.92679 9.69021,9.72255 15.41697,11.22543 3.24344,0.85119 6.33403,3.20108 14.40359,10.95165 9.40043,9.02883 24.4648,19.78376 27.71101,19.78376 0.65625,0 3.4574,0.48533 6.22479,1.07852 3.85439,0.82618 6.16822,2.13413 9.88972,5.59042 6.7091,6.23098 11.23313,8.7585 20.20254,11.28696 7.15787,2.01779 9.15813,2.1442 28.34645,1.79141 14.40698,-0.26489 22.82125,-0.85891 27.84694,-1.96594 z m 149.99014,-166.6485 c 7.95971,-1.67056 18.10682,-6.77245 21.93242,-11.02752 1.9529,-2.17206 4.1371,-6.12277 5.1307,-9.27973 1.6506,-5.24516 1.6535,-5.74043 0.063,-10.7946 -3.4444,-10.94485 -12.41892,-18.45504 -25.248,-21.12858 -7.67971,-1.60041 -11.3822,-0.76174 -19.43323,4.40191 -8.31508,5.33296 -12.57051,20.11977 -9.16233,31.83734 2.19352,7.54149 8.12518,13.93172 14.52162,15.64419 6.07006,1.62509 6.10165,1.62599 12.19581,0.34699 z m -50.18302,-55.52727 c 8.29165,-4.18342 13.69097,-9.4546 16.81798,-16.41884 2.95857,-6.5891 2.79242,-8.66066 -1.20251,-14.99291 -3.14023,-4.97749 -13.69343,-11.30282 -21.45785,-12.86132 -4.7904,-0.96154 -5.84084,-0.85701 -10.03884,0.99898 -9.8001,4.33278 -13.39992,7.36449 -16.23088,13.66941 -5.27445,11.74688 -4.0625,22.9385 3.02658,27.94849 8.59991,6.07771 19.13315,6.67749 29.08552,1.65619 z m -65.40683,-56.40214 c 2.99913,-2.4198 3.57259,-3.50437 3.81831,-7.22155 0.26812,-4.05592 0.0313,-4.57065 -3.25487,-7.07585 -2.89971,-2.21055 -4.69802,-2.75894 -9.89154,-3.01639 -8.91787,-0.44206 -12.94535,1.65914 -13.38889,6.9852 -0.94794,11.38316 13.35179,17.88473 22.71699,10.32859 z"
     style="fill:#883b4b;stroke-width:0.9599871" />
  <path
     inkscape:connector-curvature="0"
     id="path22"
     d="m 801.68456,582.12383 c -0.23943,-0.2393 -6.46898,-0.87351 -13.84346,-1.40936 -8.25051,-0.59951 -15.99372,-1.75352 -20.12981,-3.00004 -17.46642,-5.26399 -30.3505,-8.82306 -36.48909,-10.07967 -7.38281,-1.51132 -25.06869,-10.03746 -41.11198,-19.81959 -10.25554,-6.25314 -23.36779,-12.60713 -28.18205,-13.65657 -1.67065,-0.36417 -5.99172,-2.44473 -9.6024,-4.62345 -3.61068,-2.17871 -13.64008,-7.38172 -22.28757,-11.56225 -14.10198,-6.81742 -16.49827,-8.34151 -23.24627,-14.78513 -5.09379,-4.86403 -8.77504,-7.55351 -11.39869,-8.32778 -3.17206,-0.9361 -4.44235,-2.0881 -7.00128,-6.34934 -1.71937,-2.86316 -5.06316,-6.6781 -7.43064,-8.47764 -4.20785,-3.19841 -4.44503,-3.25568 -10.56263,-2.55002 -3.44197,0.39704 -8.20261,0.69986 -10.5792,0.67295 -4.40778,-0.0499 -22.9183,-4.35748 -26.14742,-6.08475 -2.2035,-1.17866 -10.2786,1.01411 -17.97338,4.88062 -5.13243,2.57896 -5.65425,2.64941 -13.97367,1.88646 -4.75319,-0.4359 -11.01875,-1.45728 -13.92347,-2.26972 -2.94422,-0.82349 -9.10566,-1.48189 -13.92347,-1.48781 -7.56627,-0.01 -9.37892,0.33773 -14.5603,2.78766 -4.65557,2.20131 -6.76243,2.68511 -9.87561,2.26776 -2.69818,-0.3617 -5.16152,0.0122 -7.7413,1.17484 -4.65297,2.0971 -13.56541,1.38873 -17.36171,-1.37993 -2.21154,-1.61289 -3.43539,-1.72922 -11.04275,-1.04964 -5.1843,0.46313 -11.015,1.71195 -14.79712,3.16924 -5.27546,2.0327 -7.31098,2.32757 -13.15079,1.90504 -5.21841,-0.37757 -7.92078,-0.0948 -11.04275,1.15523 -5.28816,2.11748 -16.48388,2.96924 -21.33876,1.62342 -3.34967,-0.92855 -6.24324,-0.42672 -26.40658,4.57972 -12.45458,3.0924 -24.37311,5.92438 -26.48564,6.29328 -2.11253,0.3689 -6.86571,1.67797 -10.56263,2.90903 -13.26238,4.41632 -20.1119,5.297 -33.68691,4.33134 -6.82252,-0.48533 -15.64538,-0.64973 -19.60637,-0.36533 -4.67557,0.33571 -12.7082,-0.20035 -22.89951,-1.52822 -17.36569,-2.26265 -24.82118,-4.82414 -43.19834,-14.8417 -12.15141,-6.62383 -28.19277,-19.81588 -33.51648,-27.56317 -5.78771,-8.42251 -13.58675,-25.49911 -16.01076,-35.05675 -3.60327,-14.20734 -3.94429,-22.32909 -1.66607,-39.67932 2.76353,-21.04623 4.38545,-25.55605 14.60745,-40.61665 10.60792,-15.62921 16.34153,-22.21517 24.13689,-27.72503 7.3911,-5.22415 7.66916,-5.37236 29.0945,-15.50827 19.37878,-9.16773 34.55245,-13.63507 55.65399,-16.38533 13.4326,-1.75073 47.44189,-1.99821 57.65424,-0.41954 8.81067,1.36199 67.86192,1.28309 77.29926,-0.10328 6.73551,-0.98947 11.56744,-1.42076 42.87034,-3.82648 15.57723,-1.19716 28.92091,-3.69593 57.38271,-10.74562 14.27349,-3.53539 26.8014,-6.04908 33.12826,-6.64711 5.59595,-0.52892 16.00791,-1.59477 23.13769,-2.36853 7.12978,-0.77378 18.14852,-1.41952 24.4861,-1.43498 6.33758,-0.0154 16.06,-0.46591 21.60539,-1.001 9.58332,-0.92469 14.88279,-1.16296 45.13124,-2.02917 9.12647,-0.26136 15.37897,-0.9878 21.12526,-2.45443 18.63069,-4.75512 36.27536,-7.18758 64.70421,-8.91998 18.06458,-1.10082 15.28279,-1.2634 59.99088,3.50617 9.88271,1.05431 16.80433,2.41627 24.43986,4.80902 11.73554,3.67755 13.6357,3.54903 18.09189,-1.22365 5.82559,-6.23933 17.46562,-9.40445 31.54269,-8.57698 13.05517,0.7674 31.73246,4.6061 35.51741,7.2998 9.68893,6.8955 10.01735,19.67889 0.8526,33.18657 -3.86452,5.6958 -11.81064,11.92912 -15.20704,11.92912 -2.5127,0 -9.6401,4.86421 -9.6401,6.57904 0,2.95291 4.99255,6.78978 9.64601,7.41314 5.397,0.72297 9.45172,-1.80495 13.97648,-8.71364 6.67751,-10.19566 8.7807,-12.57706 13.72413,-15.53958 5.81454,-3.48454 11.94936,-4.64381 24.1087,-4.55573 15.00471,0.1087 29.9552,7.59537 36.29625,18.17584 4.10368,6.84726 5.48893,13.61205 4.03112,19.68572 -1.39231,5.80075 -0.98214,7.10843 2.85103,9.08962 2.52966,1.30742 4.0887,1.37143 11.00319,0.45177 6.78237,-0.90209 9.01511,-0.82589 14.12301,0.482 7.51541,1.92436 18.67686,8.76039 23.79856,14.57588 7.1425,8.10994 10.3074,20.98933 7.3471,29.89742 -0.9002,2.70886 -1.4856,6.91321 -1.3211,9.48866 l 0.2954,4.62455 7.7723,0.64445 c 4.2749,0.35445 9.2442,1.27098 11.0428,2.03673 9.1903,3.91254 16.5415,13.71928 20.0636,26.76523 1.9075,7.06573 2.0005,8.41408 0.9282,13.46452 -1.6498,7.76977 -5.5128,13.36545 -12.8875,18.6679 -3.5792,2.57351 -6.2743,5.22633 -6.2743,6.17597 0,1.86893 3.8786,5.14926 14.4254,12.20032 9.0452,6.04717 13.0471,9.98119 17.1613,16.87001 9.3429,15.64408 8.4831,29.67174 -2.8573,46.61702 -6.8667,10.2604 -9.2806,12.47209 -26.4605,24.24424 -22.8659,15.66828 -34.1437,20.78226 -51.64536,23.41895 -9.22847,1.39029 -10.21377,1.36236 -21.20112,-0.60087 -13.80399,-2.46653 -18.46611,-4.01536 -25.44634,-8.4537 -8.85475,-5.63025 -14.44227,-7.83929 -19.85438,-7.8495 -2.73387,-0.005 -9.35527,-0.87314 -14.71423,-1.92885 -5.35897,-1.05571 -10.27456,-1.91947 -10.92357,-1.91947 -0.649,0 -4.01401,2.175 -7.4778,4.83333 -5.44168,4.1763 -7.3276,5.03038 -13.87318,6.28281 -4.16647,0.7972 -12.97673,2.70583 -19.57837,4.24139 -15.92548,3.70429 -25.45838,5.48896 -38.50916,7.20937 -11.57783,1.52623 -13.73567,1.67459 -14.41923,0.9914 z m 20.72406,-13.53663 c 6.27374,-0.82234 12.74458,-2.05383 14.37965,-2.73665 1.63508,-0.68282 5.04961,-1.55275 7.58785,-1.93318 2.53824,-0.38043 7.5003,-1.79489 11.0268,-3.14323 3.5265,-1.34833 9.40345,-3.03734 13.05988,-3.75335 8.33861,-1.63287 16.1463,-6.21955 19.95711,-11.72393 8.55392,-12.35544 13.69225,-30.05981 14.67215,-50.5537 0.87363,-18.27099 1.95236,-25.31783 5.3137,-34.71176 1.57372,-4.39805 4.15385,-11.60909 5.73365,-16.02456 4.33609,-12.11924 5.36287,-21.37435 3.42156,-30.84116 -7.01965,-34.2315 -9.84252,-40.74279 -25.62222,-59.10074 -3.89305,-4.52914 -10.31908,-12.30299 -14.28006,-17.27523 -9.48127,-11.90187 -14.08837,-16.24628 -23.44222,-22.10556 -15.67056,-9.81608 -23.51655,-15.93853 -32.34481,-25.23961 -10.73162,-11.30636 -23.66968,-22.81239 -29.47543,-26.213 -11.30899,-6.62403 -61.50921,-11.91269 -90.94145,-9.5808 -12.88409,1.02079 -29.50944,3.96419 -47.53184,8.41518 -17.73946,4.38113 -42.62934,7.74804 -56.0695,7.58467 -18.31775,-0.22267 -51.96037,0.81723 -58.56004,1.8101 -3.63145,0.54632 -10.15318,0.74288 -14.49275,0.4368 -4.47798,-0.31585 -9.92787,-0.10031 -12.60216,0.4984 -2.59162,0.58021 -9.68128,1.95034 -15.75479,3.04474 -15.01198,2.70504 -23.00077,4.60117 -32.64814,7.749 -4.48911,1.46475 -11.83494,3.36227 -16.32406,4.21672 -4.48912,0.85445 -11.71129,2.39932 -16.04926,3.43307 -4.33798,1.03374 -9.73932,1.88194 -12.00299,1.88488 -2.26368,0.003 -5.62815,0.41859 -7.47661,0.92367 -7.19836,1.96688 -42.41198,5.78912 -53.33411,5.78912 -6.26646,0 -16.06491,0.51916 -21.77435,1.15369 -9.757,1.08436 -10.91371,1.02191 -19.24902,-1.03926 -9.76602,-2.41493 -39.64493,-4.8535 -59.93149,-4.89131 -14.17261,-0.0264 -23.08359,1.11888 -38.21675,4.91184 -9.89877,2.48102 -12.90804,3.73749 -21.60538,9.02087 -5.55762,3.37609 -12.48753,7.03695 -15.39979,8.13524 -5.95948,2.24746 -19.57352,12.03436 -25.53451,18.35633 -2.16856,2.29988 -8.30573,10.65981 -13.63815,18.57763 -8.61428,12.79086 -9.81391,15.09159 -10.75895,20.6343 -0.585,3.43105 -1.68564,8.23971 -2.44586,10.68589 -1.89434,6.09551 -1.73256,13.99222 0.46597,22.74493 1.01651,4.04685 2.13859,10.38108 2.49351,14.07606 0.93323,9.71542 3.73882,14.87697 15.12841,27.83231 20.00748,22.75797 40.2651,35.18999 63.59059,39.02528 33.60841,5.52607 55.10814,4.67355 80.17998,-3.17935 22.27825,-6.97791 33.66895,-11.68392 45.13124,-18.64573 2.90473,-1.76423 9.21398,-4.69779 14.02057,-6.519 10.74778,-4.07233 19.94266,-8.64051 24.389,-12.11689 1.84846,-1.44523 5.30532,-3.61123 7.68192,-4.81334 2.37659,-1.20212 5.6174,-3.15372 7.20179,-4.3369 5.96647,-4.4556 11.22801,-6.40378 18.64602,-6.90402 6.15007,-0.41473 8.43902,-0.1009 14.74251,2.02129 10.37149,3.49175 14.4001,3.32613 20.59987,-0.84683 2.7448,-1.84749 5.45334,-3.35907 6.01897,-3.35907 0.56562,0 3.69877,0.8991 6.96255,1.99801 6.81688,2.29524 10.73795,2.02118 21.37209,-1.49373 3.69692,-1.22194 11.25881,-2.89112 16.80419,-3.70926 5.54538,-0.81815 13.75543,-2.63689 18.24455,-4.04167 4.48911,-1.40477 10.15813,-2.76218 12.59781,-3.01646 4.13405,-0.43088 4.59127,-0.24872 6.72167,2.67805 1.25724,1.72722 2.93406,4.44637 3.72626,6.04256 2.14669,4.32535 13.78592,8.27202 25.47276,8.63738 7.47898,0.23383 10.14525,0.82876 19.42921,4.33534 l 10.76063,4.06431 7.45749,-2.89453 c 10.33099,-4.00986 14.37443,-4.47756 18.21357,-2.10674 4.45236,2.7495 5.88136,6.33413 6.57182,16.48536 0.755,11.10038 3.68313,18.27679 8.13554,19.93903 1.57499,0.588 4.11027,1.53281 5.63396,2.09957 2.84782,1.05929 7.5026,5.074 11.5014,9.91986 2.22323,2.69417 2.4108,2.73733 9.34896,2.15114 6.75491,-0.5707 7.15061,-0.4908 8.61233,1.73889 0.84266,1.28539 2.18181,4.82374 2.97589,7.86301 2.13029,8.15349 4.46972,12.08838 10.12903,17.03688 3.98662,3.4859 6.81952,4.96925 13.21324,6.91863 7.60598,2.319 8.64292,2.96748 15.84395,9.90855 8.96604,8.64237 19.70145,15.49648 27.87034,17.79404 3.16879,0.89124 11.59489,4.33559 18.72467,7.6541 15.04508,7.00265 19.10888,8.15514 32.16802,9.12281 15.68759,1.16244 21.563,1.07511 33.57206,-0.49898 z m 182.79258,-0.96777 c 9.5345,-3.18577 17.0128,-7.40073 29.1949,-16.4551 11.9623,-8.89088 18.5609,-15.50075 22.2194,-22.25737 5.638,-10.41219 6.7427,-20.15796 3.4139,-30.11521 -2.7772,-8.30729 -6.3752,-13.5595 -15.0311,-21.94164 -13.086,-12.67227 -24.9217,-16.69432 -46.82958,-15.91384 -14.00653,0.499 -17.51659,1.58311 -27.80469,8.58761 -15.29247,10.41169 -19.50351,15.95235 -22.44968,29.53808 -4.51662,20.82756 -5.09426,24.15013 -5.62674,32.36468 -0.66891,10.31933 0.69301,17.14433 4.68751,23.49055 2.4987,3.96977 4.11478,5.14701 13.5044,9.83729 l 10.66605,5.32787 h 13.34223 c 11.7686,0 14.21174,-0.2905 20.7134,-2.46292 z m -79.54264,-36.4001 c 2.18625,-1.12996 2.90244,-2.29804 3.38358,-5.51847 0.60801,-4.0697 -0.46558,-8.64168 -2.29453,-9.77144 -0.52909,-0.32682 -2.50023,0.75567 -4.38031,2.40554 -3.64969,3.20279 -4.40357,6.80407 -2.48185,11.85591 1.08218,2.84485 1.95717,3.00073 5.77311,1.02846 z m 112.35164,-93.3766 c 1.9005,-0.93167 4.3121,-3.306 5.5684,-5.48235 1.8792,-3.25554 2.1597,-4.86785 1.8451,-10.60958 -0.762,-13.91163 -7.4734,-22.35135 -18.5007,-23.26535 -9.1715,-0.76016 -15.1029,3.05841 -19.72,12.6953 -5.1074,10.66071 -4.677,19.1966 1.1866,23.52943 7.2064,5.32519 21.9641,6.8859 29.6206,3.13255 z m -43.38851,-46.22411 c 9.47761,-4.51328 12.55671,-7.55792 17.46551,-17.27042 2.8491,-5.63736 2.375,-15.28191 -1.0244,-20.83477 -7.681,-12.54682 -19.51004,-19.52588 -33.09512,-19.52588 -6.2645,0 -8.30952,0.44752 -13.61936,2.98033 -7.89242,3.76474 -13.18767,8.52695 -16.29402,14.65381 -7.08763,13.97943 -0.8129,35.4789 12.42752,42.58109 3.64824,1.95691 5.19297,2.16048 14.64115,1.92949 10.27735,-0.25125 10.80394,-0.37314 19.49872,-4.51365 z m -65.32492,-49.95219 c 15.7229,-6.88405 26.41285,-19.74883 24.79789,-29.84294 -1.1188,-6.99296 -4.72293,-12.61052 -10.81535,-16.85736 -7.62136,-5.3126 -10.42764,-6.63326 -16.95037,-7.97694 -6.95469,-1.43267 -12.59225,-0.30063 -22.55568,4.52927 -5.81529,2.81903 -7.35798,4.07299 -9.02866,7.33884 -2.9961,5.85674 -4.57861,12.74841 -4.5914,19.995 -0.0238,13.50091 6.54397,21.99908 19.19338,24.83464 5.19163,1.16377 14.93004,0.17749 19.95019,-2.02051 z m -65.44602,-52.29295 c 8.61385,-3.59721 15.72842,-12.76285 15.72842,-20.26278 0,-4.63685 -3.18184,-9.60738 -7.58837,-11.85425 -3.98377,-2.0313 -15.53946,-3.88664 -24.20727,-3.88664 -18.74918,0 -23.2847,18.27509 -7.61413,30.67989 7.38317,5.84451 17.16735,8.04408 23.68135,5.32378 z"
     style="fill:#55212c;stroke-width:0.9599871" />
</svg>
