  0
SECTION
  2
HEADER
  9
$ACADVER
  1
AC1014
  9
$HANDSEED
  5
FFFF
  9
$MEASUREMENT
 70
     1
  0
ENDSEC
  0
SECTION
  2
TABLES
  0
TABLE
  2
VPORT
  5
8
330
0
100
AcDbSymbolTable
 70
     4
  0
VPORT
  5
2E
330
8
100
AcDbSymbolTableRecord
100
AcDbViewportTableRecord
  2
*ACTIVE
 70
     0
 10
0.0
 20
0.0
 11
1.0
 21
1.0
 12
210.0
 22
148.5
 13
0.0
 23
0.0
 14
10.0
 24
10.0
 15
10.0
 25
10.0
 16
0.0
 26
0.0
 36
1.0
 17
0.0
 27
0.0
 37
0.0
 40
341.0
 41
1.24
 42
50.0
 43
0.0
 44
0.0
 50
0.0
 51
0.0
 71
     0
 72
   100
 73
     1
 74
     3
 75
     0
 76
     0
 77
     0
 78
     0
  0
ENDTAB
  0
TABLE
  2
LTYPE
  5
5
330
0
100
AcDbSymbolTable
 70
     1
  0
LTYPE
  5
14
330
5
100
AcDbSymbolTableRecord
100
AcDbLinetypeTableRecord
  2
BYBLOCK
 70
     0
  3

 72
    65
 73
     0
 40
0.0
  0
LTYPE
  5
15
330
5
100
AcDbSymbolTableRecord
100
AcDbLinetypeTableRecord
  2
BYLAYER
 70
     0
  3

 72
    65
 73
     0
 40
0.0
  0
LTYPE
  5
16
330
5
100
AcDbSymbolTableRecord
100
AcDbLinetypeTableRecord
  2
CONTINUOUS
 70
     0
  3
Solid line
 72
    65
 73
     0
 40
0.0
  0
ENDTAB
  0
TABLE
  2
LAYER
  5
2
100
AcDbSymbolTable
 70
1
  0
LAYER
  5
50
100
AcDbSymbolTableRecord
100
AcDbLayerTableRecord
  2
0
 70
0
  6
CONTINUOUS
  0
ENDTAB
  0
TABLE
  2
STYLE
  5
3
330
0
100
AcDbSymbolTable
 70
     1
  0
STYLE
  5
11
330
3
100
AcDbSymbolTableRecord
100
AcDbTextStyleTableRecord
  2
STANDARD
 70
     0
 40
0.0
 41
1.0
 50
0.0
 71
     0
 42
2.5
  3
txt
  4

  0
ENDTAB
  0
TABLE
  2
VIEW
  5
6
330
0
100
AcDbSymbolTable
 70
     0
  0
ENDTAB
  0
TABLE
  2
UCS
  5
7
330
0
100
AcDbSymbolTable
 70
     0
  0
ENDTAB
  0
TABLE
  2
APPID
  5
9
330
0
100
AcDbSymbolTable
 70
     2
  0
APPID
  5
12
330
9
100
AcDbSymbolTableRecord
100
AcDbRegAppTableRecord
  2
ACAD
 70
     0
  0
ENDTAB
  0
TABLE
  2
DIMSTYLE
  5
A
330
0
100
AcDbSymbolTable
 70
     1
  0
DIMSTYLE
105
27
330
A
100
AcDbSymbolTableRecord
100
AcDbDimStyleTableRecord
  2
ISO-25
 70
     0
  3

  4

  5

  6

  7

 40
1.0
 41
2.5
 42
0.625
 43
3.75
 44
1.25
 45
0.0
 46
0.0
 47
0.0
 48
0.0
140
2.5
141
2.5
142
0.0
143
0.03937007874016
144
1.0
145
0.0
146
1.0
147
0.625
 71
     0
 72
     0
 73
     0
 74
     0
 75
     0
 76
     0
 77
     1
 78
     8
170
     0
171
     3
172
     1
173
     0
174
     0
175
     0
176
     0
177
     0
178
     0
270
     2
271
     2
272
     2
273
     2
274
     3
340
11
275
     0
280
     0
281
     0
282
     0
283
     0
284
     8
285
     0
286
     0
287
     3
288
     0
  0
ENDTAB
  0
TABLE
  2
BLOCK_RECORD
  5
1
330
0
100
AcDbSymbolTable
 70
     1
  0
BLOCK_RECORD
  5
1F
330
1
100
AcDbSymbolTableRecord
100
AcDbBlockTableRecord
  2
*MODEL_SPACE
  0
BLOCK_RECORD
  5
1B
330
1
100
AcDbSymbolTableRecord
100
AcDbBlockTableRecord
  2
*PAPER_SPACE
  0
ENDTAB
  0
ENDSEC
  0
SECTION
  2
BLOCKS
  0
BLOCK
  5
20
330
1F
100
AcDbEntity
  8
0
100
AcDbBlockBegin
  2
*MODEL_SPACE
 70
     0
 10
0.0
 20
0.0
 30
0.0
  3
*MODEL_SPACE
  1

  0
ENDBLK
  5
21
330
1F
100
AcDbEntity
  8
0
100
AcDbBlockEnd
  0
BLOCK
  5
1C
330
1B
100
AcDbEntity
 67
     1
  8
0
100
AcDbBlockBegin
  2
*PAPER_SPACE
  1

  0
ENDBLK
  5
1D
330
1B
100
AcDbEntity
 67
     1
  8
0
100
AcDbBlockEnd
  0
ENDSEC
  0
SECTION
  2
ENTITIES
  0
LWPOLYLINE
  5
100
100
AcDbEntity
  8
0
 62
7
100
AcDbPolyline
 90
89
 70
0
 10
53.072300
 20
12.545000
 30
0.0
 10
51.285000
 20
12.132000
 30
0.0
 10
49.484000
 20
11.787000
 30
0.0
 10
47.836900
 20
11.548000
 30
0.0
 10
46.179900
 20
11.389000
 30
0.0
 10
45.015000
 20
11.327000
 30
0.0
 10
43.848300
 20
11.305000
 30
0.0
 10
42.681300
 20
11.323000
 30
0.0
 10
41.515700
 20
11.381000
 30
0.0
 10
39.194000
 20
11.614000
 30
0.0
 10
36.893100
 20
12.000000
 30
0.0
 10
34.623100
 20
12.538000
 30
0.0
 10
32.394000
 20
13.227000
 30
0.0
 10
30.216000
 20
14.063000
 30
0.0
 10
28.098500
 20
15.042000
 30
0.0
 10
26.051000
 20
16.160000
 30
0.0
 10
24.082700
 20
17.412000
 30
0.0
 10
22.202000
 20
18.792000
 30
0.0
 10
20.417500
 20
20.295000
 30
0.0
 10
18.736900
 20
21.913000
 30
0.0
 10
17.167800
 20
23.639000
 30
0.0
 10
15.717000
 20
25.466000
 30
0.0
 10
14.391000
 20
27.386000
 30
0.0
 10
13.195800
 20
29.389000
 30
0.0
 10
12.136700
 20
31.467000
 30
0.0
 10
11.218500
 20
33.612000
 30
0.0
 10
10.445200
 20
35.813000
 30
0.0
 10
9.820430
 20
38.060000
 30
0.0
 10
9.346910
 20
40.345000
 30
0.0
 10
9.026720
 20
42.655000
 30
0.0
 10
8.861280
 20
44.983000
 30
0.0
 10
8.851210
 20
47.316000
 30
0.0
 10
8.996540
 20
49.644000
 30
0.0
 10
9.296520
 20
51.958000
 30
0.0
 10
9.749890
 20
54.246000
 30
0.0
 10
10.354600
 20
56.500000
 30
0.0
 10
11.108000
 20
58.707000
 30
0.0
 10
12.006700
 20
60.860000
 30
0.0
 10
13.047000
 20
62.948000
 30
0.0
 10
14.224100
 20
64.962000
 30
0.0
 10
15.532900
 20
66.893000
 30
0.0
 10
16.967600
 20
68.733000
 30
0.0
 10
18.521600
 20
70.473000
 30
0.0
 10
20.187900
 20
72.106000
 30
0.0
 10
21.959000
 20
73.624000
 30
0.0
 10
23.827600
 20
75.020000
 30
0.0
 10
25.586200
 20
76.169000
 30
0.0
 10
27.411100
 20
77.209000
 30
0.0
 10
29.295800
 20
78.133000
 30
0.0
 10
31.233700
 20
78.939000
 30
0.0
 10
32.354600
 20
79.343000
 30
0.0
 10
33.488400
 20
79.712000
 30
0.0
 10
35.034200
 20
80.156000
 30
0.0
 10
36.593800
 20
80.548000
 30
0.0
 10
38.448700
 20
80.964000
 30
0.0
 10
42.174000
 20
81.738000
 30
0.0
 10
49.622300
 20
83.300000
 30
0.0
 10
58.930400
 20
85.274000
 30
0.0
 10
64.511400
 20
86.451000
 30
0.0
 10
67.004300
 20
86.996000
 30
0.0
 10
68.246100
 20
87.257000
 30
0.0
 10
70.084500
 20
87.597000
 30
0.0
 10
70.186400
 20
87.530000
 30
0.0
 10
70.702800
 20
85.654000
 30
0.0
 10
71.701800
 20
81.873000
 30
0.0
 10
72.682800
 20
78.073000
 30
0.0
 10
77.614100
 20
59.091000
 30
0.0
 10
80.583600
 20
47.667000
 30
0.0
 10
83.544900
 20
36.232000
 30
0.0
 10
85.539000
 20
28.595000
 30
0.0
 10
86.537900
 20
24.778000
 30
0.0
 10
87.502400
 20
20.978000
 30
0.0
 10
87.954600
 20
19.093000
 30
0.0
 10
87.960500
 20
19.054000
 30
0.0
 10
87.957500
 20
19.039000
 30
0.0
 10
87.943000
 20
19.023000
 30
0.0
 10
87.931500
 20
19.018000
 30
0.0
 10
87.903100
 20
19.012000
 30
0.0
 10
87.028200
 20
18.881000
 30
0.0
 10
85.213900
 20
18.662000
 30
0.0
 10
80.881300
 20
18.168000
 30
0.0
 10
76.983900
 20
17.609000
 30
0.0
 10
73.880700
 20
17.103000
 30
0.0
 10
70.368900
 20
16.501000
 30
0.0
 10
66.881600
 20
15.832000
 30
0.0
 10
63.413200
 20
15.101000
 30
0.0
 10
58.182200
 20
13.861000
 30
0.0
 10
54.776500
 20
12.978000
 30
0.0
 10
53.072300
 20
12.545000
 30
0.0
  0
ENDSEC
  0
SECTION
  2
OBJECTS
  0
DICTIONARY
  5
C
330
0
100
AcDbDictionary
  3
ACAD_GROUP
350
D
  3
ACAD_MLINESTYLE
350
17
  0
DICTIONARY
  5
D
330
C
100
AcDbDictionary
  0
DICTIONARY
  5
1A
330
C
100
AcDbDictionary
  0
DICTIONARY
  5
17
330
C
100
AcDbDictionary
  3
STANDARD
350
18
  0
DICTIONARY
  5
19
330
C
100
AcDbDictionary
  0
ENDSEC
  0
EOF
