  0
SECTION
  2
HEADER
  9
$ACADVER
  1
AC1014
  9
$HANDSEED
  5
FFFF
  9
$MEASUREMENT
 70
     1
  0
ENDSEC
  0
SECTION
  2
TABLES
  0
TABLE
  2
VPORT
  5
8
330
0
100
AcDbSymbolTable
 70
     4
  0
VPORT
  5
2E
330
8
100
AcDbSymbolTableRecord
100
AcDbViewportTableRecord
  2
*ACTIVE
 70
     0
 10
0.0
 20
0.0
 11
1.0
 21
1.0
 12
210.0
 22
148.5
 13
0.0
 23
0.0
 14
10.0
 24
10.0
 15
10.0
 25
10.0
 16
0.0
 26
0.0
 36
1.0
 17
0.0
 27
0.0
 37
0.0
 40
341.0
 41
1.24
 42
50.0
 43
0.0
 44
0.0
 50
0.0
 51
0.0
 71
     0
 72
   100
 73
     1
 74
     3
 75
     0
 76
     0
 77
     0
 78
     0
  0
ENDTAB
  0
TABLE
  2
LTYPE
  5
5
330
0
100
AcDbSymbolTable
 70
     1
  0
LTYPE
  5
14
330
5
100
AcDbSymbolTableRecord
100
AcDbLinetypeTableRecord
  2
BYBLOCK
 70
     0
  3

 72
    65
 73
     0
 40
0.0
  0
LTYPE
  5
15
330
5
100
AcDbSymbolTableRecord
100
AcDbLinetypeTableRecord
  2
BYLAYER
 70
     0
  3

 72
    65
 73
     0
 40
0.0
  0
LTYPE
  5
16
330
5
100
AcDbSymbolTableRecord
100
AcDbLinetypeTableRecord
  2
CONTINUOUS
 70
     0
  3
Solid line
 72
    65
 73
     0
 40
0.0
  0
ENDTAB
  0
TABLE
  2
LAYER
  5
2
100
AcDbSymbolTable
 70
1
  0
LAYER
  5
50
100
AcDbSymbolTableRecord
100
AcDbLayerTableRecord
  2
0
 70
0
  6
CONTINUOUS
  0
ENDTAB
  0
TABLE
  2
STYLE
  5
3
330
0
100
AcDbSymbolTable
 70
     1
  0
STYLE
  5
11
330
3
100
AcDbSymbolTableRecord
100
AcDbTextStyleTableRecord
  2
STANDARD
 70
     0
 40
0.0
 41
1.0
 50
0.0
 71
     0
 42
2.5
  3
txt
  4

  0
ENDTAB
  0
TABLE
  2
VIEW
  5
6
330
0
100
AcDbSymbolTable
 70
     0
  0
ENDTAB
  0
TABLE
  2
UCS
  5
7
330
0
100
AcDbSymbolTable
 70
     0
  0
ENDTAB
  0
TABLE
  2
APPID
  5
9
330
0
100
AcDbSymbolTable
 70
     2
  0
APPID
  5
12
330
9
100
AcDbSymbolTableRecord
100
AcDbRegAppTableRecord
  2
ACAD
 70
     0
  0
ENDTAB
  0
TABLE
  2
DIMSTYLE
  5
A
330
0
100
AcDbSymbolTable
 70
     1
  0
DIMSTYLE
105
27
330
A
100
AcDbSymbolTableRecord
100
AcDbDimStyleTableRecord
  2
ISO-25
 70
     0
  3

  4

  5

  6

  7

 40
1.0
 41
2.5
 42
0.625
 43
3.75
 44
1.25
 45
0.0
 46
0.0
 47
0.0
 48
0.0
140
2.5
141
2.5
142
0.0
143
0.03937007874016
144
1.0
145
0.0
146
1.0
147
0.625
 71
     0
 72
     0
 73
     0
 74
     0
 75
     0
 76
     0
 77
     1
 78
     8
170
     0
171
     3
172
     1
173
     0
174
     0
175
     0
176
     0
177
     0
178
     0
270
     2
271
     2
272
     2
273
     2
274
     3
340
11
275
     0
280
     0
281
     0
282
     0
283
     0
284
     8
285
     0
286
     0
287
     3
288
     0
  0
ENDTAB
  0
TABLE
  2
BLOCK_RECORD
  5
1
330
0
100
AcDbSymbolTable
 70
     1
  0
BLOCK_RECORD
  5
1F
330
1
100
AcDbSymbolTableRecord
100
AcDbBlockTableRecord
  2
*MODEL_SPACE
  0
BLOCK_RECORD
  5
1B
330
1
100
AcDbSymbolTableRecord
100
AcDbBlockTableRecord
  2
*PAPER_SPACE
  0
ENDTAB
  0
ENDSEC
  0
SECTION
  2
BLOCKS
  0
BLOCK
  5
20
330
1F
100
AcDbEntity
  8
0
100
AcDbBlockBegin
  2
*MODEL_SPACE
 70
     0
 10
0.0
 20
0.0
 30
0.0
  3
*MODEL_SPACE
  1

  0
ENDBLK
  5
21
330
1F
100
AcDbEntity
  8
0
100
AcDbBlockEnd
  0
BLOCK
  5
1C
330
1B
100
AcDbEntity
 67
     1
  8
0
100
AcDbBlockBegin
  2
*PAPER_SPACE
  1

  0
ENDBLK
  5
1D
330
1B
100
AcDbEntity
 67
     1
  8
0
100
AcDbBlockEnd
  0
ENDSEC
  0
SECTION
  2
ENTITIES
  0
LWPOLYLINE
  5
100
100
AcDbEntity
  8
0
 62
7
100
AcDbPolyline
 90
51
 70
0
 10
138.825000
 20
102.193000
 30
0.0
 10
144.595000
 20
103.314000
 30
0.0
 10
150.388000
 20
104.302000
 30
0.0
 10
156.205000
 20
105.149000
 30
0.0
 10
159.219000
 20
105.529000
 30
0.0
 10
162.238000
 20
105.866000
 30
0.0
 10
165.066000
 20
106.140000
 30
0.0
 10
167.898000
 20
106.367000
 30
0.0
 10
168.029000
 20
106.282000
 30
0.0
 10
169.846000
 20
101.121000
 30
0.0
 10
173.459000
 20
90.782000
 30
0.0
 10
184.296000
 20
59.775000
 30
0.0
 10
189.718000
 20
44.270000
 30
0.0
 10
195.123000
 20
28.809000
 30
0.0
 10
197.814000
 20
21.103000
 30
0.0
 10
199.035000
 20
17.662000
 30
0.0
 10
199.630000
 20
15.949000
 30
0.0
 10
200.453000
 20
13.416000
 30
0.0
 10
200.460000
 20
13.389000
 30
0.0
 10
200.461000
 20
13.378000
 30
0.0
 10
200.456000
 20
13.364000
 30
0.0
 10
200.445000
 20
13.355000
 30
0.0
 10
200.434000
 20
13.352000
 30
0.0
 10
200.406000
 20
13.348000
 30
0.0
 10
197.379000
 20
13.145000
 30
0.0
 10
194.316000
 20
13.009000
 30
0.0
 10
191.306000
 20
12.928000
 30
0.0
 10
188.289000
 20
12.892000
 30
0.0
 10
185.134000
 20
12.896000
 30
0.0
 10
181.983000
 20
12.940000
 30
0.0
 10
178.837000
 20
13.025000
 30
0.0
 10
175.696000
 20
13.150000
 30
0.0
 10
172.696000
 20
13.311000
 30
0.0
 10
169.696000
 20
13.512000
 30
0.0
 10
166.625000
 20
13.763000
 30
0.0
 10
163.553000
 20
14.058000
 30
0.0
 10
160.487000
 20
14.394000
 30
0.0
 10
157.433000
 20
14.769000
 30
0.0
 10
157.359000
 20
14.785000
 30
0.0
 10
157.299000
 20
14.835000
 30
0.0
 10
157.271000
 20
14.897000
 30
0.0
 10
150.203000
 20
33.649000
 30
0.0
 10
136.087000
 20
71.143000
 30
0.0
 10
129.024000
 20
89.892000
 30
0.0
 10
125.528000
 20
99.251000
 30
0.0
 10
125.600000
 20
99.346000
 30
0.0
 10
126.703000
 20
99.629000
 30
0.0
 10
128.359000
 20
99.987000
 30
0.0
 10
129.873000
 20
100.292000
 30
0.0
 10
134.368000
 20
101.237000
 30
0.0
 10
138.825000
 20
102.193000
 30
0.0
  0
ENDSEC
  0
SECTION
  2
OBJECTS
  0
DICTIONARY
  5
C
330
0
100
AcDbDictionary
  3
ACAD_GROUP
350
D
  3
ACAD_MLINESTYLE
350
17
  0
DICTIONARY
  5
D
330
C
100
AcDbDictionary
  0
DICTIONARY
  5
1A
330
C
100
AcDbDictionary
  0
DICTIONARY
  5
17
330
C
100
AcDbDictionary
  3
STANDARD
350
18
  0
DICTIONARY
  5
19
330
C
100
AcDbDictionary
  0
ENDSEC
  0
EOF
