  0
SECTION
  2
HEADER
  9
$ACADVER
  1
AC1014
  9
$HANDSEED
  5
FFFF
  9
$MEASUREMENT
 70
     1
  0
ENDSEC
  0
SECTION
  2
TABLES
  0
TABLE
  2
VPORT
  5
8
330
0
100
AcDbSymbolTable
 70
     4
  0
VPORT
  5
2E
330
8
100
AcDbSymbolTableRecord
100
AcDbViewportTableRecord
  2
*ACTIVE
 70
     0
 10
0.0
 20
0.0
 11
1.0
 21
1.0
 12
210.0
 22
148.5
 13
0.0
 23
0.0
 14
10.0
 24
10.0
 15
10.0
 25
10.0
 16
0.0
 26
0.0
 36
1.0
 17
0.0
 27
0.0
 37
0.0
 40
341.0
 41
1.24
 42
50.0
 43
0.0
 44
0.0
 50
0.0
 51
0.0
 71
     0
 72
   100
 73
     1
 74
     3
 75
     0
 76
     0
 77
     0
 78
     0
  0
ENDTAB
  0
TABLE
  2
LTYPE
  5
5
330
0
100
AcDbSymbolTable
 70
     1
  0
LTYPE
  5
14
330
5
100
AcDbSymbolTableRecord
100
AcDbLinetypeTableRecord
  2
BYBLOCK
 70
     0
  3

 72
    65
 73
     0
 40
0.0
  0
LTYPE
  5
15
330
5
100
AcDbSymbolTableRecord
100
AcDbLinetypeTableRecord
  2
BYLAYER
 70
     0
  3

 72
    65
 73
     0
 40
0.0
  0
LTYPE
  5
16
330
5
100
AcDbSymbolTableRecord
100
AcDbLinetypeTableRecord
  2
CONTINUOUS
 70
     0
  3
Solid line
 72
    65
 73
     0
 40
0.0
  0
ENDTAB
  0
TABLE
  2
LAYER
  5
2
100
AcDbSymbolTable
 70
1
  0
LAYER
  5
50
100
AcDbSymbolTableRecord
100
AcDbLayerTableRecord
  2
0
 70
0
  6
CONTINUOUS
  0
ENDTAB
  0
TABLE
  2
STYLE
  5
3
330
0
100
AcDbSymbolTable
 70
     1
  0
STYLE
  5
11
330
3
100
AcDbSymbolTableRecord
100
AcDbTextStyleTableRecord
  2
STANDARD
 70
     0
 40
0.0
 41
1.0
 50
0.0
 71
     0
 42
2.5
  3
txt
  4

  0
ENDTAB
  0
TABLE
  2
VIEW
  5
6
330
0
100
AcDbSymbolTable
 70
     0
  0
ENDTAB
  0
TABLE
  2
UCS
  5
7
330
0
100
AcDbSymbolTable
 70
     0
  0
ENDTAB
  0
TABLE
  2
APPID
  5
9
330
0
100
AcDbSymbolTable
 70
     2
  0
APPID
  5
12
330
9
100
AcDbSymbolTableRecord
100
AcDbRegAppTableRecord
  2
ACAD
 70
     0
  0
ENDTAB
  0
TABLE
  2
DIMSTYLE
  5
A
330
0
100
AcDbSymbolTable
 70
     1
  0
DIMSTYLE
105
27
330
A
100
AcDbSymbolTableRecord
100
AcDbDimStyleTableRecord
  2
ISO-25
 70
     0
  3

  4

  5

  6

  7

 40
1.0
 41
2.5
 42
0.625
 43
3.75
 44
1.25
 45
0.0
 46
0.0
 47
0.0
 48
0.0
140
2.5
141
2.5
142
0.0
143
0.03937007874016
144
1.0
145
0.0
146
1.0
147
0.625
 71
     0
 72
     0
 73
     0
 74
     0
 75
     0
 76
     0
 77
     1
 78
     8
170
     0
171
     3
172
     1
173
     0
174
     0
175
     0
176
     0
177
     0
178
     0
270
     2
271
     2
272
     2
273
     2
274
     3
340
11
275
     0
280
     0
281
     0
282
     0
283
     0
284
     8
285
     0
286
     0
287
     3
288
     0
  0
ENDTAB
  0
TABLE
  2
BLOCK_RECORD
  5
1
330
0
100
AcDbSymbolTable
 70
     1
  0
BLOCK_RECORD
  5
1F
330
1
100
AcDbSymbolTableRecord
100
AcDbBlockTableRecord
  2
*MODEL_SPACE
  0
BLOCK_RECORD
  5
1B
330
1
100
AcDbSymbolTableRecord
100
AcDbBlockTableRecord
  2
*PAPER_SPACE
  0
ENDTAB
  0
ENDSEC
  0
SECTION
  2
BLOCKS
  0
BLOCK
  5
20
330
1F
100
AcDbEntity
  8
0
100
AcDbBlockBegin
  2
*MODEL_SPACE
 70
     0
 10
0.0
 20
0.0
 30
0.0
  3
*MODEL_SPACE
  1

  0
ENDBLK
  5
21
330
1F
100
AcDbEntity
  8
0
100
AcDbBlockEnd
  0
BLOCK
  5
1C
330
1B
100
AcDbEntity
 67
     1
  8
0
100
AcDbBlockBegin
  2
*PAPER_SPACE
  1

  0
ENDBLK
  5
1D
330
1B
100
AcDbEntity
 67
     1
  8
0
100
AcDbBlockEnd
  0
ENDSEC
  0
SECTION
  2
ENTITIES
  0
LWPOLYLINE
  5
100
100
AcDbEntity
  8
0
 62
7
100
AcDbPolyline
 90
56
 70
0
 10
125.453000
 20
99.325000
 30
0.0
 10
125.477000
 20
99.305000
 30
0.0
 10
125.504000
 20
99.249000
 30
0.0
 10
133.433000
 20
78.187000
 30
0.0
 10
137.415000
 20
67.612000
 30
0.0
 10
141.399000
 20
57.037000
 30
0.0
 10
146.709000
 20
42.937000
 30
0.0
 10
151.430000
 20
30.406000
 30
0.0
 10
155.182000
 20
20.447000
 30
0.0
 10
156.030000
 20
18.203000
 30
0.0
 10
156.848000
 20
15.979000
 30
0.0
 10
157.232000
 20
14.884000
 30
0.0
 10
157.239000
 20
14.844000
 30
0.0
 10
157.230000
 20
14.834000
 30
0.0
 10
157.222000
 20
14.832000
 30
0.0
 10
157.201000
 20
14.832000
 30
0.0
 10
156.952000
 20
14.847000
 30
0.0
 10
156.079000
 20
14.931000
 30
0.0
 10
155.223000
 20
15.043000
 30
0.0
 10
153.482000
 20
15.309000
 30
0.0
 10
149.616000
 20
15.923000
 30
0.0
 10
145.768000
 20
16.573000
 30
0.0
 10
141.173000
 20
17.353000
 30
0.0
 10
138.877000
 20
17.712000
 30
0.0
 10
135.426000
 20
18.204000
 30
0.0
 10
131.049000
 20
18.734000
 30
0.0
 10
126.657000
 20
19.164000
 30
0.0
 10
121.847000
 20
19.525000
 30
0.0
 10
117.034000
 20
19.778000
 30
0.0
 10
111.249000
 20
19.939000
 30
0.0
 10
108.330000
 20
19.961000
 30
0.0
 10
105.411000
 20
19.942000
 30
0.0
 10
102.545000
 20
19.883000
 30
0.0
 10
99.679600
 20
19.784000
 30
0.0
 10
96.790100
 20
19.644000
 30
0.0
 10
93.902100
 20
19.464000
 30
0.0
 10
88.130900
 20
18.997000
 30
0.0
 10
88.017000
 20
19.076000
 30
0.0
 10
87.020700
 20
22.872000
 30
0.0
 10
85.049800
 20
30.463000
 30
0.0
 10
79.135100
 20
53.234000
 30
0.0
 10
73.187900
 20
76.121000
 30
0.0
 10
71.204100
 20
83.751000
 30
0.0
 10
70.225300
 20
87.568000
 30
0.0
 10
70.218500
 20
87.615000
 30
0.0
 10
70.237600
 20
87.646000
 30
0.0
 10
70.282700
 20
87.661000
 30
0.0
 10
74.092400
 20
88.482000
 30
0.0
 10
81.720600
 20
90.091000
 30
0.0
 10
97.791700
 20
93.491000
 30
0.0
 10
111.623000
 20
96.419000
 30
0.0
 10
123.909000
 20
99.021000
 30
0.0
 10
125.281000
 20
99.310000
 30
0.0
 10
125.396000
 20
99.333000
 30
0.0
 10
125.435000
 20
99.332000
 30
0.0
 10
125.453000
 20
99.325000
 30
0.0
  0
ENDSEC
  0
SECTION
  2
OBJECTS
  0
DICTIONARY
  5
C
330
0
100
AcDbDictionary
  3
ACAD_GROUP
350
D
  3
ACAD_MLINESTYLE
350
17
  0
DICTIONARY
  5
D
330
C
100
AcDbDictionary
  0
DICTIONARY
  5
1A
330
C
100
AcDbDictionary
  0
DICTIONARY
  5
17
330
C
100
AcDbDictionary
  3
STANDARD
350
18
  0
DICTIONARY
  5
19
330
C
100
AcDbDictionary
  0
ENDSEC
  0
EOF
