  0
SECTION
  2
HEADER
  9
$ACADVER
  1
AC1014
  9
$HANDSEED
  5
FFFF
  9
$MEASUREMENT
 70
     1
  0
ENDSEC
  0
SECTION
  2
TABLES
  0
TABLE
  2
VPORT
  5
8
330
0
100
AcDbSymbolTable
 70
     4
  0
VPORT
  5
2E
330
8
100
AcDbSymbolTableRecord
100
AcDbViewportTableRecord
  2
*ACTIVE
 70
     0
 10
0.0
 20
0.0
 11
1.0
 21
1.0
 12
210.0
 22
148.5
 13
0.0
 23
0.0
 14
10.0
 24
10.0
 15
10.0
 25
10.0
 16
0.0
 26
0.0
 36
1.0
 17
0.0
 27
0.0
 37
0.0
 40
341.0
 41
1.24
 42
50.0
 43
0.0
 44
0.0
 50
0.0
 51
0.0
 71
     0
 72
   100
 73
     1
 74
     3
 75
     0
 76
     0
 77
     0
 78
     0
  0
ENDTAB
  0
TABLE
  2
LTYPE
  5
5
330
0
100
AcDbSymbolTable
 70
     1
  0
LTYPE
  5
14
330
5
100
AcDbSymbolTableRecord
100
AcDbLinetypeTableRecord
  2
BYBLOCK
 70
     0
  3

 72
    65
 73
     0
 40
0.0
  0
LTYPE
  5
15
330
5
100
AcDbSymbolTableRecord
100
AcDbLinetypeTableRecord
  2
BYLAYER
 70
     0
  3

 72
    65
 73
     0
 40
0.0
  0
LTYPE
  5
16
330
5
100
AcDbSymbolTableRecord
100
AcDbLinetypeTableRecord
  2
CONTINUOUS
 70
     0
  3
Solid line
 72
    65
 73
     0
 40
0.0
  0
ENDTAB
  0
TABLE
  2
LAYER
  5
2
100
AcDbSymbolTable
 70
1
  0
LAYER
  5
50
100
AcDbSymbolTableRecord
100
AcDbLayerTableRecord
  2
0
 70
0
  6
CONTINUOUS
  0
ENDTAB
  0
TABLE
  2
STYLE
  5
3
330
0
100
AcDbSymbolTable
 70
     1
  0
STYLE
  5
11
330
3
100
AcDbSymbolTableRecord
100
AcDbTextStyleTableRecord
  2
STANDARD
 70
     0
 40
0.0
 41
1.0
 50
0.0
 71
     0
 42
2.5
  3
txt
  4

  0
ENDTAB
  0
TABLE
  2
VIEW
  5
6
330
0
100
AcDbSymbolTable
 70
     0
  0
ENDTAB
  0
TABLE
  2
UCS
  5
7
330
0
100
AcDbSymbolTable
 70
     0
  0
ENDTAB
  0
TABLE
  2
APPID
  5
9
330
0
100
AcDbSymbolTable
 70
     2
  0
APPID
  5
12
330
9
100
AcDbSymbolTableRecord
100
AcDbRegAppTableRecord
  2
ACAD
 70
     0
  0
ENDTAB
  0
TABLE
  2
DIMSTYLE
  5
A
330
0
100
AcDbSymbolTable
 70
     1
  0
DIMSTYLE
105
27
330
A
100
AcDbSymbolTableRecord
100
AcDbDimStyleTableRecord
  2
ISO-25
 70
     0
  3

  4

  5

  6

  7

 40
1.0
 41
2.5
 42
0.625
 43
3.75
 44
1.25
 45
0.0
 46
0.0
 47
0.0
 48
0.0
140
2.5
141
2.5
142
0.0
143
0.03937007874016
144
1.0
145
0.0
146
1.0
147
0.625
 71
     0
 72
     0
 73
     0
 74
     0
 75
     0
 76
     0
 77
     1
 78
     8
170
     0
171
     3
172
     1
173
     0
174
     0
175
     0
176
     0
177
     0
178
     0
270
     2
271
     2
272
     2
273
     2
274
     3
340
11
275
     0
280
     0
281
     0
282
     0
283
     0
284
     8
285
     0
286
     0
287
     3
288
     0
  0
ENDTAB
  0
TABLE
  2
BLOCK_RECORD
  5
1
330
0
100
AcDbSymbolTable
 70
     1
  0
BLOCK_RECORD
  5
1F
330
1
100
AcDbSymbolTableRecord
100
AcDbBlockTableRecord
  2
*MODEL_SPACE
  0
BLOCK_RECORD
  5
1B
330
1
100
AcDbSymbolTableRecord
100
AcDbBlockTableRecord
  2
*PAPER_SPACE
  0
ENDTAB
  0
ENDSEC
  0
SECTION
  2
BLOCKS
  0
BLOCK
  5
20
330
1F
100
AcDbEntity
  8
0
100
AcDbBlockBegin
  2
*MODEL_SPACE
 70
     0
 10
0.0
 20
0.0
 30
0.0
  3
*MODEL_SPACE
  1

  0
ENDBLK
  5
21
330
1F
100
AcDbEntity
  8
0
100
AcDbBlockEnd
  0
BLOCK
  5
1C
330
1B
100
AcDbEntity
 67
     1
  8
0
100
AcDbBlockBegin
  2
*PAPER_SPACE
  1

  0
ENDBLK
  5
1D
330
1B
100
AcDbEntity
 67
     1
  8
0
100
AcDbBlockEnd
  0
ENDSEC
  0
SECTION
  2
ENTITIES
  0
LWPOLYLINE
  5
100
100
AcDbEntity
  8
0
 62
7
100
AcDbPolyline
 90
90
 70
0
 10
265.510000
 20
26.968000
 30
0.0
 10
263.846000
 20
26.338000
 30
0.0
 10
262.170000
 20
25.741000
 30
0.0
 10
259.923000
 20
24.978000
 30
0.0
 10
255.408000
 20
23.521000
 30
0.0
 10
250.308000
 20
21.969000
 30
0.0
 10
245.171000
 20
20.534000
 30
0.0
 10
239.995000
 20
19.219000
 30
0.0
 10
234.799000
 20
18.041000
 30
0.0
 10
231.453000
 20
17.340000
 30
0.0
 10
228.092000
 20
16.681000
 30
0.0
 10
225.574000
 20
16.241000
 30
0.0
 10
224.321000
 20
16.052000
 30
0.0
 10
224.274000
 20
16.050000
 30
0.0
 10
224.252000
 20
16.062000
 30
0.0
 10
224.243000
 20
16.076000
 30
0.0
 10
224.235000
 20
16.118000
 30
0.0
 10
223.568000
 20
21.763000
 30
0.0
 10
222.283000
 20
33.098000
 30
0.0
 10
220.707000
 20
46.917000
 30
0.0
 10
219.136000
 20
60.743000
 30
0.0
 10
217.440000
 20
75.623000
 30
0.0
 10
215.751000
 20
90.457000
 30
0.0
 10
214.911000
 20
97.848000
 30
0.0
 10
214.522000
 20
101.148000
 30
0.0
 10
214.339000
 20
102.790000
 30
0.0
 10
214.114000
 20
105.211000
 30
0.0
 10
214.113000
 20
105.239000
 30
0.0
 10
214.115000
 20
105.251000
 30
0.0
 10
214.123000
 20
105.264000
 30
0.0
 10
214.136000
 20
105.271000
 30
0.0
 10
214.148000
 20
105.273000
 30
0.0
 10
214.176000
 20
105.271000
 30
0.0
 10
216.341000
 20
105.031000
 30
0.0
 10
218.530000
 20
104.733000
 30
0.0
 10
222.926000
 20
104.038000
 30
0.0
 10
227.301000
 20
103.263000
 30
0.0
 10
230.564000
 20
102.637000
 30
0.0
 10
233.816000
 20
101.964000
 30
0.0
 10
237.065000
 20
101.235000
 30
0.0
 10
240.308000
 20
100.453000
 30
0.0
 10
243.532000
 20
99.628000
 30
0.0
 10
246.736000
 20
98.751000
 30
0.0
 10
249.927000
 20
97.821000
 30
0.0
 10
253.109000
 20
96.849000
 30
0.0
 10
256.763000
 20
95.693000
 30
0.0
 10
260.404000
 20
94.497000
 30
0.0
 10
262.779000
 20
93.676000
 30
0.0
 10
263.959000
 20
93.247000
 30
0.0
 10
265.717000
 20
92.570000
 30
0.0
 10
267.117000
 20
91.986000
 30
0.0
 10
268.498000
 20
91.356000
 30
0.0
 10
270.300000
 20
90.438000
 30
0.0
 10
272.047000
 20
89.422000
 30
0.0
 10
273.732000
 20
88.304000
 30
0.0
 10
275.346000
 20
87.086000
 30
0.0
 10
276.886000
 20
85.771000
 30
0.0
 10
278.346000
 20
84.366000
 30
0.0
 10
279.722000
 20
82.879000
 30
0.0
 10
281.011000
 20
81.316000
 30
0.0
 10
282.208000
 20
79.683000
 30
0.0
 10
283.483000
 20
77.696000
 30
0.0
 10
284.620000
 20
75.628000
 30
0.0
 10
285.616000
 20
73.488000
 30
0.0
 10
286.465000
 20
71.285000
 30
0.0
 10
287.164000
 20
69.031000
 30
0.0
 10
287.709000
 20
66.734000
 30
0.0
 10
288.099000
 20
64.405000
 30
0.0
 10
288.330000
 20
62.056000
 30
0.0
 10
288.402000
 20
59.696000
 30
0.0
 10
288.315000
 20
57.337000
 30
0.0
 10
288.069000
 20
54.990000
 30
0.0
 10
287.665000
 20
52.664000
 30
0.0
 10
287.105000
 20
50.371000
 30
0.0
 10
286.392000
 20
48.120000
 30
0.0
 10
285.529000
 20
45.923000
 30
0.0
 10
284.519000
 20
43.789000
 30
0.0
 10
283.368000
 20
41.728000
 30
0.0
 10
282.081000
 20
39.749000
 30
0.0
 10
280.874000
 20
38.125000
 30
0.0
 10
279.576000
 20
36.570000
 30
0.0
 10
278.190000
 20
35.092000
 30
0.0
 10
276.721000
 20
33.696000
 30
0.0
 10
275.173000
 20
32.390000
 30
0.0
 10
273.550000
 20
31.182000
 30
0.0
 10
271.859000
 20
30.075000
 30
0.0
 10
270.105000
 20
29.070000
 30
0.0
 10
268.298000
 20
28.164000
 30
0.0
 10
266.914000
 20
27.544000
 30
0.0
 10
265.510000
 20
26.968000
 30
0.0
  0
ENDSEC
  0
SECTION
  2
OBJECTS
  0
DICTIONARY
  5
C
330
0
100
AcDbDictionary
  3
ACAD_GROUP
350
D
  3
ACAD_MLINESTYLE
350
17
  0
DICTIONARY
  5
D
330
C
100
AcDbDictionary
  0
DICTIONARY
  5
1A
330
C
100
AcDbDictionary
  0
DICTIONARY
  5
17
330
C
100
AcDbDictionary
  3
STANDARD
350
18
  0
DICTIONARY
  5
19
330
C
100
AcDbDictionary
  0
ENDSEC
  0
EOF
