  0
SECTION
  2
HEADER
  9
$ACADVER
  1
AC1014
  9
$HANDSEED
  5
FFFF
  9
$MEASUREMENT
 70
     1
  0
ENDSEC
  0
SECTION
  2
TABLES
  0
TABLE
  2
VPORT
  5
8
330
0
100
AcDbSymbolTable
 70
     4
  0
VPORT
  5
2E
330
8
100
AcDbSymbolTableRecord
100
AcDbViewportTableRecord
  2
*ACTIVE
 70
     0
 10
0.0
 20
0.0
 11
1.0
 21
1.0
 12
210.0
 22
148.5
 13
0.0
 23
0.0
 14
10.0
 24
10.0
 15
10.0
 25
10.0
 16
0.0
 26
0.0
 36
1.0
 17
0.0
 27
0.0
 37
0.0
 40
341.0
 41
1.24
 42
50.0
 43
0.0
 44
0.0
 50
0.0
 51
0.0
 71
     0
 72
   100
 73
     1
 74
     3
 75
     0
 76
     0
 77
     0
 78
     0
  0
ENDTAB
  0
TABLE
  2
LTYPE
  5
5
330
0
100
AcDbSymbolTable
 70
     1
  0
LTYPE
  5
14
330
5
100
AcDbSymbolTableRecord
100
AcDbLinetypeTableRecord
  2
BYBLOCK
 70
     0
  3

 72
    65
 73
     0
 40
0.0
  0
LTYPE
  5
15
330
5
100
AcDbSymbolTableRecord
100
AcDbLinetypeTableRecord
  2
BYLAYER
 70
     0
  3

 72
    65
 73
     0
 40
0.0
  0
LTYPE
  5
16
330
5
100
AcDbSymbolTableRecord
100
AcDbLinetypeTableRecord
  2
CONTINUOUS
 70
     0
  3
Solid line
 72
    65
 73
     0
 40
0.0
  0
ENDTAB
  0
TABLE
  2
LAYER
  5
2
100
AcDbSymbolTable
 70
1
  0
LAYER
  5
50
100
AcDbSymbolTableRecord
100
AcDbLayerTableRecord
  2
0
 70
0
  6
CONTINUOUS
  0
ENDTAB
  0
TABLE
  2
STYLE
  5
3
330
0
100
AcDbSymbolTable
 70
     1
  0
STYLE
  5
11
330
3
100
AcDbSymbolTableRecord
100
AcDbTextStyleTableRecord
  2
STANDARD
 70
     0
 40
0.0
 41
1.0
 50
0.0
 71
     0
 42
2.5
  3
txt
  4

  0
ENDTAB
  0
TABLE
  2
VIEW
  5
6
330
0
100
AcDbSymbolTable
 70
     0
  0
ENDTAB
  0
TABLE
  2
UCS
  5
7
330
0
100
AcDbSymbolTable
 70
     0
  0
ENDTAB
  0
TABLE
  2
APPID
  5
9
330
0
100
AcDbSymbolTable
 70
     2
  0
APPID
  5
12
330
9
100
AcDbSymbolTableRecord
100
AcDbRegAppTableRecord
  2
ACAD
 70
     0
  0
ENDTAB
  0
TABLE
  2
DIMSTYLE
  5
A
330
0
100
AcDbSymbolTable
 70
     1
  0
DIMSTYLE
105
27
330
A
100
AcDbSymbolTableRecord
100
AcDbDimStyleTableRecord
  2
ISO-25
 70
     0
  3

  4

  5

  6

  7

 40
1.0
 41
2.5
 42
0.625
 43
3.75
 44
1.25
 45
0.0
 46
0.0
 47
0.0
 48
0.0
140
2.5
141
2.5
142
0.0
143
0.03937007874016
144
1.0
145
0.0
146
1.0
147
0.625
 71
     0
 72
     0
 73
     0
 74
     0
 75
     0
 76
     0
 77
     1
 78
     8
170
     0
171
     3
172
     1
173
     0
174
     0
175
     0
176
     0
177
     0
178
     0
270
     2
271
     2
272
     2
273
     2
274
     3
340
11
275
     0
280
     0
281
     0
282
     0
283
     0
284
     8
285
     0
286
     0
287
     3
288
     0
  0
ENDTAB
  0
TABLE
  2
BLOCK_RECORD
  5
1
330
0
100
AcDbSymbolTable
 70
     1
  0
BLOCK_RECORD
  5
1F
330
1
100
AcDbSymbolTableRecord
100
AcDbBlockTableRecord
  2
*MODEL_SPACE
  0
BLOCK_RECORD
  5
1B
330
1
100
AcDbSymbolTableRecord
100
AcDbBlockTableRecord
  2
*PAPER_SPACE
  0
ENDTAB
  0
ENDSEC
  0
SECTION
  2
BLOCKS
  0
BLOCK
  5
20
330
1F
100
AcDbEntity
  8
0
100
AcDbBlockBegin
  2
*MODEL_SPACE
 70
     0
 10
0.0
 20
0.0
 30
0.0
  3
*MODEL_SPACE
  1

  0
ENDBLK
  5
21
330
1F
100
AcDbEntity
  8
0
100
AcDbBlockEnd
  0
BLOCK
  5
1C
330
1B
100
AcDbEntity
 67
     1
  8
0
100
AcDbBlockBegin
  2
*PAPER_SPACE
  1

  0
ENDBLK
  5
1D
330
1B
100
AcDbEntity
 67
     1
  8
0
100
AcDbBlockEnd
  0
ENDSEC
  0
SECTION
  2
ENTITIES
  0
SPLINE
  5
100
100
AcDbEntity
  8
0
 62
7
100
AcDbSpline
 70
0
 71
3
 72
55
 73
51
 74
49
 40
0.000000
 40
0.000000
 40
0.000000
 40
0.000000
 40
0.552194
 40
1.875010
 40
3.683742
 40
5.653294
 40
7.399259
 40
8.547586
 40
9.540987
 40
10.871818
 40
12.251965
 40
13.671369
 40
15.105178
 40
16.243062
 40
17.226430
 40
18.256845
 40
19.113438
 40
21.708903
 40
26.027984
 40
30.952344
 40
34.101445
 40
36.931991
 40
39.101779
 40
39.888388
 40
40.882317
 40
41.874814
 40
44.589094
 40
48.447733
 40
51.792394
 40
52.774717
 40
54.236623
 40
55.871195
 40
57.670902
 40
58.954497
 40
59.878766
 40
60.690352
 40
61.456881
 40
62.599529
 40
63.621253
 40
64.680135
 40
65.559991
 40
66.490404
 40
67.153732
 40
68.066702
 40
70.331646
 40
72.675885
 40
75.254025
 40
78.074108
 40
80.056810
 40
82.264412
 40
82.264412
 40
82.264412
 40
82.264412
 10
211.604251
 20
55.471878
 30
0.0
 10
211.423123
 20
55.505000
 30
0.0
 10
210.808094
 20
55.617469
 30
0.0
 10
209.582056
 20
55.712969
 30
0.0
 10
207.888212
 20
55.851220
 30
0.0
 10
206.053170
 20
56.011725
 30
0.0
 10
204.444959
 20
56.216481
 30
0.0
 10
203.167911
 20
56.451310
 30
0.0
 10
202.064433
 20
56.805083
 30
0.0
 10
200.876389
 20
57.140706
 30
0.0
 10
199.553992
 20
57.524199
 30
0.0
 10
198.199680
 20
57.920452
 30
0.0
 10
196.924498
 20
58.299790
 30
0.0
 10
195.795586
 20
58.660485
 30
0.0
 10
194.785881
 20
58.950676
 30
0.0
 10
193.857113
 20
59.183722
 30
0.0
 10
192.374874
 20
59.398770
 30
0.0
 10
189.963582
 20
60.416645
 30
0.0
 10
186.432234
 20
62.155235
 30
0.0
 10
182.862703
 20
64.246757
 30
0.0
 10
179.720223
 20
66.069075
 30
0.0
 10
177.283007
 20
67.285550
 30
0.0
 10
175.456006
 20
67.909851
 30
0.0
 10
174.211093
 20
68.341223
 30
0.0
 10
173.378440
 20
68.748569
 30
0.0
 10
172.034556
 20
69.554408
 30
0.0
 10
169.820345
 20
70.762400
 30
0.0
 10
166.892460
 20
72.300399
 30
0.0
 10
164.346362
 20
73.307373
 30
0.0
 10
162.688990
 20
74.303480
 30
0.0
 10
161.625413
 20
75.155223
 30
0.0
 10
160.408961
 20
76.243749
 30
0.0
 10
159.259770
 20
77.313796
 30
0.0
 10
158.196795
 20
78.139961
 30
0.0
 10
157.276829
 20
78.554049
 30
0.0
 10
156.457701
 20
78.780605
 30
0.0
 10
155.795578
 20
79.442753
 30
0.0
 10
155.326546
 20
80.298918
 30
0.0
 10
154.720634
 20
81.188249
 30
0.0
 10
154.082274
 20
81.945805
 30
0.0
 10
153.370140
 20
82.583091
 30
0.0
 10
152.698586
 20
83.079932
 30
0.0
 10
151.865467
 20
83.291964
 30
0.0
 10
150.593004
 20
83.030994
 30
0.0
 10
148.758959
 20
82.893631
 30
0.0
 10
146.356982
 20
83.082235
 30
0.0
 10
143.842535
 20
83.677792
 30
0.0
 10
141.480004
 20
84.385557
 30
0.0
 10
139.082949
 20
84.366765
 30
0.0
 10
137.803665
 20
83.769117
 30
0.0
 10
137.129692
 20
83.454254
 30
0.0
 11
211.604251
 21
55.471878
 31
0.0
 11
211.060086
 21
55.565706
 31
0.0
 11
209.744211
 21
55.701030
 31
0.0
 11
207.941505
 21
55.848552
 31
0.0
 11
205.980499
 21
56.031838
 31
0.0
 11
204.249629
 21
56.260921
 31
0.0
 11
203.123617
 21
56.486203
 31
0.0
 11
202.170409
 21
56.765919
 31
0.0
 11
200.892565
 21
57.137704
 31
0.0
 11
199.566730
 21
57.521068
 31
0.0
 11
198.204576
 21
57.920123
 31
0.0
 11
196.831512
 21
58.333043
 31
0.0
 11
195.744797
 21
58.670434
 31
0.0
 11
194.799418
 21
58.941117
 31
0.0
 11
193.796872
 21
59.179146
 31
0.0
 11
192.954208
 21
59.332990
 31
0.0
 11
190.510095
 21
60.206347
 31
0.0
 11
186.633454
 21
62.110582
 31
0.0
 11
182.350890
 21
64.541419
 31
0.0
 11
179.610389
 21
66.092706
 31
0.0
 11
177.058726
 21
67.317863
 31
0.0
 11
175.020228
 21
68.061169
 31
0.0
 11
174.281597
 21
68.331684
 31
0.0
 11
173.385160
 21
68.760981
 31
0.0
 11
172.524993
 21
69.256120
 31
0.0
 11
170.152416
 21
70.574527
 31
0.0
 11
166.708016
 21
72.313836
 31
0.0
 11
163.675537
 21
73.724805
 31
0.0
 11
162.836380
 21
74.235466
 31
0.0
 11
161.678932
 21
75.128484
 31
0.0
 11
160.453775
 21
76.210526
 31
0.0
 11
159.111301
 21
77.409155
 31
0.0
 11
158.072056
 21
78.162537
 31
0.0
 11
157.231345
 21
78.546567
 31
0.0
 11
156.478003
 21
78.848473
 31
0.0
 11
155.912756
 21
79.366220
 31
0.0
 11
155.290333
 21
80.324466
 31
0.0
 11
154.713748
 21
81.167952
 31
0.0
 11
154.024832
 21
81.972083
 31
0.0
 11
153.372731
 21
82.562770
 31
0.0
 11
152.593015
 21
83.070422
 31
0.0
 11
151.948741
 21
83.228272
 31
0.0
 11
151.040638
 21
83.134140
 31
0.0
 11
148.782989
 21
82.952495
 31
0.0
 11
146.445685
 21
83.132677
 31
0.0
 11
143.926865
 21
83.682540
 31
0.0
 11
141.175801
 21
84.302631
 31
0.0
 11
139.194216
 21
84.236079
 31
0.0
 11
137.129692
 21
83.454254
 31
0.0
  0
LWPOLYLINE
  5
101
100
AcDbEntity
  8
0
 62
7
100
AcDbPolyline
 90
3
 70
0
 10
137.129692
 20
83.454254
 30
0.0
 10
135.194281
 20
82.523850
 30
0.0
 10
132.573834
 20
82.767981
 30
0.0
  0
SPLINE
  5
102
100
AcDbEntity
  8
0
 62
7
100
AcDbSpline
 70
0
 71
3
 72
190
 73
186
 74
184
 40
0.000000
 40
0.000000
 40
0.000000
 40
0.000000
 40
1.521671
 40
2.982935
 40
4.070395
 40
5.050302
 40
6.232259
 40
7.366575
 40
8.670470
 40
9.734623
 40
11.018335
 40
12.217871
 40
13.043046
 40
13.793779
 40
14.453833
 40
15.079710
 40
15.724174
 40
17.339183
 40
19.311300
 40
20.865816
 40
22.461141
 40
24.637480
 40
27.122478
 40
28.657390
 40
29.769921
 40
31.175174
 40
32.465773
 40
33.299444
 40
34.047285
 40
34.919668
 40
36.274036
 40
38.662483
 40
41.403092
 40
43.685312
 40
47.170008
 40
49.861347
 40
52.254043
 40
53.830503
 40
54.944385
 40
56.125145
 40
57.119193
 40
59.875331
 40
62.461177
 40
64.881627
 40
66.459235
 40
68.513633
 40
70.601208
 40
72.986975
 40
75.557028
 40
78.115565
 40
81.904378
 40
85.356998
 40
89.824137
 40
92.348428
 40
94.518350
 40
97.585867
 40
100.341572
 40
102.800154
 40
106.375065
 40
112.008042
 40
117.317884
 40
123.518825
 40
125.762841
 40
127.800657
 40
129.195277
 40
132.497407
 40
137.231735
 40
141.377927
 40
143.928374
 40
146.908545
 40
148.970819
 40
149.908859
 40
151.863534
 40
154.411942
 40
159.386929
 40
163.977623
 40
169.014467
 40
174.141988
 40
180.561319
 40
185.180308
 40
190.704971
 40
198.999670
 40
204.626304
 40
206.549460
 40
209.783155
 40
215.951863
 40
220.110484
 40
224.923366
 40
231.479449
 40
235.154831
 40
238.223855
 40
240.424235
 40
242.258990
 40
244.469814
 40
246.578105
 40
248.731795
 40
251.063290
 40
253.069726
 40
254.971414
 40
257.027577
 40
258.794552
 40
261.539552
 40
265.187774
 40
270.750417
 40
272.954660
 40
274.761984
 40
276.386844
 40
281.528652
 40
287.110848
 40
293.928356
 40
297.948855
 40
302.126932
 40
310.675532
 40
313.012746
 40
315.004875
 40
316.733753
 40
318.006293
 40
319.060029
 40
319.670364
 40
320.165489
 40
320.951335
 40
321.876097
 40
324.176066
 40
326.572691
 40
329.976103
 40
332.258133
 40
334.301918
 40
336.365090
 40
339.111277
 40
341.010859
 40
342.848781
 40
343.824040
 40
344.647517
 40
345.756791
 40
347.538501
 40
349.234744
 40
351.361185
 40
353.446572
 40
355.459185
 40
357.355352
 40
357.975185
 40
358.568104
 40
359.017848
 40
359.445889
 40
359.731267
 40
360.289789
 40
361.392029
 40
362.603669
 40
363.745217
 40
364.309197
 40
365.063937
 40
365.855338
 40
368.182677
 40
369.919331
 40
371.499878
 40
372.716810
 40
373.852501
 40
375.409200
 40
378.339172
 40
380.891459
 40
383.410479
 40
386.879507
 40
390.036768
 40
392.982978
 40
394.425543
 40
395.924058
 40
397.168961
 40
397.452378
 40
397.762381
 40
398.232449
 40
398.882139
 40
399.756490
 40
401.148985
 40
403.704312
 40
405.918719
 40
408.505529
 40
411.113582
 40
413.224912
 40
415.314553
 40
417.660698
 40
419.975157
 40
422.015259
 40
422.729207
 40
423.446506
 40
424.022695
 40
424.022695
 40
424.022695
 40
424.022695
 10
132.573834
 20
82.767981
 30
0.0
 10
132.069696
 20
82.823477
 30
0.0
 10
131.081432
 20
82.932265
 30
0.0
 10
129.738107
 20
83.132321
 30
0.0
 10
128.591439
 20
83.395097
 30
0.0
 10
127.532965
 20
83.627926
 30
0.0
 10
126.438891
 20
83.749797
 30
0.0
 10
125.233949
 20
83.808375
 30
0.0
 10
124.062532
 20
83.787171
 30
0.0
 10
122.863862
 20
83.525516
 30
0.0
 10
121.789743
 20
83.018302
 30
0.0
 10
120.794543
 20
82.551700
 30
0.0
 10
119.889044
 20
82.293889
 30
0.0
 10
119.139835
 20
82.374521
 30
0.0
 10
118.465523
 20
82.448928
 30
0.0
 10
117.816940
 20
82.366361
 30
0.0
 10
116.935009
 20
81.968493
 30
0.0
 10
115.526379
 20
81.749826
 30
0.0
 10
113.785816
 20
81.785356
 30
0.0
 10
112.177153
 20
82.375324
 30
0.0
 10
110.476442
 20
82.955442
 30
0.0
 10
108.351573
 20
82.696832
 30
0.0
 10
106.364836
 20
82.155888
 30
0.0
 10
104.781958
 20
81.485237
 30
0.0
 10
103.433356
 20
81.273990
 30
0.0
 10
102.162681
 20
81.401808
 30
0.0
 10
100.996375
 20
81.495398
 30
0.0
 10
100.021000
 20
81.444358
 30
0.0
 10
99.285570
 20
81.066436
 30
0.0
 10
98.358175
 20
80.699185
 30
0.0
 10
96.802169
 20
80.627180
 30
0.0
 10
94.651970
 20
80.583417
 30
0.0
 10
92.173084
 20
80.601029
 30
0.0
 10
89.363185
 20
80.159859
 30
0.0
 10
86.640198
 20
79.423332
 30
0.0
 10
83.867417
 20
78.738917
 30
0.0
 10
81.709986
 20
78.213918
 30
0.0
 10
80.053728
 20
77.856424
 30
0.0
 10
78.791992
 20
77.585946
 30
0.0
 10
77.731183
 20
77.306239
 30
0.0
 10
76.169298
 20
76.794311
 30
0.0
 10
74.154596
 20
76.152069
 30
0.0
 10
71.584562
 20
75.744078
 30
0.0
 10
69.384357
 20
75.782267
 30
0.0
 10
67.372174
 20
75.921585
 30
0.0
 10
65.465164
 20
75.961858
 30
0.0
 10
63.289494
 20
75.959167
 30
0.0
 10
60.941359
 20
75.988293
 30
0.0
 10
58.440421
 20
76.152776
 30
0.0
 10
55.485705
 20
76.464417
 30
0.0
 10
52.244078
 20
76.953785
 30
0.0
 10
48.547572
 20
78.274522
 30
0.0
 10
45.490093
 20
79.947256
 30
0.0
 10
42.812190
 20
81.420346
 30
0.0
 10
40.714444
 20
82.945995
 30
0.0
 10
38.716275
 20
84.704121
 30
0.0
 10
36.619129
 20
86.519418
 30
0.0
 10
34.919757
 20
88.932190
 30
0.0
 10
33.150254
 20
92.392358
 30
0.0
 10
31.162921
 20
96.841982
 30
0.0
 10
30.356884
 20
102.570121
 30
0.0
 10
30.749078
 20
107.158420
 30
0.0
 10
31.268572
 20
110.614584
 30
0.0
 10
31.621724
 20
112.470951
 30
0.0
 10
32.112598
 20
114.673460
 30
0.0
 10
33.816159
 20
117.378566
 30
0.0
 10
36.042006
 20
120.739368
 30
0.0
 10
38.298694
 20
123.849114
 30
0.0
 10
40.757617
 20
125.954898
 30
0.0
 10
42.781196
 20
127.473513
 30
0.0
 10
44.498039
 20
128.505459
 30
0.0
 10
46.028459
 20
129.130114
 30
0.0
 10
47.667058
 20
129.908544
 30
0.0
 10
50.524754
 20
131.253257
 30
0.0
 10
54.223319
 20
132.893942
 30
0.0
 10
58.915836
 20
134.231425
 30
0.0
 10
63.773060
 20
135.083761
 30
0.0
 10
69.302195
 20
135.316747
 30
0.0
 10
74.693915
 20
135.421072
 30
0.0
 10
80.203056
 20
135.021845
 30
0.0
 10
86.345613
 20
134.749283
 30
0.0
 10
92.823593
 20
134.838208
 30
0.0
 10
98.118060
 20
134.890266
 30
0.0
 10
101.678103
 20
135.406000
 30
0.0
 10
105.444214
 20
135.688951
 30
0.0
 10
109.951838
 20
136.009616
 30
0.0
 10
114.976308
 20
136.522917
 30
0.0
 10
120.059959
 20
137.525508
 30
0.0
 10
124.929233
 20
138.722479
 30
0.0
 10
129.241802
 20
139.751813
 30
0.0
 10
132.162386
 20
140.356293
 30
0.0
 10
134.505823
 20
140.708612
 30
0.0
 10
136.580717
 20
140.885737
 30
0.0
 10
138.620757
 20
141.099939
 30
0.0
 10
140.765350
 20
141.337083
 30
0.0
 10
142.954762
 20
141.531353
 30
0.0
 10
145.115229
 20
141.661982
 30
0.0
 10
147.194753
 20
141.709519
 30
0.0
 10
149.182659
 20
141.739286
 30
0.0
 10
151.089226
 20
141.832712
 30
0.0
 10
153.271136
 20
142.013930
 30
0.0
 10
155.980436
 20
142.261085
 30
0.0
 10
159.964378
 20
142.408946
 30
0.0
 10
163.768395
 20
142.485677
 30
0.0
 10
166.957806
 20
142.597018
 30
0.0
 10
168.830786
 20
142.787705
 30
0.0
 10
171.621654
 20
143.414143
 30
0.0
 10
175.628879
 20
144.362019
 30
0.0
 10
181.440148
 20
145.100390
 30
0.0
 10
186.897843
 20
145.458662
 30
0.0
 10
191.899641
 20
145.810385
 30
0.0
 10
197.476252
 20
145.374103
 30
0.0
 10
202.465026
 20
144.835711
 30
0.0
 10
206.727737
 20
144.326887
 30
0.0
 10
208.717034
 20
143.960033
 30
0.0
 10
210.318176
 20
143.508451
 30
0.0
 10
211.606555
 20
143.077591
 30
0.0
 10
212.547163
 20
142.862347
 30
0.0
 10
213.264891
 20
142.641238
 30
0.0
 10
213.870334
 20
142.892054
 30
0.0
 10
214.494412
 20
143.270771
 30
0.0
 10
215.538415
 20
144.108777
 30
0.0
 10
217.053856
 20
145.260167
 30
0.0
 10
219.748136
 20
145.857910
 30
0.0
 10
222.439125
 20
145.884335
 30
0.0
 10
225.016520
 20
145.831431
 30
0.0
 10
227.139815
 20
145.639532
 30
0.0
 10
229.391849
 20
145.246244
 30
0.0
 10
231.579106
 20
144.787050
 30
0.0
 10
233.585189
 20
143.847571
 30
0.0
 10
234.585195
 20
142.598935
 30
0.0
 10
235.261151
 20
141.584843
 30
0.0
 10
235.516657
 20
140.632930
 30
0.0
 10
235.510956
 20
139.391491
 30
0.0
 10
235.434396
 20
137.852897
 30
0.0
 10
234.775425
 20
136.080027
 30
0.0
 10
233.739031
 20
134.398158
 30
0.0
 10
232.417066
 20
132.787645
 30
0.0
 10
230.827020
 20
131.537305
 30
0.0
 10
229.418251
 20
130.959656
 30
0.0
 10
228.439620
 20
130.628405
 30
0.0
 10
227.936670
 20
130.373034
 30
0.0
 10
227.565824
 20
130.074936
 30
0.0
 10
227.247723
 20
129.777108
 30
0.0
 10
227.354548
 20
129.321736
 30
0.0
 10
227.873233
 20
128.900819
 30
0.0
 10
228.723643
 20
128.429831
 30
0.0
 10
229.903465
 20
128.378646
 30
0.0
 10
230.883132
 20
128.643118
 30
0.0
 10
231.483231
 20
129.216824
 30
0.0
 10
231.941027
 20
129.749889
 30
0.0
 10
232.666972
 20
130.820342
 30
0.0
 10
233.509693
 20
132.201305
 30
0.0
 10
234.726406
 20
133.654559
 30
0.0
 10
235.929003
 20
134.579062
 30
0.0
 10
237.046571
 20
135.277800
 30
0.0
 10
238.298162
 20
135.678540
 30
0.0
 10
240.156154
 20
135.937189
 30
0.0
 10
242.497444
 20
136.159423
 30
0.0
 10
245.173474
 20
135.925882
 30
0.0
 10
247.914096
 20
135.106935
 30
0.0
 10
250.637072
 20
133.654007
 30
0.0
 10
252.932018
 20
131.371459
 30
0.0
 10
254.053902
 20
129.033078
 30
0.0
 10
254.272126
 20
127.080396
 30
0.0
 10
254.268921
 20
125.660139
 30
0.0
 10
254.008148
 20
124.713121
 30
0.0
 10
253.865025
 20
124.078256
 30
0.0
 10
254.122141
 20
123.785428
 30
0.0
 10
254.531840
 20
123.554546
 30
0.0
 10
255.173464
 20
123.337896
 30
0.0
 10
256.155862
 20
123.351192
 30
0.0
 10
257.747499
 20
123.530136
 30
0.0
 10
259.812122
 20
123.701832
 30
0.0
 10
262.242621
 20
123.146099
 30
0.0
 10
264.403935
 20
121.920223
 30
0.0
 10
266.438793
 20
120.575724
 30
0.0
 10
268.069530
 20
118.968293
 30
0.0
 10
269.213087
 20
117.085306
 30
0.0
 10
269.933421
 20
114.937689
 30
0.0
 10
270.182244
 20
112.689272
 30
0.0
 10
269.855615
 20
111.009967
 30
0.0
 10
269.481973
 20
109.915443
 30
0.0
 10
269.357113
 20
109.253293
 30
0.0
 10
269.354768
 20
108.821610
 30
0.0
 10
269.353724
 20
108.629314
 30
0.0
 11
132.573834
 21
82.767981
 31
0.0
 11
131.062415
 21
82.944310
 31
0.0
 11
129.618983
 21
83.171907
 31
0.0
 11
128.556036
 21
83.401496
 31
0.0
 11
127.596043
 21
83.598044
 31
0.0
 11
126.422523
 21
83.739018
 31
0.0
 11
125.289535
 21
83.793897
 31
0.0
 11
123.986812
 21
83.738623
 31
0.0
 11
122.948208
 21
83.506844
 31
0.0
 11
121.765571
 21
83.007558
 31
0.0
 11
120.663849
 21
82.533117
 31
0.0
 11
119.860947
 21
82.342691
 31
0.0
 11
119.111043
 21
82.377980
 31
0.0
 11
118.452548
 21
82.423308
 31
0.0
 11
117.832536
 21
82.337824
 31
0.0
 11
117.226659
 21
82.118172
 31
0.0
 11
115.641155
 21
81.810878
 31
0.0
 11
113.671414
 21
81.907649
 31
0.0
 11
112.185950
 21
82.365817
 31
0.0
 11
110.648265
 21
82.790772
 31
0.0
 11
108.475686
 21
82.662881
 31
0.0
 11
106.078991
 21
82.006325
 31
0.0
 11
104.630015
 21
81.499941
 31
0.0
 11
103.530329
 21
81.331371
 31
0.0
 11
102.126777
 21
81.400495
 31
0.0
 11
100.838205
 21
81.472788
 31
0.0
 11
100.009387
 21
81.382962
 31
0.0
 11
99.318728
 21
81.096161
 31
0.0
 11
98.499772
 21
80.795557
 31
0.0
 11
97.153504
 21
80.647652
 31
0.0
 11
94.765616
 21
80.595945
 31
0.0
 11
92.026031
 21
80.521021
 31
0.0
 11
89.767887
 21
80.190404
 31
0.0
 11
86.381526
 21
79.368413
 31
0.0
 11
83.770320
 21
78.716560
 31
0.0
 11
81.442818
 21
78.161829
 31
0.0
 11
79.902912
 21
77.824315
 31
0.0
 11
78.815615
 21
77.582411
 31
0.0
 11
77.674682
 21
77.278327
 31
0.0
 11
76.727120
 21
76.977897
 31
0.0
 11
74.081804
 21
76.204207
 31
0.0
 11
71.525670
 21
75.813333
 31
0.0
 11
69.105221
 21
75.812386
 31
0.0
 11
67.530028
 21
75.899662
 31
0.0
 11
65.476350
 21
75.954029
 31
0.0
 11
63.388797
 21
75.963720
 31
0.0
 11
61.003440
 21
76.007922
 31
0.0
 11
58.438493
 21
76.169846
 31
0.0
 11
55.893929
 21
76.436880
 31
0.0
 11
52.162747
 21
77.095194
 31
0.0
 11
48.902425
 21
78.231369
 31
0.0
 11
44.922594
 21
80.260231
 31
0.0
 11
42.738520
 21
81.525876
 31
0.0
 11
40.975270
 21
82.790594
 31
0.0
 11
38.633094
 21
84.771472
 31
0.0
 11
36.631091
 21
86.665117
 31
0.0
 11
35.177347
 21
88.647856
 31
0.0
 11
33.482929
 21
91.795702
 31
0.0
 11
31.379290
 21
97.021133
 31
0.0
 11
30.583782
 21
102.271047
 31
0.0
 11
30.957719
 21
108.460703
 31
0.0
 11
31.293675
 21
110.679428
 31
0.0
 11
31.674655
 21
112.681315
 31
0.0
 11
32.018180
 21
114.032963
 31
0.0
 11
33.560271
 21
116.952898
 31
0.0
 11
36.186595
 21
120.891969
 31
0.0
 11
38.759242
 21
124.143492
 31
0.0
 11
40.663012
 21
125.840678
 31
0.0
 11
43.062045
 21
127.608744
 31
0.0
 11
44.851665
 21
128.633553
 31
0.0
 11
45.712111
 21
129.007122
 31
0.0
 11
47.488556
 21
129.822594
 31
0.0
 11
49.796410
 21
130.903424
 31
0.0
 11
54.382147
 21
132.832547
 31
0.0
 11
58.789629
 21
134.116515
 31
0.0
 11
63.753737
 21
134.969408
 31
0.0
 11
68.871763
 21
135.281303
 31
0.0
 11
75.290985
 21
135.318616
 31
0.0
 11
79.902912
 21
135.063280
 31
0.0
 11
85.422773
 21
134.832979
 31
0.0
 11
93.717464
 21
134.844047
 31
0.0
 11
99.338754
 21
135.089209
 31
0.0
 11
101.247161
 21
135.326938
 31
0.0
 11
104.468076
 21
135.614137
 31
0.0
 11
110.618018
 21
136.094941
 31
0.0
 11
114.750571
 21
136.559848
 31
0.0
 11
119.481637
 21
137.443503
 31
0.0
 11
125.864041
 21
138.942551
 31
0.0
 11
129.442957
 21
139.779087
 31
0.0
 11
132.452007
 21
140.382846
 31
0.0
 11
134.629226
 21
140.701265
 31
0.0
 11
136.455211
 21
140.880439
 31
0.0
 11
138.654542
 21
141.105578
 31
0.0
 11
140.751074
 21
141.327939
 31
0.0
 11
142.896497
 21
141.516454
 31
0.0
 11
145.223999
 21
141.652854
 31
0.0
 11
147.229688
 21
141.707610
 31
0.0
 11
149.130929
 21
141.748866
 31
0.0
 11
151.184608
 21
141.849895
 31
0.0
 11
152.946114
 21
141.988812
 31
0.0
 11
155.681976
 21
142.212607
 31
0.0
 11
159.326487
 21
142.377113
 31
0.0
 11
164.887088
 21
142.527803
 31
0.0
 11
167.089029
 21
142.628525
 31
0.0
 11
168.884951
 21
142.831215
 31
0.0
 11
170.476483
 21
143.158628
 31
0.0
 11
175.502700
 21
144.242754
 31
0.0
 11
181.033645
 21
144.997443
 31
0.0
 11
187.830588
 21
145.526569
 31
0.0
 11
191.846939
 21
145.709150
 31
0.0
 11
196.018432
 21
145.474669
 31
0.0
 11
204.520966
 21
144.588399
 31
0.0
 11
206.838625
 21
144.286701
 31
0.0
 11
208.795242
 21
143.912226
 31
0.0
 11
210.461582
 21
143.451432
 31
0.0
 11
211.677875
 21
143.077282
 31
0.0
 11
212.697261
 21
142.810426
 31
0.0
 11
213.299047
 21
142.708635
 31
0.0
 11
213.770153
 21
142.860979
 31
0.0
 11
214.446941
 21
143.260368
 31
0.0
 11
215.182891
 21
143.820335
 31
0.0
 11
217.098803
 21
145.092789
 31
0.0
 11
219.413579
 21
145.713772
 31
0.0
 11
222.813522
 21
145.867395
 31
0.0
 11
225.094612
 21
145.801881
 31
0.0
 11
227.129584
 21
145.612296
 31
0.0
 11
229.165107
 21
145.275654
 31
0.0
 11
231.828143
 21
144.604996
 31
0.0
 11
233.510411
 21
143.722734
 31
0.0
 11
234.736643
 21
142.353678
 31
0.0
 11
235.237538
 21
141.516879
 31
0.0
 11
235.460181
 21
140.724071
 31
0.0
 11
235.505538
 21
139.615725
 31
0.0
 11
235.340881
 21
137.841639
 31
0.0
 11
234.782474
 21
136.239946
 31
0.0
 11
233.692147
 21
134.414313
 31
0.0
 11
232.345490
 21
132.822032
 31
0.0
 11
230.748653
 21
131.596993
 31
0.0
 11
229.015919
 21
130.826872
 31
0.0
 11
228.435030
 21
130.610629
 31
0.0
 11
227.910339
 21
130.334492
 31
0.0
 11
227.555438
 21
130.058242
 31
0.0
 11
227.300511
 21
129.714393
 31
0.0
 11
227.349223
 21
129.433203
 31
0.0
 11
227.733870
 21
129.028242
 31
0.0
 11
228.715080
 21
128.526086
 31
0.0
 11
229.923896
 21
128.443409
 31
0.0
 11
231.006869
 21
128.804381
 31
0.0
 11
231.430198
 21
129.177028
 31
0.0
 11
231.922191
 21
129.749370
 31
0.0
 11
232.376334
 21
130.397498
 31
0.0
 11
233.668182
 21
132.333379
 31
0.0
 11
234.805221
 21
133.646051
 31
0.0
 11
236.042330
 21
134.629765
 31
0.0
 11
237.092326
 21
135.244932
 31
0.0
 11
238.168313
 21
135.608314
 31
0.0
 11
239.703499
 21
135.866219
 31
0.0
 11
242.625937
 21
136.076203
 31
0.0
 11
245.167199
 21
135.839229
 31
0.0
 11
247.584696
 21
135.131294
 31
0.0
 11
250.624561
 21
133.459954
 31
0.0
 11
252.833876
 21
131.204468
 31
0.0
 11
254.056719
 21
128.524018
 31
0.0
 11
254.243283
 21
127.093568
 31
0.0
 11
254.198835
 21
125.595713
 31
0.0
 11
253.933727
 21
124.379365
 31
0.0
 11
253.910359
 21
124.096913
 31
0.0
 11
254.088960
 21
123.843529
 31
0.0
 11
254.487318
 21
123.593978
 31
0.0
 11
255.105353
 21
123.393657
 31
0.0
 11
255.979049
 21
123.359807
 31
0.0
 11
257.366133
 21
123.482443
 31
0.0
 11
259.919968
 21
123.569771
 31
0.0
 11
262.080077
 21
123.082405
 31
0.0
 11
264.380745
 21
121.899817
 31
0.0
 11
266.520905
 21
120.409295
 31
0.0
 11
268.005931
 21
118.908492
 31
0.0
 11
269.101391
 21
117.129006
 31
0.0
 11
269.854627
 21
114.907063
 31
0.0
 11
270.067479
 21
112.602413
 31
0.0
 11
269.704879
 21
110.594793
 31
0.0
 11
269.498516
 21
109.911319
 31
0.0
 11
269.372356
 21
109.205202
 31
0.0
 11
269.353724
 21
108.629314
 31
0.0
  0
LWPOLYLINE
  5
103
100
AcDbEntity
  8
0
 62
7
100
AcDbPolyline
 90
3
 70
0
 10
269.353724
 20
108.629314
 30
0.0
 10
269.434131
 20
107.793276
 30
0.0
 10
271.512936
 20
107.620976
 30
0.0
  0
SPLINE
  5
104
100
AcDbEntity
  8
0
 62
7
100
AcDbSpline
 70
0
 71
3
 72
67
 73
63
 74
61
 40
0.000000
 40
0.000000
 40
0.000000
 40
0.000000
 40
1.779607
 40
3.110733
 40
4.869787
 40
7.701974
 40
10.843880
 40
14.022971
 40
16.702936
 40
19.459764
 40
22.171600
 40
22.982506
 40
23.712837
 40
24.206621
 40
24.601703
 40
24.946066
 40
25.708973
 40
26.590728
 40
27.802576
 40
29.082444
 40
31.597122
 40
33.699110
 40
35.728258
 40
37.994717
 40
39.828596
 40
42.002769
 40
44.441942
 40
46.621264
 40
49.536012
 40
52.375537
 40
55.196748
 40
59.492809
 40
65.884145
 40
70.668829
 40
75.144433
 40
77.050116
 40
78.637633
 40
80.899653
 40
83.876665
 40
85.945366
 40
88.455831
 40
90.753018
 40
92.420582
 40
94.069385
 40
95.041394
 40
96.373461
 40
97.780131
 40
99.043256
 40
99.998922
 40
100.446337
 40
100.858471
 40
101.675382
 40
102.720330
 40
104.116621
 40
105.215442
 40
106.547228
 40
107.909438
 40
109.666501
 40
111.438695
 40
118.134431
 40
123.918756
 40
126.657288
 40
126.657288
 40
126.657288
 40
126.657288
 10
271.512936
 20
107.620976
 30
0.0
 10
272.107985
 20
107.580603
 30
0.0
 10
273.148125
 20
107.510030
 30
0.0
 10
274.683830
 20
106.920122
 30
0.0
 10
276.290809
 20
105.752661
 30
0.0
 10
278.090804
 20
103.864246
 30
0.0
 10
279.465674
 20
101.109515
 30
0.0
 10
280.315774
 20
98.190706
 30
0.0
 10
280.085296
 20
95.265583
 30
0.0
 10
278.924941
 20
92.745395
 30
0.0
 10
277.405142
 20
91.240119
 30
0.0
 10
276.236667
 20
90.448803
 30
0.0
 10
275.692885
 20
90.023251
 30
0.0
 10
275.312839
 20
89.679096
 30
0.0
 10
274.976897
 20
89.331867
 30
0.0
 10
275.284180
 20
88.841351
 30
0.0
 10
275.826779
 20
88.497068
 30
0.0
 10
276.590962
 20
87.914059
 30
0.0
 10
277.515217
 20
87.278781
 30
0.0
 10
278.899904
 20
86.345798
 30
0.0
 10
280.507896
 20
85.212480
 30
0.0
 10
282.114315
 20
83.664672
 30
0.0
 10
283.312162
 20
81.892065
 30
0.0
 10
284.315037
 20
80.102875
 30
0.0
 10
284.894640
 20
78.067047
 30
0.0
 10
284.911839
 20
75.910100
 30
0.0
 10
284.847606
 20
73.630176
 30
0.0
 10
283.968220
 20
71.236519
 30
0.0
 10
282.486650
 20
69.040918
 30
0.0
 10
280.839932
 20
66.689316
 30
0.0
 10
278.317184
 20
64.497191
 30
0.0
 10
274.598360
 20
61.962034
 30
0.0
 10
270.306924
 20
59.097985
 30
0.0
 10
265.543725
 20
56.860824
 30
0.0
 10
261.859371
 20
56.187327
 30
0.0
 10
259.217167
 20
55.879634
 30
0.0
 10
257.292729
 20
55.977417
 30
0.0
 10
255.057771
 20
56.414165
 30
0.0
 10
252.650874
 20
56.806729
 30
0.0
 10
250.254498
 20
57.637814
 30
0.0
 10
248.302826
 20
58.857571
 30
0.0
 10
246.448101
 20
59.955350
 30
0.0
 10
244.676364
 20
60.634120
 30
0.0
 10
243.234942
 20
60.676693
 30
0.0
 10
241.921920
 20
60.765043
 30
0.0
 10
240.694855
 20
60.939444
 30
0.0
 10
239.385370
 20
61.172901
 30
0.0
 10
238.188855
 20
61.410876
 30
0.0
 10
237.329366
 20
61.503879
 30
0.0
 10
236.686662
 20
61.589710
 30
0.0
 10
236.261224
 20
61.175079
 30
0.0
 10
235.638094
 20
60.768221
 30
0.0
 10
234.777145
 20
60.096374
 30
0.0
 10
233.830741
 20
59.388717
 30
0.0
 10
232.651952
 20
58.865082
 30
0.0
 10
231.397492
 20
58.665611
 30
0.0
 10
229.940988
 20
58.391581
 30
0.0
 10
228.344941
 20
58.054887
 30
0.0
 10
225.028169
 20
57.267311
 30
0.0
 10
220.374688
 20
56.357492
 30
0.0
 10
215.363515
 20
55.376356
 30
0.0
 10
212.518424
 20
55.448643
 30
0.0
 10
211.604251
 20
55.471870
 30
0.0
 11
271.512936
 21
107.620976
 31
0.0
 11
273.278723
 21
107.399626
 31
0.0
 11
274.523645
 21
106.928387
 31
0.0
 11
275.973625
 21
105.932482
 31
0.0
 11
277.907866
 21
103.863666
 31
0.0
 11
279.373006
 21
101.084289
 31
0.0
 11
280.153857
 21
98.002586
 31
0.0
 11
279.934576
 21
95.331608
 31
0.0
 11
278.780081
 21
92.828162
 31
0.0
 11
276.876781
 21
90.896452
 31
0.0
 11
276.217741
 21
90.423974
 31
0.0
 11
275.643838
 21
89.972290
 31
0.0
 11
275.279332
 21
89.639186
 31
0.0
 11
275.063759
 21
89.308101
 31
0.0
 11
275.205884
 21
88.994434
 31
0.0
 11
275.792492
 21
88.506666
 31
0.0
 11
276.505052
 21
87.987291
 31
0.0
 11
277.498117
 21
87.292744
 31
0.0
 11
278.556700
 21
86.573393
 31
0.0
 11
280.578000
 21
85.077414
 31
0.0
 11
282.073649
 21
83.600462
 31
0.0
 11
283.245090
 21
81.943608
 31
0.0
 11
284.296565
 21
79.935814
 31
0.0
 11
284.787934
 21
78.168989
 31
0.0
 11
284.898709
 21
75.997640
 31
0.0
 11
284.706953
 21
73.566016
 31
0.0
 11
283.988794
 21
71.508423
 31
0.0
 11
282.464807
 21
69.023826
 31
0.0
 11
280.749040
 21
66.761295
 31
0.0
 11
278.666349
 21
64.858238
 31
0.0
 11
275.171594
 21
62.359673
 31
0.0
 11
269.762753
 21
58.954733
 31
0.0
 11
265.386285
 21
57.020893
 31
0.0
 11
261.006352
 21
56.100449
 31
0.0
 11
259.108748
 21
55.925155
 31
0.0
 11
257.522846
 21
55.996719
 31
0.0
 11
255.289929
 21
56.358402
 31
0.0
 11
252.373177
 21
56.954356
 31
0.0
 11
250.425737
 21
57.652212
 31
0.0
 11
248.238870
 21
58.885114
 31
0.0
 11
246.228912
 21
59.997381
 31
0.0
 11
244.653249
 21
60.543324
 31
0.0
 11
243.011558
 21
60.696298
 31
0.0
 11
242.042131
 21
60.767102
 31
0.0
 11
240.721766
 21
60.943284
 31
0.0
 11
239.336315
 21
61.186688
 31
0.0
 11
238.092897
 21
61.408940
 31
0.0
 11
237.144889
 21
61.529680
 31
0.0
 11
236.697528
 21
61.522767
 31
0.0
 11
236.361146
 21
61.284645
 31
0.0
 11
235.704087
 21
60.799241
 31
0.0
 11
234.868601
 21
60.171643
 31
0.0
 11
233.719424
 21
59.378534
 31
0.0
 11
232.712426
 21
58.938804
 31
0.0
 11
231.409872
 21
58.661303
 31
0.0
 11
230.070750
 21
58.411567
 31
0.0
 11
228.351551
 21
58.048763
 31
0.0
 11
226.624472
 21
57.651436
 31
0.0
 11
220.067149
 21
56.297037
 31
0.0
 11
214.342778
 21
55.466381
 31
0.0
 11
211.604251
 21
55.471870
 31
0.0
  0
LWPOLYLINE
  5
105
100
AcDbEntity
  8
0
 62
7
100
AcDbPolyline
 90
1
 70
1
 10
211.604251
 20
55.471870
 30
0.0
  0
ENDSEC
  0
SECTION
  2
OBJECTS
  0
DICTIONARY
  5
C
330
0
100
AcDbDictionary
  3
ACAD_GROUP
350
D
  3
ACAD_MLINESTYLE
350
17
  0
DICTIONARY
  5
D
330
C
100
AcDbDictionary
  0
DICTIONARY
  5
1A
330
C
100
AcDbDictionary
  0
DICTIONARY
  5
17
330
C
100
AcDbDictionary
  3
STANDARD
350
18
  0
DICTIONARY
  5
19
330
C
100
AcDbDictionary
  0
ENDSEC
  0
EOF
