  0
SECTION
  2
HEADER
  9
$ACADVER
  1
AC1014
  9
$HANDSEED
  5
FFFF
  9
$MEASUREMENT
 70
     1
  0
ENDSEC
  0
SECTION
  2
TABLES
  0
TABLE
  2
VPORT
  5
8
330
0
100
AcDbSymbolTable
 70
     4
  0
VPORT
  5
2E
330
8
100
AcDbSymbolTableRecord
100
AcDbViewportTableRecord
  2
*ACTIVE
 70
     0
 10
0.0
 20
0.0
 11
1.0
 21
1.0
 12
210.0
 22
148.5
 13
0.0
 23
0.0
 14
10.0
 24
10.0
 15
10.0
 25
10.0
 16
0.0
 26
0.0
 36
1.0
 17
0.0
 27
0.0
 37
0.0
 40
341.0
 41
1.24
 42
50.0
 43
0.0
 44
0.0
 50
0.0
 51
0.0
 71
     0
 72
   100
 73
     1
 74
     3
 75
     0
 76
     0
 77
     0
 78
     0
  0
ENDTAB
  0
TABLE
  2
LTYPE
  5
5
330
0
100
AcDbSymbolTable
 70
     1
  0
LTYPE
  5
14
330
5
100
AcDbSymbolTableRecord
100
AcDbLinetypeTableRecord
  2
BYBLOCK
 70
     0
  3

 72
    65
 73
     0
 40
0.0
  0
LTYPE
  5
15
330
5
100
AcDbSymbolTableRecord
100
AcDbLinetypeTableRecord
  2
BYLAYER
 70
     0
  3

 72
    65
 73
     0
 40
0.0
  0
LTYPE
  5
16
330
5
100
AcDbSymbolTableRecord
100
AcDbLinetypeTableRecord
  2
CONTINUOUS
 70
     0
  3
Solid line
 72
    65
 73
     0
 40
0.0
  0
ENDTAB
  0
TABLE
  2
LAYER
  5
2
100
AcDbSymbolTable
 70
1
  0
LAYER
  5
50
100
AcDbSymbolTableRecord
100
AcDbLayerTableRecord
  2
0
 70
0
  6
CONTINUOUS
  0
ENDTAB
  0
TABLE
  2
STYLE
  5
3
330
0
100
AcDbSymbolTable
 70
     1
  0
STYLE
  5
11
330
3
100
AcDbSymbolTableRecord
100
AcDbTextStyleTableRecord
  2
STANDARD
 70
     0
 40
0.0
 41
1.0
 50
0.0
 71
     0
 42
2.5
  3
txt
  4

  0
ENDTAB
  0
TABLE
  2
VIEW
  5
6
330
0
100
AcDbSymbolTable
 70
     0
  0
ENDTAB
  0
TABLE
  2
UCS
  5
7
330
0
100
AcDbSymbolTable
 70
     0
  0
ENDTAB
  0
TABLE
  2
APPID
  5
9
330
0
100
AcDbSymbolTable
 70
     2
  0
APPID
  5
12
330
9
100
AcDbSymbolTableRecord
100
AcDbRegAppTableRecord
  2
ACAD
 70
     0
  0
ENDTAB
  0
TABLE
  2
DIMSTYLE
  5
A
330
0
100
AcDbSymbolTable
 70
     1
  0
DIMSTYLE
105
27
330
A
100
AcDbSymbolTableRecord
100
AcDbDimStyleTableRecord
  2
ISO-25
 70
     0
  3

  4

  5

  6

  7

 40
1.0
 41
2.5
 42
0.625
 43
3.75
 44
1.25
 45
0.0
 46
0.0
 47
0.0
 48
0.0
140
2.5
141
2.5
142
0.0
143
0.03937007874016
144
1.0
145
0.0
146
1.0
147
0.625
 71
     0
 72
     0
 73
     0
 74
     0
 75
     0
 76
     0
 77
     1
 78
     8
170
     0
171
     3
172
     1
173
     0
174
     0
175
     0
176
     0
177
     0
178
     0
270
     2
271
     2
272
     2
273
     2
274
     3
340
11
275
     0
280
     0
281
     0
282
     0
283
     0
284
     8
285
     0
286
     0
287
     3
288
     0
  0
ENDTAB
  0
TABLE
  2
BLOCK_RECORD
  5
1
330
0
100
AcDbSymbolTable
 70
     1
  0
BLOCK_RECORD
  5
1F
330
1
100
AcDbSymbolTableRecord
100
AcDbBlockTableRecord
  2
*MODEL_SPACE
  0
BLOCK_RECORD
  5
1B
330
1
100
AcDbSymbolTableRecord
100
AcDbBlockTableRecord
  2
*PAPER_SPACE
  0
ENDTAB
  0
ENDSEC
  0
SECTION
  2
BLOCKS
  0
BLOCK
  5
20
330
1F
100
AcDbEntity
  8
0
100
AcDbBlockBegin
  2
*MODEL_SPACE
 70
     0
 10
0.0
 20
0.0
 30
0.0
  3
*MODEL_SPACE
  1

  0
ENDBLK
  5
21
330
1F
100
AcDbEntity
  8
0
100
AcDbBlockEnd
  0
BLOCK
  5
1C
330
1B
100
AcDbEntity
 67
     1
  8
0
100
AcDbBlockBegin
  2
*PAPER_SPACE
  1

  0
ENDBLK
  5
1D
330
1B
100
AcDbEntity
 67
     1
  8
0
100
AcDbBlockEnd
  0
ENDSEC
  0
SECTION
  2
ENTITIES
  0
LINE
  5
100
100
AcDbEntity
  8
0
 62
7
100
AcDbLine
 10
227.259306
 20
130.325963
 30
0.0
 11
226.551304
 21
129.669815
 31
0.0
  0
LINE
  5
101
100
AcDbEntity
  8
0
 62
7
100
AcDbLine
 10
226.551304
 20
129.669815
 30
0.0
 11
227.505659
 21
128.795674
 31
0.0
  0
SPLINE
  5
102
100
AcDbEntity
  8
0
 62
7
100
AcDbSpline
 70
0
 71
3
 72
184
 73
180
 74
178
 40
0.000000
 40
0.000000
 40
0.000000
 40
0.000000
 40
0.554883
 40
1.885018
 40
3.704123
 40
6.064335
 40
7.949945
 40
9.763711
 40
13.391463
 40
16.573378
 40
18.967669
 40
21.787919
 40
26.181448
 40
31.317751
 40
34.423277
 40
37.354640
 40
39.070573
 40
39.556007
 40
40.479481
 40
41.647133
 40
44.636833
 40
47.980667
 40
50.839410
 40
52.047385
 40
53.521501
 40
55.462252
 40
57.289781
 40
58.617612
 40
59.494648
 40
60.209219
 40
60.916732
 40
61.906483
 40
62.852245
 40
63.892081
 40
64.810411
 40
66.081915
 40
67.336809
 40
69.423165
 40
71.379563
 40
73.932094
 40
76.753158
 40
78.414923
 40
80.074493
 40
82.349121
 40
83.586473
 40
84.596512
 40
86.146187
 40
87.551493
 40
89.148244
 40
90.593799
 40
93.345117
 40
95.663128
 40
97.790962
 40
98.798283
 40
99.582589
 40
100.314525
 40
100.959367
 40
101.678098
 40
102.327346
 40
104.120406
 40
106.204981
 40
107.642015
 40
109.050321
 40
111.167577
 40
113.691492
 40
115.252688
 40
116.343043
 40
117.626748
 40
118.852011
 40
119.871289
 40
121.077021
 40
122.352944
 40
123.601800
 40
125.386696
 40
127.414774
 40
129.515608
 40
133.206785
 40
136.114662
 40
138.706654
 40
140.422190
 40
141.526811
 40
142.518168
 40
143.186067
 40
145.135464
 40
147.585123
 40
149.904945
 40
160.283511
 40
166.782910
 40
171.200772
 40
176.460134
 40
181.416667
 40
186.373694
 40
189.616758
 40
194.312274
 40
198.246923
 40
201.642650
 40
205.396064
 40
209.767540
 40
211.995859
 40
213.992606
 40
215.329867
 40
218.466621
 40
222.953383
 40
226.896347
 40
229.629392
 40
232.566633
 40
235.493943
 40
236.998170
 40
238.919291
 40
240.841953
 40
244.837113
 40
249.243137
 40
253.972251
 40
259.302259
 40
265.976686
 40
270.768148
 40
276.163130
 40
284.214613
 40
289.706116
 40
291.615764
 40
294.856008
 40
301.095206
 40
305.215867
 40
310.018690
 40
316.559227
 40
320.234610
 40
323.303634
 40
325.504013
 40
327.338768
 40
329.549592
 40
331.657883
 40
333.811573
 40
336.143069
 40
338.149504
 40
340.051226
 40
342.107585
 40
343.875001
 40
345.591158
 40
347.512238
 40
349.223209
 40
351.072431
 40
353.355097
 40
355.577021
 40
357.932318
 40
359.817022
 40
361.466627
 40
366.680727
 40
372.288946
 40
379.163190
 40
382.786865
 40
385.460310
 40
388.451362
 40
396.314222
 40
400.049082
 40
402.279093
 40
403.532917
 40
404.551675
 40
405.117736
 40
405.570386
 40
406.327401
 40
407.240891
 40
409.726215
 40
412.384881
 40
415.969177
 40
419.662685
 40
423.135614
 40
425.451714
 40
426.044948
 40
426.795161
 40
427.551370
 40
428.487369
 40
429.325779
 40
430.569308
 40
434.238685
 40
437.883625
 40
441.375487
 40
442.058868
 40
442.786387
 40
443.412788
 40
443.412788
 40
443.412788
 40
443.412788
 10
211.350187
 20
55.979706
 30
0.0
 10
211.168082
 20
56.012464
 30
0.0
 10
210.549443
 20
56.123746
 30
0.0
 10
209.316331
 20
56.215793
 30
0.0
 10
207.486682
 20
56.363388
 30
0.0
 10
205.470544
 20
56.519545
 30
0.0
 10
203.471355
 20
56.837276
 30
0.0
 10
201.121743
 20
57.513703
 30
0.0
 10
198.377905
 20
58.366004
 30
0.0
 10
195.434493
 20
59.235789
 30
0.0
 10
192.688445
 20
59.805077
 30
0.0
 10
189.700342
 20
60.991694
 30
0.0
 10
186.028909
 20
62.857539
 30
0.0
 10
182.409313
 20
65.018674
 30
0.0
 10
179.148058
 20
66.806968
 30
0.0
 10
176.828431
 20
67.980312
 30
0.0
 10
175.172542
 20
68.423063
 30
0.0
 10
174.183838
 20
68.756236
 30
0.0
 10
173.431410
 20
69.178607
 30
0.0
 10
171.976605
 20
70.041711
 30
0.0
 10
169.805677
 20
71.284655
 30
0.0
 10
167.078609
 20
72.689543
 30
0.0
 10
164.801312
 20
73.642323
 30
0.0
 10
163.128216
 20
74.437456
 30
0.0
 10
161.895455
 20
75.376070
 30
0.0
 10
160.605718
 20
76.554205
 30
0.0
 10
159.348780
 20
77.693891
 30
0.0
 10
158.287621
 20
78.532325
 30
0.0
 10
157.409647
 20
78.958415
 30
0.0
 10
156.660269
 20
79.173046
 30
0.0
 10
156.069798
 20
79.755657
 30
0.0
 10
155.632410
 20
80.519141
 30
0.0
 10
155.073292
 20
81.340042
 30
0.0
 10
154.445949
 20
82.081747
 30
0.0
 10
153.674902
 20
82.826651
 30
0.0
 10
152.731124
 20
83.539571
 30
0.0
 10
151.150489
 20
83.706328
 30
0.0
 10
149.418382
 20
83.351706
 30
0.0
 10
147.205659
 20
83.389187
 30
0.0
 10
144.786587
 20
83.805810
 30
0.0
 10
142.556678
 20
84.492712
 30
0.0
 10
140.552556
 20
85.052141
 30
0.0
 10
138.671068
 20
84.684891
 30
0.0
 10
137.118242
 20
83.947694
 30
0.0
 10
135.777575
 20
83.227753
 30
0.0
 10
134.506011
 20
83.046363
 30
0.0
 10
133.186206
 20
83.159916
 30
0.0
 10
131.677063
 20
83.309647
 30
0.0
 10
130.209906
 20
83.532925
 30
0.0
 10
128.321104
 20
83.932759
 30
0.0
 10
126.184041
 20
84.345835
 30
0.0
 10
123.750824
 20
84.260563
 30
0.0
 10
122.024207
 20
83.627221
 30
0.0
 10
120.859802
 20
83.038790
 30
0.0
 10
120.036718
 20
82.810188
 30
0.0
 10
119.312370
 20
82.849985
 30
0.0
 10
118.614672
 20
82.866463
 30
0.0
 10
117.944093
 20
82.781377
 30
0.0
 10
116.940421
 20
82.452466
 30
0.0
 10
115.439878
 20
82.249693
 30
0.0
 10
113.635039
 20
82.275632
 30
0.0
 10
112.093659
 20
82.859788
 30
0.0
 10
110.537293
 20
83.494919
 30
0.0
 10
108.470434
 20
83.180873
 30
0.0
 10
106.489278
 20
82.646450
 30
0.0
 10
104.890442
 20
81.978442
 30
0.0
 10
103.583716
 20
81.751486
 30
0.0
 10
102.384364
 20
81.879545
 30
0.0
 10
101.211574
 20
81.981025
 30
0.0
 10
100.058731
 20
81.854798
 30
0.0
 10
98.948731
 20
81.488037
 30
0.0
 10
97.760605
 20
81.106545
 30
0.0
 10
96.318709
 20
80.990459
 30
0.0
 10
94.635220
 20
81.070787
 30
0.0
 10
92.658005
 20
81.166764
 30
0.0
 10
90.077759
 20
80.712394
 30
0.0
 10
87.273181
 20
79.987036
 30
0.0
 10
84.292531
 20
79.274918
 30
0.0
 10
81.950068
 20
78.729741
 30
0.0
 10
80.181870
 20
78.369881
 30
0.0
 10
78.935959
 20
78.124001
 30
0.0
 10
78.039037
 20
77.903920
 30
0.0
 10
76.915848
 20
77.471432
 30
0.0
 10
75.330427
 20
76.880496
 30
0.0
 10
73.116219
 20
76.471991
 30
0.0
 10
68.074617
 20
76.133839
 30
0.0
 10
61.680189
 20
76.470661
 30
0.0
 10
54.560271
 20
76.838253
 30
0.0
 10
49.350916
 20
78.368088
 30
0.0
 10
44.982868
 20
80.600303
 30
0.0
 10
40.797329
 20
83.407026
 30
0.0
 10
37.231810
 20
86.086373
 30
0.0
 10
34.954295
 20
89.783378
 30
0.0
 10
33.217148
 20
93.325949
 30
0.0
 10
31.662653
 20
97.047932
 30
0.0
 10
31.087363
 20
100.722302
 30
0.0
 10
31.013130
 20
104.568724
 30
0.0
 10
31.346213
 20
108.009716
 30
0.0
 10
31.773225
 20
110.844610
 30
0.0
 10
32.118002
 20
112.663698
 30
0.0
 10
32.597566
 20
114.778583
 30
0.0
 10
34.229836
 20
117.338981
 30
0.0
 10
36.333021
 20
120.540846
 30
0.0
 10
38.560902
 20
123.548000
 30
0.0
 10
40.937088
 20
125.716029
 30
0.0
 10
43.304570
 20
127.348984
 30
0.0
 10
45.513285
 20
128.436476
 30
0.0
 10
47.456443
 20
129.276932
 30
0.0
 10
49.069195
 20
130.037920
 30
0.0
 10
51.402746
 20
131.212547
 30
0.0
 10
54.579738
 20
132.559361
 30
0.0
 10
58.812390
 20
133.704800
 30
0.0
 10
63.564195
 20
134.588229
 30
0.0
 10
69.147285
 20
134.801023
 30
0.0
 10
74.747598
 20
134.921902
 30
0.0
 10
80.356789
 20
134.524697
 30
0.0
 10
86.431877
 20
134.244631
 30
0.0
 10
92.741106
 20
134.331080
 30
0.0
 10
97.904063
 20
134.390127
 30
0.0
 10
101.417401
 20
134.897338
 30
0.0
 10
105.204682
 20
135.181182
 30
0.0
 10
109.725407
 20
135.501705
 30
0.0
 10
114.756878
 20
136.020083
 30
0.0
 10
119.819098
 20
137.021453
 30
0.0
 10
124.680228
 20
138.215697
 30
0.0
 10
128.987736
 20
139.243930
 30
0.0
 10
131.908323
 20
139.848394
 30
0.0
 10
134.251760
 20
140.200712
 30
0.0
 10
136.326653
 20
140.377841
 30
0.0
 10
138.366693
 20
140.592040
 30
0.0
 10
140.511287
 20
140.829193
 30
0.0
 10
142.700699
 20
141.023430
 30
0.0
 10
144.861166
 20
141.154186
 30
0.0
 10
146.940702
 20
141.201315
 30
0.0
 10
148.928681
 20
141.232516
 30
0.0
 10
150.835273
 20
141.329971
 30
0.0
 10
152.675330
 20
141.487101
 30
0.0
 10
154.468618
 20
141.660273
 30
0.0
 10
156.247855
 20
141.776252
 30
0.0
 10
158.073215
 20
141.858339
 30
0.0
 10
160.020441
 20
141.901344
 30
0.0
 10
162.137461
 20
141.962315
 30
0.0
 10
164.423634
 20
142.013750
 30
0.0
 10
166.575834
 20
142.095549
 30
0.0
 10
168.533728
 20
142.284841
 30
0.0
 10
171.384461
 20
142.910401
 30
0.0
 10
175.432012
 20
143.867644
 30
0.0
 10
181.295337
 20
144.598071
 30
0.0
 10
186.650413
 20
144.969282
 30
0.0
 10
191.034735
 20
145.218789
 30
0.0
 10
194.134191
 20
145.194039
 30
0.0
 10
198.624357
 20
144.741356
 30
0.0
 10
203.448478
 20
144.208304
 30
0.0
 10
208.048874
 20
143.719135
 30
0.0
 10
210.363677
 20
143.057213
 30
0.0
 10
211.792967
 20
142.571872
 30
0.0
 10
212.698250
 20
142.362084
 30
0.0
 10
213.376203
 20
142.130815
 30
0.0
 10
213.936250
 20
142.396680
 30
0.0
 10
214.521754
 20
142.780151
 30
0.0
 10
215.578670
 20
143.680821
 30
0.0
 10
217.232762
 20
144.896434
 30
0.0
 10
220.143778
 20
145.508773
 30
0.0
 10
223.453449
 20
145.474810
 30
0.0
 10
227.041016
 20
145.172408
 30
0.0
 10
230.117991
 20
144.593450
 30
0.0
 10
232.272622
 20
144.195896
 30
0.0
 10
233.273142
 20
143.482717
 30
0.0
 10
233.778183
 20
142.995070
 30
0.0
 10
234.295915
 20
142.368525
 30
0.0
 10
234.784264
 20
141.665539
 30
0.0
 10
235.017100
 20
140.670309
 30
0.0
 10
235.042763
 20
138.749678
 30
0.0
 10
234.439913
 20
135.893901
 30
0.0
 10
232.294752
 20
132.841608
 30
0.0
 10
229.931750
 20
131.576407
 30
0.0
 10
228.384208
 20
131.054022
 30
0.0
 10
227.780426
 20
130.732143
 30
0.0
 10
227.424143
 20
130.454443
 30
0.0
 10
227.259306
 20
130.325963
 30
0.0
 11
211.350187
 21
55.979706
 31
0.0
 11
210.803101
 21
56.072395
 31
0.0
 11
209.479565
 21
56.204732
 31
0.0
 11
207.666116
 21
56.348067
 31
0.0
 11
205.316059
 21
56.566779
 31
0.0
 11
203.456541
 21
56.879376
 31
0.0
 11
201.704945
 21
57.350179
 31
0.0
 11
198.232927
 21
58.401692
 31
0.0
 11
195.169448
 21
59.261742
 31
0.0
 11
192.845398
 21
59.837432
 31
0.0
 11
190.204757
 21
60.827797
 31
0.0
 11
186.271626
 21
62.785749
 31
0.0
 11
181.810227
 21
65.330849
 31
0.0
 11
179.085536
 21
66.820931
 31
0.0
 11
176.421481
 21
68.043920
 31
0.0
 11
174.783876
 21
68.556440
 31
0.0
 11
174.326511
 21
68.719117
 31
0.0
 11
173.505040
 21
69.141005
 31
0.0
 11
172.497307
 21
69.730822
 31
0.0
 11
169.897924
 21
71.207818
 31
0.0
 11
166.915526
 21
72.719944
 31
0.0
 11
164.304769
 21
73.884574
 31
0.0
 11
163.227779
 21
74.431654
 31
0.0
 11
162.033030
 21
75.295130
 31
0.0
 11
160.577237
 21
76.578556
 31
0.0
 11
159.208054
 21
77.789010
 31
0.0
 11
158.138943
 21
78.576498
 31
0.0
 11
157.348606
 21
78.956708
 31
0.0
 11
156.687095
 21
79.226921
 31
0.0
 11
156.162294
 21
79.701430
 31
0.0
 11
155.613778
 21
80.525285
 31
0.0
 11
155.078305
 21
81.304858
 31
0.0
 11
154.407162
 21
82.099104
 31
0.0
 11
153.745648
 21
82.736072
 31
0.0
 11
152.682617
 21
83.433703
 31
0.0
 11
151.442806
 21
83.627682
 31
0.0
 11
149.366693
 21
83.421200
 31
0.0
 11
147.410312
 21
83.429223
 31
0.0
 11
144.891053
 21
83.840013
 31
0.0
 11
142.172685
 21
84.594257
 31
0.0
 11
140.543571
 21
84.922052
 31
0.0
 11
138.903038
 21
84.671407
 31
0.0
 11
136.812367
 21
83.775289
 31
0.0
 11
135.684019
 21
83.267480
 31
0.0
 11
134.687529
 21
83.102595
 31
0.0
 11
133.139215
 21
83.167510
 31
0.0
 11
131.741642
 21
83.314734
 31
0.0
 11
130.163266
 21
83.556280
 31
0.0
 11
128.745798
 21
83.839853
 31
0.0
 11
126.026894
 21
84.260938
 31
0.0
 11
123.712457
 21
84.132262
 31
0.0
 11
121.697647
 21
83.447997
 31
0.0
 11
120.777081
 21
83.039031
 31
0.0
 11
120.015978
 21
82.849666
 31
0.0
 11
119.284046
 21
82.847483
 31
0.0
 11
118.639211
 21
82.850593
 31
0.0
 11
117.926851
 21
82.755111
 31
0.0
 11
117.301187
 21
82.581709
 31
0.0
 11
115.529774
 21
82.303937
 31
0.0
 11
113.448376
 21
82.418982
 31
0.0
 11
112.083979
 21
82.870081
 31
0.0
 11
110.743859
 21
83.302983
 31
0.0
 11
108.630854
 21
83.168901
 31
0.0
 11
106.198130
 21
82.496590
 31
0.0
 11
104.723726
 21
81.983301
 31
0.0
 11
103.647339
 21
81.809335
 31
0.0
 11
102.365426
 21
81.877147
 31
0.0
 11
101.141946
 21
81.943242
 31
0.0
 11
100.129003
 21
81.829786
 31
0.0
 11
98.970147
 21
81.496854
 31
0.0
 11
97.741614
 21
81.152347
 31
0.0
 11
96.499074
 21
81.026904
 31
0.0
 11
94.714634
 21
81.067228
 31
0.0
 11
92.686701
 21
81.091536
 31
0.0
 11
90.608271
 21
80.785540
 31
0.0
 11
87.016685
 21
79.933902
 31
0.0
 11
84.189554
 21
79.253399
 31
0.0
 11
81.662313
 21
78.677659
 31
0.0
 11
79.982099
 21
78.331328
 31
0.0
 11
78.900312
 21
78.107893
 31
0.0
 11
77.941928
 21
77.854342
 31
0.0
 11
77.314432
 21
77.625565
 31
0.0
 11
75.472568
 21
76.987065
 31
0.0
 11
73.069315
 21
76.512507
 31
0.0
 11
70.756633
 21
76.330631
 31
0.0
 11
60.380118
 21
76.536910
 31
0.0
 11
53.911951
 21
77.173317
 31
0.0
 11
49.669378
 21
78.405420
 31
0.0
 11
44.953764
 21
80.734341
 31
0.0
 11
40.809485
 21
83.453196
 31
0.0
 11
37.050174
 21
86.684248
 31
0.0
 11
35.250963
 21
89.382452
 31
0.0
 11
33.149374
 21
93.581404
 31
0.0
 11
31.756369
 21
97.261213
 31
0.0
 11
31.179252
 21
100.607539
 31
0.0
 11
31.084070
 21
104.359746
 31
0.0
 11
31.465836
 21
108.714521
 31
0.0
 11
31.799197
 21
110.917762
 31
0.0
 11
32.173383
 21
112.879135
 31
0.0
 11
32.507386
 21
114.174013
 31
0.0
 11
33.983506
 21
116.941737
 31
0.0
 11
36.474283
 21
120.673635
 31
0.0
 11
38.913222
 21
123.771786
 31
0.0
 11
40.923747
 21
125.623090
 31
0.0
 11
43.343161
 21
127.288568
 31
0.0
 11
45.951715
 21
128.616948
 31
0.0
 11
47.326069
 21
129.228379
 31
0.0
 11
49.065010
 21
130.044952
 31
0.0
 11
50.792066
 21
130.889883
 31
0.0
 11
54.481086
 21
132.423648
 31
0.0
 11
58.721293
 21
133.621015
 31
0.0
 11
63.378243
 21
134.444020
 31
0.0
 11
68.698220
 21
134.770864
 31
0.0
 11
75.372495
 21
134.815964
 31
0.0
 11
80.156975
 21
134.557399
 31
0.0
 11
85.547101
 21
134.328545
 31
0.0
 11
93.598577
 21
134.339206
 31
0.0
 11
99.084690
 21
134.582455
 31
0.0
 11
100.979779
 21
134.817813
 31
0.0
 11
104.207276
 21
135.104940
 31
0.0
 11
110.427471
 21
135.591539
 31
0.0
 11
114.521993
 21
136.054925
 31
0.0
 11
119.242758
 21
136.938947
 31
0.0
 11
125.609977
 21
138.434654
 31
0.0
 11
129.188894
 21
139.271190
 31
0.0
 11
132.197945
 21
139.874948
 31
0.0
 11
134.375163
 21
140.193366
 31
0.0
 11
136.201148
 21
140.372541
 31
0.0
 11
138.400478
 21
140.597681
 31
0.0
 11
140.497010
 21
140.820042
 31
0.0
 11
142.642434
 21
141.008557
 31
0.0
 11
144.969937
 21
141.144958
 31
0.0
 11
146.975624
 21
141.199714
 31
0.0
 11
148.876865
 21
141.242480
 31
0.0
 11
150.930545
 21
141.347432
 31
0.0
 11
152.692050
 21
141.491853
 31
0.0
 11
154.401332
 21
141.645322
 31
0.0
 11
156.318098
 21
141.773991
 31
0.0
 11
158.027379
 21
141.850007
 31
0.0
 11
159.875925
 21
141.900004
 31
0.0
 11
162.157790
 21
141.960471
 31
0.0
 11
164.378961
 21
142.018316
 31
0.0
 11
166.731749
 21
142.126994
 31
0.0
 11
168.605275
 21
142.331961
 31
0.0
 11
170.222419
 21
142.657600
 31
0.0
 11
175.321171
 21
143.748273
 31
0.0
 11
180.878796
 21
144.499888
 31
0.0
 11
187.732899
 21
145.025724
 31
0.0
 11
191.352770
 21
145.191732
 31
0.0
 11
194.025976
 21
145.156024
 31
0.0
 11
197.006209
 21
144.901854
 31
0.0
 11
204.824266
 21
144.063670
 31
0.0
 11
208.521404
 21
143.534193
 31
0.0
 11
210.672097
 21
142.944725
 31
0.0
 11
211.868607
 21
142.569976
 31
0.0
 11
212.851678
 21
142.302692
 31
0.0
 11
213.408482
 21
142.200738
 31
0.0
 11
213.833546
 21
142.356343
 31
0.0
 11
214.471245
 21
142.764278
 31
0.0
 11
215.183521
 21
143.336227
 31
0.0
 11
217.258015
 21
144.704917
 31
0.0
 11
219.834577
 21
145.360532
 31
0.0
 11
223.418169
 21
145.431563
 31
0.0
 11
227.097081
 21
145.103524
 31
0.0
 11
230.520679
 21
144.520246
 31
0.0
 11
232.735887
 21
143.844102
 31
0.0
 11
233.221615
 21
143.503520
 31
0.0
 11
233.766070
 21
142.987393
 31
0.0
 11
234.251383
 21
142.407460
 31
0.0
 11
234.745909
 21
141.612765
 31
0.0
 11
234.961303
 21
140.802496
 31
0.0
 11
235.008362
 21
139.559858
 31
0.0
 11
234.202441
 21
135.980078
 31
0.0
 11
232.071405
 21
133.023007
 31
0.0
 11
229.043754
 21
131.283344
 31
0.0
 11
228.404522
 21
131.041697
 31
0.0
 11
227.763443
 21
130.697749
 31
0.0
 11
227.259306
 21
130.325963
 31
0.0
  0
LINE
  5
103
100
AcDbEntity
  8
0
 62
7
100
AcDbLine
 10
257.977511
 20
123.029032
 30
0.0
 11
261.558178
 21
123.029032
 31
0.0
  0
LINE
  5
104
100
AcDbEntity
  8
0
 62
7
100
AcDbLine
 10
261.558178
 20
123.029032
 30
0.0
 11
263.439085
 21
122.013313
 31
0.0
  0
SPLINE
  5
105
100
AcDbEntity
  8
0
 62
7
100
AcDbSpline
 70
0
 71
3
 72
28
 73
24
 74
22
 40
0.000000
 40
0.000000
 40
0.000000
 40
0.000000
 40
0.917098
 40
1.570667
 40
2.494451
 40
3.415047
 40
4.152792
 40
5.177717
 40
6.094698
 40
7.081600
 40
7.928894
 40
10.306300
 40
12.638688
 40
15.328167
 40
18.412423
 40
21.117123
 40
23.653640
 40
27.877150
 40
31.431867
 40
35.288185
 40
37.077762
 40
38.369556
 40
41.524796
 40
41.524796
 40
41.524796
 40
41.524796
 10
227.505659
 20
128.795674
 30
0.0
 10
227.726952
 20
128.579663
 30
0.0
 10
228.105950
 20
128.209713
 30
0.0
 10
228.922388
 20
127.936428
 30
0.0
 10
229.756676
 20
128.057534
 30
0.0
 10
230.624890
 20
128.118956
 30
0.0
 10
231.424759
 20
128.572104
 30
0.0
 10
232.014461
 20
129.251751
 30
0.0
 10
232.626543
 20
130.010115
 30
0.0
 10
233.157398
 20
130.761055
 30
0.0
 10
233.849572
 20
131.979615
 30
0.0
 10
234.883837
 20
133.557051
 30
0.0
 10
237.048454
 20
134.885652
 30
0.0
 10
239.711334
 20
135.463786
 30
0.0
 10
242.534506
 20
135.662925
 30
0.0
 10
245.322930
 20
135.442210
 30
0.0
 10
248.339786
 20
134.487904
 30
0.0
 10
251.430677
 20
132.791703
 30
0.0
 10
253.652990
 20
129.376234
 30
0.0
 10
253.994403
 20
126.402278
 30
0.0
 10
253.293819
 20
123.743210
 30
0.0
 10
255.488786
 20
122.757561
 30
0.0
 10
256.944593
 20
122.916361
 30
0.0
 10
257.977511
 20
123.029032
 30
0.0
 11
227.505659
 21
128.795674
 31
0.0
 11
228.215593
 21
128.215102
 31
0.0
 11
228.835757
 21
128.008829
 31
0.0
 11
229.758782
 21
128.046263
 31
0.0
 11
230.666878
 21
128.197455
 31
0.0
 11
231.315059
 21
128.549775
 31
0.0
 11
232.032222
 21
129.281996
 31
0.0
 11
232.604850
 21
129.998202
 31
0.0
 11
233.169146
 21
130.807860
 31
0.0
 11
233.602945
 21
131.535683
 31
0.0
 11
235.019936
 21
133.444661
 31
0.0
 11
236.982941
 21
134.704283
 31
0.0
 11
239.587262
 21
135.375705
 31
0.0
 11
242.664087
 21
135.589680
 31
0.0
 11
245.356677
 21
135.334024
 31
0.0
 11
247.783893
 21
134.597452
 31
0.0
 11
251.381921
 21
132.385613
 31
0.0
 11
253.332974
 21
129.414182
 31
0.0
 11
253.707368
 21
125.576081
 31
0.0
 11
253.714300
 21
123.786517
 31
0.0
 11
254.823724
 21
123.124769
 31
0.0
 11
257.977511
 21
123.029032
 31
0.0
  0
LINE
  5
106
100
AcDbEntity
  8
0
 62
7
100
AcDbLine
 10
283.320126
 20
80.852318
 30
0.0
 11
284.423888
 21
78.622486
 31
0.0
  0
LINE
  5
107
100
AcDbEntity
  8
0
 62
7
100
AcDbLine
 10
284.423888
 20
78.622486
 30
0.0
 11
284.388328
 21
75.940630
 31
0.0
  0
SPLINE
  5
108
100
AcDbEntity
  8
0
 62
7
100
AcDbSpline
 70
0
 71
3
 72
37
 73
33
 74
31
 40
0.000000
 40
0.000000
 40
0.000000
 40
0.000000
 40
2.739526
 40
5.173473
 40
7.294191
 40
9.597067
 40
12.039277
 40
14.076213
 40
15.232156
 40
16.196659
 40
16.946979
 40
17.373639
 40
18.170376
 40
19.393609
 40
20.672844
 40
21.762213
 40
22.618914
 40
26.943104
 40
31.551610
 40
35.940964
 40
37.519202
 40
39.167453
 40
41.133903
 40
42.079428
 40
42.837203
 40
43.245081
 40
43.845608
 40
45.385977
 40
47.997950
 40
50.953905
 40
53.275327
 40
55.771510
 40
55.771510
 40
55.771510
 40
55.771510
 10
263.439085
 20
122.013313
 30
0.0
 10
264.226511
 20
121.546512
 30
0.0
 10
265.713531
 20
120.664978
 30
0.0
 10
267.514192
 20
119.006878
 30
0.0
 10
268.849590
 20
117.110182
 30
0.0
 10
269.445914
 20
114.869497
 30
0.0
 10
269.663060
 20
112.602505
 30
0.0
 10
269.345208
 20
110.735639
 30
0.0
 10
268.841786
 20
109.422410
 30
0.0
 10
268.792783
 20
108.484741
 30
0.0
 10
268.901610
 20
107.696994
 30
0.0
 10
269.516684
 20
107.367849
 30
0.0
 10
270.318945
 20
107.240769
 30
0.0
 10
271.415613
 20
107.135653
 30
0.0
 10
272.606676
 20
107.015570
 30
0.0
 10
273.663395
 20
106.800252
 30
0.0
 10
275.631547
 20
106.066382
 30
0.0
 10
278.008247
 20
103.551008
 30
0.0
 10
279.748520
 20
99.420099
 30
0.0
 10
279.792986
 20
95.725899
 30
0.0
 10
278.785230
 20
93.367036
 30
0.0
 10
277.683023
 20
92.004116
 30
0.0
 10
276.501674
 20
91.054910
 30
0.0
 10
275.488872
 20
90.333193
 30
0.0
 10
275.000118
 20
89.882884
 30
0.0
 10
274.422824
 20
89.511942
 30
0.0
 10
275.003228
 20
88.600245
 30
0.0
 10
276.211990
 20
87.787021
 30
0.0
 10
278.190853
 20
86.364980
 30
0.0
 10
280.366805
 20
84.919421
 30
0.0
 10
282.185427
 20
83.020703
 30
0.0
 10
282.932855
 20
81.592384
 30
0.0
 10
283.320126
 20
80.852318
 30
0.0
 11
263.439085
 21
122.013313
 31
0.0
 11
265.742511
 21
120.530333
 31
0.0
 11
267.523715
 21
118.871594
 31
0.0
 11
268.704436
 21
117.109964
 31
0.0
 11
269.372526
 21
114.906128
 31
0.0
 11
269.558292
 21
112.470994
 31
0.0
 11
269.211457
 21
110.463803
 31
0.0
 11
268.884154
 21
109.355166
 31
0.0
 11
268.825956
 21
108.392420
 31
0.0
 11
269.042812
 21
107.674121
 31
0.0
 11
269.403777
 21
107.446650
 31
0.0
 11
270.180509
 21
107.269232
 31
0.0
 11
271.396519
 21
107.136498
 31
0.0
 11
272.666894
 21
106.986197
 31
0.0
 11
273.731241
 21
106.754058
 31
0.0
 11
274.533075
 21
106.452396
 31
0.0
 11
277.704454
 21
103.512843
 31
0.0
 11
279.478733
 21
99.259578
 31
0.0
 11
279.364023
 21
94.871724
 31
0.0
 11
278.732791
 21
93.425217
 31
0.0
 11
277.715384
 21
92.128445
 31
0.0
 11
276.214714
 21
90.857653
 31
0.0
 11
275.460401
 21
90.287540
 31
0.0
 11
274.872141
 21
89.809864
 31
0.0
 11
274.577287
 21
89.528040
 31
0.0
 11
274.793690
 21
88.967859
 31
0.0
 11
275.953208
 21
87.953830
 31
0.0
 11
278.091933
 21
86.454410
 31
0.0
 11
280.472509
 21
84.702119
 31
0.0
 11
282.056391
 21
83.004969
 31
0.0
 11
283.320126
 21
80.852318
 31
0.0
  0
LINE
  5
109
100
AcDbEntity
  8
0
 62
7
100
AcDbLine
 10
211.350187
 20
55.979709
 30
0.0
 11
211.350187
 21
55.979706
 31
0.0
  0
SPLINE
  5
10a
100
AcDbEntity
  8
0
 62
7
100
AcDbSpline
 70
0
 71
3
 72
43
 73
39
 74
37
 40
0.000000
 40
0.000000
 40
0.000000
 40
0.000000
 40
2.498148
 40
4.546281
 40
7.165338
 40
9.738145
 40
12.079563
 40
14.788644
 40
16.475970
 40
18.202588
 40
19.594703
 40
23.024213
 40
26.748719
 40
29.613162
 40
32.822715
 40
35.760318
 40
39.053714
 40
41.322171
 40
42.906003
 40
44.448622
 40
47.558225
 40
49.536382
 40
51.768933
 40
53.222077
 40
54.497063
 40
55.320116
 40
56.752364
 40
57.949271
 40
59.531740
 40
61.166934
 40
62.552998
 40
64.191712
 40
65.184650
 40
66.678421
 40
68.350265
 40
75.263394
 40
81.232899
 40
84.077608
 40
84.077608
 40
84.077608
 40
84.077608
 10
284.388328
 20
75.940630
 30
0.0
 10
284.375523
 20
75.103769
 30
0.0
 10
284.352220
 20
73.580800
 30
0.0
 10
283.590526
 20
71.278251
 30
0.0
 10
282.240931
 20
69.264410
 30
0.0
 10
280.777878
 20
67.220480
 30
0.0
 10
278.954193
 20
65.430290
 30
0.0
 10
277.119975
 20
64.127392
 30
0.0
 10
275.429456
 20
62.984815
 30
0.0
 10
274.103562
 20
62.085524
 30
0.0
 10
272.313844
 20
60.835347
 30
0.0
 10
269.835928
 20
59.417455
 30
0.0
 10
266.815462
 20
57.990188
 30
0.0
 10
263.730080
 20
56.878298
 30
0.0
 10
260.737930
 20
56.458459
 30
0.0
 10
257.580227
 20
56.428930
 30
0.0
 10
254.778406
 20
56.911064
 30
0.0
 10
252.447357
 20
57.391468
 30
0.0
 10
250.723022
 20
57.933818
 30
0.0
 10
248.903381
 20
58.953553
 30
0.0
 10
247.037808
 20
60.134891
 30
0.0
 10
244.744526
 20
61.047705
 30
0.0
 10
242.846035
 20
61.181454
 30
0.0
 10
241.204530
 20
61.353558
 30
0.0
 10
240.028304
 20
61.505786
 30
0.0
 10
238.876322
 20
61.729736
 30
0.0
 10
237.751460
 20
62.074641
 30
0.0
 10
236.330182
 20
61.728217
 30
0.0
 10
235.158156
 20
60.817170
 30
0.0
 10
233.928887
 20
59.896003
 30
0.0
 10
232.483878
 20
59.275908
 30
0.0
 10
231.153723
 20
59.077288
 30
0.0
 10
229.802565
 20
58.825919
 30
0.0
 10
228.447791
 20
58.530407
 30
0.0
 10
225.179937
 20
57.747681
 30
0.0
 10
220.425369
 20
56.834493
 30
0.0
 10
215.241325
 20
55.831930
 30
0.0
 10
212.299602
 20
55.943652
 30
0.0
 10
211.350187
 20
55.979709
 30
0.0
 11
284.388328
 21
75.940630
 31
0.0
 11
284.211027
 21
73.448782
 31
0.0
 11
283.579219
 21
71.500535
 31
0.0
 11
282.221999
 21
69.260575
 31
0.0
 11
280.672308
 21
67.206849
 31
0.0
 11
279.006324
 21
65.561633
 31
0.0
 11
276.835373
 21
63.941111
 31
0.0
 11
275.440481
 21
62.991719
 31
0.0
 11
274.013733
 21
62.019299
 31
0.0
 11
272.864004
 21
61.234374
 31
0.0
 11
269.902482
 21
59.504946
 31
0.0
 11
266.527965
 21
57.928691
 31
0.0
 11
263.815582
 21
57.007813
 31
0.0
 11
260.643529
 21
56.518620
 31
0.0
 11
257.705931
 21
56.512935
 31
0.0
 11
254.447226
 21
56.989690
 31
0.0
 11
252.232830
 21
57.481977
 31
0.0
 11
250.732178
 21
57.988503
 31
0.0
 11
249.365950
 21
58.704809
 31
0.0
 11
246.658811
 21
60.234850
 31
0.0
 11
244.803853
 21
60.922046
 31
0.0
 11
242.590585
 21
61.214842
 31
0.0
 11
241.145332
 21
61.366065
 31
0.0
 11
239.882416
 21
61.541097
 31
0.0
 11
239.075254
 21
61.702046
 31
0.0
 11
237.665705
 21
61.956026
 31
0.0
 11
236.497394
 21
61.695956
 31
0.0
 11
235.170967
 21
60.832940
 31
0.0
 11
233.824244
 21
59.905470
 31
0.0
 11
232.548895
 21
59.362646
 31
0.0
 11
230.943549
 21
59.033633
 31
0.0
 11
229.967288
 21
58.852420
 31
0.0
 11
228.506895
 21
58.538409
 31
0.0
 11
226.878536
 21
58.159582
 31
0.0
 11
220.106183
 21
56.771564
 31
0.0
 11
214.194642
 21
55.941700
 31
0.0
 11
211.350187
 21
55.979709
 31
0.0
  0
SPLINE
  5
10b
100
AcDbEntity
  8
0
 62
7
100
AcDbSpline
 70
0
 71
3
 72
13
 73
9
 74
7
 40
0.000000
 40
0.000000
 40
0.000000
 40
0.000000
 40
3.594975
 40
7.874074
 40
12.061444
 40
14.998096
 40
17.728300
 40
20.156935
 40
20.156935
 40
20.156935
 40
20.156935
 10
265.039057
 20
61.481804
 30
0.0
 10
266.182390
 20
61.853751
 30
0.0
 10
268.686632
 20
62.668428
 30
0.0
 10
272.121884
 20
64.806379
 30
0.0
 10
275.157800
 20
67.129130
 30
0.0
 10
277.250314
 20
69.680507
 30
0.0
 10
278.533604
 20
72.112640
 30
0.0
 10
278.737333
 20
73.832550
 30
0.0
 10
278.833242
 20
74.642235
 30
0.0
 11
265.039057
 21
61.481804
 31
0.0
 11
268.414525
 21
62.718762
 31
0.0
 11
272.107833
 21
64.879820
 31
0.0
 11
275.358152
 21
67.519800
 31
0.0
 11
277.212236
 21
69.797143
 31
0.0
 11
278.409425
 21
72.250865
 31
0.0
 11
278.833242
 21
74.642235
 31
0.0
  0
LINE
  5
10c
100
AcDbEntity
  8
0
 62
7
100
AcDbLine
 10
265.039057
 20
61.481804
 30
0.0
 11
265.039057
 21
61.481804
 31
0.0
  0
SPLINE
  5
10d
100
AcDbEntity
  8
0
 62
7
100
AcDbSpline
 70
0
 71
3
 72
31
 73
27
 74
25
 40
0.000000
 40
0.000000
 40
0.000000
 40
0.000000
 40
1.238027
 40
2.451710
 40
4.295080
 40
9.864281
 40
14.733414
 40
20.027829
 40
21.534926
 40
22.846045
 40
24.753025
 40
28.072950
 40
30.833430
 40
33.557770
 40
36.505071
 40
39.611844
 40
42.904231
 40
44.828081
 40
45.978868
 40
47.260963
 40
49.772585
 40
52.256180
 40
55.724952
 40
57.718428
 40
59.583642
 40
61.375719
 40
61.375719
 40
61.375719
 40
61.375719
 10
278.833242
 20
74.642235
 30
0.0
 10
278.829081
 20
75.057220
 30
0.0
 10
278.820840
 20
75.879030
 30
0.0
 10
278.372171
 20
77.255226
 30
0.0
 10
277.125843
 20
79.838181
 30
0.0
 10
274.940946
 20
83.401125
 30
0.0
 10
270.327166
 20
86.320867
 30
0.0
 10
266.352854
 20
86.623204
 30
0.0
 10
263.644425
 20
86.489698
 30
0.0
 10
262.124580
 20
86.028077
 30
0.0
 10
260.175323
 20
85.050547
 30
0.0
 10
257.826251
 20
83.778436
 30
0.0
 10
255.625156
 20
81.773403
 30
0.0
 10
254.196958
 20
79.317470
 30
0.0
 10
253.189217
 20
76.564105
 30
0.0
 10
252.456718
 20
73.526224
 30
0.0
 10
252.182872
 20
70.760509
 30
0.0
 10
252.013769
 20
68.646290
 30
0.0
 10
252.147578
 20
67.181000
 30
0.0
 10
252.834632
 20
65.673183
 30
0.0
 10
253.851668
 20
63.784970
 30
0.0
 10
256.362011
 20
62.290873
 30
0.0
 10
258.938880
 20
61.654605
 30
0.0
 10
261.348557
 20
61.243751
 30
0.0
 10
263.243136
 20
61.188929
 30
0.0
 10
264.448451
 20
61.385489
 30
0.0
 10
265.039057
 20
61.481804
 30
0.0
 11
278.833242
 21
74.642235
 31
0.0
 11
278.757555
 21
75.877947
 31
0.0
 11
278.418666
 21
77.043356
 31
0.0
 11
277.648835
 21
78.718281
 31
0.0
 11
274.473626
 21
83.293656
 31
0.0
 11
270.341596
 21
85.869461
 31
0.0
 11
265.090678
 21
86.546731
 31
0.0
 11
263.588835
 21
86.421000
 31
0.0
 11
262.328793
 21
86.058607
 31
0.0
 11
260.599394
 21
85.255019
 31
0.0
 11
257.741674
 21
83.565245
 31
0.0
 11
255.728121
 21
81.676899
 31
0.0
 11
254.306144
 21
79.353107
 31
0.0
 11
253.259789
 21
76.597798
 31
0.0
 11
252.539848
 21
73.575593
 31
0.0
 11
252.151026
 21
70.306246
 31
0.0
 11
252.062181
 21
68.384449
 31
0.0
 11
252.202464
 21
67.242244
 31
0.0
 11
252.673779
 21
66.049923
 31
0.0
 11
254.026156
 21
63.933482
 31
0.0
 11
256.098534
 21
62.564727
 31
0.0
 11
259.427351
 21
61.589349
 31
0.0
 11
261.397351
 21
61.284313
 31
0.0
 11
263.262223
 21
61.248573
 31
0.0
 11
265.039057
 21
61.481804
 31
0.0
  0
LINE
  5
10e
100
AcDbEntity
  8
0
 62
7
100
AcDbLine
 10
220.272890
 20
62.332852
 30
0.0
 11
220.272890
 21
62.332852
 31
0.0
  0
SPLINE
  5
10f
100
AcDbEntity
  8
0
 62
7
100
AcDbSpline
 70
0
 71
3
 72
226
 73
222
 74
220
 40
0.000000
 40
0.000000
 40
0.000000
 40
0.000000
 40
1.349771
 40
3.014931
 40
4.636664
 40
6.239592
 40
7.854431
 40
9.131948
 40
11.391568
 40
13.510766
 40
15.021477
 40
16.711158
 40
19.088374
 40
21.895806
 40
23.999610
 40
26.293897
 40
29.707911
 40
34.003108
 40
37.293604
 40
41.571924
 40
42.984001
 40
44.462132
 40
45.690800
 40
49.380673
 40
53.780103
 40
58.460261
 40
60.512984
 40
63.292445
 40
66.898987
 40
69.013388
 40
71.099745
 40
72.706973
 40
74.892122
 40
76.917994
 40
79.466675
 40
83.270640
 40
87.187682
 40
91.836547
 40
96.917456
 40
100.513767
 40
103.287206
 40
104.362026
 40
105.805551
 40
107.305838
 40
111.722150
 40
117.748677
 40
123.854293
 40
126.578622
 40
128.898178
 40
131.837789
 40
134.390237
 40
137.053783
 40
139.252640
 40
141.109487
 40
142.875442
 40
144.168302
 40
148.314761
 40
155.156728
 40
161.344873
 40
168.275363
 40
173.613590
 40
176.877320
 40
178.230684
 40
179.764012
 40
181.146937
 40
182.697799
 40
184.558436
 40
186.549466
 40
188.403389
 40
190.143046
 40
191.395277
 40
192.527961
 40
193.950989
 40
195.358438
 40
197.516999
 40
200.314898
 40
205.151285
 40
210.164784
 40
214.707375
 40
219.582193
 40
223.348286
 40
225.550547
 40
228.043844
 40
231.298971
 40
235.268318
 40
241.485304
 40
245.282587
 40
248.218611
 40
251.477246
 40
254.101181
 40
256.435458
 40
258.964013
 40
260.360786
 40
261.933708
 40
263.344127
 40
265.001862
 40
266.741717
 40
269.264425
 40
272.755099
 40
275.672627
 40
279.382662
 40
284.546984
 40
287.623770
 40
291.553328
 40
295.986712
 40
299.517960
 40
303.048652
 40
307.660180
 40
312.705623
 40
317.016680
 40
318.390921
 40
320.192088
 40
322.031048
 40
324.277283
 40
325.904572
 40
327.940118
 40
331.258652
 40
334.229111
 40
337.010564
 40
338.353370
 40
339.800352
 40
341.038585
 40
344.194957
 40
348.381608
 40
351.877395
 40
353.246475
 40
355.238582
 40
357.424727
 40
359.624141
 40
361.651982
 40
363.073152
 40
364.236419
 40
365.580855
 40
366.815545
 40
368.070345
 40
369.467535
 40
370.704789
 40
371.853297
 40
373.018448
 40
373.949041
 40
375.696086
 40
377.145934
 40
379.085617
 40
380.189893
 40
381.154022
 40
381.779654
 40
382.460609
 40
383.567560
 40
384.868843
 40
388.605878
 40
392.053743
 40
396.272741
 40
399.023038
 40
402.081935
 40
404.787857
 40
407.518341
 40
409.289378
 40
410.676908
 40
413.197766
 40
415.622708
 40
417.390230
 40
418.081552
 40
418.880549
 40
419.679770
 40
420.864218
 40
422.236091
 40
424.801564
 40
426.110281
 40
427.381356
 40
428.761522
 40
430.160453
 40
431.475984
 40
432.878773
 40
435.221412
 40
436.758930
 40
438.088207
 40
439.020775
 40
440.369624
 40
443.210827
 40
446.039106
 40
447.388966
 40
448.303303
 40
449.135507
 40
450.109274
 40
451.580148
 40
453.108452
 40
454.006648
 40
454.795233
 40
455.843386
 40
456.721438
 40
457.672076
 40
458.504919
 40
460.038193
 40
461.944134
 40
464.347728
 40
465.865153
 40
467.165794
 40
469.024906
 40
470.712229
 40
472.297202
 40
473.275715
 40
474.745179
 40
477.122117
 40
480.833876
 40
484.257747
 40
486.174803
 40
486.518487
 40
487.118993
 40
487.847154
 40
488.801206
 40
489.736759
 40
490.894598
 40
493.029735
 40
494.921850
 40
497.086043
 40
498.787189
 40
500.853355
 40
504.633531
 40
507.943911
 40
510.354804
 40
512.027596
 40
512.027596
 40
512.027596
 40
512.027596
 10
220.272890
 20
62.332852
 30
0.0
 10
220.709702
 20
62.440870
 30
0.0
 10
221.685393
 20
62.682146
 30
0.0
 10
223.166870
 20
63.124665
 30
0.0
 10
224.714198
 20
63.637204
 30
0.0
 10
226.238780
 20
64.164168
 30
0.0
 10
227.663052
 20
64.631197
 30
0.0
 10
229.310069
 20
65.114840
 30
0.0
 10
231.099107
 20
65.731024
 30
0.0
 10
232.856596
 20
66.588921
 30
0.0
 10
234.389487
 20
67.555019
 30
0.0
 10
235.311833
 20
69.223476
 30
0.0
 10
236.193470
 20
71.325315
 30
0.0
 10
236.893633
 20
73.660430
 30
0.0
 10
237.431588
 20
76.003784
 30
0.0
 10
237.688763
 20
78.600479
 30
0.0
 10
237.821410
 20
81.930548
 30
0.0
 10
237.931268
 20
85.601443
 30
0.0
 10
238.676122
 20
89.505925
 30
0.0
 10
239.762885
 20
92.302959
 30
0.0
 10
240.506270
 20
94.574458
 30
0.0
 10
240.852277
 20
95.903533
 30
0.0
 10
241.289639
 20
97.994014
 30
0.0
 10
241.195306
 20
101.140931
 30
0.0
 10
240.365382
 20
105.313751
 30
0.0
 10
239.248907
 20
108.881692
 30
0.0
 10
237.726568
 20
111.673698
 30
0.0
 10
236.054993
 20
113.943112
 30
0.0
 10
234.240550
 20
116.118960
 30
0.0
 10
232.559214
 20
118.105286
 30
0.0
 10
231.333986
 20
119.605019
 30
0.0
 10
230.135171
 20
121.153701
 30
0.0
 10
228.946798
 20
122.693422
 30
0.0
 10
227.236155
 20
124.181463
 30
0.0
 10
224.867625
 20
125.665449
 30
0.0
 10
222.011112
 20
127.556661
 30
0.0
 10
218.835707
 20
130.199553
 30
0.0
 10
215.601028
 20
133.402569
 30
0.0
 10
212.420277
 20
136.491674
 30
0.0
 10
209.307038
 20
138.784784
 30
0.0
 10
206.886407
 20
139.497276
 30
0.0
 10
205.136014
 20
139.707705
 30
0.0
 10
203.816063
 20
139.940676
 30
0.0
 10
201.410512
 20
140.424636
 30
0.0
 10
197.439676
 20
140.812641
 30
0.0
 10
191.927230
 20
141.022256
 30
0.0
 10
186.973480
 20
140.979993
 30
0.0
 10
183.259191
 20
140.788925
 30
0.0
 10
180.623179
 20
140.390487
 30
0.0
 10
178.097877
 20
139.749097
 30
0.0
 10
175.454280
 20
139.116510
 30
0.0
 10
173.040668
 20
138.582794
 30
0.0
 10
170.843595
 20
138.147082
 30
0.0
 10
168.934071
 20
137.800904
 30
0.0
 10
167.323394
 20
137.501217
 30
0.0
 10
164.976534
 20
136.979967
 30
0.0
 10
160.870472
 20
136.778544
 30
0.0
 10
155.162495
 20
136.446068
 30
0.0
 10
148.506218
 20
136.338224
 30
0.0
 10
142.353294
 20
136.375865
 30
0.0
 10
137.180141
 20
136.177450
 30
0.0
 10
133.870683
 20
135.813921
 30
0.0
 10
131.880975
 20
135.313790
 30
0.0
 10
130.481507
 20
135.050568
 30
0.0
 10
129.007602
 20
134.839261
 30
0.0
 10
127.434165
 20
134.552460
 30
0.0
 10
125.696034
 20
134.072330
 30
0.0
 10
123.898343
 20
133.450804
 30
0.0
 10
122.142671
 20
132.832305
 30
0.0
 10
120.597768
 20
132.356648
 30
0.0
 10
119.258950
 20
132.041465
 30
0.0
 10
118.013858
 20
131.793428
 30
0.0
 10
116.737789
 20
131.447528
 30
0.0
 10
115.149691
 20
130.955422
 30
0.0
 10
113.123565
 20
130.319865
 30
0.0
 10
109.912937
 20
129.706427
 30
0.0
 10
105.762180
 20
128.979804
 30
0.0
 10
101.021052
 20
128.233746
 30
0.0
 10
96.227339
 20
127.786696
 30
0.0
 10
91.831539
 20
127.698371
 30
0.0
 10
88.219780
 20
127.620322
 30
0.0
 10
85.393538
 20
127.821315
 30
0.0
 10
82.838395
 20
128.555977
 30
0.0
 10
79.674703
 20
129.264522
 30
0.0
 10
75.206675
 20
129.697907
 30
0.0
 10
70.555554
 20
129.949307
 30
0.0
 10
66.240241
 20
130.164414
 30
0.0
 10
62.907257
 20
129.921662
 30
0.0
 10
60.032196
 20
129.285493
 30
0.0
 10
57.383549
 20
128.577711
 30
0.0
 10
55.077656
 20
127.591802
 30
0.0
 10
53.318347
 20
126.462347
 30
0.0
 10
51.775027
 20
125.474967
 30
0.0
 10
50.511050
 20
124.741719
 30
0.0
 10
49.141787
 20
124.024642
 30
0.0
 10
47.716951
 20
123.277342
 30
0.0
 10
46.204657
 20
121.991580
 30
0.0
 10
44.416388
 20
120.129235
 30
0.0
 10
42.365882
 20
117.961559
 30
0.0
 10
40.499176
 20
115.128508
 30
0.0
 10
38.951499
 20
111.511312
 30
0.0
 10
37.123482
 20
107.951224
 30
0.0
 10
36.612245
 20
103.791439
 30
0.0
 10
38.193667
 20
100.216954
 30
0.0
 10
39.561471
 20
96.519469
 30
0.0
 10
41.422925
 20
93.149914
 30
0.0
 10
43.733260
 20
89.999060
 30
0.0
 10
47.068871
 20
87.079911
 30
0.0
 10
51.071657
 20
84.662404
 30
0.0
 10
54.469732
 20
83.430095
 30
0.0
 10
56.933228
 20
83.022697
 30
0.0
 10
58.563543
 20
82.651413
 30
0.0
 10
60.473728
 20
82.205878
 30
0.0
 10
62.316961
 20
81.716272
 30
0.0
 10
64.284896
 20
81.510791
 30
0.0
 10
66.612125
 20
81.657255
 30
0.0
 10
69.376878
 20
81.887280
 30
0.0
 10
72.360746
 20
82.420212
 30
0.0
 10
74.625585
 20
83.113273
 30
0.0
 10
76.376955
 20
83.730171
 30
0.0
 10
77.652449
 20
84.150265
 30
0.0
 10
79.523055
 20
84.693428
 30
0.0
 10
82.172319
 20
85.793158
 30
0.0
 10
85.412212
 20
87.378898
 30
0.0
 10
88.112440
 20
88.755379
 30
0.0
 10
89.942951
 20
90.129114
 30
0.0
 10
91.381069
 20
91.291161
 30
0.0
 10
92.989007
 20
92.682228
 30
0.0
 10
94.614841
 20
94.070592
 30
0.0
 10
96.093235
 20
95.237293
 30
0.0
 10
97.350865
 20
96.124497
 30
0.0
 10
98.482946
 20
96.784126
 30
0.0
 10
99.538247
 20
97.449400
 30
0.0
 10
100.614756
 20
98.138120
 30
0.0
 10
101.705842
 20
98.836722
 30
0.0
 10
102.806343
 20
99.522037
 30
0.0
 10
103.887837
 20
100.170778
 30
0.0
 10
104.895723
 20
100.790500
 30
0.0
 10
105.802287
 20
101.383876
 30
0.0
 10
106.837459
 20
102.127244
 30
0.0
 10
107.977935
 20
102.970651
 30
0.0
 10
109.782575
 20
103.034760
 30
0.0
 10
111.136835
 20
102.339619
 30
0.0
 10
112.345187
 20
101.769235
 30
0.0
 10
113.184975
 20
101.469125
 30
0.0
 10
113.932223
 20
101.253475
 30
0.0
 10
114.725024
 20
101.492946
 30
0.0
 10
115.695641
 20
101.807444
 30
0.0
 10
117.583767
 20
102.616638
 30
0.0
 10
120.195699
 20
103.718100
 30
0.0
 10
123.955431
 20
104.443378
 30
0.0
 10
127.432121
 20
104.516483
 30
0.0
 10
130.773428
 20
104.576359
 30
0.0
 10
133.610178
 20
104.683109
 30
0.0
 10
136.438190
 20
104.832928
 30
0.0
 10
138.834988
 20
104.989221
 30
0.0
 10
140.801952
 20
105.001211
 30
0.0
 10
142.683403
 20
104.734375
 30
0.0
 10
144.692297
 20
104.053572
 30
0.0
 10
146.722171
 20
103.079271
 30
0.0
 10
147.974790
 20
102.005414
 30
0.0
 10
148.633913
 20
101.137412
 30
0.0
 10
149.245219
 20
100.666385
 30
0.0
 10
150.045775
 20
100.204253
 30
0.0
 10
151.108023
 20
99.773502
 30
0.0
 10
152.845976
 20
99.943281
 30
0.0
 10
154.533208
 20
100.355209
 30
0.0
 10
156.223627
 20
100.667000
 30
0.0
 10
157.544861
 20
100.748184
 30
0.0
 10
158.893357
 20
100.666378
 30
0.0
 10
160.256850
 20
100.585513
 30
0.0
 10
161.630320
 20
100.673785
 30
0.0
 10
163.292440
 20
100.983131
 30
0.0
 10
165.005746
 20
101.327818
 30
0.0
 10
166.827297
 20
101.168391
 30
0.0
 10
167.778189
 20
100.237281
 30
0.0
 10
168.371832
 20
99.170102
 30
0.0
 10
168.441486
 20
97.425498
 30
0.0
 10
168.442203
 20
95.101049
 30
0.0
 10
168.451647
 20
92.776213
 30
0.0
 10
168.509622
 20
91.041876
 30
0.0
 10
169.022717
 20
90.123741
 30
0.0
 10
169.611597
 20
89.421759
 30
0.0
 10
170.577144
 20
88.877178
 30
0.0
 10
171.813672
 20
88.404248
 30
0.0
 10
173.020719
 20
87.945482
 30
0.0
 10
174.089071
 20
87.690720
 30
0.0
 10
174.984831
 20
87.911113
 30
0.0
 10
175.886444
 20
88.098691
 30
0.0
 10
176.838725
 20
87.785963
 30
0.0
 10
177.473375
 20
87.109175
 30
0.0
 10
177.818380
 20
86.048644
 30
0.0
 10
178.242936
 20
84.693915
 30
0.0
 10
178.735214
 20
82.806587
 30
0.0
 10
179.202177
 20
80.924243
 30
0.0
 10
179.786563
 20
79.272293
 30
0.0
 10
180.658975
 20
77.967468
 30
0.0
 10
181.739327
 20
76.763515
 30
0.0
 10
183.114505
 20
75.700609
 30
0.0
 10
184.467143
 20
75.252226
 30
0.0
 10
185.722571
 20
74.749983
 30
0.0
 10
186.960227
 20
73.690661
 30
0.0
 10
188.772542
 20
71.959336
 30
0.0
 10
191.174681
 20
69.850651
 30
0.0
 10
193.612272
 20
68.154872
 30
0.0
 10
195.268007
 20
67.067000
 30
0.0
 10
196.224407
 20
66.997490
 30
0.0
 10
196.770826
 20
66.885641
 30
0.0
 10
197.518313
 20
66.747309
 30
0.0
 10
198.365553
 20
66.515172
 30
0.0
 10
199.253376
 20
65.999479
 30
0.0
 10
200.301164
 20
65.053915
 30
0.0
 10
201.596175
 20
63.901610
 30
0.0
 10
203.417688
 20
62.892794
 30
0.0
 10
205.250723
 20
62.311872
 30
0.0
 10
207.172995
 20
61.818747
 30
0.0
 10
209.700614
 20
61.748149
 30
0.0
 10
212.747868
 20
61.803871
 30
0.0
 10
215.913818
 20
61.889825
 30
0.0
 10
218.378971
 20
62.017124
 30
0.0
 10
219.722530
 20
62.241104
 30
0.0
 10
220.272890
 20
62.332852
 30
0.0
 11
220.272890
 21
62.332852
 31
0.0
 11
221.580846
 21
62.666220
 31
0.0
 11
223.178151
 21
63.136721
 31
0.0
 11
224.718999
 21
63.642495
 31
0.0
 11
226.236471
 21
64.158882
 31
0.0
 11
227.772497
 21
64.657210
 31
0.0
 11
228.994536
 21
65.029594
 31
0.0
 11
231.122672
 21
65.789147
 31
0.0
 11
233.025493
 21
66.722030
 31
0.0
 11
234.250349
 21
67.606324
 31
0.0
 11
235.172083
 21
69.022456
 31
0.0
 11
236.103213
 21
71.209726
 31
0.0
 11
236.926874
 21
73.893615
 31
0.0
 11
237.375363
 21
75.949059
 31
0.0
 11
237.633772
 21
78.228747
 31
0.0
 11
237.804777
 21
81.638474
 31
0.0
 11
238.069703
 21
85.925493
 31
0.0
 11
238.697397
 21
89.155566
 31
0.0
 11
240.054053
 21
93.213091
 31
0.0
 11
240.485832
 21
94.557534
 31
0.0
 11
240.860616
 21
95.987362
 31
0.0
 11
241.097266
 21
97.193025
 31
0.0
 11
241.110139
 21
100.882875
 31
0.0
 11
240.308382
 21
105.208631
 31
0.0
 11
238.791025
 21
109.635990
 31
0.0
 11
237.809698
 21
111.438952
 31
0.0
 11
236.200231
 21
113.705010
 31
0.0
 11
233.917725
 21
116.497377
 31
0.0
 11
232.557856
 21
118.116465
 31
0.0
 11
231.241198
 21
119.734890
 31
0.0
 11
230.252802
 21
121.002271
 31
0.0
 11
228.858914
 21
122.685111
 31
0.0
 11
227.341880
 21
124.027782
 31
0.0
 11
225.227126
 21
125.450311
 31
0.0
 11
222.082755
 21
127.591126
 31
0.0
 11
219.058814
 21
130.080904
 31
0.0
 11
215.699752
 21
133.294725
 31
0.0
 11
211.967160
 21
136.741956
 31
0.0
 11
208.975149
 21
138.737281
 31
0.0
 11
206.322858
 21
139.548028
 31
0.0
 11
205.259036
 21
139.701396
 31
0.0
 11
203.835855
 21
139.942894
 31
0.0
 11
202.361426
 21
140.220239
 31
0.0
 11
197.973860
 21
140.723310
 31
0.0
 11
191.952584
 21
140.974818
 31
0.0
 11
185.847311
 21
140.910035
 31
0.0
 11
183.128691
 21
140.733767
 31
0.0
 11
180.834977
 21
140.388491
 31
0.0
 11
177.971348
 21
139.724455
 31
0.0
 11
175.488586
 21
139.132104
 31
0.0
 11
172.887260
 21
138.559755
 31
0.0
 11
170.730546
 21
138.131320
 31
0.0
 11
168.904582
 21
137.794070
 31
0.0
 11
167.170365
 21
137.460775
 31
0.0
 11
165.903342
 21
137.203595
 31
0.0
 11
161.774839
 21
136.818128
 31
0.0
 11
154.941058
 21
136.483542
 31
0.0
 11
148.754069
 21
136.363958
 31
0.0
 11
141.823711
 21
136.321117
 31
0.0
 11
136.491286
 21
136.072298
 31
0.0
 11
133.256205
 21
135.640804
 31
0.0
 11
131.936488
 21
135.340902
 31
0.0
 11
130.430458
 21
135.052863
 31
0.0
 11
129.064163
 21
134.839046
 31
0.0
 11
127.540378
 21
134.550508
 31
0.0
 11
125.743962
 21
134.065886
 31
0.0
 11
123.855864
 21
133.433994
 31
0.0
 11
122.102506
 21
132.831693
 31
0.0
 11
120.436521
 21
132.330796
 31
0.0
 11
119.218583
 21
132.039746
 31
0.0
 11
118.111297
 21
131.801225
 31
0.0
 11
116.735395
 21
131.438042
 31
0.0
 11
115.388750
 21
131.028826
 31
0.0
 11
113.318207
 21
130.418711
 31
0.0
 11
110.580930
 21
129.839443
 31
0.0
 11
105.817368
 21
129.003311
 31
0.0
 11
100.858650
 21
128.264198
 31
0.0
 11
96.334964
 21
127.850188
 31
0.0
 11
91.462793
 21
127.689572
 31
0.0
 11
87.696707
 21
127.682620
 31
0.0
 11
85.503793
 21
127.885308
 31
0.0
 11
83.078703
 21
128.464505
 31
0.0
 11
79.897177
 21
129.152798
 31
0.0
 11
75.953487
 21
129.603375
 31
0.0
 11
69.748380
 21
129.987529
 31
0.0
 11
65.952511
 21
130.091122
 31
0.0
 11
63.025368
 21
129.862921
 31
0.0
 11
59.831911
 21
129.214438
 31
0.0
 11
57.310102
 21
128.489511
 31
0.0
 11
55.167678
 21
127.562763
 31
0.0
 11
53.000845
 21
126.259526
 31
0.0
 11
51.819295
 21
125.514600
 31
0.0
 11
50.458799
 21
124.725211
 31
0.0
 11
49.213901
 21
124.062257
 31
0.0
 11
47.774372
 21
123.240160
 31
0.0
 11
46.422239
 21
122.145248
 31
0.0
 11
44.640760
 21
120.359082
 31
0.0
 11
42.320058
 21
117.751564
 31
0.0
 11
40.713763
 21
115.316038
 31
0.0
 11
39.108704
 21
111.971171
 31
0.0
 11
37.163244
 21
107.187300
 31
0.0
 11
36.891604
 21
104.122529
 31
0.0
 11
38.081104
 21
100.377330
 31
0.0
 11
39.781036
 21
96.282807
 31
0.0
 11
41.486550
 21
93.190731
 31
0.0
 11
43.603586
 21
90.365142
 31
0.0
 11
47.033185
 21
87.282280
 31
0.0
 11
51.364001
 21
84.693743
 31
0.0
 11
55.440237
 21
83.290350
 31
0.0
 11
56.790406
 21
83.034257
 31
0.0
 11
58.550705
 21
82.652745
 31
0.0
 11
60.340038
 21
82.228411
 31
0.0
 11
62.530181
 21
81.729569
 31
0.0
 11
64.149157
 21
81.565295
 31
0.0
 11
66.183493
 21
81.635487
 31
0.0
 11
69.486956
 21
81.951397
 31
0.0
 11
72.407985
 21
82.491040
 31
0.0
 11
75.075708
 21
83.278275
 31
0.0
 11
76.345690
 21
83.714475
 31
0.0
 11
77.721332
 21
84.163216
 31
0.0
 11
78.904813
 21
84.527346
 31
0.0
 11
81.840933
 21
85.685744
 31
0.0
 11
85.617357
 21
87.493137
 31
0.0
 11
88.668095
 21
89.200044
 31
0.0
 11
89.772330
 21
90.009391
 31
0.0
 11
91.323998
 21
91.258718
 31
0.0
 11
92.987172
 21
92.677550
 31
0.0
 11
94.667753
 21
94.096376
 31
0.0
 11
96.265059
 21
95.345677
 31
0.0
 11
97.433280
 21
96.154988
 31
0.0
 11
98.427420
 21
96.759037
 31
0.0
 11
99.568352
 21
97.470221
 31
0.0
 11
100.609071
 21
98.134571
 31
0.0
 11
101.667197
 21
98.809030
 31
0.0
 11
102.853767
 21
99.546724
 31
0.0
 11
103.911894
 21
100.187944
 31
0.0
 11
104.888489
 21
100.792371
 31
0.0
 11
105.861317
 21
101.433607
 31
0.0
 11
106.619765
 21
101.972829
 31
0.0
 11
108.131677
 21
102.848207
 31
0.0
 11
109.579491
 21
102.924974
 31
0.0
 11
111.388739
 21
102.225694
 31
0.0
 11
112.393476
 21
101.767514
 31
0.0
 11
113.300642
 21
101.441023
 31
0.0
 11
113.913838
 21
101.316903
 31
0.0
 11
114.581389
 21
101.451350
 31
0.0
 11
115.631046
 21
101.802859
 31
0.0
 11
116.835566
 21
102.295271
 31
0.0
 11
120.327273
 21
103.626967
 31
0.0
 11
123.707490
 21
104.306603
 31
0.0
 11
127.920877
 21
104.524116
 31
0.0
 11
130.670542
 21
104.583066
 31
0.0
 11
133.727360
 21
104.695810
 31
0.0
 11
136.429547
 21
104.837949
 31
0.0
 11
139.156463
 21
104.977484
 31
0.0
 11
140.927335
 21
104.953314
 31
0.0
 11
142.301024
 21
104.757814
 31
0.0
 11
144.703668
 21
103.994907
 31
0.0
 11
146.856601
 21
102.879012
 31
0.0
 11
148.181997
 21
101.709629
 31
0.0
 11
148.632871
 21
101.185568
 31
0.0
 11
149.253425
 21
100.682271
 31
0.0
 11
149.944244
 21
100.280371
 31
0.0
 11
151.061182
 21
99.886203
 31
0.0
 11
152.432494
 21
99.925403
 31
0.0
 11
154.949161
 21
100.423442
 31
0.0
 11
156.239386
 21
100.642661
 31
0.0
 11
157.508036
 21
100.721146
 31
0.0
 11
158.887142
 21
100.667065
 31
0.0
 11
160.285050
 21
100.613561
 31
0.0
 11
161.597920
 21
100.697179
 31
0.0
 11
162.981614
 21
100.927849
 31
0.0
 11
165.302715
 21
101.244783
 31
0.0
 11
166.818157
 21
100.985168
 31
0.0
 11
167.810398
 21
100.100616
 31
0.0
 11
168.245899
 21
99.275981
 31
0.0
 11
168.415334
 21
97.937817
 31
0.0
 11
168.443975
 21
95.096757
 31
0.0
 11
168.472856
 21
92.268626
 31
0.0
 11
168.638772
 21
90.929001
 31
0.0
 11
169.060628
 21
90.117799
 31
0.0
 11
169.610934
 21
89.493517
 31
0.0
 11
170.437098
 21
88.978082
 31
0.0
 11
171.794695
 21
88.412041
 31
0.0
 11
173.237609
 21
87.908344
 31
0.0
 11
174.123214
 21
87.758476
 31
0.0
 11
174.901369
 21
87.886306
 31
0.0
 11
175.942312
 21
88.009035
 31
0.0
 11
176.775673
 21
87.732477
 31
0.0
 11
177.433344
 21
87.046050
 31
0.0
 11
177.744162
 21
86.273379
 31
0.0
 11
178.195561
 21
84.808057
 31
0.0
 11
178.689816
 21
82.967318
 31
0.0
 11
179.320014
 21
80.647810
 31
0.0
 11
179.871786
 21
79.234259
 31
0.0
 11
180.574274
 21
78.139646
 31
0.0
 11
181.821575
 21
76.761047
 31
0.0
 11
183.185623
 21
75.767854
 31
0.0
 11
184.653347
 21
75.169584
 31
0.0
 11
185.548316
 21
74.773959
 31
0.0
 11
186.718055
 21
73.884558
 31
0.0
 11
188.464297
 21
72.271960
 31
0.0
 11
191.279709
 21
69.853156
 31
0.0
 11
194.066294
 21
67.863725
 31
0.0
 11
195.796169
 21
67.037506
 31
0.0
 11
196.137620
 21
66.998401
 31
0.0
 11
196.729311
 21
66.895883
 31
0.0
 11
197.443145
 21
66.752148
 31
0.0
 11
198.355974
 21
66.474734
 31
0.0
 11
199.170411
 21
66.014352
 31
0.0
 11
200.059800
 21
65.273016
 31
0.0
 11
201.707179
 21
63.914726
 31
0.0
 11
203.358982
 21
62.991881
 31
0.0
 11
205.405055
 21
62.286674
 31
0.0
 11
207.063010
 21
61.905770
 31
0.0
 11
209.125062
 21
61.775456
 31
0.0
 11
212.905054
 21
61.812697
 31
0.0
 11
216.213896
 21
61.913611
 31
0.0
 11
218.618803
 21
62.083393
 31
0.0
 11
220.272890
 21
62.332852
 31
0.0
  0
LINE
  5
110
100
AcDbEntity
  8
0
 62
7
100
AcDbLine
 10
259.957779
 20
106.425269
 30
0.0
 11
259.957782
 21
106.425269
 31
0.0
  0
SPLINE
  5
111
100
AcDbEntity
  8
0
 62
7
100
AcDbSpline
 70
0
 71
3
 72
31
 73
27
 74
25
 40
0.000000
 40
0.000000
 40
0.000000
 40
0.000000
 40
2.324309
 40
4.676022
 40
6.560562
 40
7.439560
 40
8.432348
 40
9.380935
 40
10.480488
 40
11.250084
 40
12.313926
 40
15.240323
 40
18.186706
 40
21.424644
 40
23.197579
 40
24.787593
 40
26.873014
 40
29.659996
 40
32.837233
 40
36.095961
 40
38.152096
 40
40.128926
 40
41.949067
 40
43.175919
 40
44.014695
 40
45.231457
 40
45.231457
 40
45.231457
 40
45.231457
 10
259.957782
 20
106.425269
 30
0.0
 10
260.706015
 20
106.635417
 30
0.0
 10
262.211304
 20
107.058192
 30
0.0
 10
264.157680
 20
108.061660
 30
0.0
 10
265.589555
 20
109.044935
 30
0.0
 10
266.318655
 20
110.073145
 30
0.0
 10
266.779566
 20
110.895167
 30
0.0
 10
267.141651
 20
111.841986
 30
0.0
 10
267.442254
 20
112.740124
 30
0.0
 10
267.450046
 20
113.734039
 30
0.0
 10
266.952818
 20
115.252315
 30
0.0
 10
265.922850
 20
117.369417
 30
0.0
 10
263.485735
 20
119.338784
 30
0.0
 10
260.954507
 20
120.200627
 30
0.0
 10
258.748161
 20
120.553608
 30
0.0
 10
256.955840
 20
120.093171
 30
0.0
 10
255.040568
 20
119.059602
 30
0.0
 10
253.236599
 20
116.943314
 30
0.0
 10
252.460438
 20
113.894730
 30
0.0
 10
252.613780
 20
110.994857
 30
0.0
 10
253.669835
 20
108.767918
 30
0.0
 10
254.994634
 20
107.277994
 30
0.0
 10
256.529794
 20
106.536370
 30
0.0
 10
257.788250
 20
106.206801
 30
0.0
 10
258.892278
 20
106.167552
 30
0.0
 10
259.561587
 20
106.329440
 30
0.0
 10
259.957779
 20
106.425269
 30
0.0
 11
259.957782
 21
106.425269
 31
0.0
 11
262.173323
 21
107.127971
 31
0.0
 11
264.274405
 21
108.184384
 31
0.0
 11
265.760735
 21
109.342967
 31
0.0
 11
266.283905
 21
110.049317
 31
0.0
 11
266.764272
 21
110.918153
 31
0.0
 11
267.118233
 21
111.798226
 31
0.0
 11
267.410168
 21
112.858316
 31
0.0
 11
267.414660
 21
113.627899
 31
0.0
 11
267.134901
 21
114.654297
 31
0.0
 11
265.752264
 21
117.233467
 31
0.0
 11
263.492692
 21
119.124368
 31
0.0
 11
260.454701
 21
120.244570
 31
0.0
 11
258.691959
 21
120.434418
 31
0.0
 11
257.141231
 21
120.083155
 31
0.0
 11
255.312992
 21
119.079898
 31
0.0
 11
253.506316
 21
116.957827
 31
0.0
 11
252.627616
 21
113.904514
 31
0.0
 11
252.888793
 21
110.656269
 31
0.0
 11
253.766768
 21
108.797008
 31
0.0
 11
255.111648
 21
107.348162
 31
0.0
 11
256.730971
 21
106.517077
 31
0.0
 11
257.923031
 21
106.226975
 31
0.0
 11
258.761469
 21
106.203121
 31
0.0
 11
259.957779
 21
106.425269
 31
0.0
  0
LINE
  5
112
100
AcDbEntity
  8
0
 62
7
100
AcDbLine
 10
246.680191
 20
121.116859
 30
0.0
 11
246.680191
 21
121.116859
 31
0.0
  0
SPLINE
  5
113
100
AcDbEntity
  8
0
 62
7
100
AcDbSpline
 70
0
 71
3
 72
28
 73
24
 74
22
 40
0.000000
 40
0.000000
 40
0.000000
 40
0.000000
 40
2.289837
 40
4.345749
 40
6.334772
 40
7.850677
 40
9.004620
 40
10.569050
 40
12.521082
 40
14.960552
 40
17.292652
 40
18.309442
 40
19.063531
 40
20.027364
 40
22.386598
 40
24.118924
 40
25.787964
 40
28.904296
 40
31.494523
 40
33.757837
 40
36.427079
 40
39.045771
 40
41.833343
 40
41.833343
 40
41.833343
 40
41.833343
 10
246.680191
 20
121.116859
 30
0.0
 10
247.347285
 20
121.491026
 30
0.0
 10
248.613325
 20
122.201136
 30
0.0
 10
250.162379
 20
123.688986
 30
0.0
 10
251.082497
 20
125.298821
 30
0.0
 10
251.726113
 20
126.751652
 30
0.0
 10
251.593497
 20
128.207113
 30
0.0
 10
250.795497
 20
129.585661
 30
0.0
 10
249.350494
 20
130.972528
 30
0.0
 10
247.396620
 20
132.110185
 30
0.0
 10
245.572029
 20
132.762771
 30
0.0
 10
244.220527
 20
133.022506
 30
0.0
 10
243.297665
 20
132.939438
 30
0.0
 10
242.050574
 20
132.371725
 30
0.0
 10
240.520472
 20
131.675687
 30
0.0
 10
238.981119
 20
130.461751
 30
0.0
 10
237.902214
 20
128.539181
 30
0.0
 10
237.214376
 20
126.156594
 30
0.0
 10
237.356770
 20
123.390955
 30
0.0
 10
238.964251
 20
121.287428
 30
0.0
 10
241.356809
 20
120.296607
 30
0.0
 10
244.113776
 20
120.085379
 30
0.0
 10
245.807087
 20
120.765946
 30
0.0
 10
246.680191
 20
121.116859
 30
0.0
 11
246.680191
 21
121.116859
 31
0.0
 11
248.625012
 21
122.325588
 31
0.0
 11
250.096113
 21
123.761776
 31
0.0
 11
251.129948
 21
125.461011
 31
0.0
 11
251.630254
 21
126.891976
 31
0.0
 11
251.537998
 21
128.042225
 31
0.0
 11
250.811784
 21
129.427885
 31
0.0
 11
249.427120
 21
130.803797
 31
0.0
 11
247.334715
 21
132.057934
 31
0.0
 11
245.134395
 21
132.830773
 31
0.0
 11
244.129285
 21
132.984445
 31
0.0
 11
243.378902
 21
132.909773
 31
0.0
 11
242.478285
 21
132.566460
 31
0.0
 11
240.378947
 21
131.490001
 31
0.0
 11
239.053923
 21
130.374087
 31
0.0
 11
238.183864
 21
128.949764
 31
0.0
 11
237.354427
 21
125.945841
 31
0.0
 11
237.633295
 21
123.370670
 31
0.0
 11
238.984647
 21
121.555060
 31
0.0
 11
241.405911
 21
120.431525
 31
0.0
 11
244.020368
 21
120.282652
 31
0.0
 11
246.680191
 21
121.116859
 31
0.0
  0
LINE
  5
114
100
AcDbEntity
  8
0
 62
7
100
AcDbLine
 10
229.374634
 20
136.039926
 30
0.0
 11
229.374634
 21
136.039926
 31
0.0
  0
SPLINE
  5
115
100
AcDbEntity
  8
0
 62
7
100
AcDbSpline
 70
0
 71
3
 72
22
 73
18
 74
16
 40
0.000000
 40
0.000000
 40
0.000000
 40
0.000000
 40
0.821769
 40
1.454251
 40
2.252705
 40
3.067729
 40
3.635305
 40
4.462601
 40
5.307614
 40
6.127520
 40
7.251389
 40
9.195752
 40
10.498741
 40
11.715010
 40
14.362638
 40
16.998023
 40
19.843059
 40
19.843059
 40
19.843059
 40
19.843059
 10
229.374634
 20
136.039926
 30
0.0
 10
229.590002
 20
136.212587
 30
0.0
 10
229.971130
 20
136.518138
 30
0.0
 10
230.338573
 20
137.201888
 30
0.0
 10
230.374861
 20
137.955185
 30
0.0
 10
230.466963
 20
138.692235
 30
0.0
 10
230.141509
 20
139.392088
 30
0.0
 10
229.515011
 20
139.824538
 30
0.0
 10
228.840733
 20
140.315825
 30
0.0
 10
227.927741
 20
140.564661
 30
0.0
 10
226.633093
 20
140.643048
 30
0.0
 10
225.180545
 20
140.671286
 30
0.0
 10
223.690158
 20
140.053763
 30
0.0
 10
223.108345
 20
138.283856
 30
0.0
 10
223.981983
 20
136.032639
 30
0.0
 10
226.769200
 20
134.766773
 30
0.0
 10
228.484286
 20
135.604855
 30
0.0
 10
229.374634
 20
136.039926
 30
0.0
 11
229.374634
 21
136.039926
 31
0.0
 11
229.974781
 21
136.601287
 31
0.0
 11
230.270418
 21
137.160423
 31
0.0
 11
230.384895
 21
137.950628
 31
0.0
 11
230.386368
 21
138.765650
 31
0.0
 11
230.149174
 21
139.281287
 31
0.0
 11
229.523710
 21
139.822780
 31
0.0
 11
228.809569
 21
140.274498
 31
0.0
 11
228.025318
 21
140.513653
 31
0.0
 11
226.906574
 21
140.620866
 31
0.0
 11
224.965557
 21
140.506847
 31
0.0
 11
223.810336
 21
139.904150
 31
0.0
 11
223.364097
 21
138.772699
 31
0.0
 11
224.260274
 21
136.281354
 31
0.0
 11
226.659333
 21
135.190589
 31
0.0
 11
229.374634
 21
136.039926
 31
0.0
  0
ENDSEC
  0
SECTION
  2
OBJECTS
  0
DICTIONARY
  5
C
330
0
100
AcDbDictionary
  3
ACAD_GROUP
350
D
  3
ACAD_MLINESTYLE
350
17
  0
DICTIONARY
  5
D
330
C
100
AcDbDictionary
  0
DICTIONARY
  5
1A
330
C
100
AcDbDictionary
  0
DICTIONARY
  5
17
330
C
100
AcDbDictionary
  3
STANDARD
350
18
  0
DICTIONARY
  5
19
330
C
100
AcDbDictionary
  0
ENDSEC
  0
EOF
