  0
SECTION
  2
HEADER
  9
$ACADVER
  1
AC1014
  9
$HANDSEED
  5
FFFF
  9
$MEASUREMENT
 70
     1
  0
ENDSEC
  0
SECTION
  2
TABLES
  0
TABLE
  2
VPORT
  5
8
330
0
100
AcDbSymbolTable
 70
     4
  0
VPORT
  5
2E
330
8
100
AcDbSymbolTableRecord
100
AcDbViewportTableRecord
  2
*ACTIVE
 70
     0
 10
0.0
 20
0.0
 11
1.0
 21
1.0
 12
210.0
 22
148.5
 13
0.0
 23
0.0
 14
10.0
 24
10.0
 15
10.0
 25
10.0
 16
0.0
 26
0.0
 36
1.0
 17
0.0
 27
0.0
 37
0.0
 40
341.0
 41
1.24
 42
50.0
 43
0.0
 44
0.0
 50
0.0
 51
0.0
 71
     0
 72
   100
 73
     1
 74
     3
 75
     0
 76
     0
 77
     0
 78
     0
  0
ENDTAB
  0
TABLE
  2
LTYPE
  5
5
330
0
100
AcDbSymbolTable
 70
     1
  0
LTYPE
  5
14
330
5
100
AcDbSymbolTableRecord
100
AcDbLinetypeTableRecord
  2
BYBLOCK
 70
     0
  3

 72
    65
 73
     0
 40
0.0
  0
LTYPE
  5
15
330
5
100
AcDbSymbolTableRecord
100
AcDbLinetypeTableRecord
  2
BYLAYER
 70
     0
  3

 72
    65
 73
     0
 40
0.0
  0
LTYPE
  5
16
330
5
100
AcDbSymbolTableRecord
100
AcDbLinetypeTableRecord
  2
CONTINUOUS
 70
     0
  3
Solid line
 72
    65
 73
     0
 40
0.0
  0
ENDTAB
  0
TABLE
  2
LAYER
  5
2
100
AcDbSymbolTable
 70
1
  0
LAYER
  5
50
100
AcDbSymbolTableRecord
100
AcDbLayerTableRecord
  2
0
 70
0
  6
CONTINUOUS
  0
ENDTAB
  0
TABLE
  2
STYLE
  5
3
330
0
100
AcDbSymbolTable
 70
     1
  0
STYLE
  5
11
330
3
100
AcDbSymbolTableRecord
100
AcDbTextStyleTableRecord
  2
STANDARD
 70
     0
 40
0.0
 41
1.0
 50
0.0
 71
     0
 42
2.5
  3
txt
  4

  0
ENDTAB
  0
TABLE
  2
VIEW
  5
6
330
0
100
AcDbSymbolTable
 70
     0
  0
ENDTAB
  0
TABLE
  2
UCS
  5
7
330
0
100
AcDbSymbolTable
 70
     0
  0
ENDTAB
  0
TABLE
  2
APPID
  5
9
330
0
100
AcDbSymbolTable
 70
     2
  0
APPID
  5
12
330
9
100
AcDbSymbolTableRecord
100
AcDbRegAppTableRecord
  2
ACAD
 70
     0
  0
ENDTAB
  0
TABLE
  2
DIMSTYLE
  5
A
330
0
100
AcDbSymbolTable
 70
     1
  0
DIMSTYLE
105
27
330
A
100
AcDbSymbolTableRecord
100
AcDbDimStyleTableRecord
  2
ISO-25
 70
     0
  3

  4

  5

  6

  7

 40
1.0
 41
2.5
 42
0.625
 43
3.75
 44
1.25
 45
0.0
 46
0.0
 47
0.0
 48
0.0
140
2.5
141
2.5
142
0.0
143
0.03937007874016
144
1.0
145
0.0
146
1.0
147
0.625
 71
     0
 72
     0
 73
     0
 74
     0
 75
     0
 76
     0
 77
     1
 78
     8
170
     0
171
     3
172
     1
173
     0
174
     0
175
     0
176
     0
177
     0
178
     0
270
     2
271
     2
272
     2
273
     2
274
     3
340
11
275
     0
280
     0
281
     0
282
     0
283
     0
284
     8
285
     0
286
     0
287
     3
288
     0
  0
ENDTAB
  0
TABLE
  2
BLOCK_RECORD
  5
1
330
0
100
AcDbSymbolTable
 70
     1
  0
BLOCK_RECORD
  5
1F
330
1
100
AcDbSymbolTableRecord
100
AcDbBlockTableRecord
  2
*MODEL_SPACE
  0
BLOCK_RECORD
  5
1B
330
1
100
AcDbSymbolTableRecord
100
AcDbBlockTableRecord
  2
*PAPER_SPACE
  0
ENDTAB
  0
ENDSEC
  0
SECTION
  2
BLOCKS
  0
BLOCK
  5
20
330
1F
100
AcDbEntity
  8
0
100
AcDbBlockBegin
  2
*MODEL_SPACE
 70
     0
 10
0.0
 20
0.0
 30
0.0
  3
*MODEL_SPACE
  1

  0
ENDBLK
  5
21
330
1F
100
AcDbEntity
  8
0
100
AcDbBlockEnd
  0
BLOCK
  5
1C
330
1B
100
AcDbEntity
 67
     1
  8
0
100
AcDbBlockBegin
  2
*PAPER_SPACE
  1

  0
ENDBLK
  5
1D
330
1B
100
AcDbEntity
 67
     1
  8
0
100
AcDbBlockEnd
  0
ENDSEC
  0
SECTION
  2
ENTITIES
  0
LINE
  5
100
100
AcDbEntity
  8
0
 62
7
100
AcDbLine
 10
136.937139
 20
83.651403
 30
0.0
 11
135.125595
 21
82.783700
 31
0.0
  0
LINE
  5
101
100
AcDbEntity
  8
0
 62
7
100
AcDbLine
 10
135.125595
 20
82.783700
 30
0.0
 11
132.539489
 21
83.024854
 31
0.0
  0
SPLINE
  5
102
100
AcDbEntity
  8
0
 62
7
100
AcDbSpline
 70
0
 71
3
 72
49
 73
45
 74
43
 40
0.000000
 40
0.000000
 40
0.000000
 40
0.000000
 40
0.551997
 40
1.874503
 40
3.682891
 40
6.128794
 40
8.154422
 40
10.400010
 40
14.875828
 40
17.576593
 40
19.314915
 40
21.983369
 40
26.157657
 40
30.861388
 40
33.881193
 40
36.101952
 40
38.360243
 40
39.693784
 40
41.155134
 40
42.432248
 40
44.000300
 40
46.221949
 40
48.617320
 40
51.547188
 40
53.549968
 40
55.692900
 40
57.507594
 40
58.739157
 40
59.656912
 40
60.432464
 40
61.075113
 40
61.881118
 40
63.579761
 40
65.164935
 40
66.391383
 40
67.032114
 40
67.786519
 40
68.926049
 40
70.879950
 40
73.154625
 40
76.359542
 40
78.538346
 40
80.243220
 40
82.516836
 40
82.516836
 40
82.516836
 40
82.516836
 10
211.604251
 20
55.725778
 30
0.0
 10
211.423121
 20
55.758528
 30
0.0
 10
210.808031
 20
55.869744
 30
0.0
 10
209.581969
 20
55.961601
 30
0.0
 10
207.730285
 20
56.112890
 30
0.0
 10
205.641409
 20
56.269709
 30
0.0
 10
203.431358
 20
56.657211
 30
0.0
 10
200.630117
 20
57.474768
 30
0.0
 10
197.623031
 20
58.374780
 30
0.0
 10
194.777276
 20
59.238217
 30
0.0
 10
192.446177
 20
59.688682
 30
0.0
 10
189.776791
 20
60.755376
 30
0.0
 10
186.338608
 20
62.482483
 30
0.0
 10
182.890065
 20
64.446459
 30
0.0
 10
180.061455
 20
66.173819
 30
0.0
 10
177.830999
 20
67.314745
 30
0.0
 10
176.003122
 20
67.964388
 30
0.0
 10
174.436615
 20
68.583577
 30
0.0
 10
173.204714
 20
69.156940
 30
0.0
 10
171.948995
 20
69.853282
 30
0.0
 10
170.479624
 20
70.686151
 30
0.0
 10
168.642973
 20
71.624015
 30
0.0
 10
166.389700
 20
72.742260
 30
0.0
 10
164.180384
 20
73.785280
 30
0.0
 10
162.170038
 20
75.039463
 30
0.0
 10
160.716113
 20
76.404307
 30
0.0
 10
159.446301
 20
77.571663
 30
0.0
 10
158.388574
 20
78.384683
 30
0.0
 10
157.475206
 20
78.741966
 30
0.0
 10
156.708887
 20
78.922591
 30
0.0
 10
156.109404
 20
79.398683
 30
0.0
 10
155.592162
 20
80.320091
 30
0.0
 10
154.837494
 20
81.457913
 30
0.0
 10
153.810785
 20
82.560249
 30
0.0
 10
152.875530
 20
83.266856
 30
0.0
 10
152.022078
 20
83.511311
 30
0.0
 10
151.168603
 20
83.479624
 30
0.0
 10
149.912778
 20
83.228136
 30
0.0
 10
148.120088
 20
83.032936
 30
0.0
 10
145.651022
 20
83.418000
 30
0.0
 10
143.199397
 20
84.087602
 30
0.0
 10
140.913478
 20
84.783066
 30
0.0
 10
138.819567
 20
84.576982
 30
0.0
 10
137.621695
 20
83.987996
 30
0.0
 10
136.937139
 20
83.651403
 30
0.0
 11
211.604251
 21
55.725778
 31
0.0
 11
211.060086
 21
55.818439
 31
0.0
 11
209.744211
 21
55.950704
 31
0.0
 11
207.941505
 21
56.093937
 31
0.0
 11
205.506444
 21
56.323976
 31
0.0
 11
203.512151
 21
56.678892
 31
0.0
 11
201.345175
 21
57.267857
 31
0.0
 11
197.056347
 21
58.548054
 31
0.0
 11
194.455654
 21
59.276428
 31
0.0
 11
192.762824
 21
59.671512
 31
0.0
 11
190.259074
 21
60.594486
 31
0.0
 11
186.511810
 21
62.433694
 31
0.0
 11
182.417457
 21
64.749157
 31
0.0
 11
179.811559
 21
66.275105
 31
0.0
 11
177.823413
 21
67.264571
 31
0.0
 11
175.718656
 21
68.083034
 31
0.0
 11
174.480993
 21
68.579542
 31
0.0
 11
173.157511
 21
69.199171
 31
0.0
 11
172.034738
 21
69.807776
 31
0.0
 11
170.664657
 21
70.570446
 31
0.0
 11
168.692827
 21
71.593974
 31
0.0
 11
166.546139
 21
72.656770
 31
0.0
 11
163.931096
 21
73.978009
 31
0.0
 11
162.248748
 21
75.064671
 31
0.0
 11
160.635149
 21
76.474797
 31
0.0
 11
159.279685
 21
77.681376
 31
0.0
 11
158.272771
 21
78.390510
 31
0.0
 11
157.422951
 21
78.737038
 31
0.0
 11
156.690110
 21
78.990856
 31
0.0
 11
156.183420
 21
79.386156
 31
0.0
 11
155.733629
 21
80.054986
 31
0.0
 11
154.778673
 21
81.459780
 31
0.0
 11
153.690459
 21
82.612415
 31
0.0
 11
152.672836
 21
83.296973
 31
0.0
 11
152.055796
 21
83.469594
 31
0.0
 11
151.301392
 21
83.468555
 31
0.0
 11
150.175384
 21
83.293533
 31
0.0
 11
148.228834
 21
83.124199
 31
0.0
 11
145.971367
 21
83.403458
 31
0.0
 11
142.866420
 21
84.197689
 31
0.0
 11
140.739143
 21
84.668728
 31
0.0
 11
139.041459
 21
84.512314
 31
0.0
 11
136.937139
 21
83.651403
 31
0.0
  0
LINE
  5
103
100
AcDbEntity
  8
0
 62
7
100
AcDbLine
 10
269.103110
 20
108.594521
 30
0.0
 11
269.180078
 21
107.539305
 31
0.0
  0
LINE
  5
104
100
AcDbEntity
  8
0
 62
7
100
AcDbLine
 10
269.180078
 20
107.539305
 30
0.0
 11
271.212581
 21
107.383740
 31
0.0
  0
SPLINE
  5
105
100
AcDbEntity
  8
0
 62
7
100
AcDbSpline
 70
0
 71
3
 72
187
 73
183
 74
181
 40
0.000000
 40
0.000000
 40
0.000000
 40
0.000000
 40
1.504312
 40
2.953222
 40
4.035995
 40
5.020775
 40
6.215681
 40
7.368265
 40
8.695837
 40
9.767371
 40
11.050706
 40
12.225786
 40
13.049757
 40
13.763766
 40
14.399074
 40
15.079045
 40
15.786003
 40
17.497243
 40
19.368305
 40
20.738250
 40
22.252412
 40
24.571172
 40
27.194710
 40
28.664409
 40
29.733751
 40
31.020558
 40
32.258355
 40
33.292099
 40
34.506445
 40
35.797287
 40
37.050563
 40
38.880764
 40
40.944591
 40
43.035146
 40
46.755120
 40
49.641082
 40
52.172069
 40
53.800556
 40
54.913619
 40
56.094314
 40
57.089379
 40
59.828855
 40
62.420692
 40
64.854655
 40
66.437628
 40
68.506084
 40
70.613361
 40
73.001427
 40
75.547863
 40
78.037563
 40
80.711964
 40
82.609659
 40
84.707948
 40
88.886641
 40
92.608687
 40
96.497271
 40
99.945469
 40
102.552172
 40
106.032470
 40
111.477332
 40
116.600955
 40
122.287110
 40
125.688482
 40
127.934875
 40
129.753575
 40
132.897560
 40
137.086759
 40
140.831508
 40
143.582248
 40
146.343547
 40
147.868119
 40
148.640791
 40
150.492959
 40
153.024415
 40
158.216356
 40
163.002192
 40
168.064639
 40
173.268238
 40
179.703120
 40
184.352846
 40
189.877510
 40
198.172208
 40
203.798842
 40
205.707600
 40
208.946936
 40
215.188061
 40
219.308721
 40
224.111544
 40
230.652081
 40
234.327464
 40
237.396487
 40
239.596868
 40
241.431622
 40
243.642446
 40
245.750737
 40
247.904427
 40
250.235922
 40
252.242358
 40
254.144047
 40
256.200209
 40
257.967184
 40
260.712184
 40
264.360406
 40
269.923048
 40
272.127292
 40
273.934615
 40
275.559476
 40
280.701284
 40
286.283480
 40
293.100988
 40
297.123825
 40
301.301962
 40
309.834414
 40
312.166552
 40
314.143839
 40
315.863591
 40
318.310969
 40
319.778648
 40
321.686602
 40
322.580323
 40
323.632692
 40
324.804210
 40
326.230070
 40
327.641207
 40
329.755338
 40
333.394966
 40
336.865621
 40
339.236223
 40
339.927974
 40
340.803035
 40
341.687507
 40
342.784052
 40
343.636971
 40
344.902475
 40
348.394778
 40
351.910783
 40
355.461154
 40
357.262605
 40
358.112476
 40
358.874166
 40
359.329696
 40
359.817917
 40
360.256530
 40
360.660844
 40
361.036548
 40
361.302454
 40
362.512605
 40
364.234349
 40
366.129280
 40
367.918109
 40
369.969759
 40
371.685693
 40
373.590649
 40
376.152350
 40
378.693657
 40
382.674713
 40
386.610749
 40
390.155051
 40
391.300335
 40
392.301970
 40
393.615739
 40
394.642072
 40
395.502078
 40
396.010435
 40
396.332049
 40
396.711246
 40
397.224352
 40
397.881529
 40
398.589153
 40
399.702901
 40
401.958809
 40
404.025047
 40
406.038398
 40
408.352001
 40
410.655689
 40
412.542331
 40
415.386710
 40
418.229999
 40
420.683180
 40
421.331082
 40
422.058236
 40
422.719262
 40
422.719262
 40
422.719262
 40
422.719262
 10
132.539489
 20
83.024854
 30
0.0
 10
132.041118
 20
83.079867
 30
0.0
 10
131.062732
 20
83.187866
 30
0.0
 10
129.730855
 20
83.387001
 30
0.0
 10
128.588432
 20
83.650130
 30
0.0
 10
127.525308
 20
83.882285
 30
0.0
 10
126.419091
 20
84.003852
 30
0.0
 10
125.195775
 20
84.061852
 30
0.0
 10
124.008155
 20
84.041598
 30
0.0
 10
122.797985
 20
83.784282
 30
0.0
 10
121.728369
 20
83.280426
 30
0.0
 10
120.737491
 20
82.826257
 30
0.0
 10
119.855037
 20
82.566619
 30
0.0
 10
119.126390
 20
82.633217
 30
0.0
 10
118.452508
 20
82.691138
 30
0.0
 10
117.776908
 20
82.598876
 30
0.0
 10
116.805825
 20
82.238727
 30
0.0
 10
115.391543
 20
82.005242
 30
0.0
 10
113.695431
 20
82.020838
 30
0.0
 10
112.253534
 20
82.707446
 30
0.0
 10
110.587147
 20
83.270327
 30
0.0
 10
108.396643
 20
82.963637
 30
0.0
 10
106.337046
 20
82.425045
 30
0.0
 10
104.745278
 20
81.751605
 30
0.0
 10
103.473601
 20
81.539371
 30
0.0
 10
102.275998
 20
81.655686
 30
0.0
 10
101.092180
 20
81.747585
 30
0.0
 10
99.928483
 20
81.614483
 30
0.0
 10
98.806471
 20
81.244414
 30
0.0
 10
97.611301
 20
80.852603
 30
0.0
 10
96.146659
 20
80.741336
 30
0.0
 10
94.435498
 20
80.831529
 30
0.0
 10
92.434779
 20
80.945662
 30
0.0
 10
89.835682
 20
80.488660
 30
0.0
 10
87.035450
 20
79.751398
 30
0.0
 10
84.074728
 20
79.033702
 30
0.0
 10
81.790602
 20
78.487597
 30
0.0
 10
80.071082
 20
78.123730
 30
0.0
 10
78.791620
 20
77.854627
 30
0.0
 10
77.730556
 20
77.575236
 30
0.0
 10
76.175574
 20
77.059046
 30
0.0
 10
74.166649
 20
76.408770
 30
0.0
 10
71.595567
 20
75.998945
 30
0.0
 10
69.387069
 20
76.035975
 30
0.0
 10
67.363922
 20
76.176144
 30
0.0
 10
65.443873
 20
76.216613
 30
0.0
 10
63.256185
 20
76.214648
 30
0.0
 10
60.908601
 20
76.243970
 30
0.0
 10
58.437545
 20
76.400884
 30
0.0
 10
55.882269
 20
76.678392
 30
0.0
 10
53.547020
 20
76.983160
 30
0.0
 10
51.377264
 20
77.502947
 30
0.0
 10
48.861020
 20
78.563243
 30
0.0
 10
45.832264
 20
79.955456
 30
0.0
 10
42.458930
 20
81.999241
 30
0.0
 10
39.600011
 20
84.328801
 30
0.0
 10
37.058206
 20
86.472261
 30
0.0
 10
35.093069
 20
88.999751
 30
0.0
 10
33.375787
 20
92.448027
 30
0.0
 10
31.488580
 20
96.757189
 30
0.0
 10
30.628564
 20
102.171080
 30
0.0
 10
30.973025
 20
106.916871
 30
0.0
 10
31.479184
 20
110.658508
 30
0.0
 10
31.949543
 20
113.107358
 30
0.0
 10
32.763855
 20
115.381217
 30
0.0
 10
34.404489
 20
117.974682
 30
0.0
 10
36.545761
 20
120.972975
 30
0.0
 10
38.765120
 20
123.778914
 30
0.0
 10
41.081890
 20
125.824702
 30
0.0
 10
42.895862
 20
127.319775
 30
0.0
 10
44.370903
 20
128.156107
 30
0.0
 10
45.662285
 20
128.654216
 30
0.0
 10
47.208577
 20
129.408047
 30
0.0
 10
50.088343
 20
130.780895
 30
0.0
 10
53.896681
 20
132.498834
 30
0.0
 10
58.716364
 20
133.922777
 30
0.0
 10
63.667562
 20
134.819185
 30
0.0
 10
69.235961
 20
135.058919
 30
0.0
 10
74.668430
 20
135.173227
 30
0.0
 10
80.192781
 20
134.767199
 30
0.0
 10
86.345632
 20
134.495788
 30
0.0
 10
92.823572
 20
134.584309
 30
0.0
 10
98.113280
 20
134.635930
 30
0.0
 10
101.670438
 20
135.151107
 30
0.0
 10
105.457781
 20
135.434969
 30
0.0
 10
109.978829
 20
135.755581
 30
0.0
 10
115.010942
 20
136.274003
 30
0.0
 10
120.073161
 20
137.275380
 30
0.0
 10
124.934292
 20
138.469618
 30
0.0
 10
129.241799
 20
139.497856
 30
0.0
 10
132.162386
 20
140.102320
 30
0.0
 10
134.505823
 20
140.454638
 30
0.0
 10
136.580717
 20
140.631766
 30
0.0
 10
138.620757
 20
140.845966
 30
0.0
 10
140.765350
 20
141.083113
 30
0.0
 10
142.954762
 20
141.277379
 30
0.0
 10
145.115229
 20
141.408011
 30
0.0
 10
147.194753
 20
141.455541
 30
0.0
 10
149.182659
 20
141.485330
 30
0.0
 10
151.089226
 20
141.578743
 30
0.0
 10
153.271136
 20
141.759954
 30
0.0
 10
155.980436
 20
142.007112
 30
0.0
 10
159.964378
 20
142.154972
 30
0.0
 10
163.768395
 20
142.231704
 30
0.0
 10
166.957806
 20
142.343045
 30
0.0
 10
168.830786
 20
142.533732
 30
0.0
 10
171.621654
 20
143.160169
 30
0.0
 10
175.628879
 20
144.108061
 30
0.0
 10
181.440147
 20
144.846352
 30
0.0
 10
186.898625
 20
145.204985
 30
0.0
 10
191.901210
 20
145.556008
 30
0.0
 10
197.473415
 20
145.121116
 30
0.0
 10
202.454282
 20
144.580232
 30
0.0
 10
206.706387
 20
144.076956
 30
0.0
 10
208.683643
 20
143.703942
 30
0.0
 10
210.660798
 20
143.166470
 30
0.0
 10
212.405467
 20
142.423732
 30
0.0
 10
214.461021
 20
142.591022
 30
0.0
 10
215.469806
 20
143.697558
 30
0.0
 10
216.507175
 20
144.449724
 30
0.0
 10
217.446729
 20
144.909049
 30
0.0
 10
218.594111
 20
145.311777
 30
0.0
 10
219.887788
 20
145.670087
 30
0.0
 10
221.542818
 20
145.775627
 30
0.0
 10
223.927552
 20
145.673071
 30
0.0
 10
227.004493
 20
145.406770
 30
0.0
 10
230.077991
 20
144.797695
 30
0.0
 10
232.274815
 20
144.366438
 30
0.0
 10
233.347023
 20
143.591457
 30
0.0
 10
233.928154
 20
143.012528
 30
0.0
 10
234.507805
 20
142.259479
 30
0.0
 10
235.055528
 20
141.473628
 30
0.0
 10
235.302860
 20
140.410802
 30
0.0
 10
235.200091
 20
138.535177
 30
0.0
 10
234.559978
 20
135.792916
 30
0.0
 10
232.411642
 20
132.898892
 30
0.0
 10
229.776662
 20
131.295030
 30
0.0
 10
227.908077
 20
130.715769
 30
0.0
 10
226.812280
 20
129.936453
 30
0.0
 10
227.156081
 20
129.180085
 30
0.0
 10
227.532010
 20
128.772839
 30
0.0
 10
227.912226
 20
128.497875
 30
0.0
 10
228.328338
 20
128.334810
 30
0.0
 10
228.728261
 20
128.259043
 30
0.0
 10
229.066979
 20
128.178687
 30
0.0
 10
229.657765
 20
127.984449
 30
0.0
 10
230.767815
 20
128.319516
 30
0.0
 10
232.022423
 20
129.346124
 30
0.0
 10
233.008510
 20
130.871732
 30
0.0
 10
234.041377
 20
132.485596
 30
0.0
 10
235.360105
 20
133.791653
 30
0.0
 10
236.843947
 20
135.015201
 30
0.0
 10
238.892651
 20
135.500125
 30
0.0
 10
241.196931
 20
135.801419
 30
0.0
 10
244.242067
 20
135.897667
 30
0.0
 10
247.680156
 20
135.024658
 30
0.0
 10
251.021955
 20
133.062584
 30
0.0
 10
252.922211
 20
130.806853
 30
0.0
 10
253.699664
 20
129.064799
 30
0.0
 10
253.923467
 20
127.923648
 30
0.0
 10
253.907478
 20
126.805564
 30
0.0
 10
253.871491
 20
125.741885
 30
0.0
 10
253.850998
 20
124.939580
 30
0.0
 10
253.766167
 20
124.387646
 30
0.0
 10
253.773478
 20
123.969040
 30
0.0
 10
254.051400
 20
123.643649
 30
0.0
 10
254.477063
 20
123.359178
 30
0.0
 10
255.050717
 20
123.077480
 30
0.0
 10
255.892508
 20
123.049438
 30
0.0
 10
257.230803
 20
123.269307
 30
0.0
 10
259.046041
 20
123.422574
 30
0.0
 10
261.160039
 20
123.160461
 30
0.0
 10
263.172765
 20
122.410388
 30
0.0
 10
265.060824
 20
121.243507
 30
0.0
 10
266.776162
 20
119.916531
 30
0.0
 10
268.421152
 20
118.211557
 30
0.0
 10
269.437779
 20
115.848734
 30
0.0
 10
269.969351
 20
113.150980
 30
0.0
 10
269.625648
 20
111.159201
 30
0.0
 10
269.205895
 20
109.953772
 30
0.0
 10
269.102237
 20
109.277910
 30
0.0
 10
269.102829
 20
108.814966
 30
0.0
 10
269.103110
 20
108.594521
 30
0.0
 11
132.539489
 21
83.024854
 31
0.0
 11
131.045370
 21
83.199677
 31
0.0
 11
129.614277
 21
83.426202
 31
0.0
 11
128.556036
 21
83.655383
 31
0.0
 11
127.591065
 21
83.851904
 31
0.0
 11
126.404495
 21
83.992806
 31
0.0
 11
125.253213
 21
84.047583
 31
0.0
 11
123.926764
 21
83.992994
 31
0.0
 11
122.880082
 21
83.763557
 31
0.0
 11
121.696327
 21
83.267903
 31
0.0
 11
120.615347
 21
82.807147
 31
0.0
 11
119.814851
 21
82.611869
 31
0.0
 11
119.101211
 21
82.634834
 31
0.0
 11
118.466723
 21
82.667104
 31
0.0
 11
117.792807
 21
82.576564
 31
0.0
 11
117.117238
 21
82.368246
 31
0.0
 11
115.433804
 21
82.061014
 31
0.0
 11
113.566216
 21
82.174984
 31
0.0
 11
112.286166
 21
82.663063
 31
0.0
 11
110.833486
 21
83.090155
 31
0.0
 11
108.519696
 21
82.938411
 31
0.0
 11
105.988083
 21
82.250019
 31
0.0
 11
104.601366
 21
81.763160
 31
0.0
 11
103.545479
 21
81.594064
 31
0.0
 11
102.260021
 21
81.652984
 31
0.0
 11
101.023523
 21
81.709681
 31
0.0
 11
99.996751
 21
81.589822
 31
0.0
 11
98.830167
 21
81.252603
 31
0.0
 11
97.588330
 21
80.900305
 31
0.0
 11
96.341046
 21
80.777894
 31
0.0
 11
94.511553
 21
80.828767
 31
0.0
 11
92.448063
 21
80.866096
 31
0.0
 11
90.379580
 21
80.563114
 31
0.0
 11
86.762621
 21
79.693739
 31
0.0
 11
83.959456
 21
79.007413
 31
0.0
 11
81.495042
 21
78.430733
 31
0.0
 11
79.902912
 21
78.088549
 31
0.0
 11
78.815615
 21
77.850440
 31
0.0
 11
77.674682
 21
77.546609
 31
0.0
 11
76.727120
 21
77.242832
 31
0.0
 11
74.100689
 21
76.463994
 31
0.0
 11
71.539182
 21
76.068645
 31
0.0
 11
69.105221
 21
76.066450
 31
0.0
 11
67.524668
 21
76.153977
 31
0.0
 11
65.456940
 21
76.208833
 31
0.0
 11
63.349689
 21
76.219141
 31
0.0
 11
60.962024
 21
76.262924
 31
0.0
 11
58.420512
 21
76.421210
 31
0.0
 11
55.944335
 21
76.680347
 31
0.0
 11
53.298629
 21
77.071069
 31
0.0
 11
51.458260
 21
77.533981
 31
0.0
 11
49.504829
 21
78.300089
 31
0.0
 11
45.731008
 21
80.094455
 31
0.0
 11
42.556850
 21
82.038254
 31
0.0
 11
39.492127
 21
84.431694
 31
0.0
 11
36.940366
 21
86.750871
 31
0.0
 11
35.336937
 21
88.806088
 31
0.0
 11
33.688135
 21
91.871039
 31
0.0
 11
31.673835
 21
96.929608
 31
0.0
 11
30.845680
 21
101.985859
 31
0.0
 11
31.101057
 21
107.666276
 31
0.0
 11
31.568328
 21
111.035399
 31
0.0
 11
32.038505
 21
113.232036
 31
0.0
 11
32.658352
 21
114.941849
 31
0.0
 11
34.236020
 21
117.661335
 31
0.0
 11
36.663571
 21
121.075481
 31
0.0
 11
39.063481
 21
123.950123
 31
0.0
 11
41.089560
 21
125.810654
 31
0.0
 11
43.274817
 21
127.498679
 31
0.0
 11
44.610010
 21
128.234598
 31
0.0
 11
45.323745
 21
128.530578
 31
0.0
 11
47.005540
 21
129.306526
 31
0.0
 11
49.291297
 21
130.394453
 31
0.0
 11
54.063571
 21
132.439360
 31
0.0
 11
58.647467
 21
133.814907
 31
0.0
 11
63.632306
 21
134.697941
 31
0.0
 11
68.825669
 21
135.024175
 31
0.0
 11
75.260400
 21
135.068219
 31
0.0
 11
79.902912
 21
134.809306
 31
0.0
 11
85.422773
 21
134.579006
 31
0.0
 11
93.717464
 21
134.590073
 31
0.0
 11
99.338754
 21
134.835236
 31
0.0
 11
101.232860
 21
135.071288
 31
0.0
 11
104.459424
 21
135.358658
 31
0.0
 11
110.681534
 21
135.845465
 31
0.0
 11
114.776057
 21
136.308850
 31
0.0
 11
119.496821
 21
137.192871
 31
0.0
 11
125.864041
 21
138.688577
 31
0.0
 11
129.442957
 21
139.525116
 31
0.0
 11
132.452007
 21
140.128874
 31
0.0
 11
134.629226
 21
140.447292
 31
0.0
 11
136.455211
 21
140.626467
 31
0.0
 11
138.654542
 21
140.851606
 31
0.0
 11
140.751074
 21
141.073968
 31
0.0
 11
142.896497
 21
141.262481
 31
0.0
 11
145.223999
 21
141.398881
 31
0.0
 11
147.229688
 21
141.453637
 31
0.0
 11
149.130929
 21
141.494905
 31
0.0
 11
151.184608
 21
141.595928
 31
0.0
 11
152.946114
 21
141.734839
 31
0.0
 11
155.681976
 21
141.958633
 31
0.0
 11
159.326487
 21
142.123139
 31
0.0
 11
164.887088
 21
142.273829
 31
0.0
 11
167.089029
 21
142.374551
 31
0.0
 11
168.884951
 21
142.577241
 31
0.0
 11
170.476483
 21
142.904654
 31
0.0
 11
175.502700
 21
143.988781
 31
0.0
 11
181.033645
 21
144.743470
 31
0.0
 11
187.830588
 21
145.272596
 31
0.0
 11
191.849289
 21
145.454971
 31
0.0
 11
196.020848
 21
145.220593
 31
0.0
 11
204.507282
 21
144.335622
 31
0.0
 11
206.819889
 21
144.034428
 31
0.0
 11
208.761579
 21
143.660931
 31
0.0
 11
210.418034
 21
143.198649
 31
0.0
 11
212.775175
 21
142.540209
 31
0.0
 11
214.231120
 21
142.725431
 31
0.0
 11
215.752174
 21
143.877247
 31
0.0
 11
216.477692
 21
144.399131
 31
0.0
 11
217.417297
 21
144.873075
 31
0.0
 11
218.518570
 21
145.272638
 31
0.0
 11
219.900810
 21
145.622622
 31
0.0
 11
221.307014
 21
145.740515
 31
0.0
 11
223.420379
 21
145.683600
 31
0.0
 11
227.043369
 21
145.335989
 31
0.0
 11
230.459530
 21
144.723375
 31
0.0
 11
232.721994
 21
144.015558
 31
0.0
 11
233.286342
 21
143.615519
 31
0.0
 11
233.911075
 21
143.002786
 31
0.0
 11
234.460941
 21
142.310011
 31
0.0
 11
235.030856
 21
141.373204
 31
0.0
 11
235.238411
 21
140.545924
 31
0.0
 11
235.221002
 21
139.280540
 31
0.0
 11
234.342366
 21
135.900573
 31
0.0
 11
232.254758
 21
133.071407
 31
0.0
 11
229.247184
 21
131.184708
 31
0.0
 11
227.597175
 21
130.461730
 31
0.0
 11
227.002408
 21
129.854660
 31
0.0
 11
227.232792
 21
129.128647
 31
0.0
 11
227.536813
 21
128.789415
 31
0.0
 11
227.935527
 21
128.507658
 31
0.0
 11
228.342616
 21
128.344377
 31
0.0
 11
228.736743
 21
128.254193
 31
0.0
 11
229.101479
 21
128.164077
 31
0.0
 11
229.357859
 21
128.093538
 31
0.0
 11
230.546667
 21
128.319810
 31
0.0
 11
231.913884
 21
129.366291
 31
0.0
 11
233.025587
 21
130.900852
 31
0.0
 11
234.041746
 21
132.373038
 31
0.0
 11
235.466874
 21
133.848938
 31
0.0
 11
236.851248
 21
134.862810
 31
0.0
 11
238.672949
 21
135.419821
 31
0.0
 11
241.211878
 21
135.760633
 31
0.0
 11
243.753024
 21
135.789267
 31
0.0
 11
247.620549
 21
134.845307
 31
0.0
 11
250.988574
 21
132.808453
 31
0.0
 11
253.226520
 21
130.060057
 31
0.0
 11
253.675338
 21
129.006378
 31
0.0
 11
253.873186
 21
128.024478
 31
0.0
 11
253.901337
 21
126.711011
 31
0.0
 11
253.871122
 21
125.685122
 31
0.0
 11
253.825483
 21
124.826328
 31
0.0
 11
253.774305
 21
124.320553
 31
0.0
 11
253.806028
 21
124.000509
 31
0.0
 11
254.028117
 21
123.693153
 31
0.0
 11
254.444405
 21
123.393184
 31
0.0
 11
255.046115
 21
123.128935
 31
0.0
 11
255.751442
 21
123.071969
 31
0.0
 11
256.858008
 21
123.198244
 31
0.0
 11
259.109072
 21
123.346009
 31
0.0
 11
261.157958
 21
123.078789
 31
0.0
 11
263.050063
 21
122.390661
 31
0.0
 11
265.039292
 21
121.209252
 31
0.0
 11
266.848286
 21
119.782887
 31
0.0
 11
268.122247
 21
118.391325
 31
0.0
 11
269.339884
 21
115.820752
 31
0.0
 11
269.806904
 21
113.016080
 31
0.0
 11
269.420690
 21
110.593491
 31
0.0
 11
269.232515
 21
109.973517
 31
0.0
 11
269.118424
 21
109.255370
 31
0.0
 11
269.103110
 21
108.594521
 31
0.0
  0
LINE
  5
106
100
AcDbEntity
  8
0
 62
7
100
AcDbLine
 10
211.604251
 20
55.725759
 30
0.0
 11
211.604251
 21
55.725778
 31
0.0
  0
SPLINE
  5
107
100
AcDbEntity
  8
0
 62
7
100
AcDbSpline
 70
0
 71
3
 72
61
 73
57
 74
55
 40
0.000000
 40
0.000000
 40
0.000000
 40
0.000000
 40
2.064287
 40
3.733806
 40
5.697842
 40
6.912320
 40
8.127711
 40
9.452185
 40
14.170713
 40
18.010273
 40
22.174773
 40
23.283626
 40
24.102957
 40
24.459933
 40
25.120489
 40
26.379141
 40
27.831223
 40
30.587369
 40
33.241876
 40
35.422152
 40
40.116783
 40
44.530800
 40
49.510671
 40
52.120463
 40
54.923695
 40
57.799452
 40
59.250229
 40
60.848742
 40
62.248932
 40
66.550375
 40
70.698853
 40
74.753653
 40
76.698140
 40
78.252864
 40
80.376700
 40
83.362395
 40
85.588728
 40
88.090827
 40
90.299942
 40
91.929818
 40
93.526526
 40
94.880930
 40
96.837123
 40
99.292692
 40
99.779084
 40
100.569152
 40
101.764838
 40
103.552465
 40
105.049144
 40
106.758010
 40
107.750948
 40
109.244718
 40
110.916562
 40
117.610658
 40
123.395798
 40
126.135217
 40
126.135217
 40
126.135217
 40
126.135217
 10
271.212581
 20
107.383740
 30
0.0
 10
271.901545
 20
107.325121
 30
0.0
 10
273.147719
 20
107.219094
 30
0.0
 10
274.933525
 20
106.482831
 30
0.0
 10
276.188844
 20
105.444221
 30
0.0
 10
277.233580
 20
104.415799
 30
0.0
 10
277.972189
 20
103.396765
 30
0.0
 10
279.101490
 20
101.258983
 30
0.0
 10
280.247168
 20
98.077893
 30
0.0
 10
279.514577
 20
93.641279
 30
0.0
 10
277.248864
 20
91.445093
 30
0.0
 10
275.565480
 20
90.248147
 30
0.0
 10
275.035508
 20
89.781258
 30
0.0
 10
274.463848
 20
89.330466
 30
0.0
 10
275.284000
 20
88.674727
 30
0.0
 10
275.978931
 20
88.003039
 30
0.0
 10
277.573365
 20
86.974495
 30
0.0
 10
279.438375
 20
85.708975
 30
0.0
 10
281.348051
 20
84.018245
 30
0.0
 10
283.407707
 20
81.592196
 30
0.0
 10
284.923439
 20
77.995881
 30
0.0
 10
284.666310
 20
73.154309
 30
0.0
 10
282.721651
 20
69.539543
 30
0.0
 10
280.496705
 20
66.883696
 30
0.0
 10
278.479417
 20
64.983207
 30
0.0
 10
276.567605
 20
63.565269
 30
0.0
 10
274.920930
 20
62.475015
 30
0.0
 10
273.692869
 20
61.643156
 30
0.0
 10
271.692539
 20
60.258058
 30
0.0
 10
268.861140
 20
58.574761
 30
0.0
 10
264.955209
 20
57.050115
 30
0.0
 10
261.620996
 20
56.415628
 30
0.0
 10
259.113512
 20
56.141995
 30
0.0
 10
257.233397
 20
56.228230
 30
0.0
 10
255.052136
 20
56.663544
 30
0.0
 10
252.646055
 20
57.107361
 30
0.0
 10
250.203900
 20
57.961455
 30
0.0
 10
248.215061
 20
59.156623
 30
0.0
 10
246.400278
 20
60.234514
 30
0.0
 10
244.681322
 20
60.885586
 30
0.0
 10
243.142170
 20
60.923992
 30
0.0
 10
241.513841
 20
61.054495
 30
0.0
 10
239.606769
 20
61.305991
 30
0.0
 10
238.042491
 20
61.905517
 30
0.0
 10
236.780036
 20
61.801891
 30
0.0
 10
236.064583
 20
61.350580
 30
0.0
 10
235.054950
 20
60.618743
 30
0.0
 10
233.854223
 20
59.716084
 30
0.0
 10
232.311900
 20
59.043208
 30
0.0
 10
230.922808
 20
58.826190
 30
0.0
 10
229.548446
 20
58.572432
 30
0.0
 10
228.193748
 20
58.276268
 30
0.0
 10
224.996850
 20
57.511233
 30
0.0
 10
220.375261
 20
56.612808
 30
0.0
 10
215.364410
 20
55.630185
 30
0.0
 10
212.518728
 20
55.702515
 30
0.0
 10
211.604251
 20
55.725759
 30
0.0
 11
271.212581
 21
107.383740
 31
0.0
 11
273.256265
 21
107.092819
 31
0.0
 11
274.799423
 21
106.455672
 31
0.0
 11
276.357245
 21
105.259583
 31
0.0
 11
277.208454
 21
104.393328
 31
0.0
 11
277.926796
 21
103.412940
 31
0.0
 11
278.561912
 21
102.250675
 31
0.0
 11
279.897664
 21
97.725162
 31
0.0
 11
279.181413
 21
93.952999
 31
0.0
 11
276.398149
 21
90.855177
 31
0.0
 11
275.513784
 21
90.186258
 31
0.0
 11
274.883026
 21
89.663337
 31
0.0
 11
274.642427
 21
89.399625
 31
0.0
 11
275.033440
 21
88.867230
 31
0.0
 11
275.989039
 21
88.048063
 31
0.0
 11
277.183062
 21
87.221715
 31
0.0
 11
279.437656
 21
85.636424
 31
0.0
 11
281.415708
 21
83.866193
 31
0.0
 11
282.807654
 21
82.188072
 31
0.0
 11
284.592079
 21
77.845793
 31
0.0
 11
284.378482
 21
73.436947
 31
0.0
 11
282.167521
 21
68.974799
 31
0.0
 11
280.501260
 21
66.966171
 31
0.0
 11
278.462794
 21
65.041913
 31
0.0
 11
276.166824
 21
63.310294
 31
0.0
 11
274.963312
 21
62.500164
 31
0.0
 11
273.639826
 21
61.603710
 31
0.0
 11
272.482898
 21
60.815009
 31
0.0
 11
268.762630
 21
58.655838
 31
0.0
 11
264.891941
 21
57.163311
 31
0.0
 11
260.918370
 21
56.355761
 31
0.0
 11
258.981521
 21
56.183588
 31
0.0
 11
257.428318
 21
56.252347
 31
0.0
 11
255.333627
 21
56.602990
 31
0.0
 11
252.416502
 21
57.239193
 31
0.0
 11
250.322550
 21
57.995450
 31
0.0
 11
248.131711
 21
59.204054
 31
0.0
 11
246.196315
 21
60.269151
 31
0.0
 11
244.654571
 21
60.797847
 31
0.0
 11
243.064361
 21
60.941755
 31
0.0
 11
241.714125
 21
61.047923
 31
0.0
 11
239.781796
 21
61.352545
 31
0.0
 11
237.374845
 21
61.838764
 31
0.0
 11
236.891820
 21
61.781634
 31
0.0
 11
236.188836
 21
61.421049
 31
0.0
 11
235.213117
 21
60.729935
 31
0.0
 11
233.736480
 21
59.722387
 31
0.0
 11
232.362089
 21
59.129852
 31
0.0
 11
230.689486
 21
58.779680
 31
0.0
 11
229.713225
 21
58.598467
 31
0.0
 11
228.252831
 21
58.284457
 31
0.0
 11
226.624472
 21
57.905632
 31
0.0
 11
220.068825
 21
56.551226
 31
0.0
 11
214.343664
 21
55.720337
 31
0.0
 11
211.604251
 21
55.725759
 31
0.0
  0
LINE
  5
108
100
AcDbEntity
  8
0
 62
7
100
AcDbLine
 10
211.843627
 20
99.794456
 30
0.0
 11
211.925484
 21
107.285387
 31
0.0
  0
LINE
  5
109
100
AcDbEntity
  8
0
 62
7
100
AcDbLine
 10
211.925484
 20
107.285387
 30
0.0
 11
211.192707
 21
108.074073
 31
0.0
  0
SPLINE
  5
10a
100
AcDbEntity
  8
0
 62
7
100
AcDbSpline
 70
0
 71
3
 72
76
 73
72
 74
70
 40
0.000000
 40
0.000000
 40
0.000000
 40
0.000000
 40
0.807623
 40
1.728836
 40
2.866140
 40
5.688722
 40
8.284674
 40
12.218507
 40
15.534175
 40
17.610808
 40
19.793657
 40
21.634462
 40
23.685113
 40
25.502726
 40
27.574520
 40
29.027886
 40
31.084092
 40
34.771514
 40
37.817682
 40
40.714011
 40
42.270077
 40
43.991612
 40
45.506785
 40
47.197851
 40
49.379624
 40
51.579761
 40
53.612723
 40
55.358903
 40
56.446274
 40
57.786928
 40
58.911602
 40
59.500360
 40
59.784875
 40
60.368407
 40
61.135246
 40
63.470402
 40
64.697501
 40
65.755762
 40
68.099541
 40
71.180118
 40
73.406042
 40
74.077526
 40
74.754459
 40
75.555900
 40
78.478509
 40
80.576358
 40
82.409752
 40
83.496515
 40
84.359238
 40
84.818345
 40
86.596816
 40
89.341466
 40
92.335351
 40
94.379472
 40
95.721611
 40
97.023557
 40
97.977301
 40
98.947022
 40
100.239434
 40
101.615838
 40
102.341290
 40
103.108498
 40
104.149771
 40
105.163368
 40
106.876190
 40
108.702808
 40
110.065981
 40
111.323341
 40
112.270425
 40
114.434702
 40
119.724581
 40
119.724581
 40
119.724581
 40
119.724581
 10
232.545138
 20
70.338596
 30
0.0
 10
232.756174
 20
70.507707
 30
0.0
 10
233.207926
 20
70.869713
 30
0.0
 10
233.753812
 20
71.668220
 30
0.0
 10
234.460926
 20
73.130713
 30
0.0
 10
235.334667
 20
75.151749
 30
0.0
 10
235.802570
 20
78.258306
 30
0.0
 10
235.774792
 20
81.542590
 30
0.0
 10
235.762751
 20
84.650345
 30
0.0
 10
235.967865
 20
87.175399
 30
0.0
 10
236.480484
 20
89.148985
 30
0.0
 10
237.026939
 20
91.097374
 30
0.0
 10
237.591515
 20
92.915641
 30
0.0
 10
238.206702
 20
94.796366
 30
0.0
 10
238.864260
 20
96.459266
 30
0.0
 10
239.134332
 20
98.315337
 30
0.0
 10
238.966854
 20
100.715339
 30
0.0
 10
238.755650
 20
103.639832
 30
0.0
 10
237.910250
 20
106.767892
 30
0.0
 10
236.682552
 20
108.967194
 30
0.0
 10
235.478670
 20
110.635582
 30
0.0
 10
234.534412
 20
111.924565
 30
0.0
 10
233.525542
 20
113.221054
 30
0.0
 10
232.390999
 20
114.613404
 30
0.0
 10
231.119119
 20
116.188191
 30
0.0
 10
229.781881
 20
117.857041
 30
0.0
 10
228.502827
 20
119.385074
 30
0.0
 10
227.400738
 20
120.579625
 30
0.0
 10
226.413087
 20
121.552108
 30
0.0
 10
225.305424
 20
122.136523
 30
0.0
 10
224.515023
 20
122.472808
 30
0.0
 10
223.596043
 20
122.710270
 30
0.0
 10
223.597515
 20
122.133866
 30
0.0
 10
223.657127
 20
121.629593
 30
0.0
 10
223.899003
 20
120.397251
 30
0.0
 10
224.238708
 20
119.043859
 30
0.0
 10
224.358924
 20
117.407159
 30
0.0
 10
223.306131
 20
116.191085
 30
0.0
 10
222.299654
 20
114.288191
 30
0.0
 10
221.398278
 20
111.917717
 30
0.0
 10
220.704683
 20
109.990663
 30
0.0
 10
220.826496
 20
108.789482
 30
0.0
 10
221.097765
 20
108.116382
 30
0.0
 10
221.968478
 20
106.929162
 30
0.0
 10
223.188596
 20
105.423664
 30
0.0
 10
224.573692
 20
103.605877
 30
0.0
 10
225.537943
 20
102.237224
 30
0.0
 10
226.295657
 20
101.233057
 30
0.0
 10
226.786867
 20
100.589345
 30
0.0
 10
227.602482
 20
99.950856
 30
0.0
 10
228.566225
 20
98.505037
 30
0.0
 10
228.681384
 20
95.921380
 30
0.0
 10
228.301659
 20
93.348817
 30
0.0
 10
227.568532
 20
91.349039
 30
0.0
 10
226.658954
 20
90.007754
 30
0.0
 10
225.502942
 20
89.551402
 30
0.0
 10
224.459082
 20
89.301199
 30
0.0
 10
223.379796
 20
89.279785
 30
0.0
 10
222.171080
 20
89.418959
 30
0.0
 10
221.067435
 20
89.615080
 30
0.0
 10
220.069105
 20
89.543802
 30
0.0
 10
219.431444
 20
88.956785
 30
0.0
 10
218.656513
 20
88.356768
 30
0.0
 10
217.330635
 20
88.460040
 30
0.0
 10
215.943796
 20
89.052167
 30
0.0
 10
214.422627
 20
89.666799
 30
0.0
 10
213.172814
 20
90.484810
 30
0.0
 10
212.356931
 20
91.369976
 30
0.0
 10
211.708367
 20
92.706054
 30
0.0
 10
211.893253
 20
95.582133
 30
0.0
 10
211.864226
 20
98.045977
 30
0.0
 10
211.843627
 20
99.794456
 30
0.0
 11
232.545138
 21
70.338596
 31
0.0
 11
233.151516
 21
70.872038
 31
0.0
 11
233.693860
 21
71.616685
 31
0.0
 11
234.212998
 21
72.628592
 31
0.0
 11
235.242473
 21
75.256737
 31
0.0
 11
235.681090
 21
77.815366
 31
0.0
 11
235.776315
 21
81.748046
 31
0.0
 11
235.818988
 21
85.063439
 31
0.0
 11
236.022651
 21
87.130062
 31
0.0
 11
236.516249
 21
89.256371
 31
0.0
 11
237.015836
 21
91.028086
 31
0.0
 11
237.619642
 21
92.987828
 31
0.0
 11
238.196948
 21
94.711323
 31
0.0
 11
238.849432
 21
96.677689
 31
0.0
 11
239.062033
 21
98.115420
 31
0.0
 11
239.004255
 21
100.170815
 31
0.0
 11
238.611491
 21
103.837260
 31
0.0
 11
237.778524
 21
106.767329
 31
0.0
 11
236.404203
 21
109.316831
 31
0.0
 11
235.509441
 21
110.589915
 31
0.0
 11
234.486691
 21
111.974713
 31
0.0
 11
233.557373
 21
113.171424
 31
0.0
 11
232.495164
 21
114.487257
 31
0.0
 11
231.124023
 21
116.184344
 31
0.0
 11
229.740793
 21
117.895274
 31
0.0
 11
228.427756
 21
119.447326
 31
0.0
 11
227.240626
 21
120.727899
 31
0.0
 11
226.436409
 21
121.459754
 31
0.0
 11
225.276711
 21
122.132399
 31
0.0
 11
224.227826
 21
122.538272
 31
0.0
 11
223.639081
 21
122.542199
 31
0.0
 11
223.600519
 21
122.260309
 31
0.0
 11
223.657798
 21
121.679595
 31
0.0
 11
223.798511
 21
120.925777
 31
0.0
 11
224.245365
 21
118.633775
 31
0.0
 11
224.196328
 21
117.407656
 31
0.0
 11
223.622250
 21
116.518639
 31
0.0
 11
222.451959
 21
114.487945
 31
0.0
 11
221.300795
 21
111.630537
 31
0.0
 11
220.781017
 21
109.466152
 31
0.0
 11
220.857107
 21
108.798993
 31
0.0
 11
221.104268
 21
108.168794
 31
0.0
 11
221.550838
 21
107.503300
 31
0.0
 11
223.348712
 21
105.199109
 31
0.0
 11
224.616017
 21
103.527311
 31
0.0
 11
225.690787
 21
102.041983
 31
0.0
 11
226.342737
 21
101.172491
 31
0.0
 11
226.902478
 21
100.515999
 31
0.0
 11
227.248828
 21
100.214635
 31
0.0
 11
228.254776
 21
98.747996
 31
0.0
 11
228.593406
 21
96.024316
 31
0.0
 11
228.137688
 21
93.065318
 31
0.0
 11
227.390256
 21
91.162748
 31
0.0
 11
226.564434
 21
90.104752
 31
0.0
 11
225.389313
 21
89.544259
 31
0.0
 11
224.458589
 21
89.335974
 31
0.0
 11
223.489514
 21
89.300602
 31
0.0
 11
222.203393
 21
89.427969
 31
0.0
 11
220.835215
 21
89.578220
 31
0.0
 11
220.117593
 21
89.471920
 31
0.0
 11
219.492943
 21
89.026475
 31
0.0
 11
218.608120
 21
88.477532
 31
0.0
 11
217.594525
 21
88.479552
 31
0.0
 11
215.973749
 21
89.033486
 31
0.0
 11
214.309416
 21
89.786167
 31
0.0
 11
213.180195
 21
90.549778
 31
0.0
 11
212.343515
 21
91.488351
 31
0.0
 11
211.938209
 21
92.344327
 31
0.0
 11
211.808192
 21
94.504696
 31
0.0
 11
211.843627
 21
99.794456
 31
0.0
  0
LINE
  5
10b
100
AcDbEntity
  8
0
 62
7
100
AcDbLine
 10
204.650384
 20
108.517329
 30
0.0
 11
203.468856
 21
107.336420
 31
0.0
  0
LINE
  5
10c
100
AcDbEntity
  8
0
 62
7
100
AcDbLine
 10
203.468856
 20
107.336420
 30
0.0
 11
201.664154
 21
107.389090
 31
0.0
  0
SPLINE
  5
10d
100
AcDbEntity
  8
0
 62
7
100
AcDbSpline
 70
0
 71
3
 72
13
 73
9
 74
7
 40
0.000000
 40
0.000000
 40
0.000000
 40
0.000000
 40
1.672290
 40
3.690498
 40
5.167455
 40
5.690480
 40
6.490576
 40
7.406175
 40
7.406175
 40
7.406175
 40
7.406175
 10
211.192707
 20
108.074073
 30
0.0
 10
210.736825
 20
108.405729
 30
0.0
 10
209.730760
 20
109.137647
 30
0.0
 10
208.117373
 20
109.638965
 30
0.0
 10
206.710497
 20
110.050931
 30
0.0
 10
205.880443
 20
109.569915
 30
0.0
 10
205.290009
 20
109.120239
 30
0.0
 10
204.872952
 20
108.727121
 30
0.0
 10
204.650384
 20
108.517329
 30
0.0
 11
211.192707
 21
108.074073
 31
0.0
 11
209.795044
 21
108.992272
 31
0.0
 11
207.904209
 21
109.697896
 31
0.0
 11
206.435057
 21
109.849538
 31
0.0
 11
205.969339
 21
109.611500
 31
0.0
 11
205.328178
 21
109.132892
 31
0.0
 11
204.650384
 21
108.517329
 31
0.0
  0
LINE
  5
10e
100
AcDbEntity
  8
0
 62
7
100
AcDbLine
 10
196.857024
 20
109.864717
 30
0.0
 11
194.898734
 21
111.729167
 31
0.0
  0
LINE
  5
10f
100
AcDbEntity
  8
0
 62
7
100
AcDbLine
 10
194.898734
 20
111.729167
 30
0.0
 11
192.868287
 21
111.729167
 31
0.0
  0
SPLINE
  5
110
100
AcDbEntity
  8
0
 62
7
100
AcDbSpline
 70
0
 71
3
 72
13
 73
9
 74
7
 40
0.000000
 40
0.000000
 40
0.000000
 40
0.000000
 40
0.982718
 40
1.827095
 40
2.358370
 40
3.021130
 40
4.198910
 40
5.639237
 40
5.639237
 40
5.639237
 40
5.639237
 10
201.664154
 20
107.389090
 30
0.0
 10
201.336364
 20
107.405493
 30
0.0
 10
200.726927
 20
107.435989
 30
0.0
 10
199.952737
 20
107.544909
 30
0.0
 10
199.274560
 20
107.693190
 30
0.0
 10
198.676869
 20
108.240885
 30
0.0
 10
197.841871
 20
108.932744
 30
0.0
 10
197.206543
 20
109.533963
 30
0.0
 10
196.857024
 20
109.864717
 30
0.0
 11
201.664154
 21
107.389090
 31
0.0
 11
200.683575
 21
107.453887
 31
0.0
 11
199.847660
 21
107.573134
 31
0.0
 11
199.337381
 21
107.721015
 31
0.0
 11
198.806055
 21
108.117174
 31
0.0
 11
197.914963
 21
108.887320
 31
0.0
 11
196.857024
 21
109.864717
 31
0.0
  0
LINE
  5
111
100
AcDbEntity
  8
0
 62
7
100
AcDbLine
 10
184.059829
 20
111.729167
 30
0.0
 11
183.284793
 21
113.125784
 31
0.0
  0
LINE
  5
112
100
AcDbEntity
  8
0
 62
7
100
AcDbLine
 10
183.284793
 20
113.125784
 30
0.0
 11
181.390262
 21
113.166249
 31
0.0
  0
SPLINE
  5
113
100
AcDbEntity
  8
0
 62
7
100
AcDbSpline
 70
0
 71
3
 72
16
 73
12
 74
10
 40
0.000000
 40
0.000000
 40
0.000000
 40
0.000000
 40
1.650061
 40
2.625220
 40
3.338643
 40
3.853452
 40
4.576208
 40
5.668581
 40
7.279877
 40
8.830128
 40
10.693083
 40
10.693083
 40
10.693083
 40
10.693083
 10
192.868287
 20
111.729167
 30
0.0
 10
192.335819
 20
111.718181
 30
0.0
 10
191.488672
 20
111.700701
 30
0.0
 10
190.253741
 20
111.428522
 30
0.0
 10
190.062369
 20
110.660918
 30
0.0
 10
189.865790
 20
110.017558
 30
0.0
 10
189.087336
 20
109.684814
 30
0.0
 10
188.013534
 20
109.398812
 30
0.0
 10
186.535223
 20
109.350889
 30
0.0
 10
185.009644
 20
110.225880
 30
0.0
 10
184.395198
 20
111.198373
 30
0.0
 10
184.059829
 20
111.729167
 30
0.0
 11
192.868287
 21
111.729167
 31
0.0
 11
191.221938
 21
111.618562
 31
0.0
 11
190.316322
 21
111.256906
 31
0.0
 11
190.039357
 21
110.599439
 31
0.0
 11
189.836770
 21
110.126166
 31
0.0
 11
189.216792
 21
109.754678
 31
0.0
 11
188.161095
 21
109.473994
 31
0.0
 11
186.550051
 21
109.502461
 31
0.0
 11
185.191623
 21
110.249423
 31
0.0
 11
184.059829
 21
111.729167
 31
0.0
  0
LINE
  5
114
100
AcDbEntity
  8
0
 62
7
100
AcDbLine
 10
66.805568
 20
126.876304
 30
0.0
 11
61.584188
 21
126.819935
 31
0.0
  0
LINE
  5
115
100
AcDbEntity
  8
0
 62
7
100
AcDbLine
 10
61.584188
 20
126.819935
 30
0.0
 11
58.384259
 21
125.215882
 31
0.0
  0
SPLINE
  5
116
100
AcDbEntity
  8
0
 62
7
100
AcDbSpline
 70
0
 71
3
 72
106
 73
102
 74
100
 40
0.000000
 40
0.000000
 40
0.000000
 40
0.000000
 40
0.998520
 40
1.794722
 40
2.216275
 40
2.788360
 40
4.029630
 40
5.677297
 40
8.361795
 40
9.764823
 40
11.284127
 40
12.037448
 40
12.566871
 40
13.150509
 40
13.626235
 40
14.072452
 40
14.417542
 40
14.846611
 40
15.485920
 40
16.201102
 40
17.124780
 40
17.658925
 40
18.513074
 40
19.318959
 40
20.294250
 40
21.230243
 40
22.046969
 40
22.708311
 40
23.072937
 40
24.464948
 40
26.725460
 40
28.380731
 40
28.886415
 40
29.448915
 40
29.951905
 40
30.526003
 40
31.070333
 40
31.934961
 40
33.089573
 40
34.878763
 40
37.248985
 40
39.436828
 40
41.261315
 40
42.330953
 40
44.799066
 40
51.112956
 40
62.243951
 40
63.062726
 40
63.936865
 40
64.681487
 40
65.710738
 40
67.338048
 40
69.215730
 40
73.946420
 40
77.977316
 40
81.168163
 40
82.442628
 40
83.718043
 40
84.724829
 40
88.251662
 40
92.666040
 40
96.262062
 40
98.215367
 40
99.621559
 40
101.335941
 40
103.710013
 40
105.246770
 40
106.613233
 40
108.485641
 40
109.205631
 40
109.633219
 40
110.019376
 40
110.532933
 40
111.074189
 40
111.781809
 40
112.558180
 40
113.869529
 40
116.019174
 40
117.658089
 40
118.992611
 40
119.544217
 40
120.059684
 40
120.437231
 40
121.482496
 40
123.136862
 40
124.990527
 40
125.978076
 40
126.814645
 40
127.986265
 40
129.126342
 40
130.286991
 40
131.507695
 40
132.561988
 40
133.534952
 40
134.223503
 40
134.936953
 40
135.968169
 40
137.097398
 40
138.734512
 40
140.832081
 40
144.300028
 40
144.300028
 40
144.300028
 40
144.300028
 10
181.390262
 20
113.166249
 30
0.0
 10
181.056315
 20
113.170176
 30
0.0
 10
180.456084
 20
113.177234
 30
0.0
 10
179.729227
 20
113.232842
 30
0.0
 10
179.107117
 20
113.175807
 30
0.0
 10
178.524022
 20
113.718496
 30
0.0
 10
177.656305
 20
114.430993
 30
0.0
 10
176.328969
 20
115.764005
 30
0.0
 10
174.916411
 20
116.992795
 30
0.0
 10
174.020446
 20
118.857813
 30
0.0
 10
174.798333
 20
119.976706
 30
0.0
 10
175.312185
 20
120.738623
 30
0.0
 10
175.847376
 20
121.112362
 30
0.0
 10
176.392220
 20
121.114931
 30
0.0
 10
176.888834
 20
121.161701
 30
0.0
 10
177.302019
 20
121.284464
 30
0.0
 10
177.630332
 20
121.531778
 30
0.0
 10
177.961573
 20
121.867348
 30
0.0
 10
178.460105
 20
122.198416
 30
0.0
 10
179.084221
 20
122.621786
 30
0.0
 10
179.782169
 20
122.909652
 30
0.0
 10
180.170249
 20
123.637026
 30
0.0
 10
179.982143
 20
124.382561
 30
0.0
 10
179.850463
 20
125.240685
 30
0.0
 10
179.624556
 20
126.122492
 30
0.0
 10
179.361637
 20
126.992152
 30
0.0
 10
179.116618
 20
127.758265
 30
0.0
 10
178.935412
 20
128.346702
 30
0.0
 10
178.817174
 20
129.146044
 30
0.0
 10
178.257577
 20
130.384171
 30
0.0
 10
177.444842
 20
131.933949
 30
0.0
 10
176.764349
 20
133.273970
 30
0.0
 10
176.097726
 20
133.896183
 30
0.0
 10
175.684318
 20
134.219678
 30
0.0
 10
175.222370
 20
134.508010
 30
0.0
 10
174.721502
 20
134.746044
 30
0.0
 10
174.041194
 20
134.698065
 30
0.0
 10
173.247801
 20
134.375272
 30
0.0
 10
171.997173
 20
134.124791
 30
0.0
 10
170.236230
 20
133.935078
 30
0.0
 10
168.122985
 20
133.813495
 30
0.0
 10
166.001173
 20
133.674111
 30
0.0
 10
164.309294
 20
133.546491
 30
0.0
 10
162.552865
 20
133.203772
 30
0.0
 10
159.267099
 20
133.009198
 30
0.0
 10
152.634900
 20
132.890170
 30
0.0
 10
146.541435
 20
132.994237
 30
0.0
 10
142.271052
 20
132.800721
 30
0.0
 10
141.462360
 20
132.704513
 30
0.0
 10
140.603352
 20
132.498227
 30
0.0
 10
139.480385
 20
132.332029
 30
0.0
 10
137.971374
 20
132.229180
 30
0.0
 10
135.227259
 20
132.156388
 30
0.0
 10
131.683459
 20
131.984739
 30
0.0
 10
127.732170
 20
131.344606
 30
0.0
 10
125.059171
 20
130.360208
 30
0.0
 10
123.349127
 20
129.501966
 30
0.0
 10
122.245044
 20
129.061468
 30
0.0
 10
120.376388
 20
128.551080
 30
0.0
 10
117.544418
 20
127.595764
 30
0.0
 10
114.071083
 20
125.931249
 30
0.0
 10
111.173410
 20
124.293398
 30
0.0
 10
109.377237
 20
122.796390
 30
0.0
 10
107.718840
 20
122.264783
 30
0.0
 10
105.873437
 20
122.503873
 30
0.0
 10
104.033444
 20
122.706356
 30
0.0
 10
102.205224
 20
122.453186
 30
0.0
 10
101.063951
 20
121.212977
 30
0.0
 10
100.375988
 20
120.248981
 30
0.0
 10
99.696368
 20
119.249873
 30
0.0
 10
99.151558
 20
119.472078
 30
0.0
 10
98.841249
 20
119.776788
 30
0.0
 10
98.544375
 20
120.162041
 30
0.0
 10
98.265411
 20
120.674429
 30
0.0
 10
97.939878
 20
121.289379
 30
0.0
 10
97.082182
 20
121.735056
 30
0.0
 10
95.743055
 20
122.149415
 30
0.0
 10
94.096636
 20
122.585067
 30
0.0
 10
92.357777
 20
122.697302
 30
0.0
 10
91.232934
 20
122.278442
 30
0.0
 10
90.540182
 20
121.875903
 30
0.0
 10
90.089689
 20
121.705537
 30
0.0
 10
89.447361
 20
121.559218
 30
0.0
 10
88.462173
 20
122.027579
 30
0.0
 10
87.131349
 20
122.692956
 30
0.0
 10
85.885545
 20
123.541493
 30
0.0
 10
84.904014
 20
124.292155
 30
0.0
 10
83.925832
 20
124.577109
 30
0.0
 10
82.872746
 20
124.570600
 30
0.0
 10
81.717192
 20
124.653388
 30
0.0
 10
80.562357
 20
124.887362
 30
0.0
 10
79.480210
 20
125.266295
 30
0.0
 10
78.458447
 20
125.622432
 30
0.0
 10
77.581922
 20
125.860023
 30
0.0
 10
76.794907
 20
125.956103
 30
0.0
 10
75.985415
 20
126.012414
 30
0.0
 10
75.042377
 20
126.192841
 30
0.0
 10
73.811257
 20
126.482110
 30
0.0
 10
72.222259
 20
126.826598
 30
0.0
 10
69.814439
 20
126.903332
 30
0.0
 10
67.960674
 20
126.886680
 30
0.0
 10
66.805568
 20
126.876304
 30
0.0
 11
181.390262
 21
113.166249
 31
0.0
 11
180.392019
 21
113.189784
 31
0.0
 11
179.596145
 21
113.212591
 31
0.0
 11
179.174940
 21
113.229730
 31
0.0
 11
178.700454
 21
113.549331
 31
0.0
 11
177.764890
 21
114.365096
 31
0.0
 11
176.570792
 21
115.500408
 31
0.0
 11
174.753290
 21
117.476064
 31
0.0
 11
174.289224
 21
118.800123
 31
0.0
 11
174.931749
 21
120.176874
 31
0.0
 11
175.398976
 21
120.767799
 31
0.0
 11
175.845976
 21
121.051487
 31
0.0
 11
176.425020
 21
121.124575
 31
0.0
 11
176.897648
 21
121.178777
 31
0.0
 11
177.320635
 21
121.320875
 31
0.0
 11
177.602405
 21
121.520105
 31
0.0
 11
177.920088
 21
121.808511
 31
0.0
 11
178.437219
 21
122.184397
 31
0.0
 11
179.041844
 21
122.566384
 31
0.0
 11
179.817546
 21
123.067850
 31
0.0
 11
180.064419
 21
123.541521
 31
0.0
 11
179.993723
 21
124.392740
 31
0.0
 11
179.846832
 21
125.185124
 31
0.0
 11
179.614701
 21
126.132388
 31
0.0
 11
179.347584
 21
127.029456
 31
0.0
 11
179.102273
 21
127.808471
 31
0.0
 11
178.927309
 21
128.446249
 31
0.0
 11
178.860570
 21
128.804714
 31
0.0
 11
178.371229
 21
130.107881
 31
0.0
 11
177.351142
 21
132.125140
 31
0.0
 11
176.472211
 21
133.527781
 31
0.0
 11
176.107240
 21
133.877799
 31
0.0
 11
175.663129
 21
134.223011
 31
0.0
 11
175.236025
 21
134.488682
 31
0.0
 11
174.702242
 21
134.700022
 31
0.0
 11
174.158136
 21
134.684423
 31
0.0
 11
173.330551
 21
134.434053
 31
0.0
 11
172.204203
 21
134.180144
 31
0.0
 11
170.427569
 21
133.968554
 31
0.0
 11
168.062879
 21
133.806694
 31
0.0
 11
165.879808
 21
133.662270
 31
0.0
 11
164.064159
 21
133.482907
 31
0.0
 11
163.009012
 21
133.307436
 31
0.0
 11
160.550084
 21
133.094708
 31
0.0
 11
154.237954
 21
132.945645
 31
0.0
 11
143.107485
 21
132.837457
 31
0.0
 11
142.289978
 21
132.791902
 31
0.0
 11
141.422869
 21
132.681259
 31
0.0
 11
140.693881
 21
132.529476
 31
0.0
 11
139.676796
 21
132.371693
 31
0.0
 11
138.054400
 21
132.245319
 31
0.0
 11
136.177936
 21
132.177713
 31
0.0
 11
131.456758
 21
131.877860
 31
0.0
 11
127.490402
 21
131.159433
 31
0.0
 11
124.494407
 21
130.061472
 31
0.0
 11
123.341418
 21
129.518446
 31
0.0
 11
122.153632
 21
129.053851
 31
0.0
 11
121.188200
 21
128.768268
 31
0.0
 11
117.849499
 21
127.631768
 31
0.0
 11
113.849603
 21
125.764264
 31
0.0
 11
110.771604
 21
123.904885
 31
0.0
 11
109.158028
 21
122.804079
 31
0.0
 11
107.813866
 21
122.391036
 31
0.0
 11
106.101292
 21
122.469764
 31
0.0
 11
103.731697
 21
122.615481
 31
0.0
 11
102.233636
 21
122.272792
 31
0.0
 11
101.222450
 21
121.353704
 31
0.0
 11
100.106396
 21
119.850262
 31
0.0
 11
99.571762
 21
119.368026
 31
0.0
 11
99.164124
 21
119.497109
 31
0.0
 11
98.875636
 21
119.753803
 31
0.0
 11
98.562019
 21
120.160479
 31
0.0
 11
98.291168
 21
120.629092
 31
0.0
 11
97.901634
 21
121.219846
 31
0.0
 11
97.243674
 21
121.631962
 31
0.0
 11
96.004599
 21
122.061297
 31
0.0
 11
93.911529
 21
122.551224
 31
0.0
 11
92.272814
 21
122.576841
 31
0.0
 11
91.012041
 21
122.139344
 31
0.0
 11
90.523089
 21
121.884012
 31
0.0
 11
90.040863
 21
121.701900
 31
0.0
 11
89.669762
 21
121.632434
 31
0.0
 11
88.668467
 21
121.932413
 31
0.0
 11
87.201427
 21
122.697082
 31
0.0
 11
85.657909
 21
123.723545
 31
0.0
 11
84.831832
 21
124.264702
 31
0.0
 11
84.032455
 21
124.511370
 31
0.0
 11
82.863210
 21
124.585920
 31
0.0
 11
81.726774
 21
124.676965
 31
0.0
 11
80.589388
 21
124.908178
 31
0.0
 11
79.428051
 21
125.284227
 31
0.0
 11
78.428386
 21
125.619197
 31
0.0
 11
77.485210
 21
125.858109
 31
0.0
 11
76.802717
 21
125.949241
 31
0.0
 11
76.092456
 21
126.016625
 31
0.0
 11
75.076484
 21
126.193279
 31
0.0
 11
73.974753
 21
126.440959
 31
0.0
 11
72.367227
 21
126.750805
 31
0.0
 11
70.273515
 21
126.877945
 31
0.0
 11
66.805568
 21
126.876304
 31
0.0
  0
LINE
  5
117
100
AcDbEntity
  8
0
 62
7
100
AcDbLine
 10
137.596671
 20
110.343137
 30
0.0
 11
140.080357
 21
110.810402
 31
0.0
  0
LINE
  5
118
100
AcDbEntity
  8
0
 62
7
100
AcDbLine
 10
140.080357
 20
110.810402
 30
0.0
 11
142.130643
 21
110.245490
 31
0.0
  0
SPLINE
  5
119
100
AcDbEntity
  8
0
 62
7
100
AcDbSpline
 70
0
 71
3
 72
82
 73
78
 74
76
 40
0.000000
 40
0.000000
 40
0.000000
 40
0.000000
 40
2.598777
 40
4.628062
 40
7.407485
 40
9.699417
 40
11.621915
 40
13.041456
 40
14.309371
 40
15.232247
 40
16.425562
 40
17.560364
 40
18.923920
 40
20.221028
 40
21.334011
 40
22.215968
 40
22.679287
 40
23.047289
 40
23.686729
 40
24.466064
 40
25.942043
 40
27.417325
 40
29.361307
 40
30.180850
 40
31.168253
 40
32.111580
 40
34.519271
 40
37.702586
 40
41.304927
 40
42.691242
 40
43.886425
 40
44.634170
 40
46.168523
 40
48.666246
 40
51.683185
 40
53.033434
 40
54.395654
 40
55.475725
 40
56.495876
 40
57.702623
 40
58.837073
 40
61.845075
 40
65.914649
 40
71.920832
 40
78.415284
 40
83.100646
 40
87.935799
 40
93.417629
 40
96.754326
 40
99.091108
 40
100.207959
 40
101.114609
 40
101.619699
 40
102.047848
 40
102.764228
 40
103.623923
 40
104.663174
 40
105.661247
 40
106.631818
 40
107.786095
 40
109.421988
 40
111.187454
 40
113.370945
 40
114.845859
 40
116.496695
 40
118.021089
 40
119.271167
 40
120.636485
 40
122.240296
 40
124.375298
 40
128.385664
 40
131.670677
 40
134.526215
 40
136.431143
 40
138.000094
 40
139.398249
 40
141.141133
 40
141.141133
 40
141.141133
 40
141.141133
 10
58.384259
 20
125.215882
 30
0.0
 10
57.605649
 20
124.833016
 30
0.0
 10
56.219054
 20
124.151186
 30
0.0
 10
54.212499
 20
122.690747
 30
0.0
 10
52.554174
 20
120.996029
 30
0.0
 10
50.858946
 20
119.396332
 30
0.0
 10
49.421788
 20
118.183443
 30
0.0
 10
48.154477
 20
117.311117
 30
0.0
 10
47.064759
 20
116.776730
 30
0.0
 10
46.274098
 20
115.937381
 30
0.0
 10
45.852169
 20
114.928288
 30
0.0
 10
45.351106
 20
113.807434
 30
0.0
 10
44.842620
 20
112.648130
 30
0.0
 10
44.324628
 20
111.501568
 30
0.0
 10
43.901434
 20
110.490275
 30
0.0
 10
43.586255
 20
109.730688
 30
0.0
 10
43.456021
 20
109.174239
 30
0.0
 10
43.321722
 20
108.701462
 30
0.0
 10
43.037686
 20
108.172952
 30
0.0
 10
42.536303
 20
107.354232
 30
0.0
 10
41.946193
 20
106.228122
 30
0.0
 10
41.947091
 20
104.543734
 30
0.0
 10
42.398629
 20
103.200029
 30
0.0
 10
42.766745
 20
102.005608
 30
0.0
 10
42.993911
 20
101.116522
 30
0.0
 10
43.237019
 20
99.689188
 30
0.0
 10
44.071586
 20
97.647587
 30
0.0
 10
45.807783
 20
95.105961
 30
0.0
 10
47.644049
 20
93.086615
 30
0.0
 10
49.092574
 20
91.621671
 30
0.0
 10
49.863323
 20
90.820773
 30
0.0
 10
50.539723
 20
89.873407
 30
0.0
 10
51.843406
 20
88.909356
 30
0.0
 10
53.973279
 20
87.912611
 30
0.0
 10
56.126299
 20
87.129336
 30
0.0
 10
57.942719
 20
86.540199
 30
0.0
 10
59.133945
 20
86.115569
 30
0.0
 10
60.204897
 20
85.685436
 30
0.0
 10
61.234168
 20
85.289556
 30
0.0
 10
62.304361
 20
84.956732
 30
0.0
 10
64.017964
 20
84.458925
 30
0.0
 10
66.793019
 20
84.278494
 30
0.0
 10
71.087279
 20
85.181381
 30
0.0
 10
76.345515
 20
86.860014
 30
0.0
 10
81.774796
 20
88.700515
 30
0.0
 10
86.569110
 20
91.132960
 30
0.0
 10
90.388524
 20
94.402381
 30
0.0
 10
93.727873
 20
97.473253
 30
0.0
 10
96.374257
 20
100.118713
 30
0.0
 10
97.557567
 20
102.061133
 30
0.0
 10
98.172663
 20
103.387649
 30
0.0
 10
98.604043
 20
104.093248
 30
0.0
 10
98.911626
 20
104.663060
 30
0.0
 10
99.464092
 20
104.828558
 30
0.0
 10
100.106407
 20
104.972200
 30
0.0
 10
100.978193
 20
105.064188
 30
0.0
 10
101.935077
 20
105.189935
 30
0.0
 10
102.905059
 20
105.468150
 30
0.0
 10
103.839981
 20
105.930030
 30
0.0
 10
104.964820
 20
106.482648
 30
0.0
 10
106.368838
 20
107.064281
 30
0.0
 10
108.105930
 20
107.732605
 30
0.0
 10
109.799819
 20
108.366944
 30
0.0
 10
111.538000
 20
108.757475
 30
0.0
 10
113.094526
 20
108.735495
 30
0.0
 10
114.569285
 20
108.741842
 30
0.0
 10
115.942499
 20
108.944060
 30
0.0
 10
117.274074
 20
109.401335
 30
0.0
 10
118.899520
 20
109.927908
 30
0.0
 10
121.494354
 20
110.090038
 30
0.0
 10
124.628574
 20
110.195967
 30
0.0
 10
128.013640
 20
110.258112
 30
0.0
 10
130.695750
 20
110.247314
 30
0.0
 10
132.803706
 20
110.148350
 30
0.0
 10
134.420141
 20
109.961783
 30
0.0
 10
135.994544
 20
110.050067
 30
0.0
 10
137.024934
 20
110.238551
 30
0.0
 10
137.596671
 20
110.343137
 30
0.0
 11
58.384259
 21
125.215882
 31
0.0
 11
56.090347
 21
123.994566
 31
0.0
 11
54.447672
 21
122.803091
 31
0.0
 11
52.426853
 21
120.894824
 31
0.0
 11
50.753570
 21
119.328593
 31
0.0
 11
49.271571
 21
118.103980
 31
0.0
 11
48.092604
 21
117.313326
 31
0.0
 11
47.010655
 21
116.652271
 31
0.0
 11
46.379081
 21
115.979356
 31
0.0
 11
45.840939
 21
114.914272
 31
0.0
 11
45.383059
 21
113.875945
 31
0.0
 11
44.831416
 21
112.628959
 31
0.0
 11
44.305438
 21
111.443280
 31
0.0
 11
43.871945
 21
110.418187
 31
0.0
 11
43.562762
 21
109.592201
 31
0.0
 11
43.444825
 21
109.144143
 31
0.0
 11
43.337414
 21
108.792165
 31
0.0
 11
43.055821
 21
108.218067
 31
0.0
 11
42.661010
 21
107.546139
 31
0.0
 11
42.062982
 21
106.196740
 31
0.0
 11
42.014694
 21
104.722248
 31
0.0
 11
42.506943
 21
102.841622
 31
0.0
 11
42.744494
 21
102.057262
 31
0.0
 11
42.984139
 21
101.099381
 31
0.0
 11
43.173998
 21
100.175358
 31
0.0
 11
44.035908
 21
97.927229
 31
0.0
 11
45.782184
 21
95.265648
 31
0.0
 11
48.166815
 21
92.565573
 31
0.0
 11
49.135309
 21
91.573663
 31
0.0
 11
49.939714
 21
90.689697
 31
0.0
 11
50.405878
 21
90.105049
 31
0.0
 11
51.597818
 21
89.138862
 31
0.0
 11
53.829379
 21
88.016917
 31
0.0
 11
56.656119
 21
86.962661
 31
0.0
 11
57.936950
 21
86.535288
 31
0.0
 11
59.218926
 21
86.074660
 31
0.0
 11
60.224507
 21
85.680501
 31
0.0
 11
61.179428
 21
85.321565
 31
0.0
 11
62.328601
 21
84.953276
 31
0.0
 11
63.423238
 21
84.655367
 31
0.0
 11
66.421869
 21
84.418128
 31
0.0
 11
70.433772
 21
85.100824
 31
0.0
 11
76.186481
 21
86.827255
 31
0.0
 11
82.283879
 21
89.063244
 31
0.0
 11
86.421020
 21
91.262489
 31
0.0
 11
90.201199
 21
94.277279
 31
0.0
 11
94.227493
 21
97.997415
 31
0.0
 11
96.487903
 21
100.451818
 31
0.0
 11
97.717670
 21
102.438831
 31
0.0
 11
98.220521
 21
103.436077
 31
0.0
 11
98.670554
 21
104.223150
 31
0.0
 11
98.970340
 21
104.629653
 31
0.0
 11
99.365251
 21
104.795052
 31
0.0
 11
100.064664
 21
104.950045
 31
0.0
 11
100.917158
 21
105.061077
 31
0.0
 11
101.944532
 21
105.217746
 31
0.0
 11
102.902236
 21
105.498729
 31
0.0
 11
103.784863
 21
105.902436
 31
0.0
 11
104.825111
 21
106.402676
 31
0.0
 11
106.331141
 21
107.041439
 31
0.0
 11
107.976908
 21
107.680439
 31
0.0
 11
110.040769
 21
108.393260
 31
0.0
 11
111.485512
 21
108.690053
 31
0.0
 11
113.135587
 21
108.740185
 31
0.0
 11
114.659409
 21
108.781946
 31
0.0
 11
115.894646
 21
108.974001
 31
0.0
 11
117.200601
 21
109.372214
 31
0.0
 11
118.741639
 21
109.816525
 31
0.0
 11
120.864530
 21
110.043614
 31
0.0
 11
124.872118
 21
110.192848
 31
0.0
 11
128.156674
 21
110.247624
 31
0.0
 11
131.012093
 21
110.221555
 31
0.0
 11
132.914282
 21
110.119429
 31
0.0
 11
134.478873
 21
110.002563
 31
0.0
 11
135.875436
 21
110.069286
 31
0.0
 11
137.596671
 21
110.343137
 31
0.0
  0
LINE
  5
11a
100
AcDbEntity
  8
0
 62
7
100
AcDbLine
 10
177.789302
 20
100.956254
 30
0.0
 11
179.639763
 21
101.912377
 31
0.0
  0
LINE
  5
11b
100
AcDbEntity
  8
0
 62
7
100
AcDbLine
 10
179.639763
 20
101.912377
 30
0.0
 11
180.329937
 21
101.399537
 31
0.0
  0
SPLINE
  5
11c
100
AcDbEntity
  8
0
 62
7
100
AcDbSpline
 70
0
 71
3
 72
43
 73
39
 74
37
 40
0.000000
 40
0.000000
 40
0.000000
 40
0.000000
 40
1.320867
 40
2.739570
 40
3.949190
 40
5.088240
 40
6.326567
 40
7.401491
 40
8.598648
 40
9.640060
 40
11.124455
 40
12.535092
 40
13.438343
 40
14.234462
 40
14.917836
 40
15.716421
 40
16.468960
 40
17.357212
 40
18.132046
 40
19.280699
 40
22.458026
 40
24.644134
 40
26.531265
 40
28.342519
 40
30.443758
 40
32.404841
 40
34.313575
 40
36.522075
 40
38.089292
 40
38.451290
 40
38.813384
 40
39.260258
 40
39.781573
 40
40.226568
 40
41.013440
 40
41.872379
 40
43.020168
 40
44.219118
 40
44.219118
 40
44.219118
 40
44.219118
 10
142.130643
 20
110.245490
 30
0.0
 10
142.555920
 20
110.131515
 30
0.0
 10
143.437974
 20
109.895125
 30
0.0
 10
144.713322
 20
109.568417
 30
0.0
 10
145.938591
 20
109.292637
 30
0.0
 10
147.092705
 20
108.978092
 30
0.0
 10
148.179989
 20
108.595896
 30
0.0
 10
149.252427
 20
108.130283
 30
0.0
 10
150.237484
 20
107.612721
 30
0.0
 10
151.475227
 20
107.398268
 30
0.0
 10
152.789857
 20
107.438250
 30
0.0
 10
154.050313
 20
107.455026
 30
0.0
 10
155.099591
 20
107.337926
 30
0.0
 10
155.796539
 20
106.937213
 30
0.0
 10
156.475520
 20
106.599049
 30
0.0
 10
157.190130
 20
106.373522
 30
0.0
 10
157.986982
 20
106.221618
 30
0.0
 10
158.801952
 20
106.147512
 30
0.0
 10
159.713509
 20
106.436917
 30
0.0
 10
161.128730
 20
107.390047
 30
0.0
 10
162.981184
 20
108.514569
 30
0.0
 10
165.332019
 20
109.294296
 30
0.0
 10
167.341381
 20
108.944542
 30
0.0
 10
168.979011
 20
107.869491
 30
0.0
 10
170.388246
 20
106.503031
 30
0.0
 10
171.548204
 20
104.854033
 30
0.0
 10
172.186118
 20
102.920004
 30
0.0
 10
172.742424
 20
101.101453
 30
0.0
 10
172.969498
 20
99.753639
 30
0.0
 10
173.054067
 20
98.976223
 30
0.0
 10
173.332138
 20
98.669271
 30
0.0
 10
173.731834
 20
98.489592
 30
0.0
 10
174.199753
 20
98.304168
 30
0.0
 10
174.762126
 20
98.586415
 30
0.0
 10
175.167317
 20
99.158314
 30
0.0
 10
175.881735
 20
99.765189
 30
0.0
 10
176.756347
 20
100.379892
 30
0.0
 10
177.440015
 20
100.761361
 30
0.0
 10
177.789302
 20
100.956254
 30
0.0
 11
142.130643
 21
110.245490
 31
0.0
 11
143.407092
 21
109.905834
 31
0.0
 11
144.782599
 21
109.558415
 31
0.0
 11
145.959373
 21
109.278446
 31
0.0
 11
147.057049
 21
108.974236
 31
0.0
 11
148.225193
 21
108.563268
 31
0.0
 11
149.210906
 21
108.134514
 31
0.0
 11
150.306305
 21
107.651517
 31
0.0
 11
151.328597
 21
107.452880
 31
0.0
 11
152.812880
 21
107.434630
 31
0.0
 11
154.223452
 21
107.421088
 31
0.0
 11
155.114185
 21
107.271230
 31
0.0
 11
155.831895
 21
106.926704
 31
0.0
 11
156.448038
 21
106.631123
 31
0.0
 11
157.207674
 21
106.384768
 31
0.0
 11
157.946347
 21
106.240973
 31
0.0
 11
158.833965
 21
106.207417
 31
0.0
 11
159.577728
 21
106.424638
 31
0.0
 11
160.568014
 21
107.006648
 31
0.0
 11
163.337996
 21
108.563120
 31
0.0
 11
165.449183
 21
109.130537
 31
0.0
 11
167.310383
 21
108.818772
 31
0.0
 11
168.861542
 21
107.883600
 31
0.0
 11
170.372242
 21
106.423124
 31
0.0
 11
171.469612
 21
104.797817
 31
0.0
 11
172.148389
 21
103.013852
 31
0.0
 11
172.749654
 21
100.888775
 31
0.0
 11
173.012760
 21
99.343802
 31
0.0
 11
173.090360
 21
98.990218
 31
0.0
 11
173.322214
 21
98.712089
 31
0.0
 11
173.715790
 21
98.500442
 31
0.0
 11
174.222116
 21
98.376334
 31
0.0
 11
174.632050
 21
98.549466
 31
0.0
 11
175.176652
 21
99.117424
 31
0.0
 11
175.814152
 21
99.693071
 31
0.0
 11
176.752771
 21
100.353688
 31
0.0
 11
177.789302
 21
100.956254
 31
0.0
  0
LINE
  5
11d
100
AcDbEntity
  8
0
 62
7
100
AcDbLine
 10
219.663766
 20
81.668936
 30
0.0
 11
220.542331
 21
80.937575
 31
0.0
  0
LINE
  5
11e
100
AcDbEntity
  8
0
 62
7
100
AcDbLine
 10
220.542331
 20
80.937575
 30
0.0
 11
221.868473
 21
81.441370
 31
0.0
  0
SPLINE
  5
11f
100
AcDbEntity
  8
0
 62
7
100
AcDbSpline
 70
0
 71
3
 72
55
 73
51
 74
49
 40
0.000000
 40
0.000000
 40
0.000000
 40
0.000000
 40
1.134217
 40
2.265483
 40
3.713024
 40
5.081764
 40
6.288866
 40
7.766496
 40
8.744932
 40
10.013941
 40
11.684037
 40
16.414936
 40
19.434997
 40
22.262166
 40
23.133368
 40
24.340790
 40
25.631981
 40
27.126733
 40
28.292185
 40
29.431356
 40
30.962287
 40
32.137535
 40
33.706593
 40
34.694880
 40
35.472454
 40
36.185055
 40
36.866483
 40
37.253108
 40
37.683201
 40
38.979352
 40
40.661201
 40
43.410323
 40
46.165658
 40
47.780744
 40
48.594323
 40
49.064381
 40
49.997603
 40
51.192006
 40
52.535696
 40
53.863700
 40
54.893494
 40
55.876086
 40
56.735773
 40
57.715224
 40
59.864947
 40
61.913116
 40
63.445363
 40
65.306951
 40
67.124714
 40
69.656644
 40
69.656644
 40
69.656644
 40
69.656644
 10
180.329937
 20
101.399537
 30
0.0
 10
180.609046
 20
101.122712
 30
0.0
 10
181.166540
 20
100.569783
 30
0.0
 10
181.122741
 20
99.212171
 30
0.0
 10
180.417341
 20
98.096399
 30
0.0
 10
179.664658
 20
96.958009
 30
0.0
 10
179.592667
 20
95.540517
 30
0.0
 10
180.115905
 20
94.419517
 30
0.0
 10
180.560294
 20
93.259228
 30
0.0
 10
180.781539
 20
91.965309
 30
0.0
 10
181.022506
 20
89.418844
 30
0.0
 10
181.249359
 20
86.317396
 30
0.0
 10
182.508370
 20
82.816284
 30
0.0
 10
184.543034
 20
81.664790
 30
0.0
 10
185.914624
 20
80.784528
 30
0.0
 10
186.767028
 20
80.045157
 30
0.0
 10
187.714744
 20
79.111897
 30
0.0
 10
188.624226
 20
78.157497
 30
0.0
 10
189.648402
 20
77.393934
 30
0.0
 10
190.825319
 20
76.885893
 30
0.0
 10
192.051146
 20
76.471464
 30
0.0
 10
193.153541
 20
75.512656
 30
0.0
 10
193.739865
 20
74.402327
 30
0.0
 10
194.317034
 20
73.453989
 30
0.0
 10
194.882147
 20
72.833036
 30
0.0
 10
195.530651
 20
72.493460
 30
0.0
 10
196.070474
 20
72.254721
 30
0.0
 10
196.601090
 20
72.221619
 30
0.0
 10
197.152246
 20
72.715841
 30
0.0
 10
197.860504
 20
73.616826
 30
0.0
 10
198.160639
 20
75.565444
 30
0.0
 10
198.144044
 20
77.947295
 30
0.0
 10
198.258924
 20
80.300660
 30
0.0
 10
198.352790
 20
82.072496
 30
0.0
 10
199.123731
 20
82.865533
 30
0.0
 10
199.887790
 20
82.775141
 30
0.0
 10
200.742584
 20
82.816716
 30
0.0
 10
201.904210
 20
82.782007
 30
0.0
 10
203.191397
 20
82.818505
 30
0.0
 10
204.423359
 20
82.910896
 30
0.0
 10
205.523580
 20
83.084988
 30
0.0
 10
206.459145
 20
83.299021
 30
0.0
 10
207.408265
 20
83.307289
 30
0.0
 10
208.714312
 20
83.042839
 30
0.0
 10
210.422649
 20
82.806429
 30
0.0
 10
212.350348
 20
82.776129
 30
0.0
 10
214.122929
 20
83.147617
 30
0.0
 10
215.801487
 20
83.794284
 30
0.0
 10
217.882046
 20
83.111830
 30
0.0
 10
219.008224
 20
82.199815
 30
0.0
 10
219.663766
 20
81.668936
 30
0.0
 11
180.329937
 21
101.399537
 31
0.0
 11
181.020831
 21
100.500030
 31
0.0
 11
181.043647
 21
99.368995
 31
0.0
 11
180.397022
 21
98.073907
 31
0.0
 11
179.757566
 21
96.863723
 31
0.0
 11
179.684634
 21
95.658826
 31
0.0
 11
180.166281
 21
94.261899
 31
0.0
 11
180.498870
 21
93.341724
 31
0.0
 11
180.745157
 21
92.096845
 31
0.0
 11
180.923148
 21
90.436259
 31
0.0
 11
181.564703
 21
85.749063
 31
0.0
 11
182.818071
 21
83.001366
 31
0.0
 11
185.085121
 21
81.312174
 31
0.0
 11
185.810896
 21
80.830260
 31
0.0
 11
186.736719
 21
80.055198
 31
0.0
 11
187.662152
 21
79.154783
 31
0.0
 11
188.733109
 21
78.112029
 31
0.0
 11
189.677458
 21
77.429033
 31
0.0
 11
190.710911
 21
76.949780
 31
0.0
 11
192.111765
 21
76.332237
 31
0.0
 11
193.001276
 21
75.564135
 31
0.0
 11
193.846483
 21
74.242180
 31
0.0
 11
194.383890
 21
73.412780
 31
0.0
 11
194.925614
 21
72.854966
 31
0.0
 11
195.541611
 21
72.496707
 31
0.0
 11
196.182028
 21
72.263879
 31
0.0
 11
196.568613
 21
72.269434
 31
0.0
 11
196.920645
 21
72.516525
 31
0.0
 11
197.692676
 21
73.557666
 31
0.0
 11
198.069779
 21
75.196693
 31
0.0
 11
198.169384
 21
77.944010
 31
0.0
 11
198.280747
 21
80.697093
 31
0.0
 11
198.633508
 21
82.273184
 31
0.0
 11
199.255675
 21
82.797416
 31
0.0
 11
199.725701
 21
82.802967
 31
0.0
 11
200.658921
 21
82.801892
 31
0.0
 11
201.853302
 21
82.794426
 31
0.0
 11
203.196543
 21
82.829141
 31
0.0
 11
204.520024
 21
82.938652
 31
0.0
 11
205.537217
 21
83.099255
 31
0.0
 11
206.504744
 21
83.270661
 31
0.0
 11
207.364389
 21
83.279119
 31
0.0
 11
208.331916
 21
83.126750
 31
0.0
 11
210.463258
 21
82.846238
 31
0.0
 11
212.511384
 21
82.859577
 31
0.0
 11
214.013137
 21
83.163750
 31
0.0
 11
215.827737
 21
83.579363
 31
0.0
 11
217.585050
 21
83.114484
 31
0.0
 11
219.663766
 21
81.668936
 31
0.0
  0
LINE
  5
120
100
AcDbEntity
  8
0
 62
7
100
AcDbLine
 10
224.549332
 20
82.494664
 30
0.0
 11
225.904049
 21
83.044163
 31
0.0
  0
LINE
  5
121
100
AcDbEntity
  8
0
 62
7
100
AcDbLine
 10
225.904049
 20
83.044163
 30
0.0
 11
226.731965
 21
82.214372
 31
0.0
  0
SPLINE
  5
122
100
AcDbEntity
  8
0
 62
7
100
AcDbSpline
 70
0
 71
3
 72
10
 73
6
 74
4
 40
0.000000
 40
0.000000
 40
0.000000
 40
0.000000
 40
0.914860
 40
1.949653
 40
2.880390
 40
2.880390
 40
2.880390
 40
2.880390
 10
221.868473
 20
81.441370
 30
0.0
 10
222.153149
 20
81.550716
 30
0.0
 10
222.759821
 20
81.783742
 30
0.0
 10
223.653447
 20
82.134897
 30
0.0
 10
224.261433
 20
82.379050
 30
0.0
 10
224.549332
 20
82.494664
 30
0.0
 11
221.868473
 21
81.441370
 31
0.0
 11
222.722105
 21
81.770433
 31
0.0
 11
223.685228
 21
82.148838
 31
0.0
 11
224.549332
 21
82.494664
 31
0.0
  0
LINE
  5
123
100
AcDbEntity
  8
0
 62
7
100
AcDbLine
 10
232.545138
 20
70.338615
 30
0.0
 11
232.545138
 21
70.338596
 31
0.0
  0
SPLINE
  5
124
100
AcDbEntity
  8
0
 62
7
100
AcDbSpline
 70
0
 71
3
 72
22
 73
18
 74
16
 40
0.000000
 40
0.000000
 40
0.000000
 40
0.000000
 40
3.190984
 40
6.911223
 40
10.322447
 40
10.866599
 40
11.301630
 40
11.859390
 40
12.339079
 40
12.789720
 40
13.143251
 40
14.292547
 40
15.550138
 40
17.670434
 40
19.585017
 40
20.653270
 40
21.537832
 40
21.537832
 40
21.537832
 40
21.537832
 10
226.731965
 20
82.214372
 30
0.0
 10
227.208297
 20
81.231078
 30
0.0
 10
228.239967
 20
79.101401
 30
0.0
 10
227.315199
 20
75.543425
 30
0.0
 10
225.701660
 20
73.416106
 30
0.0
 10
224.360373
 20
72.750326
 30
0.0
 10
224.091495
 20
72.284109
 30
0.0
 10
224.070030
 20
71.783601
 30
0.0
 10
224.122517
 20
71.291418
 30
0.0
 10
224.249992
 20
70.874762
 30
0.0
 10
224.644972
 20
70.347934
 30
0.0
 10
225.467268
 20
69.853663
 30
0.0
 10
226.968172
 20
69.598492
 30
0.0
 10
228.739117
 20
69.660778
 30
0.0
 10
230.427463
 20
69.678521
 30
0.0
 10
231.737124
 20
69.826133
 30
0.0
 10
232.293237
 20
70.178847
 30
0.0
 10
232.545138
 20
70.338615
 30
0.0
 11
226.731965
 21
82.214372
 31
0.0
 11
227.809044
 21
79.210661
 31
0.0
 11
227.053409
 21
75.567970
 31
0.0
 11
224.818625
 21
72.990727
 31
0.0
 11
224.366517
 21
72.687906
 31
0.0
 11
224.143536
 21
72.314367
 31
0.0
 11
224.083840
 21
71.759811
 31
0.0
 11
224.139375
 21
71.283347
 31
0.0
 11
224.285620
 21
70.857097
 31
0.0
 11
224.492031
 21
70.570080
 31
0.0
 11
225.453471
 21
69.940386
 31
0.0
 11
226.683602
 21
69.679018
 31
0.0
 11
228.803750
 21
69.653960
 31
0.0
 11
230.717048
 21
69.724096
 31
0.0
 11
231.767852
 21
69.916388
 31
0.0
 11
232.545138
 21
70.338615
 31
0.0
  0
LINE
  5
125
100
AcDbEntity
  8
0
 62
7
100
AcDbLine
 10
200.521889
 20
97.255162
 30
0.0
 11
198.922443
 21
97.255162
 31
0.0
  0
LINE
  5
126
100
AcDbEntity
  8
0
 62
7
100
AcDbLine
 10
198.922443
 20
97.255162
 30
0.0
 11
197.345161
 21
95.731583
 31
0.0
  0
SPLINE
  5
127
100
AcDbEntity
  8
0
 62
7
100
AcDbSpline
 70
0
 71
3
 72
43
 73
39
 74
37
 40
0.000000
 40
0.000000
 40
0.000000
 40
0.000000
 40
1.780869
 40
3.531331
 40
5.953720
 40
6.435702
 40
6.959136
 40
7.601217
 40
9.919723
 40
13.090413
 40
14.906482
 40
15.146935
 40
15.464291
 40
15.798421
 40
16.184464
 40
16.414680
 40
17.000433
 40
17.592956
 40
18.308321
 40
18.993541
 40
19.759620
 40
20.365024
 40
21.115661
 40
21.913638
 40
22.652957
 40
23.834048
 40
25.626995
 40
27.012458
 40
28.267380
 40
29.486324
 40
30.545535
 40
31.790028
 40
33.152216
 40
34.322663
 40
35.970188
 40
37.722974
 40
38.970354
 40
40.577154
 40
40.577154
 40
40.577154
 40
40.577154
 10
185.596886
 20
91.859152
 30
0.0
 10
185.277248
 20
92.369794
 30
0.0
 10
184.643430
 20
93.382361
 30
0.0
 10
184.492383
 20
95.412118
 30
0.0
 10
184.660128
 20
96.954969
 30
0.0
 10
185.014496
 20
98.057584
 30
0.0
 10
185.406651
 20
98.467112
 30
0.0
 10
186.430647
 20
99.018214
 30
0.0
 10
187.984253
 20
100.408850
 30
0.0
 10
189.541219
 20
102.159165
 30
0.0
 10
190.996465
 20
103.400527
 30
0.0
 10
191.095600
 20
104.192611
 30
0.0
 10
191.224829
 20
104.470706
 30
0.0
 10
191.409495
 20
104.734787
 30
0.0
 10
191.589271
 20
105.099371
 30
0.0
 10
192.023000
 20
104.911113
 30
0.0
 10
192.184091
 20
104.452252
 30
0.0
 10
192.573767
 20
103.953996
 30
0.0
 10
192.976092
 20
103.424950
 30
0.0
 10
193.451229
 20
102.882879
 30
0.0
 10
193.929438
 20
102.380986
 30
0.0
 10
194.594689
 20
102.083949
 30
0.0
 10
195.317194
 20
102.078062
 30
0.0
 10
196.096469
 20
102.082121
 30
0.0
 10
196.898791
 20
102.565153
 30
0.0
 10
197.732362
 20
103.478956
 30
0.0
 10
198.789369
 20
104.481136
 30
0.0
 10
200.088184
 20
105.245732
 30
0.0
 10
201.382196
 20
105.427561
 30
0.0
 10
202.576884
 20
105.304966
 30
0.0
 10
203.613943
 20
104.656572
 30
0.0
 10
204.239152
 20
103.587133
 30
0.0
 10
204.783569
 20
102.426480
 30
0.0
 10
204.692382
 20
100.983438
 30
0.0
 10
204.014095
 20
99.614228
 30
0.0
 10
203.378209
 20
98.170030
 30
0.0
 10
202.043549
 20
97.241257
 30
0.0
 10
201.069976
 20
97.250153
 30
0.0
 10
200.521889
 20
97.255162
 30
0.0
 11
185.596886
 21
91.859152
 31
0.0
 11
184.776383
 21
93.439743
 31
0.0
 11
184.554521
 21
95.176088
 31
0.0
 11
184.866115
 21
97.578353
 31
0.0
 11
185.041322
 21
98.027362
 31
0.0
 11
185.391546
 21
98.416369
 31
0.0
 11
185.932282
 21
98.762594
 31
0.0
 11
187.728891
 21
100.228087
 31
0.0
 11
189.961510
 21
102.479462
 31
0.0
 11
191.055611
 21
103.928962
 31
0.0
 11
191.103077
 21
104.164683
 31
0.0
 11
191.227516
 21
104.456625
 31
0.0
 11
191.401987
 21
104.741585
 31
0.0
 11
191.660263
 21
105.028504
 31
0.0
 11
191.878701
 21
104.955809
 31
0.0
 11
192.209935
 21
104.472705
 31
0.0
 11
192.547436
 21
103.985696
 31
0.0
 11
192.988548
 21
103.422521
 31
0.0
 11
193.437774
 21
102.905101
 31
0.0
 11
194.001446
 21
102.386304
 31
0.0
 11
194.555090
 21
102.141371
 31
0.0
 11
195.303200
 21
102.079831
 31
0.0
 11
196.097620
 21
102.155092
 31
0.0
 11
196.748290
 21
102.506121
 31
0.0
 11
197.603448
 21
103.320788
 31
0.0
 11
198.939249
 21
104.516737
 31
0.0
 11
200.157200
 21
105.177118
 31
0.0
 11
201.396073
 21
105.377175
 31
0.0
 11
202.602365
 21
105.202006
 31
0.0
 11
203.499081
 21
104.638243
 31
0.0
 11
204.203387
 21
103.612224
 31
0.0
 11
204.689621
 21
102.339773
 31
0.0
 11
204.641251
 21
101.170326
 31
0.0
 11
204.038959
 21
99.636838
 31
0.0
 11
203.152499
 21
98.124737
 31
0.0
 11
202.119654
 21
97.425319
 31
0.0
 11
200.521889
 21
97.255162
 31
0.0
  0
LINE
  5
128
100
AcDbEntity
  8
0
 62
7
100
AcDbLine
 10
185.596886
 20
91.859152
 30
0.0
 11
185.596886
 21
91.859152
 31
0.0
  0
SPLINE
  5
129
100
AcDbEntity
  8
0
 62
7
100
AcDbSpline
 70
0
 71
3
 72
25
 73
21
 74
19
 40
0.000000
 40
0.000000
 40
0.000000
 40
0.000000
 40
1.127297
 40
1.975988
 40
2.367359
 40
2.719469
 40
3.446375
 40
4.394145
 40
6.329837
 40
7.627275
 40
9.063658
 40
9.892858
 40
10.859970
 40
11.761651
 40
13.112636
 40
14.049189
 40
14.547743
 40
14.780367
 40
15.240220
 40
15.837240
 40
15.837240
 40
15.837240
 40
15.837240
 10
197.345161
 20
95.731583
 30
0.0
 10
197.071138
 20
95.465846
 30
0.0
 10
196.590816
 20
95.000047
 30
0.0
 10
196.001846
 20
94.551611
 30
0.0
 10
195.558470
 20
94.117911
 30
0.0
 10
195.093792
 20
94.436717
 30
0.0
 10
194.526183
 20
94.730453
 30
0.0
 10
193.511141
 20
95.409964
 30
0.0
 10
192.348902
 20
96.192787
 30
0.0
 10
190.676189
 20
96.325332
 30
0.0
 10
189.720694
 20
95.484162
 30
0.0
 10
189.053704
 20
94.652108
 30
0.0
 10
188.540181
 20
93.906368
 30
0.0
 10
188.020885
 20
92.976576
 30
0.0
 10
187.515412
 20
91.995567
 30
0.0
 10
187.031464
 20
91.316087
 30
0.0
 10
186.525652
 20
90.800296
 30
0.0
 10
186.189840
 20
91.093659
 30
0.0
 10
185.921447
 20
91.406607
 30
0.0
 10
185.714046
 20
91.695793
 30
0.0
 10
185.596886
 20
91.859152
 30
0.0
 11
197.345161
 21
95.731583
 31
0.0
 11
196.519421
 21
94.964151
 31
0.0
 11
195.870828
 21
94.416791
 31
0.0
 11
195.539801
 21
94.208003
 31
0.0
 11
195.216370
 21
94.347194
 31
0.0
 11
194.587692
 21
94.712101
 31
0.0
 11
193.789876
 21
95.223723
 31
0.0
 11
192.078493
 21
96.128196
 31
0.0
 11
190.781411
 21
96.158542
 31
0.0
 11
189.614184
 21
95.321415
 31
0.0
 11
189.088280
 21
94.680325
 31
0.0
 11
188.542268
 21
93.882092
 31
0.0
 11
188.094357
 21
93.099529
 31
0.0
 11
187.437594
 21
91.918927
 31
0.0
 11
186.876177
 21
91.169298
 31
0.0
 11
186.452252
 21
90.906916
 31
0.0
 11
186.259675
 21
91.037408
 31
0.0
 11
185.952377
 21
91.379507
 31
0.0
 11
185.596886
 21
91.859152
 31
0.0
  0
LINE
  5
12a
100
AcDbEntity
  8
0
 62
7
100
AcDbLine
 10
193.342188
 20
107.892087
 30
0.0
 11
193.342180
 21
107.892087
 31
0.0
  0
SPLINE
  5
12b
100
AcDbEntity
  8
0
 62
7
100
AcDbSpline
 70
0
 71
3
 72
25
 73
21
 74
19
 40
0.000000
 40
0.000000
 40
0.000000
 40
0.000000
 40
0.647565
 40
1.502507
 40
2.516873
 40
3.043086
 40
3.358278
 40
3.996947
 40
4.638760
 40
4.941205
 40
5.346833
 40
5.689449
 40
6.039266
 40
6.331014
 40
6.578920
 40
6.813513
 40
7.003154
 40
7.498211
 40
7.995267
 40
8.448323
 40
8.448323
 40
8.448323
 40
8.448323
 10
193.342180
 20
107.892087
 30
0.0
 10
193.392938
 20
108.104165
 30
0.0
 10
193.510710
 20
108.596235
 30
0.0
 10
194.100396
 20
109.249399
 30
0.0
 10
194.735398
 20
109.665691
 30
0.0
 10
195.264394
 20
110.109579
 30
0.0
 10
195.778983
 20
109.908778
 30
0.0
 10
195.963656
 20
109.371638
 30
0.0
 10
196.307126
 20
108.972522
 30
0.0
 10
196.350875
 20
108.470579
 30
0.0
 10
196.007656
 20
108.269755
 30
0.0
 10
195.708189
 20
108.079953
 30
0.0
 10
195.396117
 20
107.959247
 30
0.0
 10
195.101636
 20
107.919604
 30
0.0
 10
194.845035
 20
107.897701
 30
0.0
 10
194.627511
 20
107.815866
 30
0.0
 10
194.418752
 20
107.589136
 30
0.0
 10
194.091124
 20
107.338710
 30
0.0
 10
193.525015
 20
107.432847
 30
0.0
 10
193.401219
 20
107.743807
 30
0.0
 10
193.342188
 20
107.892087
 30
0.0
 11
193.342180
 21
107.892087
 31
0.0
 11
193.537969
 21
108.509345
 31
0.0
 11
194.075082
 21
109.174503
 31
0.0
 11
194.878139
 21
109.794211
 31
0.0
 11
195.345155
 21
110.036689
 31
0.0
 11
195.642360
 21
109.931734
 31
0.0
 11
195.995546
 21
109.399609
 31
0.0
 11
196.300244
 21
108.834735
 31
0.0
 11
196.301144
 21
108.532291
 31
0.0
 11
195.998932
 21
108.261731
 31
0.0
 11
195.702632
 21
108.089709
 31
0.0
 11
195.375036
 21
107.967017
 31
0.0
 11
195.087067
 21
107.920218
 31
0.0
 11
194.841615
 21
107.885420
 31
0.0
 11
194.625487
 21
107.794193
 31
0.0
 11
194.485473
 21
107.666286
 31
0.0
 11
194.063397
 21
107.407573
 31
0.0
 11
193.575761
 21
107.503882
 31
0.0
 11
193.342188
 21
107.892087
 31
0.0
  0
LINE
  5
12c
100
AcDbEntity
  8
0
 62
7
100
AcDbLine
 10
273.577956
 20
72.146235
 30
0.0
 11
273.577956
 21
72.146235
 31
0.0
  0
SPLINE
  5
12d
100
AcDbEntity
  8
0
 62
7
100
AcDbSpline
 70
0
 71
3
 72
19
 73
15
 74
13
 40
0.000000
 40
0.000000
 40
0.000000
 40
0.000000
 40
1.108150
 40
2.028051
 40
3.018724
 40
3.895555
 40
4.595518
 40
5.858268
 40
7.084959
 40
7.836694
 40
8.338523
 40
8.707670
 40
9.112080
 40
9.991496
 40
9.991496
 40
9.991496
 40
9.991496
 10
273.577956
 20
72.146235
 30
0.0
 10
273.829993
 20
72.424127
 30
0.0
 10
274.291254
 20
72.932705
 30
0.0
 10
274.453165
 20
74.004713
 30
0.0
 10
274.066566
 20
74.827194
 30
0.0
 10
273.378087
 20
75.616502
 30
0.0
 10
272.421906
 20
74.993444
 30
0.0
 10
272.196224
 20
73.923652
 30
0.0
 10
271.945908
 20
72.896684
 30
0.0
 10
271.867152
 20
72.030683
 30
0.0
 10
272.164932
 20
71.559718
 30
0.0
 10
272.573497
 20
71.310597
 30
0.0
 10
273.090145
 20
71.642162
 30
0.0
 10
273.379648
 20
71.941316
 30
0.0
 10
273.577956
 20
72.146235
 30
0.0
 11
273.577956
 21
72.146235
 31
0.0
 11
274.228830
 21
73.043096
 31
0.0
 11
274.364184
 21
73.952984
 31
0.0
 11
273.982742
 21
74.867279
 31
0.0
 11
273.297219
 21
75.413989
 31
0.0
 11
272.677813
 21
75.087975
 31
0.0
 11
272.189528
 21
73.923452
 31
0.0
 11
271.943816
 21
72.721621
 31
0.0
 11
271.956256
 21
71.969990
 31
0.0
 11
272.228845
 21
71.548650
 31
0.0
 11
272.560829
 21
71.387230
 31
0.0
 11
272.930589
 21
71.551014
 31
0.0
 11
273.577956
 21
72.146235
 31
0.0
  0
LINE
  5
12e
100
AcDbEntity
  8
0
 62
7
100
AcDbLine
 10
192.955187
 20
126.313255
 30
0.0
 11
192.955187
 21
126.313255
 31
0.0
  0
SPLINE
  5
12f
100
AcDbEntity
  8
0
 62
7
100
AcDbSpline
 70
0
 71
3
 72
31
 73
27
 74
25
 40
0.000000
 40
0.000000
 40
0.000000
 40
0.000000
 40
0.771970
 40
1.530292
 40
2.127776
 40
3.240042
 40
4.176095
 40
4.919724
 40
5.385789
 40
6.102549
 40
7.359634
 40
8.652276
 40
9.506468
 40
10.227158
 40
11.602466
 40
13.157506
 40
14.344439
 40
14.728445
 40
14.988563
 40
15.419668
 40
15.952560
 40
16.856252
 40
18.912377
 40
20.939994
 40
22.129355
 40
23.164301
 40
23.164301
 40
23.164301
 40
23.164301
 10
192.955187
 20
126.313255
 30
0.0
 10
193.170112
 20
126.455447
 30
0.0
 10
193.596163
 20
126.737317
 30
0.0
 10
194.118101
 20
127.221543
 30
0.0
 10
194.631111
 20
127.874839
 30
0.0
 10
194.862132
 20
128.755349
 30
0.0
 10
194.822824
 20
129.706863
 30
0.0
 10
194.309814
 20
130.337494
 30
0.0
 10
193.621446
 20
130.342853
 30
0.0
 10
192.920019
 20
129.894385
 30
0.0
 10
192.066925
 20
129.228350
 30
0.0
 10
191.179818
 20
128.526557
 30
0.0
 10
190.332691
 20
128.037703
 30
0.0
 10
189.337924
 20
127.968314
 30
0.0
 10
188.134294
 20
127.837750
 30
0.0
 10
186.793126
 20
127.460332
 30
0.0
 10
185.860562
 20
127.055617
 30
0.0
 10
185.316662
 20
126.693745
 30
0.0
 10
185.273572
 20
126.303948
 30
0.0
 10
185.514389
 20
125.958164
 30
0.0
 10
185.932162
 20
125.458283
 30
0.0
 10
187.204131
 20
125.513946
 30
0.0
 10
188.803671
 20
125.526039
 30
0.0
 10
190.572540
 20
125.595754
 30
0.0
 10
191.995508
 20
125.784866
 30
0.0
 10
192.650450
 20
126.145470
 30
0.0
 10
192.955187
 20
126.313255
 30
0.0
 11
192.955187
 21
126.313255
 31
0.0
 11
193.587067
 21
126.756725
 31
0.0
 11
194.141675
 21
127.273892
 31
0.0
 11
194.498941
 21
127.752795
 31
0.0
 11
194.816278
 21
128.818831
 31
0.0
 11
194.702743
 21
129.747973
 31
0.0
 11
194.189402
 21
130.285992
 31
0.0
 11
193.723851
 21
130.307890
 31
0.0
 11
193.082201
 21
129.988470
 31
0.0
 11
192.076553
 21
129.234191
 31
0.0
 11
191.038461
 21
128.463941
 31
0.0
 11
190.273902
 21
128.083030
 31
0.0
 11
189.560516
 21
127.980678
 31
0.0
 11
188.196080
 21
127.808091
 31
0.0
 11
186.697395
 21
127.393252
 31
0.0
 11
185.622180
 21
126.890536
 31
0.0
 11
185.338690
 21
126.631511
 31
0.0
 11
185.303604
 21
126.373770
 31
0.0
 11
185.499562
 21
125.989775
 31
0.0
 11
185.876992
 21
125.613583
 31
0.0
 11
186.772448
 21
125.491851
 31
0.0
 11
188.828070
 21
125.537285
 31
0.0
 11
190.852728
 21
125.646781
 31
0.0
 11
192.021609
 21
125.866551
 31
0.0
 11
192.955187
 21
126.313255
 31
0.0
  0
LINE
  5
130
100
AcDbEntity
  8
0
 62
7
100
AcDbLine
 10
248.151198
 20
126.789928
 30
0.0
 11
248.151198
 21
126.789928
 31
0.0
  0
SPLINE
  5
131
100
AcDbEntity
  8
0
 62
7
100
AcDbSpline
 70
0
 71
3
 72
16
 73
12
 74
10
 40
0.000000
 40
0.000000
 40
0.000000
 40
0.000000
 40
0.417269
 40
0.714141
 40
1.099711
 40
1.384449
 40
1.560167
 40
1.786059
 40
2.002715
 40
2.188657
 40
2.345600
 40
2.345600
 40
2.345600
 40
2.345600
 10
248.151198
 20
126.789928
 30
0.0
 10
248.087853
 20
126.928354
 30
0.0
 10
247.979442
 20
127.165263
 30
0.0
 10
247.517516
 20
127.145227
 30
0.0
 10
247.447397
 20
126.766548
 30
0.0
 10
247.453111
 20
126.485241
 30
0.0
 10
247.630729
 20
126.293414
 30
0.0
 10
247.855983
 20
126.362792
 30
0.0
 10
248.031265
 20
126.463627
 30
0.0
 10
248.161799
 20
126.618506
 30
0.0
 10
248.154527
 20
126.736103
 30
0.0
 10
248.151198
 20
126.789928
 30
0.0
 11
248.151198
 21
126.789928
 31
0.0
 11
247.895767
 21
127.119881
 31
0.0
 11
247.599656
 21
127.098632
 31
0.0
 11
247.457664
 21
126.740160
 31
0.0
 11
247.498225
 21
126.458326
 31
0.0
 11
247.625859
 21
126.337552
 31
0.0
 11
247.849496
 21
126.369389
 31
0.0
 11
248.034514
 21
126.482121
 31
0.0
 11
248.142902
 21
126.633205
 31
0.0
 11
248.151198
 21
126.789928
 31
0.0
  0
ENDSEC
  0
SECTION
  2
OBJECTS
  0
DICTIONARY
  5
C
330
0
100
AcDbDictionary
  3
ACAD_GROUP
350
D
  3
ACAD_MLINESTYLE
350
17
  0
DICTIONARY
  5
D
330
C
100
AcDbDictionary
  0
DICTIONARY
  5
1A
330
C
100
AcDbDictionary
  0
DICTIONARY
  5
17
330
C
100
AcDbDictionary
  3
STANDARD
350
18
  0
DICTIONARY
  5
19
330
C
100
AcDbDictionary
  0
ENDSEC
  0
EOF
