  0
SECTION
  2
HEADER
  9
$ACADVER
  1
AC1014
  9
$HANDSEED
  5
FFFF
  9
$MEASUREMENT
 70
     1
  0
ENDSEC
  0
SECTION
  2
TABLES
  0
TABLE
  2
VPORT
  5
8
330
0
100
AcDbSymbolTable
 70
     4
  0
VPORT
  5
2E
330
8
100
AcDbSymbolTableRecord
100
AcDbViewportTableRecord
  2
*ACTIVE
 70
     0
 10
0.0
 20
0.0
 11
1.0
 21
1.0
 12
210.0
 22
148.5
 13
0.0
 23
0.0
 14
10.0
 24
10.0
 15
10.0
 25
10.0
 16
0.0
 26
0.0
 36
1.0
 17
0.0
 27
0.0
 37
0.0
 40
341.0
 41
1.24
 42
50.0
 43
0.0
 44
0.0
 50
0.0
 51
0.0
 71
     0
 72
   100
 73
     1
 74
     3
 75
     0
 76
     0
 77
     0
 78
     0
  0
ENDTAB
  0
TABLE
  2
LTYPE
  5
5
330
0
100
AcDbSymbolTable
 70
     1
  0
LTYPE
  5
14
330
5
100
AcDbSymbolTableRecord
100
AcDbLinetypeTableRecord
  2
BYBLOCK
 70
     0
  3

 72
    65
 73
     0
 40
0.0
  0
LTYPE
  5
15
330
5
100
AcDbSymbolTableRecord
100
AcDbLinetypeTableRecord
  2
BYLAYER
 70
     0
  3

 72
    65
 73
     0
 40
0.0
  0
LTYPE
  5
16
330
5
100
AcDbSymbolTableRecord
100
AcDbLinetypeTableRecord
  2
CONTINUOUS
 70
     0
  3
Solid line
 72
    65
 73
     0
 40
0.0
  0
ENDTAB
  0
TABLE
  2
LAYER
  5
2
100
AcDbSymbolTable
 70
1
  0
LAYER
  5
50
100
AcDbSymbolTableRecord
100
AcDbLayerTableRecord
  2
0
 70
0
  6
CONTINUOUS
  0
ENDTAB
  0
TABLE
  2
STYLE
  5
3
330
0
100
AcDbSymbolTable
 70
     1
  0
STYLE
  5
11
330
3
100
AcDbSymbolTableRecord
100
AcDbTextStyleTableRecord
  2
STANDARD
 70
     0
 40
0.0
 41
1.0
 50
0.0
 71
     0
 42
2.5
  3
txt
  4

  0
ENDTAB
  0
TABLE
  2
VIEW
  5
6
330
0
100
AcDbSymbolTable
 70
     0
  0
ENDTAB
  0
TABLE
  2
UCS
  5
7
330
0
100
AcDbSymbolTable
 70
     0
  0
ENDTAB
  0
TABLE
  2
APPID
  5
9
330
0
100
AcDbSymbolTable
 70
     2
  0
APPID
  5
12
330
9
100
AcDbSymbolTableRecord
100
AcDbRegAppTableRecord
  2
ACAD
 70
     0
  0
ENDTAB
  0
TABLE
  2
DIMSTYLE
  5
A
330
0
100
AcDbSymbolTable
 70
     1
  0
DIMSTYLE
105
27
330
A
100
AcDbSymbolTableRecord
100
AcDbDimStyleTableRecord
  2
ISO-25
 70
     0
  3

  4

  5

  6

  7

 40
1.0
 41
2.5
 42
0.625
 43
3.75
 44
1.25
 45
0.0
 46
0.0
 47
0.0
 48
0.0
140
2.5
141
2.5
142
0.0
143
0.03937007874016
144
1.0
145
0.0
146
1.0
147
0.625
 71
     0
 72
     0
 73
     0
 74
     0
 75
     0
 76
     0
 77
     1
 78
     8
170
     0
171
     3
172
     1
173
     0
174
     0
175
     0
176
     0
177
     0
178
     0
270
     2
271
     2
272
     2
273
     2
274
     3
340
11
275
     0
280
     0
281
     0
282
     0
283
     0
284
     8
285
     0
286
     0
287
     3
288
     0
  0
ENDTAB
  0
TABLE
  2
BLOCK_RECORD
  5
1
330
0
100
AcDbSymbolTable
 70
     1
  0
BLOCK_RECORD
  5
1F
330
1
100
AcDbSymbolTableRecord
100
AcDbBlockTableRecord
  2
*MODEL_SPACE
  0
BLOCK_RECORD
  5
1B
330
1
100
AcDbSymbolTableRecord
100
AcDbBlockTableRecord
  2
*PAPER_SPACE
  0
ENDTAB
  0
ENDSEC
  0
SECTION
  2
BLOCKS
  0
BLOCK
  5
20
330
1F
100
AcDbEntity
  8
0
100
AcDbBlockBegin
  2
*MODEL_SPACE
 70
     0
 10
0.0
 20
0.0
 30
0.0
  3
*MODEL_SPACE
  1

  0
ENDBLK
  5
21
330
1F
100
AcDbEntity
  8
0
100
AcDbBlockEnd
  0
BLOCK
  5
1C
330
1B
100
AcDbEntity
 67
     1
  8
0
100
AcDbBlockBegin
  2
*PAPER_SPACE
  1

  0
ENDBLK
  5
1D
330
1B
100
AcDbEntity
 67
     1
  8
0
100
AcDbBlockEnd
  0
ENDSEC
  0
SECTION
  2
ENTITIES
  0
LINE
  5
100
100
AcDbEntity
  8
0
 62
7
100
AcDbLine
 10
136.932557
 20
83.730098
 30
0.0
 11
135.034650
 21
82.802250
 31
0.0
  0
LINE
  5
101
100
AcDbEntity
  8
0
 62
7
100
AcDbLine
 10
135.034650
 20
82.802250
 30
0.0
 11
132.621049
 21
83.033694
 31
0.0
  0
SPLINE
  5
102
100
AcDbEntity
  8
0
 62
7
100
AcDbSpline
 70
0
 71
3
 72
55
 73
51
 74
49
 40
0.000000
 40
0.000000
 40
0.000000
 40
0.000000
 40
0.552194
 40
1.875010
 40
3.683742
 40
5.653294
 40
7.399259
 40
8.547586
 40
9.540987
 40
10.871817
 40
12.251964
 40
13.671368
 40
15.105178
 40
16.243062
 40
17.226970
 40
18.258821
 40
19.117450
 40
21.849555
 40
26.422629
 40
31.491670
 40
34.491677
 40
37.091680
 40
39.139623
 40
39.977629
 40
41.115915
 40
42.314183
 40
45.314158
 40
48.718476
 40
51.374969
 40
52.426073
 40
53.860575
 40
55.707950
 40
57.559575
 40
58.900460
 40
59.831396
 40
60.640637
 40
61.463376
 40
62.699542
 40
63.792322
 40
64.881657
 40
65.743942
 40
66.632574
 40
67.328151
 40
68.366967
 40
70.612713
 40
72.761163
 40
75.236859
 40
78.230432
 40
80.407322
 40
82.696408
 40
82.696408
 40
82.696408
 40
82.696408
 10
211.858314
 20
55.725778
 30
0.0
 10
211.677187
 20
55.758900
 30
0.0
 10
211.062158
 20
55.871368
 30
0.0
 10
209.836120
 20
55.966868
 30
0.0
 10
208.142275
 20
56.105120
 30
0.0
 10
206.307233
 20
56.265624
 30
0.0
 10
204.699022
 20
56.470381
 30
0.0
 10
203.421974
 20
56.705210
 30
0.0
 10
202.318497
 20
57.058981
 30
0.0
 10
201.130453
 20
57.394603
 30
0.0
 10
199.808055
 20
57.778094
 30
0.0
 10
198.453745
 20
58.174354
 30
0.0
 10
197.178556
 20
58.553673
 30
0.0
 10
196.049492
 20
58.914479
 30
0.0
 10
195.039092
 20
59.204676
 30
0.0
 10
194.108983
 20
59.437755
 30
0.0
 10
192.580083
 20
59.658641
 30
0.0
 10
190.056391
 20
60.755469
 30
0.0
 10
186.362339
 20
62.561217
 30
0.0
 10
182.714567
 20
64.686092
 30
0.0
 10
179.646086
 20
66.478567
 30
0.0
 10
177.358513
 20
67.623406
 30
0.0
 10
175.614653
 20
68.181199
 30
0.0
 10
174.350623
 20
68.632883
 30
0.0
 10
173.401054
 20
69.105450
 30
0.0
 10
171.863511
 20
69.999562
 30
0.0
 10
169.658498
 20
71.247863
 30
0.0
 10
166.972803
 20
72.639347
 30
0.0
 10
164.773594
 20
73.524095
 30
0.0
 10
163.234906
 20
74.290622
 30
0.0
 10
162.091453
 20
75.185048
 30
0.0
 10
160.822088
 20
76.331147
 30
0.0
 10
159.582241
 20
77.461662
 30
0.0
 10
158.492444
 20
78.314546
 30
0.0
 10
157.562129
 20
78.754090
 30
0.0
 10
156.731044
 20
79.008177
 30
0.0
 10
156.041321
 20
79.710002
 30
0.0
 10
155.497325
 20
80.604797
 30
0.0
 10
154.834393
 20
81.533657
 30
0.0
 10
154.167431
 20
82.303523
 30
0.0
 10
153.457118
 20
82.927422
 30
0.0
 10
152.773808
 20
83.398723
 30
0.0
 10
151.892933
 20
83.564263
 30
0.0
 10
150.577692
 20
83.322348
 30
0.0
 10
148.771676
 20
83.167376
 30
0.0
 10
146.475398
 20
83.350665
 30
0.0
 10
144.010801
 20
83.978421
 30
0.0
 10
141.554579
 20
84.667473
 30
0.0
 10
139.005438
 20
84.668184
 30
0.0
 10
137.634993
 20
84.047987
 30
0.0
 10
136.932557
 20
83.730098
 30
0.0
 11
211.858314
 21
55.725778
 31
0.0
 11
211.314150
 21
55.819606
 31
0.0
 11
209.998274
 21
55.954929
 31
0.0
 11
208.195568
 21
56.102452
 31
0.0
 11
206.234563
 21
56.285738
 31
0.0
 11
204.503692
 21
56.514820
 31
0.0
 11
203.377680
 21
56.740103
 31
0.0
 11
202.424472
 21
57.019818
 31
0.0
 11
201.146628
 21
57.391602
 31
0.0
 11
199.820794
 21
57.774965
 31
0.0
 11
198.458639
 21
58.174021
 31
0.0
 11
197.085575
 21
58.586941
 31
0.0
 11
195.998861
 21
58.924333
 31
0.0
 11
195.052919
 21
59.195015
 31
0.0
 11
194.048898
 21
59.433044
 31
0.0
 11
193.204165
 21
59.586892
 31
0.0
 11
190.636327
 21
60.519958
 31
0.0
 11
186.532060
 21
62.536885
 31
0.0
 11
182.120544
 21
65.033624
 31
0.0
 11
179.512555
 21
66.516336
 31
0.0
 11
177.166090
 21
67.636211
 31
0.0
 11
175.235525
 21
68.319574
 31
0.0
 11
174.450267
 21
68.612192
 31
0.0
 11
173.425096
 21
69.106882
 31
0.0
 11
172.381956
 21
69.696548
 31
0.0
 11
169.766816
 21
71.166544
 31
0.0
 11
166.726626
 21
72.698416
 31
0.0
 11
164.296186
 21
73.770758
 31
0.0
 11
163.365339
 21
74.258962
 31
0.0
 11
162.210832
 21
75.110378
 31
0.0
 11
160.824305
 21
76.331171
 31
0.0
 11
159.436958
 21
77.557460
 31
0.0
 11
158.354298
 21
78.348547
 31
0.0
 11
157.514264
 21
78.749777
 31
0.0
 11
156.769046
 21
79.065247
 31
0.0
 11
156.163055
 21
79.621730
 31
0.0
 11
155.458579
 21
80.637516
 31
0.0
 11
154.819967
 21
81.524275
 31
0.0
 11
154.098834
 21
82.340743
 31
0.0
 11
153.451301
 21
82.910160
 31
0.0
 11
152.691713
 21
83.371347
 31
0.0
 11
152.009700
 21
83.508041
 31
0.0
 11
150.975878
 21
83.406304
 31
0.0
 11
148.737224
 21
83.227961
 31
0.0
 11
146.595479
 21
83.397561
 31
0.0
 11
144.180928
 21
83.944384
 31
0.0
 11
141.256713
 21
84.585043
 31
0.0
 11
139.080774
 21
84.520715
 31
0.0
 11
136.932557
 21
83.730098
 31
0.0
  0
LINE
  5
103
100
AcDbEntity
  8
0
 62
7
100
AcDbLine
 10
269.100518
 20
108.647414
 30
0.0
 11
269.180078
 21
107.539323
 31
0.0
  0
LINE
  5
104
100
AcDbEntity
  8
0
 62
7
100
AcDbLine
 10
269.180078
 20
107.539323
 30
0.0
 11
271.249093
 21
107.367802
 31
0.0
  0
SPLINE
  5
105
100
AcDbEntity
  8
0
 62
7
100
AcDbSpline
 70
0
 71
3
 72
178
 73
174
 74
172
 40
0.000000
 40
0.000000
 40
0.000000
 40
0.000000
 40
1.417460
 40
2.804653
 40
3.864095
 40
4.882975
 40
6.168463
 40
7.448829
 40
8.950000
 40
10.023126
 40
11.249808
 40
12.376206
 40
13.165910
 40
13.943783
 40
14.640891
 40
15.262122
 40
15.901734
 40
17.511814
 40
19.442523
 40
20.883662
 40
22.418734
 40
24.801341
 40
27.452822
 40
28.913897
 40
30.022997
 40
31.445967
 40
32.762593
 40
33.615022
 40
34.372486
 40
35.249014
 40
36.599896
 40
38.997417
 40
41.740918
 40
44.013458
 40
47.506211
 40
50.198413
 40
52.591698
 40
54.168365
 40
55.282247
 40
56.463007
 40
57.457054
 40
60.353250
 40
63.110832
 40
66.315650
 40
68.265539
 40
70.153168
 40
71.572089
 40
73.100195
 40
75.196936
 40
77.689098
 40
80.634426
 40
82.583473
 40
84.652235
 40
88.749484
 40
92.441257
 40
95.711606
 40
99.501205
 40
102.133692
 40
105.526710
 40
111.538004
 40
116.781403
 40
122.889845
 40
125.187335
 40
127.270499
 40
128.742776
 40
132.069681
 40
136.621339
 40
140.783998
 40
143.323327
 40
145.964354
 40
148.056872
 40
149.137922
 40
151.193781
 40
153.779458
 40
158.755860
 40
163.350713
 40
168.378671
 40
173.378680
 40
179.558510
 40
184.036817
 40
189.693058
 40
198.227785
 40
203.990896
 40
205.898807
 40
209.137275
 40
215.380238
 40
219.500900
 40
224.303724
 40
230.844260
 40
234.519643
 40
237.588667
 40
239.789047
 40
241.623801
 40
243.834625
 40
245.942917
 40
248.096607
 40
250.428102
 40
252.434538
 40
254.336204
 40
256.392239
 40
258.158928
 40
260.766020
 40
264.307603
 40
270.114395
 40
272.311713
 40
274.128002
 40
275.751472
 40
280.837815
 40
286.368559
 40
293.088232
 40
296.968841
 40
301.095159
 40
309.531380
 40
311.868593
 40
313.860722
 40
315.589601
 40
318.070147
 40
319.530878
 40
321.045915
 40
323.307468
 40
325.684172
 40
328.939587
 40
332.881758
 40
336.606742
 40
339.241028
 40
339.976019
 40
340.868111
 40
341.739965
 40
342.795323
 40
343.625091
 40
344.833994
 40
348.507980
 40
352.240290
 40
355.512478
 40
356.544584
 40
357.537491
 40
358.191257
 40
358.786689
 40
359.644481
 40
360.666835
 40
362.361391
 40
364.234792
 40
366.790876
 40
368.249404
 40
369.933486
 40
371.590121
 40
373.494727
 40
376.158128
 40
378.684082
 40
381.118132
 40
383.860412
 40
386.270894
 40
389.353106
 40
392.196762
 40
394.892593
 40
395.851494
 40
396.364330
 40
396.998265
 40
397.634238
 40
398.241267
 40
399.233673
 40
401.837872
 40
403.930247
 40
405.853377
 40
408.297445
 40
410.566779
 40
412.427330
 40
415.278256
 40
418.090484
 40
420.536828
 40
421.215227
 40
421.978271
 40
422.672507
 40
422.672507
 40
422.672507
 40
422.672507
 10
132.621049
 20
83.033694
 30
0.0
 10
132.151649
 20
83.087254
 30
0.0
 10
131.222870
 20
83.193231
 30
0.0
 10
129.948502
 20
83.389502
 30
0.0
 10
128.824490
 20
83.656906
 30
0.0
 10
127.725776
 20
83.884845
 30
0.0
 10
126.534654
 20
84.004474
 30
0.0
 10
125.180223
 20
84.055667
 30
0.0
 10
123.892956
 20
84.049830
 30
0.0
 10
122.635927
 20
83.810956
 30
0.0
 10
121.610005
 20
83.291553
 30
0.0
 10
120.676059
 20
82.822947
 30
0.0
 10
119.794452
 20
82.579438
 30
0.0
 10
119.036188
 20
82.668204
 30
0.0
 10
118.342459
 20
82.744153
 30
0.0
 10
117.683348
 20
82.659901
 30
0.0
 10
116.820354
 20
82.227336
 30
0.0
 10
115.428430
 20
82.009512
 30
0.0
 10
113.727661
 20
82.031523
 30
0.0
 10
112.236739
 20
82.735814
 30
0.0
 10
110.511329
 20
83.282872
 30
0.0
 10
108.287127
 20
82.974056
 30
0.0
 10
106.196086
 20
82.443814
 30
0.0
 10
104.582906
 20
81.765510
 30
0.0
 10
103.253115
 20
81.568881
 30
0.0
 10
101.968868
 20
81.680985
 30
0.0
 10
100.780565
 20
81.764489
 30
0.0
 10
99.787870
 20
81.706541
 30
0.0
 10
99.041720
 20
81.326844
 30
0.0
 10
98.112966
 20
80.952956
 30
0.0
 10
96.552707
 20
80.884077
 30
0.0
 10
94.400116
 20
80.844088
 30
0.0
 10
91.920147
 20
80.869209
 30
0.0
 10
89.109639
 20
80.427358
 30
0.0
 10
86.388507
 20
79.684722
 30
0.0
 10
83.613421
 20
78.996431
 30
0.0
 10
81.456026
 20
78.468940
 30
0.0
 10
79.799771
 20
78.110143
 30
0.0
 10
78.537903
 20
77.839982
 30
0.0
 10
77.477187
 20
77.559745
 30
0.0
 10
75.870508
 20
77.035788
 30
0.0
 10
73.761076
 20
76.334988
 30
0.0
 10
70.807880
 20
75.989724
 30
0.0
 10
68.169704
 20
76.117943
 30
0.0
 10
65.826871
 20
76.251403
 30
0.0
 10
64.074088
 20
76.298323
 30
0.0
 10
62.463458
 20
76.240774
 30
0.0
 10
60.781267
 20
76.223623
 30
0.0
 10
58.746403
 20
76.383761
 30
0.0
 10
56.251627
 20
76.668953
 30
0.0
 10
53.808177
 20
76.974898
 30
0.0
 10
51.535961
 20
77.490151
 30
0.0
 10
49.041523
 20
78.555355
 30
0.0
 10
46.072907
 20
79.959228
 30
0.0
 10
42.867959
 20
81.801716
 30
0.0
 10
40.013916
 20
83.974560
 30
0.0
 10
37.533834
 20
86.056774
 30
0.0
 10
35.432463
 20
88.596425
 30
0.0
 10
33.656733
 20
92.209139
 30
0.0
 10
31.541123
 20
96.635292
 30
0.0
 10
30.594385
 20
102.426565
 30
0.0
 10
31.015254
 20
106.982592
 30
0.0
 10
31.536301
 20
110.439662
 30
0.0
 10
31.910054
 20
112.352815
 30
0.0
 10
32.444853
 20
114.594299
 30
0.0
 10
34.080701
 20
117.298529
 30
0.0
 10
36.302198
 20
120.617732
 30
0.0
 10
38.602865
 20
123.607908
 30
0.0
 10
40.918380
 20
125.701156
 30
0.0
 10
42.852160
 20
127.169793
 30
0.0
 10
44.540169
 20
128.136938
 30
0.0
 10
46.142937
 20
128.823674
 30
0.0
 10
47.868178
 20
129.638058
 30
0.0
 10
50.767432
 20
131.004155
 30
0.0
 10
54.483022
 20
132.641408
 30
0.0
 10
59.174497
 20
133.977440
 30
0.0
 10
63.988107
 20
134.821972
 30
0.0
 10
69.390928
 20
135.062808
 30
0.0
 10
74.613866
 20
135.165038
 30
0.0
 10
80.039358
 20
134.756402
 30
0.0
 10
86.259528
 20
134.492120
 30
0.0
 10
92.906250
 20
134.582888
 30
0.0
 10
98.322065
 20
134.627848
 30
0.0
 10
101.923520
 20
135.150953
 30
0.0
 10
105.710920
 20
135.434870
 30
0.0
 10
110.232278
 20
135.755550
 30
0.0
 10
115.265005
 20
136.274018
 30
0.0
 10
120.327224
 20
137.275400
 30
0.0
 10
125.188355
 20
138.469636
 30
0.0
 10
129.495862
 20
139.497874
 30
0.0
 10
132.416450
 20
140.102338
 30
0.0
 10
134.759886
 20
140.454656
 30
0.0
 10
136.834780
 20
140.631784
 30
0.0
 10
138.874820
 20
140.845986
 30
0.0
 10
141.019414
 20
141.083126
 30
0.0
 10
143.208825
 20
141.277418
 30
0.0
 10
145.369294
 20
141.407951
 30
0.0
 10
147.448805
 20
141.455800
 30
0.0
 10
149.436680
 20
141.484470
 30
0.0
 10
151.343164
 20
141.575824
 30
0.0
 10
153.479595
 20
141.747418
 30
0.0
 10
156.107659
 20
141.986754
 30
0.0
 10
160.091578
 20
142.131127
 30
0.0
 10
163.938960
 20
142.214648
 30
0.0
 10
167.210030
 20
142.339078
 30
0.0
 10
169.082726
 20
142.533335
 30
0.0
 10
171.858234
 20
143.154802
 30
0.0
 10
175.829922
 20
144.096100
 30
0.0
 10
181.572355
 20
144.832265
 30
0.0
 10
186.933023
 20
145.197185
 30
0.0
 10
191.838441
 20
145.541596
 30
0.0
 10
197.313670
 20
145.106467
 30
0.0
 10
202.247437
 20
144.577180
 30
0.0
 10
206.474308
 20
144.073310
 30
0.0
 10
208.461028
 20
143.704820
 30
0.0
 10
210.458817
 20
143.150050
 30
0.0
 10
212.212321
 20
142.484588
 30
0.0
 10
214.146450
 20
142.442998
 30
0.0
 10
215.488516
 20
143.675059
 30
0.0
 10
217.106705
 20
144.941272
 30
0.0
 10
219.726536
 20
145.586391
 30
0.0
 10
222.912333
 20
145.660407
 30
0.0
 10
226.566606
 20
145.446341
 30
0.0
 10
229.918101
 20
144.840254
 30
0.0
 10
232.292212
 20
144.307297
 30
0.0
 10
233.435299
 20
143.446979
 30
0.0
 10
234.021541
 20
142.850683
 30
0.0
 10
234.581632
 20
142.097580
 30
0.0
 10
235.088504
 20
141.316138
 30
0.0
 10
235.304656
 20
140.289824
 30
0.0
 10
235.172585
 20
138.378219
 30
0.0
 10
234.324511
 20
135.588894
 30
0.0
 10
232.142854
 20
132.622341
 30
0.0
 10
229.713612
 20
131.378247
 30
0.0
 10
228.005926
 20
130.838097
 30
0.0
 10
227.299682
 20
130.339330
 30
0.0
 10
226.734305
 20
129.679228
 30
0.0
 10
227.181778
 20
128.997905
 30
0.0
 10
227.850079
 20
128.547510
 30
0.0
 10
228.957863
 20
128.065653
 30
0.0
 10
230.585800
 20
128.051838
 30
0.0
 10
232.292052
 20
129.375086
 30
0.0
 10
233.209575
 20
131.115634
 30
0.0
 10
234.262505
 20
132.708377
 30
0.0
 10
235.426498
 20
133.810818
 30
0.0
 10
236.801804
 20
134.930817
 30
0.0
 10
238.849830
 20
135.466259
 30
0.0
 10
241.180407
 20
135.780166
 30
0.0
 10
243.741998
 20
135.908588
 30
0.0
 10
246.261692
 20
135.303476
 30
0.0
 10
248.613442
 20
134.366238
 30
0.0
 10
251.006983
 20
132.978379
 30
0.0
 10
252.892390
 20
130.854523
 30
0.0
 10
254.037352
 20
128.162006
 30
0.0
 10
254.049738
 20
125.913164
 30
0.0
 10
253.610126
 20
124.594099
 30
0.0
 10
253.699629
 20
123.849597
 30
0.0
 10
254.203213
 20
123.477318
 30
0.0
 10
254.678118
 20
123.056842
 30
0.0
 10
255.449842
 20
122.964638
 30
0.0
 10
256.828041
 20
123.180827
 30
0.0
 10
258.724383
 20
123.350959
 30
0.0
 10
260.945246
 20
123.178473
 30
0.0
 10
262.980196
 20
122.414125
 30
0.0
 10
264.884830
 20
121.277706
 30
0.0
 10
266.651305
 20
119.975990
 30
0.0
 10
268.292422
 20
118.294459
 30
0.0
 10
269.361058
 20
115.977869
 30
0.0
 10
269.938946
 20
113.295940
 30
0.0
 10
269.612138
 20
111.303677
 30
0.0
 10
269.201790
 20
110.074298
 30
0.0
 10
269.098540
 20
109.364873
 30
0.0
 10
269.099879
 20
108.878919
 30
0.0
 10
269.100518
 20
108.647414
 30
0.0
 11
132.621049
 21
83.033694
 31
0.0
 11
131.213821
 21
83.203693
 31
0.0
 11
129.844701
 21
83.426888
 31
0.0
 11
128.810099
 21
83.654959
 31
0.0
 11
127.810313
 21
83.851286
 31
0.0
 11
126.532469
 21
83.991259
 31
0.0
 11
125.253213
 21
84.044577
 31
0.0
 11
123.752845
 21
83.995493
 31
0.0
 11
122.702372
 21
83.776165
 31
0.0
 11
121.581423
 21
83.277944
 31
0.0
 11
120.556085
 21
82.811623
 31
0.0
 11
119.787569
 21
82.629922
 31
0.0
 11
119.010737
 21
82.670154
 31
0.0
 11
118.315251
 21
82.717685
 31
0.0
 11
117.700565
 21
82.627744
 31
0.0
 11
117.106189
 21
82.391481
 31
0.0
 11
115.529021
 21
82.067603
 31
0.0
 11
113.602037
 21
82.187477
 31
0.0
 11
112.252625
 21
82.693411
 31
0.0
 11
110.774226
 21
83.106671
 31
0.0
 11
108.396932
 21
82.947648
 31
0.0
 11
105.835069
 21
82.264124
 31
0.0
 11
104.454168
 21
81.786783
 31
0.0
 11
103.357316
 21
81.622409
 31
0.0
 11
101.935502
 21
81.679736
 31
0.0
 11
100.620296
 21
81.740876
 31
0.0
 11
99.773313
 21
81.644672
 31
0.0
 11
99.073565
 21
81.354664
 31
0.0
 11
98.251524
 21
81.050443
 31
0.0
 11
96.908612
 21
80.903916
 31
0.0
 11
94.511553
 21
80.856895
 31
0.0
 11
91.768921
 21
80.787799
 31
0.0
 11
89.520355
 21
80.458582
 31
0.0
 11
86.127462
 21
79.629361
 31
0.0
 11
83.516257
 21
78.973957
 31
0.0
 11
81.188754
 21
78.416692
 31
0.0
 11
79.648848
 21
78.078212
 31
0.0
 11
78.561551
 21
77.836308
 31
0.0
 11
77.420619
 21
77.532224
 31
0.0
 11
76.473057
 21
77.231794
 31
0.0
 11
73.693267
 21
76.418950
 31
0.0
 11
70.956902
 21
76.077530
 31
0.0
 11
67.752768
 21
76.143751
 31
0.0
 11
65.805389
 21
76.242650
 31
0.0
 11
63.918131
 21
76.280061
 31
0.0
 11
62.499575
 21
76.247883
 31
0.0
 11
60.971473
 21
76.244611
 31
0.0
 11
58.879409
 21
76.384593
 31
0.0
 11
56.402056
 21
76.655873
 31
0.0
 11
53.486545
 21
77.073905
 31
0.0
 11
51.592931
 21
77.535436
 31
0.0
 11
49.669378
 21
78.296829
 31
0.0
 11
45.975261
 21
80.069103
 31
0.0
 11
42.793491
 21
81.941407
 31
0.0
 11
40.166251
 21
83.888917
 31
0.0
 11
37.331188
 21
86.403570
 31
0.0
 11
35.671852
 21
88.447241
 31
0.0
 11
34.046780
 21
91.425783
 31
0.0
 11
31.718880
 21
96.968033
 31
0.0
 11
30.848287
 21
102.138652
 31
0.0
 11
31.216394
 21
108.235992
 31
0.0
 11
31.564037
 21
110.507029
 31
0.0
 11
31.965966
 21
112.551050
 31
0.0
 11
32.344654
 21
113.973792
 31
0.0
 11
33.879857
 21
116.925309
 31
0.0
 11
36.421385
 21
120.701315
 31
0.0
 11
39.046934
 21
123.931521
 31
0.0
 11
40.915650
 21
125.650849
 31
0.0
 11
43.033981
 21
127.228093
 31
0.0
 11
44.856134
 21
128.256874
 31
0.0
 11
45.842301
 21
128.699755
 31
0.0
 11
47.708416
 21
129.562410
 31
0.0
 11
50.050474
 21
130.658078
 31
0.0
 11
54.640300
 21
132.581116
 31
0.0
 11
59.052505
 21
133.863735
 31
0.0
 11
64.007800
 21
134.715448
 31
0.0
 11
68.998115
 21
135.026649
 31
0.0
 11
75.177838
 21
135.063002
 31
0.0
 11
79.648848
 21
134.807460
 31
0.0
 11
85.300312
 21
134.575037
 31
0.0
 11
93.835032
 21
134.586455
 31
0.0
 11
99.592817
 21
134.834140
 31
0.0
 11
101.485985
 21
135.070870
 31
0.0
 11
104.711657
 21
135.358477
 31
0.0
 11
110.935595
 21
135.845484
 31
0.0
 11
115.030120
 21
136.308868
 31
0.0
 11
119.750885
 21
137.192890
 31
0.0
 11
126.118104
 21
138.688596
 31
0.0
 11
129.697021
 21
139.525134
 31
0.0
 11
132.706071
 21
140.128893
 31
0.0
 11
134.883290
 21
140.447310
 31
0.0
 11
136.709274
 21
140.626485
 31
0.0
 11
138.908605
 21
140.851624
 31
0.0
 11
141.005137
 21
141.073986
 31
0.0
 11
143.150561
 21
141.262500
 31
0.0
 11
145.478063
 21
141.398900
 31
0.0
 11
147.483751
 21
141.453655
 31
0.0
 11
149.384992
 21
141.493918
 31
0.0
 11
151.438670
 21
141.592305
 31
0.0
 11
153.200177
 21
141.727523
 31
0.0
 11
155.798725
 21
141.938422
 31
0.0
 11
159.336744
 21
142.097276
 31
0.0
 11
165.141152
 21
142.263661
 31
0.0
 11
167.335889
 21
142.370118
 31
0.0
 11
169.140376
 21
142.576836
 31
0.0
 11
170.730546
 21
142.903969
 31
0.0
 11
175.702198
 21
143.978012
 31
0.0
 11
181.181273
 21
144.732239
 31
0.0
 11
187.879819
 21
145.264669
 31
0.0
 11
191.756370
 21
145.442094
 31
0.0
 11
195.876056
 21
145.208238
 31
0.0
 11
204.266902
 21
144.334444
 31
0.0
 11
206.584562
 21
144.032746
 31
0.0
 11
208.541178
 21
143.658271
 31
0.0
 11
210.207518
 21
143.197477
 31
0.0
 11
212.598304
 21
142.536226
 31
0.0
 11
214.056769
 21
142.617558
 31
0.0
 11
215.301311
 21
143.481533
 31
0.0
 11
217.152411
 21
144.780784
 31
0.0
 11
219.435758
 21
145.440364
 31
0.0
 11
222.686493
 21
145.614858
 31
0.0
 11
226.620582
 21
145.362555
 31
0.0
 11
230.293265
 21
144.740539
 31
0.0
 11
232.791040
 21
143.903528
 31
0.0
 11
233.381986
 21
143.466500
 31
0.0
 11
234.010077
 21
142.832994
 31
0.0
 11
234.539335
 21
142.140162
 31
0.0
 11
235.062631
 21
141.223679
 31
0.0
 11
235.246767
 21
140.414600
 31
0.0
 11
235.207032
 21
139.206351
 31
0.0
 11
234.137311
 21
135.691543
 31
0.0
 11
231.854016
 21
132.739137
 31
0.0
 11
228.986490
 21
131.162903
 31
0.0
 11
228.024184
 21
130.789795
 31
0.0
 11
227.217143
 21
130.211393
 31
0.0
 11
226.878536
 21
129.652148
 31
0.0
 11
227.140107
 21
129.117247
 31
0.0
 11
227.821285
 21
128.595897
 31
0.0
 11
228.766767
 21
128.206963
 31
0.0
 11
230.461183
 21
128.228696
 31
0.0
 11
232.004558
 21
129.290593
 31
0.0
 11
233.427701
 21
131.413853
 31
0.0
 11
234.259936
 21
132.611638
 31
0.0
 11
235.449845
 21
133.803380
 31
0.0
 11
236.788283
 21
134.779610
 31
0.0
 11
238.599784
 21
135.367818
 31
0.0
 11
241.235797
 21
135.748787
 31
0.0
 11
243.761456
 21
135.787405
 31
0.0
 11
246.141221
 21
135.276218
 31
0.0
 11
248.688091
 21
134.259579
 31
0.0
 11
250.743522
 21
133.000361
 31
0.0
 11
252.796663
 21
130.701525
 31
0.0
 11
253.865908
 21
128.066550
 31
0.0
 11
253.839501
 21
125.370849
 31
0.0
 11
253.655532
 21
124.429761
 31
0.0
 11
253.749517
 21
123.925610
 31
0.0
 11
254.193315
 21
123.472934
 31
0.0
 11
254.715444
 21
123.109832
 31
0.0
 11
255.312799
 21
123.001885
 31
0.0
 11
256.301100
 21
123.092040
 31
0.0
 11
258.898107
 21
123.285456
 31
0.0
 11
260.979715
 21
123.073461
 31
0.0
 11
262.792343
 21
122.430960
 31
0.0
 11
264.911805
 21
121.213853
 31
0.0
 11
266.719227
 21
119.841591
 31
0.0
 11
267.991225
 21
118.483774
 31
0.0
 11
269.264978
 21
115.933218
 31
0.0
 11
269.775060
 21
113.167636
 31
0.0
 11
269.418097
 21
110.747476
 31
0.0
 11
269.228987
 21
110.095967
 31
0.0
 11
269.114896
 21
109.341501
 31
0.0
 11
269.100518
 21
108.647414
 31
0.0
  0
LINE
  5
106
100
AcDbEntity
  8
0
 62
7
100
AcDbLine
 10
211.858314
 20
55.725778
 30
0.0
 11
211.858314
 21
55.725778
 31
0.0
  0
SPLINE
  5
107
100
AcDbEntity
  8
0
 62
7
100
AcDbSpline
 70
0
 71
3
 72
61
 73
57
 74
55
 40
0.000000
 40
0.000000
 40
0.000000
 40
0.000000
 40
2.118964
 40
3.924275
 40
6.022987
 40
8.018882
 40
10.176562
 40
12.623262
 40
15.775380
 40
18.784756
 40
22.161118
 40
23.217270
 40
24.028488
 40
24.433774
 40
24.797627
 40
25.494867
 40
26.390773
 40
31.436984
 40
34.362440
 40
37.056000
 40
39.039544
 40
40.843955
 40
42.677685
 40
46.959531
 40
51.737663
 40
57.127239
 40
58.806267
 40
60.525387
 40
61.912416
 40
66.323387
 40
70.532918
 40
74.557624
 40
76.323306
 40
77.856027
 40
80.057803
 40
83.046520
 40
85.168611
 40
87.539600
 40
89.801354
 40
91.424497
 40
92.960198
 40
93.978506
 40
95.389000
 40
96.889250
 40
99.000763
 40
100.253942
 40
101.962480
 40
103.406144
 40
104.549935
 40
106.062107
 40
107.348986
 40
109.119594
 40
110.991016
 40
117.670219
 40
123.169016
 40
125.701508
 40
125.701508
 40
125.701508
 40
125.701508
 10
271.249093
 20
107.367802
 30
0.0
 10
271.955819
 20
107.294900
 30
0.0
 10
273.264660
 20
107.159887
 30
0.0
 10
275.121120
 20
106.305356
 30
0.0
 10
276.615996
 20
105.005041
 30
0.0
 10
277.968066
 20
103.403040
 30
0.0
 10
278.956937
 20
101.418531
 30
0.0
 10
279.775625
 20
98.965314
 30
0.0
 10
280.063158
 20
96.033238
 30
0.0
 10
278.804026
 20
92.965783
 30
0.0
 10
276.947060
 20
91.288197
 30
0.0
 10
275.498917
 20
90.241466
 30
0.0
 10
274.999120
 20
89.756975
 30
0.0
 10
274.533760
 20
89.311995
 30
0.0
 10
274.931888
 20
88.881452
 30
0.0
 10
275.371646
 20
88.464326
 30
0.0
 10
277.185042
 20
87.120287
 30
0.0
 10
279.611555
 20
85.508123
 30
0.0
 10
282.301340
 20
83.101815
 30
0.0
 10
283.517316
 20
80.848191
 30
0.0
 10
284.381975
 20
78.864345
 30
0.0
 10
284.749946
 20
77.009208
 30
0.0
 10
284.698303
 20
74.354190
 30
0.0
 10
283.559497
 20
70.816113
 30
0.0
 10
280.688469
 20
66.871556
 30
0.0
 10
277.604695
 20
64.353268
 30
0.0
 10
275.167990
 20
62.729922
 30
0.0
 10
273.849014
 20
61.832505
 30
0.0
 10
271.784815
 20
60.412579
 30
0.0
 10
268.906709
 20
58.707061
 30
0.0
 10
264.975803
 20
57.125550
 30
0.0
 10
261.702099
 20
56.440997
 30
0.0
 10
259.271977
 20
56.155805
 30
0.0
 10
257.433512
 20
56.256233
 30
0.0
 10
255.230879
 20
56.678017
 30
0.0
 10
252.827316
 20
57.091856
 30
0.0
 10
250.448866
 20
57.897563
 30
0.0
 10
248.525390
 20
59.086862
 30
0.0
 10
246.747137
 20
60.167305
 30
0.0
 10
245.048588
 20
60.855688
 30
0.0
 10
243.645174
 20
60.918021
 30
0.0
 10
242.328228
 20
61.004241
 30
0.0
 10
241.030479
 20
61.195478
 30
0.0
 10
239.379428
 20
61.457978
 30
0.0
 10
237.801690
 20
61.905369
 30
0.0
 10
236.063013
 20
61.624985
 30
0.0
 10
234.958315
 20
60.591170
 30
0.0
 10
233.832967
 20
59.710018
 30
0.0
 10
232.567753
 20
59.148369
 30
0.0
 10
231.261906
 20
58.951821
 30
0.0
 10
229.768950
 20
58.656386
 30
0.0
 10
228.161302
 20
58.315294
 30
0.0
 10
224.810141
 20
57.533477
 30
0.0
 10
220.222716
 20
56.639200
 30
0.0
 10
215.385080
 20
55.663217
 30
0.0
 10
212.703798
 20
55.710780
 30
0.0
 10
211.858314
 20
55.725778
 30
0.0
 11
271.249093
 21
107.367802
 31
0.0
 11
273.340329
 21
107.026129
 31
0.0
 11
274.984890
 21
106.281436
 31
0.0
 11
276.602117
 21
104.943838
 31
0.0
 11
277.869369
 21
103.401868
 31
0.0
 11
278.868869
 21
101.489649
 31
0.0
 11
279.624029
 21
99.162403
 31
0.0
 11
279.801180
 21
96.015267
 31
0.0
 11
278.685812
 21
93.220218
 31
0.0
 11
276.299592
 21
90.831542
 31
0.0
 11
275.464874
 21
90.184469
 31
0.0
 11
274.869521
 21
89.633443
 31
0.0
 11
274.642427
 21
89.297757
 31
0.0
 11
274.835534
 21
88.989377
 31
0.0
 11
275.341778
 21
88.509939
 31
0.0
 11
276.051545
 21
87.963241
 31
0.0
 11
280.123398
 21
84.982592
 31
0.0
 11
282.219306
 21
82.941647
 31
0.0
 11
283.589710
 21
80.622755
 31
0.0
 11
284.335296
 21
78.784673
 31
0.0
 11
284.683613
 21
77.014199
 31
0.0
 11
284.660373
 21
75.180617
 31
0.0
 11
283.420841
 21
71.082109
 31
0.0
 11
280.671614
 21
67.174131
 31
0.0
 11
276.569044
 21
63.678928
 31
0.0
 11
275.180473
 21
62.734995
 31
0.0
 11
273.758465
 21
61.768939
 31
0.0
 11
272.610877
 21
60.989907
 31
0.0
 11
268.796261
 21
58.775099
 31
0.0
 11
264.882814
 21
57.224264
 31
0.0
 11
260.950052
 21
56.368911
 31
0.0
 11
259.192390
 21
56.200800
 31
0.0
 11
257.661324
 21
56.271995
 31
0.0
 11
255.487692
 21
56.622911
 31
0.0
 11
252.561324
 21
57.230205
 31
0.0
 11
250.561208
 21
57.939292
 31
0.0
 11
248.494894
 21
59.102020
 31
0.0
 11
246.527294
 21
60.217403
 31
0.0
 11
245.002319
 21
60.773321
 31
0.0
 11
243.474843
 21
60.932045
 31
0.0
 11
242.459312
 21
61.007207
 31
0.0
 11
241.061184
 21
61.193566
 31
0.0
 11
239.583145
 21
61.450766
 31
0.0
 11
237.498933
 21
61.789213
 31
0.0
 11
236.267830
 21
61.555022
 31
0.0
 11
234.881531
 21
60.556387
 31
0.0
 11
233.716827
 21
59.703373
 31
0.0
 11
232.670321
 21
59.241765
 31
0.0
 11
231.190953
 21
58.928498
 31
0.0
 11
229.927284
 21
58.685195
 31
0.0
 11
228.195459
 21
58.316636
 31
0.0
 11
226.370409
 21
57.902613
 31
0.0
 11
219.828734
 21
56.554196
 31
0.0
 11
214.390774
 21
55.738495
 31
0.0
 11
211.858314
 21
55.725778
 31
0.0
  0
SPLINE
  5
108
100
AcDbEntity
  8
0
 62
7
100
AcDbSpline
 70
0
 71
3
 72
13
 73
9
 74
7
 40
0.000000
 40
0.000000
 40
0.000000
 40
0.000000
 40
4.510232
 40
9.287975
 40
13.203280
 40
14.351250
 40
15.360095
 40
16.767547
 40
16.767547
 40
16.767547
 40
16.767547
 10
267.232797
 20
62.801903
 30
0.0
 10
268.571777
 20
63.494702
 30
0.0
 10
271.329155
 20
64.921392
 30
0.0
 10
274.720134
 20
67.769082
 30
0.0
 10
276.904318
 20
70.260729
 30
0.0
 10
277.831858
 20
72.076893
 30
0.0
 10
278.078598
 20
73.251331
 30
0.0
 10
278.073933
 20
74.058358
 30
0.0
 10
278.071216
 20
74.528438
 30
0.0
 11
267.232797
 21
62.801903
 31
0.0
 11
271.162026
 21
65.016254
 31
0.0
 11
274.850038
 21
68.053588
 31
0.0
 11
277.309030
 21
71.100385
 31
0.0
 11
277.802074
 21
72.137083
 31
0.0
 11
278.021032
 21
73.121880
 31
0.0
 11
278.071216
 21
74.528438
 31
0.0
  0
LINE
  5
109
100
AcDbEntity
  8
0
 62
7
100
AcDbLine
 10
267.232797
 20
62.801903
 30
0.0
 11
267.232797
 21
62.801903
 31
0.0
  0
SPLINE
  5
10a
100
AcDbEntity
  8
0
 62
7
100
AcDbSpline
 70
0
 71
3
 72
31
 73
27
 74
25
 40
0.000000
 40
0.000000
 40
0.000000
 40
0.000000
 40
1.454492
 40
2.598958
 40
4.120849
 40
6.897904
 40
9.889402
 40
12.346175
 40
14.087137
 40
16.239307
 40
18.889077
 40
20.543353
 40
21.773350
 40
23.465877
 40
28.904006
 40
34.240295
 40
40.966818
 40
43.142145
 40
44.312473
 40
45.226611
 40
46.765686
 40
48.414074
 40
49.784926
 40
53.471538
 40
57.347876
 40
60.717333
 40
60.717333
 40
60.717333
 40
60.717333
 10
278.071216
 20
74.528438
 30
0.0
 10
278.075188
 20
75.015045
 30
0.0
 10
278.082285
 20
75.884538
 30
0.0
 10
277.752375
 20
77.230849
 30
0.0
 10
276.969241
 20
78.874201
 30
0.0
 10
275.660605
 20
80.935528
 30
0.0
 10
273.848142
 20
82.990435
 30
0.0
 10
272.048268
 20
84.628207
 30
0.0
 10
270.049118
 20
85.405003
 30
0.0
 10
267.889999
 20
85.771687
 30
0.0
 10
265.738748
 20
85.825505
 30
0.0
 10
263.886323
 20
85.853030
 30
0.0
 10
262.386985
 20
85.498581
 30
0.0
 10
259.881987
 20
84.272490
 30
0.0
 10
256.271498
 20
81.981686
 30
0.0
 10
253.475874
 20
76.608432
 30
0.0
 10
252.965754
 20
71.837416
 30
0.0
 10
252.796586
 20
68.500427
 30
0.0
 10
252.824113
 20
67.060582
 30
0.0
 10
253.306347
 20
65.933096
 30
0.0
 10
254.122272
 20
64.827684
 30
0.0
 10
255.203012
 20
63.747667
 30
0.0
 10
257.119663
 20
62.548797
 30
0.0
 10
260.133164
 20
62.099044
 30
0.0
 10
263.792513
 20
61.872737
 30
0.0
 10
266.140794
 20
62.506970
 30
0.0
 10
267.232797
 20
62.801903
 30
0.0
 11
278.071216
 21
74.528438
 31
0.0
 11
278.015741
 21
75.981871
 31
0.0
 11
277.751246
 21
77.095354
 31
0.0
 11
277.130622
 21
78.484951
 31
0.0
 11
275.644483
 21
80.830889
 31
0.0
 11
273.681029
 21
83.087858
 31
0.0
 11
271.776355
 21
84.639614
 31
0.0
 11
270.166775
 21
85.303091
 31
0.0
 11
268.051106
 21
85.697783
 31
0.0
 11
265.404553
 21
85.828318
 31
0.0
 11
263.751076
 21
85.776941
 31
0.0
 11
262.552991
 21
85.498576
 31
0.0
 11
261.008257
 21
84.806878
 31
0.0
 11
256.598450
 21
81.624608
 31
0.0
 11
253.990467
 21
76.969029
 31
0.0
 11
252.899431
 21
70.331580
 31
0.0
 11
252.812602
 21
68.157986
 31
0.0
 11
252.908969
 21
66.991632
 31
0.0
 11
253.245607
 21
66.141736
 31
0.0
 11
254.128887
 21
64.881352
 31
0.0
 11
255.312665
 21
63.734245
 31
0.0
 11
256.476913
 21
63.010532
 31
0.0
 11
260.064513
 21
62.161865
 31
0.0
 11
263.940122
 21
62.086691
 31
0.0
 11
267.232797
 21
62.801903
 31
0.0
  0
LINE
  5
10b
100
AcDbEntity
  8
0
 62
7
100
AcDbLine
 10
93.241235
 20
127.217461
 30
0.0
 11
87.270748
 21
126.985135
 31
0.0
  0
LINE
  5
10c
100
AcDbEntity
  8
0
 62
7
100
AcDbLine
 10
87.270748
 20
126.985135
 30
0.0
 11
83.461878
 21
127.888158
 31
0.0
  0
SPLINE
  5
10d
100
AcDbEntity
  8
0
 62
7
100
AcDbSpline
 70
0
 71
3
 72
79
 73
75
 74
73
 40
0.000000
 40
0.000000
 40
0.000000
 40
0.000000
 40
1.577973
 40
3.287817
 40
4.761923
 40
6.144670
 40
7.612853
 40
8.849330
 40
12.845115
 40
16.190522
 40
20.864112
 40
22.880915
 40
25.204004
 40
28.542741
 40
32.830432
 40
36.121007
 40
40.383716
 40
43.363527
 40
46.049286
 40
49.003512
 40
51.520259
 40
53.268326
 40
55.529661
 40
58.206125
 40
61.136923
 40
65.153108
 40
67.266570
 40
69.350510
 40
70.954439
 40
73.235323
 40
75.436615
 40
78.079358
 40
81.877231
 40
85.751667
 40
90.284897
 40
94.998864
 40
98.287322
 40
100.822169
 40
101.955927
 40
103.575051
 40
105.329011
 40
109.926939
 40
115.787393
 40
121.878960
 40
124.599107
 40
126.928203
 40
129.861243
 40
135.020296
 40
140.892093
 40
145.142648
 40
148.784153
 40
156.535413
 40
167.257623
 40
170.868601
 40
173.243825
 40
175.436033
 40
177.086214
 40
178.663137
 40
179.826537
 40
181.035429
 40
182.740172
 40
184.577378
 40
186.437072
 40
188.199729
 40
189.487340
 40
190.644645
 40
192.062217
 40
193.435247
 40
195.792169
 40
198.683005
 40
202.931551
 40
207.392316
 40
211.029924
 40
215.838961
 40
215.838961
 40
215.838961
 40
215.838961
 10
220.583342
 20
62.955359
 30
0.0
 10
221.095108
 20
63.077057
 30
0.0
 10
222.161408
 20
63.330625
 30
0.0
 10
223.687258
 20
63.770807
 30
0.0
 10
225.129863
 20
64.257923
 30
0.0
 10
226.483369
 20
64.753323
 30
0.0
 10
227.778828
 20
65.181245
 30
0.0
 10
229.909986
 20
65.821113
 30
0.0
 10
232.753034
 20
66.637847
 30
0.0
 10
235.424789
 20
69.872455
 30
0.0
 10
236.251411
 20
73.158647
 30
0.0
 10
236.909375
 20
76.087925
 30
0.0
 10
237.151009
 20
78.642408
 30
0.0
 10
237.304777
 20
81.952733
 30
0.0
 10
237.422190
 20
85.595933
 30
0.0
 10
238.171133
 20
89.491440
 30
0.0
 10
239.423078
 20
92.776395
 30
0.0
 10
240.437210
 20
95.935219
 30
0.0
 10
240.754957
 20
98.815306
 30
0.0
 10
240.486289
 20
101.528862
 30
0.0
 10
240.182563
 20
103.916454
 30
0.0
 10
239.673202
 20
106.037145
 30
0.0
 10
238.878633
 20
108.121332
 30
0.0
 10
237.846200
 20
110.541076
 30
0.0
 10
236.023981
 20
113.200637
 30
0.0
 10
234.071995
 20
115.504121
 30
0.0
 10
232.307420
 20
117.597476
 30
0.0
 10
231.083848
 20
119.095687
 30
0.0
 10
229.874743
 20
120.674535
 30
0.0
 10
228.619174
 20
122.274717
 30
0.0
 10
226.821305
 20
123.847711
 30
0.0
 10
224.391505
 20
125.398890
 30
0.0
 10
221.517072
 20
127.290092
 30
0.0
 10
218.384252
 20
129.899161
 30
0.0
 10
215.276107
 20
132.980341
 30
0.0
 10
212.305287
 20
135.910476
 30
0.0
 10
209.484670
 20
138.064895
 30
0.0
 10
207.260698
 20
138.837582
 30
0.0
 10
205.519643
 20
139.110464
 30
0.0
 10
204.042614
 20
139.385695
 30
0.0
 10
201.432355
 20
139.884215
 30
0.0
 10
197.376704
 20
140.307511
 30
0.0
 10
191.861831
 20
140.514252
 30
0.0
 10
186.970079
 20
140.451647
 30
0.0
 10
183.259068
 20
140.257318
 30
0.0
 10
180.623144
 20
139.860836
 30
0.0
 10
177.253959
 20
139.008047
 30
0.0
 10
172.709408
 20
137.994727
 30
0.0
 10
167.708664
 20
137.050172
 30
0.0
 10
163.195428
 20
136.151027
 30
0.0
 10
157.969537
 20
136.066837
 30
0.0
 10
150.607737
 20
135.849894
 30
0.0
 10
143.243365
 20
135.747330
 30
0.0
 10
137.676275
 20
135.665399
 30
0.0
 10
134.950944
 20
135.474489
 30
0.0
 10
132.920166
 20
135.044085
 30
0.0
 10
131.154713
 20
134.665352
 30
0.0
 10
129.717684
 20
134.383713
 30
0.0
 10
128.411803
 20
134.213888
 30
0.0
 10
127.079082
 20
133.940623
 30
0.0
 10
125.557846
 20
133.495146
 30
0.0
 10
123.856627
 20
132.905235
 30
0.0
 10
122.140184
 20
132.300594
 30
0.0
 10
120.574038
 20
131.821301
 30
0.0
 10
119.208026
 20
131.500750
 30
0.0
 10
117.944494
 20
131.252334
 30
0.0
 10
116.671564
 20
130.914571
 30
0.0
 10
115.031544
 20
130.411091
 30
0.0
 10
112.918585
 20
129.768378
 30
0.0
 10
109.812631
 20
129.140483
 30
0.0
 10
106.002495
 20
128.488767
 30
0.0
 10
101.942503
 20
127.803544
 30
0.0
 10
97.657554
 20
127.381150
 30
0.0
 10
94.843434
 20
127.276845
 30
0.0
 10
93.241235
 20
127.217461
 30
0.0
 11
220.583342
 21
62.955359
 31
0.0
 11
222.115693
 21
63.332053
 31
0.0
 11
223.758635
 21
63.805664
 31
0.0
 11
225.156479
 21
64.273658
 31
0.0
 11
226.459310
 21
64.736932
 31
0.0
 11
227.853159
 21
65.198174
 31
0.0
 11
229.036266
 21
65.557528
 31
0.0
 11
232.731373
 21
67.078211
 31
0.0
 11
234.934039
 21
69.596149
 31
0.0
 11
236.439654
 21
74.020578
 31
0.0
 11
236.848094
 21
75.995589
 31
0.0
 11
237.103784
 21
78.304564
 31
0.0
 11
237.283241
 21
81.638474
 31
0.0
 11
237.560263
 21
85.917207
 31
0.0
 11
238.189361
 21
89.147086
 31
0.0
 11
239.533631
 21
93.192284
 31
0.0
 11
240.364932
 21
96.053789
 31
0.0
 11
240.655788
 21
98.723753
 31
0.0
 11
240.457307
 21
101.671304
 31
0.0
 11
240.096791
 21
104.162095
 31
0.0
 11
239.682172
 21
105.860280
 31
0.0
 11
238.915162
 21
107.987562
 31
0.0
 11
237.805292
 21
110.423060
 31
0.0
 11
236.197244
 21
112.873317
 31
0.0
 11
233.663662
 21
115.989517
 31
0.0
 11
232.305254
 21
117.608606
 31
0.0
 11
230.992429
 21
119.227030
 31
0.0
 11
230.009406
 21
120.494411
 31
0.0
 11
228.549322
 21
122.246720
 31
0.0
 11
226.903859
 21
123.708958
 31
0.0
 11
224.718999
 21
125.195724
 31
0.0
 11
221.579752
 21
127.333238
 31
0.0
 11
218.588698
 21
129.795930
 31
0.0
 11
215.318657
 21
132.935517
 31
0.0
 11
211.882234
 21
136.162354
 31
0.0
 11
209.186395
 21
138.045546
 31
0.0
 11
206.796010
 21
138.889054
 31
0.0
 11
205.680172
 21
139.089835
 31
0.0
 11
204.087007
 21
139.378605
 31
0.0
 11
202.361426
 21
139.692845
 31
0.0
 11
197.793694
 21
140.218936
 31
0.0
 11
191.938334
 21
140.463207
 31
0.0
 11
185.847311
 21
140.381775
 31
0.0
 11
183.133028
 21
140.203271
 31
0.0
 11
180.829713
 21
139.857679
 31
0.0
 11
177.971348
 21
139.200056
 31
0.0
 11
172.937043
 21
138.072402
 31
0.0
 11
167.175871
 21
136.937987
 31
0.0
 11
162.981614
 21
136.248470
 31
0.0
 11
159.343835
 21
136.083801
 31
0.0
 11
151.594854
 21
135.895839
 31
0.0
 11
140.874216
 21
135.712223
 31
0.0
 11
137.264437
 21
135.619174
 31
0.0
 11
134.898131
 21
135.413546
 31
0.0
 11
132.744189
 21
135.005736
 31
0.0
 11
131.129554
 21
134.665074
 31
0.0
 11
129.579284
 21
134.376374
 31
0.0
 11
128.429004
 21
134.202138
 31
0.0
 11
127.244519
 21
133.960444
 31
0.0
 11
125.604576
 21
133.494897
 31
0.0
 11
123.864214
 21
132.906285
 31
0.0
 11
122.105303
 21
132.302386
 31
0.0
 11
120.416723
 21
131.796759
 31
0.0
 11
119.164044
 21
131.498871
 31
0.0
 11
118.032078
 21
131.258025
 31
0.0
 11
116.659959
 21
130.901935
 31
0.0
 11
115.344744
 21
130.507697
 31
0.0
 11
113.080584
 21
129.852976
 31
0.0
 11
110.255075
 21
129.241888
 31
0.0
 11
106.071432
 21
128.502108
 31
0.0
 11
101.664089
 21
127.813815
 31
0.0
 11
98.044578
 21
127.451405
 31
0.0
 11
93.241235
 21
127.217461
 31
0.0
  0
LINE
  5
10e
100
AcDbEntity
  8
0
 62
7
100
AcDbLine
 10
220.583342
 20
62.955359
 30
0.0
 11
220.583342
 21
62.955359
 31
0.0
  0
SPLINE
  5
10f
100
AcDbEntity
  8
0
 62
7
100
AcDbSpline
 70
0
 71
3
 72
139
 73
135
 74
133
 40
0.000000
 40
0.000000
 40
0.000000
 40
0.000000
 40
6.834848
 40
14.370773
 40
20.214887
 40
24.348804
 40
27.576280
 40
30.742829
 40
32.126231
 40
33.678675
 40
35.066259
 40
36.685098
 40
38.392632
 40
40.801566
 40
44.442393
 40
47.414728
 40
50.917908
 40
56.272729
 40
59.853400
 40
65.233356
 40
66.724913
 40
68.225667
 40
69.413400
 40
75.867277
 40
82.061358
 40
87.879165
 40
89.511092
 40
91.393436
 40
93.119056
 40
95.084733
 40
96.638950
 40
98.635096
 40
101.984771
 40
105.262090
 40
108.094890
 40
109.236140
 40
110.537409
 40
111.717416
 40
114.736372
 40
118.657691
 40
121.995019
 40
123.364152
 40
125.356301
 40
127.542464
 40
129.741878
 40
131.769719
 40
133.190889
 40
134.354156
 40
135.698591
 40
136.933280
 40
138.187584
 40
139.583490
 40
140.818978
 40
141.962857
 40
143.119676
 40
144.040706
 40
144.859987
 40
145.759514
 40
146.557209
 40
147.492007
 40
148.332374
 40
149.806448
 40
150.940746
 40
151.917991
 40
152.535922
 40
153.199425
 40
154.294772
 40
155.592485
 40
157.206343
 40
159.132969
 40
160.960151
 40
163.121457
 40
164.983318
 40
167.493562
 40
169.895730
 40
172.756824
 40
175.458960
 40
178.382500
 40
180.138724
 40
181.513119
 40
184.171466
 40
186.770530
 40
188.520155
 40
189.672500
 40
190.953716
 40
192.072289
 40
192.684690
 40
193.695390
 40
194.887701
 40
196.424169
 40
197.952213
 40
199.706005
 40
201.299711
 40
202.934341
 40
204.267429
 40
206.424567
 40
207.944538
 40
209.427167
 40
210.413494
 40
211.760517
 40
214.594475
 40
218.268642
 40
220.180489
 40
222.469187
 40
223.801901
 40
224.685341
 40
225.516210
 40
226.761844
 40
227.883937
 40
229.034060
 40
229.877703
 40
231.320137
 40
233.051684
 40
234.792515
 40
236.259446
 40
237.137775
 40
238.947634
 40
241.038636
 40
242.534720
 40
243.941229
 40
245.704927
 40
248.570465
 40
252.334436
 40
255.286715
 40
257.760112
 40
259.529153
 40
260.863700
 40
262.281601
 40
264.058934
 40
265.899576
 40
268.031229
 40
272.314542
 40
278.030445
 40
282.957278
 40
282.957278
 40
282.957278
 40
282.957278
 10
83.461878
 20
127.888158
 30
0.0
 10
81.218327
 20
128.294639
 30
0.0
 10
76.501095
 20
129.149294
 30
0.0
 10
69.770431
 20
129.601336
 30
0.0
 10
63.909419
 20
129.562455
 30
0.0
 10
59.573335
 20
128.741852
 30
0.0
 10
56.202347
 20
127.683876
 30
0.0
 10
53.987594
 20
126.306144
 30
0.0
 10
52.281527
 20
125.201578
 30
0.0
 10
51.032635
 20
124.479270
 30
0.0
 10
49.684193
 20
123.781391
 30
0.0
 10
48.284994
 20
123.053969
 30
0.0
 10
46.806014
 20
121.826012
 30
0.0
 10
44.992928
 20
119.984672
 30
0.0
 10
42.911194
 20
117.808417
 30
0.0
 10
40.978810
 20
115.017357
 30
0.0
 10
39.402917
 20
111.407432
 30
0.0
 10
37.425852
 20
107.678960
 30
0.0
 10
37.342314
 20
102.749718
 30
0.0
 10
38.885288
 20
99.550374
 30
0.0
 10
39.953461
 20
96.977354
 30
0.0
 10
40.555739
 20
95.719314
 30
0.0
 10
41.999495
 20
93.034369
 30
0.0
 10
44.963851
 20
89.419215
 30
0.0
 10
49.885780
 20
85.611406
 30
0.0
 10
54.231468
 20
84.033493
 30
0.0
 10
57.288060
 20
83.463079
 30
0.0
 10
58.991796
 20
83.074837
 30
0.0
 10
60.799689
 20
82.650882
 30
0.0
 10
62.496645
 20
82.215179
 30
0.0
 10
64.335908
 20
82.053771
 30
0.0
 10
66.635753
 20
82.179639
 30
0.0
 10
69.497004
 20
82.461988
 30
0.0
 10
72.604438
 20
83.029149
 30
0.0
 10
74.928998
 20
83.706485
 30
0.0
 10
76.582341
 20
84.305368
 30
0.0
 10
77.729530
 20
84.683049
 30
0.0
 10
79.490633
 20
85.194669
 30
0.0
 10
82.004371
 20
86.217732
 30
0.0
 10
85.078947
 20
87.718489
 30
0.0
 10
87.646907
 20
89.040543
 30
0.0
 10
89.434745
 20
90.383043
 30
0.0
 10
90.872955
 20
91.545036
 30
0.0
 10
92.480866
 20
92.936167
 30
0.0
 10
94.106718
 20
94.324519
 30
0.0
 10
95.585107
 20
95.491225
 30
0.0
 10
96.842740
 20
96.378425
 30
0.0
 10
97.974812
 20
97.038067
 30
0.0
 10
99.030150
 20
97.703282
 30
0.0
 10
100.106387
 20
98.392122
 30
0.0
 10
101.197482
 20
99.089592
 30
0.0
 10
102.297699
 20
99.773212
 30
0.0
 10
103.379499
 20
100.416281
 30
0.0
 10
104.381863
 20
101.036342
 30
0.0
 10
105.278617
 20
101.628770
 30
0.0
 10
106.042533
 20
102.219940
 30
0.0
 10
106.766892
 20
102.721057
 30
0.0
 10
107.519871
 20
103.101734
 30
0.0
 10
108.345834
 20
103.386952
 30
0.0
 10
109.196596
 20
103.606513
 30
0.0
 10
110.275446
 20
103.339435
 30
0.0
 10
111.279447
 20
102.782737
 30
0.0
 10
112.373561
 20
102.289030
 30
0.0
 10
113.222017
 20
101.984701
 30
0.0
 10
113.964425
 20
101.761451
 30
0.0
 10
114.744278
 20
102.004669
 30
0.0
 10
115.703098
 20
102.318039
 30
0.0
 10
116.930350
 20
102.858105
 30
0.0
 10
118.429319
 20
103.450089
 30
0.0
 10
120.132824
 20
104.003465
 30
0.0
 10
122.035045
 20
104.521269
 30
0.0
 10
123.940415
 20
104.951607
 30
0.0
 10
126.114588
 20
105.156266
 30
0.0
 10
128.373838
 20
105.093293
 30
0.0
 10
130.964867
 20
105.107770
 30
0.0
 10
133.619054
 20
105.188276
 30
0.0
 10
136.444594
 20
105.340125
 30
0.0
 10
138.897062
 20
105.518302
 30
0.0
 10
140.921327
 20
105.545304
 30
0.0
 10
142.832488
 20
105.218683
 30
0.0
 10
144.913301
 20
104.453599
 30
0.0
 10
147.039220
 20
103.444881
 30
0.0
 10
148.446068
 20
102.244782
 30
0.0
 10
149.304335
 20
101.123672
 30
0.0
 10
150.362075
 20
100.550451
 30
0.0
 10
151.349337
 20
100.238940
 30
0.0
 10
152.260626
 20
100.394355
 30
0.0
 10
153.181448
 20
100.556543
 30
0.0
 10
154.396587
 20
100.840961
 30
0.0
 10
155.786374
 20
101.131515
 30
0.0
 10
157.390287
 20
101.275703
 30
0.0
 10
159.016017
 20
101.249944
 30
0.0
 10
160.676761
 20
101.256142
 30
0.0
 10
162.196171
 20
101.346064
 30
0.0
 10
163.890246
 20
101.568635
 30
0.0
 10
165.535847
 20
101.871161
 30
0.0
 10
167.309636
 20
101.501541
 30
0.0
 10
168.221978
 20
100.464051
 30
0.0
 10
168.872990
 20
99.351297
 30
0.0
 10
168.949269
 20
97.589039
 30
0.0
 10
168.997049
 20
94.989562
 30
0.0
 10
168.776456
 20
92.197085
 30
0.0
 10
169.765168
 20
89.529388
 30
0.0
 10
171.701974
 20
88.986907
 30
0.0
 10
173.079691
 20
88.467415
 30
0.0
 10
174.098523
 20
88.268816
 30
0.0
 10
175.071930
 20
88.460090
 30
0.0
 10
176.154053
 20
88.561951
 30
0.0
 10
177.279794
 20
88.084009
 30
0.0
 10
177.965729
 20
87.248934
 30
0.0
 10
178.309378
 20
86.150263
 30
0.0
 10
178.704215
 20
84.872742
 30
0.0
 10
179.114519
 20
83.285882
 30
0.0
 10
179.531958
 20
81.691913
 30
0.0
 10
179.931019
 20
80.393230
 30
0.0
 10
180.371342
 20
79.068336
 30
0.0
 10
181.460840
 20
77.854483
 30
0.0
 10
182.747632
 20
76.607554
 30
0.0
 10
184.187816
 20
75.723822
 30
0.0
 10
185.737816
 20
75.396339
 30
0.0
 10
187.330663
 20
74.092038
 30
0.0
 10
189.342135
 20
72.176731
 30
0.0
 10
191.700726
 20
70.011728
 30
0.0
 10
194.244467
 20
68.261707
 30
0.0
 10
196.521309
 20
67.447480
 30
0.0
 10
198.340942
 20
67.059990
 30
0.0
 10
199.716510
 20
66.382508
 30
0.0
 10
200.785056
 20
65.303112
 30
0.0
 10
202.032498
 20
64.168322
 30
0.0
 10
203.757305
 20
63.293231
 30
0.0
 10
206.386281
 20
62.435915
 30
0.0
 10
210.461097
 20
62.235677
 30
0.0
 10
215.435234
 20
62.239514
 30
0.0
 10
218.954275
 20
62.728837
 30
0.0
 10
220.583342
 20
62.955359
 30
0.0
 11
83.461878
 21
127.888158
 31
0.0
 11
76.715933
 21
128.986967
 31
0.0
 11
69.199950
 21
129.534833
 31
0.0
 11
63.358648
 21
129.353556
 31
0.0
 11
59.294644
 21
128.596494
 31
0.0
 11
56.240554
 21
127.552877
 31
0.0
 11
53.491258
 21
125.981761
 31
0.0
 11
52.322729
 21
125.241261
 31
0.0
 11
50.979341
 21
124.463192
 31
0.0
 11
49.751931
 21
123.816004
 31
0.0
 11
48.342005
 21
123.020549
 31
0.0
 11
47.003988
 21
121.959707
 31
0.0
 11
45.283722
 21
120.273397
 31
0.0
 11
42.836567
 21
117.577649
 31
0.0
 11
41.159080
 21
115.123915
 31
0.0
 11
39.613912
 21
111.979916
 31
0.0
 11
37.635190
 21
107.004098
 31
0.0
 11
37.572387
 21
103.423977
 31
0.0
 11
39.374901
 21
98.354966
 31
0.0
 11
39.964555
 21
96.984912
 31
0.0
 11
40.612431
 21
95.631206
 31
0.0
 11
41.178269
 21
94.586919
 31
0.0
 11
45.191713
 21
89.532732
 31
0.0
 11
50.152056
 21
85.823064
 31
0.0
 11
55.605721
 21
83.797128
 31
0.0
 11
57.204228
 21
83.468557
 31
0.0
 11
59.041986
 21
83.061290
 31
0.0
 11
60.721130
 21
82.663497
 31
0.0
 11
62.640659
 21
82.240061
 31
0.0
 11
64.188463
 21
82.099023
 31
0.0
 11
66.183493
 21
82.165757
 31
0.0
 11
69.515388
 21
82.510430
 31
0.0
 11
72.736535
 21
83.114606
 31
0.0
 11
75.456803
 21
83.905112
 31
0.0
 11
76.533934
 21
84.282260
 31
0.0
 11
77.770324
 21
84.688020
 31
0.0
 11
78.898302
 21
85.034547
 31
0.0
 11
81.711363
 21
86.130353
 31
0.0
 11
85.250442
 21
87.819039
 31
0.0
 11
88.159968
 21
89.453790
 31
0.0
 11
89.264203
 21
90.263228
 31
0.0
 11
90.815871
 21
91.512621
 31
0.0
 11
92.479045
 21
92.931481
 31
0.0
 11
94.159627
 21
94.350306
 31
0.0
 11
95.756933
 21
95.599608
 31
0.0
 11
96.925153
 21
96.408919
 31
0.0
 11
97.919293
 21
97.012968
 31
0.0
 11
99.060225
 21
97.724150
 31
0.0
 11
100.100944
 21
98.388500
 31
0.0
 11
101.159072
 21
99.062032
 31
0.0
 11
102.345642
 21
99.797291
 31
0.0
 11
103.403767
 21
100.435099
 31
0.0
 11
104.375287
 21
101.038928
 31
0.0
 11
105.334802
 21
101.685117
 31
0.0
 11
106.074585
 21
102.233769
 31
0.0
 11
106.754565
 21
102.690767
 31
0.0
 11
107.557300
 21
103.096682
 31
0.0
 11
108.309000
 21
103.363637
 31
0.0
 11
109.228493
 21
103.532101
 31
0.0
 11
110.052552
 21
103.367350
 31
0.0
 11
111.390041
 21
102.747658
 31
0.0
 11
112.424963
 21
102.283366
 31
0.0
 11
113.344391
 21
101.952215
 31
0.0
 11
113.949273
 21
101.825900
 31
0.0
 11
114.598975
 21
101.960527
 31
0.0
 11
115.635903
 21
102.313465
 31
0.0
 11
116.835566
 21
102.808306
 31
0.0
 11
118.337968
 21
103.397650
 31
0.0
 11
120.168559
 21
103.998335
 31
0.0
 11
121.931025
 21
104.480317
 31
0.0
 11
124.046175
 21
104.924597
 31
0.0
 11
125.899397
 21
105.103748
 31
0.0
 11
128.409639
 21
105.106601
 31
0.0
 11
130.811789
 21
105.115954
 31
0.0
 11
133.671609
 21
105.201338
 31
0.0
 11
136.369962
 21
105.344269
 31
0.0
 11
139.288770
 21
105.510540
 31
0.0
 11
141.044836
 21
105.487026
 31
0.0
 11
142.400936
 21
105.263515
 31
0.0
 11
144.917970
 21
104.408327
 31
0.0
 11
147.222911
 21
103.207336
 31
0.0
 11
148.545471
 21
102.061901
 31
0.0
 11
149.328425
 21
101.216394
 31
0.0
 11
150.431013
 21
100.563848
 31
0.0
 11
151.518584
 21
100.302321
 31
0.0
 11
152.127009
 21
100.371990
 31
0.0
 11
153.121068
 21
100.554636
 31
0.0
 11
154.285554
 21
100.810720
 31
0.0
 11
155.794050
 21
101.102562
 31
0.0
 11
157.315544
 21
101.243898
 31
0.0
 11
159.069300
 21
101.255096
 31
0.0
 11
160.662930
 21
101.270622
 31
0.0
 11
162.294329
 21
101.373362
 31
0.0
 11
163.616773
 21
101.541478
 31
0.0
 11
165.764518
 21
101.742571
 31
0.0
 11
167.233945
 21
101.353860
 31
0.0
 11
168.283748
 21
100.306911
 31
0.0
 11
168.746480
 21
99.435866
 31
0.0
 11
168.923552
 21
98.100532
 31
0.0
 11
168.952102
 21
95.266718
 31
0.0
 11
169.097024
 21
91.595411
 31
0.0
 11
169.913182
 21
89.866525
 31
0.0
 11
171.972664
 21
88.868190
 31
0.0
 11
173.239965
 21
88.455790
 31
0.0
 11
174.113593
 21
88.324482
 31
0.0
 11
174.938673
 21
88.422391
 31
0.0
 11
176.183854
 21
88.455984
 31
0.0
 11
177.215486
 21
88.014592
 31
0.0
 11
177.953494
 21
87.132476
 31
0.0
 11
178.248955
 21
86.342264
 31
0.0
 11
178.666105
 21
84.961466
 31
0.0
 11
179.114634
 21
83.289019
 31
0.0
 11
179.567529
 21
81.608134
 31
0.0
 11
179.996127
 21
80.205211
 31
0.0
 11
180.307637
 21
79.383978
 31
0.0
 11
181.405534
 21
77.945156
 31
0.0
 11
182.950394
 21
76.536008
 31
0.0
 11
184.247397
 21
75.790320
 31
0.0
 11
185.576569
 21
75.330352
 31
0.0
 11
187.023592
 21
74.322010
 31
0.0
 11
189.134871
 21
72.384535
 31
0.0
 11
191.965184
 21
69.903244
 31
0.0
 11
194.440727
 21
68.294630
 31
0.0
 11
196.758363
 21
67.430770
 31
0.0
 11
198.460476
 21
66.948774
 31
0.0
 11
199.646933
 21
66.337763
 31
0.0
 11
200.707703
 21
65.396907
 31
0.0
 11
202.062458
 21
64.246449
 31
0.0
 11
203.685752
 21
63.378763
 31
0.0
 11
205.713456
 21
62.721223
 31
0.0
 11
209.975016
 21
62.290082
 31
0.0
 11
215.690211
 21
62.380070
 31
0.0
 11
220.583342
 21
62.955359
 31
0.0
  0
LINE
  5
110
100
AcDbEntity
  8
0
 62
7
100
AcDbLine
 10
262.302305
 20
107.929049
 30
0.0
 11
262.302305
 21
107.929049
 31
0.0
  0
SPLINE
  5
111
100
AcDbEntity
  8
0
 62
7
100
AcDbSpline
 70
0
 71
3
 72
28
 73
24
 74
22
 40
0.000000
 40
0.000000
 40
0.000000
 40
0.000000
 40
3.465067
 40
6.267782
 40
8.988669
 40
11.578760
 40
14.212977
 40
17.016383
 40
18.519050
 40
19.810943
 40
21.659768
 40
23.544951
 40
25.518815
 40
28.095665
 40
29.691401
 40
30.674668
 40
31.686180
 40
33.721795
 40
35.460002
 40
37.545704
 40
38.497929
 40
39.686434
 40
40.861716
 40
40.861716
 40
40.861716
 40
40.861716
 10
262.302305
 20
107.929049
 30
0.0
 10
263.344374
 20
108.457569
 30
0.0
 10
265.229319
 20
109.413580
 30
0.0
 10
266.943157
 20
112.132440
 30
0.0
 10
266.564021
 20
114.989712
 30
0.0
 10
265.041136
 20
117.217607
 30
0.0
 10
262.865742
 20
118.871085
 30
0.0
 10
260.632081
 20
119.551870
 30
0.0
 10
258.762704
 20
119.850047
 30
0.0
 10
257.233970
 20
119.439591
 30
0.0
 10
255.792556
 20
118.584997
 30
0.0
 10
254.277862
 20
117.355029
 30
0.0
 10
253.499065
 20
115.269557
 30
0.0
 10
253.424146
 20
113.215987
 30
0.0
 10
253.413030
 20
111.500550
 30
0.0
 10
253.615181
 20
110.300214
 30
0.0
 10
254.326479
 20
109.146884
 30
0.0
 10
255.278385
 20
107.826845
 30
0.0
 10
257.116209
 20
106.961396
 30
0.0
 10
258.745570
 20
106.964932
 30
0.0
 10
260.130875
 20
107.215729
 30
0.0
 10
261.198453
 20
107.512243
 30
0.0
 10
261.935729
 20
107.790633
 30
0.0
 10
262.302305
 20
107.929049
 30
0.0
 11
262.302305
 21
107.929049
 31
0.0
 11
265.217662
 21
109.801852
 31
0.0
 11
266.621156
 21
112.227839
 31
0.0
 11
266.355862
 21
114.935761
 31
0.0
 11
264.947749
 21
117.109649
 31
0.0
 11
262.846693
 21
118.698569
 31
0.0
 11
260.191369
 21
119.597648
 31
0.0
 11
258.696125
 21
119.746812
 31
0.0
 11
257.439876
 21
119.445437
 31
0.0
 11
255.822598
 21
118.549575
 31
0.0
 11
254.434341
 21
117.274171
 31
0.0
 11
253.665198
 21
115.456326
 31
0.0
 11
253.428154
 21
112.890402
 31
0.0
 11
253.469427
 21
111.295201
 31
0.0
 11
253.671840
 21
110.332993
 31
0.0
 11
254.153276
 21
109.443400
 31
0.0
 11
255.463517
 21
107.885517
 31
0.0
 11
257.028946
 21
107.130007
 31
0.0
 11
259.113100
 21
107.049683
 31
0.0
 11
260.050962
 21
107.214448
 31
0.0
 11
261.196710
 21
107.530369
 31
0.0
 11
262.302305
 21
107.929049
 31
0.0
  0
LINE
  5
112
100
AcDbEntity
  8
0
 62
7
100
AcDbLine
 10
246.348554
 20
121.667264
 30
0.0
 11
246.348554
 21
121.667264
 31
0.0
  0
SPLINE
  5
113
100
AcDbEntity
  8
0
 62
7
100
AcDbSpline
 70
0
 71
3
 72
28
 73
24
 74
22
 40
0.000000
 40
0.000000
 40
0.000000
 40
0.000000
 40
2.860439
 40
5.434119
 40
7.532652
 40
9.412074
 40
11.831884
 40
14.648956
 40
16.227080
 40
17.620194
 40
19.451539
 40
20.880056
 40
21.899490
 40
23.203927
 40
24.441718
 40
25.436318
 40
26.540686
 40
28.318097
 40
29.541370
 40
30.759117
 40
33.172848
 40
35.364449
 40
37.783866
 40
37.783866
 40
37.783866
 40
37.783866
 10
246.348554
 20
121.667264
 30
0.0
 10
247.181632
 20
122.147758
 30
0.0
 10
248.764272
 20
123.060577
 30
0.0
 10
250.408683
 20
124.981454
 30
0.0
 10
251.294975
 20
127.145238
 30
0.0
 10
250.368568
 20
129.238637
 30
0.0
 10
248.550572
 20
130.810349
 30
0.0
 10
246.495582
 20
131.812311
 30
0.0
 10
244.613809
 20
132.350927
 30
0.0
 10
242.983720
 20
132.129589
 30
0.0
 10
241.608692
 20
131.391649
 30
0.0
 10
240.333805
 20
130.740037
 30
0.0
 10
239.420133
 20
129.852828
 30
0.0
 10
238.894160
 20
128.776734
 30
0.0
 10
238.365039
 20
127.723516
 30
0.0
 10
238.076103
 20
126.637883
 30
0.0
 10
238.046897
 20
125.340996
 30
0.0
 10
238.067903
 20
123.974069
 30
0.0
 10
238.564661
 20
122.588565
 30
0.0
 10
239.939784
 20
121.638131
 30
0.0
 10
241.741991
 20
120.893533
 30
0.0
 10
244.155233
 20
120.777562
 30
0.0
 10
245.593756
 20
121.361086
 30
0.0
 10
246.348554
 20
121.667264
 30
0.0
 11
246.348554
 21
121.667264
 31
0.0
 11
248.737967
 21
123.239783
 31
0.0
 11
250.394703
 21
125.209316
 31
0.0
 11
251.014550
 21
127.214217
 31
0.0
 11
250.355893
 21
128.974444
 31
0.0
 11
248.600548
 21
130.640050
 31
0.0
 11
246.079452
 21
131.897016
 31
0.0
 11
244.541659
 21
132.251517
 31
0.0
 11
243.158889
 21
132.082069
 31
0.0
 11
241.487177
 21
131.334269
 31
0.0
 11
240.257304
 21
130.607581
 31
0.0
 11
239.532377
 21
129.890835
 31
0.0
 11
238.883029
 21
128.759508
 31
0.0
 11
238.371902
 21
127.632175
 31
0.0
 11
238.122867
 21
126.669257
 31
0.0
 11
238.057322
 21
125.566836
 31
0.0
 11
238.189330
 21
123.794335
 31
0.0
 11
238.666763
 21
122.668078
 31
0.0
 11
239.611733
 21
121.900002
 31
0.0
 11
241.853802
 21
121.006010
 31
0.0
 11
244.044097
 21
120.930342
 31
0.0
 11
246.348554
 21
121.667264
 31
0.0
  0
ENDSEC
  0
SECTION
  2
OBJECTS
  0
DICTIONARY
  5
C
330
0
100
AcDbDictionary
  3
ACAD_GROUP
350
D
  3
ACAD_MLINESTYLE
350
17
  0
DICTIONARY
  5
D
330
C
100
AcDbDictionary
  0
DICTIONARY
  5
1A
330
C
100
AcDbDictionary
  0
DICTIONARY
  5
17
330
C
100
AcDbDictionary
  3
STANDARD
350
18
  0
DICTIONARY
  5
19
330
C
100
AcDbDictionary
  0
ENDSEC
  0
EOF
