  0
SECTION
  2
HEADER
  9
$ACADVER
  1
AC1014
  9
$ACADMAINTVER
 70
     9
  9
$DWGCODEPAGE
  3
ANSI_949
  9
$INSBASE
 10
0.0
 20
0.0
 30
0.0
  9
$EXTMIN
 10
1.000000000000000E+20
 20
1.000000000000000E+20
 30
1.000000000000000E+20
  9
$EXTMAX
 10
-1.000000000000000E+20
 20
-1.000000000000000E+20
 30
-1.000000000000000E+20
  9
$LIMMIN
 10
0.0
 20
0.0
  9
$LIMMAX
 10
12.0
 20
9.0
  9
$ORTHOMODE
 70
     0
  9
$REGENMODE
 70
     1
  9
$FILLMODE
 70
     1
  9
$QTEXTMODE
 70
     0
  9
$MIRRTEXT
 70
     1
  9
$DRAGMODE
 70
     2
  9
$LTSCALE
 40
1.0
  9
$OSMODE
 70
    37
  9
$ATTMODE
 70
     1
  9
$TEXTSIZE
 40
0.2
  9
$TRACEWID
 40
0.05
  9
$TEXTSTYLE
  7
STANDARD
  9
$CLAYER
  8
0
  9
$CELTYPE
  6
BYLAYER
  9
$CECOLOR
 62
   256
  9
$CELTSCALE
 40
1.0
  9
$DELOBJ
 70
     1
  9
$DISPSILH
 70
     0
  9
$DIMSCALE
 40
1.0
  9
$DIMASZ
 40
0.18
  9
$DIMEXO
 40
0.0625
  9
$DIMDLI
 40
0.38
  9
$DIMRND
 40
0.0
  9
$DIMDLE
 40
0.0
  9
$DIMEXE
 40
0.18
  9
$DIMTP
 40
0.0
  9
$DIMTM
 40
0.0
  9
$DIMTXT
 40
0.18
  9
$DIMCEN
 40
0.09
  9
$DIMTSZ
 40
0.0
  9
$DIMTOL
 70
     0
  9
$DIMLIM
 70
     0
  9
$DIMTIH
 70
     1
  9
$DIMTOH
 70
     1
  9
$DIMSE1
 70
     0
  9
$DIMSE2
 70
     0
  9
$DIMTAD
 70
     0
  9
$DIMZIN
 70
     0
  9
$DIMBLK
  1

  9
$DIMASO
 70
     1
  9
$DIMSHO
 70
     1
  9
$DIMPOST
  1

  9
$DIMAPOST
  1

  9
$DIMALT
 70
     0
  9
$DIMALTD
 70
     2
  9
$DIMALTF
 40
25.4
  9
$DIMLFAC
 40
1.0
  9
$DIMTOFL
 70
     0
  9
$DIMTVP
 40
0.0
  9
$DIMTIX
 70
     0
  9
$DIMSOXD
 70
     0
  9
$DIMSAH
 70
     0
  9
$DIMBLK1
  1

  9
$DIMBLK2
  1

  9
$DIMSTYLE
  2
STANDARD
  9
$DIMCLRD
 70
     0
  9
$DIMCLRE
 70
     0
  9
$DIMCLRT
 70
     0
  9
$DIMTFAC
 40
1.0
  9
$DIMGAP
 40
0.09
  9
$DIMJUST
 70
     0
  9
$DIMSD1
 70
     0
  9
$DIMSD2
 70
     0
  9
$DIMTOLJ
 70
     1
  9
$DIMTZIN
 70
     0
  9
$DIMALTZ
 70
     0
  9
$DIMALTTZ
 70
     0
  9
$DIMFIT
 70
     3
  9
$DIMUPT
 70
     0
  9
$DIMUNIT
 70
     2
  9
$DIMDEC
 70
     4
  9
$DIMTDEC
 70
     4
  9
$DIMALTU
 70
     2
  9
$DIMALTTD
 70
     2
  9
$DIMTXSTY
  7
STANDARD
  9
$DIMAUNIT
 70
     0
  9
$LUNITS
 70
     2
  9
$LUPREC
 70
     4
  9
$SKETCHINC
 40
0.1
  9
$FILLETRAD
 40
0.5
  9
$AUNITS
 70
     0
  9
$AUPREC
 70
     0
  9
$MENU
  1
.
  9
$ELEVATION
 40
0.0
  9
$PELEVATION
 40
0.0
  9
$THICKNESS
 40
0.0
  9
$LIMCHECK
 70
     0
  9
$CHAMFERA
 40
0.0
  9
$CHAMFERB
 40
0.0
  9
$CHAMFERC
 40
0.0
  9
$CHAMFERD
 40
0.0
  9
$SKPOLY
 70
     0
  9
$TDCREATE
 40
2458353.076776412
  9
$TDUPDATE
 40
2458353.07677662
  9
$TDINDWG
 40
0.0000000116
  9
$TDUSRTIMER
 40
0.0000000116
  9
$USRTIMER
 70
     1
  9
$ANGBASE
 50
0.0
  9
$ANGDIR
 70
     0
  9
$PDMODE
 70
     0
  9
$PDSIZE
 40
0.0
  9
$PLINEWID
 40
0.0
  9
$COORDS
 70
     1
  9
$SPLFRAME
 70
     0
  9
$SPLINETYPE
 70
     6
  9
$SPLINESEGS
 70
     8
  9
$ATTDIA
 70
     0
  9
$ATTREQ
 70
     1
  9
$HANDLING
 70
     1
  9
$HANDSEED
  5
1C8
  9
$SURFTAB1
 70
     6
  9
$SURFTAB2
 70
     6
  9
$SURFTYPE
 70
     6
  9
$SURFU
 70
     6
  9
$SURFV
 70
     6
  9
$UCSNAME
  2

  9
$UCSORG
 10
0.0
 20
0.0
 30
0.0
  9
$UCSXDIR
 10
1.0
 20
0.0
 30
0.0
  9
$UCSYDIR
 10
0.0
 20
1.0
 30
0.0
  9
$PUCSNAME
  2

  9
$PUCSORG
 10
0.0
 20
0.0
 30
0.0
  9
$PUCSXDIR
 10
1.0
 20
0.0
 30
0.0
  9
$PUCSYDIR
 10
0.0
 20
1.0
 30
0.0
  9
$USERI1
 70
     0
  9
$USERI2
 70
     0
  9
$USERI3
 70
     0
  9
$USERI4
 70
     0
  9
$USERI5
 70
     0
  9
$USERR1
 40
0.0
  9
$USERR2
 40
0.0
  9
$USERR3
 40
0.0
  9
$USERR4
 40
0.0
  9
$USERR5
 40
0.0
  9
$WORLDVIEW
 70
     1
  9
$SHADEDGE
 70
     3
  9
$SHADEDIF
 70
    70
  9
$TILEMODE
 70
     1
  9
$MAXACTVP
 70
    64
  9
$PINSBASE
 10
0.0
 20
0.0
 30
0.0
  9
$PLIMCHECK
 70
     0
  9
$PEXTMIN
 10
1.000000000000000E+20
 20
1.000000000000000E+20
 30
1.000000000000000E+20
  9
$PEXTMAX
 10
-1.000000000000000E+20
 20
-1.000000000000000E+20
 30
-1.000000000000000E+20
  9
$PLIMMIN
 10
0.0
 20
0.0
  9
$PLIMMAX
 10
12.0
 20
9.0
  9
$UNITMODE
 70
     0
  9
$VISRETAIN
 70
     1
  9
$PLINEGEN
 70
     0
  9
$PSLTSCALE
 70
     1
  9
$TREEDEPTH
 70
  3020
  9
$PICKSTYLE
 70
     1
  9
$CMLSTYLE
  2
STANDARD
  9
$CMLJUST
 70
     0
  9
$CMLSCALE
 40
1.0
  9
$PROXYGRAPHICS
 70
     1
  9
$MEASUREMENT
 70
     1
  0
ENDSEC
  0
SECTION
  2
CLASSES
  0
CLASS
  1
ACDBDICTIONARYWDFLT
  2
AcDbDictionaryWithDefault
  3
ObjectDBX Classes
 90
        0
280
     0
281
     0
  0
CLASS
  1
VISUALSTYLE
  2
AcDbVisualStyle
  3
ObjectDBX Classes
 90
     4095
280
     0
281
     0
  0
CLASS
  1
MATERIAL
  2
AcDbMaterial
  3
ObjectDBX Classes
 90
     1153
280
     0
281
     0
  0
CLASS
  1
SCALE
  2
AcDbScale
  3
ObjectDBX Classes
 90
     1153
280
     0
281
     0
  0
CLASS
  1
TABLESTYLE
  2
AcDbTableStyle
  3
ObjectDBX Classes
 90
     4095
280
     0
281
     0
  0
CLASS
  1
MLEADERSTYLE
  2
AcDbMLeaderStyle
  3
ACDB_MLEADERSTYLE_CLASS
 90
     4095
280
     0
281
     0
  0
CLASS
  1
SUN
  2
AcDbSun
  3
SCENEOE
 90
     1153
280
     0
281
     0
  0
CLASS
  1
DICTIONARYVAR
  2
AcDbDictionaryVar
  3
ObjectDBX Classes
 90
        0
280
     0
281
     0
  0
CLASS
  1
XRECORD
  2
AcDbXrecord
  3
ObjectDBX Classes
 90
        0
280
     0
281
     0
  0
CLASS
  1
LWPOLYLINE
  2
AcDbPolyline
  3
ObjectDBX Classes
 90
        0
280
     0
281
     1
  0
CLASS
  1
HATCH
  2
AcDbHatch
  3
ObjectDBX Classes
 90
        0
280
     0
281
     1
  0
CLASS
  1
ACDBPLACEHOLDER
  2
AcDbPlaceHolder
  3
ObjectDBX Classes
 90
        0
280
     0
281
     0
  0
CLASS
  1
LAYOUT
  2
AcDbLayout
  3
ObjectDBX Classes
 90
        0
280
     0
281
     0
  0
ENDSEC
  0
SECTION
  2
TABLES
  0
TABLE
  2
VPORT
  5
8
102
{ACAD_XDICTIONARY
360
1BD
102
}
330
0
100
AcDbSymbolTable
 70
     1
  0
VPORT
  5
29
330
8
100
AcDbSymbolTableRecord
100
AcDbViewportTableRecord
  2
*ACTIVE
 70
     0
 10
0.0
 20
0.0
 11
1.0
 21
1.0
 12
0.0
 22
0.0
 13
0.0
 23
0.0
 14
0.5
 24
0.5
 15
0.5
 25
0.5
 16
0.0
 26
0.0
 36
1.0
 17
0.0
 27
0.0
 37
-1000.0
 40
5829.613734372314
 41
2.004914004914005
 42
50.0
 43
9244.586309860213
 44
16553.55151454473
 50
0.0
 51
0.0
 71
     0
 72
   100
 73
     1
 74
     3
 75
     0
 76
     0
 77
     0
 78
     0
  0
ENDTAB
  0
TABLE
  2
LTYPE
  5
5
330
0
100
AcDbSymbolTable
 70
     1
  0
LTYPE
  5
14
330
5
100
AcDbSymbolTableRecord
100
AcDbLinetypeTableRecord
  2
BYBLOCK
 70
     0
  3

 72
    65
 73
     0
 40
0.0
  0
LTYPE
  5
15
330
5
100
AcDbSymbolTableRecord
100
AcDbLinetypeTableRecord
  2
BYLAYER
 70
     0
  3

 72
    65
 73
     0
 40
0.0
  0
LTYPE
  5
16
330
5
100
AcDbSymbolTableRecord
100
AcDbLinetypeTableRecord
  2
CONTINUOUS
 70
     0
  3
Solid line
 72
    65
 73
     0
 40
0.0
  0
ENDTAB
  0
TABLE
  2
LAYER
  5
2
330
0
100
AcDbSymbolTable
 70
     3
  0
LAYER
  5
10
330
2
100
AcDbSymbolTableRecord
100
AcDbLayerTableRecord
  2
0
 70
     0
 62
     7
  6
CONTINUOUS
  0
LAYER
  5
6E
330
2
100
AcDbSymbolTableRecord
100
AcDbLayerTableRecord
  2
PROFILEEDGES
 70
     0
 62
     7
  6
CONTINUOUS
  0
LAYER
  5
6F
330
2
100
AcDbSymbolTableRecord
100
AcDbLayerTableRecord
  2
SECTIONCUTEDGES
 70
     0
 62
     7
  6
CONTINUOUS
  0
ENDTAB
  0
TABLE
  2
STYLE
  5
3
330
0
100
AcDbSymbolTable
 70
     1
  0
STYLE
  5
11
330
3
100
AcDbSymbolTableRecord
100
AcDbTextStyleTableRecord
  2
STANDARD
 70
     0
 40
0.0
 41
1.0
 50
0.0
 71
     0
 42
0.2
  3
txt
  4

  0
ENDTAB
  0
TABLE
  2
VIEW
  5
6
330
0
100
AcDbSymbolTable
 70
     0
  0
ENDTAB
  0
TABLE
  2
UCS
  5
7
330
0
100
AcDbSymbolTable
 70
     0
  0
ENDTAB
  0
TABLE
  2
APPID
  5
9
330
0
100
AcDbSymbolTable
 70
     2
  0
APPID
  5
12
330
9
100
AcDbSymbolTableRecord
100
AcDbRegAppTableRecord
  2
ACAD
 70
     0
  0
APPID
  5
1C7
330
9
100
AcDbSymbolTableRecord
100
AcDbRegAppTableRecord
  2
ACAD_MLEADERVER
 70
     0
  0
ENDTAB
  0
TABLE
  2
DIMSTYLE
  5
A
330
0
100
AcDbSymbolTable
 70
     1
  0
DIMSTYLE
105
27
330
A
100
AcDbSymbolTableRecord
100
AcDbDimStyleTableRecord
  2
STANDARD
 70
     0
  3

  4

  5

  6

  7

 40
1.0
 41
0.18
 42
0.0625
 43
0.38
 44
0.18
 45
0.0
 46
0.0
 47
0.0
 48
0.0
140
0.18
141
0.09
142
0.0
143
25.4
144
1.0
145
0.0
146
1.0
147
0.09
 71
     0
 72
     0
 73
     1
 74
     1
 75
     0
 76
     0
 77
     0
 78
     0
170
     0
171
     2
172
     0
173
     0
174
     0
175
     0
176
     0
177
     0
178
     0
270
     2
271
     4
272
     4
273
     2
274
     2
340
11
275
     0
280
     0
281
     0
282
     0
283
     1
284
     0
285
     0
286
     0
287
     3
288
     0
  0
ENDTAB
  0
TABLE
  2
BLOCK_RECORD
  5
1
330
0
100
AcDbSymbolTable
 70
     1
  0
BLOCK_RECORD
  5
1F
330
1
100
AcDbSymbolTableRecord
100
AcDbBlockTableRecord
  2
*MODEL_SPACE
  0
BLOCK_RECORD
  5
1B
330
1
100
AcDbSymbolTableRecord
100
AcDbBlockTableRecord
  2
*PAPER_SPACE
  0
ENDTAB
  0
ENDSEC
  0
SECTION
  2
BLOCKS
  0
BLOCK
  5
20
330
1F
100
AcDbEntity
  8
0
100
AcDbBlockBegin
  2
*MODEL_SPACE
 70
     0
 10
0.0
 20
0.0
 30
0.0
  3
*MODEL_SPACE
  1

  0
ENDBLK
  5
21
330
1F
100
AcDbEntity
  8
0
100
AcDbBlockEnd
  0
BLOCK
  5
1C
330
1B
100
AcDbEntity
 67
     1
  8
0
100
AcDbBlockBegin
  2
*PAPER_SPACE
 70
     0
 10
0.0
 20
0.0
 30
0.0
  3
*PAPER_SPACE
  1

  0
ENDBLK
  5
1D
330
1B
100
AcDbEntity
 67
     1
  8
0
100
AcDbBlockEnd
  0
ENDSEC
  0
SECTION
  2
ENTITIES
  0
LINE
  5
70
330
1F
100
AcDbEntity
  8
0
100
AcDbLine
 10
-1915.582657433061
 20
1109.024224514857
 30
0.0
 11
-1968.146455363242
 21
1143.3000745194
 31
0.0
  0
LINE
  5
71
330
1F
100
AcDbEntity
  8
0
100
AcDbLine
 10
-2021.077711965383
 20
1178.179782037841
 30
0.0
 11
-2067.296508452293
 21
1218.350084956056
 31
0.0
  0
LINE
  5
72
330
1F
100
AcDbEntity
  8
0
100
AcDbLine
 10
-2301.660309716257
 20
1323.622690182843
 30
0.0
 11
-2365.229400140296
 21
1343.440501301723
 31
0.0
  0
LINE
  5
73
330
1F
100
AcDbEntity
  8
0
100
AcDbLine
 10
-1573.315956321522
 20
936.3494326426105
 30
0.0
 11
-1628.374773411765
 21
971.8924818642292
 31
0.0
  0
LINE
  5
74
330
1F
100
AcDbEntity
  8
0
100
AcDbLine
 10
-2115.90785776667
 20
1256.242751126749
 30
0.0
 11
-2172.758456213363
 21
1285.992173307789
 31
0.0
  0
LINE
  5
75
330
1F
100
AcDbEntity
  8
0
100
AcDbLine
 10
-2067.296508452293
 20
1218.350084956056
 30
0.0
 11
-2115.90785776667
 21
1256.242751126749
 31
0.0
  0
LINE
  5
76
330
1F
100
AcDbEntity
  8
0
100
AcDbLine
 10
-1677.081091778442
 20
1012.33118197995
 30
0.0
 11
-1721.090524579871
 21
1056.361157667663
 31
0.0
  0
LINE
  5
77
330
1F
100
AcDbEntity
  8
0
100
AcDbLine
 10
-2365.229400140296
 20
1343.440501301723
 30
0.0
 11
-2429.707699300655
 21
1361.199990388115
 31
0.0
  0
LINE
  5
78
330
1F
100
AcDbEntity
  8
0
100
AcDbLine
 10
-1775.045829208877
 20
1090.735786221406
 30
0.0
 11
-1844.344525355919
 21
1103.098200095398
 31
0.0
  0
LINE
  5
79
330
1F
100
AcDbEntity
  8
0
100
AcDbLine
 10
-1968.146455363242
 20
1143.3000745194
 30
0.0
 11
-2021.077711965383
 21
1178.179782037841
 31
0.0
  0
LINE
  5
7A
330
1F
100
AcDbEntity
  8
0
100
AcDbLine
 10
-2518.510289041952
 20
1436.529098811023
 30
0.0
 11
-2570.685024465139
 21
1468.777597004132
 31
0.0
  0
LINE
  5
7B
330
1F
100
AcDbEntity
  8
0
100
AcDbLine
 10
-2570.685024465139
 20
1468.777597004132
 30
0.0
 11
-2631.536031177407
 21
1490.684494575471
 31
0.0
  0
LINE
  5
7C
330
1F
100
AcDbEntity
  8
0
100
AcDbLine
 10
-2631.536031177407
 20
1490.684494575471
 30
0.0
 11
-2697.403267507194
 21
1504.121839386159
 31
0.0
  0
LINE
  5
7D
330
1F
100
AcDbEntity
  8
0
100
AcDbLine
 10
-2697.403267507194
 20
1504.121839386159
 30
0.0
 11
-2759.787053693477
 21
1522.982720553001
 31
0.0
  0
LINE
  5
7E
330
1F
100
AcDbEntity
  8
0
100
AcDbLine
 10
-2759.787053693477
 20
1522.982720553001
 30
0.0
 11
-2812.203272602846
 21
1553.797598257892
 31
0.0
  0
LINE
  5
7F
330
1F
100
AcDbEntity
  8
0
100
AcDbLine
 10
-2172.758456213363
 20
1285.992173307789
 30
0.0
 11
-2236.054489579907
 21
1306.914561465402
 31
0.0
  0
LINE
  5
80
330
1F
100
AcDbEntity
  8
0
100
AcDbLine
 10
-1721.090524579871
 20
1056.361157667663
 30
0.0
 11
-1775.045829208877
 21
1090.735786221406
 31
0.0
  0
LINE
  5
81
330
1F
100
AcDbEntity
  8
0
100
AcDbLine
 10
-2236.054489579907
 20
1306.914561465402
 30
0.0
 11
-2301.660309716257
 21
1323.622690182843
 31
0.0
  0
LINE
  5
82
330
1F
100
AcDbEntity
  8
0
100
AcDbLine
 10
-1844.344525355919
 20
1103.098200095398
 30
0.0
 11
-1915.582657433061
 21
1109.024224514857
 31
0.0
  0
LINE
  5
83
330
1F
100
AcDbEntity
  8
0
100
AcDbLine
 10
-2429.707699300655
 20
1361.199990388115
 30
0.0
 11
-2484.263934651419
 21
1391.81386725907
 31
0.0
  0
LINE
  5
84
330
1F
100
AcDbEntity
  8
0
100
AcDbLine
 10
-2484.263934651419
 20
1391.81386725907
 30
0.0
 11
-2518.510289041952
 21
1436.529098811023
 31
0.0
  0
LINE
  5
85
330
1F
100
AcDbEntity
  8
0
100
AcDbLine
 10
-1628.374773411765
 20
971.8924818642292
 30
0.0
 11
-1677.081091778442
 21
1012.33118197995
 31
0.0
  0
LINE
  5
86
330
1F
100
AcDbEntity
  8
0
100
AcDbLine
 10
-320.8773660032508
 20
2124.611038645702
 30
0.0
 11
-261.2958449707289
 21
2101.401297266771
 31
0.0
  0
LINE
  5
87
330
1F
100
AcDbEntity
  8
0
100
AcDbLine
 10
-261.2958449707289
 20
2101.401297266771
 30
0.0
 11
-202.6729069478278
 21
2076.497764537357
 31
0.0
  0
LINE
  5
88
330
1F
100
AcDbEntity
  8
0
100
AcDbLine
 10
-27.41830268449003
 20
1998.778169841444
 30
0.0
 11
32.40493050936919
 21
1974.011444250617
 31
0.0
  0
LINE
  5
89
330
1F
100
AcDbEntity
  8
0
100
AcDbLine
 10
32.40493050936919
 20
1974.011444250617
 30
0.0
 11
94.05358265812116
 21
1951.636518032284
 31
0.0
  0
LINE
  5
8A
330
1F
100
AcDbEntity
  8
0
100
AcDbLine
 10
94.05358265812116
 20
1951.636518032284
 30
0.0
 11
157.6490752084131
 21
1932.300409216849
 31
0.0
  0
LINE
  5
8B
330
1F
100
AcDbEntity
  8
0
100
AcDbLine
 10
157.6490752084131
 20
1932.300409216849
 30
0.0
 11
221.9776370376878
 21
1914.059704343443
 31
0.0
  0
LINE
  5
8C
330
1F
100
AcDbEntity
  8
0
100
AcDbLine
 10
221.9776370376878
 20
1914.059704343443
 30
0.0
 11
286.372293377938
 21
1895.584686600134
 31
0.0
  0
LINE
  5
8D
330
1F
100
AcDbEntity
  8
0
100
AcDbLine
 10
286.372293377938
 20
1895.584686600134
 30
0.0
 11
350.2691583734572
 21
1875.6984570288
 31
0.0
  0
LINE
  5
8E
330
1F
100
AcDbEntity
  8
0
100
AcDbLine
 10
350.2691583734572
 20
1875.6984570288
 30
0.0
 11
413.5692704680551
 21
1854.232638125131
 31
0.0
  0
LINE
  5
8F
330
1F
100
AcDbEntity
  8
0
100
AcDbLine
 10
413.5692704680551
 20
1854.232638125131
 30
0.0
 11
476.3808277238064
 21
1831.490498643112
 31
0.0
  0
LINE
  5
90
330
1F
100
AcDbEntity
  8
0
100
AcDbLine
 10
476.3808277238064
 20
1831.490498643112
 30
0.0
 11
538.8139646983167
 21
1807.742810758451
 31
0.0
  0
LINE
  5
91
330
1F
100
AcDbEntity
  8
0
100
AcDbLine
 10
538.8139646983167
 20
1807.742810758451
 30
0.0
 11
600.9898651397984
 21
1783.167373172989
 31
0.0
  0
LINE
  5
92
330
1F
100
AcDbEntity
  8
0
100
AcDbLine
 10
600.9898651397984
 20
1783.167373172989
 30
0.0
 11
663.0192770206928
 21
1757.915282057042
 31
0.0
  0
LINE
  5
93
330
1F
100
AcDbEntity
  8
0
100
AcDbLine
 10
663.0192770206928
 20
1757.915282057042
 30
0.0
 11
724.5575348173779
 21
1731.522102454041
 31
0.0
  0
LINE
  5
94
330
1F
100
AcDbEntity
  8
0
100
AcDbLine
 10
724.5575348173779
 20
1731.522102454041
 30
0.0
 11
784.7491035656215
 21
1702.833314983193
 31
0.0
  0
LINE
  5
95
330
1F
100
AcDbEntity
  8
0
100
AcDbLine
 10
784.7491035656215
 20
1702.833314983193
 30
0.0
 11
843.4869926103792
 21
1671.879927930112
 31
0.0
  0
LINE
  5
96
330
1F
100
AcDbEntity
  8
0
100
AcDbLine
 10
843.4869926103792
 20
1671.879927930112
 30
0.0
 11
901.2630617928779
 21
1639.393311053854
 31
0.0
  0
LINE
  5
97
330
1F
100
AcDbEntity
  8
0
100
AcDbLine
 10
901.2630617928779
 20
1639.393311053854
 30
0.0
 11
958.8372214615351
 21
1606.235994979749
 31
0.0
  0
LINE
  5
98
330
1F
100
AcDbEntity
  8
0
100
AcDbLine
 10
958.8372214615351
 20
1606.235994979749
 30
0.0
 11
1016.51027146309
 21
1572.755193277198
 31
0.0
  0
LINE
  5
99
330
1F
100
AcDbEntity
  8
0
100
AcDbLine
 10
1016.51027146309
 20
1572.755193277198
 30
0.0
 11
1074.173824807523
 21
1538.834754188301
 31
0.0
  0
LINE
  5
9A
330
1F
100
AcDbEntity
  8
0
100
AcDbLine
 10
1074.173824807523
 20
1538.834754188301
 30
0.0
 11
1131.674186510644
 21
1504.306762266075
 31
0.0
  0
LINE
  5
9B
330
1F
100
AcDbEntity
  8
0
100
AcDbLine
 10
1131.674186510644
 20
1504.306762266075
 30
0.0
 11
1188.13299132106
 21
1468.240002463715
 31
0.0
  0
LINE
  5
9C
330
1F
100
AcDbEntity
  8
0
100
AcDbLine
 10
1188.13299132106
 20
1468.240002463715
 30
0.0
 11
1241.984968239266
 21
1429.037172116193
 31
0.0
  0
LINE
  5
9D
330
1F
100
AcDbEntity
  8
0
100
AcDbLine
 10
1241.984968239266
 20
1429.037172116193
 30
0.0
 11
1292.056370569537
 21
1386.95616989916
 31
0.0
  0
LINE
  5
9E
330
1F
100
AcDbEntity
  8
0
100
AcDbLine
 10
1292.056370569537
 20
1386.95616989916
 30
0.0
 11
1349.916738644878
 21
1355.670329589629
 31
0.0
  0
LINE
  5
9F
330
1F
100
AcDbEntity
  8
0
100
AcDbLine
 10
1349.916738644878
 20
1355.670329589629
 30
0.0
 11
1420.359818315537
 21
1359.436208715119
 31
0.0
  0
LINE
  5
A0
330
1F
100
AcDbEntity
  8
0
100
AcDbLine
 10
1420.359818315537
 20
1359.436208715119
 30
0.0
 11
1491.678219351643
 21
1355.249530191084
 31
0.0
  0
LINE
  5
A1
330
1F
100
AcDbEntity
  8
0
100
AcDbLine
 10
1491.678219351643
 20
1355.249530191084
 30
0.0
 11
1561.511445363337
 21
1340.878679556515
 31
0.0
  0
LINE
  5
A2
330
1F
100
AcDbEntity
  8
0
100
AcDbLine
 10
1561.511445363337
 20
1340.878679556515
 30
0.0
 11
1626.343230995667
 21
1312.486596291216
 31
0.0
  0
LINE
  5
A3
330
1F
100
AcDbEntity
  8
0
100
AcDbLine
 10
1626.343230995667
 20
1312.486596291216
 30
0.0
 11
1689.571807236701
 21
1281.274653421398
 31
0.0
  0
LINE
  5
A4
330
1F
100
AcDbEntity
  8
0
100
AcDbLine
 10
1689.571807236701
 20
1281.274653421398
 30
0.0
 11
1751.92570032526
 21
1248.249605213638
 31
0.0
  0
LINE
  5
A5
330
1F
100
AcDbEntity
  8
0
100
AcDbLine
 10
1751.92570032526
 20
1248.249605213638
 30
0.0
 11
1812.102631606959
 21
1212.506201459766
 31
0.0
  0
LINE
  5
A6
330
1F
100
AcDbEntity
  8
0
100
AcDbLine
 10
1812.102631606959
 20
1212.506201459766
 30
0.0
 11
1868.998172315531
 21
1172.805992558541
 31
0.0
  0
LINE
  5
A7
330
1F
100
AcDbEntity
  8
0
100
AcDbLine
 10
1868.998172315531
 20
1172.805992558541
 30
0.0
 11
1921.456194848238
 21
1127.403075614263
 31
0.0
  0
LINE
  5
A8
330
1F
100
AcDbEntity
  8
0
100
AcDbLine
 10
1921.456194848238
 20
1127.403075614263
 30
0.0
 11
1956.021756853507
 21
1073.838236006437
 31
0.0
  0
LINE
  5
A9
330
1F
100
AcDbEntity
  8
0
100
AcDbLine
 10
1956.021756853507
 20
1073.838236006437
 30
0.0
 11
1959.566818074039
 21
1015.050756124313
 31
0.0
  0
LINE
  5
AA
330
1F
100
AcDbEntity
  8
0
100
AcDbLine
 10
1959.566818074039
 20
1015.050756124313
 30
0.0
 11
1931.649126308365
 21
963.6423410309617
 31
0.0
  0
LINE
  5
AB
330
1F
100
AcDbEntity
  8
0
100
AcDbLine
 10
1931.649126308365
 20
963.6423410309617
 30
0.0
 11
1880.398773961948
 21
925.1658940518998
 31
0.0
  0
LINE
  5
AC
330
1F
100
AcDbEntity
  8
0
100
AcDbLine
 10
1880.398773961948
 20
925.1658940518998
 30
0.0
 11
1821.135112232221
 21
894.7064811103448
 31
0.0
  0
LINE
  5
AD
330
1F
100
AcDbEntity
  8
0
100
AcDbLine
 10
1821.135112232221
 20
894.7064811103448
 30
0.0
 11
1753.172237614261
 21
876.6434285157532
 31
0.0
  0
LINE
  5
AE
330
1F
100
AcDbEntity
  8
0
100
AcDbLine
 10
1753.172237614261
 20
876.6434285157532
 30
0.0
 11
1680.958517226088
 21
868.4475868674326
 31
0.0
  0
LINE
  5
AF
330
1F
100
AcDbEntity
  8
0
100
AcDbLine
 10
1680.958517226088
 20
868.4475868674326
 30
0.0
 11
1607.906037292162
 21
876.6688147281191
 31
0.0
  0
LINE
  5
B0
330
1F
100
AcDbEntity
  8
0
100
AcDbLine
 10
1607.906037292162
 20
876.6688147281191
 30
0.0
 11
1535.631660501685
 21
883.8120416968254
 31
0.0
  0
LINE
  5
B1
330
1F
100
AcDbEntity
  8
0
100
AcDbLine
 10
1535.631660501685
 20
883.8120416968254
 30
0.0
 11
1547.166717607489
 21
830.0549671615929
 31
0.0
  0
LINE
  5
B2
330
1F
100
AcDbEntity
  8
0
100
AcDbLine
 10
1547.166717607489
 20
830.0549671615929
 30
0.0
 11
1606.093304961126
 21
790.1243977060583
 31
0.0
  0
LINE
  5
B3
330
1F
100
AcDbEntity
  8
0
100
AcDbLine
 10
1606.093304961126
 20
790.1243977060583
 30
0.0
 11
1679.404954044226
 21
788.0912355623826
 31
0.0
  0
LINE
  5
B4
330
1F
100
AcDbEntity
  8
0
100
AcDbLine
 10
1679.404954044226
 20
788.0912355623826
 30
0.0
 11
1744.45382529657
 21
812.3536317544034
 31
0.0
  0
LINE
  5
B5
330
1F
100
AcDbEntity
  8
0
100
AcDbLine
 10
1744.45382529657
 20
812.3536317544034
 30
0.0
 11
1808.924576640703
 21
836.7933083398005
 31
0.0
  0
LINE
  5
B6
330
1F
100
AcDbEntity
  8
0
100
AcDbLine
 10
1808.924576640703
 20
836.7933083398005
 30
0.0
 11
1880.175577317155
 21
846.5314870613502
 31
0.0
  0
LINE
  5
B7
330
1F
100
AcDbEntity
  8
0
100
AcDbLine
 10
1880.175577317155
 20
846.5314870613502
 30
0.0
 11
1954.202522778344
 21
842.2431367585369
 31
0.0
  0
LINE
  5
B8
330
1F
100
AcDbEntity
  8
0
100
AcDbLine
 10
1954.202522778344
 20
842.2431367585369
 30
0.0
 11
2025.83966841524
 21
822.1445434351872
 31
0.0
  0
LINE
  5
B9
330
1F
100
AcDbEntity
  8
0
100
AcDbLine
 10
2025.83966841524
 20
822.1445434351872
 30
0.0
 11
2093.209423277669
 21
790.8140204697971
 31
0.0
  0
LINE
  5
BA
330
1F
100
AcDbEntity
  8
0
100
AcDbLine
 10
2093.209423277669
 20
790.8140204697971
 30
0.0
 11
2160.081493196295
 21
758.2440170203993
 31
0.0
  0
LINE
  5
BB
330
1F
100
AcDbEntity
  8
0
100
AcDbLine
 10
2160.081493196295
 20
758.2440170203993
 30
0.0
 11
2223.513775547135
 21
720.2810323546285
 31
0.0
  0
LINE
  5
BC
330
1F
100
AcDbEntity
  8
0
100
AcDbLine
 10
2223.513775547135
 20
720.2810323546285
 30
0.0
 11
2271.914268068618
 21
668.6747062825624
 31
0.0
  0
LINE
  5
BD
330
1F
100
AcDbEntity
  8
0
100
AcDbLine
 10
2271.914268068618
 20
668.6747062825624
 30
0.0
 11
2311.387605453043
 21
612.2092790935972
 31
0.0
  0
LINE
  5
BE
330
1F
100
AcDbEntity
  8
0
100
AcDbLine
 10
2311.387605453043
 20
612.2092790935972
 30
0.0
 11
2341.089752069118
 21
552.0846834703162
 31
0.0
  0
LINE
  5
BF
330
1F
100
AcDbEntity
  8
0
100
AcDbLine
 10
2341.089752069118
 20
552.0846834703162
 30
0.0
 11
2358.826373492777
 21
488.8533931181558
 31
0.0
  0
LINE
  5
C0
330
1F
100
AcDbEntity
  8
0
100
AcDbLine
 10
2358.826373492777
 20
488.8533931181558
 30
0.0
 11
2354.267165931325
 21
426.6334710014649
 31
0.0
  0
LINE
  5
C1
330
1F
100
AcDbEntity
  8
0
100
AcDbLine
 10
2354.267165931325
 20
426.6334710014649
 30
0.0
 11
2320.888771172608
 21
372.8218143001591
 31
0.0
  0
LINE
  5
C2
330
1F
100
AcDbEntity
  8
0
100
AcDbLine
 10
2320.888771172608
 20
372.8218143001591
 30
0.0
 11
2282.855468206025
 21
321.4658534515377
 31
0.0
  0
LINE
  5
C3
330
1F
100
AcDbEntity
  8
0
100
AcDbLine
 10
2282.855468206025
 20
321.4658534515377
 30
0.0
 11
2268.361206948516
 21
299.4203339490479
 31
0.0
  0
LINE
  5
C4
330
1F
100
AcDbEntity
  8
0
100
AcDbLine
 10
2268.361206948516
 20
299.4203339490479
 30
0.0
 11
2306.000835121198
 21
282.7315744878901
 31
0.0
  0
LINE
  5
C5
330
1F
100
AcDbEntity
  8
0
100
AcDbLine
 10
2306.000835121198
 20
282.7315744878901
 30
0.0
 11
2335.463657359443
 21
269.8458657689306
 31
0.0
  0
LINE
  5
C6
330
1F
100
AcDbEntity
  8
0
100
AcDbLine
 10
2335.463657359443
 20
269.8458657689306
 30
0.0
 11
2400.190439388159
 21
240.676707838294
 31
0.0
  0
LINE
  5
C7
330
1F
100
AcDbEntity
  8
0
100
AcDbLine
 10
2400.190439388159
 20
240.676707838294
 30
0.0
 11
2464.776611633718
 21
209.3772356234228
 31
0.0
  0
LINE
  5
C8
330
1F
100
AcDbEntity
  8
0
100
AcDbLine
 10
2464.776611633718
 20
209.3772356234228
 30
0.0
 11
2511.794844970561
 21
179.9457967958516
 31
0.0
  0
LINE
  5
C9
330
1F
100
AcDbEntity
  8
0
100
AcDbLine
 10
2511.794844970561
 20
179.9457967958516
 30
0.0
 11
2551.958076082088
 21
142.2628654814656
 31
0.0
  0
LINE
  5
CA
330
1F
100
AcDbEntity
  8
0
100
AcDbLine
 10
2551.958076082088
 20
142.2628654814656
 30
0.0
 11
2588.571520114748
 21
99.49761617389122
 31
0.0
  0
LINE
  5
CB
330
1F
100
AcDbEntity
  8
0
100
AcDbLine
 10
2588.571520114748
 20
99.49761617389122
 30
0.0
 11
2620.754778029344
 21
55.25064020534896
 31
0.0
  0
LINE
  5
CC
330
1F
100
AcDbEntity
  8
0
100
AcDbLine
 10
2620.754778029344
 20
55.25064020534896
 30
0.0
 11
2647.022767503857
 21
9.029335102599143
 31
0.0
  0
LINE
  5
CD
330
1F
100
AcDbEntity
  8
0
100
AcDbLine
 10
2647.022767503857
 20
9.029335102599143
 30
0.0
 11
2666.236209439058
 21
-39.50675448264133
 31
0.0
  0
LINE
  5
CE
330
1F
100
AcDbEntity
  8
0
100
AcDbLine
 10
2666.236209439058
 20
-39.50675448264133
 30
0.0
 11
2678.34467734441
 21
-89.83161140982074
 31
0.0
  0
LINE
  5
CF
330
1F
100
AcDbEntity
  8
0
100
AcDbLine
 10
2678.34467734441
 20
-89.83161140982074
 30
0.0
 11
2682.912365316254
 21
-140.9448358011336
 31
0.0
  0
LINE
  5
D0
330
1F
100
AcDbEntity
  8
0
100
AcDbLine
 10
2682.912365316254
 20
-140.9448358011336
 30
0.0
 11
2675.941012895961
 21
-189.9491935331331
 31
0.0
  0
LINE
  5
D1
330
1F
100
AcDbEntity
  8
0
100
AcDbLine
 10
2675.941012895961
 20
-189.9491935331331
 30
0.0
 11
2652.69440796052
 21
-233.0838435526689
 31
0.0
  0
LINE
  5
D2
330
1F
100
AcDbEntity
  8
0
100
AcDbLine
 10
2652.69440796052
 20
-233.0838435526689
 30
0.0
 11
2618.148795759523
 21
-269.6933244360917
 31
0.0
  0
LINE
  5
D3
330
1F
100
AcDbEntity
  8
0
100
AcDbLine
 10
2618.148795759523
 20
-269.6933244360917
 30
0.0
 11
2581.177741259855
 21
-305.0812915151087
 31
0.0
  0
LINE
  5
D4
330
1F
100
AcDbEntity
  8
0
100
AcDbLine
 10
2581.177741259855
 20
-305.0812915151087
 30
0.0
 11
2547.473221203898
 21
-342.6820498779114
 31
0.0
  0
LINE
  5
D5
330
1F
100
AcDbEntity
  8
0
100
AcDbLine
 10
2547.473221203898
 20
-342.6820498779114
 30
0.0
 11
2578.011440277552
 21
-383.2149719504353
 31
0.0
  0
LINE
  5
D6
330
1F
100
AcDbEntity
  8
0
100
AcDbLine
 10
2578.011440277552
 20
-383.2149719504353
 30
0.0
 11
2628.289932832301
 21
-416.313820396601
 31
0.0
  0
LINE
  5
D7
330
1F
100
AcDbEntity
  8
0
100
AcDbLine
 10
2628.289932832301
 20
-416.313820396601
 30
0.0
 11
2677.314600568014
 21
-451.2310273682123
 31
0.0
  0
LINE
  5
D8
330
1F
100
AcDbEntity
  8
0
100
AcDbLine
 10
2677.314600568014
 20
-451.2310273682123
 30
0.0
 11
2719.556027389327
 21
-492.5905963203664
 31
0.0
  0
LINE
  5
D9
330
1F
100
AcDbEntity
  8
0
100
AcDbLine
 10
2719.556027389327
 20
-492.5905963203664
 30
0.0
 11
2747.366063073647
 21
-542.8266675364825
 31
0.0
  0
LINE
  5
DA
330
1F
100
AcDbEntity
  8
0
100
AcDbLine
 10
2747.366063073647
 20
-542.8266675364825
 30
0.0
 11
2769.801534321427
 21
-594.4097485310227
 31
0.0
  0
LINE
  5
DB
330
1F
100
AcDbEntity
  8
0
100
AcDbLine
 10
2769.801534321427
 20
-594.4097485310227
 30
0.0
 11
2787.104396086123
 21
-647.39218016317
 31
0.0
  0
LINE
  5
DC
330
1F
100
AcDbEntity
  8
0
100
AcDbLine
 10
2787.104396086123
 20
-647.39218016317
 30
0.0
 11
2793.902908182323
 21
-701.0566311123491
 31
0.0
  0
LINE
  5
DD
330
1F
100
AcDbEntity
  8
0
100
AcDbLine
 10
2793.902908182323
 20
-701.0566311123491
 30
0.0
 11
2789.098642790857
 21
-753.8891420012098
 31
0.0
  0
LINE
  5
DE
330
1F
100
AcDbEntity
  8
0
100
AcDbLine
 10
2789.098642790857
 20
-753.8891420012098
 30
0.0
 11
2778.099501088776
 21
-805.4181530789106
 31
0.0
  0
LINE
  5
DF
330
1F
100
AcDbEntity
  8
0
100
AcDbLine
 10
2778.099501088776
 20
-805.4181530789106
 30
0.0
 11
2759.712284700927
 21
-854.6752535852931
 31
0.0
  0
LINE
  5
E0
330
1F
100
AcDbEntity
  8
0
100
AcDbLine
 10
2759.712284700927
 20
-854.6752535852931
 30
0.0
 11
2727.927630838563
 21
-896.9317152098253
 31
0.0
  0
LINE
  5
E1
330
1F
100
AcDbEntity
  8
0
100
AcDbLine
 10
2727.927630838563
 20
-896.9317152098253
 30
0.0
 11
2685.602480691854
 21
-931.0936114147985
 31
0.0
  0
LINE
  5
E2
330
1F
100
AcDbEntity
  8
0
100
AcDbLine
 10
2685.602480691854
 20
-931.0936114147985
 30
0.0
 11
2635.662876910418
 21
-956.3662339052768
 31
0.0
  0
LINE
  5
E3
330
1F
100
AcDbEntity
  8
0
100
AcDbLine
 10
2635.662876910418
 20
-956.3662339052768
 30
0.0
 11
2579.179387405779
 21
-970.3664556695759
 31
0.0
  0
LINE
  5
E4
330
1F
100
AcDbEntity
  8
0
100
AcDbLine
 10
2579.179387405779
 20
-970.3664556695759
 30
0.0
 11
2519.490395500412
 21
-974.5906912196504
 31
0.0
  0
LINE
  5
E5
330
1F
100
AcDbEntity
  8
0
100
AcDbLine
 10
2519.490395500412
 20
-974.5906912196504
 30
0.0
 11
2460.986123705701
 21
-983.1114408576846
 31
0.0
  0
LINE
  5
E6
330
1F
100
AcDbEntity
  8
0
100
AcDbLine
 10
2460.986123705701
 20
-983.1114408576846
 30
0.0
 11
2462.386927653825
 21
-1034.573869163781
 31
0.0
  0
LINE
  5
E7
330
1F
100
AcDbEntity
  8
0
100
AcDbLine
 10
2462.386927653825
 20
-1034.573869163781
 30
0.0
 11
2495.212934512902
 21
-1085.613678322561
 31
0.0
  0
LINE
  5
E8
330
1F
100
AcDbEntity
  8
0
100
AcDbLine
 10
2495.212934512902
 20
-1085.613678322561
 30
0.0
 11
2531.154627925165
 21
-1135.62283364378
 31
0.0
  0
LINE
  5
E9
330
1F
100
AcDbEntity
  8
0
100
AcDbLine
 10
2531.154627925165
 20
-1135.62283364378
 30
0.0
 11
2564.062928576812
 21
-1187.476329814774
 31
0.0
  0
LINE
  5
EA
330
1F
100
AcDbEntity
  8
0
100
AcDbLine
 10
2564.062928576812
 20
-1187.476329814774
 30
0.0
 11
2590.789562273858
 21
-1242.176138060196
 31
0.0
  0
LINE
  5
EB
330
1F
100
AcDbEntity
  8
0
100
AcDbLine
 10
2590.789562273858
 20
-1242.176138060196
 30
0.0
 11
2610.265171914506
 21
-1299.022981163306
 31
0.0
  0
LINE
  5
EC
330
1F
100
AcDbEntity
  8
0
100
AcDbLine
 10
2610.265171914506
 20
-1299.022981163306
 30
0.0
 11
2622.518921040418
 21
-1356.91379556794
 31
0.0
  0
LINE
  5
ED
330
1F
100
AcDbEntity
  8
0
100
AcDbLine
 10
2622.518921040418
 20
-1356.91379556794
 30
0.0
 11
2629.80356455777
 21
-1415.437437913169
 31
0.0
  0
LINE
  5
EE
330
1F
100
AcDbEntity
  8
0
100
AcDbLine
 10
2629.80356455777
 20
-1415.437437913169
 30
0.0
 11
2633.234107365229
 21
-1474.132074735738
 31
0.0
  0
LINE
  5
EF
330
1F
100
AcDbEntity
  8
0
100
AcDbLine
 10
2633.234107365229
 20
-1474.132074735738
 30
0.0
 11
2623.306630647019
 21
-1530.607207632624
 31
0.0
  0
LINE
  5
F0
330
1F
100
AcDbEntity
  8
0
100
AcDbLine
 10
2623.306630647019
 20
-1530.607207632624
 30
0.0
 11
2599.675313475326
 21
-1582.204744827153
 31
0.0
  0
LINE
  5
F1
330
1F
100
AcDbEntity
  8
0
100
AcDbLine
 10
2599.675313475326
 20
-1582.204744827153
 30
0.0
 11
2573.538496548191
 21
-1632.906336342412
 31
0.0
  0
LINE
  5
F2
330
1F
100
AcDbEntity
  8
0
100
AcDbLine
 10
2573.538496548191
 20
-1632.906336342412
 30
0.0
 11
2539.492532957529
 21
-1678.805862173901
 31
0.0
  0
LINE
  5
F3
330
1F
100
AcDbEntity
  8
0
100
AcDbLine
 10
2539.492532957529
 20
-1678.805862173901
 30
0.0
 11
2492.907085236632
 21
-1713.68471791251
 31
0.0
  0
LINE
  5
F4
330
1F
100
AcDbEntity
  8
0
100
AcDbLine
 10
2492.907085236632
 20
-1713.68471791251
 30
0.0
 11
2441.786805138344
 21
-1743.390911821355
 31
0.0
  0
LINE
  5
F5
330
1F
100
AcDbEntity
  8
0
100
AcDbLine
 10
2441.786805138344
 20
-1743.390911821355
 30
0.0
 11
2387.855671916552
 21
-1768.979977386529
 31
0.0
  0
LINE
  5
F6
330
1F
100
AcDbEntity
  8
0
100
AcDbLine
 10
2387.855671916552
 20
-1768.979977386529
 30
0.0
 11
2331.004506593853
 21
-1789.754451103866
 31
0.0
  0
LINE
  5
F7
330
1F
100
AcDbEntity
  8
0
100
AcDbLine
 10
2331.004506593853
 20
-1789.754451103866
 30
0.0
 11
2271.728378492845
 21
-1805.66019521934
 31
0.0
  0
LINE
  5
F8
330
1F
100
AcDbEntity
  8
0
100
AcDbLine
 10
2271.728378492845
 20
-1805.66019521934
 30
0.0
 11
2210.699191100455
 21
-1816.88034574481
 31
0.0
  0
LINE
  5
F9
330
1F
100
AcDbEntity
  8
0
100
AcDbLine
 10
2210.699191100455
 20
-1816.88034574481
 30
0.0
 11
2148.471183274056
 21
-1823.944198823051
 31
0.0
  0
LINE
  5
FA
330
1F
100
AcDbEntity
  8
0
100
AcDbLine
 10
2148.471183274056
 20
-1823.944198823051
 30
0.0
 11
2085.52650074987
 21
-1827.653728250228
 31
0.0
  0
LINE
  5
FB
330
1F
100
AcDbEntity
  8
0
100
AcDbLine
 10
2085.52650074987
 20
-1827.653728250228
 30
0.0
 11
2022.507751121194
 21
-1830.950785178102
 31
0.0
  0
LINE
  5
FC
330
1F
100
AcDbEntity
  8
0
100
AcDbLine
 10
2022.507751121194
 20
-1830.950785178102
 30
0.0
 11
1959.631430020943
 21
-1835.225311060811
 31
0.0
  0
LINE
  5
FD
330
1F
100
AcDbEntity
  8
0
100
AcDbLine
 10
1959.631430020943
 20
-1835.225311060811
 30
0.0
 11
1896.682452177648
 21
-1839.257076725479
 31
0.0
  0
LINE
  5
FE
330
1F
100
AcDbEntity
  8
0
100
AcDbLine
 10
1896.682452177648
 20
-1839.257076725479
 30
0.0
 11
1833.445888443859
 21
-1841.343179575875
 31
0.0
  0
LINE
  5
FF
330
1F
100
AcDbEntity
  8
0
100
AcDbLine
 10
1833.445888443859
 20
-1841.343179575875
 30
0.0
 11
1769.941587142071
 21
-1841.824930774309
 31
0.0
  0
LINE
  5
100
330
1F
100
AcDbEntity
  8
0
100
AcDbLine
 10
1769.941587142071
 20
-1841.824930774309
 30
0.0
 11
1706.389664471467
 21
-1831.241227494401
 31
0.0
  0
LINE
  5
101
330
1F
100
AcDbEntity
  8
0
100
AcDbLine
 10
1706.389664471467
 20
-1831.241227494401
 30
0.0
 11
1642.727396064858
 21
-1822.854797428164
 31
0.0
  0
LINE
  5
102
330
1F
100
AcDbEntity
  8
0
100
AcDbLine
 10
1642.727396064858
 20
-1822.854797428164
 30
0.0
 11
1579.34499011306
 21
-1811.094340913673
 31
0.0
  0
LINE
  5
103
330
1F
100
AcDbEntity
  8
0
100
AcDbLine
 10
1579.34499011306
 20
-1811.094340913673
 30
0.0
 11
1516.649235523551
 21
-1795.291746369339
 31
0.0
  0
LINE
  5
104
330
1F
100
AcDbEntity
  8
0
100
AcDbLine
 10
1516.649235523551
 20
-1795.291746369339
 30
0.0
 11
1455.099536670516
 21
-1775.046227194046
 31
0.0
  0
LINE
  5
105
330
1F
100
AcDbEntity
  8
0
100
AcDbLine
 10
1455.099536670516
 20
-1775.046227194046
 30
0.0
 11
1395.251174572964
 21
-1750.181701726219
 31
0.0
  0
LINE
  5
106
330
1F
100
AcDbEntity
  8
0
100
AcDbLine
 10
1395.251174572964
 20
-1750.181701726219
 30
0.0
 11
1337.709272276618
 21
-1720.65261953783
 31
0.0
  0
LINE
  5
107
330
1F
100
AcDbEntity
  8
0
100
AcDbLine
 10
1337.709272276618
 20
-1720.65261953783
 30
0.0
 11
1282.980188849252
 21
-1686.595243506277
 31
0.0
  0
LINE
  5
108
330
1F
100
AcDbEntity
  8
0
100
AcDbLine
 10
1282.980188849252
 20
-1686.595243506277
 30
0.0
 11
1231.287020510019
 21
-1648.654630222155
 31
0.0
  0
LINE
  5
109
330
1F
100
AcDbEntity
  8
0
100
AcDbLine
 10
1231.287020510019
 20
-1648.654630222155
 30
0.0
 11
1182.752585544963
 21
-1607.560017846366
 31
0.0
  0
LINE
  5
10A
330
1F
100
AcDbEntity
  8
0
100
AcDbLine
 10
1182.752585544963
 20
-1607.560017846366
 30
0.0
 11
1137.032689166866
 21
-1564.000241207868
 31
0.0
  0
LINE
  5
10B
330
1F
100
AcDbEntity
  8
0
100
AcDbLine
 10
1137.032689166866
 20
-1564.000241207868
 30
0.0
 11
1093.59780027374
 21
-1518.564816169841
 31
0.0
  0
LINE
  5
10C
330
1F
100
AcDbEntity
  8
0
100
AcDbLine
 10
1093.59780027374
 20
-1518.564816169841
 30
0.0
 11
1054.590756483132
 21
-1470.37949495666
 31
0.0
  0
LINE
  5
10D
330
1F
100
AcDbEntity
  8
0
100
AcDbLine
 10
1054.590756483132
 20
-1470.37949495666
 30
0.0
 11
1023.315868133554
 21
-1418.024305385306
 31
0.0
  0
LINE
  5
10E
330
1F
100
AcDbEntity
  8
0
100
AcDbLine
 10
1023.315868133554
 20
-1418.024305385306
 30
0.0
 11
995.139425490984
 21
-1364.538691365753
 31
0.0
  0
LINE
  5
10F
330
1F
100
AcDbEntity
  8
0
100
AcDbLine
 10
995.139425490984
 20
-1364.538691365753
 30
0.0
 11
954.9798704258786
 21
-1318.655649730868
 31
0.0
  0
LINE
  5
110
330
1F
100
AcDbEntity
  8
0
100
AcDbLine
 10
954.9798704258786
 20
-1318.655649730868
 30
0.0
 11
908.62754918173
 21
-1279.017662057346
 31
0.0
  0
LINE
  5
111
330
1F
100
AcDbEntity
  8
0
100
AcDbLine
 10
908.62754918173
 20
-1279.017662057346
 30
0.0
 11
856.7622883196947
 21
-1245.8024078799
 31
0.0
  0
LINE
  5
112
330
1F
100
AcDbEntity
  8
0
100
AcDbLine
 10
856.7622883196947
 20
-1245.8024078799
 30
0.0
 11
807.1985991739857
 21
-1209.701939933652
 31
0.0
  0
LINE
  5
113
330
1F
100
AcDbEntity
  8
0
100
AcDbLine
 10
807.1985991739857
 20
-1209.701939933652
 30
0.0
 11
760.7276021794851
 21
-1170.464519782375
 31
0.0
  0
LINE
  5
114
330
1F
100
AcDbEntity
  8
0
100
AcDbLine
 10
760.7276021794851
 20
-1170.464519782375
 30
0.0
 11
721.67637978692
 21
-1125.553379798238
 31
0.0
  0
LINE
  5
115
330
1F
100
AcDbEntity
  8
0
100
AcDbLine
 10
721.67637978692
 20
-1125.553379798238
 30
0.0
 11
666.574713704907
 21
-1107.071262888861
 31
0.0
  0
LINE
  5
116
330
1F
100
AcDbEntity
  8
0
100
AcDbLine
 10
666.574713704907
 20
-1107.071262888861
 30
0.0
 11
606.4210503237294
 21
-1111.971048306844
 31
0.0
  0
LINE
  5
117
330
1F
100
AcDbEntity
  8
0
100
AcDbLine
 10
606.4210503237294
 20
-1111.971048306844
 30
0.0
 11
545.586814698447
 21
-1115.907705505728
 31
0.0
  0
LINE
  5
118
330
1F
100
AcDbEntity
  8
0
100
AcDbLine
 10
545.586814698447
 20
-1115.907705505728
 30
0.0
 11
485.2841513873683
 21
-1106.800652061632
 31
0.0
  0
LINE
  5
119
330
1F
100
AcDbEntity
  8
0
100
AcDbLine
 10
485.2841513873683
 20
-1106.800652061632
 30
0.0
 11
427.8141805563617
 21
-1086.482600159471
 31
0.0
  0
LINE
  5
11A
330
1F
100
AcDbEntity
  8
0
100
AcDbLine
 10
427.8141805563617
 20
-1086.482600159471
 30
0.0
 11
370.42969525671
 21
-1066.605806505028
 31
0.0
  0
LINE
  5
11B
330
1F
100
AcDbEntity
  8
0
100
AcDbLine
 10
370.42969525671
 20
-1066.605806505028
 30
0.0
 11
312.7813097426562
 21
-1047.759359808844
 31
0.0
  0
LINE
  5
11C
330
1F
100
AcDbEntity
  8
0
100
AcDbLine
 10
197.003382706171
 20
-1011.477150122726
 30
0.0
 11
138.3713144882122
 21
-992.3544415756977
 31
0.0
  0
LINE
  5
11D
330
1F
100
AcDbEntity
  8
0
100
AcDbLine
 10
138.3713144882122
 20
-992.3544415756977
 30
0.0
 11
80.34126688981196
 21
-972.7310869066056
 31
0.0
  0
LINE
  5
11E
330
1F
100
AcDbEntity
  8
0
100
AcDbLine
 10
80.34126688981196
 20
-972.7310869066056
 30
0.0
 11
24.0435879266472
 21
-953.0141875113104
 31
0.0
  0
LINE
  5
11F
330
1F
100
AcDbEntity
  8
0
100
AcDbLine
 10
24.0435879266472
 20
-953.0141875113104
 30
0.0
 11
-29.40199929843754
 21
-933.6071066323428
 31
0.0
  0
LINE
  5
120
330
1F
100
AcDbEntity
  8
0
100
AcDbLine
 10
-29.40199929843754
 20
-933.6071066323428
 30
0.0
 11
-79.87173463926551
 21
-914.1916960914006
 31
0.0
  0
LINE
  5
121
330
1F
100
AcDbEntity
  8
0
100
AcDbLine
 10
-79.87173463926551
 20
-914.1916960914006
 30
0.0
 11
-130.6580816514764
 21
-891.9610408605045
 31
0.0
  0
LINE
  5
122
330
1F
100
AcDbEntity
  8
0
100
AcDbLine
 10
-130.6580816514764
 20
-891.9610408605045
 30
0.0
 11
-185.7432600857606
 21
-863.5994327694093
 31
0.0
  0
LINE
  5
123
330
1F
100
AcDbEntity
  8
0
100
AcDbLine
 10
-185.7432600857606
 20
-863.5994327694093
 30
0.0
 11
-248.6982212771641
 21
-826.1078594274605
 31
0.0
  0
LINE
  5
124
330
1F
100
AcDbEntity
  8
0
100
AcDbLine
 10
-248.6982212771641
 20
-826.1078594274605
 30
0.0
 11
-313.6708761782098
 21
-783.8715041420464
 31
0.0
  0
LINE
  5
125
330
1F
100
AcDbEntity
  8
0
100
AcDbLine
 10
-313.6708761782098
 20
-783.8715041420464
 30
0.0
 11
-364.620278193467
 21
-749.2780287375971
 31
0.0
  0
LINE
  5
126
330
1F
100
AcDbEntity
  8
0
100
AcDbLine
 10
-364.620278193467
 20
-749.2780287375971
 30
0.0
 11
-385.2223114021755
 21
-734.9501962622091
 31
0.0
  0
LINE
  5
127
330
1F
100
AcDbEntity
  8
0
100
AcDbLine
 10
-385.2223114021755
 20
-734.9501962622091
 30
0.0
 11
-444.2563697808236
 21
-688.4400157344485
 31
0.0
  0
LINE
  5
128
330
1F
100
AcDbEntity
  8
0
100
AcDbLine
 10
-444.2563697808236
 20
-688.4400157344485
 30
0.0
 11
-502.2202634034334
 21
-636.7187189410291
 31
0.0
  0
LINE
  5
129
330
1F
100
AcDbEntity
  8
0
100
AcDbLine
 10
-502.2202634034334
 20
-636.7187189410291
 30
0.0
 11
-552.5894588480658
 21
-581.2368976836563
 31
0.0
  0
LINE
  5
12A
330
1F
100
AcDbEntity
  8
0
100
AcDbLine
 10
-552.5894588480658
 20
-581.2368976836563
 30
0.0
 11
-604.4928045302692
 21
-527.9938475570419
 31
0.0
  0
LINE
  5
12B
330
1F
100
AcDbEntity
  8
0
100
AcDbLine
 10
-604.4928045302692
 20
-527.9938475570419
 30
0.0
 11
-660.0421562559626
 21
-478.2515674036911
 31
0.0
  0
LINE
  5
12C
330
1F
100
AcDbEntity
  8
0
100
AcDbLine
 10
-660.0421562559626
 20
-478.2515674036911
 30
0.0
 11
-712.1696543147215
 21
-426.1235711820334
 31
0.0
  0
LINE
  5
12D
330
1F
100
AcDbEntity
  8
0
100
AcDbLine
 10
-712.1696543147215
 20
-426.1235711820334
 30
0.0
 11
-765.7952266050081
 21
-375.879228480241
 31
0.0
  0
LINE
  5
12E
330
1F
100
AcDbEntity
  8
0
100
AcDbLine
 10
-765.7952266050081
 20
-375.879228480241
 30
0.0
 11
-809.7711433700856
 21
-318.949247623143
 31
0.0
  0
LINE
  5
12F
330
1F
100
AcDbEntity
  8
0
100
AcDbLine
 10
-809.7711433700856
 20
-318.949247623143
 30
0.0
 11
-848.9411756889756
 21
-259.9925442255836
 31
0.0
  0
LINE
  5
130
330
1F
100
AcDbEntity
  8
0
100
AcDbLine
 10
-848.9411756889756
 20
-259.9925442255836
 30
0.0
 11
-885.1073046878391
 21
-199.9555888332843
 31
0.0
  0
LINE
  5
131
330
1F
100
AcDbEntity
  8
0
100
AcDbLine
 10
-885.1073046878391
 20
-199.9555888332843
 30
0.0
 11
-924.1922580607026
 21
-142.0164455826599
 31
0.0
  0
LINE
  5
132
330
1F
100
AcDbEntity
  8
0
100
AcDbLine
 10
-924.1922580607026
 20
-142.0164455826599
 30
0.0
 11
-961.6572262301827
 21
-83.75925589499049
 31
0.0
  0
LINE
  5
133
330
1F
100
AcDbEntity
  8
0
100
AcDbLine
 10
-961.6572262301827
 20
-83.75925589499049
 30
0.0
 11
-989.6507487368925
 21
-21.87314511262572
 31
0.0
  0
LINE
  5
134
330
1F
100
AcDbEntity
  8
0
100
AcDbLine
 10
-989.6507487368925
 20
-21.87314511262572
 30
0.0
 11
-1020.608951063204
 21
38.28086511575489
 31
0.0
  0
LINE
  5
135
330
1F
100
AcDbEntity
  8
0
100
AcDbLine
 10
-1020.608951063204
 20
38.28086511575489
 30
0.0
 11
-1062.784274200314
 21
92.19821711227678
 31
0.0
  0
LINE
  5
136
330
1F
100
AcDbEntity
  8
0
100
AcDbLine
 10
-1062.784274200314
 20
92.19821711227678
 30
0.0
 11
-1103.803700387256
 21
146.2779655453463
 31
0.0
  0
LINE
  5
137
330
1F
100
AcDbEntity
  8
0
100
AcDbLine
 10
-1103.803700387256
 20
146.2779655453463
 30
0.0
 11
-1141.289753785827
 21
201.8436380221742
 31
0.0
  0
LINE
  5
138
330
1F
100
AcDbEntity
  8
0
100
AcDbLine
 10
-1141.289753785827
 20
201.8436380221742
 30
0.0
 11
-1176.89786284995
 21
257.8282262011351
 31
0.0
  0
LINE
  5
139
330
1F
100
AcDbEntity
  8
0
100
AcDbLine
 10
-1176.89786284995
 20
257.8282262011351
 30
0.0
 11
-1210.517224713586
 21
314.3188950554863
 31
0.0
  0
LINE
  5
13A
330
1F
100
AcDbEntity
  8
0
100
AcDbLine
 10
-1210.517224713586
 20
314.3188950554863
 30
0.0
 11
-1241.534785923865
 21
371.2877595193202
 31
0.0
  0
LINE
  5
13B
330
1F
100
AcDbEntity
  8
0
100
AcDbLine
 10
-1241.534785923865
 20
371.2877595193202
 30
0.0
 11
-1283.102480909432
 21
422.4405565298899
 31
0.0
  0
LINE
  5
13C
330
1F
100
AcDbEntity
  8
0
100
AcDbLine
 10
-1283.102480909432
 20
422.4405565298899
 30
0.0
 11
-1318.269334856775
 21
476.6520721018255
 31
0.0
  0
LINE
  5
13D
330
1F
100
AcDbEntity
  8
0
100
AcDbLine
 10
-1318.269334856775
 20
476.6520721018255
 30
0.0
 11
-1342.156537112563
 21
535.0388516631406
 31
0.0
  0
LINE
  5
13E
330
1F
100
AcDbEntity
  8
0
100
AcDbLine
 10
-1342.156537112563
 20
535.0388516631406
 30
0.0
 11
-1359.399657120107
 21
594.9785785613633
 31
0.0
  0
LINE
  5
13F
330
1F
100
AcDbEntity
  8
0
100
AcDbLine
 10
-1359.399657120107
 20
594.9785785613633
 30
0.0
 11
-1385.58687790919
 21
651.4472582069988
 31
0.0
  0
LINE
  5
140
330
1F
100
AcDbEntity
  8
0
100
AcDbLine
 10
-1385.58687790919
 20
651.4472582069988
 30
0.0
 11
-1417.543161335494
 21
704.7606826026622
 31
0.0
  0
LINE
  5
141
330
1F
100
AcDbEntity
  8
0
100
AcDbLine
 10
-1417.543161335494
 20
704.7606826026622
 30
0.0
 11
-1414.034702962388
 21
766.1678376064344
 31
0.0
  0
LINE
  5
142
330
1F
100
AcDbEntity
  8
0
100
AcDbLine
 10
-1414.034702962388
 20
766.1678376064344
 30
0.0
 11
-1422.963524153992
 21
825.7809503987421
 31
0.0
  0
LINE
  5
143
330
1F
100
AcDbEntity
  8
0
100
AcDbLine
 10
-1422.963524153992
 20
825.7809503987421
 30
0.0
 11
-1449.88065957838
 21
879.7648218283992
 31
0.0
  0
LINE
  5
144
330
1F
100
AcDbEntity
  8
0
100
AcDbLine
 10
-1449.88065957838
 20
879.7648218283992
 30
0.0
 11
-1512.561660894633
 21
906.8298352838618
 31
0.0
  0
LINE
  5
145
330
1F
100
AcDbEntity
  8
0
100
AcDbLine
 10
-1512.561660894633
 20
906.8298352838618
 30
0.0
 11
-1573.315956321522
 21
936.3494326426105
 31
0.0
  0
LINE
  5
146
330
1F
100
AcDbEntity
  8
0
100
AcDbLine
 10
-2812.203272602846
 20
1553.797598257892
 30
0.0
 11
-2872.786122629206
 21
1574.291160132435
 31
0.0
  0
LINE
  5
147
330
1F
100
AcDbEntity
  8
0
100
AcDbLine
 10
-2872.786122629206
 20
1574.291160132435
 30
0.0
 11
-2934.946585848367
 21
1592.821036760136
 31
0.0
  0
LINE
  5
148
330
1F
100
AcDbEntity
  8
0
100
AcDbLine
 10
-2934.946585848367
 20
1592.821036760136
 30
0.0
 11
-2991.636744661901
 21
1618.485304990775
 31
0.0
  0
LINE
  5
149
330
1F
100
AcDbEntity
  8
0
100
AcDbLine
 10
-2991.636744661901
 20
1618.485304990775
 30
0.0
 11
-3036.796364581064
 21
1654.215914850944
 31
0.0
  0
LINE
  5
14A
330
1F
100
AcDbEntity
  8
0
100
AcDbLine
 10
-3036.796364581064
 20
1654.215914850944
 30
0.0
 11
-3095.687636879556
 21
1675.821240727994
 31
0.0
  0
LINE
  5
14B
330
1F
100
AcDbEntity
  8
0
100
AcDbLine
 10
-3095.687636879556
 20
1675.821240727994
 30
0.0
 11
-3157.653053006174
 21
1692.96136196557
 31
0.0
  0
LINE
  5
14C
330
1F
100
AcDbEntity
  8
0
100
AcDbLine
 10
-3157.653053006174
 20
1692.96136196557
 30
0.0
 11
-3219.981126817254
 21
1709.483964806606
 31
0.0
  0
LINE
  5
14D
330
1F
100
AcDbEntity
  8
0
100
AcDbLine
 10
-3219.981126817254
 20
1709.483964806606
 30
0.0
 11
-3282.747854076683
 21
1725.534972685258
 31
0.0
  0
LINE
  5
14E
330
1F
100
AcDbEntity
  8
0
100
AcDbLine
 10
-3282.747854076683
 20
1725.534972685258
 30
0.0
 11
-3344.989420027928
 21
1741.923735510166
 31
0.0
  0
LINE
  5
14F
330
1F
100
AcDbEntity
  8
0
100
AcDbLine
 10
-3344.989420027928
 20
1741.923735510166
 30
0.0
 11
-3406.818678920054
 21
1758.627785008555
 31
0.0
  0
LINE
  5
150
330
1F
100
AcDbEntity
  8
0
100
AcDbLine
 10
-3406.818678920054
 20
1758.627785008555
 30
0.0
 11
-3468.479342565543
 21
1775.383962376897
 31
0.0
  0
LINE
  5
151
330
1F
100
AcDbEntity
  8
0
100
AcDbLine
 10
-3468.479342565543
 20
1775.383962376897
 30
0.0
 11
-3530.291588784555
 21
1791.654940374512
 31
0.0
  0
LINE
  5
152
330
1F
100
AcDbEntity
  8
0
100
AcDbLine
 10
-3530.291588784555
 20
1791.654940374512
 30
0.0
 11
-3592.489621571146
 21
1807.062818198382
 31
0.0
  0
LINE
  5
153
330
1F
100
AcDbEntity
  8
0
100
AcDbLine
 10
-3592.489621571146
 20
1807.062818198382
 30
0.0
 11
-3653.542217510144
 21
1823.896586661654
 31
0.0
  0
LINE
  5
154
330
1F
100
AcDbEntity
  8
0
100
AcDbLine
 10
-3653.542217510144
 20
1823.896586661654
 30
0.0
 11
-3705.704924036319
 21
1851.038990940116
 31
0.0
  0
LINE
  5
155
330
1F
100
AcDbEntity
  8
0
100
AcDbLine
 10
-3705.704924036319
 20
1851.038990940116
 30
0.0
 11
-3753.516294684804
 21
1881.781399380354
 31
0.0
  0
LINE
  5
156
330
1F
100
AcDbEntity
  8
0
100
AcDbLine
 10
-3753.516294684804
 20
1881.781399380354
 30
0.0
 11
-3802.044502387334
 21
1911.635001525513
 31
0.0
  0
LINE
  5
157
330
1F
100
AcDbEntity
  8
0
100
AcDbLine
 10
-3802.044502387334
 20
1911.635001525513
 30
0.0
 11
-3851.933902201341
 21
1939.979928182161
 31
0.0
  0
LINE
  5
158
330
1F
100
AcDbEntity
  8
0
100
AcDbLine
 10
-3851.933902201341
 20
1939.979928182161
 30
0.0
 11
-3902.688540860501
 21
1967.258028554175
 31
0.0
  0
LINE
  5
159
330
1F
100
AcDbEntity
  8
0
100
AcDbLine
 10
-3902.688540860501
 20
1967.258028554175
 30
0.0
 11
-3950.680286494121
 21
1996.725451538773
 31
0.0
  0
LINE
  5
15A
330
1F
100
AcDbEntity
  8
0
100
AcDbLine
 10
-3950.680286494121
 20
1996.725451538773
 30
0.0
 11
-3995.718468685623
 21
2028.27746733153
 31
0.0
  0
LINE
  5
15B
330
1F
100
AcDbEntity
  8
0
100
AcDbLine
 10
-3995.718468685623
 20
2028.27746733153
 30
0.0
 11
-4037.810908097218
 21
2061.736853669
 31
0.0
  0
LINE
  5
15C
330
1F
100
AcDbEntity
  8
0
100
AcDbLine
 10
-4037.810908097218
 20
2061.736853669
 30
0.0
 11
-4076.786545925824
 21
2097.091943276816
 31
0.0
  0
LINE
  5
15D
330
1F
100
AcDbEntity
  8
0
100
AcDbLine
 10
-4076.786545925824
 20
2097.091943276816
 30
0.0
 11
-4110.75208292067
 21
2135.058423422273
 31
0.0
  0
LINE
  5
15E
330
1F
100
AcDbEntity
  8
0
100
AcDbLine
 10
-4110.75208292067
 20
2135.058423422273
 30
0.0
 11
-4137.797507042912
 21
2176.269074165577
 31
0.0
  0
LINE
  5
15F
330
1F
100
AcDbEntity
  8
0
100
AcDbLine
 10
-4137.797507042912
 20
2176.269074165577
 30
0.0
 11
-4159.45168428571
 21
2219.663941199775
 31
0.0
  0
LINE
  5
160
330
1F
100
AcDbEntity
  8
0
100
AcDbLine
 10
-4159.45168428571
 20
2219.663941199775
 30
0.0
 11
-4177.759971552337
 21
2263.965645882824
 31
0.0
  0
LINE
  5
161
330
1F
100
AcDbEntity
  8
0
100
AcDbLine
 10
-4177.759971552337
 20
2263.965645882824
 30
0.0
 11
-4193.330715471534
 21
2308.767117624209
 31
0.0
  0
LINE
  5
162
330
1F
100
AcDbEntity
  8
0
100
AcDbLine
 10
-4193.330715471534
 20
2308.767117624209
 30
0.0
 11
-4205.94904792836
 21
2354.150650147236
 31
0.0
  0
LINE
  5
163
330
1F
100
AcDbEntity
  8
0
100
AcDbLine
 10
-4205.94904792836
 20
2354.150650147236
 30
0.0
 11
-4215.155403389598
 21
2400.188065886062
 31
0.0
  0
LINE
  5
164
330
1F
100
AcDbEntity
  8
0
100
AcDbLine
 10
-4215.155403389598
 20
2400.188065886062
 30
0.0
 11
-4220.118058769353
 21
2446.927183480538
 31
0.0
  0
LINE
  5
165
330
1F
100
AcDbEntity
  8
0
100
AcDbLine
 10
-4220.118058769353
 20
2446.927183480538
 30
0.0
 11
-4217.485481374247
 21
2494.51947428093
 31
0.0
  0
LINE
  5
166
330
1F
100
AcDbEntity
  8
0
100
AcDbLine
 10
-4217.485481374247
 20
2494.51947428093
 30
0.0
 11
-4201.264344899305
 21
2542.684121893202
 31
0.0
  0
LINE
  5
167
330
1F
100
AcDbEntity
  8
0
100
AcDbLine
 10
-4201.264344899305
 20
2542.684121893202
 30
0.0
 11
-4181.285696030786
 21
2590.285490942647
 31
0.0
  0
LINE
  5
168
330
1F
100
AcDbEntity
  8
0
100
AcDbLine
 10
-4181.285696030786
 20
2590.285490942647
 30
0.0
 11
-4160.473086935186
 21
2637.509548521495
 31
0.0
  0
LINE
  5
169
330
1F
100
AcDbEntity
  8
0
100
AcDbLine
 10
-4160.473086935186
 20
2637.509548521495
 30
0.0
 11
-4137.255918032587
 21
2684.242030611407
 31
0.0
  0
LINE
  5
16A
330
1F
100
AcDbEntity
  8
0
100
AcDbLine
 10
-4137.255918032587
 20
2684.242030611407
 30
0.0
 11
-4107.523143598037
 21
2729.543416366054
 31
0.0
  0
LINE
  5
16B
330
1F
100
AcDbEntity
  8
0
100
AcDbLine
 10
-4107.523143598037
 20
2729.543416366054
 30
0.0
 11
-4071.769737654271
 21
2773.182194786146
 31
0.0
  0
LINE
  5
16C
330
1F
100
AcDbEntity
  8
0
100
AcDbLine
 10
-4071.769737654271
 20
2773.182194786146
 30
0.0
 11
-4032.593731193202
 21
2815.25786432729
 31
0.0
  0
LINE
  5
16D
330
1F
100
AcDbEntity
  8
0
100
AcDbLine
 10
-4032.593731193202
 20
2815.25786432729
 30
0.0
 11
-3988.30148288729
 21
2854.861795574938
 31
0.0
  0
LINE
  5
16E
330
1F
100
AcDbEntity
  8
0
100
AcDbLine
 10
-3988.30148288729
 20
2854.861795574938
 30
0.0
 11
-3940.012476726342
 21
2891.942612760318
 31
0.0
  0
LINE
  5
16F
330
1F
100
AcDbEntity
  8
0
100
AcDbLine
 10
-3940.012476726342
 20
2891.942612760318
 30
0.0
 11
-3907.294439742675
 21
2914.806867186157
 31
0.0
  0
LINE
  5
170
330
1F
100
AcDbEntity
  8
0
100
AcDbLine
 10
-2362.217808509743
 20
2914.806867186157
 30
0.0
 11
-2341.704541575414
 21
2903.829611812212
 31
0.0
  0
LINE
  5
171
330
1F
100
AcDbEntity
  8
0
100
AcDbLine
 10
-2341.704541575414
 20
2903.829611812212
 30
0.0
 11
-2294.345265348877
 21
2877.409941305134
 31
0.0
  0
LINE
  5
172
330
1F
100
AcDbEntity
  8
0
100
AcDbLine
 10
-2294.345265348877
 20
2877.409941305134
 30
0.0
 11
-2246.527253154381
 21
2851.117619464766
 31
0.0
  0
LINE
  5
173
330
1F
100
AcDbEntity
  8
0
100
AcDbLine
 10
-2246.527253154381
 20
2851.117619464766
 30
0.0
 11
-2197.902084329555
 21
2825.280862630121
 31
0.0
  0
LINE
  5
174
330
1F
100
AcDbEntity
  8
0
100
AcDbLine
 10
-2197.902084329555
 20
2825.280862630121
 30
0.0
 11
-2148.474097177337
 21
2799.919747840232
 31
0.0
  0
LINE
  5
175
330
1F
100
AcDbEntity
  8
0
100
AcDbLine
 10
-2148.474097177337
 20
2799.919747840232
 30
0.0
 11
-2098.27686228957
 21
2775.021806001658
 31
0.0
  0
LINE
  5
176
330
1F
100
AcDbEntity
  8
0
100
AcDbLine
 10
-2098.27686228957
 20
2775.021806001658
 30
0.0
 11
-2047.418723690892
 21
2750.486791927469
 31
0.0
  0
LINE
  5
177
330
1F
100
AcDbEntity
  8
0
100
AcDbLine
 10
-2047.418723690892
 20
2750.486791927469
 30
0.0
 11
-1996.020864249004
 21
2726.19695712785
 31
0.0
  0
LINE
  5
178
330
1F
100
AcDbEntity
  8
0
100
AcDbLine
 10
-1996.020864249004
 20
2726.19695712785
 30
0.0
 11
-1944.201166958762
 21
2702.035551924199
 31
0.0
  0
LINE
  5
179
330
1F
100
AcDbEntity
  8
0
100
AcDbLine
 10
-1944.201166958762
 20
2702.035551924199
 30
0.0
 11
-1891.861396422693
 21
2678.133407414247
 31
0.0
  0
LINE
  5
17A
330
1F
100
AcDbEntity
  8
0
100
AcDbLine
 10
-1891.861396422693
 20
2678.133407414247
 30
0.0
 11
-1838.523435668082
 21
2655.067620644472
 31
0.0
  0
LINE
  5
17B
330
1F
100
AcDbEntity
  8
0
100
AcDbLine
 10
-1838.523435668082
 20
2655.067620644472
 30
0.0
 11
-1783.723712223455
 21
2633.412490755752
 31
0.0
  0
LINE
  5
17C
330
1F
100
AcDbEntity
  8
0
100
AcDbLine
 10
-1783.723712223455
 20
2633.412490755752
 30
0.0
 11
-1728.282299761909
 21
2612.229772862413
 31
0.0
  0
LINE
  5
17D
330
1F
100
AcDbEntity
  8
0
100
AcDbLine
 10
-1617.659033174669
 20
2568.716626121033
 30
0.0
 11
-1561.918352501397
 21
2547.04353799936
 31
0.0
  0
LINE
  5
17E
330
1F
100
AcDbEntity
  8
0
100
AcDbLine
 10
-1561.918352501397
 20
2547.04353799936
 30
0.0
 11
-1505.547578113983
 21
2525.882613112264
 31
0.0
  0
LINE
  5
17F
330
1F
100
AcDbEntity
  8
0
100
AcDbLine
 10
-1505.547578113983
 20
2525.882613112264
 30
0.0
 11
-1448.271503442395
 21
2505.631855528586
 31
0.0
  0
LINE
  5
180
330
1F
100
AcDbEntity
  8
0
100
AcDbLine
 10
-1448.271503442395
 20
2505.631855528586
 30
0.0
 11
-1389.93201315397
 21
2486.566802085387
 31
0.0
  0
LINE
  5
181
330
1F
100
AcDbEntity
  8
0
100
AcDbLine
 10
-1389.93201315397
 20
2486.566802085387
 30
0.0
 11
-1330.602817027077
 21
2468.705683628913
 31
0.0
  0
LINE
  5
182
330
1F
100
AcDbEntity
  8
0
100
AcDbLine
 10
-1330.602817027077
 20
2468.705683628913
 30
0.0
 11
-1270.396625344366
 21
2452.00905912903
 31
0.0
  0
LINE
  5
183
330
1F
100
AcDbEntity
  8
0
100
AcDbLine
 10
-1270.396625344366
 20
2452.00905912903
 30
0.0
 11
-1209.529423861719
 21
2436.177843252075
 31
0.0
  0
LINE
  5
184
330
1F
100
AcDbEntity
  8
0
100
AcDbLine
 10
-1086.88712504069
 20
2405.297700243691
 30
0.0
 11
-1025.587100452603
 21
2389.392002380283
 31
0.0
  0
LINE
  5
185
330
1F
100
AcDbEntity
  8
0
100
AcDbLine
 10
-1025.587100452603
 20
2389.392002380283
 30
0.0
 11
-964.5745389990858
 21
2372.657995467584
 31
0.0
  0
LINE
  5
186
330
1F
100
AcDbEntity
  8
0
100
AcDbLine
 10
-964.5745389990858
 20
2372.657995467584
 30
0.0
 11
-904.0940124743225
 21
2354.691359421644
 31
0.0
  0
LINE
  5
187
330
1F
100
AcDbEntity
  8
0
100
AcDbLine
 10
-904.0940124743225
 20
2354.691359421644
 30
0.0
 11
-844.4447390987224
 21
2335.095015257257
 31
0.0
  0
LINE
  5
188
330
1F
100
AcDbEntity
  8
0
100
AcDbLine
 10
-844.4447390987224
 20
2335.095015257257
 30
0.0
 11
-785.594526463563
 21
2313.970664904227
 31
0.0
  0
LINE
  5
189
330
1F
100
AcDbEntity
  8
0
100
AcDbLine
 10
-785.594526463563
 20
2313.970664904227
 30
0.0
 11
-727.1096896155897
 21
2291.963342060506
 31
0.0
  0
LINE
  5
18A
330
1F
100
AcDbEntity
  8
0
100
AcDbLine
 10
-727.1096896155897
 20
2291.963342060506
 30
0.0
 11
-668.6384017477748
 21
2269.616548495913
 31
0.0
  0
LINE
  5
18B
330
1F
100
AcDbEntity
  8
0
100
AcDbLine
 10
-668.6384017477748
 20
2269.616548495913
 30
0.0
 11
-610.3841979856777
 21
2246.673509690473
 31
0.0
  0
LINE
  5
18C
330
1F
100
AcDbEntity
  8
0
100
AcDbLine
 10
-610.3841979856777
 20
2246.673509690473
 30
0.0
 11
-552.7266406861926
 21
2222.607931407852
 31
0.0
  0
LINE
  5
18D
330
1F
100
AcDbEntity
  8
0
100
AcDbLine
 10
-552.7266406861926
 20
2222.607931407852
 30
0.0
 11
-495.7096986149767
 21
2197.368540823824
 31
0.0
  0
LINE
  5
18E
330
1F
100
AcDbEntity
  8
0
100
AcDbLine
 10
-495.7096986149767
 20
2197.368540823824
 30
0.0
 11
-438.9060906553424
 21
2171.5301597219
 31
0.0
  0
LINE
  5
18F
330
1F
100
AcDbEntity
  8
0
100
AcDbLine
 10
-438.9060906553424
 20
2171.5301597219
 30
0.0
 11
-380.7319915374895
 21
2147.078385220267
 31
0.0
  0
LINE
  5
190
330
1F
100
AcDbEntity
  8
0
100
AcDbLine
 10
-380.7319915374895
 20
2147.078385220267
 30
0.0
 11
-320.8773660032508
 21
2124.611038645702
 31
0.0
  0
LINE
  5
191
330
1F
100
AcDbEntity
  8
0
100
AcDbLine
 10
-27.41830268449003
 20
1998.778169841444
 30
0.0
 11
-202.6729069478278
 21
2076.497764537357
 31
0.0
  0
LINE
  5
192
330
1F
100
AcDbEntity
  8
0
100
AcDbLine
 10
312.7813097426562
 20
-1047.759359808844
 30
0.0
 11
197.003382706171
 21
-1011.477150122726
 31
0.0
  0
LINE
  5
193
330
1F
100
AcDbEntity
  8
0
100
AcDbLine
 10
-1728.282299761909
 20
2612.229772862413
 30
0.0
 11
-1617.659033174669
 21
2568.716626121033
 31
0.0
  0
LINE
  5
194
330
1F
100
AcDbEntity
  8
0
100
AcDbLine
 10
-1209.529423861719
 20
2436.177843252075
 30
0.0
 11
-1086.88712504069
 21
2405.297700243691
 31
0.0
  0
ENDSEC
  0
SECTION
  2
OBJECTS
  0
DICTIONARY
  5
C
330
0
100
AcDbDictionary
  3
ACAD_GROUP
350
D
  3
ACAD_LAYOUT
350
1A
  3
ACAD_MATERIAL
350
43
  3
ACAD_MLEADERSTYLE
350
6B
  3
ACAD_MLINESTYLE
350
17
  3
ACAD_PLOTSETTINGS
350
19
  3
ACAD_SCALELIST
350
47
  3
ACAD_VISUALSTYLE
350
2A
  3
ACDBHEADERROUNDTRIPXREC
350
195
  3
ACDBVARIABLEDICTIONARY
350
1B6
  0
DICTIONARY
  5
1BD
330
8
100
AcDbDictionary
280
     1
  3
ACAD_XREC_ROUNDTRIP
360
1BE
  0
DICTIONARY
  5
D
102
{ACAD_REACTORS
330
C
102
}
330
C
100
AcDbDictionary
  0
DICTIONARY
  5
1A
102
{ACAD_REACTORS
330
C
102
}
330
C
100
AcDbDictionary
  0
DICTIONARY
  5
43
102
{ACAD_REACTORS
330
C
102
}
330
C
100
AcDbDictionary
  3
BYBLOCK
350
45
  3
BYLAYER
350
44
  3
GLOBAL
350
46
  0
DICTIONARY
  5
6B
102
{ACAD_REACTORS
330
C
102
}
330
C
100
AcDbDictionary
  3
STANDARD
350
6C
  0
DICTIONARY
  5
17
102
{ACAD_REACTORS
330
C
102
}
330
C
100
AcDbDictionary
  3
STANDARD
350
18
  0
DICTIONARY
  5
19
102
{ACAD_REACTORS
330
C
102
}
330
C
100
AcDbDictionary
  0
DICTIONARY
  5
47
102
{ACAD_REACTORS
330
C
102
}
330
C
100
AcDbDictionary
  3
A0
350
48
  3
A1
350
49
  3
A2
350
4A
  3
A3
350
4B
  3
A4
350
4C
  3
A5
350
4D
  3
A6
350
4E
  3
A7
350
4F
  3
A8
350
50
  3
A9
350
51
  3
B0
350
52
  3
B1
350
53
  3
B2
350
54
  3
B3
350
55
  3
B4
350
56
  3
B5
350
57
  3
B6
350
58
  3
B7
350
59
  3
B8
350
5A
  3
B9
350
5B
  3
C0
350
5C
  3
C1
350
5D
  3
C2
350
5E
  3
C3
350
5F
  3
C4
350
60
  3
C5
350
61
  3
C6
350
62
  3
C7
350
63
  3
C8
350
64
  3
C9
350
65
  3
D0
350
66
  3
D1
350
67
  3
D2
350
68
  0
DICTIONARY
  5
2A
102
{ACAD_REACTORS
330
C
102
}
330
C
100
AcDbDictionary
  3
2DWIREFRAME
350
2F
  3
BASIC
350
32
  3
BRIGHTEN
350
36
  3
COLORCHANGE
350
3A
  3
CONCEPTUAL
350
34
  3
DIM
350
35
  3
EDGECOLOROFF
350
3D
  3
FACEPATTERN
350
39
  3
FLAT
350
2B
  3
FLATWITHEDGES
350
2C
  3
GOURAUD
350
2D
  3
GOURAUDWITHEDGES
350
2E
  3
HIDDEN
350
31
  3
JITTEROFF
350
3B
  3
LINEPATTERN
350
38
  3
OVERHANGOFF
350
3C
  3
REALISTIC
350
33
  3
SHADED
350
42
  3
SHADED_WITH_EDGES
350
41
  3
SHADES_OF_GRAY
350
3E
  3
SKETCHY
350
3F
  3
THICKEN
350
37
  3
WIREFRAME
350
30
  3
X-RAY
350
40
  0
DICTIONARY
  5
195
102
{ACAD_REACTORS
330
C
102
}
330
C
100
AcDbDictionary
  3
CEPSNID
350
19F
  3
CEPSNTYPE
350
19E
  3
DIMSTYLEDATA
350
1B5
  3
FINGERPRINTGUID
350
1A0
  3
HYPERLINKBASE
350
198
  3
INSUNITS
350
19D
  3
LAYOUTDICT
350
19A
  3
LWETCUNION
350
19C
  3
PLOTSETDICT
350
19B
  3
PSVPSCALE
350
1A2
  3
PUCSBASE
350
1A5
  3
PUCSORGBACK
350
1AB
  3
PUCSORGBOTTOM
350
1A7
  3
PUCSORGFRONT
350
1AA
  3
PUCSORGLEFT
350
1A8
  3
PUCSORGRIGHT
350
1A9
  3
PUCSORGTOP
350
1A6
  3
PUCSORTHOREF
350
1A3
  3
PUCSORTHOVIEW
350
1A4
  3
STYLESHEET
350
199
  3
TSTACKALIGN
350
196
  3
TSTACKSIZE
350
197
  3
UCSBASE
350
1AE
  3
UCSORGBACK
350
1B4
  3
UCSORGBOTTOM
350
1B0
  3
UCSORGFRONT
350
1B3
  3
UCSORGLEFT
350
1B1
  3
UCSORGRIGHT
350
1B2
  3
UCSORGTOP
350
1AF
  3
UCSORTHOREF
350
1AC
  3
UCSORTHOVIEW
350
1AD
  3
VERSIONGUID
350
1A1
  0
DICTIONARY
  5
1B6
102
{ACAD_REACTORS
330
C
102
}
330
C
100
AcDbDictionary
  3
CANNOSCALE
350
1BF
  3
CMLEADERSTYLE
350
1B8
  3
CTABLESTYLE
350
1B7
  3
DIMASSOC
350
1BB
  3
HIDETEXT
350
1BC
  3
MSLTSCALE
350
1C0
  0
XRECORD
  5
1BE
102
{ACAD_REACTORS
330
1BD
102
}
330
1BD
100
AcDbXrecord
102
VTR_0.000_0.000_1.000_1.000_VISUALSTYLE
340
2F
102
VTR_0.000_0.000_1.000_1.000_GRIDDISPLAY
 70
     3
102
VTR_0.000_0.000_1.000_1.000_GRIDMAJOR
 70
     5
102
VTR_0.000_0.000_1.000_1.000_DEFAULTLIGHTING
280
     1
102
VTR_0.000_0.000_1.000_1.000_DEFAULTLIGHTINGTYPE
 70
     1
102
VTR_0.000_0.000_1.000_1.000_BRIGHTNESS
141
0.0
102
VTR_0.000_0.000_1.000_1.000_CONTRAST
142
0.0
  0
MATERIAL
  5
45
102
{ACAD_REACTORS
330
43
102
}
102
{ACAD_XDICTIONARY
360
1C3
102
}
330
43
100
AcDbMaterial
  1
BYBLOCK
  0
MATERIAL
  5
44
102
{ACAD_REACTORS
330
43
102
}
102
{ACAD_XDICTIONARY
360
1C1
102
}
330
43
100
AcDbMaterial
  1
BYLAYER
  0
MATERIAL
  5
46
102
{ACAD_REACTORS
330
43
102
}
102
{ACAD_XDICTIONARY
360
1C5
102
}
330
43
100
AcDbMaterial
  1
GLOBAL
  0
ACAD_PROXY_OBJECT
  5
6C
102
{ACAD_REACTORS
330
6B
102
}
330
6B
100
AcDbProxyObject
 90
      499
 91
      505
 93
      610
310
40901902A4063FBFFFFFE056BD1B81E855B9FC0AD7A3703D0AD73F4214DD185B99185C9900AD7A3703D0AC73F90141901A02B5E8DC0F42B1CFC02B5E8DC0F42B1CFE5764000000000000300FC0
340
14
340
0
340
11
340
0
 94
        0
1001
ACAD_MLEADERVER
1070
     2
  0
MLINESTYLE
  5
18
102
{ACAD_REACTORS
330
17
102
}
330
17
100
AcDbMlineStyle
  2
Standard
 70
     0
  3

 62
   256
 51
90.0
 52
90.0
 71
     2
 49
0.5
 62
   256
  6
BYLAYER
 49
-0.5
 62
   256
  6
BYLAYER
  0
ACAD_PROXY_OBJECT
  5
48
102
{ACAD_REACTORS
330
47
102
}
330
47
100
AcDbProxyObject
 90
      499
 91
      503
 93
       41
310
903313A31580
  0
ACAD_PROXY_OBJECT
  5
49
102
{ACAD_REACTORS
330
47
102
}
330
47
100
AcDbProxyObject
 90
      499
 91
      503
 93
      105
310
903313A324000000000000004000
  0
ACAD_PROXY_OBJECT
  5
4A
102
{ACAD_REACTORS
330
47
102
}
330
47
100
AcDbProxyObject
 90
      499
 91
      503
 93
      105
310
903313A344000000000000104000
  0
ACAD_PROXY_OBJECT
  5
4B
102
{ACAD_REACTORS
330
47
102
}
330
47
100
AcDbProxyObject
 90
      499
 91
      503
 93
      105
310
903313A354000000000000144000
  0
ACAD_PROXY_OBJECT
  5
4C
102
{ACAD_REACTORS
330
47
102
}
330
47
100
AcDbProxyObject
 90
      499
 91
      503
 93
      105
310
903313A384000000000000204000
  0
ACAD_PROXY_OBJECT
  5
4D
102
{ACAD_REACTORS
330
47
102
}
330
47
100
AcDbProxyObject
 90
      499
 91
      503
 93
      113
310
904313A31304000000000000244000
  0
ACAD_PROXY_OBJECT
  5
4E
102
{ACAD_REACTORS
330
47
102
}
330
47
100
AcDbProxyObject
 90
      499
 91
      503
 93
      113
310
904313A31364000000000000304000
  0
ACAD_PROXY_OBJECT
  5
4F
102
{ACAD_REACTORS
330
47
102
}
330
47
100
AcDbProxyObject
 90
      499
 91
      503
 93
      113
310
904313A32304000000000000344000
  0
ACAD_PROXY_OBJECT
  5
50
102
{ACAD_REACTORS
330
47
102
}
330
47
100
AcDbProxyObject
 90
      499
 91
      503
 93
      113
310
904313A333040000000000003E4000
  0
ACAD_PROXY_OBJECT
  5
51
102
{ACAD_REACTORS
330
47
102
}
330
47
100
AcDbProxyObject
 90
      499
 91
      503
 93
      113
310
904313A34304000000000000444000
  0
ACAD_PROXY_OBJECT
  5
52
102
{ACAD_REACTORS
330
47
102
}
330
47
100
AcDbProxyObject
 90
      499
 91
      503
 93
      113
310
904313A35304000000000000494000
  0
ACAD_PROXY_OBJECT
  5
53
102
{ACAD_REACTORS
330
47
102
}
330
47
100
AcDbProxyObject
 90
      499
 91
      503
 93
      121
310
905313A3130304000000000000594000
  0
ACAD_PROXY_OBJECT
  5
54
102
{ACAD_REACTORS
330
47
102
}
330
47
100
AcDbProxyObject
 90
      499
 91
      503
 93
      105
310
903323A310000000000000010100
  0
ACAD_PROXY_OBJECT
  5
55
102
{ACAD_REACTORS
330
47
102
}
330
47
100
AcDbProxyObject
 90
      499
 91
      503
 93
      105
310
903343A310000000000000410100
  0
ACAD_PROXY_OBJECT
  5
56
102
{ACAD_REACTORS
330
47
102
}
330
47
100
AcDbProxyObject
 90
      499
 91
      503
 93
      105
310
903383A310000000000000810100
  0
ACAD_PROXY_OBJECT
  5
57
102
{ACAD_REACTORS
330
47
102
}
330
47
100
AcDbProxyObject
 90
      499
 91
      503
 93
      113
310
90431303A310000000000000910100
  0
ACAD_PROXY_OBJECT
  5
58
102
{ACAD_REACTORS
330
47
102
}
330
47
100
AcDbProxyObject
 90
      499
 91
      503
 93
      121
310
9053130303A310000000000001650100
  0
ACAD_PROXY_OBJECT
  5
59
102
{ACAD_REACTORS
330
47
102
}
330
47
100
AcDbProxyObject
 90
      499
 91
      503
 93
      257
310
90E312F31323822203D2031272D3022000000000000200FC000000000000284000
  0
ACAD_PROXY_OBJECT
  5
5A
102
{ACAD_REACTORS
330
47
102
}
330
47
100
AcDbProxyObject
 90
      499
 91
      503
 93
      249
310
90D312F363422203D2031272D3022000000000000240FC000000000000284000
  0
ACAD_PROXY_OBJECT
  5
5B
102
{ACAD_REACTORS
330
47
102
}
330
47
100
AcDbProxyObject
 90
      499
 91
      503
 93
      249
310
90D312F333222203D2031272D3022000000000000280FC000000000000284000
  0
ACAD_PROXY_OBJECT
  5
5C
102
{ACAD_REACTORS
330
47
102
}
330
47
100
AcDbProxyObject
 90
      499
 91
      503
 93
      249
310
90D312F313622203D2031272D30220000000000002C0FC000000000000284000
  0
ACAD_PROXY_OBJECT
  5
5D
102
{ACAD_REACTORS
330
47
102
}
330
47
100
AcDbProxyObject
 90
      499
 91
      503
 93
      249
310
90D332F333222203D2031272D30220000000000002E0FC000000000000284000
  0
ACAD_PROXY_OBJECT
  5
5E
102
{ACAD_REACTORS
330
47
102
}
330
47
100
AcDbProxyObject
 90
      499
 91
      503
 93
      241
310
90C312F3822203D2031272D3022000000000000300FC000000000000284000
  0
ACAD_PROXY_OBJECT
  5
5F
102
{ACAD_REACTORS
330
47
102
}
330
47
100
AcDbProxyObject
 90
      499
 91
      503
 93
      249
310
90D332F313622203D2031272D3022000000000000320FC000000000000284000
  0
ACAD_PROXY_OBJECT
  5
60
102
{ACAD_REACTORS
330
47
102
}
330
47
100
AcDbProxyObject
 90
      499
 91
      503
 93
      241
310
90C312F3422203D2031272D3022000000000000340FC000000000000284000
  0
ACAD_PROXY_OBJECT
  5
61
102
{ACAD_REACTORS
330
47
102
}
330
47
100
AcDbProxyObject
 90
      499
 91
      503
 93
      241
310
90C332F3822203D2031272D3022000000000000360FC000000000000284000
  0
ACAD_PROXY_OBJECT
  5
62
102
{ACAD_REACTORS
330
47
102
}
330
47
100
AcDbProxyObject
 90
      499
 91
      503
 93
      241
310
90C312F3222203D2031272D3022000000000000380FC000000000000284000
  0
ACAD_PROXY_OBJECT
  5
63
102
{ACAD_REACTORS
330
47
102
}
330
47
100
AcDbProxyObject
 90
      499
 91
      503
 93
      241
310
90C332F3422203D2031272D30220000000000003A0FC000000000000284000
  0
ACAD_PROXY_OBJECT
  5
64
102
{ACAD_REACTORS
330
47
102
}
330
47
100
AcDbProxyObject
 90
      499
 91
      503
 93
      161
310
90A3122203D2031272D30224000000000000284000
  0
ACAD_PROXY_OBJECT
  5
65
102
{ACAD_REACTORS
330
47
102
}
330
47
100
AcDbProxyObject
 90
      499
 91
      503
 93
      257
310
90E312D312F3222203D2031272D30220000000000003E0FC000000000000284000
  0
ACAD_PROXY_OBJECT
  5
66
102
{ACAD_REACTORS
330
47
102
}
330
47
100
AcDbProxyObject
 90
      499
 91
      503
 93
      225
310
90A3322203D2031272D302200000000000002100000000000000284000
  0
ACAD_PROXY_OBJECT
  5
67
102
{ACAD_REACTORS
330
47
102
}
330
47
100
AcDbProxyObject
 90
      499
 91
      503
 93
      225
310
90A3622203D2031272D302200000000000006100000000000000284000
  0
ACAD_PROXY_OBJECT
  5
68
102
{ACAD_REACTORS
330
47
102
}
330
47
100
AcDbProxyObject
 90
      499
 91
      503
 93
      249
310
90D31272D3022203D2031272D30220000000000000A100000000000000284000
  0
ACAD_PROXY_OBJECT
  5
2F
102
{ACAD_REACTORS
330
2A
102
}
330
2A
100
AcDbProxyObject
 90
      499
 91
      501
 93
      436
310
42CC9915DA5C99599C985B595049028333333333333E33F0000000000000F90107901411070040501600405405064090741402480A0340
1001
ACAD
1000
AcDbSavedByObjectVersion
1070
     0
  0
ACAD_PROXY_OBJECT
  5
32
102
{ACAD_REACTORS
330
2A
102
}
330
2A
100
AcDbProxyObject
 90
      499
 91
      501
 93
      388
310
4150985CDA58D07406404333333333333E33F0000000000000F90107A41107004050150841D405064090741402480A0350
1001
ACAD
1000
AcDbSavedByObjectVersion
1070
     0
  0
ACAD_PROXY_OBJECT
  5
36
102
{ACAD_REACTORS
330
2A
102
}
330
2A
100
AcDbProxyObject
 90
      499
 91
      501
 93
      428
310
42109C9A59DA1D195B90C409028333333333333E33F0000000000000F9010790141107004050150841D405064090741402480A029950
1001
ACAD
1000
AcDbSavedByObjectVersion
1070
     0
  0
ACAD_PROXY_OBJECT
  5
3A
102
{ACAD_REACTORS
330
2A
102
}
330
2A
100
AcDbProxyObject
 90
      499
 91
      501
 93
      452
310
42D0DBDB1BDC90DA185B99D95104090240C333333333333E33F0000000000000F90108901411070040501508421405064090741402480A0350
1001
ACAD
1000
AcDbSavedByObjectVersion
1070
     0
  0
ACAD_PROXY_OBJECT
  5
34
102
{ACAD_REACTORS
330
2A
102
}
330
2A
100
AcDbProxyObject
 90
      499
 91
      501
 93
      500
310
4290DBDB98D95C1D1D585B10940D028333333333333E33F0000000000000F90107902409070040501000000000018199010841D405064090740C02480A0340
1001
ACAD
1000
AcDbSavedByObjectVersion
1070
     0
  0
ACAD_PROXY_OBJECT
  5
35
102
{ACAD_REACTORS
330
2A
102
}
330
2A
100
AcDbProxyObject
 90
      499
 91
      501
 93
      412
310
40D11A5B50B409028333333333333E33F0000000000000F9010790141107004050150841D405064090741402480A02677FFFFFD0
1001
ACAD
1000
AcDbSavedByObjectVersion
1070
     0
  0
ACAD_PROXY_OBJECT
  5
3D
102
{ACAD_REACTORS
330
2A
102
}
330
2A
100
AcDbProxyObject
 90
      499
 91
      501
 93
      452
310
43115919D950DBDB1BDC93D999916409028333333333333E33F0000000000000F9010790141107004050150841D405064090741402480A0350
1001
ACAD
1000
AcDbSavedByObjectVersion
1070
     0
  0
ACAD_PROXY_OBJECT
  5
39
102
{ACAD_REACTORS
330
2A
102
}
330
2A
100
AcDbProxyObject
 90
      499
 91
      501
 93
      444
310
42D19858D95C185D1D195C9B90F409028333333333333E33F0000000000000F9010790141107004050150841D405064090741402480A0350
1001
ACAD
1000
AcDbSavedByObjectVersion
1070
     0
  0
ACAD_PROXY_OBJECT
  5
2B
102
{ACAD_REACTORS
330
2A
102
}
330
2A
100
AcDbProxyObject
 90
      499
 91
      501
 93
      380
310
41119B185D240901404333333333333E33F0000000000000F9010740A907004050150841D405064090741402480A1B50
1001
ACAD
1000
AcDbSavedByObjectVersion
1070
     0
  0
ACAD_PROXY_OBJECT
  5
2C
102
{ACAD_REACTORS
330
2A
102
}
330
2A
100
AcDbProxyObject
 90
      499
 91
      501
 93
      468
310
43519B185D15DA5D1A115919D95CD0140901404333333333333E33F0000000000000F90107409019070040501600405405064090741402480A1B50
1001
ACAD
1000
AcDbSavedByObjectVersion
1070
     0
  0
ACAD_PROXY_OBJECT
  5
2D
102
{ACAD_REACTORS
330
2A
102
}
330
2A
100
AcDbProxyObject
 90
      499
 91
      501
 93
      404
310
41D1DBDD5C985D5910240902404333333333333E33F0000000000000F9010740A9070040501641D405064090741402480A1B50
1001
ACAD
1000
AcDbSavedByObjectVersion
1070
     0
  0
ACAD_PROXY_OBJECT
  5
2E
102
{ACAD_REACTORS
330
2A
102
}
330
2A
100
AcDbProxyObject
 90
      499
 91
      501
 93
      492
310
4411DBDD5C985D5915DA5D1A115919D95CD0340902404333333333333E33F0000000000000F90107409019070040501600405405064090741402480A1B50
1001
ACAD
1000
AcDbSavedByObjectVersion
1070
     0
  0
ACAD_PROXY_OBJECT
  5
31
102
{ACAD_REACTORS
330
2A
102
}
330
2A
100
AcDbProxyObject
 90
      499
 91
      501
 93
      476
310
41921A5919195B90640502408333333333333E33F0000000000000F901079024090700405020000000000001110200405405064090740C02480A0340
1001
ACAD
1000
AcDbSavedByObjectVersion
1070
     0
  0
ACAD_PROXY_OBJECT
  5
3B
102
{ACAD_REACTORS
330
2A
102
}
330
2A
100
AcDbProxyObject
 90
      499
 91
      501
 93
      428
310
42529A5D1D195C93D999914409028333333333333E33F0000000000000F9010790141107004050150A41D405064090741402480A0350
1001
ACAD
1000
AcDbSavedByObjectVersion
1070
     0
  0
ACAD_PROXY_OBJECT
  5
38
102
{ACAD_REACTORS
330
2A
102
}
330
2A
100
AcDbProxyObject
 90
      499
 91
      501
 93
      444
310
42D31A5B995C185D1D195C9B90E409028333333333333E33F0000000000000F9010790141107004050750841D405064090741402483A0350
1001
ACAD
1000
AcDbSavedByObjectVersion
1070
     0
  0
ACAD_PROXY_OBJECT
  5
3C
102
{ACAD_REACTORS
330
2A
102
}
330
2A
100
AcDbProxyObject
 90
      499
 91
      501
 93
      444
310
42D3DD995C9A185B99D3D999915409028333333333333E33F0000000000000F9010790141107004050150941D405064090741402480A0350
1001
ACAD
1000
AcDbSavedByObjectVersion
1070
     0
  0
ACAD_PROXY_OBJECT
  5
33
102
{ACAD_REACTORS
330
2A
102
}
330
2A
100
AcDbProxyObject
 90
      499
 91
      501
 93
      428
310
425499585B1A5CDD1A58D08409038333333333333E33F0000000000000F9010740A907004050150800405405064090740C02480A1B40
1001
ACAD
1000
AcDbSavedByObjectVersion
1070
     0
  0
ACAD_PROXY_OBJECT
  5
42
102
{ACAD_REACTORS
330
2A
102
}
330
2A
100
AcDbProxyObject
 90
      499
 91
      501
 93
      420
310
4194DA1859195911B40902404333333333333E33F0000000000000F9010740A41107004050150800405405064090840C02480A0B40
1001
ACAD
1000
AcDbSavedByObjectVersion
1070
     0
  0
ACAD_PROXY_OBJECT
  5
41
102
{ACAD_REACTORS
330
2A
102
}
330
2A
100
AcDbProxyObject
 90
      499
 91
      501
 93
      516
310
4454DA18591959081DDA5D1A08195919D95CD1A40902404333333333333E33F0000000000000F901074090142907004050250800405405064090740C02480A0B40
1001
ACAD
1000
AcDbSavedByObjectVersion
1070
     0
  0
ACAD_PROXY_OBJECT
  5
3E
102
{ACAD_REACTORS
330
2A
102
}
330
2A
100
AcDbProxyObject
 90
      499
 91
      501
 93
      532
310
4394DA1859195CC81BD98811DC985E5174090240C333333333333E33F0000000000000F901079024090741D01000000000000111010841D405064090740C02480A0340
1001
ACAD
1000
AcDbSavedByObjectVersion
1070
     0
  0
ACAD_PROXY_OBJECT
  5
3F
102
{ACAD_REACTORS
330
2A
102
}
330
2A
100
AcDbProxyObject
 90
      499
 91
      501
 93
      476
310
41D4DAD95D18DA1E51840502408333333333333E33F0000000000000F901079024090741D01000000000000111010B41D405064090741802480A0340
1001
ACAD
1000
AcDbSavedByObjectVersion
1070
     0
  0
ACAD_PROXY_OBJECT
  5
37
102
{ACAD_REACTORS
330
2A
102
}
330
2A
100
AcDbProxyObject
 90
      499
 91
      501
 93
      412
310
41D51A1A58DAD95B90D409028333333333333E33F0000000000000F9010790141107004050150C41D405064090741402480A0350
1001
ACAD
1000
AcDbSavedByObjectVersion
1070
     0
  0
ACAD_PROXY_OBJECT
  5
30
102
{ACAD_REACTORS
330
2A
102
}
330
2A
100
AcDbProxyObject
 90
      499
 91
      501
 93
      420
310
4255DA5C99599C985B595059028333333333333E33F0000000000000F90107901411070040501600405405064090740C02480A0340
1001
ACAD
1000
AcDbSavedByObjectVersion
1070
     0
  0
ACAD_PROXY_OBJECT
  5
40
102
{ACAD_REACTORS
330
2A
102
}
330
2A
100
AcDbProxyObject
 90
      499
 91
      501
 93
      404
310
41560B54985E51940902404000000000000E03F0000000000000F9010740501907004050150841D405064090740C02480A1B40
1001
ACAD
1000
AcDbSavedByObjectVersion
1070
     0
  0
XRECORD
  5
19F
102
{ACAD_REACTORS
330
195
102
}
330
195
100
AcDbXrecord
340
0
  0
XRECORD
  5
19E
102
{ACAD_REACTORS
330
195
102
}
330
195
100
AcDbXrecord
 90
        0
  0
XRECORD
  5
1B5
102
{ACAD_REACTORS
330
195
102
}
330
195
100
AcDbXrecord
1000
DSTYLE
1002
{
1070
   171
 70
     2
1070
   143
 40
25.4
1070
   274
 70
     2
1070
    41
 40
0.18
1070
   141
 40
0.09
1070
   271
 70
     4
1070
    43
 40
0.38
1070
   278
 70
    46
1070
    44
 40
0.18
1070
    42
 40
0.0625
1070
   147
 40
0.09
1070
    77
 70
     0
1070
   272
 70
     4
1070
    73
 70
     1
1070
   172
 70
     0
1070
    74
 70
     1
1070
   283
 70
     1
1070
   340
340
11
1070
   140
 40
0.18
1070
   284
 70
     0
1070
    78
 70
     0
1002
}
  0
XRECORD
  5
1A0
102
{ACAD_REACTORS
330
195
102
}
330
195
100
AcDbXrecord
  1
{165606F7-EE14-4E62-B078-DEB76671EB2B}
  0
XRECORD
  5
198
102
{ACAD_REACTORS
330
195
102
}
330
195
100
AcDbXrecord
  1

  0
XRECORD
  5
19D
102
{ACAD_REACTORS
330
195
102
}
330
195
100
AcDbXrecord
 90
        4
  0
XRECORD
  5
19A
102
{ACAD_REACTORS
330
195
102
}
330
195
100
AcDbXrecord
340
1A
  0
XRECORD
  5
19C
102
{ACAD_REACTORS
330
195
102
}
330
195
100
AcDbXrecord
 90
    10781
  0
XRECORD
  5
19B
102
{ACAD_REACTORS
330
195
102
}
330
195
100
AcDbXrecord
340
19
  0
XRECORD
  5
1A2
102
{ACAD_REACTORS
330
195
102
}
330
195
100
AcDbXrecord
 40
0.0
  0
XRECORD
  5
1A5
102
{ACAD_REACTORS
330
195
102
}
330
195
100
AcDbXrecord
340
0
  0
XRECORD
  5
1AB
102
{ACAD_REACTORS
330
195
102
}
330
195
100
AcDbXrecord
 10
0.0
 20
0.0
 30
0.0
  0
XRECORD
  5
1A7
102
{ACAD_REACTORS
330
195
102
}
330
195
100
AcDbXrecord
 10
0.0
 20
0.0
 30
0.0
  0
XRECORD
  5
1AA
102
{ACAD_REACTORS
330
195
102
}
330
195
100
AcDbXrecord
 10
0.0
 20
0.0
 30
0.0
  0
XRECORD
  5
1A8
102
{ACAD_REACTORS
330
195
102
}
330
195
100
AcDbXrecord
 10
0.0
 20
0.0
 30
0.0
  0
XRECORD
  5
1A9
102
{ACAD_REACTORS
330
195
102
}
330
195
100
AcDbXrecord
 10
0.0
 20
0.0
 30
0.0
  0
XRECORD
  5
1A6
102
{ACAD_REACTORS
330
195
102
}
330
195
100
AcDbXrecord
 10
0.0
 20
0.0
 30
0.0
  0
XRECORD
  5
1A3
102
{ACAD_REACTORS
330
195
102
}
330
195
100
AcDbXrecord
340
0
  0
XRECORD
  5
1A4
102
{ACAD_REACTORS
330
195
102
}
330
195
100
AcDbXrecord
 70
     0
  0
XRECORD
  5
199
102
{ACAD_REACTORS
330
195
102
}
330
195
100
AcDbXrecord
  1

  0
XRECORD
  5
196
102
{ACAD_REACTORS
330
195
102
}
330
195
100
AcDbXrecord
 90
        1
  0
XRECORD
  5
197
102
{ACAD_REACTORS
330
195
102
}
330
195
100
AcDbXrecord
 90
       70
  0
XRECORD
  5
1AE
102
{ACAD_REACTORS
330
195
102
}
330
195
100
AcDbXrecord
340
0
  0
XRECORD
  5
1B4
102
{ACAD_REACTORS
330
195
102
}
330
195
100
AcDbXrecord
 10
0.0
 20
0.0
 30
0.0
  0
XRECORD
  5
1B0
102
{ACAD_REACTORS
330
195
102
}
330
195
100
AcDbXrecord
 10
0.0
 20
0.0
 30
0.0
  0
XRECORD
  5
1B3
102
{ACAD_REACTORS
330
195
102
}
330
195
100
AcDbXrecord
 10
0.0
 20
0.0
 30
0.0
  0
XRECORD
  5
1B1
102
{ACAD_REACTORS
330
195
102
}
330
195
100
AcDbXrecord
 10
0.0
 20
0.0
 30
0.0
  0
XRECORD
  5
1B2
102
{ACAD_REACTORS
330
195
102
}
330
195
100
AcDbXrecord
 10
0.0
 20
0.0
 30
0.0
  0
XRECORD
  5
1AF
102
{ACAD_REACTORS
330
195
102
}
330
195
100
AcDbXrecord
 10
0.0
 20
0.0
 30
0.0
  0
XRECORD
  5
1AC
102
{ACAD_REACTORS
330
195
102
}
330
195
100
AcDbXrecord
340
0
  0
XRECORD
  5
1AD
102
{ACAD_REACTORS
330
195
102
}
330
195
100
AcDbXrecord
 70
     0
  0
XRECORD
  5
1A1
102
{ACAD_REACTORS
330
195
102
}
330
195
100
AcDbXrecord
  1
{FAEB1C32-E019-11D5-929B-00C0DF256EC4}
  0
DICTIONARYVAR
  5
1BF
102
{ACAD_REACTORS
330
1B6
102
}
330
1B6
100
DictionaryVariables
280
     0
  1
1:1
  0
DICTIONARYVAR
  5
1B8
102
{ACAD_REACTORS
330
1B6
102
}
330
1B6
100
DictionaryVariables
280
     0
  1
Standard
  0
DICTIONARYVAR
  5
1B7
102
{ACAD_REACTORS
330
1B6
102
}
330
1B6
100
DictionaryVariables
280
     0
  1
Standard
  0
DICTIONARYVAR
  5
1BB
102
{ACAD_REACTORS
330
1B6
102
}
330
1B6
100
DictionaryVariables
280
     0
  1
2
  0
DICTIONARYVAR
  5
1BC
102
{ACAD_REACTORS
330
1B6
102
}
330
1B6
100
DictionaryVariables
280
     0
  1
1
  0
DICTIONARYVAR
  5
1C0
102
{ACAD_REACTORS
330
1B6
102
}
330
1B6
100
DictionaryVariables
280
     0
  1
1
  0
DICTIONARY
  5
1C3
330
45
100
AcDbDictionary
280
     1
  3
ACAD_XREC_ROUNDTRIP
360
1C4
  0
DICTIONARY
  5
1C1
330
44
100
AcDbDictionary
280
     1
  3
ACAD_XREC_ROUNDTRIP
360
1C2
  0
DICTIONARY
  5
1C5
330
46
100
AcDbDictionary
280
     1
  3
ACAD_XREC_ROUNDTRIP
360
1C6
  0
XRECORD
  5
1C4
102
{ACAD_REACTORS
330
1C3
102
}
330
1C3
100
AcDbXrecord
102
MATERIAL
148
0.0
149
0.0
149
0.0
 93
        0
 94
      127
282
     0
 72
     1
 77
     1
171
     1
175
     1
179
     1
273
     0
  0
XRECORD
  5
1C2
102
{ACAD_REACTORS
330
1C1
102
}
330
1C1
100
AcDbXrecord
102
MATERIAL
148
0.0
149
0.0
149
0.0
 93
        0
 94
      127
282
     0
 72
     1
 77
     1
171
     1
175
     1
179
     1
273
     0
  0
XRECORD
  5
1C6
102
{ACAD_REACTORS
330
1C5
102
}
330
1C5
100
AcDbXrecord
102
MATERIAL
148
0.0
149
0.0
149
0.0
 93
        0
 94
      127
282
     0
 72
     1
 77
     1
171
     1
175
     1
179
     1
273
     0
  0
ENDSEC
  0
EOF
