  0
SECTION
  2
HEADER
  9
$ACADVER
  1
AC1014
  9
$HANDSEED
  5
FFFF
  9
$MEASUREMENT
 70
     1
  0
ENDSEC
  0
SECTION
  2
TABLES
  0
TABLE
  2
VPORT
  5
8
330
0
100
AcDbSymbolTable
 70
     4
  0
VPORT
  5
2E
330
8
100
AcDbSymbolTableRecord
100
AcDbViewportTableRecord
  2
*ACTIVE
 70
     0
 10
0.0
 20
0.0
 11
1.0
 21
1.0
 12
210.0
 22
148.5
 13
0.0
 23
0.0
 14
10.0
 24
10.0
 15
10.0
 25
10.0
 16
0.0
 26
0.0
 36
1.0
 17
0.0
 27
0.0
 37
0.0
 40
341.0
 41
1.24
 42
50.0
 43
0.0
 44
0.0
 50
0.0
 51
0.0
 71
     0
 72
   100
 73
     1
 74
     3
 75
     0
 76
     0
 77
     0
 78
     0
  0
ENDTAB
  0
TABLE
  2
LTYPE
  5
5
330
0
100
AcDbSymbolTable
 70
     1
  0
LTYPE
  5
14
330
5
100
AcDbSymbolTableRecord
100
AcDbLinetypeTableRecord
  2
BYBLOCK
 70
     0
  3

 72
    65
 73
     0
 40
0.0
  0
LTYPE
  5
15
330
5
100
AcDbSymbolTableRecord
100
AcDbLinetypeTableRecord
  2
BYLAYER
 70
     0
  3

 72
    65
 73
     0
 40
0.0
  0
LTYPE
  5
16
330
5
100
AcDbSymbolTableRecord
100
AcDbLinetypeTableRecord
  2
CONTINUOUS
 70
     0
  3
Solid line
 72
    65
 73
     0
 40
0.0
  0
ENDTAB
  0
TABLE
  2
LAYER
  5
2
100
AcDbSymbolTable
 70
1
  0
LAYER
  5
50
100
AcDbSymbolTableRecord
100
AcDbLayerTableRecord
  2
0
 70
0
  6
CONTINUOUS
  0
ENDTAB
  0
TABLE
  2
STYLE
  5
3
330
0
100
AcDbSymbolTable
 70
     1
  0
STYLE
  5
11
330
3
100
AcDbSymbolTableRecord
100
AcDbTextStyleTableRecord
  2
STANDARD
 70
     0
 40
0.0
 41
1.0
 50
0.0
 71
     0
 42
2.5
  3
txt
  4

  0
ENDTAB
  0
TABLE
  2
VIEW
  5
6
330
0
100
AcDbSymbolTable
 70
     0
  0
ENDTAB
  0
TABLE
  2
UCS
  5
7
330
0
100
AcDbSymbolTable
 70
     0
  0
ENDTAB
  0
TABLE
  2
APPID
  5
9
330
0
100
AcDbSymbolTable
 70
     2
  0
APPID
  5
12
330
9
100
AcDbSymbolTableRecord
100
AcDbRegAppTableRecord
  2
ACAD
 70
     0
  0
ENDTAB
  0
TABLE
  2
DIMSTYLE
  5
A
330
0
100
AcDbSymbolTable
 70
     1
  0
DIMSTYLE
105
27
330
A
100
AcDbSymbolTableRecord
100
AcDbDimStyleTableRecord
  2
ISO-25
 70
     0
  3

  4

  5

  6

  7

 40
1.0
 41
2.5
 42
0.625
 43
3.75
 44
1.25
 45
0.0
 46
0.0
 47
0.0
 48
0.0
140
2.5
141
2.5
142
0.0
143
0.03937007874016
144
1.0
145
0.0
146
1.0
147
0.625
 71
     0
 72
     0
 73
     0
 74
     0
 75
     0
 76
     0
 77
     1
 78
     8
170
     0
171
     3
172
     1
173
     0
174
     0
175
     0
176
     0
177
     0
178
     0
270
     2
271
     2
272
     2
273
     2
274
     3
340
11
275
     0
280
     0
281
     0
282
     0
283
     0
284
     8
285
     0
286
     0
287
     3
288
     0
  0
ENDTAB
  0
TABLE
  2
BLOCK_RECORD
  5
1
330
0
100
AcDbSymbolTable
 70
     1
  0
BLOCK_RECORD
  5
1F
330
1
100
AcDbSymbolTableRecord
100
AcDbBlockTableRecord
  2
*MODEL_SPACE
  0
BLOCK_RECORD
  5
1B
330
1
100
AcDbSymbolTableRecord
100
AcDbBlockTableRecord
  2
*PAPER_SPACE
  0
ENDTAB
  0
ENDSEC
  0
SECTION
  2
BLOCKS
  0
BLOCK
  5
20
330
1F
100
AcDbEntity
  8
0
100
AcDbBlockBegin
  2
*MODEL_SPACE
 70
     0
 10
0.0
 20
0.0
 30
0.0
  3
*MODEL_SPACE
  1

  0
ENDBLK
  5
21
330
1F
100
AcDbEntity
  8
0
100
AcDbBlockEnd
  0
BLOCK
  5
1C
330
1B
100
AcDbEntity
 67
     1
  8
0
100
AcDbBlockBegin
  2
*PAPER_SPACE
  1

  0
ENDBLK
  5
1D
330
1B
100
AcDbEntity
 67
     1
  8
0
100
AcDbBlockEnd
  0
ENDSEC
  0
SECTION
  2
ENTITIES
  0
LINE
  5
100
100
AcDbEntity
  8
0
 62
7
100
AcDbLine
 10
250.760487
 20
104.849757
 30
0.0
 11
253.428154
 21
103.518440
 31
0.0
  0
LINE
  5
101
100
AcDbEntity
  8
0
 62
7
100
AcDbLine
 10
253.428154
 20
103.518440
 30
0.0
 11
256.858008
 21
103.405415
 31
0.0
  0
SPLINE
  5
102
100
AcDbEntity
  8
0
 62
7
100
AcDbSpline
 70
0
 71
3
 72
19
 73
15
 74
13
 40
0.000000
 40
0.000000
 40
0.000000
 40
0.000000
 40
1.892275
 40
4.678553
 40
9.345941
 40
13.360977
 40
16.477605
 40
19.892905
 40
22.330068
 40
23.763415
 40
24.759948
 40
26.251843
 40
27.912759
 40
30.506857
 40
30.506857
 40
30.506857
 40
30.506857
 10
241.804756
 20
81.973850
 30
0.0
 10
241.594485
 20
82.584761
 30
0.0
 10
241.074601
 20
84.095208
 30
0.0
 10
242.232466
 20
87.173834
 30
0.0
 10
243.847399
 20
90.551072
 30
0.0
 10
245.599830
 20
94.115003
 30
0.0
 10
246.134366
 20
97.665314
 30
0.0
 10
245.386461
 20
100.621563
 30
0.0
 10
244.754169
 20
102.908261
 30
0.0
 10
244.543714
 20
104.626756
 30
0.0
 10
245.411284
 20
105.713724
 30
0.0
 10
246.777912
 20
106.226493
 30
0.0
 10
248.716288
 20
105.870988
 30
0.0
 10
249.986248
 20
105.236548
 30
0.0
 10
250.760487
 20
104.849757
 30
0.0
 11
241.804756
 21
81.973850
 31
0.0
 11
241.353807
 21
83.811607
 31
0.0
 11
242.017041
 21
86.517797
 31
0.0
 11
243.958605
 21
90.762186
 31
0.0
 11
245.512102
 21
94.464505
 31
0.0
 11
245.919861
 21
97.554343
 31
0.0
 11
245.298127
 21
100.912574
 31
0.0
 11
244.733876
 21
103.283521
 31
0.0
 11
244.748429
 21
104.716794
 31
0.0
 11
245.344857
 21
105.515136
 31
0.0
 11
246.727842
 21
106.074694
 31
0.0
 11
248.376362
 21
105.872152
 31
0.0
 11
250.760487
 21
104.849757
 31
0.0
  0
LINE
  5
103
100
AcDbEntity
  8
0
 62
7
100
AcDbLine
 10
241.804756
 20
81.973850
 30
0.0
 11
241.804756
 21
81.973850
 31
0.0
  0
SPLINE
  5
104
100
AcDbEntity
  8
0
 62
7
100
AcDbSpline
 70
0
 71
3
 72
28
 73
24
 74
22
 40
0.000000
 40
0.000000
 40
0.000000
 40
0.000000
 40
1.795233
 40
3.204667
 40
3.928713
 40
4.341319
 40
4.962267
 40
6.263845
 40
9.469149
 40
11.510859
 40
13.408373
 40
15.739377
 40
17.114970
 40
20.034793
 40
23.750223
 40
28.383898
 40
32.500942
 40
35.060538
 40
36.864650
 40
38.193159
 40
38.775696
 40
39.188957
 40
39.781251
 40
39.781251
 40
39.781251
 40
39.781251
 10
256.858008
 20
103.405415
 30
0.0
 10
257.457861
 20
103.384769
 30
0.0
 10
258.528657
 20
103.347913
 30
0.0
 10
259.815398
 20
103.187770
 30
0.0
 10
260.688621
 20
103.147779
 30
0.0
 10
261.172504
 20
102.732251
 30
0.0
 10
261.139753
 20
101.893843
 30
0.0
 10
260.996443
 20
100.236632
 30
0.0
 10
260.743479
 20
98.048279
 30
0.0
 10
260.919643
 20
95.627149
 30
0.0
 10
261.719741
 20
93.745379
 30
0.0
 10
263.104200
 20
92.024224
 30
0.0
 10
261.662987
 20
89.923964
 30
0.0
 10
258.808575
 20
89.781952
 30
0.0
 10
255.399990
 20
88.226794
 30
0.0
 10
251.646941
 20
86.427773
 30
0.0
 10
248.446076
 20
84.414830
 30
0.0
 10
246.186636
 20
82.725847
 30
0.0
 10
244.538451
 20
81.745689
 30
0.0
 10
243.358119
 20
81.390790
 30
0.0
 10
242.571648
 20
81.249815
 30
0.0
 10
242.064331
 20
81.493888
 30
0.0
 10
241.900976
 20
81.795937
 30
0.0
 10
241.804756
 20
81.973850
 30
0.0
 11
256.858008
 21
103.405415
 31
0.0
 11
258.650915
 21
103.314048
 31
0.0
 11
260.054259
 21
103.183162
 31
0.0
 11
260.764229
 21
103.041092
 31
0.0
 11
261.067487
 21
102.761309
 31
0.0
 11
261.146507
 21
102.145409
 31
0.0
 11
261.045632
 21
100.847746
 31
0.0
 11
260.822448
 21
97.650222
 31
0.0
 11
261.032138
 21
95.619308
 31
0.0
 11
261.766130
 21
93.869503
 31
0.0
 11
262.659251
 21
91.716387
 31
0.0
 11
261.937694
 21
90.545229
 31
0.0
 11
259.161243
 21
89.641517
 31
0.0
 11
255.680081
 21
88.343085
 31
0.0
 11
251.535705
 21
86.270624
 31
0.0
 11
248.047415
 21
84.083873
 31
0.0
 11
245.950633
 21
82.615869
 31
0.0
 11
244.371485
 21
81.743450
 31
0.0
 11
243.102037
 21
81.351738
 31
0.0
 11
242.520818
 21
81.312592
 31
0.0
 11
242.148188
 21
81.491287
 31
0.0
 11
241.804756
 21
81.973850
 31
0.0
  0
ENDSEC
  0
SECTION
  2
OBJECTS
  0
DICTIONARY
  5
C
330
0
100
AcDbDictionary
  3
ACAD_GROUP
350
D
  3
ACAD_MLINESTYLE
350
17
  0
DICTIONARY
  5
D
330
C
100
AcDbDictionary
  0
DICTIONARY
  5
1A
330
C
100
AcDbDictionary
  0
DICTIONARY
  5
17
330
C
100
AcDbDictionary
  3
STANDARD
350
18
  0
DICTIONARY
  5
19
330
C
100
AcDbDictionary
  0
ENDSEC
  0
EOF
